<svg width="44" height="44" viewBox="0 0 44 44" fill="none" xmlns="http://www.w3.org/2000/svg">
<g filter="url(#filter0_f)">
<circle cx="22" cy="22" r="18" fill="#6C63FF"/>
<circle cx="22" cy="22" r="17" stroke="#5550A8" stroke-width="2"/>
</g>
<g opacity="0.8" filter="url(#filter1_d)">
<path d="M28.6973 31H15.6543V29.1816L22.5449 21.5254C23.5658 20.3678 24.2676 19.429 24.6504 18.709C25.0423 17.9798 25.2383 17.2279 25.2383 16.4531C25.2383 15.4141 24.9238 14.5618 24.2949 13.8965C23.666 13.2311 22.8275 12.8984 21.7793 12.8984C20.5215 12.8984 19.5417 13.2585 18.8398 13.9785C18.1471 14.6895 17.8008 15.6829 17.8008 16.959H15.2715C15.2715 15.127 15.8594 13.6458 17.0352 12.5156C18.2201 11.3854 19.8014 10.8203 21.7793 10.8203C23.6296 10.8203 25.0924 11.3079 26.168 12.2832C27.2435 13.2493 27.7812 14.5391 27.7812 16.1523C27.7812 18.112 26.5326 20.4453 24.0352 23.1523L18.7031 28.9355H28.6973V31Z" fill="white"/>
</g>
<defs>
<filter id="filter0_f" x="0" y="0" width="44" height="44" filterUnits="userSpaceOnUse" color-interpolation-filters="sRGB">
<feFlood flood-opacity="0" result="BackgroundImageFix"/>
<feBlend mode="normal" in="SourceGraphic" in2="BackgroundImageFix" result="shape"/>
<feGaussianBlur stdDeviation="2" result="effect1_foregroundBlur"/>
</filter>
<filter id="filter1_d" x="11.2715" y="10.8203" width="21.4258" height="28.1797" filterUnits="userSpaceOnUse" color-interpolation-filters="sRGB">
<feFlood flood-opacity="0" result="BackgroundImageFix"/>
<feColorMatrix in="SourceAlpha" type="matrix" values="0 0 0 0 0 0 0 0 0 0 0 0 0 0 0 0 0 0 127 0"/>
<feOffset dy="4"/>
<feGaussianBlur stdDeviation="2"/>
<feColorMatrix type="matrix" values="0 0 0 0 0 0 0 0 0 0 0 0 0 0 0 0 0 0 0.25 0"/>
<feBlend mode="normal" in2="BackgroundImageFix" result="effect1_dropShadow"/>
<feBlend mode="normal" in="SourceGraphic" in2="effect1_dropShadow" result="shape"/>
</filter>
</defs>
</svg>
