<svg width="60" height="81" viewBox="0 0 60 81" fill="none" xmlns="http://www.w3.org/2000/svg">
<path d="M14.8286 74.384C14.8286 75.7064 16.1429 76.4778 18.7714 76.6982C19.8 76.6982 20.3143 77.0012 20.3143 77.6073C20.3143 77.6624 20.2571 78.0205 20.1429 78.6817C19.9714 79.4531 19.8 79.949 19.6286 80.1694C19.4571 80.3898 19.0857 80.5 18.5143 80.5C18.4 80.5 18.0571 80.5 17.4857 80.5C16.9143 80.5 15.9429 80.4725 14.5714 80.4174C13.2 80.3623 11.3714 80.3347 9.08571 80.3347C5.02857 80.3347 2.42857 80.3898 1.28571 80.5H0.6C0.2 80.1143 0 79.8113 0 79.5909C0.114286 78.1032 0.485714 77.1389 1.11429 76.6982H2.31429C6.31429 76.5329 9.22857 75.1554 11.0571 72.5657C11.4 72.2351 16.5714 63.8325 26.5714 47.3578C36.5714 30.8831 41.6571 22.5356 41.8286 22.3152C42.2286 21.654 42.9143 21.3234 43.8857 21.3234H44.5714H46.0286C46.3714 21.8193 46.5429 22.0948 46.5429 22.1499L48.9429 48.8455C50.5429 66.6425 51.4 75.6237 51.5143 75.789C51.8 76.3951 53.6571 76.6982 57.0857 76.6982C58.5143 76.6982 59.2286 76.9736 59.2286 77.5246C59.2286 77.6348 59.1429 78.0205 58.9714 78.6817C58.8 79.5082 58.6571 80.0041 58.5429 80.1694C58.4286 80.3347 58.0286 80.4449 57.3429 80.5C57.1714 80.5 56.7714 80.5 56.1429 80.5C55.5143 80.5 54.4 80.4725 52.8 80.4174C51.2 80.3623 49.1143 80.3347 46.5429 80.3347C41.1714 80.3347 37.6571 80.3898 36 80.5H34.9714C34.6286 80.1694 34.4571 79.9215 34.4571 79.7562C34.4571 79.5909 34.5143 79.095 34.6286 78.2685C34.8571 77.5522 35.0286 77.1114 35.1429 76.9461L35.4857 76.6982H37.2C40.2857 76.5329 42.1143 76.0645 42.6857 75.2931L41.6571 62.8958H21.2571L18.3429 67.6894C16 71.4913 14.8286 73.7228 14.8286 74.384ZM41.2286 59.0113C41.2286 58.4052 40.8857 54.1075 40.2 46.1181C39.5143 38.1287 39.1143 34.1064 39 34.0513L36.6857 37.6052C35.7714 39.0929 33.9714 42.0407 31.2857 46.4487L23.5714 59.0113L32.4 59.0939C38.2857 59.0939 41.2286 59.0664 41.2286 59.0113Z" fill="#4066E0"/>
<path d="M51.9429 1.65297C51.9429 1.21218 52.0857 0.826485 52.3714 0.49589C52.6571 0.165295 53.0857 -3.8147e-06 53.6571 -3.8147e-06C54.0571 -3.8147e-06 54.4 0.137745 54.6857 0.41324C54.9714 0.633637 55.2571 1.15708 55.5429 1.98357C56.1143 4.02224 57.2857 5.59257 59.0571 6.69455C59.6857 7.08025 60 7.57614 60 8.18223C60 8.67813 59.9143 9.00872 59.7429 9.17402C59.5714 9.33932 59.1714 9.58726 58.5429 9.91786C56.0857 11.13 53.9429 12.8657 52.1143 15.1247C52 15.2349 51.8571 15.4002 51.6857 15.6206C51.5143 15.841 51.3714 16.0063 51.2571 16.1165C51.1429 16.2267 51 16.2818 50.8286 16.2818C50.6571 16.2818 50.4571 16.3094 50.2286 16.3645C49.8286 16.3645 49.4571 16.2267 49.1143 15.9512C48.7714 15.6757 48.5714 15.2625 48.5143 14.7115C48.5143 13.6646 49.8571 12.0392 52.5429 9.83521H37.8857L23.2286 9.75256C22.4857 9.25667 22.1143 8.73323 22.1143 8.18223C22.1143 7.79654 22.4857 7.24555 23.2286 6.52926H54C52.6286 4.43548 51.9429 2.81006 51.9429 1.65297Z" fill="#4066E0"/>
</svg>
