<svg width="55" height="51" viewBox="0 0 55 51" fill="none" xmlns="http://www.w3.org/2000/svg">
<path d="M8.92716 32.0703C8.92716 32.8696 9.71839 33.3358 11.3009 33.469C11.9201 33.469 12.2297 33.6522 12.2297 34.0185C12.2297 34.0518 12.1953 34.2683 12.1265 34.6679C12.0233 35.1341 11.9201 35.4339 11.8169 35.5671C11.7137 35.7003 11.4901 35.7669 11.146 35.7669C11.0772 35.7669 10.8708 35.7669 10.5268 35.7669C10.1828 35.7669 9.59798 35.7502 8.77235 35.7169C7.94672 35.6836 6.84587 35.667 5.46982 35.667C3.02732 35.667 1.46206 35.7003 0.774031 35.7669H0.361214C0.120405 35.5338 0 35.3506 0 35.2174C0.0688028 34.3182 0.292412 33.7354 0.670827 33.469H1.39326C3.80135 33.3691 5.55582 32.5365 6.65667 30.9713C6.86307 30.7715 9.9764 25.6929 15.9966 15.7354C22.0169 5.77798 25.0786 0.732655 25.1818 0.599445C25.4226 0.199814 25.8354 0 26.4203 0H26.8331H27.7103C27.9167 0.299725 28.0199 0.466236 28.0199 0.499538L29.4648 16.6346C30.428 27.3913 30.944 32.8196 31.0128 32.9195C31.1848 33.2859 32.3029 33.469 34.367 33.469C35.227 33.469 35.657 33.6355 35.657 33.9686C35.657 34.0352 35.6054 34.2683 35.5022 34.6679C35.399 35.1674 35.313 35.4672 35.2442 35.5671C35.1754 35.667 34.9346 35.7336 34.5218 35.7669C34.4186 35.7669 34.1778 35.7669 33.7994 35.7669C33.4209 35.7669 32.7501 35.7502 31.7869 35.7169C30.8236 35.6836 29.568 35.667 28.0199 35.667C24.7862 35.667 22.6705 35.7003 21.6729 35.7669H21.0536C20.8472 35.5671 20.744 35.4172 20.744 35.3173C20.744 35.2174 20.7784 34.9177 20.8472 34.4181C20.9848 33.9852 21.088 33.7188 21.1568 33.6189L21.3633 33.469H22.3953C24.253 33.3691 25.3538 33.086 25.6978 32.6198L25.0786 25.1267H12.7973L11.0428 28.0241C9.63239 30.3219 8.92716 31.6707 8.92716 32.0703ZM24.8206 22.7789C24.8206 22.4126 24.6142 19.815 24.2014 14.9861C23.7886 10.1573 23.5477 7.72618 23.4789 7.69288L22.0857 9.84089C21.5353 10.7401 20.4516 12.5217 18.8348 15.1859L14.1906 22.7789L19.5056 22.8289C23.0489 22.8289 24.8206 22.8122 24.8206 22.7789Z" fill="#6C63FF"/>
<path d="M37.6616 33.1239C37.6616 32.7943 37.844 32.2292 38.2089 31.4287C38.5737 30.6281 39.1574 29.7923 39.96 28.9211C40.7626 28.05 41.6625 27.6262 42.6597 27.6497C43.6569 27.6497 44.4596 27.9205 45.0676 28.462C45.6756 29.0035 45.9918 29.757 46.0161 30.7223C45.9675 31.1697 45.931 31.4169 45.9067 31.464C45.9067 31.5346 45.7121 32.0761 45.323 33.0886C44.9338 34.101 44.5325 35.2429 44.119 36.5143C43.7056 37.7858 43.511 38.7982 43.5353 39.5516C43.5353 40.5641 43.7056 41.2704 44.0461 41.6707C44.3866 42.0709 44.8973 42.2828 45.5784 42.3064C46.1378 42.3064 46.6607 42.1769 47.1471 41.9179C47.6335 41.6589 48.0105 41.3881 48.2781 41.1056C48.5456 40.8231 48.874 40.4346 49.2631 39.9401C49.2631 39.9166 49.3239 39.6811 49.4455 39.2338C49.5671 38.7864 49.7374 38.0919 49.9563 37.1501C50.1752 36.2083 50.4062 35.3371 50.6494 34.5366C51.5737 31.0048 52.0844 29.1566 52.1817 28.9918C52.4979 28.356 53.0208 28.0382 53.7505 28.0382C54.0667 28.0382 54.322 28.1206 54.5166 28.2854C54.7112 28.4502 54.8449 28.5915 54.9179 28.7092C54.9909 28.8269 55.0152 28.9329 54.9909 29.0271C54.9909 29.3332 54.395 31.8054 53.2032 36.4437C52.0115 41.0821 51.3305 43.6249 51.1602 44.0723C50.4792 46.0265 49.2996 47.5804 47.6214 48.7341C45.9432 49.8878 44.265 50.4765 42.5868 50.5C41.4923 50.5 40.5316 50.241 39.7046 49.723C38.8777 49.205 38.4642 48.4281 38.4642 47.3921C38.4642 46.8741 38.5494 46.4385 38.7196 46.0853C38.8899 45.7322 39.1209 45.4732 39.4128 45.3084C39.7046 45.1435 39.9479 45.0258 40.1424 44.9552C40.337 44.8845 40.5437 44.8492 40.7626 44.8492C41.8328 44.8492 42.3679 45.3437 42.3679 46.3326C42.3679 46.8035 42.2219 47.2155 41.9301 47.5687C41.6382 47.9218 41.3585 48.1573 41.091 48.275C40.8234 48.3927 40.6654 48.4516 40.6167 48.4516L40.5073 48.4869C40.5559 48.6046 40.787 48.7459 41.2004 48.9107C41.6139 49.0755 42.0274 49.1579 42.4408 49.1579H42.7327C43.1462 49.1579 43.4624 49.1344 43.6813 49.0873C44.4839 48.8754 45.2257 48.4281 45.9067 47.7453C46.5877 47.0624 47.1106 46.3326 47.4755 45.5556C47.8403 44.7786 48.12 44.1193 48.3146 43.5778C48.5091 43.0363 48.6064 42.6831 48.6064 42.5183L48.3875 42.6596C48.2416 42.7537 48.0105 42.8832 47.6943 43.048C47.3782 43.2129 47.062 43.3541 46.7458 43.4719C46.2594 43.5896 45.7851 43.6484 45.323 43.6484C44.2042 43.6484 43.2191 43.3894 42.3679 42.8715C41.5166 42.3535 40.9572 41.5176 40.6897 40.3639C40.6654 40.1991 40.6532 39.8342 40.6532 39.2691C40.6532 37.927 41.0788 36.1729 41.9301 34.0068C42.7813 31.8407 43.207 30.4633 43.207 29.8747C43.207 29.8511 43.207 29.8276 43.207 29.8041C43.207 29.5922 43.207 29.4509 43.207 29.3803C43.207 29.3096 43.1583 29.2272 43.061 29.133C42.9638 29.0389 42.83 28.9918 42.6597 28.9918H42.5138C41.9544 28.9918 41.4436 29.2154 40.9815 29.6628C40.5194 30.1101 40.1546 30.5928 39.8871 31.1108C39.6195 31.6288 39.4128 32.1232 39.2669 32.5941C39.1209 33.065 39.0236 33.324 38.975 33.3711C38.9263 33.4182 38.7318 33.4417 38.3913 33.4417H37.8805C37.7346 33.3005 37.6616 33.1945 37.6616 33.1239Z" fill="#6C63FF"/>
</svg>
