<svg width="55" height="50" viewBox="0 0 55 50" fill="none" xmlns="http://www.w3.org/2000/svg">
<path d="M8.77724 36.8152C8.77724 37.7254 9.55518 38.2563 11.1111 38.408C11.7199 38.408 12.0243 38.6166 12.0243 39.0337C12.0243 39.0717 11.9905 39.3182 11.9228 39.7732C11.8214 40.3042 11.7199 40.6455 11.6184 40.7972C11.517 40.9489 11.2971 41.0247 10.9589 41.0247C10.8912 41.0247 10.6883 41.0247 10.35 41.0247C10.0118 41.0247 9.4368 41.0058 8.62503 40.9678C7.81326 40.9299 6.73091 40.911 5.37796 40.911C2.97648 40.911 1.43751 40.9489 0.761032 41.0247H0.355148C0.118383 40.7593 0 40.5507 0 40.399C0.0676473 39.375 0.287501 38.7114 0.659561 38.408H1.36986C3.73751 38.2942 5.46252 37.3461 6.54488 35.5637C6.74782 35.3362 9.80886 29.5528 15.728 18.2136C21.6471 6.87434 24.6574 1.12888 24.7589 0.97718C24.9957 0.522095 25.4016 0.294552 25.9766 0.294552H26.3824H27.245C27.4479 0.635864 27.5494 0.825485 27.5494 0.863407L28.97 19.2375C29.917 31.4869 30.4244 37.6685 30.492 37.7822C30.6611 38.1994 31.7604 38.408 33.7898 38.408C34.6354 38.408 35.0582 38.5976 35.0582 38.9768C35.0582 39.0527 35.0075 39.3182 34.906 39.7732C34.8045 40.3421 34.72 40.6834 34.6523 40.7972C34.5847 40.911 34.3479 40.9868 33.942 41.0247C33.8406 41.0247 33.6038 41.0247 33.2317 41.0247C32.8597 41.0247 32.2001 41.0058 31.2531 40.9678C30.306 40.9299 29.0714 40.911 27.5494 40.911C24.3699 40.911 22.2898 40.9489 21.3089 41.0247H20.7001C20.4971 40.7972 20.3957 40.6265 20.3957 40.5128C20.3957 40.399 20.4295 40.0577 20.4971 39.4888C20.6324 38.9958 20.7339 38.6924 20.8015 38.5786L21.0045 38.408H22.0192C23.8457 38.2942 24.928 37.9719 25.2663 37.4409L24.6574 28.9081H12.5824L10.8574 32.2074C9.47062 34.8242 8.77724 36.3601 8.77724 36.8152ZM24.4038 26.2344C24.4038 25.8173 24.2008 22.8592 23.7949 17.3603C23.3891 11.8613 23.1523 9.09288 23.0846 9.05495L21.7148 11.501C21.1736 12.525 20.1082 14.5539 18.5184 17.5878L13.9523 26.2344L19.178 26.2913C22.6618 26.2913 24.4038 26.2724 24.4038 26.2344Z" fill="#4066E0"/>
<path d="M38.1411 37.9345C38.3085 36.8084 38.9542 35.508 40.0781 34.0334C41.202 32.5587 42.589 31.808 44.239 31.7811C45.076 31.7811 45.8412 32.0225 46.5347 32.5051C47.2282 32.9877 47.7423 33.591 48.0771 34.3149C49.0814 32.6257 50.2891 31.7811 51.7 31.7811C52.5847 31.7811 53.35 32.0761 53.9956 32.6659C54.6413 33.2558 54.9761 34.0468 55 35.0388C55 35.8164 54.8326 36.4465 54.4978 36.9291C54.163 37.4117 53.8402 37.7066 53.5293 37.8139C53.2184 37.9211 52.9434 37.9748 52.7043 37.9748C52.25 37.9748 51.8793 37.8273 51.5923 37.5324C51.3054 37.2374 51.1619 36.8486 51.1619 36.366C51.1619 35.1327 51.7597 34.2881 52.9554 33.8323C52.6924 33.4837 52.2141 33.3094 51.5206 33.3094C51.2097 33.3094 50.9826 33.3363 50.8391 33.3899C49.9304 33.8189 49.2608 34.7037 48.8304 36.0443C47.3956 41.9698 46.6782 45.4285 46.6782 46.4206C46.6782 47.1713 46.8695 47.7076 47.2521 48.0293C47.6347 48.3511 48.0532 48.5119 48.5075 48.5119C49.3923 48.5119 50.2652 48.0695 51.126 47.1847C51.9869 46.2999 52.5728 45.214 52.8837 43.927C52.9554 43.6589 53.0271 43.5115 53.0989 43.4846C53.1706 43.4578 53.3619 43.431 53.6728 43.4042H53.8163C54.175 43.4042 54.3543 43.5115 54.3543 43.726C54.3543 43.7528 54.3304 43.9002 54.2826 44.1684C53.9 45.6967 53.1587 47.0507 52.0587 48.2304C50.9586 49.4101 49.6793 50 48.2206 50C46.5466 50 45.2792 49.1554 44.4183 47.4663C43.4379 49.1286 42.314 49.9598 41.0466 49.9598H40.8313C39.6596 49.9598 38.8226 49.6112 38.3205 48.9141C37.8183 48.217 37.5552 47.4797 37.5313 46.7021C37.5313 45.8441 37.7585 45.147 38.2128 44.6108C38.6672 44.0745 39.2052 43.8064 39.827 43.8064C40.8553 43.8064 41.3694 44.3694 41.3694 45.4956C41.3694 46.0318 41.2259 46.501 40.939 46.9032C40.652 47.3054 40.377 47.5735 40.1139 47.7076C39.8509 47.8416 39.6955 47.9087 39.6476 47.9087L39.54 47.9489C39.54 47.9757 39.6118 48.0293 39.7552 48.1097C39.8987 48.1902 40.09 48.284 40.3292 48.3913C40.5683 48.4985 40.7955 48.5387 41.0107 48.5119C41.8716 48.5119 42.6129 47.9087 43.2346 46.7021C43.4499 46.2731 43.7249 45.3615 44.0596 43.9673C44.3944 42.573 44.7292 41.1252 45.064 39.6237C45.3988 38.1222 45.5901 37.2374 45.6379 36.9693C45.7575 36.2454 45.8173 35.7225 45.8173 35.4008C45.8173 34.65 45.6379 34.1138 45.2792 33.7921C44.9205 33.4703 44.514 33.3094 44.0596 33.3094C43.1031 33.3094 42.2064 33.7384 41.3694 34.5964C40.5324 35.4544 39.9466 36.5537 39.6118 37.8943C39.5639 38.1356 39.5042 38.2697 39.4324 38.2965C39.3607 38.3233 39.1694 38.3501 38.8585 38.3769H38.3563C38.2128 38.2161 38.1411 38.0686 38.1411 37.9345Z" fill="#4066E0"/>
</svg>
