<svg width="736" height="733" viewBox="0 0 736 733" fill="none" xmlns="http://www.w3.org/2000/svg">
<path d="M694.768 387.768C695.745 386.791 695.745 385.209 694.768 384.232L678.859 368.322C677.882 367.346 676.299 367.346 675.323 368.322C674.347 369.299 674.347 370.882 675.323 371.858L689.465 386L675.323 400.142C674.347 401.118 674.347 402.701 675.323 403.678C676.299 404.654 677.882 404.654 678.859 403.678L694.768 387.768ZM0 388.5H693.001V383.5H0V388.5Z" fill="#343A40"/>
<path d="M348.268 37.7319C347.292 36.7556 345.709 36.7556 344.733 37.7319L328.823 53.6418C327.846 54.6181 327.846 56.201 328.823 57.1773C329.799 58.1536 331.382 58.1536 332.358 57.1773L346.5 43.0352L360.643 57.1773C361.619 58.1536 363.202 58.1536 364.178 57.1773C365.154 56.201 365.154 54.6181 364.178 53.6418L348.268 37.7319ZM349 732.5L349 39.4996H344L344 732.5H349Z" fill="#343A40"/>
<path d="M707.047 382.632C707.335 380.778 708.444 378.637 710.374 376.209C712.304 373.78 714.686 372.544 717.52 372.5C718.957 372.5 720.271 372.897 721.462 373.692C722.653 374.487 723.536 375.48 724.111 376.672C725.836 373.891 727.91 372.5 730.333 372.5C731.852 372.5 733.166 372.986 734.275 373.957C735.384 374.928 735.959 376.231 736 377.864C736 379.145 735.713 380.182 735.138 380.977C734.563 381.772 734.008 382.257 733.474 382.434C732.94 382.61 732.468 382.699 732.057 382.699C731.277 382.699 730.641 382.456 730.148 381.97C729.655 381.485 729.409 380.844 729.409 380.05C729.409 378.019 730.435 376.628 732.489 375.877C732.037 375.304 731.216 375.017 730.025 375.017C729.491 375.017 729.101 375.061 728.854 375.149C727.294 375.855 726.144 377.312 725.405 379.52C722.94 389.277 721.708 394.972 721.708 396.606C721.708 397.842 722.037 398.725 722.694 399.255C723.351 399.785 724.07 400.05 724.85 400.05C726.37 400.05 727.869 399.321 729.347 397.864C730.825 396.407 731.832 394.619 732.366 392.5C732.489 392.058 732.612 391.816 732.735 391.772C732.858 391.727 733.187 391.683 733.721 391.639H733.967C734.583 391.639 734.891 391.816 734.891 392.169C734.891 392.213 734.85 392.456 734.768 392.897C734.111 395.414 732.838 397.643 730.949 399.586C729.06 401.529 726.862 402.5 724.357 402.5C721.483 402.5 719.306 401.109 717.828 398.328C716.144 401.065 714.214 402.434 712.037 402.434H711.667C709.655 402.434 708.218 401.86 707.355 400.712C706.493 399.564 706.041 398.35 706 397.07C706 395.657 706.39 394.509 707.17 393.626C707.951 392.743 708.875 392.301 709.943 392.301C711.708 392.301 712.591 393.228 712.591 395.083C712.591 395.966 712.345 396.738 711.852 397.401C711.359 398.063 710.887 398.504 710.435 398.725C709.984 398.946 709.717 399.056 709.634 399.056L709.45 399.123C709.45 399.167 709.573 399.255 709.819 399.387C710.066 399.52 710.394 399.674 710.805 399.851C711.216 400.028 711.606 400.094 711.975 400.05C713.454 400.05 714.727 399.056 715.795 397.07C716.164 396.363 716.637 394.862 717.211 392.566C717.786 390.27 718.361 387.886 718.936 385.414C719.511 382.942 719.84 381.485 719.922 381.043C720.127 379.851 720.23 378.99 720.23 378.46C720.23 377.224 719.922 376.341 719.306 375.811C718.69 375.281 717.992 375.017 717.211 375.017C715.569 375.017 714.029 375.723 712.591 377.136C711.154 378.549 710.148 380.359 709.573 382.566C709.491 382.964 709.388 383.184 709.265 383.228C709.142 383.273 708.813 383.317 708.279 383.361H707.417C707.17 383.096 707.047 382.853 707.047 382.632Z" fill="black"/>
<path d="M333 7.68795C333 7.2552 333.316 6.51334 333.947 5.46238C334.578 4.41142 335.588 3.31409 336.977 2.1704C338.366 1.0267 339.923 0.47031 341.648 0.501221C343.373 0.501221 344.762 0.856693 345.814 1.56764C346.866 2.27858 347.413 3.26772 347.456 4.53506C347.371 5.12236 347.308 5.44692 347.266 5.50874C347.266 5.60148 346.93 6.31242 346.256 7.64158C345.583 8.97074 344.888 10.4699 344.173 12.1391C343.458 13.8083 343.121 15.1374 343.163 16.1266C343.163 17.4557 343.458 18.383 344.047 18.9085C344.636 19.434 345.52 19.7122 346.698 19.7431C347.666 19.7431 348.571 19.5731 349.412 19.2331C350.254 18.8931 350.906 18.5376 351.369 18.1667C351.832 17.7957 352.4 17.2857 353.074 16.6366C353.074 16.6057 353.179 16.2966 353.389 15.7093C353.6 15.122 353.894 14.2101 354.273 12.9737C354.652 11.7372 355.052 10.5935 355.472 9.54258C357.072 4.90599 357.955 2.4795 358.124 2.26313C358.671 1.42854 359.575 1.01125 360.838 1.01125C361.385 1.01125 361.827 1.11943 362.164 1.33581C362.5 1.55218 362.732 1.73765 362.858 1.8922C362.984 2.04675 363.026 2.18585 362.984 2.30949C362.984 2.71133 361.953 5.95695 359.891 12.0463C357.829 18.1357 356.651 21.4741 356.356 22.0614C355.178 24.627 353.137 26.6671 350.233 28.1817C347.329 29.6963 344.426 30.4691 341.522 30.5C339.628 30.5 337.966 30.16 336.535 29.4799C335.104 28.7999 334.389 27.7799 334.389 26.4198C334.389 25.7398 334.536 25.1679 334.831 24.7043C335.125 24.2406 335.525 23.9006 336.03 23.6842C336.535 23.4678 336.956 23.3133 337.292 23.2205C337.629 23.1278 337.987 23.0814 338.366 23.0814C340.217 23.0814 341.143 23.7306 341.143 25.0288C341.143 25.647 340.891 26.188 340.386 26.6516C339.881 27.1153 339.397 27.4244 338.934 27.5789C338.471 27.7335 338.197 27.8108 338.113 27.8108L337.924 27.8571C338.008 28.0117 338.408 28.1972 339.123 28.4135C339.839 28.6299 340.554 28.7381 341.269 28.7381H341.774C342.49 28.7381 343.037 28.7072 343.416 28.6454C344.804 28.3672 346.088 27.7799 347.266 26.8835C348.445 25.987 349.349 25.0288 349.981 24.0088C350.612 22.9887 351.096 22.1232 351.432 21.4123C351.769 20.7013 351.937 20.2377 351.937 20.0213L351.559 20.2068C351.306 20.3304 350.906 20.5004 350.359 20.7168C349.812 20.9332 349.265 21.1186 348.718 21.2732C347.876 21.4277 347.056 21.505 346.256 21.505C344.32 21.505 342.616 21.165 341.143 20.485C339.67 19.8049 338.702 18.7076 338.239 17.193C338.197 16.9766 338.176 16.4975 338.176 15.7556C338.176 13.9937 338.913 11.6909 340.386 8.84709C341.858 6.00332 342.595 4.19504 342.595 3.42228C342.595 3.39137 342.595 3.36046 342.595 3.32954C342.595 3.05135 342.595 2.86588 342.595 2.77315C342.595 2.68042 342.511 2.57223 342.342 2.44859C342.174 2.32495 341.943 2.26313 341.648 2.26313H341.396C340.428 2.26313 339.544 2.55678 338.744 3.14408C337.945 3.73138 337.314 4.36505 336.851 5.04509C336.388 5.72512 336.03 6.37424 335.777 6.99246C335.525 7.61067 335.357 7.95069 335.272 8.01251C335.188 8.07433 334.852 8.10524 334.262 8.10524H333.379C333.126 7.91977 333 7.78068 333 7.68795Z" fill="black"/>
</svg>
