<svg width="1128" height="1053" viewBox="0 0 1128 1053" fill="none" xmlns="http://www.w3.org/2000/svg">
<g filter="url(#filter0_d)">
<path d="M137 529.471L167 546.791V512.15L137 529.471ZM1053 529.471L1023 512.15V546.791L1053 529.471ZM164 532.471H1026V526.471H164V532.471Z" fill="black"/>
</g>
<path d="M595 987L609.434 962H580.566L595 987ZM595 71L580.566 96H609.434L595 71ZM597.5 964.5V93.5H592.5V964.5H597.5Z" fill="black"/>
<path d="M1079.75 524.236C1080.22 521.361 1082.07 518.042 1085.29 514.277C1088.51 510.513 1092.48 508.596 1097.2 508.528C1099.59 508.528 1101.79 509.144 1103.77 510.376C1105.75 511.608 1107.23 513.148 1108.18 514.996C1111.06 510.684 1114.52 508.528 1118.55 508.528C1121.09 508.528 1123.28 509.281 1125.13 510.786C1126.97 512.292 1127.93 514.311 1128 516.844C1128 518.829 1127.52 520.437 1126.56 521.669C1125.6 522.901 1124.68 523.654 1123.79 523.928C1122.9 524.202 1122.11 524.339 1121.43 524.339C1120.13 524.339 1119.07 523.962 1118.25 523.209C1117.43 522.457 1117.01 521.464 1117.01 520.232C1117.01 517.084 1118.73 514.927 1122.15 513.764C1121.39 512.874 1120.03 512.429 1118.04 512.429C1117.15 512.429 1116.5 512.498 1116.09 512.635C1113.49 513.73 1111.57 515.988 1110.34 519.411C1106.23 534.537 1104.18 543.367 1104.18 545.899C1104.18 547.816 1104.73 549.185 1105.82 550.006C1106.92 550.828 1108.12 551.238 1109.42 551.238C1111.95 551.238 1114.45 550.109 1116.91 547.85C1119.38 545.591 1121.05 542.819 1121.94 539.534C1122.15 538.849 1122.35 538.473 1122.56 538.405C1122.76 538.336 1123.31 538.268 1124.2 538.199H1124.61C1125.64 538.199 1126.15 538.473 1126.15 539.021C1126.15 539.089 1126.08 539.465 1125.95 540.15C1124.85 544.051 1122.73 547.508 1119.58 550.52C1116.43 553.531 1112.77 555.037 1108.6 555.037C1103.8 555.037 1100.18 552.881 1097.71 548.569C1094.91 552.812 1091.69 554.934 1088.06 554.934H1087.45C1084.09 554.934 1081.7 554.045 1080.26 552.265C1078.82 550.485 1078.07 548.603 1078 546.618C1078 544.428 1078.65 542.648 1079.95 541.279C1081.25 539.91 1082.79 539.226 1084.57 539.226C1087.51 539.226 1088.99 540.663 1088.99 543.538C1088.99 544.907 1088.57 546.105 1087.75 547.131C1086.93 548.158 1086.15 548.843 1085.39 549.185C1084.64 549.527 1084.19 549.698 1084.06 549.698L1083.75 549.801C1083.75 549.869 1083.95 550.006 1084.37 550.212C1084.78 550.417 1085.32 550.656 1086.01 550.93C1086.69 551.204 1087.34 551.307 1087.96 551.238C1090.42 551.238 1092.54 549.698 1094.32 546.618C1094.94 545.523 1095.73 543.196 1096.69 539.637C1097.64 536.077 1098.6 532.381 1099.56 528.548C1100.52 524.715 1101.07 522.457 1101.2 521.772C1101.55 519.924 1101.72 518.589 1101.72 517.768C1101.72 515.851 1101.2 514.483 1100.18 513.661C1099.15 512.84 1097.99 512.429 1096.69 512.429C1093.95 512.429 1091.38 513.524 1088.99 515.715C1086.59 517.905 1084.91 520.711 1083.95 524.133C1083.82 524.75 1083.65 525.092 1083.44 525.16C1083.24 525.229 1082.69 525.297 1081.8 525.366H1080.36C1079.95 524.955 1079.75 524.578 1079.75 524.236Z" fill="black"/>
<path d="M0 526.538C0 526.538 0 526.093 0 525.203C0 524.313 0.479132 523.629 1.4374 523.149H61.0893C62.116 523.697 62.6294 524.381 62.6294 525.203C62.6294 526.024 62.116 526.709 61.0893 527.256H1.4374C0.479132 526.777 0 526.093 0 525.203V526.538Z" fill="black"/>
<path d="M76.5926 521.199C77.0718 518.324 78.9198 515.004 82.1369 511.24C85.3539 507.475 89.3239 505.558 94.0467 505.49C96.4424 505.49 98.6327 506.106 100.618 507.338C102.603 508.57 104.074 510.11 105.033 511.958C107.907 507.646 111.364 505.49 115.402 505.49C117.935 505.49 120.125 506.243 121.973 507.749C123.821 509.255 124.78 511.274 124.848 513.806C124.848 515.791 124.369 517.4 123.411 518.632C122.452 519.864 121.528 520.617 120.639 520.891C119.749 521.164 118.962 521.301 118.277 521.301C116.977 521.301 115.916 520.925 115.094 520.172C114.273 519.419 113.862 518.427 113.862 517.195C113.862 514.046 115.573 511.89 118.996 510.726C118.243 509.836 116.874 509.392 114.889 509.392C113.999 509.392 113.349 509.46 112.938 509.597C110.337 510.692 108.421 512.951 107.189 516.373C103.082 531.5 101.028 540.33 101.028 542.862C101.028 544.779 101.576 546.148 102.671 546.969C103.766 547.79 104.964 548.201 106.265 548.201C108.797 548.201 111.295 547.072 113.76 544.813C116.224 542.554 117.901 539.782 118.79 536.497C118.996 535.812 119.201 535.436 119.406 535.367C119.612 535.299 120.159 535.23 121.049 535.162H121.46C122.487 535.162 123 535.436 123 535.983C123 536.052 122.932 536.428 122.795 537.113C121.699 541.014 119.578 544.471 116.429 547.482C113.28 550.494 109.619 552 105.443 552C100.652 552 97.0242 549.844 94.5601 545.532C91.7537 549.775 88.5367 551.897 84.909 551.897H84.293C80.939 551.897 78.5434 551.008 77.106 549.228C75.6686 547.448 74.9157 545.566 74.8472 543.581C74.8472 541.391 75.4975 539.611 76.798 538.242C78.0985 536.873 79.6385 536.189 81.4182 536.189C84.3614 536.189 85.833 537.626 85.833 540.501C85.833 541.87 85.4224 543.068 84.601 544.094C83.7796 545.121 82.9925 545.806 82.2395 546.148C81.4866 546.49 81.0417 546.661 80.9048 546.661L80.5968 546.764C80.5968 546.832 80.8022 546.969 81.2128 547.174C81.6235 547.38 82.1711 547.619 82.8556 547.893C83.54 548.167 84.1903 548.27 84.8063 548.201C87.2704 548.201 89.3923 546.661 91.1719 543.581C91.788 542.486 92.5751 540.159 93.5334 536.599C94.4916 533.04 95.4499 529.344 96.4082 525.511C97.3664 521.678 97.914 519.419 98.0509 518.735C98.3931 516.886 98.5643 515.552 98.5643 514.73C98.5643 512.814 98.0509 511.445 97.0242 510.624C95.9975 509.802 94.8339 509.392 93.5334 509.392C90.7955 509.392 88.2287 510.487 85.833 512.677C83.4374 514.867 81.7604 517.674 80.8022 521.096C80.6653 521.712 80.4941 522.054 80.2888 522.123C80.0835 522.191 79.5359 522.26 78.6461 522.328H77.2087C76.798 521.917 76.5926 521.541 76.5926 521.199Z" fill="black"/>
<path d="M577 13.1779C577 12.3845 577.425 11.0245 578.275 9.09769C579.125 7.17093 580.485 5.15916 582.355 3.06239C584.225 0.965619 586.322 -0.0544323 588.646 0.00223726C590.969 0.00223726 592.839 0.653937 594.256 1.95734C595.673 3.26073 596.409 5.07416 596.466 7.39761C596.353 8.47433 596.268 9.06936 596.211 9.1827C596.211 9.35271 595.758 10.6561 594.851 13.0929C593.944 15.5297 593.009 18.2782 592.046 21.3383C591.082 24.3985 590.629 26.8353 590.686 28.6487C590.686 31.0855 591.082 32.7856 591.876 33.7489C592.669 34.7123 593.859 35.2223 595.446 35.279C596.749 35.279 597.968 34.9673 599.101 34.344C600.235 33.7206 601.113 33.0689 601.736 32.3889C602.36 31.7088 603.125 30.7738 604.031 29.5837C604.031 29.5271 604.173 28.9604 604.456 27.8836C604.74 26.8069 605.136 25.1352 605.646 22.8684C606.156 20.6016 606.695 18.5048 607.262 16.5781C609.415 8.07764 610.605 3.62909 610.832 3.2324C611.568 1.70232 612.787 0.937284 614.487 0.937284C615.224 0.937284 615.819 1.13563 616.272 1.53231C616.725 1.929 617.037 2.26902 617.207 2.55237C617.377 2.83571 617.434 3.09073 617.377 3.3174C617.377 4.05411 615.989 10.0044 613.212 21.1683C610.435 32.3322 608.848 38.4525 608.452 39.5292C606.865 44.2328 604.116 47.973 600.206 50.7498C596.296 53.5266 592.386 54.9433 588.476 55C585.925 55 583.687 54.3766 581.76 53.1299C579.833 51.8832 578.87 50.0131 578.87 47.5196C578.87 46.2729 579.068 45.2245 579.465 44.3745C579.862 43.5244 580.4 42.9011 581.08 42.5044C581.76 42.1077 582.327 41.8243 582.78 41.6543C583.234 41.4843 583.715 41.3993 584.225 41.3993C586.719 41.3993 587.966 42.5894 587.966 44.9695C587.966 46.1029 587.626 47.0946 586.945 47.9446C586.265 48.7947 585.614 49.3614 584.99 49.6447C584.367 49.9281 583.999 50.0698 583.885 50.0698L583.63 50.1548C583.744 50.4381 584.282 50.7781 585.245 51.1748C586.209 51.5715 587.172 51.7698 588.136 51.7698H588.816C589.779 51.7698 590.516 51.7132 591.026 51.5998C592.896 51.0898 594.624 50.0131 596.211 48.3697C597.798 46.7263 599.016 44.9695 599.866 43.0994C600.716 41.2293 601.368 39.6426 601.821 38.3392C602.275 37.0358 602.501 36.1857 602.501 35.789L601.991 36.1291C601.651 36.3557 601.113 36.6674 600.376 37.0641C599.639 37.4608 598.903 37.8008 598.166 38.0842C597.033 38.3675 595.928 38.5092 594.851 38.5092C592.244 38.5092 589.949 37.8858 587.966 36.6391C585.982 35.3923 584.679 33.3806 584.055 30.6038C583.999 30.2071 583.97 29.3287 583.97 27.9686C583.97 24.7385 584.962 20.5166 586.945 15.303C588.929 10.0894 589.921 6.77424 589.921 5.35751C589.921 5.30084 589.921 5.24417 589.921 5.1875C589.921 4.67747 589.921 4.33746 589.921 4.16745C589.921 3.99744 589.807 3.79909 589.581 3.57242C589.354 3.34574 589.042 3.2324 588.646 3.2324H588.306C587.002 3.2324 585.812 3.77076 584.735 4.84748C583.659 5.9242 582.809 7.08593 582.185 8.33266C581.562 9.57939 581.08 10.7694 580.74 11.9028C580.4 13.0362 580.173 13.6596 580.06 13.7729C579.947 13.8863 579.493 13.9429 578.7 13.9429H577.51C577.17 13.6029 577 13.3479 577 13.1779Z" fill="black"/>
<path d="M512 1015.43C512 1015.43 512 1015.06 512 1014.32C512 1013.59 512.397 1013.02 513.19 1012.62H562.578C563.428 1013.08 563.853 1013.64 563.853 1014.32C563.853 1015 563.428 1015.57 562.578 1016.02H513.19C512.397 1015.63 512 1015.06 512 1014.32V1015.43Z" fill="black"/>
<path d="M572.778 1011.18C572.778 1010.38 573.203 1009.02 574.053 1007.1C574.903 1005.17 576.263 1003.16 578.133 1001.06C580.003 998.966 582.1 997.946 584.424 998.002C586.747 998.002 588.617 998.654 590.034 999.957C591.451 1001.26 592.187 1003.07 592.244 1005.4C592.131 1006.47 592.046 1007.07 591.989 1007.18C591.989 1007.35 591.536 1008.66 590.629 1011.09C589.722 1013.53 588.787 1016.28 587.824 1019.34C586.86 1022.4 586.407 1024.84 586.464 1026.65C586.464 1029.09 586.86 1030.79 587.654 1031.75C588.447 1032.71 589.637 1033.22 591.224 1033.28C592.527 1033.28 593.746 1032.97 594.879 1032.34C596.013 1031.72 596.891 1031.07 597.514 1030.39C598.138 1029.71 598.903 1028.77 599.809 1027.58C599.809 1027.53 599.951 1026.96 600.234 1025.88C600.518 1024.81 600.914 1023.14 601.424 1020.87C601.935 1018.6 602.473 1016.5 603.04 1014.58C605.193 1006.08 606.383 1001.63 606.61 1001.23C607.346 999.702 608.565 998.937 610.265 998.937C611.002 998.937 611.597 999.136 612.05 999.532C612.503 999.929 612.815 1000.27 612.985 1000.55C613.155 1000.84 613.212 1001.09 613.155 1001.32C613.155 1002.05 611.767 1008 608.99 1019.17C606.213 1030.33 604.626 1036.45 604.23 1037.53C602.643 1042.23 599.894 1045.97 595.984 1048.75C592.074 1051.53 588.164 1052.94 584.254 1053C581.704 1053 579.465 1052.38 577.538 1051.13C575.612 1049.88 574.648 1048.01 574.648 1045.52C574.648 1044.27 574.846 1043.22 575.243 1042.37C575.64 1041.52 576.178 1040.9 576.858 1040.5C577.538 1040.11 578.105 1039.82 578.558 1039.65C579.012 1039.48 579.493 1039.4 580.003 1039.4C582.497 1039.4 583.744 1040.59 583.744 1042.97C583.744 1044.1 583.404 1045.09 582.724 1045.94C582.044 1046.79 581.392 1047.36 580.768 1047.64C580.145 1047.93 579.777 1048.07 579.663 1048.07L579.408 1048.15C579.522 1048.44 580.06 1048.78 581.023 1049.17C581.987 1049.57 582.95 1049.77 583.914 1049.77H584.594C585.557 1049.77 586.294 1049.71 586.804 1049.6C588.674 1049.09 590.402 1048.01 591.989 1046.37C593.576 1044.73 594.794 1042.97 595.644 1041.1C596.494 1039.23 597.146 1037.64 597.599 1036.34C598.053 1035.04 598.279 1034.19 598.279 1033.79L597.769 1034.13C597.429 1034.36 596.891 1034.67 596.154 1035.06C595.418 1035.46 594.681 1035.8 593.944 1036.08C592.811 1036.37 591.706 1036.51 590.629 1036.51C588.022 1036.51 585.727 1035.89 583.744 1034.64C581.76 1033.39 580.457 1031.38 579.833 1028.6C579.777 1028.21 579.748 1027.33 579.748 1025.97C579.748 1022.74 580.74 1018.52 582.724 1013.3C584.707 1008.09 585.699 1004.77 585.699 1003.36C585.699 1003.3 585.699 1003.24 585.699 1003.19C585.699 1002.68 585.699 1002.34 585.699 1002.17C585.699 1002 585.585 1001.8 585.359 1001.57C585.132 1001.35 584.82 1001.23 584.424 1001.23H584.084C582.78 1001.23 581.59 1001.77 580.513 1002.85C579.437 1003.92 578.587 1005.09 577.963 1006.33C577.34 1007.58 576.858 1008.77 576.518 1009.9C576.178 1011.04 575.952 1011.66 575.838 1011.77C575.725 1011.89 575.272 1011.94 574.478 1011.94H573.288C572.948 1011.6 572.778 1011.35 572.778 1011.18Z" fill="black"/>
<defs>
<filter id="filter0_d" x="133" y="512.15" width="924.001" height="42.641" filterUnits="userSpaceOnUse" color-interpolation-filters="sRGB">
<feFlood flood-opacity="0" result="BackgroundImageFix"/>
<feColorMatrix in="SourceAlpha" type="matrix" values="0 0 0 0 0 0 0 0 0 0 0 0 0 0 0 0 0 0 127 0"/>
<feOffset dy="4"/>
<feGaussianBlur stdDeviation="2"/>
<feColorMatrix type="matrix" values="0 0 0 0 0 0 0 0 0 0 0 0 0 0 0 0 0 0 0.25 0"/>
<feBlend mode="normal" in2="BackgroundImageFix" result="effect1_dropShadow"/>
<feBlend mode="normal" in="SourceGraphic" in2="effect1_dropShadow" result="shape"/>
</filter>
</defs>
</svg>
