<svg width="405" height="335" viewBox="0 0 405 335" fill="none" xmlns="http://www.w3.org/2000/svg">
<g clip-path="url(#clip0)">
<path opacity="0.8" d="M405 178H330V271H405V178Z" fill="#EF224B"/>
<path opacity="0.8" d="M405 71H330V164H405V71Z" fill="#EF224B"/>
<path opacity="0.8" d="M157 178H0V271H157V178Z" fill="#4066E0"/>
<path opacity="0.8" d="M157 71H0V164H157V71Z" fill="#4066E0"/>
<path d="M2.3328 134.233C1.44427 134.233 1 133.972 1 133.449C1 133.345 1.0784 132.979 1.2352 132.352C1.44427 131.516 1.65333 131.045 1.8624 130.941C2.07146 130.836 2.67253 130.758 3.66559 130.705C5.07679 130.705 6.64479 130.627 8.36958 130.47C9.10131 130.313 9.59784 130 9.85918 129.529C9.96371 129.268 11.8192 121.925 15.4256 107.499C19.032 93.0736 20.8613 85.7563 20.9135 85.5472C20.9135 85.1813 20.809 84.9984 20.5999 84.9984C20.1818 84.8416 18.7968 84.7109 16.4448 84.6064H14.0144C13.7008 84.2928 13.544 84.0837 13.544 83.9792C13.544 83.8747 13.5962 83.4304 13.7008 82.6464C13.9098 81.7579 14.1712 81.2091 14.4848 81H56.7423C57.1081 81.2091 57.2911 81.4965 57.2911 81.8624C57.2911 82.1237 56.9513 85.0507 56.2719 90.6432C55.5924 96.2357 55.2265 99.1104 55.1743 99.2672C55.0697 99.633 54.5471 99.816 53.6063 99.816H52.6655C52.2996 99.5546 52.1167 99.2149 52.1167 98.7968C52.1167 98.7445 52.1951 98.1173 52.3519 96.9152C52.5087 95.713 52.5871 94.328 52.5871 92.76C52.5871 91.192 52.4041 89.9115 52.0383 88.9184C51.6724 87.9253 51.1759 87.1152 50.5487 86.488C49.9215 85.8608 48.9545 85.4427 47.6479 85.2336C46.3412 85.0245 45.0084 84.8416 43.6495 84.6848C42.2906 84.528 40.409 84.5019 38.0047 84.6064H36.2015C31.9157 84.6587 29.6421 84.7371 29.3807 84.8416C29.1194 84.9461 28.9365 85.1552 28.8319 85.4688C28.7797 85.5211 27.8911 88.9445 26.1663 95.7392L23.6575 105.853H27.9695C28.1263 105.853 28.7274 105.853 29.7727 105.853C30.8181 105.853 31.5498 105.827 31.9679 105.774C32.3861 105.722 32.961 105.644 33.6927 105.539C34.4244 105.435 35.0516 105.252 35.5743 104.99C36.097 104.729 36.5412 104.415 36.9071 104.05C37.5866 103.422 38.1615 102.56 38.6319 101.462C39.1023 100.365 39.442 99.3717 39.6511 98.4832C39.8602 97.5946 39.9908 97.1242 40.0431 97.072C40.1999 96.8106 40.6964 96.68 41.5327 96.68H42.4735C42.8394 96.9413 43.0223 97.2026 43.0223 97.464C43.0223 97.6208 42.2122 101.044 40.5919 107.734C38.9716 114.424 38.0831 117.874 37.9263 118.083C37.8218 118.449 37.2991 118.632 36.3583 118.632H35.4175C35.0516 118.318 34.8687 118.005 34.8687 117.691C34.8687 117.534 34.9994 116.959 35.2607 115.966C35.522 114.973 35.6527 113.928 35.6527 112.83C35.6527 111.315 35.13 110.374 34.0847 110.008C33.0394 109.642 30.7135 109.459 27.1071 109.459H22.7951L20.2864 119.416C18.6138 125.897 17.7776 129.294 17.7776 129.608C17.7776 130.34 20.1034 130.705 24.7551 130.705H26.7151C27.0287 131.019 27.1855 131.202 27.1855 131.254C27.1855 131.307 27.1333 131.829 27.0287 132.822C26.8197 133.502 26.5583 133.998 26.2447 134.312H24.9119C22.769 134.207 18.8229 134.155 13.0736 134.155C9.67624 134.155 7.08905 134.155 5.31199 134.155C3.53493 134.155 2.54186 134.181 2.3328 134.233Z" fill="black"/>
<path d="M50.1447 130.164C50.1816 129.942 50.2371 129.646 50.311 129.277C50.3849 128.907 50.6066 128.205 50.9761 127.171C51.3456 126.136 51.7152 125.268 52.0847 124.566C52.4542 123.863 53.0639 123.18 53.9138 122.515C54.7637 121.85 55.6136 121.535 56.4636 121.572C57.7938 121.572 58.9024 121.905 59.7893 122.57C60.6761 123.235 61.2304 123.863 61.4521 124.455C61.6738 125.046 61.7847 125.434 61.7847 125.619C61.7847 125.693 61.8032 125.73 61.8401 125.73L62.4498 125.12C64.7039 122.755 67.2721 121.572 70.1544 121.572C72.1499 121.572 73.7573 122.071 74.9767 123.069C76.1962 124.067 76.8243 125.526 76.8613 127.448C76.8983 129.369 76.1962 132.27 74.755 136.15C73.3139 140.03 72.6118 142.377 72.6487 143.19C72.6487 144.15 72.9628 144.631 73.591 144.631C73.8127 144.631 73.979 144.612 74.0899 144.575C75.1615 144.391 76.1222 143.688 76.9722 142.469C77.8221 141.25 78.4687 139.771 78.9122 138.035C78.9861 137.739 79.3556 137.591 80.0207 137.591C80.7598 137.591 81.1293 137.739 81.1293 138.035C81.1293 138.072 81.0554 138.349 80.9076 138.866C80.612 139.938 80.2055 140.991 79.6882 142.026C79.1708 143.06 78.3209 144.095 77.1384 145.13C75.956 146.164 74.6811 146.663 73.3139 146.626C71.5771 146.626 70.3207 146.127 69.5447 145.13C68.7687 144.132 68.3807 143.097 68.3807 142.026C68.3807 141.323 69.0459 139.106 70.3761 135.374C71.7064 131.642 72.3901 128.834 72.427 126.949C72.427 124.769 71.6141 123.679 69.9881 123.679H69.711C66.5331 123.679 63.854 125.545 61.6738 129.277L61.2858 129.942L59.4567 137.37C58.2373 142.21 57.5352 144.815 57.3504 145.185C56.87 146.183 56.0756 146.682 54.967 146.682C54.4866 146.682 54.0986 146.571 53.803 146.349C53.5074 146.127 53.3041 145.906 53.1933 145.684C53.0824 145.462 53.0455 145.277 53.0824 145.13C53.0824 144.649 53.7845 141.638 55.1887 136.095C56.5929 130.552 57.3319 127.54 57.4058 127.06C57.4428 126.875 57.4613 126.45 57.4613 125.785C57.4613 124.344 57.0178 123.623 56.131 123.623C54.7268 123.623 53.5628 125.471 52.639 129.166C52.4173 129.905 52.3064 130.293 52.3064 130.33C52.2325 130.552 51.8814 130.663 51.2533 130.663H50.4773C50.2555 130.441 50.1447 130.275 50.1447 130.164Z" fill="black"/>
<path d="M84.3996 136.76C84.3996 134.654 84.7506 132.732 85.4527 130.995C86.1548 129.258 87.0602 127.817 88.1687 126.672C89.2773 125.526 90.5152 124.566 91.8825 123.79C93.2497 123.014 94.543 122.441 95.7625 122.071C96.9819 121.702 98.1459 121.535 99.2545 121.572H99.4208C101.084 121.572 102.525 121.979 103.744 122.792C104.964 123.605 105.573 124.806 105.573 126.395C105.573 129.72 103.522 131.901 99.4208 132.935C97.6101 133.416 95.1343 133.674 91.9933 133.711C90.6261 133.711 89.924 133.748 89.887 133.822C89.887 133.896 89.7762 134.543 89.5545 135.762C89.3327 136.982 89.2034 138.053 89.1665 138.977C89.1665 140.714 89.5545 142.081 90.3305 143.079C91.1065 144.076 92.2705 144.594 93.8225 144.631C95.3745 144.668 97.0928 144.317 98.9773 143.578C100.862 142.839 102.562 141.619 104.077 139.919C104.409 139.55 104.631 139.365 104.742 139.365C104.89 139.365 105.13 139.531 105.462 139.864C105.795 140.196 105.98 140.455 106.017 140.64C106.054 140.825 105.887 141.12 105.518 141.527C105.148 141.933 104.594 142.432 103.855 143.023C103.116 143.615 102.266 144.187 101.305 144.742C100.345 145.296 99.1806 145.758 97.8133 146.127C96.4461 146.497 95.0419 146.682 93.6008 146.682C90.6815 146.682 88.4274 145.702 86.8385 143.744C85.2495 141.785 84.4365 139.457 84.3996 136.76ZM102.913 126.506C102.691 124.584 101.435 123.623 99.1436 123.623C97.9242 123.623 96.7971 123.882 95.7625 124.399C94.7278 124.917 93.8964 125.545 93.2682 126.284C92.64 127.023 92.1042 127.78 91.6608 128.556C91.2173 129.332 90.9217 129.998 90.7739 130.552C90.6261 131.106 90.5337 131.457 90.4967 131.605C90.4967 131.642 90.8663 131.66 91.6053 131.66C95.7809 131.66 98.7002 131.217 100.363 130.33C102.026 129.443 102.876 128.168 102.913 126.506Z" fill="black"/>
<path d="M109.509 124.732C109.25 124.473 109.121 124.288 109.121 124.178C109.121 124.03 109.176 123.734 109.287 123.291C109.398 122.847 109.49 122.589 109.564 122.515C109.638 122.33 109.804 122.238 110.063 122.238C110.322 122.238 111.264 122.219 112.89 122.182H115.828L116.881 117.748C116.992 117.341 117.121 116.806 117.269 116.14C117.417 115.475 117.546 114.995 117.657 114.699C117.768 114.404 117.879 114.034 117.989 113.591C118.1 113.147 118.248 112.833 118.433 112.648C118.618 112.464 118.802 112.242 118.987 111.983C119.172 111.725 119.431 111.558 119.763 111.484C120.096 111.41 120.428 111.374 120.761 111.374C121.426 111.41 121.888 111.614 122.147 111.983C122.405 112.353 122.535 112.704 122.535 113.036C122.535 113.295 122.368 114.163 122.036 115.642C121.703 117.12 121.334 118.579 120.927 120.02L120.373 122.071C120.373 122.145 121.297 122.182 123.144 122.182H125.971C126.23 122.441 126.359 122.644 126.359 122.792C126.359 123.605 126.119 124.251 125.639 124.732H119.708L117.712 132.769C116.271 138.681 115.551 141.859 115.551 142.303C115.551 143.855 116.049 144.631 117.047 144.631C118.34 144.631 119.597 144.003 120.816 142.746C122.036 141.49 123.015 139.938 123.754 138.09C123.828 137.868 123.92 137.739 124.031 137.702C124.142 137.665 124.419 137.628 124.863 137.591H125.084C125.639 137.591 125.916 137.739 125.916 138.035C125.916 138.146 125.86 138.367 125.749 138.7C125.565 139.291 125.232 139.993 124.752 140.806C124.271 141.619 123.643 142.487 122.867 143.411C122.091 144.335 121.149 145.111 120.04 145.739C118.932 146.367 117.805 146.682 116.659 146.682C115.551 146.682 114.497 146.404 113.5 145.85C112.502 145.296 111.781 144.335 111.338 142.968C111.264 142.672 111.227 142.173 111.227 141.471V140.474L113.167 132.714C114.46 127.503 115.126 124.88 115.163 124.843C115.163 124.769 114.22 124.732 112.336 124.732H109.509Z" fill="black"/>
<path d="M130.115 143.061C130.298 141.964 131.003 140.696 132.231 139.26C133.459 137.823 134.974 137.091 136.777 137.065C137.692 137.065 138.528 137.3 139.285 137.77C140.043 138.241 140.605 138.828 140.97 139.534C142.068 137.888 143.387 137.065 144.928 137.065C145.895 137.065 146.731 137.352 147.436 137.927C148.142 138.502 148.507 139.273 148.534 140.239C148.534 140.997 148.351 141.611 147.985 142.081C147.619 142.551 147.266 142.839 146.927 142.943C146.587 143.048 146.287 143.1 146.026 143.1C145.529 143.1 145.124 142.956 144.811 142.669C144.497 142.382 144.34 142.003 144.34 141.532C144.34 140.331 144.994 139.508 146.3 139.064C146.012 138.724 145.49 138.554 144.732 138.554C144.393 138.554 144.144 138.58 143.988 138.633C142.995 139.051 142.263 139.913 141.793 141.219C140.226 146.993 139.442 150.363 139.442 151.329C139.442 152.061 139.651 152.583 140.069 152.897C140.487 153.211 140.944 153.367 141.441 153.367C142.407 153.367 143.361 152.936 144.301 152.074C145.242 151.212 145.882 150.154 146.221 148.9C146.3 148.639 146.378 148.495 146.457 148.469C146.535 148.443 146.744 148.416 147.084 148.39H147.24C147.632 148.39 147.828 148.495 147.828 148.704C147.828 148.73 147.802 148.874 147.75 149.135C147.332 150.624 146.522 151.943 145.32 153.093C144.118 154.242 142.721 154.817 141.127 154.817C139.298 154.817 137.914 153.994 136.973 152.348C135.902 153.968 134.674 154.778 133.289 154.778H133.054C131.774 154.778 130.86 154.438 130.311 153.759C129.762 153.08 129.475 152.361 129.449 151.604C129.449 150.768 129.697 150.089 130.194 149.566C130.69 149.044 131.278 148.782 131.957 148.782C133.08 148.782 133.642 149.331 133.642 150.428C133.642 150.951 133.485 151.408 133.172 151.8C132.858 152.192 132.558 152.453 132.271 152.583C131.983 152.714 131.813 152.779 131.761 152.779L131.644 152.819C131.644 152.845 131.722 152.897 131.879 152.975C132.035 153.054 132.244 153.145 132.506 153.25C132.767 153.354 133.015 153.393 133.25 153.367C134.191 153.367 135.001 152.779 135.68 151.604C135.915 151.186 136.215 150.298 136.581 148.939C136.947 147.58 137.313 146.17 137.678 144.707C138.044 143.244 138.253 142.382 138.305 142.12C138.436 141.415 138.501 140.905 138.501 140.592C138.501 139.86 138.305 139.338 137.914 139.024C137.522 138.711 137.078 138.554 136.581 138.554C135.536 138.554 134.556 138.972 133.642 139.808C132.728 140.644 132.088 141.715 131.722 143.022C131.67 143.257 131.604 143.387 131.526 143.413C131.448 143.44 131.239 143.466 130.899 143.492H130.35C130.194 143.335 130.115 143.191 130.115 143.061Z" fill="black"/>
<path d="M183.374 107.107C183.374 106.428 183.739 105.905 184.471 105.539H234.412C235.196 105.957 235.588 106.48 235.588 107.107C235.588 107.682 235.222 108.179 234.49 108.597L209.559 108.675H184.628C183.792 108.414 183.374 107.891 183.374 107.107ZM183.374 122.317C183.374 121.533 183.792 121.01 184.628 120.749H234.49C235.222 121.271 235.588 121.794 235.588 122.317C235.588 122.996 235.196 123.519 234.412 123.885H184.471C183.739 123.519 183.374 122.996 183.374 122.317Z" fill="black"/>
<path d="M263.404 111.811C263.456 111.498 263.535 111.079 263.639 110.557C263.744 110.034 264.057 109.041 264.58 107.578C265.103 106.114 265.625 104.886 266.148 103.893C266.671 102.9 267.507 101.933 268.657 100.992C269.807 100.051 270.957 99.6069 272.107 99.6592C273.256 99.7114 274.38 99.8944 275.478 100.208C276.575 100.522 277.359 100.992 277.83 101.619C278.3 102.246 278.718 102.821 279.084 103.344C279.45 103.867 279.659 104.363 279.711 104.834L279.868 105.382C279.868 105.487 279.894 105.539 279.947 105.539L280.809 104.677C283.945 101.332 287.63 99.6592 291.863 99.6592C292.752 99.6592 293.562 99.7114 294.294 99.816C295.025 99.9205 295.705 100.103 296.332 100.365C296.959 100.626 297.456 100.887 297.822 101.149C298.188 101.41 298.58 101.724 298.998 102.09C299.416 102.455 299.677 102.795 299.782 103.109C299.886 103.422 300.095 103.762 300.409 104.128C300.722 104.494 300.827 104.807 300.722 105.069C300.618 105.33 300.696 105.565 300.958 105.774C301.219 105.983 301.271 106.166 301.114 106.323L301.742 105.539C305.034 101.619 308.928 99.6592 313.423 99.6592C316.246 99.6592 318.519 100.365 320.244 101.776C321.969 103.187 322.857 105.252 322.91 107.97C322.91 110.635 321.917 114.764 319.93 120.357C317.944 125.949 316.951 129.294 316.951 130.392C317.003 131.124 317.134 131.62 317.343 131.881C317.552 132.143 317.944 132.273 318.519 132.273C319.983 132.273 321.342 131.489 322.596 129.921C323.85 128.353 324.87 126.211 325.654 123.493C325.81 122.918 325.967 122.578 326.124 122.474C326.281 122.369 326.699 122.317 327.378 122.317C328.424 122.317 328.946 122.526 328.946 122.944C328.946 122.996 328.842 123.388 328.633 124.12C328.215 125.636 327.64 127.125 326.908 128.589C326.176 130.052 324.974 131.516 323.302 132.979C321.629 134.443 319.826 135.148 317.892 135.096C315.435 135.096 313.658 134.39 312.561 132.979C311.463 131.568 310.914 130.104 310.914 128.589C310.914 127.596 311.855 124.46 313.737 119.181C315.618 113.902 316.585 109.93 316.638 107.264C316.638 104.18 315.488 102.638 313.188 102.638H312.796C308.301 102.638 304.512 105.278 301.428 110.557L300.879 111.498L298.292 122.003C296.567 128.85 295.574 132.535 295.313 133.057C294.633 134.469 293.51 135.174 291.942 135.174C291.262 135.174 290.713 134.991 290.295 134.625C289.877 134.26 289.59 133.946 289.433 133.685C289.276 133.423 289.198 133.162 289.198 132.901C289.198 132.326 290.086 128.589 291.863 121.69L294.686 110.243C294.842 109.459 294.921 108.466 294.921 107.264C294.921 104.18 293.771 102.638 291.471 102.638H291.079C286.584 102.638 282.795 105.278 279.711 110.557L279.163 111.498L276.575 122.003C274.851 128.85 273.857 132.535 273.596 133.057C272.917 134.469 271.793 135.174 270.225 135.174C269.545 135.174 268.997 135.017 268.579 134.704C268.16 134.39 267.873 134.077 267.716 133.763C267.559 133.449 267.507 133.188 267.559 132.979C267.559 132.3 268.552 128.014 270.539 120.122C272.577 112.072 273.596 107.865 273.596 107.499C273.753 106.715 273.831 106.01 273.831 105.382C273.831 103.501 273.178 102.56 271.871 102.56C270.721 102.56 269.755 103.292 268.971 104.755C268.187 106.219 267.585 107.813 267.167 109.538C266.749 111.262 266.436 112.203 266.227 112.36C266.122 112.464 265.704 112.517 264.972 112.517H263.875C263.561 112.203 263.404 111.968 263.404 111.811Z" fill="black"/>
<path d="M333.18 122.003C333.18 116.724 335.166 111.707 339.138 106.95C343.111 102.194 347.579 99.7898 352.545 99.7376C355.21 99.7376 357.562 101.018 359.601 103.579C360.437 102.011 361.639 101.227 363.207 101.227C363.887 101.227 364.488 101.436 365.01 101.854C365.533 102.272 365.794 102.795 365.794 103.422C365.794 104.102 364.827 108.283 362.893 115.966C360.96 123.65 359.967 127.988 359.914 128.981C359.914 130.287 360.097 131.15 360.463 131.568C360.829 131.986 361.378 132.221 362.109 132.273C362.58 132.221 363.103 131.986 363.677 131.568C364.775 130.523 365.847 128.014 366.892 124.042C367.205 122.996 367.467 122.447 367.676 122.395C367.78 122.343 368.042 122.317 368.46 122.317H368.773C369.767 122.317 370.263 122.552 370.263 123.022C370.263 123.336 370.132 124.042 369.871 125.139C369.61 126.237 369.087 127.648 368.303 129.373C367.519 131.097 366.683 132.404 365.794 133.293C365.115 133.972 364.279 134.521 363.285 134.939C362.867 135.044 362.24 135.096 361.404 135.096C359.627 135.096 358.137 134.704 356.935 133.92C355.733 133.136 354.949 132.326 354.583 131.489L354.113 130.313C354.06 130.261 353.956 130.287 353.799 130.392C353.695 130.496 353.59 130.601 353.485 130.705C350.402 133.632 347.266 135.096 344.078 135.096C341.203 135.096 338.668 134.051 336.473 131.96C334.278 129.869 333.18 126.55 333.18 122.003ZM358.111 108.597C358.111 108.283 357.98 107.708 357.719 106.872C357.458 106.036 356.857 105.121 355.916 104.128C354.975 103.135 353.773 102.612 352.309 102.56C350.48 102.56 348.729 103.37 347.057 104.99C345.384 106.611 344.078 108.727 343.137 111.341C341.621 115.47 340.55 119.756 339.922 124.198C339.922 124.355 339.922 124.643 339.922 125.061C339.922 125.479 339.896 125.792 339.844 126.001C339.844 128.353 340.314 129.974 341.255 130.862C342.196 131.751 343.32 132.221 344.626 132.273C346.612 132.273 348.572 131.411 350.506 129.686C352.44 127.961 353.59 126.629 353.956 125.688C354.06 125.479 354.766 122.683 356.073 117.299C357.379 111.916 358.059 109.015 358.111 108.597Z" fill="black"/>
<path d="M374.949 130.053C375.207 128.501 376.205 126.709 377.942 124.676C379.678 122.644 381.822 121.609 384.371 121.572C385.665 121.572 386.847 121.905 387.919 122.57C388.99 123.235 389.785 124.067 390.302 125.064C391.854 122.736 393.72 121.572 395.901 121.572C397.268 121.572 398.45 121.979 399.448 122.792C400.446 123.605 400.963 124.695 401 126.062C401 127.134 400.741 128.002 400.224 128.667C399.707 129.332 399.208 129.739 398.727 129.887C398.247 130.034 397.822 130.108 397.453 130.108C396.75 130.108 396.178 129.905 395.734 129.499C395.291 129.092 395.069 128.556 395.069 127.891C395.069 126.191 395.993 125.027 397.841 124.399C397.434 123.919 396.695 123.679 395.623 123.679C395.143 123.679 394.792 123.716 394.57 123.79C393.166 124.381 392.131 125.6 391.466 127.448C389.249 135.614 388.141 140.381 388.141 141.748C388.141 142.783 388.436 143.522 389.027 143.966C389.619 144.409 390.265 144.631 390.967 144.631C392.335 144.631 393.683 144.021 395.014 142.802C396.344 141.582 397.249 140.086 397.73 138.312C397.841 137.942 397.951 137.739 398.062 137.702C398.173 137.665 398.469 137.628 398.949 137.591H399.171C399.725 137.591 400.002 137.739 400.002 138.035C400.002 138.072 399.965 138.275 399.891 138.644C399.3 140.751 398.155 142.617 396.455 144.243C394.755 145.869 392.778 146.682 390.524 146.682C387.937 146.682 385.979 145.518 384.649 143.19C383.133 145.481 381.397 146.626 379.438 146.626H379.106C377.295 146.626 376.002 146.146 375.226 145.185C374.45 144.224 374.043 143.208 374.006 142.136C374.006 140.954 374.357 139.993 375.059 139.254C375.761 138.515 376.593 138.146 377.554 138.146C379.143 138.146 379.937 138.922 379.937 140.474C379.937 141.213 379.715 141.859 379.272 142.414C378.829 142.968 378.404 143.337 377.997 143.522C377.591 143.707 377.35 143.799 377.277 143.799L377.11 143.855C377.11 143.892 377.221 143.966 377.443 144.076C377.665 144.187 377.96 144.317 378.33 144.464C378.699 144.612 379.05 144.668 379.383 144.631C380.713 144.631 381.859 143.799 382.819 142.136C383.152 141.545 383.577 140.289 384.094 138.367C384.612 136.446 385.129 134.45 385.646 132.381C386.164 130.312 386.459 129.092 386.533 128.723C386.718 127.725 386.81 127.004 386.81 126.561C386.81 125.526 386.533 124.787 385.979 124.344C385.425 123.9 384.796 123.679 384.094 123.679C382.616 123.679 381.23 124.27 379.937 125.452C378.644 126.635 377.738 128.15 377.221 129.998C377.147 130.33 377.055 130.515 376.944 130.552C376.833 130.589 376.537 130.626 376.057 130.663H375.281C375.059 130.441 374.949 130.238 374.949 130.053Z" fill="black"/>
<path d="M2.34844 237.858C1.44948 237.858 1 237.594 1 237.065C1 236.959 1.07932 236.589 1.23796 235.955C1.44948 235.109 1.661 234.633 1.87252 234.527C2.08404 234.421 2.69216 234.342 3.69689 234.289C5.12465 234.289 6.71106 234.21 8.4561 234.051C9.19642 233.892 9.69879 233.575 9.96319 233.099C10.0689 232.835 11.9462 225.405 15.5949 210.81C19.2437 196.215 21.0945 188.812 21.1473 188.601C21.1473 188.23 21.0416 188.045 20.8301 188.045C20.407 187.887 19.0057 187.754 16.6261 187.649H14.1672C13.8499 187.331 13.6912 187.12 13.6912 187.014C13.6912 186.908 13.7441 186.459 13.8499 185.666C14.0614 184.767 14.3258 184.212 14.6431 184H57.3967C57.7668 184.212 57.9519 184.502 57.9519 184.873C57.9519 185.137 57.6082 188.098 56.9208 193.756C56.2333 199.415 55.8632 202.323 55.8103 202.482C55.7045 202.852 55.1757 203.037 54.2239 203.037H53.272C52.9019 202.772 52.7168 202.429 52.7168 202.006C52.7168 201.953 52.7961 201.318 52.9548 200.102C53.1134 198.886 53.1927 197.484 53.1927 195.898C53.1927 194.312 53.0076 193.016 52.6375 192.011C52.2673 191.007 51.7649 190.187 51.1304 189.552C50.4958 188.918 49.5175 188.495 48.1955 188.283C46.8735 188.072 45.5251 187.887 44.1502 187.728C42.7753 187.569 40.8716 187.543 38.4391 187.649H36.6148C32.2786 187.702 29.9783 187.781 29.7139 187.887C29.4495 187.992 29.2644 188.204 29.1587 188.521C29.1058 188.574 28.2068 192.038 26.4618 198.912L23.9235 209.145H28.2862C28.4448 209.145 29.0529 209.145 30.1105 209.145C31.1681 209.145 31.9084 209.118 32.3315 209.065C32.7545 209.012 33.3362 208.933 34.0765 208.827C34.8169 208.721 35.4514 208.536 35.9802 208.272C36.509 208.008 36.9585 207.69 37.3287 207.32C38.0161 206.686 38.5978 205.813 39.0737 204.703C39.5496 203.592 39.8934 202.587 40.1049 201.688C40.3164 200.789 40.4486 200.314 40.5015 200.261C40.6601 199.996 41.1625 199.864 42.0086 199.864H42.9604C43.3306 200.128 43.5156 200.393 43.5156 200.657C43.5156 200.816 42.696 204.28 41.0567 211.048C39.4174 217.817 38.5185 221.307 38.3598 221.518C38.2541 221.889 37.7253 222.074 36.7734 222.074H35.8216C35.4514 221.756 35.2663 221.439 35.2663 221.122C35.2663 220.963 35.3985 220.382 35.6629 219.377C35.9273 218.372 36.0595 217.314 36.0595 216.204C36.0595 214.67 35.5307 213.719 34.4731 213.348C33.4155 212.978 31.0624 212.793 27.4136 212.793H23.051L20.5128 222.867C18.8206 229.424 17.9745 232.861 17.9745 233.179C17.9745 233.919 20.3277 234.289 25.034 234.289H27.017C27.3343 234.606 27.493 234.791 27.493 234.844C27.493 234.897 27.4401 235.426 27.3343 236.431C27.1228 237.118 26.8584 237.62 26.5411 237.938H25.1927C23.0246 237.832 19.0321 237.779 13.2153 237.779C9.77811 237.779 7.16054 237.779 5.36261 237.779C3.56469 237.779 2.55996 237.806 2.34844 237.858Z" fill="black"/>
<path d="M50.7216 233.741C50.759 233.517 50.8151 233.218 50.8899 232.844C50.9647 232.47 51.189 231.76 51.5628 230.713C51.9367 229.666 52.3106 228.787 52.6844 228.077C53.0583 227.367 53.6752 226.675 54.535 226.002C55.3949 225.329 56.2548 225.011 57.1147 225.049C58.4606 225.049 59.5822 225.385 60.4795 226.058C61.3767 226.731 61.9375 227.367 62.1618 227.965C62.3862 228.563 62.4983 228.956 62.4983 229.142C62.4983 229.217 62.517 229.255 62.5544 229.255L63.1713 228.638C65.4518 226.245 68.0502 225.049 70.9663 225.049C72.9852 225.049 74.6115 225.553 75.8452 226.563C77.079 227.572 77.7145 229.049 77.7519 230.993C77.7893 232.937 77.079 235.872 75.6209 239.798C74.1628 243.723 73.4525 246.097 73.4899 246.92C73.4899 247.892 73.8077 248.378 74.4432 248.378C74.6676 248.378 74.8358 248.359 74.948 248.322C76.0322 248.135 77.0042 247.424 77.8641 246.191C78.724 244.957 79.3782 243.461 79.8269 241.704C79.9016 241.405 80.2755 241.256 80.9484 241.256C81.6962 241.256 82.07 241.405 82.07 241.704C82.07 241.742 81.9953 242.022 81.8457 242.545C81.5466 243.63 81.1354 244.695 80.612 245.742C80.0886 246.789 79.2287 247.836 78.0323 248.882C76.836 249.929 75.5461 250.434 74.1628 250.397C72.4057 250.397 71.1346 249.892 70.3494 248.882C69.5643 247.873 69.1718 246.826 69.1718 245.742C69.1718 245.032 69.8447 242.788 71.1906 239.012C72.5365 235.236 73.2282 232.395 73.2656 230.488C73.2656 228.283 72.4431 227.18 70.7981 227.18H70.5177C67.3025 227.18 64.592 229.068 62.3862 232.844L61.9936 233.517L60.143 241.031C58.9092 245.929 58.1989 248.565 58.012 248.939C57.526 249.948 56.7221 250.453 55.6006 250.453C55.1145 250.453 54.722 250.341 54.4229 250.116C54.1238 249.892 53.9182 249.668 53.806 249.443C53.6939 249.219 53.6565 249.032 53.6939 248.882C53.6939 248.396 54.4042 245.349 55.8249 239.742C57.2456 234.134 57.9933 231.087 58.0681 230.601C58.1054 230.414 58.1241 229.984 58.1241 229.311C58.1241 227.853 57.6755 227.124 56.7782 227.124C55.3575 227.124 54.1799 228.993 53.2452 232.732C53.0209 233.479 52.9087 233.872 52.9087 233.909C52.834 234.134 52.4788 234.246 51.8432 234.246H51.0581C50.8338 234.021 50.7216 233.853 50.7216 233.741Z" fill="black"/>
<path d="M85.3787 240.414C85.3787 238.283 85.7339 236.339 86.4442 234.582C87.1546 232.825 88.0705 231.367 89.1921 230.208C90.3137 229.049 91.5662 228.077 92.9494 227.292C94.3327 226.507 95.6413 225.927 96.875 225.553C98.1087 225.18 99.2864 225.011 100.408 225.049H100.576C102.259 225.049 103.717 225.46 104.95 226.282C106.184 227.105 106.801 228.32 106.801 229.928C106.801 233.292 104.726 235.498 100.576 236.545C98.7443 237.031 96.2394 237.293 93.0616 237.33C91.6783 237.33 90.968 237.367 90.9306 237.442C90.9306 237.517 90.8184 238.171 90.5941 239.405C90.3698 240.639 90.2389 241.723 90.2016 242.658C90.2016 244.415 90.5941 245.798 91.3792 246.808C92.1643 247.817 93.342 248.34 94.9122 248.378C96.4824 248.415 98.2209 248.06 100.128 247.312C102.034 246.564 103.754 245.331 105.287 243.611C105.623 243.237 105.848 243.05 105.96 243.05C106.109 243.05 106.352 243.218 106.689 243.555C107.025 243.891 107.212 244.153 107.25 244.34C107.287 244.527 107.119 244.826 106.745 245.237C106.371 245.649 105.81 246.153 105.063 246.751C104.315 247.35 103.455 247.929 102.483 248.49C101.511 249.051 100.333 249.518 98.9499 249.892C97.5666 250.266 96.146 250.453 94.6879 250.453C91.7344 250.453 89.4538 249.462 87.8462 247.48C86.2386 245.499 85.4161 243.144 85.3787 240.414ZM104.109 230.04C103.885 228.096 102.614 227.124 100.296 227.124C99.0621 227.124 97.9218 227.385 96.875 227.909C95.8282 228.432 94.987 229.068 94.3514 229.815C93.7159 230.563 93.1738 231.33 92.7251 232.115C92.2765 232.9 91.9774 233.573 91.8279 234.134C91.6783 234.694 91.5848 235.05 91.5475 235.199C91.5475 235.236 91.9213 235.255 92.669 235.255C96.8937 235.255 99.8472 234.807 101.53 233.909C103.212 233.012 104.072 231.722 104.109 230.04Z" fill="black"/>
<path d="M110.783 228.245C110.521 227.984 110.39 227.797 110.39 227.684C110.39 227.535 110.446 227.236 110.558 226.787C110.671 226.339 110.764 226.077 110.839 226.002C110.914 225.815 111.082 225.722 111.343 225.722C111.605 225.722 112.559 225.703 114.204 225.666H117.176L118.241 221.179C118.353 220.768 118.484 220.226 118.634 219.553C118.783 218.88 118.914 218.394 119.026 218.095C119.139 217.796 119.251 217.422 119.363 216.973C119.475 216.525 119.625 216.207 119.811 216.02C119.998 215.833 120.185 215.609 120.372 215.347C120.559 215.085 120.821 214.917 121.157 214.842C121.494 214.767 121.83 214.73 122.167 214.73C122.84 214.767 123.307 214.973 123.569 215.347C123.831 215.721 123.961 216.076 123.961 216.412C123.961 216.674 123.793 217.553 123.457 219.048C123.12 220.544 122.746 222.02 122.335 223.478L121.774 225.553C121.774 225.628 122.709 225.666 124.578 225.666H127.438C127.7 225.927 127.831 226.133 127.831 226.282C127.831 227.105 127.588 227.759 127.102 228.245H121.101L119.082 236.377C117.624 242.359 116.895 245.574 116.895 246.022C116.895 247.593 117.4 248.378 118.409 248.378C119.718 248.378 120.989 247.742 122.223 246.471C123.457 245.2 124.447 243.63 125.195 241.76C125.27 241.536 125.363 241.405 125.475 241.368C125.588 241.33 125.868 241.293 126.317 241.256H126.541C127.102 241.256 127.382 241.405 127.382 241.704C127.382 241.816 127.326 242.041 127.214 242.377C127.027 242.975 126.691 243.686 126.205 244.508C125.719 245.331 125.083 246.209 124.298 247.144C123.513 248.079 122.559 248.864 121.438 249.499C120.316 250.135 119.176 250.453 118.017 250.453C116.895 250.453 115.83 250.172 114.82 249.611C113.811 249.051 113.082 248.079 112.633 246.695C112.559 246.396 112.521 245.892 112.521 245.181V244.172L114.484 236.321C115.792 231.049 116.465 228.395 116.503 228.357C116.503 228.283 115.549 228.245 113.643 228.245H110.783Z" fill="black"/>
<path d="M130.402 246.869C130.402 246.499 130.6 245.864 130.997 244.966C131.393 244.067 132.027 243.129 132.9 242.151C133.772 241.173 134.75 240.697 135.834 240.723C136.917 240.723 137.79 241.027 138.45 241.635C139.111 242.243 139.455 243.089 139.481 244.173C139.428 244.675 139.389 244.952 139.362 245.005C139.362 245.085 139.151 245.692 138.728 246.829C138.305 247.966 137.869 249.248 137.42 250.675C136.97 252.102 136.759 253.239 136.785 254.085C136.785 255.221 136.97 256.014 137.34 256.464C137.71 256.913 138.265 257.151 139.006 257.177C139.613 257.177 140.182 257.032 140.71 256.741C141.239 256.45 141.649 256.146 141.94 255.829C142.23 255.512 142.587 255.076 143.01 254.521C143.01 254.494 143.076 254.23 143.208 253.728C143.34 253.226 143.525 252.446 143.763 251.389C144.001 250.331 144.252 249.353 144.517 248.455C145.521 244.49 146.076 242.415 146.182 242.23C146.525 241.516 147.094 241.159 147.887 241.159C148.23 241.159 148.508 241.252 148.719 241.437C148.931 241.622 149.076 241.781 149.155 241.913C149.235 242.045 149.261 242.164 149.235 242.269C149.235 242.613 148.587 245.388 147.292 250.596C145.997 255.803 145.257 258.657 145.072 259.16C144.332 261.353 143.05 263.098 141.226 264.393C139.402 265.688 137.578 266.349 135.754 266.376C134.565 266.376 133.521 266.085 132.622 265.503C131.724 264.922 131.274 264.05 131.274 262.887C131.274 262.305 131.367 261.816 131.552 261.42C131.737 261.023 131.988 260.732 132.305 260.547C132.622 260.362 132.887 260.23 133.098 260.151C133.309 260.072 133.534 260.032 133.772 260.032C134.935 260.032 135.517 260.587 135.517 261.697C135.517 262.226 135.358 262.688 135.041 263.085C134.724 263.481 134.42 263.746 134.129 263.878C133.838 264.01 133.666 264.076 133.613 264.076L133.494 264.116C133.547 264.248 133.798 264.406 134.248 264.591C134.697 264.776 135.146 264.869 135.596 264.869H135.913C136.362 264.869 136.706 264.843 136.944 264.79C137.816 264.552 138.622 264.05 139.362 263.283C140.102 262.516 140.671 261.697 141.067 260.825C141.464 259.953 141.768 259.212 141.979 258.605C142.191 257.997 142.296 257.6 142.296 257.415L142.058 257.574C141.9 257.679 141.649 257.825 141.305 258.01C140.962 258.195 140.618 258.353 140.274 258.486C139.746 258.618 139.23 258.684 138.728 258.684C137.512 258.684 136.442 258.393 135.517 257.812C134.591 257.23 133.983 256.292 133.693 254.997C133.666 254.812 133.653 254.402 133.653 253.767C133.653 252.261 134.116 250.292 135.041 247.86C135.966 245.428 136.428 243.882 136.428 243.221C136.428 243.195 136.428 243.168 136.428 243.142C136.428 242.904 136.428 242.745 136.428 242.666C136.428 242.587 136.376 242.494 136.27 242.388C136.164 242.283 136.019 242.23 135.834 242.23H135.675C135.067 242.23 134.512 242.481 134.01 242.983C133.508 243.485 133.111 244.027 132.82 244.609C132.53 245.19 132.305 245.745 132.146 246.274C131.988 246.803 131.882 247.093 131.829 247.146C131.776 247.199 131.565 247.226 131.195 247.226H130.64C130.481 247.067 130.402 246.948 130.402 246.869Z" fill="black"/>
<path d="M182.263 210.414C182.263 209.726 182.633 209.197 183.373 208.827H233.9C234.693 209.25 235.09 209.779 235.09 210.414C235.09 210.995 234.72 211.498 233.979 211.921L208.756 212H183.532C182.686 211.736 182.263 211.207 182.263 210.414ZM182.263 225.802C182.263 225.009 182.686 224.48 183.532 224.215H233.979C234.72 224.744 235.09 225.273 235.09 225.802C235.09 226.489 234.693 227.018 233.9 227.388H183.373C182.633 227.018 182.263 226.489 182.263 225.802Z" fill="black"/>
<path d="M263.233 215.173C263.286 214.856 263.365 214.433 263.471 213.904C263.576 213.375 263.894 212.37 264.422 210.89C264.951 209.409 265.48 208.166 266.009 207.162C266.538 206.157 267.384 205.178 268.547 204.227C269.71 203.275 270.874 202.825 272.037 202.878C273.201 202.931 274.337 203.116 275.448 203.433C276.558 203.751 277.352 204.227 277.828 204.861C278.304 205.496 278.727 206.077 279.097 206.606C279.467 207.135 279.678 207.637 279.731 208.113L279.89 208.669C279.89 208.774 279.916 208.827 279.969 208.827L280.842 207.955C284.015 204.57 287.743 202.878 292.026 202.878C292.925 202.878 293.745 202.931 294.485 203.037C295.225 203.143 295.913 203.328 296.547 203.592C297.182 203.856 297.684 204.121 298.054 204.385C298.424 204.65 298.821 204.967 299.244 205.337C299.667 205.707 299.931 206.051 300.037 206.368C300.143 206.686 300.355 207.029 300.672 207.399C300.989 207.77 301.095 208.087 300.989 208.351C300.883 208.616 300.963 208.854 301.227 209.065C301.491 209.277 301.544 209.462 301.386 209.62L302.02 208.827C305.352 204.861 309.291 202.878 313.839 202.878C316.695 202.878 318.995 203.592 320.74 205.02C322.485 206.448 323.384 208.536 323.437 211.286C323.437 213.983 322.432 218.161 320.423 223.819C318.413 229.477 317.408 232.861 317.408 233.972C317.461 234.712 317.593 235.214 317.805 235.479C318.017 235.743 318.413 235.875 318.995 235.875C320.475 235.875 321.85 235.082 323.119 233.496C324.389 231.909 325.42 229.741 326.213 226.992C326.372 226.41 326.53 226.066 326.689 225.96C326.847 225.855 327.271 225.802 327.958 225.802C329.016 225.802 329.544 226.013 329.544 226.436C329.544 226.489 329.439 226.886 329.227 227.626C328.804 229.16 328.222 230.667 327.482 232.147C326.742 233.628 325.525 235.109 323.833 236.589C322.141 238.07 320.317 238.784 318.36 238.731C315.875 238.731 314.077 238.017 312.966 236.589C311.856 235.162 311.301 233.681 311.301 232.147C311.301 231.143 312.253 227.97 314.156 222.629C316.06 217.288 317.038 213.269 317.091 210.572C317.091 207.452 315.928 205.892 313.601 205.892H313.204C308.657 205.892 304.823 208.563 301.703 213.904L301.148 214.856L298.53 225.484C296.785 232.412 295.78 236.14 295.516 236.669C294.829 238.096 293.692 238.81 292.105 238.81C291.418 238.81 290.863 238.625 290.44 238.255C290.016 237.885 289.726 237.568 289.567 237.303C289.408 237.039 289.329 236.774 289.329 236.51C289.329 235.928 290.228 232.147 292.026 225.167L294.881 213.586C295.04 212.793 295.119 211.789 295.119 210.572C295.119 207.452 293.956 205.892 291.629 205.892H291.233C286.685 205.892 282.851 208.563 279.731 213.904L279.176 214.856L276.558 225.484C274.813 232.412 273.809 236.14 273.544 236.669C272.857 238.096 271.72 238.81 270.134 238.81C269.446 238.81 268.891 238.652 268.468 238.334C268.045 238.017 267.754 237.7 267.595 237.383C267.437 237.065 267.384 236.801 267.437 236.589C267.437 235.902 268.441 231.566 270.451 223.581C272.513 215.437 273.544 211.18 273.544 210.81C273.703 210.017 273.782 209.303 273.782 208.669C273.782 206.765 273.121 205.813 271.799 205.813C270.636 205.813 269.658 206.553 268.864 208.034C268.071 209.515 267.463 211.128 267.04 212.873C266.617 214.618 266.3 215.569 266.088 215.728C265.982 215.834 265.559 215.887 264.819 215.887H263.709C263.391 215.569 263.233 215.331 263.233 215.173Z" fill="black"/>
<path d="M333.828 225.484C333.828 220.144 335.837 215.067 339.856 210.255C343.875 205.443 348.396 203.01 353.42 202.958C356.117 202.958 358.496 204.253 360.559 206.844C361.405 205.258 362.621 204.465 364.207 204.465C364.895 204.465 365.503 204.676 366.032 205.099C366.561 205.522 366.825 206.051 366.825 206.686C366.825 207.373 365.847 211.603 363.89 219.377C361.934 227.15 360.929 231.539 360.876 232.544C360.876 233.866 361.061 234.739 361.431 235.162C361.801 235.585 362.357 235.823 363.097 235.875C363.573 235.823 364.102 235.585 364.683 235.162C365.794 234.104 366.878 231.566 367.935 227.547C368.253 226.489 368.517 225.934 368.729 225.881C368.834 225.828 369.099 225.802 369.522 225.802H369.839C370.844 225.802 371.346 226.04 371.346 226.516C371.346 226.833 371.214 227.547 370.95 228.657C370.685 229.768 370.156 231.196 369.363 232.941C368.57 234.686 367.724 236.008 366.825 236.907C366.138 237.594 365.291 238.149 364.287 238.572C363.864 238.678 363.229 238.731 362.383 238.731C360.585 238.731 359.078 238.334 357.862 237.541C356.646 236.748 355.852 235.928 355.482 235.082L355.006 233.892C354.953 233.84 354.848 233.866 354.689 233.972C354.583 234.078 354.477 234.183 354.372 234.289C351.252 237.25 348.079 238.731 344.853 238.731C341.945 238.731 339.38 237.673 337.159 235.558C334.938 233.443 333.828 230.085 333.828 225.484ZM359.052 211.921C359.052 211.603 358.919 211.022 358.655 210.176C358.391 209.33 357.782 208.404 356.831 207.399C355.879 206.395 354.663 205.866 353.182 205.813C351.331 205.813 349.56 206.633 347.867 208.272C346.175 209.911 344.853 212.053 343.901 214.697C342.368 218.874 341.284 223.211 340.649 227.705C340.649 227.864 340.649 228.155 340.649 228.578C340.649 229.001 340.623 229.318 340.57 229.53C340.57 231.909 341.046 233.549 341.998 234.448C342.95 235.347 344.087 235.823 345.409 235.875C347.418 235.875 349.401 235.003 351.358 233.258C353.314 231.513 354.477 230.164 354.848 229.213C354.953 229.001 355.667 226.172 356.989 220.725C358.311 215.279 358.999 212.344 359.052 211.921Z" fill="black"/>
<path d="M374.348 233.741C374.348 233.218 374.629 232.32 375.189 231.049C375.75 229.778 376.648 228.451 377.881 227.068C379.115 225.684 380.498 225.011 382.031 225.049C383.564 225.049 384.798 225.479 385.732 226.339C386.667 227.198 387.153 228.395 387.19 229.928C387.116 230.638 387.06 231.03 387.022 231.105C387.022 231.217 386.723 232.077 386.125 233.685C385.527 235.293 384.91 237.106 384.274 239.125C383.639 241.143 383.34 242.751 383.377 243.947C383.377 245.555 383.639 246.677 384.162 247.312C384.686 247.948 385.471 248.284 386.518 248.322C387.377 248.322 388.181 248.116 388.929 247.705C389.677 247.294 390.256 246.864 390.667 246.415C391.079 245.966 391.583 245.349 392.182 244.564C392.182 244.527 392.275 244.153 392.462 243.443C392.649 242.732 392.911 241.629 393.247 240.134C393.584 238.639 393.939 237.255 394.313 235.984C395.733 230.376 396.518 227.441 396.668 227.18C397.154 226.17 397.958 225.666 399.079 225.666C399.565 225.666 399.958 225.796 400.257 226.058C400.556 226.32 400.762 226.544 400.874 226.731C400.986 226.918 401.023 227.086 400.986 227.236C400.986 227.722 400.07 231.647 398.238 239.012C396.406 246.378 395.359 250.415 395.098 251.126C394.051 254.229 392.238 256.696 389.658 258.528C387.078 260.36 384.499 261.295 381.919 261.332C380.237 261.332 378.76 260.921 377.489 260.098C376.218 259.276 375.582 258.042 375.582 256.397C375.582 255.575 375.713 254.883 375.975 254.322C376.236 253.761 376.591 253.35 377.04 253.088C377.489 252.827 377.863 252.64 378.162 252.528C378.461 252.415 378.779 252.359 379.115 252.359C380.76 252.359 381.583 253.144 381.583 254.715C381.583 255.462 381.358 256.117 380.91 256.677C380.461 257.238 380.031 257.612 379.62 257.799C379.209 257.986 378.966 258.079 378.891 258.079L378.722 258.136C378.797 258.322 379.152 258.547 379.788 258.808C380.424 259.07 381.059 259.201 381.695 259.201H382.143C382.779 259.201 383.265 259.164 383.601 259.089C384.835 258.752 385.975 258.042 387.022 256.958C388.069 255.874 388.873 254.715 389.434 253.481C389.994 252.247 390.424 251.2 390.723 250.34C391.023 249.481 391.172 248.92 391.172 248.658L390.836 248.882C390.611 249.032 390.256 249.238 389.77 249.499C389.284 249.761 388.798 249.985 388.312 250.172C387.564 250.359 386.835 250.453 386.125 250.453C384.405 250.453 382.891 250.041 381.583 249.219C380.274 248.396 379.414 247.069 379.003 245.237C378.966 244.976 378.947 244.396 378.947 243.499C378.947 241.368 379.601 238.583 380.91 235.143C382.218 231.703 382.872 229.516 382.872 228.582C382.872 228.544 382.872 228.507 382.872 228.47C382.872 228.133 382.872 227.909 382.872 227.797C382.872 227.684 382.798 227.554 382.648 227.404C382.499 227.254 382.293 227.18 382.031 227.18H381.807C380.947 227.18 380.162 227.535 379.452 228.245C378.741 228.956 378.18 229.722 377.769 230.544C377.358 231.367 377.04 232.152 376.816 232.9C376.591 233.648 376.442 234.059 376.367 234.134C376.292 234.208 375.993 234.246 375.47 234.246H374.685C374.46 234.021 374.348 233.853 374.348 233.741Z" fill="black"/>
<path d="M15.4772 38.5116C17.7015 38.5116 19.7374 37.5313 21.5847 35.5709C23.4321 33.6104 24.3746 31.3295 24.4123 28.7282C24.4123 26.353 23.4321 24.713 21.4716 23.8082C17.4753 22.7902 14.9117 22.0928 13.7806 21.7158C12.6496 21.3388 11.8579 20.9618 11.4055 20.5847C9.14341 19.0013 8.01238 16.7204 8.01238 13.742C8.01238 11.4423 8.6156 9.34985 9.82203 7.4648C11.0285 5.57975 12.2537 4.16596 13.4979 3.22343C14.5912 2.28091 15.9107 1.52689 17.4565 0.961375C19.0022 0.39586 20.2087 0.0942525 21.0758 0.0565515H21.6978H22.0937C25.713 0.0565515 28.3332 1.26298 29.9544 3.67585C29.9921 3.67585 30.2371 3.43079 30.6895 2.94068C31.1419 2.45056 31.6321 1.9039 32.1599 1.30068C32.6877 0.697468 33.0647 0.282757 33.2909 0.0565515C33.3286 0.0565515 33.404 0.0565515 33.5171 0.0565515C33.6302 0.0565515 33.7245 0.037701 33.7999 0C34.29 0 34.535 0.131953 34.535 0.39586C34.535 0.659767 34.0072 2.94068 32.9516 7.23859C31.896 11.5365 31.2927 13.7609 31.1419 13.9117C30.9911 14.0625 30.6895 14.119 30.2371 14.0813C29.4831 14.0813 29.1061 13.9117 29.1061 13.5724C29.1061 13.3462 29.1249 13.1576 29.1626 13.0068C29.1626 12.8937 29.1815 12.5356 29.2192 11.9324C29.2569 11.3291 29.2946 10.839 29.3323 10.462C29.3323 9.18019 29.1626 8.06801 28.8233 7.12549C28.484 6.18296 28.1447 5.48549 27.8054 5.03308C27.4661 4.58067 26.9948 4.10941 26.3916 3.61929C25.0344 2.82757 23.4886 2.43171 21.7544 2.43171C19.6054 2.43171 17.6073 3.29884 15.7599 5.03308C13.9126 6.76733 12.9701 8.76548 12.9324 11.0275C12.9324 12.1586 13.2151 13.1388 13.7806 13.9682C14.3462 14.7976 15.119 15.382 16.0992 15.7213C16.2501 15.7967 17.5696 16.1549 20.0579 16.7958C22.5461 17.4367 23.8091 17.776 23.8468 17.8137C25.1286 18.2284 26.3728 19.1333 27.5792 20.5282C28.7856 21.9231 29.3888 23.8082 29.3888 26.1833C29.3888 27.1636 29.238 28.2192 28.9364 29.3502C28.7479 30.1796 28.4086 31.1033 27.9185 32.1212C27.4284 33.1392 26.7498 34.2513 25.8827 35.4578C25.0155 36.6642 23.7714 37.7952 22.1503 38.8509C20.5291 39.9065 18.7572 40.6228 16.8344 40.9998C16.382 41.0752 15.7411 41.1129 14.9117 41.1129C11.1793 41.1129 8.27629 40.0762 6.20274 38.0026L5.63722 37.3805L4.05378 39.1336C3.18666 40.1516 2.65884 40.7359 2.47034 40.8867C2.28183 41.0375 2.03678 41.1129 1.73517 41.1129C1.24506 41.1129 1 40.9621 1 40.6605C1 40.5474 2.09333 36.1175 4.27999 27.3709C4.35539 27.1447 4.7324 27.0316 5.41102 27.0316H6.14619C6.37239 27.2578 6.48549 27.4652 6.48549 27.6537C6.48549 27.7291 6.46664 27.8987 6.42894 28.1626C6.39124 28.4265 6.31584 28.8224 6.20274 29.3502C6.08963 29.878 6.05193 30.5001 6.08963 31.2164C6.16504 32.6868 6.50434 33.9309 7.10756 34.9488C7.71078 35.9667 8.52135 36.7208 9.53927 37.2109C10.5572 37.701 11.5374 38.0403 12.48 38.2288C13.4225 38.4173 14.4216 38.5116 15.4772 38.5116Z" fill="#6C6EFF"/>
<path d="M36.4012 30.9902C36.4012 27.1824 37.8339 23.5631 40.6991 20.1323C43.5644 16.7015 46.7879 14.9673 50.3694 14.9296C52.2922 14.9296 53.9887 15.8533 55.4591 17.7006C56.0623 16.5696 56.9294 16.0041 58.0604 16.0041C58.5506 16.0041 58.9841 16.1549 59.3611 16.4565C59.7381 16.7581 59.9266 17.1351 59.9266 17.5875C59.9266 18.0776 59.2292 21.0937 57.8342 26.6357C56.4393 32.1778 55.723 35.307 55.6853 36.0233C55.6853 36.9658 55.8172 37.5879 56.0811 37.8895C56.3451 38.1911 56.7409 38.3608 57.2687 38.3985C57.608 38.3608 57.985 38.1911 58.3998 37.8895C59.1915 37.1355 59.9643 35.3258 60.7184 32.4606C60.9446 31.7065 61.1331 31.3107 61.2839 31.273C61.3593 31.2353 61.5478 31.2164 61.8494 31.2164H62.0756C62.7919 31.2164 63.1501 31.3861 63.1501 31.7254C63.1501 31.9516 63.0558 32.4606 62.8673 33.2523C62.6788 34.044 62.3018 35.0619 61.7363 36.3061C61.1708 37.5502 60.5676 38.4927 59.9266 39.1336C59.4365 39.6237 58.8333 40.0196 58.117 40.3212C57.8154 40.3966 57.363 40.4343 56.7598 40.4343C55.4779 40.4343 54.4035 40.1516 53.5363 39.586C52.6692 39.0205 52.1037 38.4362 51.8398 37.8329L51.5005 36.9847C51.4628 36.947 51.3874 36.9658 51.2743 37.0412C51.1989 37.1166 51.1235 37.192 51.0481 37.2674C48.8237 39.3787 46.5616 40.4343 44.2619 40.4343C42.1883 40.4343 40.3598 39.6803 38.7764 38.1723C37.193 36.6642 36.4012 34.2702 36.4012 30.9902ZM54.3846 21.3199C54.3846 21.0937 54.2903 20.679 54.1018 20.0758C53.9133 19.4726 53.4798 18.8128 52.8012 18.0965C52.1225 17.3802 51.2554 17.0031 50.1998 16.9654C48.8803 16.9654 47.6173 17.5498 46.4108 18.7185C45.2044 19.8873 44.2619 21.4142 43.5833 23.2992C42.4899 26.2776 41.7171 29.3691 41.2647 32.5737C41.2647 32.6868 41.2647 32.8941 41.2647 33.1957C41.2647 33.4973 41.2458 33.7235 41.2081 33.8743C41.2081 35.5709 41.5474 36.7396 42.226 37.3805C42.9046 38.0214 43.7152 38.3608 44.6577 38.3985C46.0904 38.3985 47.5042 37.7764 48.8991 36.5323C50.294 35.2881 51.1235 34.3268 51.3874 33.6481C51.4628 33.4973 51.9717 31.4803 52.9143 27.5971C53.8568 23.7139 54.3469 21.6215 54.3846 21.3199Z" fill="#6C6EFF"/>
<path d="M65.6383 23.6385C65.676 23.4123 65.7326 23.1107 65.808 22.7337C65.8834 22.3567 66.1096 21.6404 66.4866 20.5847C66.8636 19.5291 67.2406 18.6431 67.6176 17.9268C67.9946 17.2105 68.5979 16.513 69.4273 15.8344C70.2567 15.1558 71.0861 14.8353 71.9156 14.873C72.745 14.9107 73.5555 15.0427 74.3473 15.2689C75.139 15.4951 75.7045 15.8344 76.0438 16.2868C76.3831 16.7392 76.6847 17.1539 76.9486 17.531C77.2125 17.908 77.3633 18.2661 77.401 18.6054L77.5141 19.0013C77.5141 19.0767 77.533 19.1144 77.5707 19.1144L78.1928 18.4923C80.4548 16.0795 83.1127 14.873 86.1665 14.873C86.8074 14.873 87.3918 14.9107 87.9196 14.9861C88.4474 15.0615 88.9375 15.1935 89.39 15.382C89.8424 15.5705 90.2005 15.759 90.4644 15.9475C90.7283 16.136 91.0111 16.3622 91.3127 16.6261C91.6143 16.89 91.8028 17.1351 91.8782 17.3613C91.9536 17.5875 92.1044 17.8326 92.3306 18.0965C92.5568 18.3604 92.6322 18.5866 92.5568 18.7751C92.4814 18.9636 92.538 19.1333 92.7265 19.2841C92.915 19.4349 92.9527 19.5668 92.8396 19.6799L93.292 19.1144C95.6672 16.2868 98.4759 14.873 101.718 14.873C103.754 14.873 105.394 15.382 106.638 16.3999C107.882 17.4179 108.523 18.907 108.561 20.8675C108.561 22.7902 107.845 25.7686 106.412 29.8026C104.979 33.8366 104.263 36.2495 104.263 37.0412C104.301 37.569 104.395 37.9272 104.546 38.1157C104.697 38.3042 104.979 38.3985 105.394 38.3985C106.45 38.3985 107.43 37.8329 108.335 36.7019C109.24 35.5709 109.975 34.0251 110.54 32.0647C110.653 31.65 110.766 31.4049 110.88 31.3295C110.993 31.2541 111.294 31.2164 111.784 31.2164C112.538 31.2164 112.915 31.3672 112.915 31.6688C112.915 31.7065 112.84 31.9893 112.689 32.5171C112.388 33.6104 111.973 34.6849 111.445 35.7405C110.917 36.7962 110.05 37.8518 108.844 38.9074C107.637 39.963 106.337 40.472 104.942 40.4343C103.17 40.4343 101.888 39.9253 101.096 38.9074C100.304 37.8895 99.9085 36.8339 99.9085 35.7405C99.9085 35.0242 100.587 32.7622 101.944 28.9544C103.302 25.1466 103.999 22.2813 104.037 20.3585C104.037 18.1342 103.207 17.022 101.549 17.022H101.266C98.0235 17.022 95.2902 18.9259 93.0658 22.7337L92.6699 23.4123L90.8037 30.9902C89.5596 35.929 88.8433 38.587 88.6548 38.964C88.1647 39.9819 87.3541 40.4909 86.2231 40.4909C85.733 40.4909 85.3371 40.3589 85.0355 40.095C84.7339 39.8311 84.5265 39.6049 84.4134 39.4164C84.3003 39.2279 84.2438 39.0394 84.2438 38.8509C84.2438 38.4362 84.8847 35.7405 86.1665 30.764L88.2024 22.5075C88.3155 21.942 88.372 21.2257 88.372 20.3585C88.372 18.1342 87.5426 17.022 85.8838 17.022H85.601C82.3587 17.022 79.6254 18.9259 77.401 22.7337L77.0052 23.4123L75.139 30.9902C73.8949 35.929 73.1785 38.587 72.99 38.964C72.4999 39.9819 71.6893 40.4909 70.5583 40.4909C70.0682 40.4909 69.6723 40.3778 69.3707 40.1516C69.0691 39.9253 68.8618 39.6991 68.7487 39.4729C68.6356 39.2467 68.5979 39.0582 68.6356 38.9074C68.6356 38.4173 69.3519 35.3258 70.7845 29.633C72.2549 23.827 72.99 20.7921 72.99 20.5282C73.1031 19.9627 73.1597 19.4537 73.1597 19.0013C73.1597 17.6441 72.6884 16.9654 71.7459 16.9654C70.9165 16.9654 70.219 17.4933 69.6535 18.5489C69.088 19.6045 68.6544 20.7544 68.3528 21.9985C68.0512 23.2427 67.825 23.9213 67.6742 24.0344C67.5988 24.1098 67.2972 24.1475 66.7694 24.1475H65.9776C65.7514 23.9213 65.6383 23.7516 65.6383 23.6385Z" fill="#6C6EFF"/>
<path d="M116.308 30.3681C116.308 28.2192 116.667 26.2587 117.383 24.4868C118.099 22.7148 119.023 21.2445 120.154 20.0758C121.285 18.907 122.548 17.9268 123.943 17.1351C125.338 16.3434 126.657 15.759 127.902 15.382C129.146 15.005 130.333 14.8353 131.464 14.873H131.634C133.33 14.873 134.801 15.2877 136.045 16.1172C137.289 16.9466 137.911 18.1719 137.911 19.793C137.911 23.1861 135.819 25.4105 131.634 26.4661C129.787 26.9562 127.261 27.2201 124.056 27.2578C122.661 27.2578 121.945 27.2955 121.907 27.3709C121.907 27.4463 121.794 28.1061 121.568 29.3502C121.342 30.5944 121.21 31.6877 121.172 32.6302C121.172 34.4022 121.568 35.7971 122.359 36.815C123.151 37.8329 124.339 38.3608 125.922 38.3985C127.506 38.4362 129.259 38.078 131.182 37.324C133.104 36.57 134.839 35.3258 136.384 33.5916C136.724 33.2146 136.95 33.0261 137.063 33.0261C137.214 33.0261 137.459 33.1957 137.798 33.535C138.137 33.8743 138.326 34.1382 138.364 34.3267C138.401 34.5153 138.232 34.8169 137.855 35.2316C137.478 35.6463 136.912 36.1552 136.158 36.7585C135.404 37.3617 134.537 37.946 133.557 38.5116C132.576 39.0771 131.389 39.5483 129.994 39.9253C128.599 40.3024 127.166 40.4909 125.696 40.4909C122.718 40.4909 120.418 39.4918 118.797 37.4936C117.176 35.4955 116.346 33.1203 116.308 30.3681ZM135.197 19.9061C134.97 17.9457 133.689 16.9654 131.351 16.9654C130.107 16.9654 128.957 17.2294 127.902 17.7572C126.846 18.285 125.998 18.9259 125.357 19.6799C124.716 20.4339 124.169 21.2068 123.717 21.9985C123.264 22.7902 122.963 23.4689 122.812 24.0344C122.661 24.5999 122.567 24.9581 122.529 25.1089C122.529 25.1466 122.906 25.1654 123.66 25.1654C127.92 25.1654 130.899 24.713 132.595 23.8082C134.292 22.9033 135.159 21.6027 135.197 19.9061Z" fill="#6C6EFF"/>
<path d="M174.398 4.35449C174.398 4.09059 173.324 3.92093 171.175 3.84553C170.308 3.84553 169.742 3.82668 169.478 3.78898C169.214 3.75128 169.082 3.58162 169.082 3.28002C169.082 2.97841 169.158 2.6014 169.309 2.14899C169.459 1.69657 169.591 1.41382 169.704 1.30071C169.78 1.26301 173.531 1.24416 180.958 1.24416C187.254 1.28186 190.779 1.30071 191.533 1.30071C192.287 1.30071 193.041 1.41382 193.795 1.64002C196.51 2.28094 198.81 3.77013 200.695 6.10759C202.58 8.44505 203.541 11.5742 203.579 15.4951C203.579 21.3765 201.562 26.6546 197.528 31.3295C193.494 36.0045 188.743 38.7943 183.277 39.6992L182.485 39.8123L171.514 39.8688H165.237H162.24C161.335 39.8688 160.75 39.8311 160.486 39.7557C160.223 39.6803 160.072 39.5107 160.034 39.2467C160.034 39.1713 160.091 38.9074 160.204 38.455C160.355 37.8518 160.505 37.5125 160.656 37.4371C160.807 37.3617 161.241 37.3051 161.957 37.2674C162.975 37.2674 164.106 37.2109 165.35 37.0978C165.878 36.9847 166.236 36.7585 166.424 36.4192C166.537 36.2684 167.895 31.0279 170.496 20.6979C173.097 10.3678 174.398 4.92001 174.398 4.35449ZM197.924 13.3462C197.924 11.9135 197.716 10.6317 197.301 9.50068C196.887 8.36965 196.397 7.48368 195.831 6.84276C195.266 6.20184 194.568 5.65518 193.739 5.20277C192.909 4.75035 192.174 4.44875 191.533 4.29794C190.892 4.14714 190.233 4.01518 189.554 3.90208C189.479 3.90208 189.215 3.90208 188.762 3.90208C188.31 3.90208 187.763 3.90208 187.122 3.90208C186.481 3.90208 185.859 3.88323 185.256 3.84553H182.824C181.165 3.84553 180.223 4.03404 179.997 4.41105C179.921 4.56185 178.545 9.99079 175.868 20.6979C173.192 31.4049 171.853 36.815 171.853 36.9281C171.853 37.0789 172.061 37.1543 172.475 37.1543C172.89 37.1543 174.342 37.1732 176.83 37.2109C177.018 37.2109 177.377 37.2109 177.904 37.2109C178.432 37.2109 178.885 37.2297 179.262 37.2674C184.012 37.2674 187.933 35.7217 191.024 32.6302C192.382 31.273 193.494 29.6895 194.361 27.8799C195.228 26.0703 196.039 23.6762 196.793 20.6979C197.547 17.7195 197.924 15.2689 197.924 13.3462Z" fill="#6C6EFF"/>
<path d="M215.398 5.93791C215.398 5.03309 215.756 4.24137 216.472 3.56275C217.189 2.88413 218.018 2.52597 218.961 2.48827C219.639 2.48827 220.205 2.71448 220.657 3.16689C221.11 3.6193 221.355 4.18482 221.392 4.86343C221.392 5.73056 221.015 6.52228 220.261 7.2386C219.507 7.95491 218.678 8.33192 217.773 8.36963C217.208 8.36963 216.68 8.18112 216.19 7.80411C215.7 7.4271 215.436 6.80503 215.398 5.93791ZM206.18 23.6385C206.18 23.3369 206.35 22.7525 206.689 21.8854C207.028 21.0183 207.481 20.0569 208.046 19.0013C208.612 17.9457 209.441 16.9843 210.535 16.1172C211.628 15.25 212.759 14.8353 213.928 14.873C215.398 14.873 216.623 15.3066 217.603 16.1737C218.584 17.0408 219.093 18.2096 219.13 19.6799C219.13 20.3208 218.866 21.3765 218.339 22.8468C217.811 24.3171 217.057 26.2964 216.077 28.7847C215.096 31.273 214.305 33.4031 213.701 35.175C213.513 36.0044 213.419 36.6077 213.419 36.9847C213.419 37.9272 213.739 38.3985 214.38 38.3985C214.719 38.3985 215.078 38.3419 215.455 38.2288C215.832 38.1157 216.265 37.8518 216.755 37.4371C217.245 37.0224 217.754 36.3626 218.282 35.4578C218.81 34.553 219.281 33.4408 219.696 32.1212C219.809 31.6688 219.903 31.4049 219.979 31.3295C220.054 31.2541 220.375 31.2164 220.94 31.2164C221.694 31.2164 222.071 31.4049 222.071 31.7819C222.071 32.0835 221.901 32.6679 221.562 33.535C221.223 34.4021 220.752 35.3635 220.148 36.4192C219.545 37.4748 218.697 38.4173 217.603 39.2467C216.51 40.0761 215.341 40.4909 214.097 40.4909C212.891 40.4909 211.779 40.095 210.761 39.3033C209.743 38.5116 209.215 37.3051 209.177 35.684C209.177 35.0431 209.272 34.4399 209.46 33.8743C209.649 33.3088 210.459 31.1599 211.892 27.4275C213.324 23.6197 214.154 21.3388 214.38 20.5847C214.606 19.8307 214.738 19.0955 214.776 18.3792C214.776 17.4744 214.455 17.022 213.815 17.022H213.701C212.57 17.022 211.534 17.6441 210.591 18.8882C209.649 20.1323 208.932 21.7158 208.442 23.6385C208.404 23.6762 208.367 23.7328 208.329 23.8082C208.291 23.8836 208.273 23.9401 208.273 23.9778C208.273 24.0155 208.235 24.0532 208.159 24.0909C208.084 24.1286 208.027 24.1475 207.99 24.1475C207.952 24.1475 207.877 24.1475 207.764 24.1475C207.65 24.1475 207.5 24.1475 207.311 24.1475H206.519C206.293 23.9213 206.18 23.7516 206.18 23.6385Z" fill="#6C6EFF"/>
<path d="M225.69 23.6385C225.728 23.5254 225.766 23.3746 225.803 23.1861C225.841 22.9976 225.935 22.5829 226.086 21.942C226.237 21.3011 226.426 20.7167 226.652 20.1889C226.878 19.6611 227.161 19.039 227.5 18.3227C227.839 17.6064 228.216 17.0408 228.631 16.6261C229.046 16.2114 229.536 15.7967 230.101 15.382C230.667 14.9673 231.289 14.7976 231.968 14.873C233.061 14.873 234.022 15.0992 234.852 15.5517C235.681 16.0041 236.265 16.4188 236.605 16.7958C236.944 17.1728 237.151 17.5498 237.227 17.9268C237.302 18.153 237.359 18.2661 237.397 18.2661C237.434 18.2661 237.585 18.1342 237.849 17.8703C239.659 15.9098 241.751 14.9296 244.126 14.9296H244.296C246.105 14.9296 247.463 15.7025 248.367 17.2482C248.669 17.9645 248.82 18.662 248.82 19.3406C248.82 20.4716 248.575 21.3765 248.085 22.0551C247.595 22.7337 247.105 23.1673 246.614 23.3558C246.124 23.5443 245.653 23.6197 245.201 23.582C244.447 23.582 243.843 23.3746 243.391 22.9599C242.939 22.5452 242.712 21.9985 242.712 21.3199C242.712 19.5103 243.768 18.3038 245.879 17.7006C245.05 17.2105 244.371 16.9654 243.843 16.9654C241.732 16.9654 239.791 18.3604 238.019 21.1503C237.642 21.7535 237.359 22.3755 237.17 23.0165C236.982 23.6574 236.341 26.1645 235.248 30.5378C233.966 35.8159 233.231 38.6247 233.042 38.964C232.552 39.9819 231.741 40.4909 230.61 40.4909C230.12 40.4909 229.724 40.3778 229.423 40.1516C229.121 39.9253 228.914 39.6991 228.801 39.4729C228.688 39.2467 228.65 39.0582 228.688 38.9074C228.688 38.4173 229.442 35.175 230.95 29.1806C232.458 23.1861 233.212 19.8496 233.212 19.171C233.212 17.7006 232.722 16.9654 231.741 16.9654C230.95 16.9654 230.271 17.4933 229.706 18.5489C229.14 19.6045 228.688 20.7544 228.348 21.9985C228.009 23.2427 227.802 23.9213 227.726 24.0344C227.651 24.1098 227.349 24.1475 226.821 24.1475H226.03C225.803 23.9213 225.69 23.7516 225.69 23.6385Z" fill="#6C6EFF"/>
<path d="M252.213 30.3681C252.213 28.2192 252.571 26.2587 253.287 24.4868C254.004 22.7148 254.927 21.2445 256.059 20.0758C257.19 18.907 258.453 17.9268 259.847 17.1351C261.242 16.3434 262.562 15.759 263.806 15.382C265.05 15.005 266.238 14.8353 267.369 14.873H267.538C269.235 14.873 270.705 15.2877 271.949 16.1172C273.194 16.9466 273.816 18.1719 273.816 19.793C273.816 23.1861 271.723 25.4105 267.538 26.4661C265.691 26.9562 263.165 27.2201 259.961 27.2578C258.566 27.2578 257.849 27.2955 257.812 27.3709C257.812 27.4463 257.699 28.1061 257.472 29.3502C257.246 30.5944 257.114 31.6877 257.076 32.6302C257.076 34.4022 257.472 35.7971 258.264 36.815C259.056 37.8329 260.243 38.3608 261.827 38.3985C263.41 38.4362 265.163 38.078 267.086 37.324C269.009 36.57 270.743 35.3258 272.289 33.5916C272.628 33.2146 272.854 33.0261 272.967 33.0261C273.118 33.0261 273.363 33.1957 273.703 33.535C274.042 33.8743 274.23 34.1382 274.268 34.3267C274.306 34.5153 274.136 34.8169 273.759 35.2316C273.382 35.6463 272.817 36.1552 272.063 36.7585C271.309 37.3617 270.441 37.946 269.461 38.5116C268.481 39.0771 267.293 39.5483 265.898 39.9253C264.504 40.3024 263.071 40.4909 261.601 40.4909C258.622 40.4909 256.322 39.4918 254.701 37.4936C253.08 35.4955 252.251 33.1203 252.213 30.3681ZM271.101 19.9061C270.875 17.9457 269.593 16.9654 267.256 16.9654C266.012 16.9654 264.862 17.2294 263.806 17.7572C262.75 18.285 261.902 18.9259 261.261 19.6799C260.62 20.4339 260.074 21.2068 259.621 21.9985C259.169 22.7902 258.867 23.4689 258.716 24.0344C258.566 24.5999 258.471 24.9581 258.434 25.1089C258.434 25.1466 258.811 25.1654 259.565 25.1654C263.825 25.1654 266.803 24.713 268.5 23.8082C270.196 22.9033 271.064 21.6027 271.101 19.9061Z" fill="#6C6EFF"/>
<path d="M278.283 30.8771C278.283 26.7677 279.904 23.073 283.147 19.793C286.389 16.513 289.895 14.8731 293.665 14.8731C295.777 14.8731 297.435 15.3255 298.642 16.2303C299.848 17.1351 300.47 18.3227 300.508 19.793C300.508 20.8864 300.15 21.81 299.434 22.5641C298.717 23.3181 297.812 23.7139 296.719 23.7516C296.003 23.7516 295.437 23.5631 295.023 23.1861C294.608 22.8091 294.4 22.2436 294.4 21.4896C294.4 20.7356 294.608 20.0946 295.023 19.5668C295.437 19.039 295.852 18.6432 296.267 18.3792C296.681 18.1153 296.945 18.0022 297.058 18.0399H297.115C297.115 17.9645 297.002 17.8514 296.776 17.7006C296.549 17.5498 296.154 17.399 295.588 17.2482C295.023 17.0974 294.382 17.022 293.665 17.022C292.534 17.022 291.46 17.2859 290.442 17.8137C289.65 18.153 288.84 18.7374 288.01 19.5668C286.351 21.2257 285.145 23.5631 284.391 26.5792C283.637 29.5953 283.241 31.782 283.203 33.1392C283.203 34.8734 283.693 36.1741 284.674 37.0412C285.503 37.9461 286.596 38.3985 287.954 38.3985H288.18C292.402 38.3985 295.89 36.7962 298.642 33.5916C298.981 33.2146 299.207 33.0261 299.32 33.0261C299.471 33.0261 299.716 33.1957 300.056 33.535C300.395 33.8744 300.583 34.1383 300.621 34.3268C300.659 34.5153 300.489 34.798 300.112 35.175C299.735 35.552 299.188 36.0799 298.472 36.7585C297.756 37.4371 296.908 38.0026 295.927 38.455C294.947 38.9074 293.741 39.3787 292.308 39.8688C290.875 40.3589 289.367 40.5663 287.784 40.4909C284.956 40.4909 282.675 39.5861 280.941 37.7764C279.207 35.9668 278.321 33.667 278.283 30.8771Z" fill="#6C6EFF"/>
<path d="M302.318 18.0965C302.054 17.8326 301.922 17.6441 301.922 17.531C301.922 17.3802 301.978 17.0785 302.091 16.6261C302.205 16.1737 302.299 15.9098 302.374 15.8344C302.45 15.6459 302.619 15.5517 302.883 15.5517C303.147 15.5517 304.108 15.5328 305.767 15.4951H308.764L309.839 10.971C309.952 10.5563 310.084 10.0096 310.235 9.33099C310.386 8.65237 310.518 8.16226 310.631 7.86065C310.744 7.55904 310.857 7.18203 310.97 6.72962C311.083 6.27721 311.234 5.95675 311.422 5.76825C311.611 5.57974 311.799 5.35354 311.988 5.08963C312.176 4.82572 312.44 4.65607 312.78 4.58067C313.119 4.50526 313.458 4.46756 313.798 4.46756C314.476 4.50526 314.947 4.71262 315.211 5.08963C315.475 5.46664 315.607 5.8248 315.607 6.16411C315.607 6.42801 315.438 7.31399 315.098 8.82203C314.759 10.3301 314.382 11.8193 313.967 13.2896L313.402 15.382C313.402 15.4574 314.344 15.4951 316.229 15.4951H319.113C319.377 15.759 319.509 15.9664 319.509 16.1172C319.509 16.9466 319.264 17.6064 318.774 18.0965H312.723L310.687 26.2964C309.217 32.3286 308.482 35.5709 308.482 36.0233C308.482 37.6067 308.991 38.3985 310.009 38.3985C311.328 38.3985 312.61 37.7575 313.854 36.4757C315.098 35.1939 316.097 33.6104 316.851 31.7254C316.927 31.4992 317.021 31.3672 317.134 31.3295C317.247 31.2918 317.53 31.2541 317.982 31.2164H318.209C318.774 31.2164 319.057 31.3672 319.057 31.6688C319.057 31.7819 319 32.0081 318.887 32.3474C318.699 32.9507 318.359 33.667 317.869 34.4964C317.379 35.3258 316.738 36.2118 315.947 37.1543C315.155 38.0968 314.193 38.8886 313.062 39.5295C311.931 40.1704 310.781 40.4909 309.613 40.4909C308.482 40.4909 307.407 40.2081 306.389 39.6426C305.371 39.0771 304.636 38.0968 304.184 36.7019C304.108 36.4003 304.071 35.8913 304.071 35.175V34.1571L306.05 26.2399C307.37 20.924 308.048 18.2473 308.086 18.2096C308.086 18.1342 307.124 18.0965 305.202 18.0965H302.318Z" fill="#6C6EFF"/>
<path d="M331.668 5.93791C331.668 5.03309 332.026 4.24137 332.742 3.56275C333.459 2.88413 334.288 2.52597 335.231 2.48827C335.909 2.48827 336.475 2.71448 336.927 3.16689C337.38 3.6193 337.625 4.18482 337.662 4.86343C337.662 5.73056 337.285 6.52228 336.531 7.2386C335.777 7.95491 334.948 8.33192 334.043 8.36963C333.477 8.36963 332.95 8.18112 332.46 7.80411C331.969 7.4271 331.706 6.80503 331.668 5.93791ZM322.45 23.6385C322.45 23.3369 322.62 22.7525 322.959 21.8854C323.298 21.0183 323.751 20.0569 324.316 19.0013C324.882 17.9457 325.711 16.9843 326.804 16.1172C327.898 15.25 329.029 14.8353 330.198 14.873C331.668 14.873 332.893 15.3066 333.873 16.1737C334.854 17.0408 335.363 18.2096 335.4 19.6799C335.4 20.3208 335.136 21.3765 334.609 22.8468C334.081 24.3171 333.327 26.2964 332.346 28.7847C331.366 31.273 330.575 33.4031 329.971 35.175C329.783 36.0044 329.689 36.6077 329.689 36.9847C329.689 37.9272 330.009 38.3985 330.65 38.3985C330.989 38.3985 331.347 38.3419 331.724 38.2288C332.101 38.1157 332.535 37.8518 333.025 37.4371C333.515 37.0224 334.024 36.3626 334.552 35.4578C335.08 34.553 335.551 33.4408 335.966 32.1212C336.079 31.6688 336.173 31.4049 336.249 31.3295C336.324 31.2541 336.644 31.2164 337.21 31.2164C337.964 31.2164 338.341 31.4049 338.341 31.7819C338.341 32.0835 338.171 32.6679 337.832 33.535C337.493 34.4021 337.021 35.3635 336.418 36.4192C335.815 37.4748 334.967 38.4173 333.873 39.2467C332.78 40.0761 331.611 40.4909 330.367 40.4909C329.161 40.4909 328.049 40.095 327.031 39.3033C326.013 38.5116 325.485 37.3051 325.447 35.684C325.447 35.0431 325.541 34.4399 325.73 33.8743C325.918 33.3088 326.729 31.1599 328.162 27.4275C329.594 23.6197 330.424 21.3388 330.65 20.5847C330.876 19.8307 331.008 19.0955 331.046 18.3792C331.046 17.4744 330.725 17.022 330.084 17.022H329.971C328.84 17.022 327.803 17.6441 326.861 18.8882C325.918 20.1323 325.202 21.7158 324.712 23.6385C324.674 23.6762 324.637 23.7328 324.599 23.8082C324.561 23.8836 324.542 23.9401 324.542 23.9778C324.542 24.0155 324.505 24.0532 324.429 24.0909C324.354 24.1286 324.297 24.1475 324.26 24.1475C324.222 24.1475 324.146 24.1475 324.033 24.1475C323.92 24.1475 323.769 24.1475 323.581 24.1475H322.789C322.563 23.9213 322.45 23.7516 322.45 23.6385Z" fill="#6C6EFF"/>
<path d="M352.14 40.4909C349.312 40.4909 347.031 39.5672 345.297 37.7198C343.563 35.8725 342.695 33.6481 342.695 31.0468C342.695 28.5962 343.261 26.2776 344.392 24.0909C345.523 21.9043 347.069 20.0004 349.029 18.3792C351.894 16.0795 354.816 14.9296 357.795 14.9296C359.001 14.9296 359.755 14.9484 360.057 14.9861C360.547 15.0992 361.037 15.2312 361.527 15.382C362.017 15.5328 362.677 15.8344 363.506 16.2868C364.336 16.7392 365.014 17.3048 365.542 17.9834C366.07 18.662 366.56 19.5857 367.013 20.7544C367.465 21.9231 367.691 23.2427 367.691 24.713C367.691 28.747 366.07 32.3851 362.828 35.6274C359.585 38.8697 356.023 40.4909 352.14 40.4909ZM347.615 33.0826C347.615 34.9677 348.105 36.3249 349.086 37.1543C350.066 37.9837 351.178 38.3985 352.422 38.3985C354.081 38.3985 355.646 37.7952 357.116 36.5888C358.586 35.3824 359.755 33.7989 360.622 31.8385C360.962 31.0468 361.395 29.6518 361.923 27.6537C362.451 25.6555 362.715 23.9213 362.715 22.4509C362.715 20.7921 362.375 19.5291 361.697 18.662C360.792 17.531 359.585 16.9654 358.077 16.9654C355.702 16.9654 353.61 18.0588 351.8 20.2454C350.405 21.9043 349.368 24.1098 348.69 26.862C348.011 29.6141 347.653 31.6877 347.615 33.0826Z" fill="#6C6EFF"/>
<path d="M369.388 23.6385C369.425 23.4123 369.482 23.1107 369.557 22.7337C369.633 22.3567 369.859 21.6404 370.236 20.5847C370.613 19.5291 370.99 18.6431 371.367 17.9268C371.744 17.2105 372.366 16.513 373.233 15.8344C374.1 15.1558 374.967 14.8353 375.835 14.873C377.192 14.873 378.323 15.2123 379.228 15.891C380.132 16.5696 380.698 17.2105 380.924 17.8137C381.15 18.4169 381.264 18.8128 381.264 19.0013C381.264 19.0767 381.282 19.1144 381.32 19.1144L381.942 18.4923C384.242 16.0795 386.862 14.873 389.803 14.873C391.839 14.873 393.479 15.382 394.723 16.3999C395.967 17.4179 396.608 18.907 396.646 20.8675C396.683 22.8279 395.967 25.7875 394.497 29.7461C393.026 33.7047 392.31 36.0987 392.348 36.9281C392.348 37.9083 392.668 38.3985 393.309 38.3985C393.535 38.3985 393.705 38.3796 393.818 38.3419C394.911 38.1534 395.891 37.4371 396.759 36.1929C397.626 34.9488 398.286 33.4408 398.738 31.6688C398.813 31.3672 399.19 31.2164 399.869 31.2164C400.623 31.2164 401 31.3672 401 31.6688C401 31.7065 400.925 31.9893 400.774 32.5171C400.472 33.6104 400.057 34.6849 399.53 35.7405C399.002 36.7962 398.135 37.8518 396.928 38.9074C395.722 39.963 394.421 40.472 393.026 40.4343C391.254 40.4343 389.972 39.9253 389.181 38.9074C388.389 37.8895 387.993 36.8339 387.993 35.7405C387.993 35.0242 388.672 32.7622 390.029 28.9544C391.386 25.1466 392.084 22.2813 392.121 20.3585C392.121 18.1342 391.292 17.022 389.633 17.022H389.35C386.108 17.022 383.375 18.9259 381.15 22.7337L380.755 23.4123L378.888 30.9902C377.644 35.929 376.928 38.587 376.739 38.964C376.249 39.9819 375.439 40.4909 374.308 40.4909C373.818 40.4909 373.422 40.3778 373.12 40.1516C372.818 39.9253 372.611 39.6991 372.498 39.4729C372.385 39.2467 372.347 39.0582 372.385 38.9074C372.385 38.4173 373.101 35.3447 374.534 29.6895C375.967 24.0344 376.721 20.9617 376.796 20.4716C376.834 20.2831 376.852 19.8496 376.852 19.171C376.852 17.7006 376.4 16.9654 375.495 16.9654C374.063 16.9654 372.875 18.8505 371.933 22.6206C371.706 23.3746 371.593 23.7705 371.593 23.8082C371.518 24.0344 371.16 24.1475 370.519 24.1475H369.727C369.501 23.9213 369.388 23.7516 369.388 23.6385Z" fill="#6C6EFF"/>
<path d="M15.4772 331.512C17.7015 331.512 19.7374 330.531 21.5847 328.571C23.4321 326.61 24.3746 324.33 24.4123 321.728C24.4123 319.353 23.4321 317.713 21.4716 316.808C17.4753 315.79 14.9117 315.093 13.7806 314.716C12.6496 314.339 11.8579 313.962 11.4055 313.585C9.14341 312.001 8.01238 309.72 8.01238 306.742C8.01238 304.442 8.6156 302.35 9.82203 300.465C11.0285 298.58 12.2537 297.166 13.4979 296.223C14.5912 295.281 15.9107 294.527 17.4565 293.961C19.0022 293.396 20.2087 293.094 21.0758 293.057H21.6978H22.0937C25.713 293.057 28.3332 294.263 29.9544 296.676C29.9921 296.676 30.2371 296.431 30.6895 295.941C31.1419 295.451 31.6321 294.904 32.1599 294.301C32.6877 293.697 33.0647 293.283 33.2909 293.057C33.3286 293.057 33.404 293.057 33.5171 293.057C33.6302 293.057 33.7245 293.038 33.7999 293C34.29 293 34.535 293.132 34.535 293.396C34.535 293.66 34.0072 295.941 32.9516 300.239C31.896 304.537 31.2927 306.761 31.1419 306.912C30.9911 307.062 30.6895 307.119 30.2371 307.081C29.4831 307.081 29.1061 306.912 29.1061 306.572C29.1061 306.346 29.1249 306.158 29.1626 306.007C29.1626 305.894 29.1815 305.536 29.2192 304.932C29.2569 304.329 29.2946 303.839 29.3323 303.462C29.3323 302.18 29.1626 301.068 28.8233 300.125C28.484 299.183 28.1447 298.485 27.8054 298.033C27.4661 297.581 26.9948 297.109 26.3916 296.619C25.0344 295.828 23.4886 295.432 21.7544 295.432C19.6054 295.432 17.6073 296.299 15.7599 298.033C13.9126 299.767 12.9701 301.765 12.9324 304.028C12.9324 305.159 13.2151 306.139 13.7806 306.968C14.3462 307.798 15.119 308.382 16.0992 308.721C16.2501 308.797 17.5696 309.155 20.0579 309.796C22.5461 310.437 23.8091 310.776 23.8468 310.814C25.1286 311.228 26.3728 312.133 27.5792 313.528C28.7856 314.923 29.3888 316.808 29.3888 319.183C29.3888 320.164 29.238 321.219 28.9364 322.35C28.7479 323.18 28.4086 324.103 27.9185 325.121C27.4284 326.139 26.7498 327.251 25.8827 328.458C25.0155 329.664 23.7714 330.795 22.1503 331.851C20.5291 332.906 18.7572 333.623 16.8344 334C16.382 334.075 15.7411 334.113 14.9117 334.113C11.1793 334.113 8.27629 333.076 6.20274 331.003L5.63722 330.381L4.05378 332.134C3.18666 333.152 2.65884 333.736 2.47034 333.887C2.28183 334.038 2.03678 334.113 1.73517 334.113C1.24506 334.113 1 333.962 1 333.661C1 333.547 2.09333 329.118 4.27999 320.371C4.35539 320.145 4.7324 320.032 5.41102 320.032H6.14619C6.37239 320.258 6.48549 320.465 6.48549 320.654C6.48549 320.729 6.46664 320.899 6.42894 321.163C6.39124 321.427 6.31584 321.822 6.20274 322.35C6.08963 322.878 6.05193 323.5 6.08963 324.216C6.16504 325.687 6.50434 326.931 7.10756 327.949C7.71078 328.967 8.52135 329.721 9.53927 330.211C10.5572 330.701 11.5374 331.04 12.48 331.229C13.4225 331.417 14.4216 331.512 15.4772 331.512Z" fill="#EF224B"/>
<path d="M36.4012 323.99C36.4012 320.182 37.8339 316.563 40.6991 313.132C43.5644 309.702 46.7879 307.967 50.3694 307.93C52.2922 307.93 53.9887 308.853 55.4591 310.701C56.0623 309.57 56.9294 309.004 58.0604 309.004C58.5506 309.004 58.9841 309.155 59.3611 309.456C59.7381 309.758 59.9266 310.135 59.9266 310.588C59.9266 311.078 59.2292 314.094 57.8342 319.636C56.4393 325.178 55.723 328.307 55.6853 329.023C55.6853 329.966 55.8172 330.588 56.0811 330.889C56.3451 331.191 56.7409 331.361 57.2687 331.398C57.608 331.361 57.985 331.191 58.3998 330.889C59.1915 330.135 59.9643 328.326 60.7184 325.461C60.9446 324.707 61.1331 324.311 61.2839 324.273C61.3593 324.235 61.5478 324.216 61.8494 324.216H62.0756C62.7919 324.216 63.1501 324.386 63.1501 324.725C63.1501 324.952 63.0558 325.461 62.8673 326.252C62.6788 327.044 62.3018 328.062 61.7363 329.306C61.1708 330.55 60.5676 331.493 59.9266 332.134C59.4365 332.624 58.8333 333.02 58.117 333.321C57.8154 333.397 57.363 333.434 56.7598 333.434C55.4779 333.434 54.4035 333.152 53.5363 332.586C52.6692 332.021 52.1037 331.436 51.8398 330.833L51.5005 329.985C51.4628 329.947 51.3874 329.966 51.2743 330.041C51.1989 330.117 51.1235 330.192 51.0481 330.267C48.8237 332.379 46.5616 333.434 44.2619 333.434C42.1883 333.434 40.3598 332.68 38.7764 331.172C37.193 329.664 36.4012 327.27 36.4012 323.99ZM54.3846 314.32C54.3846 314.094 54.2903 313.679 54.1018 313.076C53.9133 312.473 53.4798 311.813 52.8012 311.096C52.1225 310.38 51.2554 310.003 50.1998 309.965C48.8803 309.965 47.6173 310.55 46.4108 311.719C45.2044 312.887 44.2619 314.414 43.5833 316.299C42.4899 319.278 41.7171 322.369 41.2647 325.574C41.2647 325.687 41.2647 325.894 41.2647 326.196C41.2647 326.497 41.2458 326.724 41.2081 326.874C41.2081 328.571 41.5474 329.74 42.226 330.381C42.9046 331.021 43.7152 331.361 44.6577 331.398C46.0904 331.398 47.5042 330.776 48.8991 329.532C50.294 328.288 51.1235 327.327 51.3874 326.648C51.4628 326.497 51.9717 324.48 52.9143 320.597C53.8568 316.714 54.3469 314.622 54.3846 314.32Z" fill="#EF224B"/>
<path d="M65.6383 316.639C65.676 316.412 65.7326 316.111 65.808 315.734C65.8834 315.357 66.1096 314.64 66.4866 313.585C66.8636 312.529 67.2406 311.643 67.6176 310.927C67.9946 310.21 68.5979 309.513 69.4273 308.834C70.2567 308.156 71.0861 307.835 71.9156 307.873C72.745 307.911 73.5555 308.043 74.3473 308.269C75.139 308.495 75.7045 308.834 76.0438 309.287C76.3831 309.739 76.6847 310.154 76.9486 310.531C77.2125 310.908 77.3633 311.266 77.401 311.605L77.5141 312.001C77.5141 312.077 77.533 312.114 77.5707 312.114L78.1928 311.492C80.4548 309.079 83.1127 307.873 86.1665 307.873C86.8074 307.873 87.3918 307.911 87.9196 307.986C88.4474 308.062 88.9375 308.193 89.39 308.382C89.8424 308.571 90.2005 308.759 90.4644 308.948C90.7283 309.136 91.0111 309.362 91.3127 309.626C91.6143 309.89 91.8028 310.135 91.8782 310.361C91.9536 310.588 92.1044 310.833 92.3306 311.096C92.5568 311.36 92.6322 311.587 92.5568 311.775C92.4814 311.964 92.538 312.133 92.7265 312.284C92.915 312.435 92.9527 312.567 92.8396 312.68L93.292 312.114C95.6672 309.287 98.4759 307.873 101.718 307.873C103.754 307.873 105.394 308.382 106.638 309.4C107.882 310.418 108.523 311.907 108.561 313.867C108.561 315.79 107.845 318.769 106.412 322.803C104.979 326.837 104.263 329.249 104.263 330.041C104.301 330.569 104.395 330.927 104.546 331.116C104.697 331.304 104.979 331.398 105.394 331.398C106.45 331.398 107.43 330.833 108.335 329.702C109.24 328.571 109.975 327.025 110.54 325.065C110.653 324.65 110.766 324.405 110.88 324.33C110.993 324.254 111.294 324.216 111.784 324.216C112.538 324.216 112.915 324.367 112.915 324.669C112.915 324.707 112.84 324.989 112.689 325.517C112.388 326.61 111.973 327.685 111.445 328.741C110.917 329.796 110.05 330.852 108.844 331.907C107.637 332.963 106.337 333.472 104.942 333.434C103.17 333.434 101.888 332.925 101.096 331.907C100.304 330.889 99.9085 329.834 99.9085 328.741C99.9085 328.024 100.587 325.762 101.944 321.954C103.302 318.147 103.999 315.281 104.037 313.359C104.037 311.134 103.207 310.022 101.549 310.022H101.266C98.0235 310.022 95.2902 311.926 93.0658 315.734L92.6699 316.412L90.8037 323.99C89.5596 328.929 88.8433 331.587 88.6548 331.964C88.1647 332.982 87.3541 333.491 86.2231 333.491C85.733 333.491 85.3371 333.359 85.0355 333.095C84.7339 332.831 84.5265 332.605 84.4134 332.416C84.3003 332.228 84.2438 332.039 84.2438 331.851C84.2438 331.436 84.8847 328.741 86.1665 323.764L88.2024 315.507C88.3155 314.942 88.372 314.226 88.372 313.359C88.372 311.134 87.5426 310.022 85.8838 310.022H85.601C82.3587 310.022 79.6254 311.926 77.401 315.734L77.0052 316.412L75.139 323.99C73.8949 328.929 73.1785 331.587 72.99 331.964C72.4999 332.982 71.6893 333.491 70.5583 333.491C70.0682 333.491 69.6723 333.378 69.3707 333.152C69.0691 332.925 68.8618 332.699 68.7487 332.473C68.6356 332.247 68.5979 332.058 68.6356 331.907C68.6356 331.417 69.3519 328.326 70.7845 322.633C72.2549 316.827 72.99 313.792 72.99 313.528C73.1031 312.963 73.1597 312.454 73.1597 312.001C73.1597 310.644 72.6884 309.965 71.7459 309.965C70.9165 309.965 70.219 310.493 69.6535 311.549C69.088 312.605 68.6544 313.754 68.3528 314.999C68.0512 316.243 67.825 316.921 67.6742 317.034C67.5988 317.11 67.2972 317.147 66.7694 317.147H65.9776C65.7514 316.921 65.6383 316.752 65.6383 316.639Z" fill="#EF224B"/>
<path d="M116.308 323.368C116.308 321.219 116.667 319.259 117.383 317.487C118.099 315.715 119.023 314.245 120.154 313.076C121.285 311.907 122.548 310.927 123.943 310.135C125.338 309.343 126.657 308.759 127.902 308.382C129.146 308.005 130.333 307.835 131.464 307.873H131.634C133.33 307.873 134.801 308.288 136.045 309.117C137.289 309.947 137.911 311.172 137.911 312.793C137.911 316.186 135.819 318.41 131.634 319.466C129.787 319.956 127.261 320.22 124.056 320.258C122.661 320.258 121.945 320.296 121.907 320.371C121.907 320.446 121.794 321.106 121.568 322.35C121.342 323.594 121.21 324.688 121.172 325.63C121.172 327.402 121.568 328.797 122.359 329.815C123.151 330.833 124.339 331.361 125.922 331.398C127.506 331.436 129.259 331.078 131.182 330.324C133.104 329.57 134.839 328.326 136.384 326.592C136.724 326.215 136.95 326.026 137.063 326.026C137.214 326.026 137.459 326.196 137.798 326.535C138.137 326.874 138.326 327.138 138.364 327.327C138.401 327.515 138.232 327.817 137.855 328.232C137.478 328.646 136.912 329.155 136.158 329.758C135.404 330.362 134.537 330.946 133.557 331.512C132.576 332.077 131.389 332.548 129.994 332.925C128.599 333.302 127.166 333.491 125.696 333.491C122.718 333.491 120.418 332.492 118.797 330.494C117.176 328.495 116.346 326.12 116.308 323.368ZM135.197 312.906C134.97 310.946 133.689 309.965 131.351 309.965C130.107 309.965 128.957 310.229 127.902 310.757C126.846 311.285 125.998 311.926 125.357 312.68C124.716 313.434 124.169 314.207 123.717 314.999C123.264 315.79 122.963 316.469 122.812 317.034C122.661 317.6 122.567 317.958 122.529 318.109C122.529 318.147 122.906 318.165 123.66 318.165C127.92 318.165 130.899 317.713 132.595 316.808C134.292 315.903 135.159 314.603 135.197 312.906Z" fill="#EF224B"/>
<path d="M174.398 297.354C174.398 297.091 173.324 296.921 171.175 296.846C170.308 296.846 169.742 296.827 169.478 296.789C169.214 296.751 169.082 296.582 169.082 296.28C169.082 295.978 169.158 295.601 169.309 295.149C169.459 294.697 169.591 294.414 169.704 294.301C169.78 294.263 173.531 294.244 180.958 294.244C187.254 294.282 190.779 294.301 191.533 294.301C192.287 294.301 193.041 294.414 193.795 294.64C196.51 295.281 198.81 296.77 200.695 299.108C202.58 301.445 203.541 304.574 203.579 308.495C203.579 314.376 201.562 319.655 197.528 324.33C193.494 329.004 188.743 331.794 183.277 332.699L182.485 332.812L171.514 332.869H165.237H162.24C161.335 332.869 160.75 332.831 160.486 332.756C160.223 332.68 160.072 332.511 160.034 332.247C160.034 332.171 160.091 331.907 160.204 331.455C160.355 330.852 160.505 330.512 160.656 330.437C160.807 330.362 161.241 330.305 161.957 330.267C162.975 330.267 164.106 330.211 165.35 330.098C165.878 329.985 166.236 329.758 166.424 329.419C166.537 329.268 167.895 324.028 170.496 313.698C173.097 303.368 174.398 297.92 174.398 297.354ZM197.924 306.346C197.924 304.914 197.716 303.632 197.301 302.501C196.887 301.37 196.397 300.484 195.831 299.843C195.266 299.202 194.568 298.655 193.739 298.203C192.909 297.75 192.174 297.449 191.533 297.298C190.892 297.147 190.233 297.015 189.554 296.902C189.479 296.902 189.215 296.902 188.762 296.902C188.31 296.902 187.763 296.902 187.122 296.902C186.481 296.902 185.859 296.883 185.256 296.846H182.824C181.165 296.846 180.223 297.034 179.997 297.411C179.921 297.562 178.545 302.991 175.868 313.698C173.192 324.405 171.853 329.815 171.853 329.928C171.853 330.079 172.061 330.154 172.475 330.154C172.89 330.154 174.342 330.173 176.83 330.211C177.018 330.211 177.377 330.211 177.904 330.211C178.432 330.211 178.885 330.23 179.262 330.267C184.012 330.267 187.933 328.722 191.024 325.63C192.382 324.273 193.494 322.69 194.361 320.88C195.228 319.07 196.039 316.676 196.793 313.698C197.547 310.719 197.924 308.269 197.924 306.346Z" fill="#EF224B"/>
<path d="M215.398 298.938C215.398 298.033 215.756 297.241 216.472 296.563C217.189 295.884 218.018 295.526 218.961 295.488C219.639 295.488 220.205 295.714 220.657 296.167C221.11 296.619 221.355 297.185 221.392 297.863C221.392 298.731 221.015 299.522 220.261 300.239C219.507 300.955 218.678 301.332 217.773 301.37C217.208 301.37 216.68 301.181 216.19 300.804C215.7 300.427 215.436 299.805 215.398 298.938ZM206.18 316.639C206.18 316.337 206.35 315.753 206.689 314.885C207.028 314.018 207.481 313.057 208.046 312.001C208.612 310.946 209.441 309.984 210.535 309.117C211.628 308.25 212.759 307.835 213.928 307.873C215.398 307.873 216.623 308.307 217.603 309.174C218.584 310.041 219.093 311.21 219.13 312.68C219.13 313.321 218.866 314.376 218.339 315.847C217.811 317.317 217.057 319.296 216.077 321.785C215.096 324.273 214.305 326.403 213.701 328.175C213.513 329.004 213.419 329.608 213.419 329.985C213.419 330.927 213.739 331.398 214.38 331.398C214.719 331.398 215.078 331.342 215.455 331.229C215.832 331.116 216.265 330.852 216.755 330.437C217.245 330.022 217.754 329.363 218.282 328.458C218.81 327.553 219.281 326.441 219.696 325.121C219.809 324.669 219.903 324.405 219.979 324.33C220.054 324.254 220.375 324.216 220.94 324.216C221.694 324.216 222.071 324.405 222.071 324.782C222.071 325.084 221.901 325.668 221.562 326.535C221.223 327.402 220.752 328.364 220.148 329.419C219.545 330.475 218.697 331.417 217.603 332.247C216.51 333.076 215.341 333.491 214.097 333.491C212.891 333.491 211.779 333.095 210.761 332.303C209.743 331.512 209.215 330.305 209.177 328.684C209.177 328.043 209.272 327.44 209.46 326.874C209.649 326.309 210.459 324.16 211.892 320.427C213.324 316.62 214.154 314.339 214.38 313.585C214.606 312.831 214.738 312.096 214.776 311.379C214.776 310.474 214.455 310.022 213.815 310.022H213.701C212.57 310.022 211.534 310.644 210.591 311.888C209.649 313.132 208.932 314.716 208.442 316.639C208.404 316.676 208.367 316.733 208.329 316.808C208.291 316.884 208.273 316.94 208.273 316.978C208.273 317.016 208.235 317.053 208.159 317.091C208.084 317.129 208.027 317.147 207.99 317.147C207.952 317.147 207.877 317.147 207.764 317.147C207.65 317.147 207.5 317.147 207.311 317.147H206.519C206.293 316.921 206.18 316.752 206.18 316.639Z" fill="#EF224B"/>
<path d="M225.69 316.639C225.728 316.525 225.766 316.375 225.803 316.186C225.841 315.998 225.935 315.583 226.086 314.942C226.237 314.301 226.426 313.717 226.652 313.189C226.878 312.661 227.161 312.039 227.5 311.323C227.839 310.606 228.216 310.041 228.631 309.626C229.046 309.211 229.536 308.797 230.101 308.382C230.667 307.967 231.289 307.798 231.968 307.873C233.061 307.873 234.022 308.099 234.852 308.552C235.681 309.004 236.265 309.419 236.605 309.796C236.944 310.173 237.151 310.55 237.227 310.927C237.302 311.153 237.359 311.266 237.397 311.266C237.434 311.266 237.585 311.134 237.849 310.87C239.659 308.91 241.751 307.93 244.126 307.93H244.296C246.105 307.93 247.463 308.702 248.367 310.248C248.669 310.965 248.82 311.662 248.82 312.341C248.82 313.472 248.575 314.376 248.085 315.055C247.595 315.734 247.105 316.167 246.614 316.356C246.124 316.544 245.653 316.62 245.201 316.582C244.447 316.582 243.843 316.375 243.391 315.96C242.939 315.545 242.712 314.999 242.712 314.32C242.712 312.51 243.768 311.304 245.879 310.701C245.05 310.21 244.371 309.965 243.843 309.965C241.732 309.965 239.791 311.36 238.019 314.15C237.642 314.753 237.359 315.376 237.17 316.016C236.982 316.657 236.341 319.164 235.248 323.538C233.966 328.816 233.231 331.625 233.042 331.964C232.552 332.982 231.741 333.491 230.61 333.491C230.12 333.491 229.724 333.378 229.423 333.152C229.121 332.925 228.914 332.699 228.801 332.473C228.688 332.247 228.65 332.058 228.688 331.907C228.688 331.417 229.442 328.175 230.95 322.181C232.458 316.186 233.212 312.85 233.212 312.171C233.212 310.701 232.722 309.965 231.741 309.965C230.95 309.965 230.271 310.493 229.706 311.549C229.14 312.605 228.688 313.754 228.348 314.999C228.009 316.243 227.802 316.921 227.726 317.034C227.651 317.11 227.349 317.147 226.821 317.147H226.03C225.803 316.921 225.69 316.752 225.69 316.639Z" fill="#EF224B"/>
<path d="M252.213 323.368C252.213 321.219 252.571 319.259 253.287 317.487C254.004 315.715 254.927 314.245 256.059 313.076C257.19 311.907 258.453 310.927 259.847 310.135C261.242 309.343 262.562 308.759 263.806 308.382C265.05 308.005 266.238 307.835 267.369 307.873H267.538C269.235 307.873 270.705 308.288 271.949 309.117C273.194 309.947 273.816 311.172 273.816 312.793C273.816 316.186 271.723 318.41 267.538 319.466C265.691 319.956 263.165 320.22 259.961 320.258C258.566 320.258 257.849 320.296 257.812 320.371C257.812 320.446 257.699 321.106 257.472 322.35C257.246 323.594 257.114 324.688 257.076 325.63C257.076 327.402 257.472 328.797 258.264 329.815C259.056 330.833 260.243 331.361 261.827 331.398C263.41 331.436 265.163 331.078 267.086 330.324C269.009 329.57 270.743 328.326 272.289 326.592C272.628 326.215 272.854 326.026 272.967 326.026C273.118 326.026 273.363 326.196 273.703 326.535C274.042 326.874 274.23 327.138 274.268 327.327C274.306 327.515 274.136 327.817 273.759 328.232C273.382 328.646 272.817 329.155 272.063 329.758C271.309 330.362 270.441 330.946 269.461 331.512C268.481 332.077 267.293 332.548 265.898 332.925C264.504 333.302 263.071 333.491 261.601 333.491C258.622 333.491 256.322 332.492 254.701 330.494C253.08 328.495 252.251 326.12 252.213 323.368ZM271.101 312.906C270.875 310.946 269.593 309.965 267.256 309.965C266.012 309.965 264.862 310.229 263.806 310.757C262.75 311.285 261.902 311.926 261.261 312.68C260.62 313.434 260.074 314.207 259.621 314.999C259.169 315.79 258.867 316.469 258.716 317.034C258.566 317.6 258.471 317.958 258.434 318.109C258.434 318.147 258.811 318.165 259.565 318.165C263.825 318.165 266.803 317.713 268.5 316.808C270.196 315.903 271.064 314.603 271.101 312.906Z" fill="#EF224B"/>
<path d="M278.283 323.877C278.283 319.768 279.904 316.073 283.147 312.793C286.389 309.513 289.895 307.873 293.665 307.873C295.777 307.873 297.435 308.325 298.642 309.23C299.848 310.135 300.47 311.323 300.508 312.793C300.508 313.886 300.15 314.81 299.434 315.564C298.717 316.318 297.812 316.714 296.719 316.752C296.003 316.752 295.437 316.563 295.023 316.186C294.608 315.809 294.4 315.244 294.4 314.49C294.4 313.736 294.608 313.095 295.023 312.567C295.437 312.039 295.852 311.643 296.267 311.379C296.681 311.115 296.945 311.002 297.058 311.04H297.115C297.115 310.965 297.002 310.851 296.776 310.701C296.549 310.55 296.154 310.399 295.588 310.248C295.023 310.097 294.382 310.022 293.665 310.022C292.534 310.022 291.46 310.286 290.442 310.814C289.65 311.153 288.84 311.737 288.01 312.567C286.351 314.226 285.145 316.563 284.391 319.579C283.637 322.595 283.241 324.782 283.203 326.139C283.203 327.873 283.693 329.174 284.674 330.041C285.503 330.946 286.596 331.398 287.954 331.398H288.18C292.402 331.398 295.89 329.796 298.642 326.592C298.981 326.215 299.207 326.026 299.32 326.026C299.471 326.026 299.716 326.196 300.056 326.535C300.395 326.874 300.583 327.138 300.621 327.327C300.659 327.515 300.489 327.798 300.112 328.175C299.735 328.552 299.188 329.08 298.472 329.758C297.756 330.437 296.908 331.003 295.927 331.455C294.947 331.907 293.741 332.379 292.308 332.869C290.875 333.359 289.367 333.566 287.784 333.491C284.956 333.491 282.675 332.586 280.941 330.776C279.207 328.967 278.321 326.667 278.283 323.877Z" fill="#EF224B"/>
<path d="M302.318 311.096C302.054 310.833 301.922 310.644 301.922 310.531C301.922 310.38 301.978 310.079 302.091 309.626C302.205 309.174 302.299 308.91 302.374 308.834C302.45 308.646 302.619 308.552 302.883 308.552C303.147 308.552 304.108 308.533 305.767 308.495H308.764L309.839 303.971C309.952 303.556 310.084 303.01 310.235 302.331C310.386 301.652 310.518 301.162 310.631 300.861C310.744 300.559 310.857 300.182 310.97 299.73C311.083 299.277 311.234 298.957 311.422 298.768C311.611 298.58 311.799 298.354 311.988 298.09C312.176 297.826 312.44 297.656 312.78 297.581C313.119 297.505 313.458 297.468 313.798 297.468C314.476 297.505 314.947 297.713 315.211 298.09C315.475 298.467 315.607 298.825 315.607 299.164C315.607 299.428 315.438 300.314 315.098 301.822C314.759 303.33 314.382 304.819 313.967 306.29L313.402 308.382C313.402 308.457 314.344 308.495 316.229 308.495H319.113C319.377 308.759 319.509 308.966 319.509 309.117C319.509 309.947 319.264 310.606 318.774 311.096H312.723L310.687 319.296C309.217 325.329 308.482 328.571 308.482 329.023C308.482 330.607 308.991 331.398 310.009 331.398C311.328 331.398 312.61 330.758 313.854 329.476C315.098 328.194 316.097 326.61 316.851 324.725C316.927 324.499 317.021 324.367 317.134 324.33C317.247 324.292 317.53 324.254 317.982 324.216H318.209C318.774 324.216 319.057 324.367 319.057 324.669C319.057 324.782 319 325.008 318.887 325.347C318.699 325.951 318.359 326.667 317.869 327.496C317.379 328.326 316.738 329.212 315.947 330.154C315.155 331.097 314.193 331.889 313.062 332.529C311.931 333.17 310.781 333.491 309.613 333.491C308.482 333.491 307.407 333.208 306.389 332.643C305.371 332.077 304.636 331.097 304.184 329.702C304.108 329.4 304.071 328.891 304.071 328.175V327.157L306.05 319.24C307.37 313.924 308.048 311.247 308.086 311.21C308.086 311.134 307.124 311.096 305.202 311.096H302.318Z" fill="#EF224B"/>
<path d="M331.668 298.938C331.668 298.033 332.026 297.241 332.742 296.563C333.459 295.884 334.288 295.526 335.231 295.488C335.909 295.488 336.475 295.714 336.927 296.167C337.38 296.619 337.625 297.185 337.662 297.863C337.662 298.731 337.285 299.522 336.531 300.239C335.777 300.955 334.948 301.332 334.043 301.37C333.477 301.37 332.95 301.181 332.46 300.804C331.969 300.427 331.706 299.805 331.668 298.938ZM322.45 316.639C322.45 316.337 322.62 315.753 322.959 314.885C323.298 314.018 323.751 313.057 324.316 312.001C324.882 310.946 325.711 309.984 326.804 309.117C327.898 308.25 329.029 307.835 330.198 307.873C331.668 307.873 332.893 308.307 333.873 309.174C334.854 310.041 335.363 311.21 335.4 312.68C335.4 313.321 335.136 314.376 334.609 315.847C334.081 317.317 333.327 319.296 332.346 321.785C331.366 324.273 330.575 326.403 329.971 328.175C329.783 329.004 329.689 329.608 329.689 329.985C329.689 330.927 330.009 331.398 330.65 331.398C330.989 331.398 331.347 331.342 331.724 331.229C332.101 331.116 332.535 330.852 333.025 330.437C333.515 330.022 334.024 329.363 334.552 328.458C335.08 327.553 335.551 326.441 335.966 325.121C336.079 324.669 336.173 324.405 336.249 324.33C336.324 324.254 336.644 324.216 337.21 324.216C337.964 324.216 338.341 324.405 338.341 324.782C338.341 325.084 338.171 325.668 337.832 326.535C337.493 327.402 337.021 328.364 336.418 329.419C335.815 330.475 334.967 331.417 333.873 332.247C332.78 333.076 331.611 333.491 330.367 333.491C329.161 333.491 328.049 333.095 327.031 332.303C326.013 331.512 325.485 330.305 325.447 328.684C325.447 328.043 325.541 327.44 325.73 326.874C325.918 326.309 326.729 324.16 328.162 320.427C329.594 316.62 330.424 314.339 330.65 313.585C330.876 312.831 331.008 312.096 331.046 311.379C331.046 310.474 330.725 310.022 330.084 310.022H329.971C328.84 310.022 327.803 310.644 326.861 311.888C325.918 313.132 325.202 314.716 324.712 316.639C324.674 316.676 324.637 316.733 324.599 316.808C324.561 316.884 324.542 316.94 324.542 316.978C324.542 317.016 324.505 317.053 324.429 317.091C324.354 317.129 324.297 317.147 324.26 317.147C324.222 317.147 324.146 317.147 324.033 317.147C323.92 317.147 323.769 317.147 323.581 317.147H322.789C322.563 316.921 322.45 316.752 322.45 316.639Z" fill="#EF224B"/>
<path d="M352.14 333.491C349.312 333.491 347.031 332.567 345.297 330.72C343.563 328.872 342.695 326.648 342.695 324.047C342.695 321.596 343.261 319.278 344.392 317.091C345.523 314.904 347.069 313 349.029 311.379C351.894 309.079 354.816 307.93 357.795 307.93C359.001 307.93 359.755 307.948 360.057 307.986C360.547 308.099 361.037 308.231 361.527 308.382C362.017 308.533 362.677 308.834 363.506 309.287C364.336 309.739 365.014 310.305 365.542 310.983C366.07 311.662 366.56 312.586 367.013 313.754C367.465 314.923 367.691 316.243 367.691 317.713C367.691 321.747 366.07 325.385 362.828 328.627C359.585 331.87 356.023 333.491 352.14 333.491ZM347.615 326.083C347.615 327.968 348.105 329.325 349.086 330.154C350.066 330.984 351.178 331.398 352.422 331.398C354.081 331.398 355.646 330.795 357.116 329.589C358.586 328.382 359.755 326.799 360.622 324.838C360.962 324.047 361.395 322.652 361.923 320.654C362.451 318.656 362.715 316.921 362.715 315.451C362.715 313.792 362.375 312.529 361.697 311.662C360.792 310.531 359.585 309.965 358.077 309.965C355.702 309.965 353.61 311.059 351.8 313.245C350.405 314.904 349.368 317.11 348.69 319.862C348.011 322.614 347.653 324.688 347.615 326.083Z" fill="#EF224B"/>
<path d="M369.388 316.639C369.425 316.412 369.482 316.111 369.557 315.734C369.633 315.357 369.859 314.64 370.236 313.585C370.613 312.529 370.99 311.643 371.367 310.927C371.744 310.21 372.366 309.513 373.233 308.834C374.1 308.156 374.967 307.835 375.835 307.873C377.192 307.873 378.323 308.212 379.228 308.891C380.132 309.57 380.698 310.21 380.924 310.814C381.15 311.417 381.264 311.813 381.264 312.001C381.264 312.077 381.282 312.114 381.32 312.114L381.942 311.492C384.242 309.079 386.862 307.873 389.803 307.873C391.839 307.873 393.479 308.382 394.723 309.4C395.967 310.418 396.608 311.907 396.646 313.867C396.683 315.828 395.967 318.787 394.497 322.746C393.026 326.705 392.31 329.099 392.348 329.928C392.348 330.908 392.668 331.398 393.309 331.398C393.535 331.398 393.705 331.38 393.818 331.342C394.911 331.153 395.891 330.437 396.759 329.193C397.626 327.949 398.286 326.441 398.738 324.669C398.813 324.367 399.19 324.216 399.869 324.216C400.623 324.216 401 324.367 401 324.669C401 324.707 400.925 324.989 400.774 325.517C400.472 326.61 400.057 327.685 399.53 328.741C399.002 329.796 398.135 330.852 396.928 331.907C395.722 332.963 394.421 333.472 393.026 333.434C391.254 333.434 389.972 332.925 389.181 331.907C388.389 330.889 387.993 329.834 387.993 328.741C387.993 328.024 388.672 325.762 390.029 321.954C391.386 318.147 392.084 315.281 392.121 313.359C392.121 311.134 391.292 310.022 389.633 310.022H389.35C386.108 310.022 383.375 311.926 381.15 315.734L380.755 316.412L378.888 323.99C377.644 328.929 376.928 331.587 376.739 331.964C376.249 332.982 375.439 333.491 374.308 333.491C373.818 333.491 373.422 333.378 373.12 333.152C372.818 332.925 372.611 332.699 372.498 332.473C372.385 332.247 372.347 332.058 372.385 331.907C372.385 331.417 373.101 328.345 374.534 322.69C375.967 317.034 376.721 313.962 376.796 313.472C376.834 313.283 376.852 312.85 376.852 312.171C376.852 310.701 376.4 309.965 375.495 309.965C374.063 309.965 372.875 311.85 371.933 315.621C371.706 316.375 371.593 316.77 371.593 316.808C371.518 317.034 371.16 317.147 370.519 317.147H369.727C369.501 316.921 369.388 316.752 369.388 316.639Z" fill="#EF224B"/>
</g>
<defs>
<clipPath id="clip0">
<rect width="405" height="335" fill="white"/>
</clipPath>
</defs>
</svg>
