<svg width="200" height="52" viewBox="0 0 200 52" fill="none" xmlns="http://www.w3.org/2000/svg">
<path d="M0.371564 15.7616C0.123855 15.7616 0 15.6887 0 15.543C0 15.5138 0.0218567 15.4118 0.0655702 15.237C0.123855 15.0039 0.182139 14.8727 0.240424 14.8436C0.298709 14.8144 0.466277 14.7926 0.743129 14.778C1.13655 14.778 1.57368 14.7561 2.05453 14.7124C2.25853 14.6687 2.39695 14.5813 2.46981 14.4501C2.49895 14.3773 3.01623 12.33 4.02164 8.30841C5.02705 4.28677 5.53704 2.24681 5.55161 2.18852C5.55161 2.08653 5.52247 2.03553 5.46418 2.03553C5.34761 1.99181 4.96148 1.95539 4.30578 1.92624H3.62822C3.54079 1.83882 3.49708 1.78053 3.49708 1.75139C3.49708 1.72225 3.51165 1.59839 3.54079 1.37982C3.59907 1.13212 3.67193 0.979118 3.75936 0.920833H15.5401C15.6421 0.979118 15.6931 1.05926 15.6931 1.16126C15.6931 1.23411 15.5984 2.0501 15.409 3.60921C15.2196 5.16832 15.1176 5.96974 15.103 6.01345C15.0739 6.11545 14.9281 6.16645 14.6659 6.16645H14.4036C14.3016 6.09359 14.2506 5.99888 14.2506 5.88231C14.2506 5.86774 14.2724 5.69289 14.3162 5.35775C14.3599 5.02261 14.3817 4.63648 14.3817 4.19934C14.3817 3.76221 14.3307 3.40521 14.2287 3.12836C14.1267 2.85151 13.9883 2.62566 13.8135 2.4508C13.6386 2.27595 13.369 2.15938 13.0048 2.1011C12.6405 2.04281 12.2689 1.99181 11.8901 1.9481C11.5112 1.90439 10.9866 1.8971 10.3164 1.92624H9.81367C8.61884 1.94081 7.98499 1.96267 7.91214 1.99181C7.83928 2.02096 7.78828 2.07924 7.75914 2.16667C7.74457 2.18124 7.49686 3.13565 7.01601 5.0299L6.31659 7.84942H7.51871C7.56243 7.84942 7.73 7.84942 8.02142 7.84942C8.31284 7.84942 8.51684 7.84213 8.63341 7.82756C8.74998 7.81299 8.91026 7.79113 9.11426 7.76199C9.31825 7.73285 9.49311 7.68185 9.63882 7.60899C9.78453 7.53614 9.90838 7.44871 10.0104 7.34671C10.1998 7.17186 10.3601 6.93143 10.4912 6.62544C10.6224 6.31945 10.7171 6.04259 10.7754 5.79488C10.8337 5.54717 10.8701 5.41603 10.8847 5.40146C10.9284 5.32861 11.0668 5.29218 11.2999 5.29218H11.5622C11.6642 5.36503 11.7152 5.43789 11.7152 5.51075C11.7152 5.55446 11.4894 6.50887 11.0376 8.37398C10.5859 10.2391 10.3382 11.2008 10.2945 11.2591C10.2654 11.3611 10.1197 11.4121 9.85738 11.4121H9.5951C9.49311 11.3246 9.44211 11.2372 9.44211 11.1498C9.44211 11.1061 9.47853 10.9458 9.55139 10.6689C9.62425 10.3921 9.66067 10.1007 9.66067 9.79467C9.66067 9.3721 9.51496 9.10982 9.22354 9.00782C8.93212 8.90583 8.2837 8.85483 7.27829 8.85483H6.07617L5.37676 11.6306C4.91048 13.4375 4.67734 14.3846 4.67734 14.472C4.67734 14.676 5.32576 14.778 6.62259 14.778H7.16901C7.25643 14.8654 7.30015 14.9164 7.30015 14.931C7.30015 14.9456 7.28558 15.0913 7.25643 15.3681C7.19815 15.5576 7.12529 15.696 7.03787 15.7834H6.6663C6.06889 15.7543 4.96876 15.7397 3.36594 15.7397C2.41881 15.7397 1.69754 15.7397 1.20212 15.7397C0.706701 15.7397 0.429849 15.747 0.371564 15.7616Z" fill="black"/>
<path d="M13.7008 14.627C13.7111 14.5652 13.7266 14.4828 13.7472 14.3797C13.7678 14.2767 13.8296 14.081 13.9326 13.7925C14.0356 13.5041 14.1387 13.262 14.2417 13.0663C14.3447 12.8705 14.5147 12.6799 14.7516 12.4945C14.9885 12.3091 15.2255 12.2215 15.4624 12.2318C15.8333 12.2318 16.1424 12.3245 16.3896 12.51C16.6368 12.6954 16.7914 12.8705 16.8532 13.0354C16.915 13.2002 16.9459 13.3084 16.9459 13.3599C16.9459 13.3805 16.951 13.3908 16.9613 13.3908L17.1313 13.2208C17.7597 12.5615 18.4757 12.2318 19.2793 12.2318C19.8355 12.2318 20.2837 12.3709 20.6236 12.649C20.9636 12.9272 21.1387 13.3341 21.149 13.8698C21.1593 14.4055 20.9636 15.2142 20.5618 16.2959C20.1601 17.3776 19.9643 18.0317 19.9746 18.2584C19.9746 18.5262 20.0622 18.6601 20.2373 18.6601C20.2991 18.6601 20.3455 18.655 20.3764 18.6447C20.6751 18.5932 20.943 18.3974 21.1799 18.0575C21.4169 17.7175 21.5972 17.3055 21.7208 16.8213C21.7414 16.7389 21.8444 16.6977 22.0298 16.6977C22.2359 16.6977 22.3389 16.7389 22.3389 16.8213C22.3389 16.8316 22.3183 16.9088 22.2771 17.0531C22.1947 17.3518 22.0813 17.6454 21.9371 17.9339C21.7929 18.2223 21.5559 18.5108 21.2263 18.7992C20.8966 19.0877 20.5412 19.2267 20.1601 19.2164C19.6759 19.2164 19.3256 19.0774 19.1093 18.7992C18.8929 18.5211 18.7848 18.2326 18.7848 17.9339C18.7848 17.7381 18.9702 17.12 19.3411 16.0795C19.7119 15.0391 19.9025 14.2561 19.9128 13.7307C19.9128 13.1229 19.6862 12.819 19.2329 12.819H19.1556C18.2697 12.819 17.5228 13.3393 16.915 14.3797L16.8068 14.5652L16.2969 16.6358C15.9569 17.9854 15.7612 18.7117 15.7097 18.8147C15.5758 19.0928 15.3543 19.2319 15.0452 19.2319C14.9113 19.2319 14.8031 19.201 14.7207 19.1392C14.6383 19.0774 14.5816 19.0156 14.5507 18.9537C14.5198 18.8919 14.5095 18.8404 14.5198 18.7992C14.5198 18.6653 14.7156 17.8257 15.107 16.2804C15.4985 14.7352 15.7045 13.8956 15.7251 13.7616C15.7354 13.7101 15.7406 13.5917 15.7406 13.4062C15.7406 13.0045 15.617 12.8036 15.3697 12.8036C14.9782 12.8036 14.6537 13.3187 14.3962 14.3488C14.3344 14.5549 14.3035 14.663 14.3035 14.6733C14.2829 14.7352 14.185 14.7661 14.0099 14.7661H13.7935C13.7317 14.7043 13.7008 14.6579 13.7008 14.627Z" fill="black"/>
<path d="M23.2506 16.4659C23.2506 15.8787 23.3485 15.343 23.5442 14.8588C23.7399 14.3746 23.9923 13.9728 24.3014 13.6535C24.6104 13.3341 24.9555 13.0663 25.3367 12.8499C25.7179 12.6336 26.0784 12.4739 26.4184 12.3709C26.7584 12.2679 27.0829 12.2215 27.3919 12.2318H27.4383C27.9019 12.2318 28.3036 12.3451 28.6436 12.5718C28.9836 12.7984 29.1535 13.1332 29.1535 13.5762C29.1535 14.5034 28.5818 15.1112 27.4383 15.3996C26.9335 15.5335 26.2433 15.6057 25.3676 15.616C24.9865 15.616 24.7907 15.6263 24.7804 15.6469C24.7804 15.6675 24.7495 15.8478 24.6877 16.1877C24.6259 16.5277 24.5898 16.8264 24.5795 17.084C24.5795 17.5682 24.6877 17.9493 24.904 18.2275C25.1204 18.5056 25.4449 18.6498 25.8776 18.6601C26.3102 18.6704 26.7893 18.5726 27.3147 18.3665C27.8401 18.1605 28.3139 17.8205 28.7363 17.3467C28.829 17.2436 28.8908 17.1921 28.9217 17.1921C28.9629 17.1921 29.0299 17.2385 29.1226 17.3312C29.2153 17.4239 29.2669 17.496 29.2772 17.5476C29.2875 17.5991 29.2411 17.6815 29.1381 17.7948C29.0351 17.9081 28.8805 18.0472 28.6745 18.212C28.4685 18.3768 28.2315 18.5365 27.9637 18.6911C27.6958 18.8456 27.3713 18.9744 26.9902 19.0774C26.609 19.1804 26.2175 19.2319 25.8157 19.2319C25.0019 19.2319 24.3735 18.9589 23.9305 18.4129C23.4875 17.8669 23.2609 17.2179 23.2506 16.4659ZM28.4118 13.6071C28.35 13.0714 27.9997 12.8036 27.361 12.8036C27.0211 12.8036 26.7069 12.8757 26.4184 13.0199C26.13 13.1641 25.8982 13.3393 25.723 13.5453C25.5479 13.7513 25.3985 13.9625 25.2749 14.1789C25.1513 14.3952 25.0689 14.5806 25.0277 14.7352C24.9865 14.8897 24.9607 14.9876 24.9504 15.0288C24.9504 15.0391 25.0534 15.0442 25.2594 15.0442C26.4236 15.0442 27.2374 14.9206 27.701 14.6733C28.1646 14.4261 28.4015 14.0707 28.4118 13.6071Z" fill="black"/>
<path d="M30.2507 13.1126C30.1786 13.0405 30.1425 12.989 30.1425 12.9581C30.1425 12.9169 30.158 12.8345 30.1889 12.7109C30.2198 12.5872 30.2455 12.5151 30.2661 12.4945C30.2867 12.443 30.3331 12.4173 30.4052 12.4173C30.4773 12.4173 30.74 12.4121 31.1933 12.4018H32.0123L32.3059 11.1656C32.3368 11.0523 32.3728 10.9029 32.4141 10.7175C32.4553 10.532 32.4913 10.3981 32.5222 10.3157C32.5531 10.2333 32.584 10.1303 32.6149 10.0066C32.6458 9.88301 32.6871 9.79544 32.7386 9.74393C32.7901 9.69242 32.8416 9.63061 32.8931 9.5585C32.9446 9.48639 33.0167 9.44003 33.1094 9.41943C33.2021 9.39882 33.2949 9.38852 33.3876 9.38852C33.573 9.39882 33.7018 9.45548 33.7739 9.5585C33.846 9.66152 33.8821 9.75939 33.8821 9.8521C33.8821 9.92421 33.8357 10.1663 33.743 10.5784C33.6503 10.9905 33.5473 11.3974 33.4339 11.7991L33.2794 12.3709C33.2794 12.3915 33.537 12.4018 34.052 12.4018H34.8401C34.9122 12.4739 34.9483 12.5306 34.9483 12.5718C34.9483 12.7984 34.8813 12.9787 34.7474 13.1126H33.094L32.5377 15.3533C32.1359 17.0016 31.935 17.8875 31.935 18.0111C31.935 18.4438 32.0741 18.6601 32.3522 18.6601C32.7128 18.6601 33.0631 18.485 33.403 18.1348C33.743 17.7845 34.016 17.3518 34.222 16.8367C34.2426 16.7749 34.2684 16.7389 34.2993 16.7286C34.3302 16.7183 34.4075 16.708 34.5311 16.6977H34.5929C34.7474 16.6977 34.8247 16.7389 34.8247 16.8213C34.8247 16.8522 34.8092 16.914 34.7783 17.0067C34.7268 17.1715 34.6341 17.3673 34.5002 17.5939C34.3662 17.8205 34.1911 18.0626 33.9748 18.3202C33.7584 18.5777 33.4957 18.7941 33.1867 18.9692C32.8776 19.1443 32.5634 19.2319 32.2441 19.2319C31.935 19.2319 31.6414 19.1546 31.3633 19.0001C31.0851 18.8456 30.8842 18.5777 30.7606 18.1966C30.74 18.1141 30.7297 17.9751 30.7297 17.7793V17.5012L31.2706 15.3378C31.6311 13.8853 31.8165 13.1538 31.8269 13.1435C31.8269 13.1229 31.5642 13.1126 31.0388 13.1126H30.2507Z" fill="black"/>
<path d="M35.9954 18.2225C36.0464 17.9166 36.2431 17.5633 36.5854 17.1627C36.9277 16.7622 37.3501 16.5582 37.8527 16.5509C38.1076 16.5509 38.3407 16.6165 38.5519 16.7476C38.7631 16.8787 38.9197 17.0426 39.0217 17.2392C39.3276 16.7804 39.6954 16.5509 40.1251 16.5509C40.3946 16.5509 40.6277 16.6311 40.8243 16.7913C41.021 16.9515 41.1229 17.1664 41.1302 17.4359C41.1302 17.6471 41.0792 17.8183 40.9773 17.9494C40.8753 18.0805 40.777 18.1606 40.6823 18.1897C40.5876 18.2188 40.5038 18.2334 40.431 18.2334C40.2926 18.2334 40.1797 18.1933 40.0923 18.1132C40.0049 18.0331 39.9612 17.9275 39.9612 17.7964C39.9612 17.4614 40.1433 17.2319 40.5075 17.1081C40.4274 17.0134 40.2817 16.9661 40.0705 16.9661C39.9758 16.9661 39.9066 16.9734 39.8629 16.9879C39.5861 17.1045 39.3822 17.3448 39.2511 17.709C38.8141 19.3186 38.5956 20.2582 38.5956 20.5277C38.5956 20.7316 38.6539 20.8773 38.7704 20.9647C38.8869 21.0521 39.0144 21.0958 39.1528 21.0958C39.4223 21.0958 39.6881 20.9756 39.9503 20.7352C40.2125 20.4949 40.391 20.1999 40.4856 19.8503C40.5075 19.7775 40.5293 19.7374 40.5512 19.7301C40.573 19.7229 40.6313 19.7156 40.726 19.7083H40.7697C40.8789 19.7083 40.9336 19.7374 40.9336 19.7957C40.9336 19.803 40.9263 19.843 40.9117 19.9159C40.7952 20.331 40.5694 20.6988 40.2344 21.0193C39.8993 21.3398 39.5097 21.5 39.0654 21.5C38.5555 21.5 38.1695 21.2706 37.9073 20.8117C37.6087 21.2633 37.2664 21.4891 36.8804 21.4891H36.8148C36.4579 21.4891 36.203 21.3944 36.0501 21.205C35.8971 21.0157 35.817 20.8154 35.8097 20.6041C35.8097 20.3711 35.8789 20.1817 36.0173 20.036C36.1557 19.8904 36.3195 19.8175 36.5089 19.8175C36.8221 19.8175 36.9787 19.9705 36.9787 20.2764C36.9787 20.4221 36.935 20.5495 36.8476 20.6588C36.7602 20.768 36.6764 20.8409 36.5963 20.8773C36.5162 20.9137 36.4689 20.9319 36.4543 20.9319L36.4215 20.9428C36.4215 20.9501 36.4434 20.9647 36.4871 20.9865C36.5308 21.0084 36.589 21.0339 36.6619 21.063C36.7347 21.0921 36.8039 21.1031 36.8694 21.0958C37.1316 21.0958 37.3574 20.9319 37.5468 20.6041C37.6123 20.4876 37.6961 20.24 37.7981 19.8612C37.9 19.4825 38.002 19.0892 38.104 18.6813C38.2059 18.2735 38.2642 18.0331 38.2788 17.9603C38.3152 17.7636 38.3334 17.6216 38.3334 17.5342C38.3334 17.3303 38.2788 17.1846 38.1695 17.0972C38.0603 17.0098 37.9365 16.9661 37.7981 16.9661C37.5067 16.9661 37.2336 17.0826 36.9787 17.3157C36.7238 17.5488 36.5453 17.8474 36.4434 18.2116C36.4288 18.2771 36.4106 18.3135 36.3887 18.3208C36.3669 18.3281 36.3086 18.3354 36.2139 18.3427H36.061C36.0173 18.299 35.9954 18.2589 35.9954 18.2225Z" fill="black"/>
<path d="M50.8431 8.19912C50.8431 8.0097 50.9451 7.86399 51.1491 7.76199H65.0719C65.2904 7.87856 65.3997 8.02427 65.3997 8.19912C65.3997 8.35941 65.2977 8.49783 65.0937 8.6144L58.1433 8.63626H51.1928C50.9597 8.5634 50.8431 8.41769 50.8431 8.19912ZM50.8431 12.4393C50.8431 12.2208 50.9597 12.0751 51.1928 12.0022H65.0937C65.2977 12.1479 65.3997 12.2936 65.3997 12.4393C65.3997 12.6288 65.2904 12.7745 65.0719 12.8765H51.1491C50.9451 12.7745 50.8431 12.6288 50.8431 12.4393Z" fill="black"/>
<path d="M73.7446 15.7616C73.4969 15.7616 73.373 15.6887 73.373 15.543C73.373 15.5138 73.3949 15.4118 73.4386 15.237C73.4969 15.0039 73.5552 14.8727 73.6135 14.8436C73.6718 14.8144 73.8393 14.7926 74.1162 14.778C74.5096 14.778 74.9467 14.7561 75.4276 14.7124C75.6316 14.6687 75.77 14.5813 75.8429 14.4501C75.872 14.3773 76.3893 12.33 77.3947 8.30841C78.4001 4.28677 78.9101 2.24681 78.9247 2.18852C78.9247 2.08653 78.8955 2.03553 78.8372 2.03553C78.7207 1.99181 78.3345 1.95539 77.6788 1.92624H77.0013C76.9138 1.83882 76.8701 1.78053 76.8701 1.75139C76.8701 1.72225 76.8847 1.59839 76.9138 1.37982C76.9721 1.13212 77.045 0.979118 77.1324 0.920833H88.9132C89.0152 0.979118 89.0662 1.05926 89.0662 1.16126C89.0662 1.23411 88.9715 2.0501 88.782 3.60921C88.5926 5.16832 88.4906 5.96974 88.476 6.01345C88.4469 6.11545 88.3012 6.16645 88.0389 6.16645H87.7766C87.6746 6.09359 87.6236 5.99888 87.6236 5.88231C87.6236 5.86774 87.6455 5.69289 87.6892 5.35775C87.7329 5.02261 87.7548 4.63648 87.7548 4.19934C87.7548 3.76221 87.7038 3.40521 87.6018 3.12836C87.4998 2.85151 87.3614 2.62566 87.1865 2.4508C87.0116 2.27595 86.7421 2.15938 86.3778 2.1011C86.0135 2.04281 85.642 1.99181 85.2631 1.9481C84.8843 1.90439 84.3597 1.8971 83.6894 1.92624H83.1867C81.9919 1.94081 81.358 1.96267 81.2852 1.99181C81.2123 2.02096 81.1613 2.07924 81.1322 2.16667C81.1176 2.18124 80.8699 3.13565 80.3891 5.0299L79.6896 7.84942H80.8918C80.9355 7.84942 81.103 7.84942 81.3945 7.84942C81.6859 7.84942 81.8899 7.84213 82.0065 7.82756C82.123 7.81299 82.2833 7.79113 82.4873 7.76199C82.6913 7.73285 82.8662 7.68185 83.0119 7.60899C83.1576 7.53614 83.2814 7.44871 83.3834 7.34671C83.5729 7.17186 83.7331 6.93143 83.8643 6.62544C83.9954 6.31945 84.0901 6.04259 84.1484 5.79488C84.2067 5.54717 84.2431 5.41603 84.2577 5.40146C84.3014 5.32861 84.4398 5.29218 84.673 5.29218H84.9353C85.0373 5.36503 85.0883 5.43789 85.0883 5.51075C85.0883 5.55446 84.8624 6.50887 84.4107 8.37398C83.959 10.2391 83.7113 11.2008 83.6676 11.2591C83.6384 11.3611 83.4927 11.4121 83.2304 11.4121H82.9682C82.8662 11.3246 82.8152 11.2372 82.8152 11.1498C82.8152 11.1061 82.8516 10.9458 82.9244 10.6689C82.9973 10.3921 83.0337 10.1007 83.0337 9.79467C83.0337 9.3721 82.888 9.10982 82.5966 9.00782C82.3052 8.90583 81.6567 8.85483 80.6513 8.85483H79.4492L78.7498 11.6306C78.2835 13.4375 78.0504 14.3846 78.0504 14.472C78.0504 14.676 78.6988 14.778 79.9956 14.778H80.5421C80.6295 14.8654 80.6732 14.9164 80.6732 14.931C80.6732 14.9456 80.6586 15.0913 80.6295 15.3681C80.5712 15.5576 80.4983 15.696 80.4109 15.7834H80.0393C79.4419 15.7543 78.3418 15.7397 76.739 15.7397C75.7919 15.7397 75.0706 15.7397 74.5752 15.7397C74.0797 15.7397 73.8029 15.747 73.7446 15.7616Z" fill="black"/>
<path d="M90.0408 10.1303L89.8399 10.2075C89.6957 10.259 89.4896 10.3105 89.2218 10.362C88.9539 10.4136 88.6552 10.4496 88.3255 10.4702H88.0319V9.75939H88.3255C88.8097 9.73879 89.2579 9.66152 89.6699 9.5276C90.082 9.39368 90.3704 9.27005 90.5353 9.15673C90.7001 9.04342 90.8443 8.9301 90.968 8.81678C90.9886 8.78587 91.0504 8.77042 91.1534 8.77042C91.2461 8.77042 91.3337 8.80132 91.4161 8.86313V13.4835L91.4315 18.1193C91.5036 18.1914 91.5655 18.2378 91.617 18.2584C91.6685 18.279 91.7921 18.2996 91.9878 18.3202C92.1836 18.3408 92.5029 18.3511 92.9459 18.3511H93.3477V19.0619H93.1777C92.9614 19.031 92.1424 19.0156 90.7207 19.0156C89.3197 19.0156 88.511 19.031 88.2946 19.0619H88.1092V18.3511H88.511C88.7376 18.3511 88.9333 18.3511 89.0982 18.3511C89.263 18.3511 89.3918 18.3459 89.4845 18.3356C89.5772 18.3253 89.6596 18.3099 89.7317 18.2893C89.8038 18.2687 89.8451 18.2584 89.8554 18.2584C89.8657 18.2584 89.8966 18.2326 89.9481 18.1811C89.9996 18.1296 90.0305 18.109 90.0408 18.1193V10.1303Z" fill="black"/>
<path d="M95.0438 18.2225C95.0948 17.9166 95.2915 17.5633 95.6338 17.1627C95.9761 16.7622 96.3985 16.5582 96.9011 16.5509C97.156 16.5509 97.3891 16.6165 97.6003 16.7476C97.8115 16.8787 97.9681 17.0426 98.0701 17.2392C98.376 16.7804 98.7438 16.5509 99.1735 16.5509C99.443 16.5509 99.6761 16.6311 99.8727 16.7913C100.069 16.9515 100.171 17.1664 100.179 17.4359C100.179 17.6471 100.128 17.8183 100.026 17.9494C99.9237 18.0805 99.8254 18.1606 99.7307 18.1897C99.636 18.2188 99.5522 18.2334 99.4794 18.2334C99.341 18.2334 99.2281 18.1933 99.1407 18.1132C99.0533 18.0331 99.0096 17.9275 99.0096 17.7964C99.0096 17.4614 99.1917 17.2319 99.5559 17.1081C99.4758 17.0134 99.3301 16.9661 99.1189 16.9661C99.0242 16.9661 98.955 16.9734 98.9113 16.9879C98.6345 17.1045 98.4306 17.3448 98.2995 17.709C97.8625 19.3186 97.644 20.2582 97.644 20.5277C97.644 20.7316 97.7023 20.8773 97.8188 20.9647C97.9353 21.0521 98.0628 21.0958 98.2012 21.0958C98.4707 21.0958 98.7365 20.9756 98.9987 20.7352C99.2609 20.4949 99.4393 20.1999 99.534 19.8503C99.5559 19.7775 99.5777 19.7374 99.5996 19.7301C99.6214 19.7229 99.6797 19.7156 99.7744 19.7083H99.8181C99.9273 19.7083 99.982 19.7374 99.982 19.7957C99.982 19.803 99.9747 19.843 99.9601 19.9159C99.8436 20.331 99.6178 20.6988 99.2828 21.0193C98.9477 21.3398 98.5581 21.5 98.1138 21.5C97.6039 21.5 97.2179 21.2706 96.9557 20.8117C96.6571 21.2633 96.3148 21.4891 95.9288 21.4891H95.8632C95.5063 21.4891 95.2514 21.3944 95.0985 21.205C94.9455 21.0157 94.8654 20.8154 94.8581 20.6041C94.8581 20.3711 94.9273 20.1817 95.0657 20.036C95.2041 19.8904 95.3679 19.8175 95.5573 19.8175C95.8705 19.8175 96.0271 19.9705 96.0271 20.2764C96.0271 20.4221 95.9834 20.5495 95.896 20.6588C95.8086 20.768 95.7248 20.8409 95.6447 20.8773C95.5646 20.9137 95.5172 20.9319 95.5027 20.9319L95.4699 20.9428C95.4699 20.9501 95.4918 20.9647 95.5355 20.9865C95.5792 21.0084 95.6374 21.0339 95.7103 21.063C95.7831 21.0921 95.8523 21.1031 95.9178 21.0958C96.18 21.0958 96.4058 20.9319 96.5952 20.6041C96.6607 20.4876 96.7445 20.24 96.8465 19.8612C96.9484 19.4825 97.0504 19.0892 97.1524 18.6813C97.2543 18.2735 97.3126 18.0331 97.3272 17.9603C97.3636 17.7636 97.3818 17.6216 97.3818 17.5342C97.3818 17.3303 97.3272 17.1846 97.2179 17.0972C97.1087 17.0098 96.9848 16.9661 96.8465 16.9661C96.5551 16.9661 96.282 17.0826 96.0271 17.3157C95.7722 17.5488 95.5937 17.8474 95.4918 18.2116C95.4772 18.2771 95.459 18.3135 95.4371 18.3208C95.4153 18.3281 95.357 18.3354 95.2623 18.3427H95.1094C95.0657 18.299 95.0438 18.2589 95.0438 18.2225Z" fill="black"/>
<path d="M108.674 10.6034C108.674 10.6034 108.674 10.5087 108.674 10.3192C108.674 10.1298 108.776 9.98409 108.98 9.88209H115.515V6.60358L115.537 3.32507C115.683 3.13565 115.821 3.04094 115.952 3.04094C116.142 3.04094 116.287 3.15022 116.389 3.36879V9.88209H122.903C123.121 9.99866 123.23 10.1444 123.23 10.3192C123.23 10.4941 123.121 10.6398 122.903 10.7564H116.389V17.2697C116.273 17.4737 116.142 17.5757 115.996 17.5757H115.952H115.908C115.734 17.5757 115.602 17.4737 115.515 17.2697V10.7564H108.98C108.776 10.6544 108.674 10.5087 108.674 10.3192V10.6034Z" fill="black"/>
<path d="M130.36 15.7616C130.112 15.7616 129.989 15.6887 129.989 15.543C129.989 15.5138 130.01 15.4118 130.054 15.237C130.112 15.0039 130.171 14.8727 130.229 14.8436C130.287 14.8144 130.455 14.7926 130.732 14.778C131.125 14.778 131.562 14.7561 132.043 14.7124C132.247 14.6687 132.385 14.5813 132.458 14.4501C132.487 14.3773 133.005 12.33 134.01 8.30841C135.016 4.28677 135.526 2.24681 135.54 2.18852C135.54 2.08653 135.511 2.03553 135.453 2.03553C135.336 1.99181 134.95 1.95539 134.294 1.92624H133.617C133.529 1.83882 133.486 1.78053 133.486 1.75139C133.486 1.72225 133.5 1.59839 133.529 1.37982C133.588 1.13212 133.66 0.979118 133.748 0.920833H145.529C145.631 0.979118 145.682 1.05926 145.682 1.16126C145.682 1.23411 145.587 2.0501 145.398 3.60921C145.208 5.16832 145.106 5.96974 145.092 6.01345C145.062 6.11545 144.917 6.16645 144.654 6.16645H144.392C144.29 6.09359 144.239 5.99888 144.239 5.88231C144.239 5.86774 144.261 5.69289 144.305 5.35775C144.348 5.02261 144.37 4.63648 144.37 4.19934C144.37 3.76221 144.319 3.40521 144.217 3.12836C144.115 2.85151 143.977 2.62566 143.802 2.4508C143.627 2.27595 143.358 2.15938 142.993 2.1011C142.629 2.04281 142.257 1.99181 141.879 1.9481C141.5 1.90439 140.975 1.8971 140.305 1.92624H139.802C138.607 1.94081 137.974 1.96267 137.901 1.99181C137.828 2.02096 137.777 2.07924 137.748 2.16667C137.733 2.18124 137.485 3.13565 137.005 5.0299L136.305 7.84942H137.507C137.551 7.84942 137.719 7.84942 138.01 7.84942C138.301 7.84942 138.505 7.84213 138.622 7.82756C138.738 7.81299 138.899 7.79113 139.103 7.76199C139.307 7.73285 139.482 7.68185 139.627 7.60899C139.773 7.53614 139.897 7.44871 139.999 7.34671C140.188 7.17186 140.349 6.93143 140.48 6.62544C140.611 6.31945 140.706 6.04259 140.764 5.79488C140.822 5.54717 140.859 5.41603 140.873 5.40146C140.917 5.32861 141.055 5.29218 141.288 5.29218H141.551C141.653 5.36503 141.704 5.43789 141.704 5.51075C141.704 5.55446 141.478 6.50887 141.026 8.37398C140.574 10.2391 140.327 11.2008 140.283 11.2591C140.254 11.3611 140.108 11.4121 139.846 11.4121H139.584C139.482 11.3246 139.431 11.2372 139.431 11.1498C139.431 11.1061 139.467 10.9458 139.54 10.6689C139.613 10.3921 139.649 10.1007 139.649 9.79467C139.649 9.3721 139.503 9.10982 139.212 9.00782C138.921 8.90583 138.272 8.85483 137.267 8.85483H136.065L135.365 11.6306C134.899 13.4375 134.666 14.3846 134.666 14.472C134.666 14.676 135.314 14.778 136.611 14.778H137.158C137.245 14.8654 137.289 14.9164 137.289 14.931C137.289 14.9456 137.274 15.0913 137.245 15.3681C137.187 15.5576 137.114 15.696 137.026 15.7834H136.655C136.057 15.7543 134.957 15.7397 133.354 15.7397C132.407 15.7397 131.686 15.7397 131.191 15.7397C130.695 15.7397 130.418 15.747 130.36 15.7616Z" fill="black"/>
<path d="M145.049 12.4327C144.771 12.4327 144.55 12.34 144.385 12.1546C144.22 11.9691 144.137 11.7425 144.137 11.4746C144.137 10.7432 144.41 10.1097 144.956 9.57396C145.502 9.03826 146.182 8.77042 146.996 8.77042C147.934 8.77042 148.717 9.05887 149.345 9.63577C149.973 10.2127 150.293 10.9596 150.303 11.8764C150.303 12.3194 150.2 12.7418 149.994 13.1435C149.788 13.5453 149.541 13.8956 149.252 14.1943C148.964 14.4931 148.552 14.8742 148.016 15.3378C147.645 15.6572 147.13 16.1311 146.471 16.7595L145.559 17.6248L146.734 17.6403C148.351 17.6403 149.211 17.6145 149.314 17.563C149.386 17.5424 149.51 17.084 149.685 16.1877V16.1414H150.303V16.1877C150.293 16.2186 150.226 16.6874 150.102 17.5939C149.979 18.5005 149.901 18.9744 149.87 19.0156V19.0619H144.137V18.7683V18.5829C144.137 18.5108 144.168 18.4335 144.23 18.3511C144.292 18.2687 144.447 18.0884 144.694 17.8103C144.993 17.4806 145.25 17.1921 145.466 16.9449C145.559 16.8419 145.734 16.6513 145.992 16.3731C146.249 16.095 146.424 15.9044 146.517 15.8014C146.61 15.6984 146.759 15.5284 146.965 15.2915C147.171 15.0545 147.316 14.8794 147.398 14.7661C147.48 14.6527 147.599 14.4982 147.753 14.3025C147.908 14.1068 148.016 13.9419 148.078 13.808C148.14 13.6741 148.217 13.5247 148.31 13.3599C148.402 13.195 148.469 13.0302 148.511 12.8654C148.552 12.7006 148.588 12.546 148.619 12.4018C148.65 12.2576 148.665 12.0876 148.665 11.8919C148.665 11.2429 148.49 10.6814 148.14 10.2075C147.789 9.73364 147.29 9.49669 146.641 9.49669C146.301 9.49669 146.002 9.58426 145.745 9.75939C145.487 9.93452 145.307 10.1045 145.204 10.2693C145.101 10.4342 145.049 10.532 145.049 10.5629C145.049 10.5732 145.075 10.5784 145.126 10.5784C145.312 10.5784 145.502 10.6505 145.698 10.7947C145.894 10.9389 145.992 11.1759 145.992 11.5055C145.992 11.7631 145.909 11.9794 145.745 12.1546C145.58 12.3297 145.348 12.4224 145.049 12.4327Z" fill="black"/>
<path d="M151.659 18.2225C151.71 17.9166 151.907 17.5633 152.249 17.1627C152.592 16.7622 153.014 16.5582 153.517 16.5509C153.771 16.5509 154.005 16.6165 154.216 16.7476C154.427 16.8787 154.584 17.0426 154.686 17.2392C154.991 16.7804 155.359 16.5509 155.789 16.5509C156.058 16.5509 156.292 16.6311 156.488 16.7913C156.685 16.9515 156.787 17.1664 156.794 17.4359C156.794 17.6471 156.743 17.8183 156.641 17.9494C156.539 18.0805 156.441 18.1606 156.346 18.1897C156.251 18.2188 156.168 18.2334 156.095 18.2334C155.956 18.2334 155.844 18.1933 155.756 18.1132C155.669 18.0331 155.625 17.9275 155.625 17.7964C155.625 17.4614 155.807 17.2319 156.171 17.1081C156.091 17.0134 155.946 16.9661 155.734 16.9661C155.64 16.9661 155.57 16.9734 155.527 16.9879C155.25 17.1045 155.046 17.3448 154.915 17.709C154.478 19.3186 154.259 20.2582 154.259 20.5277C154.259 20.7316 154.318 20.8773 154.434 20.9647C154.551 21.0521 154.678 21.0958 154.817 21.0958C155.086 21.0958 155.352 20.9756 155.614 20.7352C155.876 20.4949 156.055 20.1999 156.149 19.8503C156.171 19.7775 156.193 19.7374 156.215 19.7301C156.237 19.7229 156.295 19.7156 156.39 19.7083H156.434C156.543 19.7083 156.597 19.7374 156.597 19.7957C156.597 19.803 156.59 19.843 156.576 19.9159C156.459 20.331 156.233 20.6988 155.898 21.0193C155.563 21.3398 155.174 21.5 154.729 21.5C154.219 21.5 153.833 21.2706 153.571 20.8117C153.273 21.2633 152.93 21.4891 152.544 21.4891H152.479C152.122 21.4891 151.867 21.3944 151.714 21.205C151.561 21.0157 151.481 20.8154 151.474 20.6041C151.474 20.3711 151.543 20.1817 151.681 20.036C151.82 19.8904 151.983 19.8175 152.173 19.8175C152.486 19.8175 152.643 19.9705 152.643 20.2764C152.643 20.4221 152.599 20.5495 152.511 20.6588C152.424 20.768 152.34 20.8409 152.26 20.8773C152.18 20.9137 152.133 20.9319 152.118 20.9319L152.085 20.9428C152.085 20.9501 152.107 20.9647 152.151 20.9865C152.195 21.0084 152.253 21.0339 152.326 21.063C152.399 21.0921 152.468 21.1031 152.533 21.0958C152.795 21.0958 153.021 20.9319 153.211 20.6041C153.276 20.4876 153.36 20.24 153.462 19.8612C153.564 19.4825 153.666 19.0892 153.768 18.6813C153.87 18.2735 153.928 18.0331 153.943 17.9603C153.979 17.7636 153.997 17.6216 153.997 17.5342C153.997 17.3303 153.943 17.1846 153.833 17.0972C153.724 17.0098 153.6 16.9661 153.462 16.9661C153.171 16.9661 152.897 17.0826 152.643 17.3157C152.388 17.5488 152.209 17.8474 152.107 18.2116C152.093 18.2771 152.074 18.3135 152.053 18.3208C152.031 18.3281 151.972 18.3354 151.878 18.3427H151.725C151.681 18.299 151.659 18.2589 151.659 18.2225Z" fill="black"/>
<path d="M160.433 10.6034C160.433 10.6034 160.433 10.5087 160.433 10.3192C160.433 10.1298 160.535 9.98409 160.739 9.88209H167.274V6.60358L167.296 3.32507C167.441 3.13565 167.58 3.04094 167.711 3.04094C167.9 3.04094 168.046 3.15022 168.148 3.36879V9.88209H174.662C174.88 9.99866 174.989 10.1444 174.989 10.3192C174.989 10.4941 174.88 10.6398 174.662 10.7564H168.148V17.2697C168.032 17.4737 167.9 17.5757 167.755 17.5757H167.711H167.667C167.492 17.5757 167.361 17.4737 167.274 17.2697V10.7564H160.739C160.535 10.6544 160.433 10.5087 160.433 10.3192V10.6034Z" fill="black"/>
<path d="M177.918 14.472C177.918 14.1223 178.042 13.8163 178.29 13.554C178.537 13.2917 178.851 13.1606 179.23 13.1606C179.579 13.1606 179.885 13.2772 180.148 13.5103C180.41 13.7434 180.548 14.0567 180.563 14.4501C180.563 14.8144 180.439 15.1277 180.191 15.39C179.944 15.6523 179.63 15.7834 179.251 15.7834C178.873 15.7834 178.559 15.6596 178.312 15.4118C178.064 15.1641 177.933 14.8509 177.918 14.472Z" fill="black"/>
<path d="M187.638 14.472C187.638 14.1223 187.762 13.8163 188.009 13.554C188.257 13.2917 188.57 13.1606 188.949 13.1606C189.299 13.1606 189.605 13.2772 189.867 13.5103C190.13 13.7434 190.268 14.0567 190.283 14.4501C190.283 14.8144 190.159 15.1277 189.911 15.39C189.663 15.6523 189.35 15.7834 188.971 15.7834C188.592 15.7834 188.279 15.6596 188.031 15.4118C187.784 15.1641 187.652 14.8509 187.638 14.472Z" fill="black"/>
<path d="M197.355 14.472C197.355 14.1223 197.479 13.8163 197.727 13.554C197.975 13.2917 198.288 13.1606 198.667 13.1606C199.016 13.1606 199.322 13.2772 199.585 13.5103C199.847 13.7434 199.985 14.0567 200 14.4501C200 14.8144 199.876 15.1277 199.628 15.39C199.381 15.6523 199.067 15.7834 198.689 15.7834C198.31 15.7834 197.996 15.6596 197.749 15.4118C197.501 15.1641 197.37 14.8509 197.355 14.472Z" fill="black"/>
<path d="M0.376627 43.535C0.125542 43.535 0 43.4612 0 43.3135C0 43.2839 0.0221545 43.1805 0.0664636 43.0033C0.125542 42.767 0.184621 42.6341 0.2437 42.6045C0.302779 42.575 0.47263 42.5528 0.753254 42.5381C1.15204 42.5381 1.59513 42.5159 2.08253 42.4716C2.2893 42.4273 2.42961 42.3387 2.50346 42.2057C2.533 42.1319 3.05732 40.0568 4.07643 35.9803C5.09554 31.9039 5.61248 29.8361 5.62725 29.7771C5.62725 29.6737 5.59771 29.622 5.53863 29.622C5.42047 29.5777 5.02908 29.5407 4.36444 29.5112H3.67765C3.58903 29.4226 3.54472 29.3635 3.54472 29.334C3.54472 29.3044 3.55949 29.1789 3.58903 28.9573C3.64811 28.7063 3.72196 28.5512 3.81058 28.4921H15.7519C15.8553 28.5512 15.907 28.6324 15.907 28.7358C15.907 28.8096 15.8109 29.6367 15.6189 31.2171C15.4269 32.7975 15.3235 33.6098 15.3088 33.6541C15.2792 33.7575 15.1315 33.8092 14.8657 33.8092H14.5998C14.4964 33.7353 14.4448 33.6393 14.4448 33.5212C14.4448 33.5064 14.4669 33.3292 14.5112 32.9895C14.5555 32.6498 14.5777 32.2584 14.5777 31.8153C14.5777 31.3722 14.526 31.0103 14.4226 30.7297C14.3192 30.4491 14.1789 30.2201 14.0017 30.0429C13.8244 29.8657 13.5512 29.7475 13.1819 29.6884C12.8127 29.6294 12.4361 29.5777 12.0521 29.5334C11.6681 29.4891 11.1363 29.4817 10.4569 29.5112H9.94738C8.73627 29.526 8.09379 29.5481 8.01994 29.5777C7.94609 29.6072 7.8944 29.6663 7.86486 29.7549C7.85009 29.7697 7.599 30.7371 7.1116 32.6571L6.40266 35.5151H7.62116C7.66547 35.5151 7.83532 35.5151 8.13071 35.5151C8.42611 35.5151 8.63288 35.5077 8.75104 35.4929C8.8692 35.4782 9.03166 35.456 9.23844 35.4265C9.44521 35.3969 9.62245 35.3452 9.77015 35.2714C9.91784 35.1975 10.0434 35.1089 10.1468 35.0055C10.3388 34.8283 10.5012 34.5846 10.6342 34.2744C10.7671 33.9643 10.8631 33.6836 10.9222 33.4326C10.9813 33.1815 11.0182 33.0485 11.033 33.0338C11.0773 32.9599 11.2176 32.923 11.4539 32.923H11.7197C11.8231 32.9969 11.8748 33.0707 11.8748 33.1445C11.8748 33.1889 11.6459 34.1563 11.188 36.0468C10.7302 37.9373 10.4791 38.9121 10.4348 38.9712C10.4052 39.0746 10.2575 39.1263 9.99169 39.1263H9.72584C9.62245 39.0377 9.57076 38.949 9.57076 38.8604C9.57076 38.8161 9.60768 38.6536 9.68153 38.373C9.75538 38.0924 9.7923 37.797 9.7923 37.4868C9.7923 37.0585 9.6446 36.7927 9.34921 36.6893C9.05382 36.5859 8.39657 36.5342 7.37746 36.5342H6.15896L5.45001 39.3478C4.97738 41.1793 4.74107 42.1393 4.74107 42.2279C4.74107 42.4347 5.39832 42.5381 6.71282 42.5381H7.26669C7.3553 42.6267 7.39961 42.6784 7.39961 42.6931C7.39961 42.7079 7.38484 42.8556 7.3553 43.1362C7.29622 43.3282 7.22238 43.4686 7.13376 43.5572H6.75713C6.15157 43.5276 5.03646 43.5129 3.4118 43.5129C2.45177 43.5129 1.72067 43.5129 1.2185 43.5129C0.71633 43.5129 0.435706 43.5203 0.376627 43.535Z" fill="black"/>
<path d="M13.8875 42.385C13.8979 42.3223 13.9136 42.2388 13.9345 42.1344C13.9554 42.03 14.018 41.8316 14.1224 41.5392C14.2269 41.2468 14.3313 41.0014 14.4357 40.803C14.5401 40.6046 14.7124 40.4114 14.9526 40.2235C15.1928 40.0355 15.4329 39.9468 15.6731 39.9572C16.049 39.9572 16.3623 40.0512 16.6129 40.2391C16.8635 40.4271 17.0201 40.6046 17.0828 40.7717C17.1455 40.9388 17.1768 41.0484 17.1768 41.1006C17.1768 41.1215 17.182 41.1319 17.1924 41.1319L17.3647 40.9596C18.0017 40.2913 18.7274 39.9572 19.5419 39.9572C20.1058 39.9572 20.56 40.0982 20.9046 40.3801C21.2492 40.662 21.4267 41.0745 21.4372 41.6175C21.4476 42.1605 21.2492 42.9802 20.842 44.0766C20.4347 45.1731 20.2363 45.8361 20.2468 46.0659C20.2468 46.3374 20.3355 46.4731 20.5131 46.4731C20.5757 46.4731 20.6227 46.4679 20.654 46.4574C20.9568 46.4052 21.2283 46.2068 21.4685 45.8622C21.7087 45.5177 21.8914 45.1 22.0167 44.6092C22.0376 44.5256 22.142 44.4839 22.33 44.4839C22.5388 44.4839 22.6433 44.5256 22.6433 44.6092C22.6433 44.6196 22.6224 44.6979 22.5806 44.8441C22.4971 45.147 22.3822 45.4446 22.236 45.7369C22.0898 46.0293 21.8497 46.3217 21.5155 46.6141C21.1814 46.9065 20.8211 47.0474 20.4347 47.037C19.944 47.037 19.5889 46.896 19.3696 46.6141C19.1504 46.3321 19.0407 46.0398 19.0407 45.7369C19.0407 45.5385 19.2287 44.912 19.6046 43.8573C19.9805 42.8027 20.1737 42.0091 20.1841 41.4765C20.1841 40.8604 19.9544 40.5524 19.4949 40.5524H19.4166C18.5186 40.5524 17.7615 41.0797 17.1455 42.1344L17.0358 42.3223L16.5189 44.4212C16.1743 45.7891 15.9759 46.5253 15.9237 46.6297C15.788 46.9117 15.5635 47.0527 15.2502 47.0527C15.1145 47.0527 15.0048 47.0213 14.9213 46.9587C14.8377 46.896 14.7803 46.8334 14.749 46.7707C14.7177 46.7081 14.7072 46.6558 14.7177 46.6141C14.7177 46.4783 14.9161 45.6273 15.3129 44.061C15.7097 42.4946 15.9185 41.6436 15.9394 41.5079C15.9498 41.4556 15.955 41.3356 15.955 41.1476C15.955 40.7404 15.8297 40.5367 15.5791 40.5367C15.1823 40.5367 14.8534 41.0588 14.5923 42.1031C14.5297 42.3119 14.4984 42.4215 14.4984 42.432C14.4775 42.4946 14.3783 42.526 14.2008 42.526H13.9815C13.9188 42.4633 13.8875 42.4163 13.8875 42.385Z" fill="black"/>
<path d="M23.5674 44.2489C23.5674 43.6537 23.6666 43.1107 23.865 42.62C24.0634 42.1292 24.3192 41.7219 24.6325 41.3982C24.9458 41.0745 25.2956 40.803 25.6819 40.5837C26.0683 40.3644 26.4338 40.2026 26.7784 40.0982C27.1229 39.9937 27.4519 39.9468 27.7651 39.9572H27.8121C28.282 39.9572 28.6893 40.0721 29.0339 40.3018C29.3785 40.5315 29.5507 40.8709 29.5507 41.3199C29.5507 42.2597 28.9712 42.8758 27.8121 43.1682C27.3005 43.3039 26.6008 43.377 25.7133 43.3874C25.3269 43.3874 25.1285 43.3979 25.118 43.4188C25.118 43.4397 25.0867 43.6224 25.0241 43.967C24.9614 44.3116 24.9249 44.6144 24.9144 44.8755C24.9144 45.3662 25.0241 45.7526 25.2434 46.0345C25.4626 46.3165 25.7916 46.4627 26.2301 46.4731C26.6687 46.4836 27.1543 46.3844 27.6868 46.1755C28.2194 45.9667 28.6997 45.6221 29.1278 45.1417C29.2218 45.0373 29.2845 44.9851 29.3158 44.9851C29.3576 44.9851 29.4254 45.0321 29.5194 45.1261C29.6134 45.2201 29.6656 45.2931 29.6761 45.3454C29.6865 45.3976 29.6395 45.4811 29.5351 45.596C29.4307 45.7108 29.274 45.8518 29.0652 46.0189C28.8563 46.186 28.6162 46.3478 28.3447 46.5044C28.0732 46.6611 27.7443 46.7916 27.3579 46.896C26.9715 47.0004 26.5747 47.0527 26.1675 47.0527C25.3426 47.0527 24.7056 46.7759 24.2566 46.2225C23.8076 45.6691 23.5778 45.0112 23.5674 44.2489ZM28.7989 41.3512C28.7363 40.8082 28.3812 40.5367 27.7338 40.5367C27.3892 40.5367 27.0707 40.6098 26.7784 40.756C26.486 40.9022 26.251 41.0797 26.0735 41.2886C25.896 41.4974 25.7446 41.7115 25.6193 41.9308C25.494 42.1501 25.4104 42.338 25.3687 42.4946C25.3269 42.6513 25.3008 42.7505 25.2903 42.7922C25.2903 42.8027 25.3948 42.8079 25.6036 42.8079C26.7836 42.8079 27.6085 42.6826 28.0784 42.432C28.5483 42.1814 28.7885 41.8211 28.7989 41.3512Z" fill="black"/>
<path d="M30.6628 40.85C30.5897 40.7769 30.5532 40.7247 30.5532 40.6934C30.5532 40.6516 30.5689 40.5681 30.6002 40.4428C30.6315 40.3175 30.6576 40.2444 30.6785 40.2235C30.6994 40.1713 30.7464 40.1452 30.8195 40.1452C30.8926 40.1452 31.1588 40.1399 31.6183 40.1295H32.4485L32.7461 38.8764C32.7774 38.7616 32.8139 38.6102 32.8557 38.4222C32.8975 38.2342 32.934 38.0985 32.9653 38.015C32.9967 37.9314 33.028 37.827 33.0593 37.7017C33.0906 37.5764 33.1324 37.4876 33.1846 37.4354C33.2368 37.3832 33.289 37.3206 33.3413 37.2475C33.3935 37.1744 33.4666 37.1274 33.5605 37.1065C33.6545 37.0856 33.7485 37.0752 33.8425 37.0752C34.0304 37.0856 34.161 37.143 34.2341 37.2475C34.3072 37.3519 34.3437 37.4511 34.3437 37.5451C34.3437 37.6182 34.2967 37.8635 34.2027 38.2812C34.1088 38.6989 34.0043 39.1114 33.8895 39.5186L33.7328 40.0982C33.7328 40.1191 33.9939 40.1295 34.516 40.1295H35.3148C35.3879 40.2026 35.4245 40.26 35.4245 40.3018C35.4245 40.5315 35.3566 40.7143 35.2208 40.85H33.5449L32.981 43.1212C32.5738 44.7919 32.3701 45.6899 32.3701 45.8153C32.3701 46.2538 32.5111 46.4731 32.793 46.4731C33.1585 46.4731 33.5136 46.2956 33.8581 45.9406C34.2027 45.5855 34.4795 45.147 34.6883 44.6248C34.7092 44.5622 34.7353 44.5256 34.7666 44.5152C34.7979 44.5048 34.8763 44.4943 35.0016 44.4839H35.0642C35.2208 44.4839 35.2992 44.5256 35.2992 44.6092C35.2992 44.6405 35.2835 44.7032 35.2522 44.7971C35.2 44.9642 35.106 45.1626 34.9702 45.3923C34.8345 45.6221 34.657 45.8675 34.4377 46.1285C34.2184 46.3896 33.9521 46.6089 33.6389 46.7864C33.3256 46.9639 33.0071 47.0527 32.6834 47.0527C32.3701 47.0527 32.0725 46.9743 31.7906 46.8177C31.5087 46.6611 31.305 46.3896 31.1797 46.0032C31.1588 45.9197 31.1484 45.7787 31.1484 45.5803V45.2984L31.6966 43.1055C32.0621 41.6332 32.2501 40.8918 32.2605 40.8813C32.2605 40.8604 31.9942 40.85 31.4617 40.85H30.6628Z" fill="black"/>
<path d="M36.1426 46.0516C36.1426 45.9483 36.198 45.7711 36.3087 45.5201C36.4194 45.2691 36.5966 45.007 36.8402 44.7338C37.0839 44.4607 37.357 44.3278 37.6597 44.3352C37.9624 44.3352 38.206 44.4201 38.3906 44.5899C38.5752 44.7597 38.6711 44.9959 38.6785 45.2986C38.6637 45.4389 38.6527 45.5164 38.6453 45.5312C38.6453 45.5533 38.5862 45.7231 38.4681 46.0406C38.35 46.358 38.2282 46.7161 38.1027 47.1147C37.9772 47.5134 37.9181 47.8308 37.9255 48.0671C37.9255 48.3845 37.9772 48.606 38.0805 48.7315C38.1839 48.857 38.3389 48.9235 38.5456 48.9309C38.7154 48.9309 38.8742 48.8902 39.0218 48.809C39.1695 48.7278 39.2839 48.6429 39.3651 48.5543C39.4463 48.4657 39.546 48.3439 39.6641 48.1889C39.6641 48.1815 39.6825 48.1077 39.7195 47.9674C39.7564 47.8272 39.8081 47.6094 39.8745 47.3141C39.9409 47.0188 40.0111 46.7456 40.0849 46.4946C40.3654 45.3872 40.5205 44.8077 40.55 44.756C40.646 44.5567 40.8047 44.457 41.0262 44.457C41.1222 44.457 41.1997 44.4828 41.2587 44.5345C41.3178 44.5862 41.3584 44.6305 41.3805 44.6674C41.4027 44.7043 41.4101 44.7375 41.4027 44.7671C41.4027 44.863 41.2218 45.6382 40.8601 47.0926C40.4983 48.547 40.2916 49.3443 40.2399 49.4845C40.0332 50.0973 39.6752 50.5846 39.1658 50.9463C38.6564 51.3081 38.147 51.4926 37.6376 51.5C37.3053 51.5 37.0137 51.4188 36.7627 51.2564C36.5117 51.094 36.3862 50.8503 36.3862 50.5255C36.3862 50.3631 36.412 50.2265 36.4637 50.1158C36.5154 50.005 36.5855 49.9238 36.6741 49.8721C36.7627 49.8205 36.8365 49.7835 36.8956 49.7614C36.9547 49.7392 37.0174 49.7282 37.0839 49.7282C37.4087 49.7282 37.5711 49.8832 37.5711 50.1933C37.5711 50.3409 37.5268 50.4701 37.4382 50.5809C37.3496 50.6916 37.2647 50.7654 37.1835 50.8023C37.1023 50.8393 37.0543 50.8577 37.0396 50.8577L37.0063 50.8688C37.0211 50.9057 37.0912 50.95 37.2168 51.0017C37.3423 51.0534 37.4678 51.0792 37.5933 51.0792H37.6819C37.8074 51.0792 37.9033 51.0718 37.9698 51.057C38.2134 50.9906 38.4386 50.8503 38.6453 50.6362C38.852 50.4221 39.0107 50.1933 39.1215 49.9497C39.2322 49.706 39.3171 49.4993 39.3762 49.3295C39.4352 49.1597 39.4648 49.049 39.4648 48.9973L39.3983 49.0416C39.354 49.0711 39.2839 49.1117 39.1879 49.1634C39.0919 49.2151 38.996 49.2594 38.9 49.2963C38.7523 49.3332 38.6084 49.3517 38.4681 49.3517C38.1285 49.3517 37.8295 49.2705 37.5711 49.108C37.3127 48.9456 37.1429 48.6835 37.0617 48.3218C37.0543 48.2701 37.0506 48.1557 37.0506 47.9785C37.0506 47.5577 37.1798 47.0077 37.4382 46.3285C37.6966 45.6493 37.8258 45.2174 37.8258 45.0328C37.8258 45.0254 37.8258 45.0181 37.8258 45.0107C37.8258 44.9442 37.8258 44.8999 37.8258 44.8778C37.8258 44.8556 37.8111 44.8298 37.7815 44.8003C37.752 44.7707 37.7114 44.756 37.6597 44.756H37.6154C37.4456 44.756 37.2906 44.8261 37.1503 44.9664C37.01 45.1067 36.8993 45.258 36.8181 45.4204C36.7369 45.5828 36.6741 45.7379 36.6298 45.8855C36.5855 46.0332 36.556 46.1144 36.5412 46.1291C36.5265 46.1439 36.4674 46.1513 36.3641 46.1513H36.209C36.1647 46.107 36.1426 46.0738 36.1426 46.0516Z" fill="black"/>
<path d="M50.6275 35.8696C50.6275 35.6776 50.7309 35.5299 50.9377 35.4265H65.0501C65.2717 35.5446 65.3824 35.6923 65.3824 35.8696C65.3824 36.032 65.2791 36.1723 65.0723 36.2905L58.0271 36.3126H50.982C50.7457 36.2388 50.6275 36.0911 50.6275 35.8696ZM50.6275 40.1675C50.6275 39.946 50.7457 39.7983 50.982 39.7244H65.0723C65.2791 39.8721 65.3824 40.0198 65.3824 40.1675C65.3824 40.3595 65.2717 40.5072 65.0501 40.6106H50.9377C50.7309 40.5072 50.6275 40.3595 50.6275 40.1675Z" fill="black"/>
<path d="M73.841 43.535C73.59 43.535 73.4644 43.4612 73.4644 43.3135C73.4644 43.2839 73.4866 43.1806 73.5309 43.0033C73.59 42.767 73.649 42.6341 73.7081 42.6045C73.7672 42.575 73.937 42.5528 74.2177 42.5381C74.6164 42.5381 75.0595 42.5159 75.5469 42.4716C75.7537 42.4273 75.894 42.3387 75.9679 42.2058C75.9974 42.1319 76.5217 40.0568 77.5408 35.9803C78.56 31.9039 79.0769 29.8361 79.0917 29.7771C79.0917 29.6737 79.0621 29.622 79.003 29.622C78.8849 29.5777 78.4935 29.5408 77.8289 29.5112H77.1421C77.0534 29.4226 77.0091 29.3635 77.0091 29.334C77.0091 29.3044 77.0239 29.1789 77.0534 28.9573C77.1125 28.7063 77.1864 28.5512 77.275 28.4921H89.2163C89.3197 28.5512 89.3714 28.6324 89.3714 28.7358C89.3714 28.8097 89.2754 29.6368 89.0834 31.2171C88.8913 32.7975 88.788 33.6098 88.7732 33.6541C88.7436 33.7575 88.596 33.8092 88.3301 33.8092H88.0642C87.9609 33.7353 87.9092 33.6393 87.9092 33.5212C87.9092 33.5064 87.9313 33.3292 87.9756 32.9895C88.0199 32.6498 88.0421 32.2584 88.0421 31.8153C88.0421 31.3722 87.9904 31.0103 87.887 30.7297C87.7836 30.4491 87.6433 30.2202 87.4661 30.0429C87.2888 29.8657 87.0156 29.7475 86.6464 29.6884C86.2771 29.6294 85.9005 29.5777 85.5165 29.5334C85.1325 29.4891 84.6008 29.4817 83.9213 29.5112H83.4118C82.2007 29.526 81.5582 29.5481 81.4843 29.5777C81.4105 29.6072 81.3588 29.6663 81.3293 29.7549C81.3145 29.7697 81.0634 30.7371 80.576 32.6572L79.8671 35.5151H81.0856C81.1299 35.5151 81.2997 35.5151 81.5951 35.5151C81.8905 35.5151 82.0973 35.5077 82.2154 35.4929C82.3336 35.4782 82.4961 35.456 82.7028 35.4265C82.9096 35.3969 83.0869 35.3452 83.2346 35.2714C83.3823 35.1975 83.5078 35.1089 83.6112 35.0055C83.8032 34.8283 83.9657 34.5846 84.0986 34.2744C84.2315 33.9643 84.3275 33.6836 84.3866 33.4326C84.4457 33.1815 84.4826 33.0486 84.4974 33.0338C84.5417 32.9599 84.682 32.923 84.9183 32.923H85.1842C85.2875 32.9969 85.3392 33.0707 85.3392 33.1446C85.3392 33.1889 85.1103 34.1563 84.6524 36.0468C84.1946 37.9373 83.9435 38.9121 83.8992 38.9712C83.8697 39.0746 83.722 39.1263 83.4561 39.1263H83.1902C83.0869 39.0377 83.0352 38.949 83.0352 38.8604C83.0352 38.8161 83.0721 38.6536 83.1459 38.373C83.2198 38.0924 83.2567 37.797 83.2567 37.4868C83.2567 37.0585 83.109 36.7927 82.8136 36.6893C82.5182 36.5859 81.861 36.5342 80.8419 36.5342H79.6234L78.9144 39.3478C78.4418 41.1793 78.2055 42.1393 78.2055 42.2279C78.2055 42.4347 78.8627 42.5381 80.1772 42.5381H80.7311C80.8197 42.6267 80.864 42.6784 80.864 42.6932C80.864 42.7079 80.8493 42.8556 80.8197 43.1362C80.7606 43.3283 80.6868 43.4686 80.5982 43.5572H80.2215C79.616 43.5276 78.5009 43.5129 76.8762 43.5129C75.9162 43.5129 75.1851 43.5129 74.6829 43.5129C74.1807 43.5129 73.9001 43.5203 73.841 43.535Z" fill="black"/>
<path d="M90.3593 37.827L90.1556 37.9053C90.0094 37.9575 89.8006 38.0097 89.5291 38.0619C89.2576 38.1142 88.9548 38.1507 88.6206 38.1716H88.323V37.4511H88.6206C89.1114 37.4302 89.5656 37.3519 89.9833 37.2161C90.401 37.0804 90.6934 36.9551 90.8605 36.8402C91.0275 36.7253 91.1737 36.6105 91.299 36.4956C91.3199 36.4643 91.3826 36.4486 91.487 36.4486C91.581 36.4486 91.6697 36.48 91.7533 36.5426V41.2259L91.7689 45.9249C91.842 45.998 91.9047 46.045 91.9569 46.0659C92.0091 46.0868 92.1344 46.1076 92.3328 46.1285C92.5312 46.1494 92.8549 46.1598 93.3039 46.1598H93.7112V46.8804H93.5389C93.3196 46.849 92.4895 46.8334 91.0484 46.8334C89.6283 46.8334 88.8086 46.849 88.5893 46.8804H88.4013V46.1598H88.8086C89.0383 46.1598 89.2367 46.1598 89.4038 46.1598C89.5709 46.1598 89.7014 46.1546 89.7954 46.1442C89.8894 46.1337 89.9729 46.1181 90.046 46.0972C90.1191 46.0763 90.1609 46.0659 90.1713 46.0659C90.1817 46.0659 90.2131 46.0398 90.2653 45.9876C90.3175 45.9353 90.3488 45.9145 90.3593 45.9249V37.827Z" fill="black"/>
<path d="M95.0872 46.0516C95.0872 45.9483 95.1425 45.7711 95.2533 45.5201C95.364 45.2691 95.5412 45.007 95.7848 44.7338C96.0284 44.4607 96.3016 44.3278 96.6043 44.3352C96.907 44.3352 97.1506 44.4201 97.3352 44.5899C97.5197 44.7597 97.6157 44.9959 97.6231 45.2986C97.6083 45.4389 97.5972 45.5164 97.5899 45.5312C97.5899 45.5533 97.5308 45.7231 97.4127 46.0406C97.2946 46.358 97.1727 46.7161 97.0472 47.1147C96.9217 47.5134 96.8627 47.8308 96.8701 48.0671C96.8701 48.3845 96.9217 48.606 97.0251 48.7315C97.1284 48.857 97.2835 48.9235 97.4902 48.9309C97.66 48.9309 97.8187 48.8902 97.9664 48.809C98.114 48.7278 98.2285 48.6429 98.3097 48.5543C98.3909 48.4657 98.4905 48.3439 98.6087 48.1889C98.6087 48.1815 98.6271 48.1077 98.664 47.9674C98.7009 47.8272 98.7526 47.6094 98.8191 47.3141C98.8855 47.0188 98.9556 46.7456 99.0295 46.4946C99.31 45.3872 99.465 44.8077 99.4946 44.756C99.5905 44.5567 99.7493 44.457 99.9707 44.457C100.067 44.457 100.144 44.4828 100.203 44.5345C100.262 44.5862 100.303 44.6305 100.325 44.6674C100.347 44.7043 100.355 44.7375 100.347 44.7671C100.347 44.863 100.166 45.6382 99.8046 47.0926C99.4429 48.547 99.2362 49.3443 99.1845 49.4845C98.9778 50.0973 98.6197 50.5846 98.1103 50.9463C97.6009 51.3081 97.0915 51.4926 96.5821 51.5C96.2499 51.5 95.9583 51.4188 95.7073 51.2564C95.4563 51.094 95.3308 50.8503 95.3308 50.5255C95.3308 50.3631 95.3566 50.2265 95.4083 50.1158C95.46 50.005 95.5301 49.9238 95.6187 49.8721C95.7073 49.8205 95.7811 49.7835 95.8402 49.7614C95.8992 49.7392 95.962 49.7282 96.0284 49.7282C96.3533 49.7282 96.5157 49.8832 96.5157 50.1933C96.5157 50.3409 96.4714 50.4701 96.3828 50.5809C96.2942 50.6916 96.2093 50.7654 96.1281 50.8023C96.0469 50.8393 95.9989 50.8577 95.9841 50.8577L95.9509 50.8688C95.9657 50.9057 96.0358 50.95 96.1613 51.0017C96.2868 51.0534 96.4123 51.0792 96.5378 51.0792H96.6264C96.7519 51.0792 96.8479 51.0718 96.9143 51.057C97.158 50.9906 97.3831 50.8503 97.5899 50.6362C97.7966 50.4221 97.9553 50.1933 98.066 49.9497C98.1768 49.706 98.2617 49.4993 98.3207 49.3295C98.3798 49.1597 98.4093 49.049 98.4093 48.9973L98.3429 49.0416C98.2986 49.0711 98.2285 49.1117 98.1325 49.1634C98.0365 49.2151 97.9405 49.2594 97.8446 49.2963C97.6969 49.3332 97.5529 49.3517 97.4127 49.3517C97.0731 49.3517 96.7741 49.2705 96.5157 49.108C96.2573 48.9456 96.0875 48.6835 96.0063 48.3218C95.9989 48.2701 95.9952 48.1557 95.9952 47.9785C95.9952 47.5577 96.1244 47.0077 96.3828 46.3285C96.6412 45.6493 96.7704 45.2174 96.7704 45.0328C96.7704 45.0254 96.7704 45.0181 96.7704 45.0107C96.7704 44.9442 96.7704 44.8999 96.7704 44.8778C96.7704 44.8556 96.7556 44.8298 96.7261 44.8003C96.6966 44.7707 96.656 44.756 96.6043 44.756H96.56C96.3902 44.756 96.2351 44.8261 96.0949 44.9664C95.9546 45.1067 95.8439 45.258 95.7627 45.4204C95.6815 45.5828 95.6187 45.7379 95.5744 45.8855C95.5301 46.0332 95.5006 46.1144 95.4858 46.1291C95.471 46.1439 95.412 46.1513 95.3086 46.1513H95.1536C95.1093 46.107 95.0872 46.0738 95.0872 46.0516Z" fill="black"/>
<path d="M108.338 38.3066C108.338 38.3066 108.338 38.2106 108.338 38.0185C108.338 37.8265 108.441 37.6788 108.648 37.5755H115.272V34.2523L115.294 30.9291C115.442 30.7371 115.582 30.6411 115.715 30.6411C115.907 30.6411 116.055 30.7519 116.158 30.9734V37.5755H122.76C122.982 37.6936 123.093 37.8413 123.093 38.0185C123.093 38.1958 122.982 38.3435 122.76 38.4616H116.158V45.0637C116.04 45.2705 115.907 45.3738 115.76 45.3738H115.715H115.671C115.494 45.3738 115.361 45.2705 115.272 45.0637V38.4616H108.648C108.441 38.3582 108.338 38.2106 108.338 38.0185V38.3066Z" fill="black"/>
<path d="M130.32 43.535C130.069 43.535 129.943 43.4612 129.943 43.3135C129.943 43.2839 129.965 43.1806 130.009 43.0033C130.069 42.767 130.128 42.6341 130.187 42.6045C130.246 42.575 130.416 42.5528 130.696 42.5381C131.095 42.5381 131.538 42.5159 132.025 42.4716C132.232 42.4273 132.373 42.3387 132.446 42.2058C132.476 42.1319 133 40.0568 134.019 35.9803C135.039 31.9039 135.555 29.8361 135.57 29.7771C135.57 29.6737 135.541 29.622 135.482 29.622C135.363 29.5777 134.972 29.5408 134.307 29.5112H133.621C133.532 29.4226 133.488 29.3635 133.488 29.334C133.488 29.3044 133.502 29.1789 133.532 28.9573C133.591 28.7063 133.665 28.5512 133.754 28.4921H145.695C145.798 28.5512 145.85 28.6324 145.85 28.7358C145.85 28.8097 145.754 29.6368 145.562 31.2171C145.37 32.7975 145.267 33.6098 145.252 33.6541C145.222 33.7575 145.075 33.8092 144.809 33.8092H144.543C144.439 33.7353 144.388 33.6393 144.388 33.5212C144.388 33.5064 144.41 33.3292 144.454 32.9895C144.498 32.6498 144.521 32.2584 144.521 31.8153C144.521 31.3722 144.469 31.0103 144.366 30.7297C144.262 30.4491 144.122 30.2202 143.945 30.0429C143.767 29.8657 143.494 29.7475 143.125 29.6884C142.756 29.6294 142.379 29.5777 141.995 29.5334C141.611 29.4891 141.079 29.4817 140.4 29.5112H139.89C138.679 29.526 138.037 29.5481 137.963 29.5777C137.889 29.6072 137.837 29.6663 137.808 29.7549C137.793 29.7697 137.542 30.7371 137.055 32.6572L136.346 35.5151H137.564C137.608 35.5151 137.778 35.5151 138.074 35.5151C138.369 35.5151 138.576 35.5077 138.694 35.4929C138.812 35.4782 138.975 35.456 139.181 35.4265C139.388 35.3969 139.565 35.3452 139.713 35.2714C139.861 35.1975 139.986 35.1089 140.09 35.0055C140.282 34.8283 140.444 34.5846 140.577 34.2744C140.71 33.9643 140.806 33.6836 140.865 33.4326C140.924 33.1815 140.961 33.0486 140.976 33.0338C141.02 32.9599 141.161 32.923 141.397 32.923H141.663C141.766 32.9969 141.818 33.0707 141.818 33.1446C141.818 33.1889 141.589 34.1563 141.131 36.0468C140.673 37.9373 140.422 38.9121 140.378 38.9712C140.348 39.0746 140.201 39.1263 139.935 39.1263H139.669C139.565 39.0377 139.514 38.949 139.514 38.8604C139.514 38.8161 139.551 38.6536 139.624 38.373C139.698 38.0924 139.735 37.797 139.735 37.4868C139.735 37.0585 139.588 36.7927 139.292 36.6893C138.997 36.5859 138.34 36.5342 137.32 36.5342H136.102L135.393 39.3478C134.92 41.1793 134.684 42.1393 134.684 42.2279C134.684 42.4347 135.341 42.5381 136.656 42.5381H137.21C137.298 42.6267 137.343 42.6784 137.343 42.6932C137.343 42.7079 137.328 42.8556 137.298 43.1362C137.239 43.3283 137.165 43.4686 137.077 43.5572H136.7C136.095 43.5276 134.979 43.5129 133.355 43.5129C132.395 43.5129 131.664 43.5129 131.161 43.5129C130.659 43.5129 130.379 43.5203 130.32 43.535Z" fill="black"/>
<path d="M145.209 40.1608C144.927 40.1608 144.702 40.0668 144.535 39.8789C144.368 39.6909 144.285 39.4612 144.285 39.1897C144.285 38.4483 144.561 37.8061 145.115 37.2631C145.668 36.7201 146.357 36.4486 147.182 36.4486C148.133 36.4486 148.926 36.741 149.563 37.3258C150.2 37.9105 150.524 38.6676 150.534 39.5969C150.534 40.046 150.43 40.4741 150.221 40.8813C150.012 41.2886 149.762 41.6436 149.469 41.9464C149.177 42.2493 148.759 42.6356 148.216 43.1055C147.84 43.4292 147.318 43.9096 146.65 44.5465L145.726 45.4237L146.916 45.4393C148.556 45.4393 149.427 45.4132 149.532 45.361C149.605 45.3401 149.73 44.8755 149.908 43.967V43.92H150.534V43.967C150.524 43.9983 150.456 44.4734 150.331 45.3923C150.205 46.3113 150.127 46.7916 150.096 46.8334V46.8804H144.285V46.5828V46.3948C144.285 46.3217 144.316 46.2434 144.379 46.1598C144.441 46.0763 144.598 45.8936 144.849 45.6116C145.151 45.2775 145.412 44.9851 145.632 44.7345C145.726 44.6301 145.903 44.4369 146.164 44.155C146.425 43.873 146.603 43.6798 146.697 43.5754C146.791 43.471 146.942 43.2987 147.151 43.0585C147.36 42.8184 147.506 42.6408 147.59 42.526C147.673 42.4111 147.793 42.2545 147.95 42.0561C148.107 41.8577 148.216 41.6906 148.279 41.5549C148.341 41.4191 148.42 41.2677 148.514 41.1006C148.608 40.9335 148.676 40.7665 148.717 40.5994C148.759 40.4323 148.796 40.2757 148.827 40.1295C148.858 39.9833 148.874 39.811 148.874 39.6126C148.874 38.9548 148.697 38.3857 148.341 37.9053C147.986 37.425 147.48 37.1848 146.822 37.1848C146.478 37.1848 146.175 37.2736 145.914 37.4511C145.653 37.6286 145.47 37.8009 145.365 37.968C145.261 38.135 145.209 38.2342 145.209 38.2656C145.209 38.276 145.235 38.2812 145.287 38.2812C145.475 38.2812 145.668 38.3543 145.867 38.5005C146.065 38.6467 146.164 38.8869 146.164 39.221C146.164 39.4821 146.081 39.7014 145.914 39.8789C145.747 40.0564 145.512 40.1504 145.209 40.1608Z" fill="black"/>
<path d="M151.566 46.0516C151.566 45.9483 151.621 45.7711 151.732 45.5201C151.843 45.2691 152.02 45.007 152.263 44.7338C152.507 44.4607 152.78 44.3278 153.083 44.3352C153.386 44.3352 153.629 44.4201 153.814 44.5899C153.998 44.7597 154.094 44.9959 154.102 45.2986C154.087 45.4389 154.076 45.5164 154.068 45.5312C154.068 45.5533 154.009 45.7231 153.891 46.0406C153.773 46.358 153.651 46.7161 153.526 47.1147C153.4 47.5134 153.341 47.8308 153.349 48.0671C153.349 48.3845 153.4 48.606 153.504 48.7315C153.607 48.857 153.762 48.9235 153.969 48.9309C154.139 48.9309 154.297 48.8902 154.445 48.809C154.593 48.7278 154.707 48.6429 154.788 48.5543C154.869 48.4657 154.969 48.3439 155.087 48.1889C155.087 48.1815 155.106 48.1077 155.143 47.9674C155.179 47.8272 155.231 47.6094 155.298 47.3141C155.364 47.0188 155.434 46.7456 155.508 46.4946C155.789 45.3872 155.944 44.8077 155.973 44.756C156.069 44.5567 156.228 44.457 156.449 44.457C156.545 44.457 156.623 44.4828 156.682 44.5345C156.741 44.5862 156.782 44.6305 156.804 44.6674C156.826 44.7043 156.833 44.7375 156.826 44.7671C156.826 44.863 156.645 45.6382 156.283 47.0926C155.921 48.547 155.715 49.3443 155.663 49.4845C155.456 50.0973 155.098 50.5846 154.589 50.9463C154.079 51.3081 153.57 51.4926 153.061 51.5C152.728 51.5 152.437 51.4188 152.186 51.2564C151.935 51.094 151.809 50.8503 151.809 50.5255C151.809 50.3631 151.835 50.2265 151.887 50.1158C151.939 50.005 152.009 49.9238 152.097 49.8721C152.186 49.8205 152.26 49.7835 152.319 49.7614C152.378 49.7392 152.441 49.7282 152.507 49.7282C152.832 49.7282 152.994 49.8832 152.994 50.1933C152.994 50.3409 152.95 50.4701 152.861 50.5809C152.773 50.6916 152.688 50.7654 152.607 50.8023C152.525 50.8393 152.477 50.8577 152.463 50.8577L152.429 50.8688C152.444 50.9057 152.514 50.95 152.64 51.0017C152.765 51.0534 152.891 51.0792 153.016 51.0792H153.105C153.23 51.0792 153.326 51.0718 153.393 51.057C153.637 50.9906 153.862 50.8503 154.068 50.6362C154.275 50.4221 154.434 50.1933 154.545 49.9497C154.655 49.706 154.74 49.4993 154.799 49.3295C154.858 49.1597 154.888 49.049 154.888 48.9973L154.821 49.0416C154.777 49.0711 154.707 49.1117 154.611 49.1634C154.515 49.2151 154.419 49.2594 154.323 49.2963C154.175 49.3332 154.031 49.3517 153.891 49.3517C153.552 49.3517 153.253 49.2705 152.994 49.108C152.736 48.9456 152.566 48.6835 152.485 48.3218C152.477 48.2701 152.474 48.1557 152.474 47.9785C152.474 47.5577 152.603 47.0077 152.861 46.3285C153.12 45.6493 153.249 45.2174 153.249 45.0328C153.249 45.0254 153.249 45.0181 153.249 45.0107C153.249 44.9442 153.249 44.8999 153.249 44.8778C153.249 44.8556 153.234 44.8298 153.205 44.8003C153.175 44.7707 153.135 44.756 153.083 44.756H153.039C152.869 44.756 152.714 44.8261 152.573 44.9664C152.433 45.1067 152.322 45.258 152.241 45.4204C152.16 45.5828 152.097 45.7379 152.053 45.8855C152.009 46.0332 151.979 46.1144 151.964 46.1291C151.95 46.1439 151.891 46.1513 151.787 46.1513H151.632C151.588 46.107 151.566 46.0738 151.566 46.0516Z" fill="black"/>
<path d="M159.894 38.3066C159.894 38.3066 159.894 38.2106 159.894 38.0185C159.894 37.8265 159.997 37.6788 160.204 37.5755H166.828V34.2523L166.85 30.9291C166.998 30.7371 167.138 30.6411 167.271 30.6411C167.463 30.6411 167.611 30.7519 167.714 30.9734V37.5755H174.316C174.538 37.6936 174.649 37.8413 174.649 38.0185C174.649 38.1958 174.538 38.3435 174.316 38.4616H167.714V45.0637C167.596 45.2705 167.463 45.3738 167.315 45.3738H167.271H167.227C167.05 45.3738 166.917 45.2705 166.828 45.0637V38.4616H160.204C159.997 38.3582 159.894 38.2106 159.894 38.0185V38.3066Z" fill="black"/>
<path d="M177.617 42.2279C177.617 41.8734 177.743 41.5633 177.994 41.2974C178.245 41.0316 178.563 40.8986 178.947 40.8986C179.301 40.8986 179.611 41.0168 179.877 41.2531C180.143 41.4894 180.283 41.807 180.298 42.2058C180.298 42.575 180.172 42.8925 179.921 43.1584C179.67 43.4243 179.353 43.5572 178.969 43.5572C178.585 43.5572 178.267 43.4316 178.016 43.1806C177.765 42.9295 177.632 42.6119 177.617 42.2279Z" fill="black"/>
<path d="M187.469 42.2279C187.469 41.8734 187.595 41.5633 187.846 41.2974C188.097 41.0316 188.415 40.8986 188.799 40.8986C189.153 40.8986 189.463 41.0168 189.729 41.2531C189.995 41.4894 190.135 41.807 190.15 42.2058C190.15 42.575 190.025 42.8925 189.773 43.1584C189.522 43.4243 189.205 43.5572 188.821 43.5572C188.437 43.5572 188.119 43.4316 187.868 43.1806C187.617 42.9295 187.484 42.6119 187.469 42.2279Z" fill="black"/>
<path d="M197.319 42.2279C197.319 41.8734 197.445 41.5633 197.696 41.2974C197.947 41.0316 198.265 40.8986 198.649 40.8986C199.003 40.8986 199.313 41.0168 199.579 41.2531C199.845 41.4894 199.985 41.807 200 42.2058C200 42.575 199.874 42.8925 199.623 43.1584C199.372 43.4243 199.055 43.5572 198.671 43.5572C198.287 43.5572 197.969 43.4316 197.718 43.1806C197.467 42.9295 197.334 42.6119 197.319 42.2279Z" fill="black"/>
</svg>
