<svg width="729" height="744" viewBox="0 0 729 744" fill="none" xmlns="http://www.w3.org/2000/svg">
<path d="M694.768 398.768C695.745 397.791 695.745 396.209 694.768 395.232L678.859 379.322C677.882 378.346 676.299 378.346 675.323 379.322C674.347 380.299 674.347 381.882 675.323 382.858L689.465 397L675.323 411.142C674.347 412.118 674.347 413.701 675.323 414.678C676.299 415.654 677.882 415.654 678.859 414.678L694.768 398.768ZM0 399.5H693.001V394.5H0V399.5Z" fill="#CBCCCE"/>
<path d="M348.268 48.7319C347.292 47.7556 345.709 47.7556 344.733 48.7319L328.823 64.6418C327.846 65.6181 327.846 67.201 328.823 68.1773C329.799 69.1536 331.382 69.1536 332.358 68.1773L346.5 54.0352L360.643 68.1773C361.619 69.1536 363.202 69.1536 364.178 68.1773C365.154 67.201 365.154 65.6181 364.178 64.6418L348.268 48.7319ZM349 743.5V50.4996H344V743.5H349Z" fill="#CBCCCE"/>
<path d="M714.842 395.924L719.061 388.98H722.857L716.635 398.385L723.051 408H719.289L714.895 400.881L710.5 408H706.721L713.137 398.385L706.914 388.98H710.676L714.842 395.924Z" fill="#CBCCCE"/>
<path d="M346.684 28.2363L351.113 13.9805H354.594L346.947 35.9355C345.764 39.0996 343.883 40.6816 341.305 40.6816L340.689 40.6289L339.477 40.4004V37.7637L340.355 37.834C341.457 37.834 342.312 37.6113 342.922 37.166C343.543 36.7207 344.053 35.9062 344.451 34.7227L345.172 32.7891L338.387 13.9805H341.938L346.684 28.2363Z" fill="#CBCCCE"/>
<path d="M596 176L545.098 186.44L579.59 225.302L596 176ZM349.987 400.366L568.697 206.25L562.723 199.519L344.013 393.634L349.987 400.366Z" fill="#4066E0"/>
<path d="M621.829 149.384C621.829 150.706 623.143 151.478 625.771 151.698C626.8 151.698 627.314 152.001 627.314 152.607C627.314 152.662 627.257 153.021 627.143 153.682C626.971 154.453 626.8 154.949 626.629 155.169C626.457 155.39 626.086 155.5 625.514 155.5C625.4 155.5 625.057 155.5 624.486 155.5C623.914 155.5 622.943 155.472 621.571 155.417C620.2 155.362 618.371 155.335 616.086 155.335C612.029 155.335 609.429 155.39 608.286 155.5H607.6C607.2 155.114 607 154.811 607 154.591C607.114 153.103 607.486 152.139 608.114 151.698H609.314C613.314 151.533 616.229 150.155 618.057 147.566C618.4 147.235 623.571 138.832 633.571 122.358C643.571 105.883 648.657 97.5356 648.829 97.3152C649.229 96.654 649.914 96.3234 650.886 96.3234H651.571H653.029C653.371 96.8193 653.543 97.0948 653.543 97.1499L655.943 123.845C657.543 141.643 658.4 150.624 658.514 150.789C658.8 151.395 660.657 151.698 664.086 151.698C665.514 151.698 666.229 151.974 666.229 152.525C666.229 152.635 666.143 153.021 665.971 153.682C665.8 154.508 665.657 155.004 665.543 155.169C665.429 155.335 665.029 155.445 664.343 155.5C664.171 155.5 663.771 155.5 663.143 155.5C662.514 155.5 661.4 155.472 659.8 155.417C658.2 155.362 656.114 155.335 653.543 155.335C648.171 155.335 644.657 155.39 643 155.5H641.971C641.629 155.169 641.457 154.921 641.457 154.756C641.457 154.591 641.514 154.095 641.629 153.268C641.857 152.552 642.029 152.111 642.143 151.946L642.486 151.698H644.2C647.286 151.533 649.114 151.065 649.686 150.293L648.657 137.896H628.257L625.343 142.689C623 146.491 621.829 148.723 621.829 149.384ZM648.229 134.011C648.229 133.405 647.886 129.107 647.2 121.118C646.514 113.129 646.114 109.106 646 109.051L643.686 112.605C642.771 114.093 640.971 117.041 638.286 121.449L630.571 134.011L639.4 134.094C645.286 134.094 648.229 134.066 648.229 134.011Z" fill="#4066E0"/>
<path d="M658.943 76.653C658.943 76.2122 659.086 75.8265 659.371 75.4959C659.657 75.1653 660.086 75 660.657 75C661.057 75 661.4 75.1377 661.686 75.4132C661.971 75.6336 662.257 76.1571 662.543 76.9836C663.114 79.0222 664.286 80.5926 666.057 81.6946C666.686 82.0802 667 82.5761 667 83.1822C667 83.6781 666.914 84.0087 666.743 84.174C666.571 84.3393 666.171 84.5873 665.543 84.9179C663.086 86.13 660.943 87.8657 659.114 90.1247C659 90.2349 658.857 90.4002 658.686 90.6206C658.514 90.841 658.371 91.0063 658.257 91.1165C658.143 91.2267 658 91.2818 657.829 91.2818C657.657 91.2818 657.457 91.3094 657.229 91.3645C656.829 91.3645 656.457 91.2267 656.114 90.9512C655.771 90.6757 655.571 90.2625 655.514 89.7115C655.514 88.6646 656.857 87.0392 659.543 84.8352H644.886L630.229 84.7526C629.486 84.2567 629.114 83.7332 629.114 83.1822C629.114 82.7965 629.486 82.2455 630.229 81.5293H661C659.629 79.4355 658.943 77.8101 658.943 76.653Z" fill="#4066E0"/>
<path d="M439.38 367.891C439.38 361.039 441.043 353.816 444.369 346.225C447.695 338.633 452.214 332.083 457.928 326.574C463.641 321.065 469.568 317.907 475.708 317.101C475.793 317.101 476.135 317.101 476.731 317.101C477.328 317.101 477.84 317.067 478.266 317C482.871 317.269 486.453 318.915 489.011 321.938C492.337 325.969 494 331.377 494 338.163C494 345.889 492.081 353.749 488.244 361.744C484.406 369.739 479.503 376.289 473.534 381.395C467.564 386.501 461.851 389.054 456.393 389.054H455.498C452.428 389.054 449.784 388.382 447.567 387.039C445.35 385.695 443.687 383.914 442.578 381.697C441.47 379.48 440.659 377.23 440.148 374.946C439.636 372.661 439.38 370.31 439.38 367.891ZM483.895 331.008C483.895 324.155 481.635 320.729 477.115 320.729C474.045 320.729 471.061 322.24 468.161 325.264C465.262 328.287 462.874 331.713 460.998 335.543C459.122 339.372 457.672 342.731 456.649 345.62C455.625 348.509 455.071 350.189 454.986 350.659C459.164 350.726 463.3 350.76 467.394 350.76L479.801 350.659C479.887 350.592 480.228 349.483 480.825 347.333C481.422 345.183 482.104 342.496 482.871 339.271C483.639 336.046 483.98 333.292 483.895 331.008ZM449.358 374.744C449.358 381.865 451.617 385.426 456.137 385.426C457.416 385.426 458.781 385.09 460.23 384.418C461.68 383.747 463.428 382.47 465.475 380.589C467.522 378.708 469.568 375.785 471.615 371.822C473.662 367.858 475.708 362.953 477.755 357.108L478.394 355.395H453.451C453.451 355.597 453.067 356.873 452.3 359.225C451.532 361.576 450.85 364.196 450.253 367.085C449.656 369.974 449.358 372.527 449.358 374.744Z" fill="#CBCCCE"/>
<line x1="594.002" y1="175.5" x2="347.002" y2="176.504" stroke="#CBCCCE" stroke-dasharray="5 5"/>
<line x1="596" y1="397.003" x2="596" y2="177.003" stroke="#CBCCCE" stroke-dasharray="5 5"/>
<path d="M356.798 439.747C356.798 440.375 357.401 440.742 358.606 440.847C359.077 440.847 359.313 440.991 359.313 441.279C359.313 441.305 359.287 441.476 359.235 441.79C359.156 442.157 359.077 442.393 358.999 442.497C358.92 442.602 358.75 442.655 358.488 442.655C358.436 442.655 358.278 442.655 358.016 442.655C357.754 442.655 357.309 442.641 356.68 442.615C356.052 442.589 355.213 442.576 354.165 442.576C352.305 442.576 351.113 442.602 350.589 442.655H350.275C350.092 442.471 350 442.327 350 442.222C350.052 441.515 350.223 441.056 350.511 440.847H351.061C352.895 440.768 354.231 440.113 355.069 438.882C355.226 438.725 357.597 434.73 362.182 426.897C366.766 419.064 369.098 415.095 369.176 414.99C369.36 414.676 369.674 414.519 370.119 414.519H370.434H371.102C371.259 414.754 371.338 414.885 371.338 414.912L372.438 427.604C373.171 436.066 373.564 440.336 373.617 440.415C373.748 440.703 374.599 440.847 376.171 440.847C376.826 440.847 377.153 440.978 377.153 441.24C377.153 441.292 377.114 441.476 377.036 441.79C376.957 442.183 376.891 442.419 376.839 442.497C376.787 442.576 376.603 442.628 376.289 442.655C376.21 442.655 376.027 442.655 375.739 442.655C375.451 442.655 374.94 442.641 374.206 442.615C373.473 442.589 372.517 442.576 371.338 442.576C368.875 442.576 367.264 442.602 366.504 442.655H366.033C365.876 442.497 365.797 442.379 365.797 442.301C365.797 442.222 365.823 441.986 365.876 441.594C365.98 441.253 366.059 441.043 366.111 440.965L366.268 440.847H367.054C368.469 440.768 369.307 440.546 369.569 440.179L369.098 434.284H359.745L358.409 436.564C357.335 438.371 356.798 439.432 356.798 439.747ZM368.901 432.438C368.901 432.149 368.744 430.106 368.43 426.307C368.115 422.509 367.932 420.596 367.88 420.57L366.819 422.26C366.399 422.967 365.574 424.369 364.343 426.465L360.806 432.438L364.854 432.477C367.552 432.477 368.901 432.464 368.901 432.438Z" fill="#4066E0"/>
<path d="M379.541 440.52C379.671 439.742 380.171 438.844 381.041 437.825C381.912 436.806 382.986 436.288 384.264 436.269C384.912 436.269 385.505 436.436 386.042 436.769C386.579 437.103 386.978 437.519 387.237 438.019C388.015 436.853 388.95 436.269 390.043 436.269C390.728 436.269 391.321 436.473 391.821 436.88C392.321 437.288 392.58 437.834 392.599 438.52C392.599 439.057 392.469 439.492 392.21 439.825C391.951 440.159 391.7 440.362 391.46 440.436C391.219 440.511 391.006 440.548 390.821 440.548C390.469 440.548 390.182 440.446 389.959 440.242C389.737 440.038 389.626 439.77 389.626 439.436C389.626 438.584 390.089 438.001 391.015 437.686C390.811 437.445 390.441 437.325 389.904 437.325C389.663 437.325 389.487 437.343 389.376 437.38C388.672 437.677 388.154 438.288 387.82 439.214C386.709 443.307 386.153 445.697 386.153 446.382C386.153 446.9 386.302 447.271 386.598 447.493C386.894 447.715 387.218 447.827 387.57 447.827C388.256 447.827 388.932 447.521 389.598 446.91C390.265 446.299 390.719 445.548 390.96 444.659C391.015 444.474 391.071 444.372 391.126 444.354C391.182 444.335 391.33 444.317 391.571 444.298H391.682C391.96 444.298 392.099 444.372 392.099 444.52C392.099 444.539 392.08 444.641 392.043 444.826C391.747 445.882 391.173 446.817 390.321 447.632C389.469 448.447 388.478 448.854 387.348 448.854C386.051 448.854 385.07 448.271 384.403 447.104C383.644 448.253 382.773 448.827 381.792 448.827H381.625C380.717 448.827 380.069 448.586 379.68 448.104C379.291 447.623 379.087 447.113 379.069 446.576C379.069 445.984 379.245 445.502 379.597 445.132C379.949 444.761 380.365 444.576 380.847 444.576C381.643 444.576 382.042 444.965 382.042 445.743C382.042 446.113 381.93 446.437 381.708 446.715C381.486 446.993 381.273 447.178 381.069 447.271C380.865 447.364 380.745 447.41 380.708 447.41L380.625 447.438C380.625 447.456 380.68 447.493 380.791 447.549C380.903 447.604 381.051 447.669 381.236 447.743C381.421 447.817 381.597 447.845 381.764 447.827C382.431 447.827 383.005 447.41 383.486 446.576C383.653 446.28 383.866 445.65 384.125 444.687C384.385 443.724 384.644 442.724 384.903 441.687C385.162 440.649 385.311 440.038 385.348 439.853C385.44 439.353 385.487 438.992 385.487 438.77C385.487 438.251 385.348 437.881 385.07 437.658C384.792 437.436 384.477 437.325 384.125 437.325C383.384 437.325 382.69 437.621 382.042 438.214C381.393 438.807 380.94 439.566 380.68 440.492C380.643 440.659 380.597 440.751 380.541 440.77C380.486 440.788 380.338 440.807 380.097 440.825H379.708C379.597 440.714 379.541 440.612 379.541 440.52Z" fill="#4066E0"/>
<path d="M409.069 429.019C409.069 428.678 409.253 428.416 409.62 428.233H434.651C435.044 428.443 435.24 428.704 435.24 429.019C435.24 429.307 435.057 429.556 434.69 429.765L422.194 429.805H409.698C409.279 429.674 409.069 429.412 409.069 429.019ZM409.069 436.642C409.069 436.249 409.279 435.987 409.698 435.856H434.69C435.057 436.118 435.24 436.38 435.24 436.642C435.24 436.983 435.044 437.245 434.651 437.428H409.62C409.253 437.245 409.069 436.983 409.069 436.642Z" fill="#4066E0"/>
<path d="M453.82 452.439H453.741C453.427 452.439 453.191 452.256 453.034 451.889V432.791L453.073 413.693C453.335 413.353 453.584 413.183 453.82 413.183C454.16 413.183 454.422 413.379 454.605 413.772V451.889C454.396 452.256 454.16 452.439 453.898 452.439H453.82Z" fill="#4066E0"/>
<path d="M467.455 439.747C467.455 440.375 468.058 440.742 469.263 440.847C469.734 440.847 469.97 440.991 469.97 441.279C469.97 441.305 469.944 441.476 469.892 441.79C469.813 442.157 469.734 442.393 469.656 442.497C469.577 442.602 469.407 442.655 469.145 442.655C469.093 442.655 468.935 442.655 468.673 442.655C468.411 442.655 467.966 442.641 467.337 442.615C466.709 442.589 465.87 442.576 464.822 442.576C462.962 442.576 461.77 442.602 461.246 442.655H460.932C460.749 442.471 460.657 442.327 460.657 442.222C460.709 441.515 460.88 441.056 461.168 440.847H461.718C463.552 440.768 464.888 440.113 465.726 438.882C465.883 438.725 468.254 434.73 472.839 426.897C477.423 419.064 479.755 415.095 479.833 414.99C480.017 414.676 480.331 414.519 480.776 414.519H481.091H481.759C481.916 414.754 481.995 414.885 481.995 414.912L483.095 427.604C483.828 436.066 484.221 440.336 484.274 440.415C484.405 440.703 485.256 440.847 486.828 440.847C487.483 440.847 487.81 440.978 487.81 441.24C487.81 441.292 487.771 441.476 487.693 441.79C487.614 442.183 487.548 442.419 487.496 442.497C487.444 442.576 487.26 442.628 486.946 442.655C486.867 442.655 486.684 442.655 486.396 442.655C486.108 442.655 485.597 442.641 484.863 442.615C484.13 442.589 483.174 442.576 481.995 442.576C479.532 442.576 477.921 442.602 477.161 442.655H476.69C476.533 442.497 476.454 442.379 476.454 442.301C476.454 442.222 476.48 441.986 476.533 441.594C476.637 441.253 476.716 441.043 476.768 440.965L476.926 440.847H477.711C479.126 440.768 479.964 440.546 480.226 440.179L479.755 434.284H470.402L469.066 436.564C467.992 438.371 467.455 439.432 467.455 439.747ZM479.558 432.438C479.558 432.149 479.401 430.106 479.087 426.307C478.772 422.509 478.589 420.596 478.537 420.57L477.476 422.26C477.056 422.967 476.231 424.369 475 426.465L471.463 432.438L475.511 432.477C478.209 432.477 479.558 432.464 479.558 432.438Z" fill="#4066E0"/>
<path d="M484.47 405.166C484.47 404.957 484.536 404.773 484.667 404.616C484.798 404.459 484.994 404.38 485.256 404.38C485.44 404.38 485.597 404.446 485.728 404.577C485.859 404.682 485.99 404.931 486.121 405.323C486.383 406.293 486.92 407.039 487.732 407.563C488.02 407.747 488.164 407.982 488.164 408.271C488.164 408.506 488.125 408.664 488.046 408.742C487.968 408.821 487.784 408.939 487.496 409.096C486.37 409.672 485.387 410.497 484.549 411.572C484.496 411.624 484.431 411.702 484.352 411.807C484.274 411.912 484.208 411.991 484.156 412.043C484.104 412.095 484.038 412.122 483.959 412.122C483.881 412.122 483.789 412.135 483.684 412.161C483.501 412.161 483.331 412.095 483.174 411.964C483.016 411.833 482.925 411.637 482.898 411.375C482.898 410.877 483.514 410.104 484.745 409.057H478.026L471.306 409.017C470.966 408.782 470.795 408.533 470.795 408.271C470.795 408.087 470.966 407.825 471.306 407.485H485.413C484.785 406.489 484.47 405.716 484.47 405.166Z" fill="#4066E0"/>
<path d="M494.766 452.439H494.687C494.373 452.439 494.137 452.256 493.98 451.889V432.791L494.019 413.693C494.281 413.353 494.53 413.183 494.766 413.183C495.106 413.183 495.368 413.379 495.552 413.772V451.889C495.342 452.256 495.106 452.439 494.844 452.439H494.766Z" fill="#4066E0"/>
<path d="M501.564 436.406C501.564 433.551 502.69 430.984 504.943 428.704C507.196 426.425 509.633 425.286 512.252 425.286C513.719 425.286 514.872 425.6 515.71 426.229C516.549 426.858 516.981 427.683 517.007 428.704C517.007 429.464 516.758 430.106 516.261 430.63C515.763 431.154 515.134 431.429 514.374 431.455C513.877 431.455 513.484 431.324 513.196 431.062C512.907 430.8 512.763 430.407 512.763 429.883C512.763 429.359 512.907 428.914 513.196 428.547C513.484 428.181 513.772 427.905 514.06 427.722C514.348 427.539 514.532 427.46 514.61 427.486H514.649C514.649 427.434 514.571 427.355 514.414 427.251C514.257 427.146 513.981 427.041 513.588 426.936C513.196 426.831 512.75 426.779 512.252 426.779C511.467 426.779 510.72 426.962 510.013 427.329C509.462 427.565 508.899 427.971 508.323 428.547C507.17 429.7 506.332 431.324 505.808 433.42C505.284 435.516 505.009 437.035 504.983 437.978C504.983 439.183 505.323 440.087 506.004 440.69C506.581 441.318 507.34 441.633 508.284 441.633H508.441C511.375 441.633 513.798 440.519 515.71 438.293C515.946 438.031 516.103 437.9 516.182 437.9C516.287 437.9 516.457 438.018 516.693 438.253C516.929 438.489 517.06 438.673 517.086 438.804C517.112 438.934 516.994 439.131 516.732 439.393C516.47 439.655 516.09 440.022 515.593 440.493C515.095 440.965 514.505 441.358 513.824 441.672C513.143 441.986 512.305 442.314 511.309 442.655C510.314 442.995 509.266 443.139 508.166 443.087C506.201 443.087 504.616 442.458 503.411 441.201C502.206 439.943 501.59 438.345 501.564 436.406Z" fill="#4066E0"/>
<path d="M525.141 443.087C523.177 443.087 521.592 442.445 520.387 441.161C519.182 439.878 518.579 438.332 518.579 436.524C518.579 434.822 518.972 433.21 519.758 431.691C520.544 430.172 521.618 428.849 522.98 427.722C524.971 426.124 527.001 425.325 529.071 425.325C529.909 425.325 530.433 425.338 530.643 425.364C530.983 425.443 531.324 425.535 531.665 425.639C532.005 425.744 532.464 425.954 533.04 426.268C533.616 426.583 534.088 426.975 534.455 427.447C534.821 427.919 535.162 428.56 535.476 429.373C535.791 430.185 535.948 431.102 535.948 432.123C535.948 434.926 534.821 437.454 532.568 439.707C530.315 441.96 527.84 443.087 525.141 443.087ZM521.998 437.939C521.998 439.249 522.338 440.192 523.019 440.768C523.701 441.345 524.473 441.633 525.338 441.633C526.491 441.633 527.578 441.214 528.599 440.375C529.621 439.537 530.433 438.437 531.036 437.074C531.272 436.524 531.573 435.555 531.94 434.167C532.306 432.778 532.49 431.573 532.49 430.551C532.49 429.399 532.254 428.521 531.782 427.919C531.154 427.133 530.315 426.74 529.268 426.74C527.617 426.74 526.163 427.499 524.906 429.019C523.936 430.172 523.216 431.704 522.744 433.616C522.273 435.529 522.024 436.97 521.998 437.939Z" fill="#4066E0"/>
<path d="M541.449 431.298C541.449 430.46 541.659 429.608 542.078 428.744C542.497 427.879 543.231 427.08 544.279 426.347C545.326 425.613 546.597 425.26 548.09 425.286C549.714 425.286 550.893 425.639 551.627 426.347C552.36 427.054 552.74 427.84 552.766 428.704C552.766 429.543 552.544 430.158 552.098 430.551C551.653 430.944 551.155 431.154 550.605 431.18C550.265 431.18 549.95 431.075 549.662 430.866C549.374 430.656 549.217 430.316 549.191 429.844C549.191 429.425 549.308 429.058 549.544 428.744C549.78 428.429 550.003 428.194 550.212 428.036C550.422 427.879 550.592 427.801 550.723 427.801C550.749 427.801 550.762 427.788 550.762 427.761C550.762 427.683 550.671 427.565 550.487 427.408C550.304 427.251 549.976 427.106 549.505 426.975C549.033 426.844 548.522 426.766 547.972 426.74C546.715 426.74 545.798 427.08 545.222 427.761C544.645 428.443 544.344 429.137 544.318 429.844C544.318 430.499 544.567 430.957 545.064 431.219C545.562 431.481 546.283 431.704 547.226 431.887C548.169 432.071 548.85 432.267 549.269 432.477C550.998 433.237 551.863 434.494 551.863 436.249C551.863 436.983 551.719 437.716 551.43 438.45C551.142 439.183 550.71 439.917 550.134 440.65C549.557 441.384 548.732 441.96 547.658 442.379C546.584 442.799 545.353 443.021 543.964 443.047C541.947 443.047 540.519 442.668 539.681 441.908C538.843 441.148 538.41 440.257 538.384 439.236C538.384 438.214 538.659 437.481 539.209 437.035C539.76 436.59 540.336 436.367 540.938 436.367C541.331 436.367 541.698 436.485 542.039 436.721C542.379 436.957 542.563 437.363 542.589 437.939C542.589 438.62 542.353 439.196 541.881 439.668C541.41 440.14 541.004 440.375 540.663 440.375C540.611 440.402 540.572 440.415 540.545 440.415C540.519 440.415 540.506 440.441 540.506 440.493C540.532 440.572 540.637 440.677 540.82 440.808C541.004 440.939 541.41 441.109 542.039 441.318C542.667 441.528 543.388 441.62 544.2 441.594C545.143 441.594 545.955 441.449 546.636 441.161C547.317 440.873 547.815 440.506 548.13 440.061C548.444 439.616 548.667 439.21 548.798 438.843C548.929 438.476 548.994 438.149 548.994 437.86C548.994 437.127 548.719 436.577 548.169 436.21C547.619 435.843 546.99 435.621 546.283 435.542C545.575 435.463 544.802 435.267 543.964 434.953C543.126 434.638 542.51 434.18 542.117 433.577C541.672 432.922 541.449 432.163 541.449 431.298Z" fill="#4066E0"/>
<path d="M558.425 432.831C558.425 431.023 558.556 429.307 558.818 427.683C559.08 426.059 559.381 424.657 559.722 423.478C560.062 422.299 560.547 421.147 561.176 420.02C561.804 418.894 562.302 418.016 562.669 417.387C563.036 416.759 563.586 416.077 564.319 415.344C565.053 414.61 565.485 414.165 565.616 414.008C565.747 413.851 566.075 413.576 566.599 413.183H567.109H567.267C567.633 413.183 567.817 413.301 567.817 413.536C567.817 413.615 567.594 413.89 567.149 414.362C566.703 414.833 566.166 415.527 565.538 416.444C564.909 417.361 564.267 418.488 563.612 419.824C562.957 421.16 562.407 422.967 561.962 425.246C561.516 427.526 561.294 430.054 561.294 432.831C561.294 435.607 561.516 438.122 561.962 440.375C562.407 442.628 562.944 444.449 563.573 445.837C564.201 447.226 564.843 448.352 565.498 449.217C566.153 450.081 566.703 450.776 567.149 451.3C567.594 451.824 567.817 452.099 567.817 452.125C567.817 452.361 567.62 452.478 567.227 452.478H567.109H566.599L565.498 451.535C563.036 449.309 561.241 446.532 560.115 443.205C558.988 439.878 558.425 436.42 558.425 432.831Z" fill="#4066E0"/>
<path d="M571.393 434.795C571.393 432.123 571.903 429.307 572.925 426.347C573.947 423.386 575.335 420.832 577.091 418.684C578.846 416.536 580.666 415.305 582.553 414.99C582.579 414.99 582.684 414.99 582.867 414.99C583.05 414.99 583.208 414.977 583.339 414.951C584.753 415.056 585.854 415.698 586.639 416.876C587.661 418.448 588.172 420.557 588.172 423.203C588.172 426.216 587.583 429.281 586.404 432.398C585.225 435.516 583.718 438.07 581.885 440.061C580.051 442.052 578.296 443.047 576.619 443.047H576.344C575.401 443.047 574.589 442.785 573.908 442.262C573.226 441.738 572.716 441.043 572.375 440.179C572.034 439.314 571.786 438.437 571.628 437.546C571.471 436.655 571.393 435.738 571.393 434.795ZM585.068 420.413C585.068 417.741 584.373 416.405 582.985 416.405C582.042 416.405 581.125 416.994 580.234 418.173C579.343 419.352 578.61 420.688 578.034 422.181C577.457 423.675 577.012 424.984 576.698 426.111C576.383 427.237 576.213 427.892 576.187 428.076C577.47 428.102 578.741 428.115 579.998 428.115L583.81 428.076C583.836 428.05 583.941 427.617 584.124 426.779C584.308 425.941 584.517 424.893 584.753 423.635C584.989 422.378 585.094 421.304 585.068 420.413ZM574.458 437.467C574.458 440.244 575.152 441.633 576.54 441.633C576.933 441.633 577.353 441.502 577.798 441.24C578.243 440.978 578.78 440.48 579.409 439.747C580.038 439.013 580.666 437.874 581.295 436.328C581.924 434.782 582.553 432.87 583.181 430.591L583.378 429.923H575.715C575.715 430.001 575.597 430.499 575.362 431.416C575.126 432.333 574.916 433.354 574.733 434.481C574.549 435.607 574.458 436.603 574.458 437.467Z" fill="#4066E0"/>
<path d="M590.805 413.222L590.962 413.183C591.093 413.183 591.224 413.183 591.355 413.183H591.826L592.927 414.126C595.389 416.352 597.184 419.129 598.31 422.456C599.437 425.783 600 429.242 600 432.831C600 434.612 599.869 436.328 599.607 437.978C599.345 439.629 599.044 441.03 598.703 442.183C598.363 443.336 597.878 444.488 597.249 445.641C596.621 446.794 596.123 447.671 595.756 448.274C595.389 448.876 594.852 449.544 594.145 450.278C593.438 451.011 593.018 451.444 592.887 451.575C592.756 451.706 592.455 451.955 591.984 452.321C591.905 452.4 591.853 452.452 591.826 452.478H591.355C591.145 452.478 591.001 452.478 590.923 452.478C590.844 452.478 590.779 452.439 590.726 452.361C590.674 452.282 590.634 452.164 590.608 452.007C590.634 451.981 590.779 451.81 591.041 451.496C595.101 447.278 597.131 441.056 597.131 432.831C597.131 424.605 595.101 418.383 591.041 414.165C590.779 413.851 590.634 413.68 590.608 413.654C590.608 413.445 590.674 413.301 590.805 413.222Z" fill="#4066E0"/>
<path d="M91.8315 287.518C91.8315 288.15 92.437 288.518 93.6479 288.623C94.1218 288.623 94.3587 288.768 94.3587 289.058C94.3587 289.084 94.3324 289.255 94.2797 289.571C94.2008 289.94 94.1218 290.177 94.0428 290.282C93.9638 290.387 93.7927 290.44 93.5295 290.44C93.4768 290.44 93.3189 290.44 93.0556 290.44C92.7923 290.44 92.3448 290.427 91.713 290.4C91.0812 290.374 90.2388 290.361 89.1858 290.361C87.3166 290.361 86.1188 290.387 85.5923 290.44H85.2764C85.0921 290.256 85 290.111 85 290.006C85.0527 289.295 85.2238 288.834 85.5133 288.623H86.0662C87.909 288.544 89.2516 287.886 90.094 286.649C90.2519 286.491 92.6344 282.476 97.2414 274.605C101.848 266.734 104.191 262.746 104.27 262.64C104.455 262.324 104.77 262.166 105.218 262.166H105.534H106.205C106.363 262.403 106.442 262.535 106.442 262.561L107.548 275.316C108.285 283.819 108.68 288.11 108.732 288.189C108.864 288.479 109.72 288.623 111.299 288.623C111.957 288.623 112.286 288.755 112.286 289.018C112.286 289.071 112.247 289.255 112.168 289.571C112.089 289.966 112.023 290.203 111.97 290.282C111.918 290.361 111.734 290.414 111.418 290.44C111.339 290.44 111.154 290.44 110.865 290.44C110.575 290.44 110.062 290.427 109.325 290.4C108.588 290.374 107.627 290.361 106.442 290.361C103.968 290.361 102.348 290.387 101.585 290.44H101.111C100.953 290.282 100.874 290.164 100.874 290.085C100.874 290.006 100.901 289.769 100.953 289.374C101.059 289.032 101.138 288.821 101.19 288.742L101.348 288.623H102.138C103.559 288.544 104.402 288.321 104.665 287.952L104.191 282.029H94.7931L93.4505 284.319C92.3711 286.136 91.8315 287.202 91.8315 287.518ZM103.994 280.173C103.994 279.883 103.836 277.83 103.52 274.013C103.204 270.196 103.02 268.274 102.967 268.248L101.901 269.946C101.48 270.656 100.651 272.065 99.4132 274.171L95.8593 280.173L99.9266 280.212C102.638 280.212 103.994 280.199 103.994 280.173Z" fill="#4066E0"/>
<path d="M113.82 288.351C113.82 288.09 113.96 287.643 114.239 287.011C114.518 286.378 114.965 285.717 115.579 285.028C116.193 284.34 116.882 284.005 117.645 284.023C118.408 284.023 119.022 284.237 119.488 284.665C119.953 285.094 120.195 285.689 120.214 286.452C120.176 286.806 120.148 287.001 120.13 287.038C120.13 287.094 119.981 287.522 119.683 288.323C119.385 289.123 119.078 290.026 118.762 291.031C118.445 292.036 118.297 292.836 118.315 293.432C118.315 294.232 118.445 294.79 118.706 295.107C118.967 295.423 119.357 295.591 119.879 295.609C120.307 295.609 120.707 295.507 121.079 295.302C121.451 295.098 121.74 294.884 121.945 294.66C122.149 294.437 122.401 294.13 122.698 293.739C122.698 293.72 122.745 293.534 122.838 293.18C122.931 292.827 123.061 292.278 123.229 291.533C123.396 290.789 123.573 290.1 123.759 289.467C124.467 286.676 124.857 285.215 124.932 285.084C125.174 284.582 125.574 284.33 126.132 284.33C126.374 284.33 126.57 284.396 126.719 284.526C126.867 284.656 126.97 284.768 127.026 284.861C127.082 284.954 127.1 285.038 127.082 285.112C127.082 285.354 126.626 287.308 125.714 290.975C124.802 294.642 124.28 296.652 124.15 297.005C123.629 298.55 122.726 299.778 121.442 300.69C120.158 301.602 118.874 302.068 117.589 302.086C116.752 302.086 116.017 301.882 115.384 301.472C114.751 301.063 114.435 300.449 114.435 299.63C114.435 299.22 114.5 298.876 114.63 298.597C114.76 298.317 114.937 298.113 115.16 297.982C115.384 297.852 115.57 297.759 115.719 297.703C115.868 297.647 116.026 297.619 116.193 297.619C117.012 297.619 117.422 298.01 117.422 298.792C117.422 299.164 117.31 299.49 117.087 299.769C116.863 300.048 116.649 300.234 116.445 300.328C116.24 300.421 116.119 300.467 116.082 300.467L115.998 300.495C116.035 300.588 116.212 300.7 116.528 300.83C116.845 300.96 117.161 301.026 117.478 301.026H117.701C118.017 301.026 118.259 301.007 118.427 300.97C119.041 300.802 119.609 300.449 120.13 299.909C120.651 299.369 121.051 298.792 121.33 298.178C121.61 297.564 121.824 297.043 121.972 296.614C122.121 296.186 122.196 295.907 122.196 295.777L122.028 295.889C121.917 295.963 121.74 296.065 121.498 296.196C121.256 296.326 121.014 296.438 120.772 296.531C120.4 296.624 120.037 296.67 119.683 296.67C118.827 296.67 118.073 296.466 117.422 296.056C116.77 295.647 116.342 294.986 116.138 294.074C116.119 293.944 116.11 293.655 116.11 293.208C116.11 292.148 116.435 290.761 117.087 289.049C117.738 287.336 118.064 286.247 118.064 285.782C118.064 285.764 118.064 285.745 118.064 285.726C118.064 285.559 118.064 285.447 118.064 285.391C118.064 285.335 118.027 285.27 117.952 285.196C117.878 285.121 117.775 285.084 117.645 285.084H117.533C117.105 285.084 116.715 285.261 116.361 285.615C116.007 285.968 115.728 286.35 115.523 286.759C115.319 287.169 115.16 287.56 115.049 287.932C114.937 288.304 114.863 288.509 114.825 288.546C114.788 288.583 114.639 288.602 114.379 288.602H113.988C113.876 288.49 113.82 288.406 113.82 288.351Z" fill="#4066E0"/>
<path d="M142.072 276.738C142.072 276.395 142.257 276.132 142.625 275.948H167.779C168.174 276.158 168.371 276.422 168.371 276.738C168.371 277.027 168.187 277.277 167.819 277.488L155.261 277.527H142.704C142.283 277.396 142.072 277.132 142.072 276.738ZM142.072 284.398C142.072 284.003 142.283 283.74 142.704 283.608H167.819C168.187 283.872 168.371 284.135 168.371 284.398C168.371 284.74 168.174 285.004 167.779 285.188H142.625C142.257 285.004 142.072 284.74 142.072 284.398Z" fill="#4066E0"/>
<path d="M187.038 300.272H186.959C186.643 300.272 186.406 300.088 186.248 299.72V280.528L186.287 261.337C186.551 260.995 186.801 260.824 187.038 260.824C187.38 260.824 187.643 261.021 187.827 261.416V299.72C187.617 300.088 187.38 300.272 187.117 300.272H187.038Z" fill="#4066E0"/>
<path d="M200.74 287.518C200.74 288.15 201.345 288.518 202.556 288.623C203.03 288.623 203.267 288.768 203.267 289.058C203.267 289.084 203.241 289.255 203.188 289.571C203.109 289.94 203.03 290.177 202.951 290.282C202.872 290.387 202.701 290.44 202.438 290.44C202.385 290.44 202.227 290.44 201.964 290.44C201.701 290.44 201.253 290.427 200.622 290.4C199.99 290.374 199.147 290.361 198.094 290.361C196.225 290.361 195.027 290.387 194.501 290.44H194.185C194.001 290.256 193.909 290.111 193.909 290.006C193.961 289.295 194.132 288.834 194.422 288.623H194.975C196.818 288.544 198.16 287.886 199.003 286.649C199.16 286.491 201.543 282.476 206.15 274.605C210.757 266.734 213.1 262.746 213.179 262.64C213.363 262.324 213.679 262.166 214.127 262.166H214.442H215.114C215.272 262.403 215.351 262.535 215.351 262.561L216.456 275.316C217.193 283.819 217.588 288.11 217.641 288.189C217.773 288.479 218.628 288.623 220.208 288.623C220.866 288.623 221.195 288.755 221.195 289.018C221.195 289.071 221.155 289.255 221.076 289.571C220.997 289.966 220.932 290.203 220.879 290.282C220.826 290.361 220.642 290.414 220.326 290.44C220.247 290.44 220.063 290.44 219.773 290.44C219.484 290.44 218.97 290.427 218.233 290.4C217.496 290.374 216.535 290.361 215.351 290.361C212.876 290.361 211.257 290.387 210.494 290.44H210.02C209.862 290.282 209.783 290.164 209.783 290.085C209.783 290.006 209.809 289.769 209.862 289.374C209.967 289.032 210.046 288.821 210.099 288.742L210.257 288.623H211.046C212.468 288.544 213.31 288.321 213.574 287.952L213.1 282.029H203.702L202.359 284.319C201.28 286.136 200.74 287.202 200.74 287.518ZM212.902 280.173C212.902 279.883 212.744 277.83 212.429 274.013C212.113 270.196 211.928 268.274 211.876 268.248L210.81 269.946C210.388 270.656 209.559 272.065 208.322 274.171L204.768 280.173L208.835 280.212C211.547 280.212 212.902 280.199 212.902 280.173Z" fill="#4066E0"/>
<path d="M217.838 252.768C217.838 252.558 217.904 252.373 218.036 252.215C218.167 252.057 218.365 251.978 218.628 251.978C218.812 251.978 218.97 252.044 219.102 252.176C219.234 252.281 219.365 252.531 219.497 252.926C219.76 253.9 220.3 254.65 221.116 255.177C221.406 255.361 221.55 255.598 221.55 255.888C221.55 256.125 221.511 256.283 221.432 256.362C221.353 256.441 221.169 256.559 220.879 256.717C219.747 257.296 218.76 258.125 217.917 259.205C217.865 259.257 217.799 259.336 217.72 259.442C217.641 259.547 217.575 259.626 217.523 259.679C217.47 259.731 217.404 259.758 217.325 259.758C217.246 259.758 217.154 259.771 217.049 259.797C216.864 259.797 216.693 259.731 216.535 259.6C216.377 259.468 216.285 259.271 216.259 259.007C216.259 258.507 216.878 257.731 218.115 256.677H211.362L204.61 256.638C204.268 256.401 204.097 256.151 204.097 255.888C204.097 255.703 204.268 255.44 204.61 255.098H218.786C218.154 254.098 217.838 253.321 217.838 252.768Z" fill="#4066E0"/>
<path d="M228.184 300.272H228.105C227.789 300.272 227.553 300.088 227.395 299.72V280.528L227.434 261.337C227.697 260.995 227.947 260.824 228.184 260.824C228.527 260.824 228.79 261.021 228.974 261.416V299.72C228.764 300.088 228.527 300.272 228.263 300.272H228.184Z" fill="#4066E0"/>
<path d="M238.846 279.028C238.846 278.185 239.057 277.33 239.478 276.461C239.899 275.592 240.636 274.789 241.689 274.052C242.742 273.315 244.019 272.96 245.52 272.986C247.152 272.986 248.336 273.342 249.074 274.052C249.811 274.763 250.192 275.553 250.219 276.422C250.219 277.264 249.995 277.883 249.547 278.278C249.1 278.672 248.6 278.883 248.047 278.909C247.705 278.909 247.389 278.804 247.099 278.593C246.81 278.383 246.652 278.041 246.625 277.567C246.625 277.146 246.744 276.777 246.981 276.461C247.218 276.145 247.441 275.908 247.652 275.75C247.863 275.592 248.034 275.513 248.165 275.513C248.192 275.513 248.205 275.5 248.205 275.474C248.205 275.395 248.113 275.276 247.928 275.118C247.744 274.961 247.415 274.816 246.941 274.684C246.467 274.552 245.954 274.474 245.401 274.447C244.138 274.447 243.216 274.789 242.637 275.474C242.058 276.158 241.755 276.856 241.729 277.567C241.729 278.225 241.979 278.686 242.479 278.949C242.979 279.212 243.703 279.436 244.651 279.62C245.599 279.804 246.283 280.002 246.704 280.212C248.442 280.976 249.311 282.24 249.311 284.003C249.311 284.74 249.166 285.478 248.876 286.215C248.587 286.952 248.152 287.689 247.573 288.426C246.994 289.163 246.165 289.742 245.085 290.164C244.006 290.585 242.769 290.808 241.373 290.835C239.346 290.835 237.912 290.453 237.069 289.69C236.227 288.926 235.792 288.031 235.766 287.004C235.766 285.978 236.042 285.241 236.595 284.793C237.148 284.346 237.727 284.122 238.333 284.122C238.728 284.122 239.096 284.24 239.438 284.477C239.781 284.714 239.965 285.122 239.991 285.701C239.991 286.386 239.754 286.965 239.281 287.439C238.807 287.913 238.399 288.15 238.056 288.15C238.004 288.176 237.964 288.189 237.938 288.189C237.912 288.189 237.898 288.215 237.898 288.268C237.925 288.347 238.03 288.452 238.214 288.584C238.399 288.716 238.807 288.887 239.438 289.097C240.07 289.308 240.794 289.4 241.61 289.374C242.558 289.374 243.374 289.229 244.059 288.939C244.743 288.65 245.243 288.281 245.559 287.834C245.875 287.386 246.099 286.978 246.23 286.61C246.362 286.241 246.428 285.912 246.428 285.622C246.428 284.885 246.151 284.332 245.599 283.964C245.046 283.595 244.414 283.372 243.703 283.293C242.992 283.214 242.216 283.016 241.373 282.7C240.531 282.384 239.912 281.924 239.517 281.318C239.07 280.66 238.846 279.897 238.846 279.028Z" fill="#4066E0"/>
<path d="M259.459 266.747C259.459 266.115 259.709 265.562 260.209 265.088C260.709 264.615 261.289 264.365 261.947 264.338C262.421 264.338 262.816 264.496 263.131 264.812C263.447 265.128 263.618 265.523 263.645 265.997C263.645 266.602 263.382 267.155 262.855 267.655C262.329 268.155 261.749 268.419 261.118 268.445C260.723 268.445 260.354 268.313 260.012 268.05C259.67 267.787 259.485 267.352 259.459 266.747ZM253.022 279.107C253.022 278.896 253.141 278.488 253.378 277.883C253.615 277.277 253.931 276.606 254.326 275.869C254.72 275.132 255.3 274.46 256.063 273.855C256.826 273.249 257.616 272.96 258.432 272.986C259.459 272.986 260.315 273.289 260.999 273.894C261.684 274.5 262.039 275.316 262.065 276.343C262.065 276.79 261.881 277.527 261.512 278.554C261.144 279.581 260.617 280.963 259.933 282.7C259.248 284.438 258.696 285.925 258.274 287.162C258.143 287.742 258.077 288.163 258.077 288.426C258.077 289.084 258.301 289.413 258.748 289.413C258.985 289.413 259.235 289.374 259.499 289.295C259.762 289.216 260.065 289.032 260.407 288.742C260.749 288.452 261.104 287.992 261.473 287.36C261.841 286.728 262.171 285.951 262.46 285.03C262.539 284.714 262.605 284.53 262.658 284.477C262.71 284.425 262.934 284.398 263.329 284.398C263.855 284.398 264.119 284.53 264.119 284.793C264.119 285.004 264 285.412 263.763 286.017C263.526 286.623 263.197 287.294 262.776 288.031C262.355 288.768 261.763 289.426 260.999 290.006C260.236 290.585 259.42 290.874 258.551 290.874C257.708 290.874 256.932 290.598 256.221 290.045C255.51 289.492 255.142 288.65 255.115 287.518C255.115 287.07 255.181 286.649 255.313 286.254C255.444 285.859 256.01 284.359 257.011 281.753C258.011 279.094 258.59 277.501 258.748 276.974C258.906 276.448 258.998 275.935 259.025 275.434C259.025 274.803 258.801 274.487 258.353 274.487H258.274C257.485 274.487 256.761 274.921 256.103 275.79C255.444 276.659 254.944 277.764 254.602 279.107C254.576 279.133 254.549 279.173 254.523 279.225C254.497 279.278 254.484 279.317 254.484 279.344C254.484 279.37 254.457 279.396 254.405 279.423C254.352 279.449 254.312 279.462 254.286 279.462C254.26 279.462 254.207 279.462 254.128 279.462C254.049 279.462 253.944 279.462 253.812 279.462H253.259C253.101 279.304 253.022 279.186 253.022 279.107Z" fill="#4066E0"/>
<path d="M266.646 279.107C266.672 278.949 266.712 278.738 266.764 278.475C266.817 278.212 266.975 277.712 267.238 276.974C267.501 276.237 267.765 275.619 268.028 275.119C268.291 274.618 268.726 274.131 269.331 273.657C269.937 273.184 270.542 272.96 271.148 272.986C272.095 272.986 272.885 273.223 273.517 273.697C274.149 274.171 274.544 274.618 274.701 275.04C274.859 275.461 274.938 275.737 274.938 275.869C274.938 275.921 274.952 275.948 274.978 275.948L275.412 275.513C277.018 273.829 278.848 272.986 280.901 272.986C282.323 272.986 283.468 273.342 284.337 274.052C285.205 274.763 285.653 275.803 285.679 277.172C285.706 278.541 285.205 280.607 284.179 283.372C283.152 286.136 282.652 287.807 282.678 288.387C282.678 289.071 282.902 289.413 283.349 289.413C283.507 289.413 283.626 289.4 283.705 289.374C284.468 289.242 285.153 288.742 285.758 287.873C286.364 287.004 286.824 285.951 287.14 284.714C287.193 284.504 287.456 284.398 287.93 284.398C288.457 284.398 288.72 284.504 288.72 284.714C288.72 284.74 288.667 284.938 288.562 285.306C288.351 286.07 288.062 286.82 287.693 287.557C287.325 288.294 286.719 289.032 285.877 289.769C285.034 290.506 284.126 290.861 283.152 290.835C281.915 290.835 281.02 290.479 280.467 289.769C279.914 289.058 279.638 288.321 279.638 287.557C279.638 287.057 280.111 285.478 281.059 282.819C282.007 280.16 282.494 278.159 282.52 276.816C282.52 275.263 281.941 274.487 280.783 274.487H280.585C278.321 274.487 276.413 275.816 274.859 278.475L274.583 278.949L273.28 284.24C272.411 287.689 271.911 289.545 271.779 289.808C271.437 290.519 270.871 290.874 270.081 290.874C269.739 290.874 269.463 290.795 269.252 290.637C269.041 290.479 268.897 290.321 268.818 290.164C268.739 290.006 268.712 289.874 268.739 289.769C268.739 289.426 269.239 287.281 270.239 283.332C271.24 279.383 271.766 277.238 271.819 276.895C271.845 276.764 271.858 276.461 271.858 275.987C271.858 274.961 271.542 274.447 270.911 274.447C269.91 274.447 269.081 275.763 268.423 278.396C268.265 278.923 268.186 279.199 268.186 279.225C268.133 279.383 267.883 279.462 267.436 279.462H266.883C266.725 279.304 266.646 279.186 266.646 279.107Z" fill="#4066E0"/>
<path d="M293.221 280.568C293.221 278.751 293.353 277.027 293.616 275.395C293.88 273.763 294.182 272.354 294.525 271.17C294.867 269.985 295.354 268.827 295.986 267.695C296.617 266.563 297.118 265.681 297.486 265.049C297.855 264.417 298.408 263.733 299.145 262.996C299.882 262.258 300.316 261.811 300.448 261.653C300.579 261.495 300.908 261.219 301.435 260.824H301.948H302.106C302.475 260.824 302.659 260.942 302.659 261.179C302.659 261.258 302.435 261.535 301.988 262.008C301.54 262.482 301.001 263.18 300.369 264.101C299.737 265.023 299.092 266.155 298.434 267.497C297.776 268.84 297.223 270.656 296.775 272.947C296.328 275.237 296.104 277.777 296.104 280.568C296.104 283.358 296.328 285.886 296.775 288.15C297.223 290.414 297.763 292.243 298.394 293.638C299.026 295.034 299.671 296.166 300.329 297.034C300.987 297.903 301.54 298.601 301.988 299.127C302.435 299.654 302.659 299.93 302.659 299.957C302.659 300.194 302.462 300.312 302.067 300.312H301.948H301.435L300.329 299.364C297.855 297.127 296.051 294.336 294.919 290.993C293.787 287.649 293.221 284.174 293.221 280.568Z" fill="#4066E0"/>
<path d="M306.253 282.542C306.253 279.857 306.766 277.027 307.793 274.052C308.819 271.078 310.215 268.511 311.978 266.352C313.742 264.193 315.572 262.956 317.467 262.64C317.494 262.64 317.599 262.64 317.783 262.64C317.967 262.64 318.125 262.627 318.257 262.601C319.679 262.706 320.784 263.351 321.574 264.536C322.601 266.115 323.114 268.234 323.114 270.893C323.114 273.921 322.522 277.001 321.337 280.134C320.152 283.266 318.639 285.833 316.796 287.834C314.953 289.834 313.189 290.835 311.505 290.835H311.228C310.28 290.835 309.464 290.572 308.78 290.045C308.095 289.519 307.582 288.821 307.24 287.952C306.898 287.083 306.647 286.202 306.49 285.306C306.332 284.411 306.253 283.49 306.253 282.542ZM319.994 268.09C319.994 265.404 319.297 264.062 317.902 264.062C316.954 264.062 316.032 264.654 315.137 265.839C314.242 267.023 313.505 268.366 312.926 269.867C312.347 271.367 311.899 272.683 311.583 273.815C311.268 274.947 311.096 275.606 311.07 275.79C312.36 275.816 313.637 275.829 314.901 275.829L318.731 275.79C318.757 275.763 318.862 275.329 319.047 274.487C319.231 273.644 319.442 272.591 319.679 271.328C319.916 270.064 320.021 268.985 319.994 268.09ZM309.333 285.227C309.333 288.018 310.03 289.413 311.426 289.413C311.82 289.413 312.242 289.282 312.689 289.018C313.137 288.755 313.676 288.255 314.308 287.518C314.94 286.781 315.572 285.636 316.204 284.082C316.835 282.529 317.467 280.607 318.099 278.317L318.296 277.646H310.596C310.596 277.725 310.478 278.225 310.241 279.146C310.004 280.068 309.793 281.094 309.609 282.226C309.425 283.358 309.333 284.359 309.333 285.227Z" fill="#4066E0"/>
<path d="M325.76 260.863L325.918 260.824C326.049 260.824 326.181 260.824 326.313 260.824H326.786L327.892 261.771C330.367 264.009 332.17 266.8 333.302 270.143C334.434 273.486 335 276.961 335 280.568C335 282.358 334.868 284.082 334.605 285.741C334.342 287.399 334.039 288.808 333.697 289.966C333.355 291.124 332.868 292.283 332.236 293.441C331.604 294.599 331.104 295.481 330.735 296.087C330.367 296.692 329.827 297.364 329.116 298.101C328.405 298.838 327.984 299.272 327.853 299.404C327.721 299.535 327.418 299.785 326.944 300.154C326.865 300.233 326.813 300.286 326.786 300.312H326.313C326.102 300.312 325.957 300.312 325.878 300.312C325.799 300.312 325.733 300.273 325.681 300.194C325.628 300.115 325.589 299.996 325.562 299.838C325.589 299.812 325.733 299.641 325.997 299.325C330.077 295.086 332.117 288.834 332.117 280.568C332.117 272.302 330.077 266.049 325.997 261.811C325.733 261.495 325.589 261.324 325.562 261.298C325.562 261.087 325.628 260.942 325.76 260.863Z" fill="#4066E0"/>
</svg>
