<svg width="751" height="761" viewBox="0 0 751 761" fill="none" xmlns="http://www.w3.org/2000/svg">
<path d="M562.237 235.445L528.122 241.461L550.389 267.997L562.237 235.445ZM357.333 411.296L543.482 255.099L539.625 250.502L353.476 406.7L357.333 411.296Z" fill="#6C63FF"/>
<path d="M357.184 409.992L359.482 411.92L363.339 407.324L361.041 405.396L357.184 409.992ZM152.28 234.141L164.128 266.693L186.395 240.156L152.28 234.141ZM361.041 405.396L174.892 249.198L171.035 253.795L357.184 409.992L361.041 405.396Z" fill="#EF224B"/>
<path d="M454 376.746C454 371.968 454.913 366.933 456.74 361.641C458.567 356.348 461.049 351.781 464.187 347.94C467.326 344.1 470.581 341.898 473.953 341.336C474 341.336 474.187 341.336 474.515 341.336C474.843 341.336 475.124 341.313 475.358 341.266C477.888 341.453 479.855 342.601 481.26 344.708C483.087 347.519 484 351.289 484 356.02C484 361.406 482.946 366.886 480.838 372.46C478.731 378.034 476.037 382.601 472.759 386.16C469.48 389.72 466.342 391.5 463.344 391.5H462.852C461.166 391.5 459.714 391.032 458.496 390.095C457.279 389.158 456.365 387.917 455.756 386.371C455.148 384.826 454.703 383.256 454.422 381.664C454.141 380.071 454 378.432 454 376.746ZM478.45 351.032C478.45 346.254 477.208 343.865 474.726 343.865C473.04 343.865 471.4 344.919 469.808 347.027C468.215 349.135 466.904 351.523 465.874 354.193C464.843 356.863 464.047 359.205 463.485 361.219C462.923 363.233 462.618 364.404 462.571 364.732C464.867 364.779 467.138 364.802 469.386 364.802L476.201 364.732C476.248 364.685 476.436 363.912 476.763 362.413C477.091 360.915 477.466 359.041 477.888 356.793C478.309 354.544 478.496 352.624 478.45 351.032ZM459.48 381.523C459.48 386.488 460.721 388.971 463.204 388.971C463.906 388.971 464.656 388.737 465.452 388.268C466.248 387.8 467.208 386.91 468.333 385.598C469.457 384.287 470.581 382.249 471.705 379.486C472.829 376.722 473.953 373.303 475.077 369.228L475.429 368.034H461.728C461.728 368.174 461.518 369.064 461.096 370.704C460.674 372.343 460.3 374.17 459.972 376.184C459.644 378.198 459.48 379.978 459.48 381.523Z" fill="#6C63FF"/>
<path d="M328.318 266.88C328.516 266.581 328.815 266.432 329.213 266.432H329.81H330.779C331.078 266.731 331.227 266.93 331.227 267.029C331.227 267.377 330.481 270.436 328.989 276.205C328.641 277.598 328.293 279.065 327.945 280.607C327.596 282.149 327.298 283.292 327.049 284.038L326.751 285.232C326.751 285.282 326.975 285.307 327.422 285.307C327.87 285.307 328.666 285.456 329.81 285.754C330.954 286.053 332.147 286.475 333.391 287.023C335.579 288.067 337.394 289.584 338.837 291.573C340.279 293.563 341 295.975 341 298.81C341 301.645 340.229 304.355 338.687 306.941C337.146 309.528 335.231 311.666 332.943 313.357C330.655 315.048 328.243 316.391 325.706 317.386C323.17 318.381 320.808 318.903 318.619 318.952H318.321L316.53 326.04C316.232 327.184 315.909 328.551 315.56 330.143C315.163 331.734 314.889 332.679 314.74 332.978C314.591 333.276 314.292 333.45 313.845 333.5H313.397C312.402 333.5 311.905 333.326 311.905 332.978C311.905 332.729 312.452 330.367 313.546 325.891L315.262 319.027C315.262 318.977 315.063 318.952 314.665 318.952C314.417 318.952 313.919 318.903 313.173 318.803C312.427 318.704 311.308 318.356 309.816 317.759C308.324 317.162 306.981 316.416 305.788 315.521C304.594 314.626 303.475 313.308 302.43 311.567C301.386 309.826 300.914 307.787 301.013 305.449C301.013 302.465 301.834 299.655 303.475 297.019C305.116 294.383 307.13 292.245 309.518 290.603C311.905 288.962 314.317 287.669 316.754 286.724C319.191 285.779 321.38 285.307 323.319 285.307C323.568 285.307 323.717 285.207 323.767 285.008L326.005 275.907C327.547 269.988 328.318 266.979 328.318 266.88ZM306.907 307.016C306.907 308.707 307.205 310.174 307.802 311.418C308.399 312.661 309.219 313.606 310.264 314.253C311.308 314.899 312.203 315.347 312.949 315.595C313.695 315.844 314.541 316.043 315.486 316.192H316.008L322.946 288.067C322.747 288.067 322.474 288.092 322.126 288.142C321.777 288.191 321.056 288.39 319.962 288.738C318.868 289.087 317.823 289.484 316.829 289.932C315.834 290.38 314.74 291.101 313.546 292.096C312.353 293.09 311.333 294.234 310.488 295.527C309.592 296.92 308.772 298.586 308.026 300.526C307.28 302.813 306.907 304.977 306.907 307.016ZM335.106 297.169C335.106 295.279 334.709 293.662 333.913 292.319C333.117 290.976 332.122 290.032 330.929 289.484C329.735 288.937 328.765 288.564 328.019 288.365C327.273 288.166 326.676 288.067 326.229 288.067H326.005L322.573 302.018L318.992 316.043C318.992 316.142 319.017 316.192 319.067 316.192C319.465 316.192 320.26 316.043 321.454 315.745C322.648 315.446 323.642 315.098 324.438 314.7C326.577 313.755 328.417 312.437 329.959 310.746C331.501 309.055 332.595 307.314 333.241 305.524C333.888 303.734 334.36 302.142 334.659 300.749C334.957 299.357 335.106 298.163 335.106 297.169Z" fill="#EF224B"/>
<g filter="url(#filter0_d)">
<path d="M8 403.5H4.5V410.5H8V403.5ZM708 407L673 386.793V427.207L708 407ZM8 410.5H676.5V403.5H8V410.5Z" fill="#E9ECEF"/>
</g>
<path d="M354.5 757V760.5H361.5V757H354.5ZM358 57L337.793 92H378.207L358 57ZM361.5 757L361.5 88.5H354.5L354.5 757H361.5Z" fill="#E9ECEF"/>
<path d="M722.047 404.556C722.335 402.832 723.444 400.84 725.374 398.581C727.304 396.322 729.686 395.173 732.52 395.131C733.957 395.131 735.271 395.501 736.462 396.24C737.653 396.979 738.536 397.904 739.111 399.012C740.836 396.425 742.91 395.131 745.333 395.131C746.852 395.131 748.166 395.583 749.275 396.487C750.384 397.39 750.959 398.602 751 400.121C751 401.312 750.713 402.277 750.138 403.016C749.563 403.756 749.008 404.207 748.474 404.372C747.94 404.536 747.468 404.618 747.057 404.618C746.277 404.618 745.641 404.392 745.148 403.94C744.655 403.489 744.409 402.893 744.409 402.154C744.409 400.265 745.435 398.971 747.489 398.273C747.037 397.739 746.216 397.472 745.025 397.472C744.491 397.472 744.101 397.513 743.854 397.596C742.294 398.253 741.144 399.608 740.405 401.661C737.94 410.737 736.708 416.035 736.708 417.554C736.708 418.704 737.037 419.526 737.694 420.019C738.351 420.511 739.07 420.758 739.85 420.758C741.37 420.758 742.869 420.08 744.347 418.725C745.825 417.37 746.832 415.706 747.366 413.735C747.489 413.324 747.612 413.099 747.735 413.058C747.858 413.016 748.187 412.975 748.721 412.934H748.967C749.583 412.934 749.891 413.099 749.891 413.427C749.891 413.468 749.85 413.694 749.768 414.105C749.111 416.446 747.838 418.52 745.949 420.327C744.06 422.133 741.862 423.037 739.357 423.037C736.483 423.037 734.306 421.743 732.828 419.156C731.144 421.702 729.214 422.975 727.037 422.975H726.667C724.655 422.975 723.218 422.442 722.355 421.374C721.493 420.306 721.041 419.177 721 417.986C721 416.671 721.39 415.604 722.17 414.782C722.951 413.961 723.875 413.55 724.943 413.55C726.708 413.55 727.591 414.413 727.591 416.138C727.591 416.959 727.345 417.678 726.852 418.294C726.359 418.91 725.887 419.32 725.435 419.526C724.984 419.731 724.717 419.834 724.634 419.834L724.45 419.895C724.45 419.936 724.573 420.019 724.819 420.142C725.066 420.265 725.394 420.409 725.805 420.573C726.216 420.737 726.606 420.799 726.975 420.758C728.454 420.758 729.727 419.834 730.795 417.986C731.164 417.329 731.637 415.932 732.211 413.797C732.786 411.661 733.361 409.444 733.936 407.144C734.511 404.844 734.84 403.489 734.922 403.078C735.127 401.969 735.23 401.168 735.23 400.676C735.23 399.526 734.922 398.704 734.306 398.212C733.69 397.719 732.992 397.472 732.211 397.472C730.569 397.472 729.029 398.129 727.591 399.444C726.154 400.758 725.148 402.442 724.573 404.495C724.491 404.865 724.388 405.07 724.265 405.111C724.142 405.152 723.813 405.193 723.279 405.234H722.417C722.17 404.988 722.047 404.762 722.047 404.556Z" fill="#E9ECEF"/>
<path d="M348 10.4427C348 9.8535 348.316 8.8435 348.947 7.41268C349.578 5.98185 350.588 4.4879 351.977 2.93083C353.366 1.37375 354.923 0.616254 356.648 0.658337C358.373 0.658337 359.762 1.14229 360.814 2.1102C361.866 3.07812 362.413 4.42478 362.456 6.15018C362.371 6.94976 362.308 7.39164 362.266 7.4758C362.266 7.60205 361.93 8.56996 361.256 10.3795C360.583 12.1891 359.888 14.2301 359.173 16.5026C358.458 18.7751 358.121 20.5847 358.163 21.9314C358.163 23.7409 358.458 25.0034 359.047 25.7188C359.636 26.4342 360.52 26.813 361.698 26.8551C362.666 26.8551 363.571 26.6236 364.412 26.1607C365.254 25.6978 365.906 25.2138 366.369 24.7088C366.832 24.2038 367.4 23.5095 368.074 22.6257C368.074 22.5836 368.179 22.1628 368.389 21.3632C368.6 20.5637 368.894 19.3222 369.273 17.6389C369.652 15.9555 370.052 14.3985 370.472 12.9676C372.072 6.65518 372.955 3.35166 373.124 3.05708C373.671 1.92083 374.575 1.35271 375.838 1.35271C376.385 1.35271 376.827 1.5 377.164 1.79458C377.5 2.08916 377.732 2.34166 377.858 2.55208C377.984 2.76249 378.026 2.95187 377.984 3.1202C377.984 3.66728 376.953 8.08601 374.891 16.3764C372.829 24.6668 371.651 29.2117 371.356 30.0113C370.178 33.5042 368.137 36.2817 365.233 38.3438C362.329 40.4058 359.426 41.4579 356.522 41.5C354.628 41.5 352.966 41.0371 351.535 40.1113C350.104 39.1854 349.389 37.7967 349.389 35.945C349.389 35.0192 349.536 34.2407 349.831 33.6094C350.125 32.9782 350.525 32.5153 351.03 32.2207C351.535 31.9261 351.956 31.7157 352.292 31.5894C352.629 31.4632 352.987 31.4001 353.366 31.4001C355.217 31.4001 356.143 32.2838 356.143 34.0513C356.143 34.893 355.891 35.6294 355.386 36.2607C354.881 36.8919 354.397 37.3127 353.934 37.5231C353.471 37.7336 353.197 37.8388 353.113 37.8388L352.924 37.9019C353.008 38.1123 353.408 38.3648 354.123 38.6594C354.839 38.954 355.554 39.1013 356.269 39.1013H356.774C357.49 39.1013 358.037 39.0592 358.416 38.975C359.804 38.5963 361.088 37.7967 362.266 36.5763C363.445 35.3559 364.349 34.0513 364.981 32.6625C365.612 31.2738 366.096 30.0955 366.432 29.1276C366.769 28.1597 366.937 27.5284 366.937 27.2338L366.559 27.4863C366.306 27.6547 365.906 27.8861 365.359 28.1807C364.812 28.4753 364.265 28.7278 363.718 28.9382C362.876 29.1486 362.056 29.2538 361.256 29.2538C359.32 29.2538 357.616 28.7909 356.143 27.8651C354.67 26.9392 353.702 25.4453 353.239 23.3832C353.197 23.0886 353.176 22.4363 353.176 21.4264C353.176 19.0276 353.913 15.8924 355.386 12.0208C356.858 8.14913 357.595 5.68727 357.595 4.63519C357.595 4.59311 357.595 4.55103 357.595 4.50894C357.595 4.13019 357.595 3.8777 357.595 3.75145C357.595 3.6252 357.511 3.47791 357.342 3.30957C357.174 3.14124 356.943 3.05708 356.648 3.05708H356.396C355.428 3.05708 354.544 3.45686 353.744 4.25644C352.945 5.05602 352.314 5.91873 351.851 6.84456C351.388 7.77038 351.03 8.65413 350.777 9.49579C350.525 10.3375 350.357 10.8004 350.272 10.8845C350.188 10.9687 349.852 11.0108 349.262 11.0108H348.379C348.126 10.7583 348 10.5689 348 10.4427Z" fill="#E9ECEF"/>
<path d="M576.803 237.365C576.268 237.365 576 237.208 576 236.893C576 236.83 576.047 236.609 576.142 236.231C576.268 235.727 576.394 235.444 576.52 235.381C576.646 235.318 577.008 235.27 577.607 235.239C578.457 235.239 579.402 235.192 580.442 235.097C580.883 235.003 581.182 234.814 581.339 234.53C581.402 234.373 582.521 229.947 584.694 221.253C586.868 212.559 587.97 208.149 588.002 208.023C588.002 207.802 587.939 207.692 587.813 207.692C587.561 207.597 586.726 207.519 585.308 207.456H583.844C583.655 207.267 583.56 207.141 583.56 207.078C583.56 207.015 583.592 206.747 583.655 206.274C583.781 205.739 583.938 205.408 584.127 205.282H609.595C609.816 205.408 609.926 205.581 609.926 205.802C609.926 205.959 609.721 207.723 609.312 211.094C608.902 214.464 608.682 216.197 608.65 216.291C608.587 216.512 608.272 216.622 607.705 216.622H607.138C606.918 216.465 606.807 216.26 606.807 216.008C606.807 215.976 606.855 215.598 606.949 214.874C607.044 214.149 607.091 213.315 607.091 212.37C607.091 211.425 606.981 210.653 606.76 210.054C606.54 209.456 606.24 208.968 605.862 208.59C605.484 208.212 604.902 207.96 604.114 207.834C603.327 207.708 602.523 207.597 601.704 207.503C600.885 207.408 599.751 207.393 598.302 207.456H597.215C594.632 207.487 593.262 207.534 593.105 207.597C592.947 207.66 592.837 207.786 592.774 207.975C592.742 208.007 592.207 210.07 591.167 214.165L589.655 220.26H592.254C592.349 220.26 592.711 220.26 593.341 220.26C593.971 220.26 594.412 220.245 594.664 220.213C594.916 220.182 595.262 220.134 595.703 220.071C596.144 220.008 596.522 219.898 596.837 219.741C597.152 219.583 597.42 219.394 597.641 219.174C598.05 218.796 598.397 218.276 598.68 217.614C598.964 216.953 599.169 216.354 599.295 215.819C599.421 215.283 599.499 215 599.531 214.968C599.625 214.811 599.925 214.732 600.429 214.732H600.996C601.216 214.89 601.326 215.047 601.326 215.205C601.326 215.299 600.838 217.362 599.862 221.394C598.885 225.427 598.35 227.506 598.255 227.632C598.192 227.852 597.877 227.962 597.31 227.962H596.743C596.522 227.773 596.412 227.584 596.412 227.395C596.412 227.301 596.491 226.954 596.648 226.356C596.806 225.757 596.885 225.127 596.885 224.466C596.885 223.552 596.57 222.985 595.94 222.765C595.31 222.544 593.908 222.434 591.734 222.434H589.136L587.624 228.435C586.616 232.341 586.112 234.388 586.112 234.577C586.112 235.018 587.513 235.239 590.317 235.239H591.498C591.687 235.428 591.782 235.538 591.782 235.57C591.782 235.601 591.75 235.916 591.687 236.515C591.561 236.924 591.404 237.223 591.215 237.412H590.411C589.12 237.349 586.742 237.318 583.277 237.318C581.229 237.318 579.67 237.318 578.599 237.318C577.528 237.318 576.929 237.334 576.803 237.365Z" fill="#6C63FF"/>
<path d="M605.924 194.036C605.924 193.784 606.003 193.564 606.16 193.375C606.318 193.186 606.554 193.091 606.869 193.091C607.089 193.091 607.278 193.17 607.436 193.328C607.593 193.454 607.751 193.753 607.908 194.225C608.223 195.391 608.869 196.289 609.846 196.919C610.192 197.139 610.365 197.423 610.365 197.769C610.365 198.053 610.318 198.242 610.224 198.336C610.129 198.431 609.909 198.572 609.562 198.761C608.208 199.454 607.026 200.447 606.018 201.738C605.955 201.801 605.877 201.896 605.782 202.022C605.688 202.148 605.609 202.242 605.546 202.305C605.483 202.368 605.404 202.4 605.31 202.4C605.215 202.4 605.105 202.416 604.979 202.447C604.758 202.447 604.554 202.368 604.365 202.211C604.176 202.053 604.065 201.817 604.034 201.502C604.034 200.904 604.774 199.974 606.255 198.714H598.175L590.095 198.667C589.685 198.383 589.481 198.084 589.481 197.769C589.481 197.549 589.685 197.234 590.095 196.824H607.058C606.302 195.627 605.924 194.698 605.924 194.036Z" fill="#6C63FF"/>
<path d="M618.851 225.191L618.417 225.358C618.105 225.47 617.66 225.581 617.081 225.692C616.502 225.804 615.856 225.882 615.143 225.926H614.508V224.39H615.143C616.19 224.345 617.159 224.178 618.049 223.888C618.94 223.599 619.564 223.332 619.92 223.087C620.276 222.842 620.588 222.597 620.855 222.352C620.9 222.285 621.034 222.252 621.256 222.252C621.457 222.252 621.646 222.318 621.824 222.452V232.44L621.858 242.462C622.014 242.618 622.147 242.718 622.259 242.763C622.37 242.807 622.637 242.852 623.06 242.897C623.483 242.941 624.174 242.963 625.131 242.963H626V244.5H625.633C625.165 244.433 623.394 244.4 620.321 244.4C617.292 244.4 615.544 244.433 615.076 244.5H614.675V242.963H615.544C616.034 242.963 616.457 242.963 616.813 242.963C617.17 242.963 617.448 242.952 617.648 242.93C617.849 242.908 618.027 242.874 618.183 242.83C618.339 242.785 618.428 242.763 618.45 242.763C618.472 242.763 618.539 242.707 618.651 242.596C618.762 242.484 618.829 242.44 618.851 242.462V225.191Z" fill="#6C63FF"/>
<path d="M84.7916 236.469C84.2639 236.469 84 236.313 84 236.003C84 235.941 84.0466 235.723 84.1397 235.351C84.2639 234.854 84.3881 234.575 84.5122 234.513C84.6364 234.451 84.9934 234.404 85.5832 234.373C86.4214 234.373 87.3528 234.326 88.3772 234.233C88.8118 234.14 89.1067 233.954 89.262 233.675C89.3241 233.519 90.4261 229.158 92.5682 220.589C94.7102 212.021 95.7967 207.675 95.8278 207.551C95.8278 207.334 95.7657 207.225 95.6415 207.225C95.3932 207.132 94.5705 207.054 93.1735 206.992H91.73C91.5437 206.806 91.4506 206.682 91.4506 206.62C91.4506 206.558 91.4816 206.294 91.5437 205.828C91.6679 205.3 91.8231 204.974 92.0094 204.85H117.108C117.326 204.974 117.434 205.145 117.434 205.362C117.434 205.518 117.233 207.256 116.829 210.578C116.426 213.9 116.208 215.607 116.177 215.7C116.115 215.917 115.805 216.026 115.246 216.026H114.687C114.47 215.871 114.361 215.669 114.361 215.421C114.361 215.39 114.408 215.017 114.501 214.303C114.594 213.589 114.64 212.766 114.64 211.835C114.64 210.904 114.532 210.143 114.315 209.553C114.097 208.963 113.802 208.482 113.43 208.11C113.057 207.737 112.483 207.489 111.707 207.365C110.931 207.241 110.139 207.132 109.332 207.039C108.525 206.946 107.407 206.93 105.979 206.992H104.908C102.363 207.023 101.012 207.07 100.857 207.132C100.702 207.194 100.593 207.318 100.531 207.504C100.5 207.535 99.9722 209.569 98.9477 213.605L97.4576 219.612H100.019C100.112 219.612 100.469 219.612 101.09 219.612C101.711 219.612 102.145 219.596 102.394 219.565C102.642 219.534 102.983 219.487 103.418 219.425C103.853 219.363 104.225 219.255 104.536 219.099C104.846 218.944 105.11 218.758 105.327 218.541C105.731 218.168 106.072 217.656 106.352 217.004C106.631 216.352 106.833 215.762 106.957 215.234C107.081 214.707 107.159 214.427 107.19 214.396C107.283 214.241 107.578 214.163 108.075 214.163H108.633C108.851 214.319 108.959 214.474 108.959 214.629C108.959 214.722 108.478 216.756 107.516 220.729C106.554 224.703 106.026 226.752 105.933 226.876C105.871 227.093 105.56 227.202 105.001 227.202H104.443C104.225 227.016 104.117 226.829 104.117 226.643C104.117 226.55 104.194 226.208 104.349 225.619C104.505 225.029 104.582 224.408 104.582 223.756C104.582 222.856 104.272 222.297 103.651 222.08C103.03 221.862 101.649 221.754 99.5065 221.754H96.9454L95.4553 227.668C94.4618 231.517 93.9651 233.535 93.9651 233.721C93.9651 234.156 95.3466 234.373 98.1095 234.373H99.2737C99.4599 234.559 99.5531 234.668 99.5531 234.699C99.5531 234.73 99.522 235.04 99.4599 235.63C99.3358 236.034 99.1805 236.329 98.9943 236.515H98.2027C96.9298 236.453 94.586 236.422 91.1712 236.422C89.1533 236.422 87.6166 236.422 86.5611 236.422C85.5056 236.422 84.9158 236.437 84.7916 236.469Z" fill="#EF224B"/>
<path d="M113.49 193.767C113.49 193.519 113.568 193.302 113.723 193.116C113.878 192.929 114.111 192.836 114.422 192.836C114.639 192.836 114.825 192.914 114.98 193.069C115.136 193.193 115.291 193.488 115.446 193.954C115.757 195.102 116.393 195.987 117.355 196.608C117.697 196.825 117.868 197.105 117.868 197.446C117.868 197.726 117.821 197.912 117.728 198.005C117.635 198.098 117.417 198.238 117.076 198.424C115.741 199.107 114.577 200.085 113.583 201.358C113.521 201.42 113.444 201.513 113.351 201.637C113.257 201.761 113.18 201.854 113.118 201.916C113.056 201.979 112.978 202.01 112.885 202.01C112.792 202.01 112.683 202.025 112.559 202.056C112.342 202.056 112.14 201.979 111.954 201.823C111.767 201.668 111.659 201.435 111.628 201.125C111.628 200.535 112.357 199.619 113.816 198.377H105.853L97.8907 198.331C97.4871 198.052 97.2853 197.757 97.2853 197.446C97.2853 197.229 97.4871 196.918 97.8907 196.515H114.608C113.863 195.335 113.49 194.419 113.49 193.767Z" fill="#EF224B"/>
<path d="M122.806 229.376C122.214 229.376 121.742 229.179 121.391 228.784C121.04 228.389 120.864 227.906 120.864 227.335C120.864 225.777 121.446 224.427 122.609 223.286C123.772 222.144 125.221 221.574 126.955 221.574C128.952 221.574 130.62 222.188 131.959 223.417C133.298 224.647 133.978 226.238 134 228.191C134 229.135 133.78 230.035 133.342 230.891C132.903 231.747 132.376 232.493 131.761 233.13C131.147 233.766 130.269 234.578 129.127 235.566C128.337 236.246 127.24 237.256 125.835 238.595L123.893 240.438L126.395 240.471C129.841 240.471 131.673 240.416 131.893 240.307C132.047 240.263 132.31 239.286 132.683 237.376V237.278H134V237.376C133.978 237.442 133.835 238.441 133.572 240.372C133.309 242.304 133.144 243.313 133.078 243.401V243.5H120.864V242.874V242.479C120.864 242.326 120.93 242.161 121.062 241.986C121.193 241.81 121.522 241.426 122.049 240.833C122.686 240.131 123.234 239.516 123.695 238.99C123.893 238.77 124.266 238.364 124.815 237.772C125.363 237.179 125.737 236.773 125.934 236.553C126.132 236.334 126.45 235.972 126.889 235.467C127.328 234.962 127.635 234.589 127.811 234.348C127.986 234.106 128.239 233.777 128.568 233.36C128.897 232.943 129.127 232.592 129.259 232.306C129.391 232.021 129.555 231.703 129.753 231.352C129.951 231.001 130.093 230.649 130.181 230.298C130.269 229.947 130.346 229.618 130.411 229.311C130.477 229.003 130.51 228.641 130.51 228.224C130.51 226.841 130.137 225.645 129.391 224.636C128.645 223.626 127.58 223.121 126.197 223.121C125.473 223.121 124.837 223.308 124.288 223.681C123.739 224.054 123.355 224.416 123.136 224.767C122.916 225.118 122.806 225.327 122.806 225.393C122.806 225.415 122.861 225.426 122.971 225.426C123.366 225.426 123.772 225.579 124.189 225.887C124.606 226.194 124.815 226.699 124.815 227.401C124.815 227.95 124.639 228.411 124.288 228.784C123.937 229.157 123.443 229.354 122.806 229.376Z" fill="#EF224B"/>
<defs>
<filter id="filter0_d" x="0.5" y="386.793" width="711.5" height="48.4145" filterUnits="userSpaceOnUse" color-interpolation-filters="sRGB">
<feFlood flood-opacity="0" result="BackgroundImageFix"/>
<feColorMatrix in="SourceAlpha" type="matrix" values="0 0 0 0 0 0 0 0 0 0 0 0 0 0 0 0 0 0 127 0"/>
<feOffset dy="4"/>
<feGaussianBlur stdDeviation="2"/>
<feColorMatrix type="matrix" values="0 0 0 0 0 0 0 0 0 0 0 0 0 0 0 0 0 0 0.25 0"/>
<feBlend mode="normal" in2="BackgroundImageFix" result="effect1_dropShadow"/>
<feBlend mode="normal" in="SourceGraphic" in2="effect1_dropShadow" result="shape"/>
</filter>
</defs>
</svg>
