<svg width="801" height="206" viewBox="0 0 801 206" fill="none" xmlns="http://www.w3.org/2000/svg">
<path d="M1.48626 59.3629C0.495419 59.3629 0 59.0715 0 58.4886C0 58.372 0.0874269 57.9641 0.262281 57.2646C0.495419 56.3321 0.728558 55.8075 0.961696 55.691C1.19483 55.5744 1.86511 55.487 2.97252 55.4287C4.5462 55.4287 6.29474 55.3412 8.21813 55.1664C9.03411 54.9915 9.58782 54.6418 9.87924 54.1173C9.99581 53.8258 12.0649 45.6369 16.0866 29.5503C20.1082 13.4638 22.1482 5.30391 22.2064 5.07077C22.2064 4.66278 22.0899 4.45878 21.8567 4.45878C21.3905 4.28393 19.8459 4.13821 17.2231 4.02165H14.5129C14.1632 3.67194 13.9883 3.4388 13.9883 3.32223C13.9883 3.20566 14.0466 2.71024 14.1632 1.83597C14.3963 0.845134 14.6877 0.233145 15.0374 7.03335e-06H62.1605C62.5685 0.233145 62.7725 0.553711 62.7725 0.961703C62.7725 1.25313 62.3937 4.51706 61.636 10.7535C60.8783 16.99 60.4703 20.1956 60.412 20.3705C60.2954 20.7785 59.7126 20.9825 58.6635 20.9825H57.6143C57.2063 20.691 57.0023 20.3122 57.0023 19.8459C57.0023 19.7876 57.0898 19.0882 57.2646 17.7477C57.4395 16.4071 57.5269 14.8626 57.5269 13.114C57.5269 11.3655 57.3229 9.93753 56.9149 8.83013C56.5069 7.72272 55.9532 6.81931 55.2538 6.11989C54.5544 5.42048 53.4761 4.9542 52.019 4.72106C50.5619 4.48792 49.0756 4.28393 47.5602 4.10907C46.0448 3.93422 43.9466 3.90508 41.2655 4.02165H39.2547C34.4753 4.07993 31.94 4.16736 31.6485 4.28393C31.3571 4.4005 31.1531 4.63363 31.0366 4.98334C30.9783 5.04163 29.9874 8.85927 28.064 16.4363L25.2664 27.7143H30.0749C30.2497 27.7143 30.92 27.7143 32.0857 27.7143C33.2514 27.7143 34.0674 27.6852 34.5336 27.6269C34.9999 27.5686 35.641 27.4812 36.457 27.3646C37.273 27.2481 37.9724 27.0441 38.5553 26.7526C39.1381 26.4612 39.6335 26.1115 40.0415 25.7035C40.7992 25.0041 41.4404 24.0424 41.9649 22.8184C42.4895 21.5945 42.8683 20.487 43.1015 19.4962C43.3346 18.5054 43.4803 17.9808 43.5386 17.9225C43.7135 17.6311 44.2672 17.4854 45.1997 17.4854H46.2488C46.6568 17.7768 46.8608 18.0682 46.8608 18.3597C46.8608 18.5345 45.9574 22.3522 44.1506 29.8126C42.3438 37.273 41.3529 41.1198 41.1781 41.3529C41.0615 41.7609 40.4787 41.9649 39.4295 41.9649H38.3804C37.9724 41.6152 37.7684 41.2655 37.7684 40.9158C37.7684 40.7409 37.9141 40.0998 38.2056 38.9924C38.497 37.885 38.6427 36.7193 38.6427 35.4953C38.6427 33.8051 38.0599 32.756 36.8942 32.348C35.7285 31.94 33.1348 31.736 29.1132 31.736H24.3047L21.507 42.8392C19.6419 50.0665 18.7094 53.855 18.7094 54.2047C18.7094 55.0207 21.303 55.4287 26.4904 55.4287H28.676C29.0257 55.7784 29.2006 55.9824 29.2006 56.0407C29.2006 56.0989 29.1423 56.6818 29.0257 57.7892C28.7926 58.5469 28.5012 59.1006 28.1515 59.4503H26.6652C24.2755 59.3337 19.8751 59.2755 13.4637 59.2755C9.67525 59.2755 6.79016 59.2755 4.80848 59.2755C2.8268 59.2755 1.7194 59.3046 1.48626 59.3629Z" fill="black"/>
<path d="M54.8033 54.8246C54.8445 54.5774 54.9063 54.2477 54.9887 53.8357C55.0711 53.4236 55.3184 52.6406 55.7304 51.4868C56.1425 50.333 56.5546 49.3647 56.9667 48.5817C57.3787 47.7988 58.0587 47.0365 59.0064 46.2947C59.9542 45.553 60.902 45.2027 61.8497 45.2439C63.3332 45.2439 64.5694 45.6148 65.5584 46.3565C66.5473 47.0983 67.1654 47.7988 67.4127 48.4581C67.6599 49.1174 67.7836 49.5501 67.7836 49.7561C67.7836 49.8386 67.8042 49.8798 67.8454 49.8798L68.5253 49.1998C71.0389 46.5626 73.9028 45.2439 77.117 45.2439C79.3422 45.2439 81.1347 45.8002 82.4945 46.9128C83.8544 48.0254 84.5549 49.6531 84.5961 51.7959C84.6373 53.9387 83.8544 57.1734 82.2473 61.5002C80.6402 65.827 79.8573 68.4436 79.8985 69.3502C79.8985 70.4216 80.2487 70.9573 80.9493 70.9573C81.1965 70.9573 81.3819 70.9367 81.5056 70.8954C82.7006 70.6894 83.772 69.9065 84.7197 68.5466C85.6675 67.1868 86.3886 65.5385 86.8831 63.6018C86.9655 63.2721 87.3776 63.1073 88.1193 63.1073C88.9435 63.1073 89.3555 63.2721 89.3555 63.6018C89.3555 63.643 89.2731 63.952 89.1083 64.5289C88.7786 65.7239 88.3254 66.8983 87.7485 68.0521C87.1716 69.2059 86.2238 70.3597 84.9052 71.5136C83.5865 72.6674 82.1649 73.2237 80.6402 73.1824C78.7035 73.1824 77.3024 72.6261 76.4371 71.5136C75.5717 70.401 75.139 69.2472 75.139 68.0521C75.139 67.2692 75.8808 64.7968 77.3642 60.6348C78.8477 56.4729 79.61 53.3412 79.6512 51.2396C79.6512 48.8084 78.7447 47.5928 76.9316 47.5928H76.6225C73.0787 47.5928 70.0912 49.6737 67.6599 53.8357L67.2273 54.5774L65.1875 62.86C63.8277 68.2582 63.0447 71.1633 62.8387 71.5754C62.303 72.688 61.417 73.2443 60.1808 73.2443C59.6451 73.2443 59.2125 73.1206 58.8828 72.8734C58.5531 72.6261 58.3265 72.3789 58.2029 72.1317C58.0793 71.8844 58.0381 71.6784 58.0793 71.5136C58.0793 70.9779 58.8622 67.6195 60.4281 61.4384C61.9939 55.2573 62.8181 51.8989 62.9005 51.3632C62.9417 51.1572 62.9623 50.6833 62.9623 49.9416C62.9623 48.3345 62.4678 47.5309 61.4789 47.5309C59.913 47.5309 58.615 49.5913 57.5848 53.712C57.3375 54.5362 57.2139 54.9689 57.2139 55.0101C57.1315 55.2573 56.74 55.3809 56.0395 55.3809H55.1741C54.9269 55.1337 54.8033 54.9482 54.8033 54.8246Z" fill="black"/>
<path d="M93.0024 62.1801C93.0024 59.8313 93.3938 57.6885 94.1768 55.7518C94.9597 53.8151 95.9693 52.208 97.2055 50.9306C98.4417 49.6531 99.8222 48.5817 101.347 47.7164C102.872 46.851 104.314 46.2123 105.674 45.8003C107.033 45.3882 108.331 45.2028 109.568 45.244H109.753C111.607 45.244 113.215 45.6972 114.574 46.6038C115.934 47.5104 116.614 48.8496 116.614 50.6215C116.614 54.3302 114.327 56.7614 109.753 57.9152C107.734 58.4509 104.973 58.7393 101.47 58.7805C99.9458 58.7805 99.1629 58.8217 99.1217 58.9042C99.1217 58.9866 98.998 59.7077 98.7508 61.0675C98.5035 62.4274 98.3593 63.6224 98.3181 64.6526C98.3181 66.5893 98.7508 68.114 99.6161 69.2266C100.481 70.3392 101.78 70.9161 103.51 70.9573C105.241 70.9985 107.157 70.607 109.259 69.7829C111.36 68.9587 113.256 67.5989 114.945 65.7033C115.316 65.2913 115.563 65.0852 115.687 65.0852C115.852 65.0852 116.12 65.2707 116.49 65.6415C116.861 66.0124 117.067 66.3009 117.109 66.5069C117.15 66.7129 116.964 67.0426 116.552 67.4959C116.14 67.9491 115.522 68.5054 114.698 69.1648C113.874 69.8241 112.926 70.4628 111.855 71.0809C110.783 71.699 109.485 72.2141 107.961 72.6262C106.436 73.0382 104.87 73.2443 103.263 73.2443C100.008 73.2443 97.494 72.1523 95.7221 69.9683C93.9501 67.7843 93.0436 65.1883 93.0024 62.1801ZM113.647 50.7451C113.4 48.6024 111.999 47.531 109.444 47.531C108.084 47.531 106.827 47.8194 105.674 48.3963C104.52 48.9732 103.593 49.6737 102.892 50.4979C102.192 51.322 101.594 52.1668 101.1 53.0321C100.605 53.8975 100.275 54.6392 100.111 55.2573C99.9458 55.8754 99.8428 56.2669 99.8016 56.4317C99.8016 56.4729 100.214 56.4935 101.038 56.4935C105.694 56.4935 108.95 55.999 110.804 55.0101C112.658 54.0211 113.606 52.5995 113.647 50.7451Z" fill="black"/>
<path d="M121.003 48.7672C120.714 48.4787 120.57 48.2727 120.57 48.1491C120.57 47.9842 120.632 47.6546 120.755 47.1601C120.879 46.6656 120.982 46.3772 121.064 46.2947C121.147 46.0887 121.332 45.9857 121.621 45.9857C121.909 45.9857 122.96 45.9651 124.773 45.9239H128.049L129.224 40.979C129.347 40.5257 129.491 39.9282 129.656 39.1865C129.821 38.4448 129.965 37.9091 130.089 37.5794C130.212 37.2498 130.336 36.8377 130.46 36.3432C130.583 35.8487 130.748 35.4985 130.954 35.2924C131.16 35.0864 131.366 34.8391 131.572 34.5507C131.778 34.2622 132.067 34.0768 132.438 33.9944C132.809 33.912 133.179 33.8708 133.55 33.8708C134.292 33.912 134.807 34.1386 135.096 34.5507C135.384 34.9628 135.528 35.3542 135.528 35.7251C135.528 36.0135 135.343 36.9819 134.972 38.6302C134.601 40.2785 134.189 41.9062 133.736 43.5133L133.118 45.8003C133.118 45.8827 134.148 45.9239 136.208 45.9239H139.36C139.649 46.2123 139.793 46.439 139.793 46.6038C139.793 47.5104 139.525 48.2315 138.99 48.7672H132.376L130.151 57.7298C128.544 64.3229 127.74 67.8667 127.74 68.3612C127.74 70.0919 128.296 70.9573 129.409 70.9573C130.851 70.9573 132.252 70.2567 133.612 68.8557C134.972 67.4547 136.064 65.724 136.888 63.6636C136.97 63.4163 137.073 63.2721 137.197 63.2309C137.321 63.1897 137.63 63.1485 138.124 63.1073H138.372C138.99 63.1073 139.299 63.2721 139.299 63.6018C139.299 63.7254 139.237 63.9726 139.113 64.3435C138.907 65.0028 138.536 65.7858 138.001 66.6923C137.465 67.5989 136.764 68.5673 135.899 69.5974C135.034 70.6276 133.983 71.493 132.747 72.1935C131.511 72.894 130.254 73.2443 128.976 73.2443C127.74 73.2443 126.566 72.9352 125.453 72.3171C124.34 71.699 123.537 70.6276 123.042 69.1029C122.96 68.7733 122.919 68.217 122.919 67.4341V66.3215L125.082 57.6679C126.524 51.8577 127.266 48.932 127.307 48.8908C127.307 48.8084 126.257 48.7672 124.155 48.7672H121.003Z" fill="black"/>
<path d="M143.982 69.2066C144.186 67.983 144.972 66.57 146.342 64.9677C147.711 63.3653 149.401 62.5496 151.411 62.5205C152.43 62.5205 153.363 62.7827 154.208 63.3071C155.052 63.8315 155.679 64.487 156.087 65.2736C157.31 63.4382 158.782 62.5205 160.5 62.5205C161.578 62.5205 162.511 62.8409 163.297 63.4819C164.084 64.1228 164.492 64.9822 164.521 66.0602C164.521 66.905 164.317 67.5897 163.909 68.1141C163.501 68.6385 163.108 68.959 162.729 69.0755C162.35 69.192 162.015 69.2503 161.724 69.2503C161.171 69.2503 160.719 69.0901 160.369 68.7696C160.02 68.4491 159.845 68.0267 159.845 67.5023C159.845 66.1621 160.573 65.2444 162.03 64.7492C161.709 64.3704 161.127 64.1811 160.282 64.1811C159.903 64.1811 159.626 64.2102 159.452 64.2685C158.345 64.7346 157.529 65.696 157.004 67.1527C155.256 73.5912 154.382 77.3494 154.382 78.4274C154.382 79.2431 154.615 79.8258 155.082 80.1754C155.548 80.525 156.058 80.6998 156.611 80.6998C157.689 80.6998 158.752 80.2191 159.801 79.2577C160.85 78.2962 161.564 77.1163 161.943 75.7179C162.03 75.4266 162.117 75.2664 162.205 75.2372C162.292 75.2081 162.525 75.179 162.904 75.1498H163.079C163.516 75.1498 163.734 75.2664 163.734 75.4994C163.734 75.5286 163.705 75.6888 163.647 75.9801C163.181 77.6407 162.278 79.112 160.937 80.3939C159.597 81.6757 158.039 82.3167 156.262 82.3167C154.222 82.3167 152.678 81.399 151.629 79.5636C150.435 81.3698 149.066 82.273 147.521 82.273H147.259C145.832 82.273 144.812 81.8942 144.2 81.1368C143.588 80.3793 143.268 79.5781 143.239 78.7333C143.239 77.801 143.516 77.0435 144.069 76.4608C144.623 75.8782 145.278 75.5868 146.036 75.5868C147.288 75.5868 147.915 76.1986 147.915 77.4222C147.915 78.0049 147.74 78.5148 147.39 78.9518C147.041 79.3888 146.706 79.6801 146.385 79.8258C146.065 79.9714 145.875 80.0443 145.817 80.0443L145.686 80.088C145.686 80.1171 145.773 80.1754 145.948 80.2628C146.123 80.3502 146.356 80.4521 146.647 80.5687C146.939 80.6852 147.216 80.7289 147.478 80.6998C148.527 80.6998 149.43 80.0443 150.187 78.7333C150.449 78.2671 150.784 77.2766 151.192 75.7616C151.6 74.2467 152.008 72.6735 152.416 71.042C152.824 69.4105 153.057 68.4491 153.115 68.1578C153.261 67.3712 153.334 66.8031 153.334 66.4535C153.334 65.6377 153.115 65.0551 152.678 64.7055C152.241 64.3559 151.746 64.1811 151.192 64.1811C150.027 64.1811 148.934 64.6472 147.915 65.5795C146.895 66.5117 146.181 67.7062 145.773 69.1629C145.715 69.4251 145.642 69.5708 145.555 69.5999C145.468 69.629 145.234 69.6582 144.856 69.6873H144.244C144.069 69.5125 143.982 69.3523 143.982 69.2066Z" fill="black"/>
<path d="M203.372 29.1132C203.372 28.3555 203.78 27.7726 204.596 27.3646H260.287C261.162 27.8309 261.599 28.4138 261.599 29.1132C261.599 29.7543 261.191 30.308 260.375 30.7743L232.573 30.8617H204.771C203.839 30.5703 203.372 29.9874 203.372 29.1132ZM203.372 46.074C203.372 45.1997 203.839 44.6169 204.771 44.3255H260.375C261.191 44.9083 261.599 45.4911 261.599 46.074C261.599 46.8317 261.162 47.4145 260.287 47.8225H204.596C203.78 47.4145 203.372 46.8317 203.372 46.074Z" fill="black"/>
<path d="M294.978 59.3629C293.988 59.3629 293.492 59.0715 293.492 58.4886C293.492 58.372 293.58 57.9641 293.754 57.2646C293.988 56.3321 294.221 55.8075 294.454 55.691C294.687 55.5744 295.357 55.487 296.465 55.4287C298.038 55.4287 299.787 55.3412 301.71 55.1664C302.526 54.9915 303.08 54.6418 303.371 54.1173C303.488 53.8258 305.557 45.6369 309.579 29.5503C313.6 13.4638 315.64 5.30391 315.699 5.07077C315.699 4.66278 315.582 4.45878 315.349 4.45878C314.883 4.28393 313.338 4.13821 310.715 4.02165H308.005C307.655 3.67194 307.48 3.4388 307.48 3.32223C307.48 3.20566 307.539 2.71024 307.655 1.83597C307.888 0.845134 308.18 0.233145 308.53 7.03335e-06H355.653C356.061 0.233145 356.265 0.553711 356.265 0.961703C356.265 1.25313 355.886 4.51706 355.128 10.7535C354.37 16.99 353.962 20.1956 353.904 20.3705C353.788 20.7785 353.205 20.9825 352.156 20.9825H351.107C350.699 20.691 350.495 20.3122 350.495 19.8459C350.495 19.7876 350.582 19.0882 350.757 17.7477C350.932 16.4071 351.019 14.8626 351.019 13.114C351.019 11.3655 350.815 9.93753 350.407 8.83013C349.999 7.72272 349.445 6.81931 348.746 6.11989C348.047 5.42048 346.968 4.9542 345.511 4.72106C344.054 4.48792 342.568 4.28393 341.052 4.10907C339.537 3.93422 337.439 3.90508 334.758 4.02165H332.747C327.968 4.07993 325.432 4.16736 325.141 4.28393C324.849 4.4005 324.645 4.63363 324.529 4.98334C324.47 5.04163 323.48 8.85927 321.556 16.4363L318.759 27.7143H323.567C323.742 27.7143 324.412 27.7143 325.578 27.7143C326.744 27.7143 327.56 27.6852 328.026 27.6269C328.492 27.5686 329.133 27.4812 329.949 27.3646C330.765 27.2481 331.465 27.0441 332.047 26.7526C332.63 26.4612 333.126 26.1115 333.534 25.7035C334.291 25.0041 334.933 24.0424 335.457 22.8184C335.982 21.5945 336.361 20.487 336.594 19.4962C336.827 18.5054 336.973 17.9808 337.031 17.9225C337.206 17.6311 337.759 17.4854 338.692 17.4854H339.741C340.149 17.7768 340.353 18.0682 340.353 18.3597C340.353 18.5345 339.45 22.3522 337.643 29.8126C335.836 37.273 334.845 41.1198 334.67 41.3529C334.554 41.7609 333.971 41.9649 332.922 41.9649H331.873C331.465 41.6152 331.261 41.2655 331.261 40.9158C331.261 40.7409 331.406 40.0998 331.698 38.9924C331.989 37.885 332.135 36.7193 332.135 35.4953C332.135 33.8051 331.552 32.756 330.386 32.348C329.221 31.94 326.627 31.736 322.605 31.736H317.797L314.999 42.8392C313.134 50.0665 312.202 53.855 312.202 54.2047C312.202 55.0207 314.795 55.4287 319.983 55.4287H322.168C322.518 55.7784 322.693 55.9824 322.693 56.0407C322.693 56.0989 322.634 56.6818 322.518 57.7892C322.285 58.5469 321.993 59.1006 321.644 59.4503H320.157C317.768 59.3337 313.367 59.2755 306.956 59.2755C303.167 59.2755 300.282 59.2755 298.301 59.2755C296.319 59.2755 295.212 59.3046 294.978 59.3629Z" fill="black"/>
<path d="M360.163 36.8377L359.36 37.1467C358.783 37.3528 357.959 37.5588 356.887 37.7648C355.816 37.9709 354.621 38.1151 353.302 38.1975H352.128V35.3542H353.302C355.239 35.2718 357.031 34.9628 358.68 34.4271C360.328 33.8914 361.482 33.3969 362.141 32.9436C362.8 32.4903 363.377 32.037 363.872 31.5838C363.954 31.4601 364.201 31.3983 364.614 31.3983C364.984 31.3983 365.335 31.5219 365.664 31.7692V50.2506L365.726 68.7939C366.015 69.0823 366.262 69.2678 366.468 69.3502C366.674 69.4326 367.168 69.515 367.951 69.5974C368.734 69.6798 370.012 69.721 371.784 69.721H373.391V72.5643H372.711C371.845 72.4407 368.569 72.3789 362.883 72.3789C357.279 72.3789 354.044 72.4407 353.179 72.5643H352.437V69.721H354.044C354.95 69.721 355.733 69.721 356.393 69.721C357.052 69.721 357.567 69.7004 357.938 69.6592C358.309 69.618 358.638 69.5562 358.927 69.4738C359.215 69.3914 359.38 69.3502 359.421 69.3502C359.463 69.3502 359.586 69.2472 359.792 69.0411C359.998 68.8351 360.122 68.7527 360.163 68.7939V36.8377Z" fill="black"/>
<path d="M380.175 69.2066C380.379 67.983 381.166 66.57 382.535 64.9677C383.904 63.3653 385.594 62.5496 387.604 62.5205C388.624 62.5205 389.556 62.7827 390.401 63.3071C391.246 63.8315 391.872 64.487 392.28 65.2736C393.504 63.4382 394.975 62.5205 396.694 62.5205C397.772 62.5205 398.704 62.8409 399.491 63.4819C400.277 64.1228 400.685 64.9822 400.714 66.0602C400.714 66.905 400.51 67.5897 400.103 68.1141C399.695 68.6385 399.301 68.959 398.923 69.0755C398.544 69.192 398.209 69.2503 397.918 69.2503C397.364 69.2503 396.913 69.0901 396.563 68.7696C396.213 68.4491 396.038 68.0267 396.038 67.5023C396.038 66.1621 396.767 65.2444 398.224 64.7492C397.903 64.3704 397.32 64.1811 396.476 64.1811C396.097 64.1811 395.82 64.2102 395.645 64.2685C394.538 64.7346 393.722 65.696 393.198 67.1527C391.45 73.5912 390.576 77.3494 390.576 78.4274C390.576 79.2431 390.809 79.8258 391.275 80.1754C391.741 80.525 392.251 80.6998 392.805 80.6998C393.883 80.6998 394.946 80.2191 395.995 79.2577C397.044 78.2962 397.757 77.1163 398.136 75.7179C398.224 75.4266 398.311 75.2664 398.398 75.2372C398.486 75.2081 398.719 75.179 399.098 75.1498H399.272C399.709 75.1498 399.928 75.2664 399.928 75.4994C399.928 75.5286 399.899 75.6888 399.84 75.9801C399.374 77.6407 398.471 79.112 397.131 80.3939C395.791 81.6757 394.232 82.3167 392.455 82.3167C390.416 82.3167 388.872 81.399 387.823 79.5636C386.628 81.3698 385.259 82.273 383.715 82.273H383.453C382.025 82.273 381.006 81.8942 380.394 81.1368C379.782 80.3793 379.462 79.5781 379.432 78.7333C379.432 77.801 379.709 77.0435 380.263 76.4608C380.816 75.8782 381.472 75.5868 382.229 75.5868C383.482 75.5868 384.108 76.1986 384.108 77.4222C384.108 78.0049 383.934 78.5148 383.584 78.9518C383.234 79.3888 382.899 79.6801 382.579 79.8258C382.258 79.9714 382.069 80.0443 382.011 80.0443L381.88 80.088C381.88 80.1171 381.967 80.1754 382.142 80.2628C382.317 80.3502 382.55 80.4521 382.841 80.5687C383.132 80.6852 383.409 80.7289 383.671 80.6998C384.72 80.6998 385.623 80.0443 386.381 78.7333C386.643 78.2671 386.978 77.2766 387.386 75.7616C387.794 74.2467 388.202 72.6735 388.609 71.042C389.017 69.4105 389.25 68.4491 389.309 68.1578C389.454 67.3712 389.527 66.8031 389.527 66.4535C389.527 65.6377 389.309 65.0551 388.872 64.7055C388.435 64.3559 387.939 64.1811 387.386 64.1811C386.221 64.1811 385.128 64.6472 384.108 65.5795C383.089 66.5117 382.375 67.7062 381.967 69.1629C381.909 69.4251 381.836 69.5708 381.749 69.5999C381.661 69.629 381.428 69.6582 381.049 69.6873H380.438C380.263 69.5125 380.175 69.3523 380.175 69.2066Z" fill="black"/>
<path d="M434.695 38.7301C434.695 38.7301 434.695 38.3513 434.695 37.5936C434.695 36.8359 435.103 36.253 435.919 35.845H462.06V22.731L462.147 9.61697C462.73 8.85927 463.284 8.48042 463.809 8.48042C464.566 8.48042 465.149 8.91755 465.557 9.79182V35.845H491.61C492.485 36.3113 492.922 36.8942 492.922 37.5936C492.922 38.293 492.485 38.8758 491.61 39.3421H465.557V65.3953C465.091 66.2113 464.566 66.6193 463.983 66.6193H463.809H463.634C462.934 66.6193 462.41 66.2113 462.06 65.3953V39.3421H435.919C435.103 38.9341 434.695 38.3513 434.695 37.5936V38.7301Z" fill="black"/>
<path d="M521.44 59.3629C520.449 59.3629 519.954 59.0715 519.954 58.4886C519.954 58.372 520.041 57.9641 520.216 57.2646C520.449 56.3321 520.683 55.8075 520.916 55.691C521.149 55.5744 521.819 55.487 522.927 55.4287C524.5 55.4287 526.249 55.3412 528.172 55.1664C528.988 54.9915 529.542 54.6418 529.833 54.1173C529.95 53.8258 532.019 45.6369 536.041 29.5503C540.062 13.4638 542.102 5.30391 542.16 5.07077C542.16 4.66278 542.044 4.45878 541.811 4.45878C541.344 4.28393 539.8 4.13821 537.177 4.02165H534.467C534.117 3.67194 533.942 3.4388 533.942 3.32223C533.942 3.20566 534.001 2.71024 534.117 1.83597C534.35 0.845134 534.642 0.233145 534.991 7.03335e-06H582.115C582.523 0.233145 582.727 0.553711 582.727 0.961703C582.727 1.25313 582.348 4.51706 581.59 10.7535C580.832 16.99 580.424 20.1956 580.366 20.3705C580.249 20.7785 579.667 20.9825 578.618 20.9825H577.568C577.16 20.691 576.956 20.3122 576.956 19.8459C576.956 19.7876 577.044 19.0882 577.219 17.7477C577.394 16.4071 577.481 14.8626 577.481 13.114C577.481 11.3655 577.277 9.93753 576.869 8.83013C576.461 7.72272 575.907 6.81931 575.208 6.11989C574.508 5.42048 573.43 4.9542 571.973 4.72106C570.516 4.48792 569.03 4.28393 567.514 4.10907C565.999 3.93422 563.901 3.90508 561.22 4.02165H559.209C554.429 4.07993 551.894 4.16736 551.603 4.28393C551.311 4.4005 551.107 4.63363 550.991 4.98334C550.932 5.04163 549.941 8.85927 548.018 16.4363L545.22 27.7143H550.029C550.204 27.7143 550.874 27.7143 552.04 27.7143C553.205 27.7143 554.021 27.6852 554.488 27.6269C554.954 27.5686 555.595 27.4812 556.411 27.3646C557.227 27.2481 557.926 27.0441 558.509 26.7526C559.092 26.4612 559.588 26.1115 559.996 25.7035C560.753 25.0041 561.394 24.0424 561.919 22.8184C562.444 21.5945 562.822 20.487 563.056 19.4962C563.289 18.5054 563.434 17.9808 563.493 17.9225C563.667 17.6311 564.221 17.4854 565.154 17.4854H566.203C566.611 17.7768 566.815 18.0682 566.815 18.3597C566.815 18.5345 565.911 22.3522 564.105 29.8126C562.298 37.273 561.307 41.1198 561.132 41.3529C561.016 41.7609 560.433 41.9649 559.384 41.9649H558.334C557.926 41.6152 557.722 41.2655 557.722 40.9158C557.722 40.7409 557.868 40.0998 558.16 38.9924C558.451 37.885 558.597 36.7193 558.597 35.4953C558.597 33.8051 558.014 32.756 556.848 32.348C555.683 31.94 553.089 31.736 549.067 31.736H544.259L541.461 42.8392C539.596 50.0665 538.663 53.855 538.663 54.2047C538.663 55.0207 541.257 55.4287 546.444 55.4287H548.63C548.98 55.7784 549.155 55.9824 549.155 56.0407C549.155 56.0989 549.096 56.6818 548.98 57.7892C548.747 58.5469 548.455 59.1006 548.106 59.4503H546.619C544.23 59.3337 539.829 59.2755 533.418 59.2755C529.629 59.2755 526.744 59.2755 524.763 59.2755C522.781 59.2755 521.673 59.3046 521.44 59.3629Z" fill="black"/>
<path d="M580.197 46.0475C579.084 46.0475 578.198 45.6766 577.539 44.9349C576.88 44.1932 576.55 43.2866 576.55 42.2152C576.55 39.2895 577.642 36.7553 579.826 34.6125C582.01 32.4697 584.729 31.3983 587.985 31.3983C591.735 31.3983 594.866 32.5521 597.38 34.8597C599.894 37.1673 601.171 40.1549 601.212 43.8223C601.212 45.5942 600.8 47.2837 599.976 48.8908C599.152 50.4979 598.163 51.8989 597.009 53.0939C595.855 54.2889 594.207 55.8136 592.064 57.6679C590.581 58.9454 588.521 60.8409 585.883 63.3545L582.236 66.8159L586.934 66.8777C593.404 66.8777 596.844 66.7747 597.256 66.5687C597.545 66.4863 598.039 64.6526 598.74 61.0675V60.8821H601.212V61.0675C601.171 61.1911 600.903 63.0661 600.409 66.6923C599.914 70.3185 599.605 72.2141 599.482 72.3789V72.5643H576.55V71.3899V70.6482C576.55 70.3598 576.673 70.0507 576.921 69.721C577.168 69.3914 577.786 68.6703 578.775 67.5577C579.97 66.239 581 65.0852 581.866 64.0963C582.236 63.6842 582.937 62.9218 583.967 61.8093C584.997 60.6967 585.698 59.9343 586.069 59.5223C586.44 59.1102 587.037 58.4303 587.861 57.4825C588.685 56.5347 589.262 55.8342 589.592 55.3809C589.922 54.9276 590.395 54.3095 591.014 53.5266C591.632 52.7437 592.064 52.0844 592.312 51.5487C592.559 51.013 592.868 50.4155 593.239 49.7561C593.61 49.0968 593.878 48.4375 594.042 47.7782C594.207 47.1189 594.351 46.5008 594.475 45.9239C594.599 45.347 594.66 44.6671 594.66 43.8841C594.66 41.2881 593.96 39.0423 592.559 37.1467C591.158 35.2512 589.159 34.3034 586.563 34.3034C585.203 34.3034 584.008 34.6537 582.978 35.3542C581.948 36.0547 581.227 36.7347 580.815 37.394C580.403 38.0533 580.197 38.4448 580.197 38.5684C580.197 38.6096 580.3 38.6302 580.506 38.6302C581.247 38.6302 582.01 38.9186 582.793 39.4955C583.576 40.0724 583.967 41.0202 583.967 42.3388C583.967 43.369 583.638 44.2344 582.978 44.9349C582.319 45.6354 581.392 46.0063 580.197 46.0475Z" fill="black"/>
<path d="M606.637 69.2066C606.841 67.983 607.628 66.57 608.997 64.9677C610.366 63.3653 612.056 62.5496 614.066 62.5205C615.086 62.5205 616.018 62.7827 616.863 63.3071C617.708 63.8315 618.334 64.487 618.742 65.2736C619.966 63.4382 621.437 62.5205 623.156 62.5205C624.234 62.5205 625.166 62.8409 625.953 63.4819C626.739 64.1228 627.147 64.9822 627.176 66.0602C627.176 66.905 626.972 67.5897 626.564 68.1141C626.157 68.6385 625.763 68.959 625.385 69.0755C625.006 69.192 624.671 69.2503 624.379 69.2503C623.826 69.2503 623.374 69.0901 623.025 68.7696C622.675 68.4491 622.5 68.0267 622.5 67.5023C622.5 66.1621 623.229 65.2444 624.685 64.7492C624.365 64.3704 623.782 64.1811 622.937 64.1811C622.559 64.1811 622.282 64.2102 622.107 64.2685C621 64.7346 620.184 65.696 619.66 67.1527C617.912 73.5912 617.038 77.3494 617.038 78.4274C617.038 79.2431 617.271 79.8258 617.737 80.1754C618.203 80.525 618.713 80.6998 619.267 80.6998C620.344 80.6998 621.408 80.2191 622.457 79.2577C623.505 78.2962 624.219 77.1163 624.598 75.7179C624.685 75.4266 624.773 75.2664 624.86 75.2372C624.948 75.2081 625.181 75.179 625.559 75.1498H625.734C626.171 75.1498 626.39 75.2664 626.39 75.4994C626.39 75.5286 626.361 75.6888 626.302 75.9801C625.836 77.6407 624.933 79.112 623.593 80.3939C622.253 81.6757 620.694 82.3167 618.917 82.3167C616.878 82.3167 615.333 81.399 614.285 79.5636C613.09 81.3698 611.721 82.273 610.177 82.273H609.915C608.487 82.273 607.467 81.8942 606.856 81.1368C606.244 80.3793 605.923 79.5781 605.894 78.7333C605.894 77.801 606.171 77.0435 606.725 76.4608C607.278 75.8782 607.934 75.5868 608.691 75.5868C609.944 75.5868 610.57 76.1986 610.57 77.4222C610.57 78.0049 610.395 78.5148 610.046 78.9518C609.696 79.3888 609.361 79.6801 609.041 79.8258C608.72 79.9714 608.531 80.0443 608.473 80.0443L608.341 80.088C608.341 80.1171 608.429 80.1754 608.604 80.2628C608.778 80.3502 609.012 80.4521 609.303 80.5687C609.594 80.6852 609.871 80.7289 610.133 80.6998C611.182 80.6998 612.085 80.0443 612.843 78.7333C613.105 78.2671 613.44 77.2766 613.848 75.7616C614.256 74.2467 614.663 72.6735 615.071 71.042C615.479 69.4105 615.712 68.4491 615.77 68.1578C615.916 67.3712 615.989 66.8031 615.989 66.4535C615.989 65.6377 615.77 65.0551 615.333 64.7055C614.896 64.3559 614.401 64.1811 613.848 64.1811C612.682 64.1811 611.59 64.6472 610.57 65.5795C609.55 66.5117 608.837 67.7062 608.429 69.1629C608.371 69.4251 608.298 69.5708 608.21 69.5999C608.123 69.629 607.89 69.6582 607.511 69.6873H606.899C606.725 69.5125 606.637 69.3523 606.637 69.2066Z" fill="black"/>
<path d="M641.731 38.7301C641.731 38.7301 641.731 38.3513 641.731 37.5936C641.731 36.8359 642.139 36.253 642.955 35.845H669.096V22.731L669.183 9.61697C669.766 8.85927 670.32 8.48042 670.844 8.48042C671.602 8.48042 672.185 8.91755 672.593 9.79182V35.845H698.646C699.52 36.3113 699.957 36.8942 699.957 37.5936C699.957 38.293 699.52 38.8758 698.646 39.3421H672.593V65.3953C672.127 66.2113 671.602 66.6193 671.019 66.6193H670.844H670.669C669.97 66.6193 669.445 66.2113 669.096 65.3953V39.3421H642.955C642.139 38.9341 641.731 38.3513 641.731 37.5936V38.7301Z" fill="black"/>
<path d="M711.673 54.2047C711.673 52.8059 712.168 51.5819 713.159 50.5328C714.15 49.4836 715.403 48.9591 716.918 48.9591C718.317 48.9591 719.541 49.4254 720.59 50.3579C721.639 51.2905 722.193 52.5436 722.251 54.1173C722.251 55.5744 721.756 56.8275 720.765 57.8766C719.774 58.9257 718.521 59.4503 717.006 59.4503C715.49 59.4503 714.237 58.9549 713.246 57.9641C712.255 56.9732 711.731 55.7201 711.673 54.2047Z" fill="black"/>
<path d="M750.551 54.2047C750.551 52.8059 751.047 51.5819 752.038 50.5328C753.028 49.4836 754.282 48.9591 755.797 48.9591C757.196 48.9591 758.42 49.4254 759.469 50.3579C760.518 51.2905 761.072 52.5436 761.13 54.1173C761.13 55.5744 760.635 56.8275 759.644 57.8766C758.653 58.9257 757.4 59.4503 755.884 59.4503C754.369 59.4503 753.116 58.9549 752.125 57.9641C751.134 56.9732 750.61 55.7201 750.551 54.2047Z" fill="black"/>
<path d="M789.421 54.2047C789.421 52.8059 789.917 51.5819 790.908 50.5328C791.898 49.4836 793.152 48.9591 794.667 48.9591C796.066 48.9591 797.29 49.4254 798.339 50.3579C799.388 51.2905 799.942 52.5436 800 54.1173C800 55.5744 799.505 56.8275 798.514 57.8766C797.523 58.9257 796.27 59.4503 794.754 59.4503C793.239 59.4503 791.986 58.9549 790.995 57.9641C790.004 56.9732 789.48 55.7201 789.421 54.2047Z" fill="black"/>
<path d="M2.50651 173.172C1.50217 173.172 1 172.876 1 172.286C1 172.167 1.08862 171.754 1.26585 171.045C1.50217 170.1 1.73848 169.568 1.9748 169.45C2.21111 169.332 2.89052 169.243 4.01302 169.184C5.60814 169.184 7.3805 169.095 9.3301 168.918C10.1572 168.741 10.7185 168.386 11.0138 167.855C11.132 167.559 13.2293 159.259 17.3057 142.953C21.3822 126.647 23.4499 118.376 23.509 118.14C23.509 117.726 23.3908 117.52 23.1545 117.52C22.6819 117.342 21.1163 117.195 18.4578 117.076H15.7106C15.3561 116.722 15.1789 116.486 15.1789 116.367C15.1789 116.249 15.238 115.747 15.3561 114.861C15.5924 113.857 15.8878 113.236 16.2423 113H64.0075C64.421 113.236 64.6278 113.561 64.6278 113.975C64.6278 114.27 64.2438 117.579 63.4758 123.9C62.7077 130.221 62.2942 133.471 62.2351 133.648C62.117 134.062 61.5262 134.268 60.4628 134.268H59.3993C58.9858 133.973 58.779 133.589 58.779 133.116C58.779 133.057 58.8676 132.348 59.0449 130.989C59.2221 129.631 59.3107 128.065 59.3107 126.293C59.3107 124.52 59.1039 123.073 58.6904 121.95C58.2768 120.828 57.7156 119.912 57.0066 119.203C56.2977 118.494 55.2047 118.022 53.7278 117.785C52.2508 117.549 50.7443 117.342 49.2083 117.165C47.6722 116.988 45.5454 116.958 42.8278 117.076H40.7895C35.9451 117.136 33.3752 117.224 33.0798 117.342C32.7844 117.46 32.5776 117.697 32.4594 118.051C32.4004 118.11 31.396 121.98 29.4464 129.66L26.6106 141.092H31.4846C31.6619 141.092 32.3413 141.092 33.5228 141.092C34.7044 141.092 35.5315 141.062 36.0042 141.003C36.4768 140.944 37.1267 140.856 37.9538 140.737C38.7809 140.619 39.4898 140.413 40.0806 140.117C40.6714 139.822 41.1735 139.467 41.5871 139.054C42.3551 138.345 43.005 137.37 43.5367 136.129C44.0684 134.889 44.4524 133.766 44.6887 132.762C44.925 131.758 45.0727 131.226 45.1318 131.167C45.3091 130.871 45.8703 130.724 46.8156 130.724H47.879C48.2925 131.019 48.4993 131.314 48.4993 131.61C48.4993 131.787 47.5836 135.657 45.7521 143.219C43.9207 150.781 42.9164 154.68 42.7391 154.916C42.621 155.33 42.0302 155.537 40.9668 155.537H39.9034C39.4898 155.182 39.283 154.828 39.283 154.473C39.283 154.296 39.4307 153.646 39.7261 152.524C40.0215 151.401 40.1692 150.22 40.1692 148.979C40.1692 147.266 39.5784 146.202 38.3968 145.789C37.2153 145.375 34.5863 145.168 30.5098 145.168H25.6358L22.8001 156.423C20.9095 163.749 19.9643 167.589 19.9643 167.943C19.9643 168.77 22.5933 169.184 27.8513 169.184H30.0667C30.4212 169.538 30.5985 169.745 30.5985 169.804C30.5985 169.863 30.5394 170.454 30.4212 171.577C30.1849 172.345 29.8895 172.906 29.535 173.26H28.0285C25.6063 173.142 21.1459 173.083 14.6472 173.083C10.8071 173.083 7.88267 173.083 5.874 173.083C3.86532 173.083 2.74282 173.113 2.50651 173.172Z" fill="black"/>
<path d="M56.55 168.572C56.5918 168.321 56.6544 167.987 56.7379 167.569C56.8215 167.151 57.0721 166.358 57.4898 165.188C57.9075 164.019 58.3252 163.037 58.7428 162.244C59.1605 161.45 59.8497 160.677 60.8104 159.926C61.7711 159.174 62.7318 158.819 63.6924 158.86C65.1961 158.86 66.4492 159.236 67.4516 159.988C68.4541 160.74 69.0806 161.45 69.3312 162.118C69.5818 162.787 69.7071 163.225 69.7071 163.434C69.7071 163.518 69.728 163.559 69.7698 163.559L70.459 162.87C73.0068 160.197 75.9098 158.86 79.1677 158.86C81.4232 158.86 83.2402 159.424 84.6185 160.552C85.9969 161.68 86.707 163.33 86.7487 165.502C86.7905 167.674 85.9969 170.952 84.3679 175.338C82.7389 179.724 81.9453 182.376 81.9871 183.295C81.9871 184.381 82.3421 184.924 83.0522 184.924C83.3028 184.924 83.4908 184.903 83.6161 184.861C84.8274 184.653 85.9134 183.859 86.874 182.481C87.8347 181.102 88.5657 179.431 89.0669 177.468C89.1504 177.134 89.5681 176.967 90.32 176.967C91.1553 176.967 91.573 177.134 91.573 177.468C91.573 177.51 91.4895 177.823 91.3224 178.408C90.9883 179.619 90.5288 180.81 89.944 181.979C89.3593 183.149 88.3986 184.318 87.062 185.488C85.7254 186.657 84.2844 187.221 82.7389 187.18C80.7758 187.18 79.3557 186.616 78.4785 185.488C77.6014 184.36 77.1628 183.191 77.1628 181.979C77.1628 181.186 77.9147 178.68 79.4183 174.461C80.922 170.242 81.6947 167.068 81.7365 164.938C81.7365 162.473 80.8176 161.241 78.9798 161.241H78.6665C75.0744 161.241 72.0462 163.351 69.5818 167.569L69.1432 168.321L67.0757 176.717C65.6973 182.188 64.9037 185.133 64.6949 185.551C64.1519 186.678 63.2539 187.242 62.0008 187.242C61.4578 187.242 61.0192 187.117 60.6851 186.866C60.3509 186.616 60.1212 186.365 59.9959 186.114C59.8706 185.864 59.8288 185.655 59.8706 185.488C59.8706 184.945 60.6642 181.541 62.2514 175.275C63.8386 169.01 64.674 165.606 64.7575 165.063C64.7993 164.854 64.8202 164.374 64.8202 163.622C64.8202 161.993 64.319 161.179 63.3165 161.179C61.7293 161.179 60.4136 163.267 59.3694 167.444C59.1188 168.279 58.9935 168.718 58.9935 168.76C58.9099 169.01 58.5131 169.135 57.803 169.135H56.9259C56.6753 168.885 56.55 168.697 56.55 168.572Z" fill="black"/>
<path d="M95.2695 176.027C95.2695 173.647 95.6663 171.475 96.4599 169.511C97.2535 167.548 98.2769 165.919 99.5299 164.624C100.783 163.33 102.182 162.244 103.728 161.367C105.273 160.489 106.735 159.842 108.113 159.424C109.492 159.007 110.807 158.819 112.061 158.86H112.248C114.128 158.86 115.757 159.32 117.135 160.239C118.514 161.158 119.203 162.515 119.203 164.311C119.203 168.07 116.885 170.535 112.248 171.704C110.202 172.247 107.403 172.54 103.853 172.581C102.308 172.581 101.514 172.623 101.472 172.707C101.472 172.79 101.347 173.521 101.096 174.9C100.846 176.278 100.699 177.489 100.658 178.533C100.658 180.497 101.096 182.042 101.973 183.17C102.851 184.298 104.166 184.882 105.921 184.924C107.675 184.966 109.617 184.569 111.747 183.734C113.877 182.898 115.799 181.52 117.511 179.599C117.887 179.181 118.138 178.972 118.263 178.972C118.43 178.972 118.702 179.16 119.078 179.536C119.454 179.912 119.662 180.204 119.704 180.413C119.746 180.622 119.558 180.956 119.14 181.415C118.723 181.875 118.096 182.439 117.261 183.107C116.425 183.775 115.465 184.423 114.379 185.049C113.293 185.676 111.977 186.198 110.432 186.616C108.886 187.033 107.299 187.242 105.67 187.242C102.37 187.242 99.8223 186.135 98.0263 183.922C96.2302 181.708 95.3113 179.076 95.2695 176.027ZM116.196 164.437C115.945 162.265 114.525 161.179 111.935 161.179C110.557 161.179 109.283 161.471 108.113 162.056C106.944 162.64 106.004 163.351 105.294 164.186C104.584 165.021 103.978 165.878 103.477 166.755C102.976 167.632 102.642 168.384 102.475 169.01C102.308 169.637 102.203 170.034 102.161 170.201C102.161 170.242 102.579 170.263 103.414 170.263C108.134 170.263 111.434 169.762 113.314 168.76C115.193 167.757 116.154 166.316 116.196 164.437Z" fill="black"/>
<path d="M123.651 162.432C123.359 162.139 123.213 161.93 123.213 161.805C123.213 161.638 123.275 161.304 123.401 160.803C123.526 160.301 123.63 160.009 123.714 159.926C123.798 159.717 123.985 159.612 124.278 159.612C124.57 159.612 125.635 159.591 127.473 159.55H130.794L131.984 154.537C132.109 154.078 132.256 153.472 132.423 152.72C132.59 151.969 132.736 151.426 132.861 151.091C132.987 150.757 133.112 150.34 133.237 149.838C133.363 149.337 133.53 148.982 133.738 148.773C133.947 148.564 134.156 148.314 134.365 148.021C134.574 147.729 134.866 147.541 135.242 147.458C135.618 147.374 135.994 147.332 136.37 147.332C137.122 147.374 137.644 147.604 137.936 148.021C138.229 148.439 138.375 148.836 138.375 149.212C138.375 149.504 138.187 150.486 137.811 152.157C137.435 153.827 137.017 155.477 136.558 157.106L135.931 159.424C135.931 159.508 136.976 159.55 139.064 159.55H142.259C142.552 159.842 142.698 160.072 142.698 160.239C142.698 161.158 142.426 161.889 141.883 162.432H135.179L132.924 171.516C131.295 178.199 130.481 181.791 130.481 182.293C130.481 184.047 131.044 184.924 132.172 184.924C133.634 184.924 135.054 184.214 136.433 182.794C137.811 181.374 138.918 179.619 139.753 177.531C139.837 177.28 139.941 177.134 140.066 177.092C140.192 177.051 140.505 177.009 141.006 176.967H141.257C141.883 176.967 142.197 177.134 142.197 177.468C142.197 177.594 142.134 177.844 142.009 178.22C141.8 178.888 141.424 179.682 140.881 180.601C140.338 181.52 139.628 182.501 138.751 183.546C137.874 184.59 136.808 185.467 135.555 186.177C134.302 186.887 133.028 187.242 131.734 187.242C130.481 187.242 129.29 186.929 128.162 186.302C127.035 185.676 126.22 184.59 125.719 183.044C125.635 182.71 125.594 182.146 125.594 181.353V180.225L127.786 171.454C129.248 165.564 130 162.599 130.042 162.557C130.042 162.473 128.977 162.432 126.847 162.432H123.651Z" fill="black"/>
<path d="M145.57 183.238C145.57 182.825 145.792 182.116 146.235 181.112C146.678 180.108 147.386 179.06 148.361 177.967C149.335 176.874 150.428 176.343 151.639 176.372C152.85 176.372 153.824 176.712 154.562 177.391C155.301 178.07 155.684 179.015 155.714 180.226C155.655 180.787 155.611 181.097 155.581 181.156C155.581 181.245 155.345 181.924 154.872 183.194C154.4 184.464 153.913 185.896 153.411 187.491C152.909 189.085 152.672 190.355 152.702 191.3C152.702 192.57 152.909 193.456 153.322 193.958C153.735 194.46 154.356 194.725 155.182 194.755C155.862 194.755 156.497 194.593 157.087 194.268C157.678 193.943 158.136 193.603 158.46 193.249C158.785 192.895 159.184 192.407 159.656 191.787C159.656 191.758 159.73 191.462 159.878 190.901C160.025 190.34 160.232 189.469 160.498 188.288C160.764 187.107 161.044 186.014 161.34 185.01C162.462 180.58 163.082 178.262 163.2 178.056C163.584 177.258 164.219 176.86 165.105 176.86C165.489 176.86 165.799 176.963 166.035 177.17C166.271 177.376 166.434 177.554 166.522 177.701C166.611 177.849 166.64 177.982 166.611 178.1C166.611 178.484 165.887 181.584 164.44 187.402C162.993 193.219 162.166 196.409 161.96 196.97C161.133 199.421 159.701 201.37 157.663 202.817C155.625 204.264 153.588 205.002 151.55 205.032C150.221 205.032 149.055 204.707 148.051 204.057C147.047 203.407 146.545 202.433 146.545 201.134C146.545 200.484 146.648 199.938 146.855 199.495C147.062 199.052 147.342 198.727 147.697 198.52C148.051 198.313 148.346 198.166 148.582 198.077C148.819 197.989 149.07 197.944 149.335 197.944C150.635 197.944 151.284 198.564 151.284 199.805C151.284 200.395 151.107 200.912 150.753 201.355C150.399 201.798 150.059 202.093 149.734 202.241C149.409 202.389 149.217 202.462 149.158 202.462L149.025 202.507C149.084 202.654 149.365 202.832 149.867 203.038C150.369 203.245 150.871 203.348 151.373 203.348H151.727C152.229 203.348 152.613 203.319 152.879 203.26C153.854 202.994 154.754 202.433 155.581 201.577C156.408 200.72 157.043 199.805 157.486 198.83C157.929 197.856 158.268 197.029 158.505 196.35C158.741 195.67 158.859 195.227 158.859 195.021L158.593 195.198C158.416 195.316 158.136 195.479 157.752 195.685C157.368 195.892 156.984 196.069 156.6 196.217C156.009 196.364 155.433 196.438 154.872 196.438C153.514 196.438 152.318 196.113 151.284 195.464C150.251 194.814 149.572 193.766 149.247 192.319C149.217 192.112 149.203 191.654 149.203 190.946C149.203 189.262 149.719 187.062 150.753 184.346C151.786 181.629 152.303 179.901 152.303 179.163C152.303 179.133 152.303 179.104 152.303 179.074C152.303 178.809 152.303 178.631 152.303 178.543C152.303 178.454 152.244 178.351 152.126 178.233C152.008 178.115 151.846 178.056 151.639 178.056H151.462C150.782 178.056 150.162 178.336 149.601 178.897C149.04 179.458 148.597 180.064 148.272 180.713C147.948 181.363 147.697 181.983 147.519 182.574C147.342 183.164 147.224 183.489 147.165 183.548C147.106 183.607 146.87 183.637 146.456 183.637H145.836C145.659 183.46 145.57 183.327 145.57 183.238Z" fill="black"/>
<path d="M203.51 142.51C203.51 141.742 203.924 141.151 204.751 140.737H261.2C262.087 141.21 262.53 141.801 262.53 142.51C262.53 143.16 262.116 143.721 261.289 144.194L233.109 144.282H204.928C203.983 143.987 203.51 143.396 203.51 142.51ZM203.51 159.702C203.51 158.816 203.983 158.225 204.928 157.929H261.289C262.116 158.52 262.53 159.111 262.53 159.702C262.53 160.47 262.087 161.061 261.2 161.474H204.751C203.924 161.061 203.51 160.47 203.51 159.702Z" fill="black"/>
<path d="M296.364 173.172C295.36 173.172 294.858 172.876 294.858 172.286C294.858 172.167 294.946 171.754 295.123 171.045C295.36 170.1 295.596 169.568 295.832 169.45C296.069 169.332 296.748 169.243 297.871 169.184C299.466 169.184 301.238 169.095 303.188 168.918C304.015 168.741 304.576 168.386 304.871 167.855C304.99 167.559 307.087 159.259 311.163 142.953C315.24 126.647 317.308 118.376 317.367 118.14C317.367 117.726 317.248 117.52 317.012 117.52C316.54 117.342 314.974 117.195 312.315 117.076H309.568C309.214 116.722 309.037 116.486 309.037 116.367C309.037 116.249 309.096 115.747 309.214 114.861C309.45 113.857 309.745 113.236 310.1 113H357.865C358.279 113.236 358.485 113.561 358.485 113.975C358.485 114.27 358.101 117.579 357.333 123.9C356.565 130.221 356.152 133.471 356.093 133.648C355.975 134.062 355.384 134.268 354.32 134.268H353.257C352.843 133.973 352.637 133.589 352.637 133.116C352.637 133.057 352.725 132.348 352.903 130.989C353.08 129.631 353.168 128.065 353.168 126.293C353.168 124.52 352.962 123.073 352.548 121.95C352.134 120.828 351.573 119.912 350.864 119.203C350.155 118.494 349.062 118.022 347.585 117.785C346.108 117.549 344.602 117.342 343.066 117.165C341.53 116.988 339.403 116.958 336.685 117.076H334.647C329.803 117.136 327.233 117.224 326.937 117.342C326.642 117.46 326.435 117.697 326.317 118.051C326.258 118.11 325.254 121.98 323.304 129.66L320.468 141.092H325.342C325.52 141.092 326.199 141.092 327.38 141.092C328.562 141.092 329.389 141.062 329.862 141.003C330.334 140.944 330.984 140.856 331.811 140.737C332.638 140.619 333.347 140.413 333.938 140.117C334.529 139.822 335.031 139.467 335.445 139.054C336.213 138.345 336.863 137.37 337.394 136.129C337.926 134.889 338.31 133.766 338.546 132.762C338.783 131.758 338.93 131.226 338.989 131.167C339.167 130.871 339.728 130.724 340.673 130.724H341.737C342.15 131.019 342.357 131.314 342.357 131.61C342.357 131.787 341.441 135.657 339.61 143.219C337.778 150.781 336.774 154.68 336.597 154.916C336.479 155.33 335.888 155.537 334.824 155.537H333.761C333.347 155.182 333.141 154.828 333.141 154.473C333.141 154.296 333.288 153.646 333.584 152.524C333.879 151.401 334.027 150.22 334.027 148.979C334.027 147.266 333.436 146.202 332.254 145.789C331.073 145.375 328.444 145.168 324.367 145.168H319.493L316.658 156.423C314.767 163.749 313.822 167.589 313.822 167.943C313.822 168.77 316.451 169.184 321.709 169.184H323.924C324.279 169.538 324.456 169.745 324.456 169.804C324.456 169.863 324.397 170.454 324.279 171.577C324.043 172.345 323.747 172.906 323.393 173.26H321.886C319.464 173.142 315.003 173.083 308.505 173.083C304.665 173.083 301.74 173.083 299.732 173.083C297.723 173.083 296.6 173.113 296.364 173.172Z" fill="black"/>
<path d="M362.437 150.34L361.623 150.653C361.038 150.862 360.202 151.071 359.116 151.279C358.03 151.488 356.819 151.634 355.483 151.718H354.292V148.836H355.483C357.446 148.752 359.263 148.439 360.933 147.896C362.604 147.353 363.774 146.852 364.442 146.392C365.11 145.933 365.695 145.474 366.196 145.014C366.28 144.889 366.53 144.826 366.948 144.826C367.324 144.826 367.679 144.951 368.013 145.202V163.935L368.076 182.731C368.368 183.024 368.619 183.212 368.828 183.295C369.036 183.379 369.538 183.462 370.331 183.546C371.125 183.629 372.42 183.671 374.216 183.671H375.845V186.553H375.156C374.278 186.428 370.958 186.365 365.194 186.365C359.513 186.365 356.234 186.428 355.357 186.553H354.605V183.671H356.234C357.153 183.671 357.947 183.671 358.615 183.671C359.283 183.671 359.806 183.65 360.181 183.608C360.557 183.567 360.892 183.504 361.184 183.42C361.476 183.337 361.643 183.295 361.685 183.295C361.727 183.295 361.852 183.191 362.061 182.982C362.27 182.773 362.395 182.689 362.437 182.731V150.34Z" fill="black"/>
<path d="M381.349 183.238C381.349 182.825 381.57 182.116 382.013 181.112C382.456 180.108 383.165 179.06 384.139 177.967C385.114 176.874 386.206 176.343 387.417 176.372C388.628 176.372 389.602 176.712 390.341 177.391C391.079 178.07 391.463 179.015 391.492 180.226C391.433 180.787 391.389 181.097 391.359 181.156C391.359 181.245 391.123 181.924 390.651 183.194C390.178 184.464 389.691 185.896 389.189 187.491C388.687 189.085 388.451 190.355 388.48 191.3C388.48 192.57 388.687 193.456 389.1 193.958C389.514 194.46 390.134 194.725 390.961 194.755C391.64 194.755 392.275 194.593 392.865 194.268C393.456 193.943 393.914 193.603 394.239 193.249C394.563 192.895 394.962 192.407 395.435 191.787C395.435 191.758 395.508 191.462 395.656 190.901C395.804 190.34 396.01 189.469 396.276 188.288C396.542 187.107 396.823 186.014 397.118 185.01C398.24 180.58 398.86 178.262 398.978 178.056C399.362 177.258 399.997 176.86 400.883 176.86C401.267 176.86 401.577 176.963 401.813 177.17C402.049 177.376 402.212 177.554 402.3 177.701C402.389 177.849 402.419 177.982 402.389 178.1C402.389 178.484 401.666 181.584 400.219 187.402C398.772 193.219 397.945 196.409 397.738 196.97C396.911 199.421 395.479 201.37 393.441 202.817C391.404 204.264 389.366 205.002 387.329 205.032C386 205.032 384.833 204.707 383.829 204.057C382.825 203.407 382.323 202.433 382.323 201.134C382.323 200.484 382.426 199.938 382.633 199.495C382.84 199.052 383.12 198.727 383.475 198.52C383.829 198.313 384.124 198.166 384.361 198.077C384.597 197.989 384.848 197.944 385.114 197.944C386.413 197.944 387.063 198.564 387.063 199.805C387.063 200.395 386.886 200.912 386.531 201.355C386.177 201.798 385.837 202.093 385.512 202.241C385.188 202.389 384.996 202.462 384.937 202.462L384.804 202.507C384.863 202.654 385.143 202.832 385.645 203.038C386.147 203.245 386.649 203.348 387.151 203.348H387.506C388.008 203.348 388.392 203.319 388.657 203.26C389.632 202.994 390.533 202.433 391.359 201.577C392.186 200.72 392.821 199.805 393.264 198.83C393.707 197.856 394.047 197.029 394.283 196.35C394.519 195.67 394.637 195.227 394.637 195.021L394.372 195.198C394.194 195.316 393.914 195.479 393.53 195.685C393.146 195.892 392.762 196.069 392.378 196.217C391.788 196.364 391.212 196.438 390.651 196.438C389.292 196.438 388.096 196.113 387.063 195.464C386.029 194.814 385.35 193.766 385.025 192.319C384.996 192.112 384.981 191.654 384.981 190.946C384.981 189.262 385.498 187.062 386.531 184.346C387.565 181.629 388.082 179.901 388.082 179.163C388.082 179.133 388.082 179.104 388.082 179.074C388.082 178.809 388.082 178.631 388.082 178.543C388.082 178.454 388.022 178.351 387.904 178.233C387.786 178.115 387.624 178.056 387.417 178.056H387.24C386.561 178.056 385.941 178.336 385.38 178.897C384.818 179.458 384.375 180.064 384.051 180.713C383.726 181.363 383.475 181.983 383.298 182.574C383.12 183.164 383.002 183.489 382.943 183.548C382.884 183.607 382.648 183.637 382.235 183.637H381.614C381.437 183.46 381.349 183.327 381.349 183.238Z" fill="black"/>
<path d="M434.351 152.258C434.351 152.258 434.351 151.874 434.351 151.106C434.351 150.338 434.765 149.747 435.592 149.333H462.089V136.041L462.178 122.748C462.768 121.98 463.33 121.596 463.861 121.596C464.629 121.596 465.22 122.039 465.634 122.925V149.333H492.042C492.928 149.806 493.371 150.397 493.371 151.106C493.371 151.815 492.928 152.406 492.042 152.878H465.634V179.286C465.161 180.113 464.629 180.527 464.039 180.527H463.861H463.684C462.975 180.527 462.443 180.113 462.089 179.286V152.878H435.592C434.765 152.465 434.351 151.874 434.351 151.106V152.258Z" fill="black"/>
<path d="M522.278 173.172C521.274 173.172 520.772 172.876 520.772 172.286C520.772 172.167 520.86 171.754 521.038 171.045C521.274 170.1 521.51 169.568 521.747 169.45C521.983 169.332 522.662 169.243 523.785 169.184C525.38 169.184 527.152 169.095 529.102 168.918C529.929 168.741 530.49 168.386 530.786 167.855C530.904 167.559 533.001 159.259 537.078 142.953C541.154 126.647 543.222 118.376 543.281 118.14C543.281 117.726 543.163 117.52 542.926 117.52C542.454 117.342 540.888 117.195 538.23 117.076H535.482C535.128 116.722 534.951 116.486 534.951 116.367C534.951 116.249 535.01 115.747 535.128 114.861C535.364 113.857 535.66 113.236 536.014 113H583.779C584.193 113.236 584.4 113.561 584.4 113.975C584.4 114.27 584.016 117.579 583.248 123.9C582.48 130.221 582.066 133.471 582.007 133.648C581.889 134.062 581.298 134.268 580.235 134.268H579.171C578.758 133.973 578.551 133.589 578.551 133.116C578.551 133.057 578.639 132.348 578.817 130.989C578.994 129.631 579.083 128.065 579.083 126.293C579.083 124.52 578.876 123.073 578.462 121.95C578.049 120.828 577.487 119.912 576.778 119.203C576.07 118.494 574.977 118.022 573.5 117.785C572.023 117.549 570.516 117.342 568.98 117.165C567.444 116.988 565.317 116.958 562.6 117.076H560.561C555.717 117.136 553.147 117.224 552.852 117.342C552.556 117.46 552.349 117.697 552.231 118.051C552.172 118.11 551.168 121.98 549.218 129.66L546.382 141.092H551.256C551.434 141.092 552.113 141.092 553.295 141.092C554.476 141.092 555.303 141.062 555.776 141.003C556.249 140.944 556.899 140.856 557.726 140.737C558.553 140.619 559.262 140.413 559.852 140.117C560.443 139.822 560.945 139.467 561.359 139.054C562.127 138.345 562.777 137.37 563.309 136.129C563.84 134.889 564.224 133.766 564.461 132.762C564.697 131.758 564.845 131.226 564.904 131.167C565.081 130.871 565.642 130.724 566.587 130.724H567.651C568.064 131.019 568.271 131.314 568.271 131.61C568.271 131.787 567.355 135.657 565.524 143.219C563.693 150.781 562.688 154.68 562.511 154.916C562.393 155.33 561.802 155.537 560.739 155.537H559.675C559.262 155.182 559.055 154.828 559.055 154.473C559.055 154.296 559.203 153.646 559.498 152.524C559.793 151.401 559.941 150.22 559.941 148.979C559.941 147.266 559.35 146.202 558.169 145.789C556.987 145.375 554.358 145.168 550.282 145.168H545.408L542.572 156.423C540.681 163.749 539.736 167.589 539.736 167.943C539.736 168.77 542.365 169.184 547.623 169.184H549.839C550.193 169.538 550.37 169.745 550.37 169.804C550.37 169.863 550.311 170.454 550.193 171.577C549.957 172.345 549.661 172.906 549.307 173.26H547.8C545.378 173.142 540.918 173.083 534.419 173.083C530.579 173.083 527.655 173.083 525.646 173.083C523.637 173.083 522.515 173.113 522.278 173.172Z" fill="black"/>
<path d="M581.835 159.675C580.708 159.675 579.81 159.299 579.141 158.547C578.473 157.795 578.139 156.876 578.139 155.79C578.139 152.825 579.246 150.256 581.459 148.084C583.673 145.912 586.43 144.826 589.73 144.826C593.531 144.826 596.705 145.996 599.253 148.335C601.801 150.674 603.096 153.702 603.137 157.419C603.137 159.215 602.72 160.928 601.884 162.557C601.049 164.186 600.046 165.606 598.877 166.817C597.707 168.029 596.037 169.574 593.865 171.454C592.361 172.748 590.273 174.67 587.599 177.218L583.903 180.726L588.664 180.789C595.222 180.789 598.71 180.685 599.128 180.476C599.42 180.392 599.921 178.533 600.631 174.9V174.712H603.137V174.9C603.096 175.025 602.824 176.925 602.323 180.601C601.822 184.277 601.508 186.198 601.383 186.365V186.553H578.139V185.363V184.611C578.139 184.318 578.264 184.005 578.515 183.671C578.765 183.337 579.392 182.606 580.394 181.478C581.606 180.142 582.65 178.972 583.527 177.97C583.903 177.552 584.613 176.779 585.657 175.651C586.701 174.524 587.411 173.751 587.787 173.333C588.163 172.916 588.769 172.226 589.604 171.266C590.44 170.305 591.024 169.595 591.359 169.136C591.693 168.676 592.173 168.05 592.8 167.256C593.426 166.462 593.865 165.794 594.115 165.251C594.366 164.708 594.679 164.102 595.055 163.434C595.431 162.766 595.703 162.097 595.87 161.429C596.037 160.761 596.183 160.134 596.308 159.55C596.433 158.965 596.496 158.276 596.496 157.482C596.496 154.851 595.786 152.574 594.366 150.653C592.946 148.732 590.92 147.771 588.289 147.771C586.91 147.771 585.699 148.126 584.655 148.836C583.61 149.546 582.88 150.235 582.462 150.903C582.044 151.572 581.835 151.969 581.835 152.094C581.835 152.136 581.94 152.157 582.149 152.157C582.9 152.157 583.673 152.449 584.467 153.034C585.26 153.618 585.657 154.579 585.657 155.916C585.657 156.96 585.323 157.837 584.655 158.547C583.986 159.257 583.047 159.633 581.835 159.675Z" fill="black"/>
<path d="M607.263 183.238C607.263 182.825 607.484 182.116 607.927 181.112C608.37 180.108 609.079 179.06 610.053 177.967C611.028 176.874 612.121 176.343 613.331 176.372C614.542 176.372 615.517 176.712 616.255 177.391C616.993 178.07 617.377 179.015 617.407 180.226C617.347 180.787 617.303 181.097 617.274 181.156C617.274 181.245 617.037 181.924 616.565 183.194C616.092 184.464 615.605 185.896 615.103 187.491C614.601 189.085 614.365 190.355 614.394 191.3C614.394 192.57 614.601 193.456 615.015 193.958C615.428 194.46 616.048 194.725 616.875 194.755C617.554 194.755 618.189 194.593 618.78 194.268C619.37 193.943 619.828 193.603 620.153 193.249C620.478 192.895 620.876 192.407 621.349 191.787C621.349 191.758 621.423 191.462 621.57 190.901C621.718 190.34 621.925 189.469 622.19 188.288C622.456 187.107 622.737 186.014 623.032 185.01C624.154 180.58 624.774 178.262 624.892 178.056C625.276 177.258 625.911 176.86 626.797 176.86C627.181 176.86 627.491 176.963 627.727 177.17C627.964 177.376 628.126 177.554 628.215 177.701C628.303 177.849 628.333 177.982 628.303 178.1C628.303 178.484 627.58 181.584 626.133 187.402C624.686 193.219 623.859 196.409 623.652 196.97C622.825 199.421 621.393 201.37 619.356 202.817C617.318 204.264 615.28 205.002 613.243 205.032C611.914 205.032 610.747 204.707 609.743 204.057C608.739 203.407 608.237 202.433 608.237 201.134C608.237 200.484 608.341 199.938 608.547 199.495C608.754 199.052 609.035 198.727 609.389 198.52C609.743 198.313 610.039 198.166 610.275 198.077C610.511 197.989 610.762 197.944 611.028 197.944C612.327 197.944 612.977 198.564 612.977 199.805C612.977 200.395 612.8 200.912 612.445 201.355C612.091 201.798 611.751 202.093 611.427 202.241C611.102 202.389 610.91 202.462 610.851 202.462L610.718 202.507C610.777 202.654 611.057 202.832 611.559 203.038C612.062 203.245 612.564 203.348 613.066 203.348H613.42C613.922 203.348 614.306 203.319 614.572 203.26C615.546 202.994 616.447 202.433 617.274 201.577C618.1 200.72 618.735 199.805 619.178 198.83C619.621 197.856 619.961 197.029 620.197 196.35C620.433 195.67 620.552 195.227 620.552 195.021L620.286 195.198C620.109 195.316 619.828 195.479 619.444 195.685C619.06 195.892 618.676 196.069 618.292 196.217C617.702 196.364 617.126 196.438 616.565 196.438C615.207 196.438 614.011 196.113 612.977 195.464C611.943 194.814 611.264 193.766 610.939 192.319C610.91 192.112 610.895 191.654 610.895 190.946C610.895 189.262 611.412 187.062 612.445 184.346C613.479 181.629 613.996 179.901 613.996 179.163C613.996 179.133 613.996 179.104 613.996 179.074C613.996 178.809 613.996 178.631 613.996 178.543C613.996 178.454 613.937 178.351 613.819 178.233C613.7 178.115 613.538 178.056 613.331 178.056H613.154C612.475 178.056 611.855 178.336 611.294 178.897C610.733 179.458 610.29 180.064 609.965 180.713C609.64 181.363 609.389 181.983 609.212 182.574C609.035 183.164 608.917 183.489 608.857 183.548C608.798 183.607 608.562 183.637 608.149 183.637H607.529C607.351 183.46 607.263 183.327 607.263 183.238Z" fill="black"/>
<path d="M640.575 152.258C640.575 152.258 640.575 151.874 640.575 151.106C640.575 150.338 640.988 149.747 641.815 149.333H668.312V136.041L668.401 122.748C668.992 121.98 669.553 121.596 670.084 121.596C670.853 121.596 671.443 122.039 671.857 122.925V149.333H698.265C699.151 149.806 699.594 150.397 699.594 151.106C699.594 151.815 699.151 152.406 698.265 152.878H671.857V179.286C671.384 180.113 670.853 180.527 670.262 180.527H670.084H669.907C669.198 180.527 668.667 180.113 668.312 179.286V152.878H641.815C640.988 152.465 640.575 151.874 640.575 151.106V152.258Z" fill="black"/>
<path d="M711.469 167.943C711.469 166.525 711.971 165.285 712.976 164.221C713.98 163.158 715.25 162.626 716.786 162.626C718.204 162.626 719.445 163.099 720.508 164.044C721.572 164.989 722.133 166.259 722.192 167.855C722.192 169.332 721.69 170.602 720.685 171.665C719.681 172.729 718.411 173.26 716.875 173.26C715.339 173.26 714.069 172.758 713.064 171.754C712.06 170.749 711.528 169.479 711.469 167.943Z" fill="black"/>
<path d="M750.878 167.943C750.878 166.525 751.38 165.285 752.384 164.221C753.388 163.158 754.659 162.626 756.195 162.626C757.613 162.626 758.853 163.099 759.917 164.044C760.98 164.989 761.541 166.259 761.6 167.855C761.6 169.332 761.098 170.602 760.094 171.665C759.09 172.729 757.819 173.26 756.283 173.26C754.747 173.26 753.477 172.758 752.473 171.754C751.468 170.749 750.937 169.479 750.878 167.943Z" fill="black"/>
<path d="M790.277 167.943C790.277 166.525 790.779 165.285 791.784 164.221C792.788 163.158 794.058 162.626 795.594 162.626C797.012 162.626 798.253 163.099 799.316 164.044C800.38 164.989 800.941 166.259 801 167.855C801 169.332 800.498 170.602 799.494 171.665C798.489 172.729 797.219 173.26 795.683 173.26C794.147 173.26 792.877 172.758 791.872 171.754C790.868 170.749 790.336 169.479 790.277 167.943Z" fill="black"/>
</svg>
