<svg width="800" height="102" viewBox="0 0 800 102" fill="none" xmlns="http://www.w3.org/2000/svg">
<path d="M1.57784 86.9666C0.525945 86.9666 0 86.6572 0 86.0385C0 85.9147 0.0928139 85.4816 0.278442 84.7391C0.525945 83.749 0.773449 83.1922 1.02095 83.0684C1.26846 82.9447 1.98003 82.8518 3.15567 82.79C4.82632 82.79 6.6826 82.6972 8.7245 82.5115C9.59077 82.3259 10.1786 81.9546 10.488 81.3978C10.6117 81.0884 12.8083 72.3948 17.0778 55.3171C21.3472 38.2393 23.5128 29.5767 23.5747 29.3292C23.5747 28.896 23.451 28.6795 23.2035 28.6795C22.7085 28.4939 21.0688 28.3392 18.2843 28.2154H15.4071C15.0358 27.8442 14.8502 27.5967 14.8502 27.4729C14.8502 27.3491 14.9121 26.8232 15.0358 25.8951C15.2834 24.8432 15.5927 24.1935 15.964 23.946H65.9907C66.4238 24.1935 66.6404 24.5338 66.6404 24.9669C66.6404 25.2763 66.2382 28.7414 65.4338 35.3621C64.6294 41.9828 64.1963 45.386 64.1344 45.5716C64.0106 46.0047 63.3919 46.2213 62.2781 46.2213H61.1643C60.7312 45.9119 60.5146 45.5097 60.5146 45.0147C60.5146 44.9528 60.6075 44.2103 60.7931 42.7872C60.9787 41.364 61.0715 39.7243 61.0715 37.8681C61.0715 36.0118 60.855 34.4958 60.4218 33.3202C59.9887 32.1445 59.4009 31.1855 58.6584 30.4429C57.9159 29.7004 56.7712 29.2054 55.2243 28.9579C53.6774 28.7104 52.0995 28.4939 50.4908 28.3082C48.882 28.1226 46.6544 28.0917 43.8082 28.2154H41.6734C36.5996 28.2773 33.908 28.3701 33.5986 28.4939C33.2892 28.6176 33.0727 28.8651 32.9489 29.2364C32.8871 29.2982 31.8352 33.3511 29.7933 41.395L26.8232 53.368H31.928C32.1136 53.368 32.8252 53.368 34.0627 53.368C35.3002 53.368 36.1665 53.337 36.6615 53.2752C37.1565 53.2133 37.8371 53.1205 38.7034 52.9967C39.5697 52.873 40.3122 52.6564 40.9309 52.347C41.5497 52.0376 42.0756 51.6664 42.5088 51.2333C43.3131 50.4907 43.9938 49.4698 44.5507 48.1704C45.1075 46.871 45.5097 45.6954 45.7572 44.6435C46.0047 43.5916 46.1594 43.0347 46.2213 42.9728C46.4069 42.6634 46.9948 42.5087 47.9848 42.5087H49.0985C49.5317 42.8181 49.7482 43.1275 49.7482 43.4369C49.7482 43.6225 48.7892 47.6754 46.871 55.5955C44.9529 63.5156 43.901 67.5994 43.7153 67.8469C43.5916 68.2801 42.9728 68.4966 41.8591 68.4966H40.7453C40.3122 68.1254 40.0956 67.7541 40.0956 67.3829C40.0956 67.1972 40.2503 66.5166 40.5597 65.341C40.869 64.1653 41.0237 62.9278 41.0237 61.6284C41.0237 59.834 40.405 58.7202 39.1675 58.2871C37.9299 57.854 35.1765 57.6374 30.907 57.6374H25.8023L22.8322 69.4248C20.8522 77.0974 19.8622 81.1193 19.8622 81.4906C19.8622 82.3568 22.6156 82.79 28.1226 82.79H30.443C30.8142 83.1612 30.9998 83.3778 30.9998 83.4397C30.9998 83.5015 30.938 84.1203 30.8142 85.2959C30.5667 86.1003 30.2573 86.6882 29.8861 87.0594H28.3082C25.7713 86.9357 21.0997 86.8738 14.2933 86.8738C10.2714 86.8738 7.20854 86.8738 5.10476 86.8738C3.00098 86.8738 1.82534 86.9047 1.57784 86.9666Z" fill="black"/>
<path d="M58.779 1.85627C58.779 1.36127 58.9337 0.928135 59.2431 0.556879C59.5525 0.185624 60.0165 -4.23193e-06 60.6353 -4.23193e-06C61.0684 -4.23193e-06 61.4397 0.154686 61.7491 0.464065C62.0585 0.711569 62.3678 1.29939 62.6772 2.22753C63.296 4.51694 64.5644 6.2804 66.4826 7.51792C67.1632 7.95105 67.5035 8.50793 67.5035 9.18857C67.5035 9.74545 67.4107 10.1167 67.2251 10.3023C67.0395 10.488 66.6063 10.7664 65.9257 11.1377C63.265 12.4989 60.9447 14.448 58.9647 16.9849C58.8409 17.1087 58.6862 17.2943 58.5006 17.5418C58.315 17.7893 58.1603 17.975 58.0365 18.0987C57.9128 18.2225 57.7581 18.2843 57.5724 18.2843C57.3868 18.2843 57.1703 18.3153 56.9227 18.3771C56.4896 18.3771 56.0874 18.2225 55.7162 17.9131C55.3449 17.6037 55.1283 17.1396 55.0665 16.5209C55.0665 15.3452 56.5206 13.5199 59.4287 11.0448H43.5576L27.6864 10.952C26.882 10.3952 26.4798 9.80733 26.4798 9.18857C26.4798 8.75544 26.882 8.13668 27.6864 7.33229H61.0066C59.5215 4.98101 58.779 3.15567 58.779 1.85627Z" fill="black"/>
<path d="M71.5731 82.1487C71.6169 81.8863 71.6825 81.5363 71.77 81.0988C71.8575 80.6614 72.1199 79.8302 72.5574 78.6053C72.9949 77.3804 73.4323 76.3523 73.8698 75.5212C74.3073 74.69 75.0291 73.8807 76.0352 73.0933C77.0414 72.3058 78.0476 71.934 79.0537 71.9777C80.6286 71.9777 81.941 72.3714 82.9909 73.1589C84.0408 73.9463 84.697 74.69 84.9595 75.3899C85.222 76.0899 85.3532 76.5492 85.3532 76.7679C85.3532 76.8554 85.3751 76.8992 85.4188 76.8992L86.1406 76.1774C88.8092 73.3776 91.8495 71.9777 95.2617 71.9777C97.624 71.9777 99.527 72.5683 100.971 73.7494C102.414 74.9306 103.158 76.6586 103.202 78.9334C103.245 81.2082 102.414 84.6423 100.708 89.2356C99.002 93.829 98.1709 96.6069 98.2146 97.5693C98.2146 98.7067 98.5864 99.2754 99.3301 99.2754C99.5926 99.2754 99.7895 99.2535 99.9207 99.2098C101.189 98.991 102.327 98.1599 103.333 96.7162C104.339 95.2726 105.105 93.5228 105.63 91.4667C105.717 91.1167 106.155 90.9417 106.942 90.9417C107.817 90.9417 108.254 91.1167 108.254 91.4667C108.254 91.5104 108.167 91.8385 107.992 92.451C107.642 93.7196 107.161 94.9664 106.548 96.1913C105.936 97.4162 104.93 98.6411 103.53 99.866C102.13 101.091 100.621 101.681 99.002 101.638C96.946 101.638 95.4586 101.047 94.5399 99.866C93.6212 98.6848 93.1619 97.4599 93.1619 96.1913C93.1619 95.3601 93.9493 92.7353 95.5242 88.317C97.0991 83.8986 97.9084 80.5739 97.9521 78.3428C97.9521 75.7618 96.9897 74.4713 95.0649 74.4713H94.7368C90.9746 74.4713 87.803 76.6804 85.222 81.0988L84.7626 81.8863L82.5972 90.6793C81.1536 96.41 80.3224 99.4941 80.1036 99.9316C79.5349 101.113 78.5944 101.703 77.282 101.703C76.7133 101.703 76.254 101.572 75.904 101.31C75.554 101.047 75.3134 100.785 75.1822 100.522C75.0509 100.26 75.0072 100.041 75.0509 99.866C75.0509 99.2973 75.8821 95.7319 77.5445 89.17C79.2068 82.6081 80.0818 79.0427 80.1693 78.474C80.213 78.2553 80.2349 77.7522 80.2349 76.9648C80.2349 75.2587 79.7099 74.4056 78.66 74.4056C76.9977 74.4056 75.6197 76.593 74.526 80.9676C74.2635 81.8425 74.1323 82.3018 74.1323 82.3456C74.0448 82.6081 73.6292 82.7393 72.8855 82.7393H71.9668C71.7044 82.4768 71.5731 82.28 71.5731 82.1487Z" fill="black"/>
<path d="M112.126 89.9574C112.126 87.4639 112.542 85.1891 113.373 83.133C114.204 81.0769 115.276 79.3708 116.588 78.0147C117.9 76.6586 119.366 75.5212 120.985 74.6025C122.603 73.6838 124.134 73.0058 125.578 72.5683C127.022 72.1308 128.4 71.934 129.712 71.9777H129.909C131.877 71.9777 133.583 72.4589 135.027 73.4214C136.471 74.3838 137.193 75.8055 137.193 77.6866C137.193 81.6238 134.765 84.2048 129.909 85.4297C127.765 85.9984 124.834 86.3046 121.116 86.3484C119.497 86.3484 118.666 86.3921 118.622 86.4796C118.622 86.5671 118.491 87.3327 118.229 88.7763C117.966 90.2199 117.813 91.4886 117.769 92.5822C117.769 94.6383 118.229 96.2569 119.147 97.4381C120.066 98.6192 121.444 99.2317 123.281 99.2754C125.119 99.3191 127.153 98.9036 129.384 98.0286C131.615 97.1537 133.627 95.7101 135.421 93.6977C135.815 93.2603 136.077 93.0416 136.208 93.0416C136.383 93.0416 136.668 93.2384 137.061 93.6321C137.455 94.0258 137.674 94.3321 137.717 94.5508C137.761 94.7695 137.564 95.1195 137.127 95.6007C136.689 96.0819 136.033 96.6725 135.158 97.3724C134.283 98.0724 133.277 98.7504 132.14 99.4066C131.002 100.063 129.624 100.61 128.006 101.047C126.387 101.485 124.725 101.703 123.019 101.703C119.563 101.703 116.894 100.544 115.013 98.2255C113.132 95.9069 112.17 93.1509 112.126 89.9574ZM134.043 77.8179C133.78 75.543 132.293 74.4056 129.581 74.4056C128.137 74.4056 126.803 74.7119 125.578 75.3243C124.353 75.9368 123.369 76.6804 122.625 77.5554C121.881 78.4303 121.247 79.3271 120.722 80.2458C120.197 81.1644 119.847 81.9519 119.672 82.6081C119.497 83.2643 119.388 83.6799 119.344 83.8548C119.344 83.8986 119.782 83.9205 120.656 83.9205C125.6 83.9205 129.056 83.3955 131.024 82.3456C132.993 81.2957 133.999 79.7864 134.043 77.8179Z" fill="black"/>
<path d="M141.852 75.718C141.545 75.4118 141.392 75.1931 141.392 75.0618C141.392 74.8868 141.458 74.5369 141.589 74.0119C141.72 73.487 141.83 73.1807 141.917 73.0933C142.005 72.8745 142.201 72.7652 142.508 72.7652C142.814 72.7652 143.929 72.7433 145.854 72.6995H149.332L150.579 67.45C150.71 66.9688 150.863 66.3345 151.038 65.547C151.213 64.7596 151.366 64.1909 151.498 63.8409C151.629 63.4909 151.76 63.0535 151.891 62.5285C152.023 62.0036 152.198 61.6317 152.416 61.413C152.635 61.1943 152.854 60.9318 153.072 60.6256C153.291 60.3193 153.597 60.1225 153.991 60.035C154.385 59.9475 154.779 59.9037 155.172 59.9037C155.96 59.9475 156.507 60.1881 156.813 60.6256C157.119 61.063 157.272 61.4786 157.272 61.8723C157.272 62.1786 157.075 63.2066 156.682 64.9564C156.288 66.7063 155.85 68.4343 155.369 70.1404L154.713 72.5683C154.713 72.6558 155.807 72.6995 157.994 72.6995H161.34C161.647 73.0058 161.8 73.2464 161.8 73.4213C161.8 74.3838 161.515 75.1493 160.947 75.718H153.925L151.563 85.2328C149.857 92.2322 149.004 95.9944 149.004 96.5194C149.004 98.3567 149.595 99.2754 150.776 99.2754C152.307 99.2754 153.794 98.5317 155.238 97.0443C156.682 95.557 157.841 93.7196 158.716 91.5323C158.803 91.2698 158.913 91.1167 159.044 91.073C159.175 91.0292 159.503 90.9855 160.028 90.9417H160.291C160.947 90.9417 161.275 91.1167 161.275 91.4667C161.275 91.5979 161.209 91.8604 161.078 92.2541C160.859 92.9541 160.466 93.7852 159.897 94.7477C159.328 95.7101 158.584 96.7381 157.666 97.8318C156.747 98.9254 155.632 99.8441 154.319 100.588C153.007 101.331 151.673 101.703 150.316 101.703C149.004 101.703 147.757 101.375 146.576 100.719C145.395 100.063 144.542 98.9254 144.017 97.3068C143.929 96.9568 143.886 96.3663 143.886 95.5351V94.3539L146.182 85.1672C147.714 78.999 148.501 75.893 148.545 75.8493C148.545 75.7618 147.429 75.718 145.198 75.718H141.852Z" fill="black"/>
<path d="M199.466 54.853C199.466 54.0486 199.899 53.4299 200.766 52.9967H259.888C260.816 53.4917 261.28 54.1105 261.28 54.853C261.28 55.5336 260.847 56.1215 259.981 56.6165L230.466 56.7093H200.951C199.961 56.3999 199.466 55.7811 199.466 54.853ZM199.466 72.8589C199.466 71.9308 199.961 71.312 200.951 71.0026H259.981C260.847 71.6214 261.28 72.2401 261.28 72.8589C261.28 73.6633 260.816 74.282 259.888 74.7152H200.766C199.899 74.282 199.466 73.6633 199.466 72.8589Z" fill="black"/>
<path d="M296.717 86.9666C295.665 86.9666 295.139 86.6572 295.139 86.0385C295.139 85.9147 295.232 85.4816 295.417 84.7391C295.665 83.7491 295.912 83.1922 296.16 83.0684C296.407 82.9447 297.119 82.8519 298.294 82.79C299.965 82.79 301.821 82.6972 303.863 82.5115C304.73 82.3259 305.317 81.9547 305.627 81.3978C305.751 81.0884 307.947 72.3948 312.217 55.3171C316.486 38.2393 318.652 29.5767 318.714 29.3292C318.714 28.8961 318.59 28.6795 318.342 28.6795C317.847 28.4939 316.208 28.3392 313.423 28.2154H310.546C310.175 27.8442 309.989 27.5967 309.989 27.4729C309.989 27.3492 310.051 26.8232 310.175 25.8951C310.422 24.8432 310.732 24.1935 311.103 23.946H361.129C361.563 24.1935 361.779 24.5338 361.779 24.9669C361.779 25.2763 361.377 28.7414 360.573 35.3621C359.768 41.9828 359.335 45.386 359.273 45.5716C359.149 46.0048 358.531 46.2213 357.417 46.2213H356.303C355.87 45.9119 355.653 45.5097 355.653 45.0147C355.653 44.9529 355.746 44.2104 355.932 42.7872C356.118 41.3641 356.21 39.7243 356.21 37.8681C356.21 36.0118 355.994 34.4958 355.561 33.3202C355.128 32.1445 354.54 31.1855 353.797 30.443C353.055 29.7004 351.91 29.2054 350.363 28.9579C348.816 28.7104 347.238 28.4939 345.63 28.3082C344.021 28.1226 341.793 28.0917 338.947 28.2154H336.812C331.738 28.2773 329.047 28.3701 328.737 28.4939C328.428 28.6176 328.212 28.8651 328.088 29.2364C328.026 29.2983 326.974 33.3511 324.932 41.395L321.962 53.368H327.067C327.252 53.368 327.964 53.368 329.202 53.368C330.439 53.368 331.305 53.337 331.8 53.2752C332.295 53.2133 332.976 53.1205 333.842 52.9967C334.708 52.873 335.451 52.6564 336.07 52.347C336.689 52.0377 337.214 51.6664 337.648 51.2333C338.452 50.4908 339.133 49.4698 339.689 48.1704C340.246 46.871 340.649 45.6954 340.896 44.6435C341.144 43.5916 341.298 43.0347 341.36 42.9728C341.546 42.6635 342.134 42.5088 343.124 42.5088H344.237C344.67 42.8181 344.887 43.1275 344.887 43.4369C344.887 43.6225 343.928 47.6754 342.01 55.5955C340.092 63.5156 339.04 67.5994 338.854 67.847C338.73 68.2801 338.112 68.4966 336.998 68.4966H335.884C335.451 68.1254 335.234 67.7541 335.234 67.3829C335.234 67.1973 335.389 66.5166 335.698 65.341C336.008 64.1653 336.163 62.9278 336.163 61.6284C336.163 59.834 335.544 58.7203 334.306 58.2871C333.069 57.854 330.315 57.6374 326.046 57.6374H320.941L317.971 69.4248C315.991 77.0974 315.001 81.1193 315.001 81.4906C315.001 82.3569 317.754 82.79 323.261 82.79H325.582C325.953 83.1612 326.139 83.3778 326.139 83.4397C326.139 83.5016 326.077 84.1203 325.953 85.296C325.706 86.1003 325.396 86.6882 325.025 87.0594H323.447C320.91 86.9357 316.239 86.8738 309.432 86.8738C305.41 86.8738 302.347 86.8738 300.244 86.8738C298.14 86.8738 296.964 86.9047 296.717 86.9666Z" fill="black"/>
<path d="M353.918 1.85627C353.918 1.36127 354.073 0.928135 354.382 0.556879C354.691 0.185624 355.155 -4.23193e-06 355.774 -4.23193e-06C356.207 -4.23193e-06 356.579 0.154686 356.888 0.464065C357.197 0.711569 357.507 1.29939 357.816 2.22753C358.435 4.51694 359.703 6.2804 361.621 7.51792C362.302 7.95105 362.642 8.50793 362.642 9.18857C362.642 9.74545 362.55 10.1167 362.364 10.3023C362.178 10.488 361.745 10.7664 361.065 11.1377C358.404 12.4989 356.084 14.448 354.103 16.9849C353.98 17.1087 353.825 17.2943 353.639 17.5418C353.454 17.7893 353.299 17.975 353.175 18.0987C353.052 18.2225 352.897 18.2843 352.711 18.2843C352.526 18.2843 352.309 18.3153 352.062 18.3771C351.628 18.3771 351.226 18.2225 350.855 17.9131C350.484 17.6037 350.267 17.1396 350.205 16.5209C350.205 15.3452 351.659 13.5199 354.568 11.0448H338.696L322.825 10.952C322.021 10.3952 321.619 9.80733 321.619 9.18857C321.619 8.75544 322.021 8.13668 322.825 7.33229H356.145C354.66 4.98101 353.918 3.15567 353.918 1.85627Z" fill="black"/>
<path d="M379.311 63.0535L378.458 63.3816C377.845 63.6003 376.97 63.819 375.833 64.0378C374.696 64.2565 373.427 64.4096 372.027 64.4971H370.78V61.4786H372.027C374.083 61.3911 375.986 61.063 377.736 60.4943C379.486 59.9256 380.711 59.4007 381.411 58.9195C382.111 58.4383 382.723 57.957 383.248 57.4758C383.336 57.3446 383.598 57.279 384.036 57.279C384.429 57.279 384.801 57.4102 385.151 57.6727V77.2929L385.217 96.9787C385.523 97.2849 385.785 97.4818 386.004 97.5693C386.223 97.6568 386.748 97.7443 387.579 97.8318C388.41 97.9193 389.766 97.963 391.647 97.963H393.353V100.982H392.632C391.713 100.85 388.235 100.785 382.198 100.785C376.249 100.785 372.815 100.85 371.896 100.982H371.108V97.963H372.815C373.777 97.963 374.608 97.963 375.308 97.963C376.008 97.963 376.555 97.9411 376.949 97.8974C377.342 97.8536 377.692 97.788 377.999 97.7005C378.305 97.613 378.48 97.5693 378.523 97.5693C378.567 97.5693 378.698 97.4599 378.917 97.2412C379.136 97.0225 379.267 96.935 379.311 96.9787V63.0535Z" fill="black"/>
<path d="M428.614 65.0625C428.614 65.0625 428.614 64.6603 428.614 63.856C428.614 63.0516 429.048 62.4328 429.914 61.9997H457.665V48.0776L457.758 34.1555C458.377 33.3511 458.965 32.9489 459.521 32.9489C460.326 32.9489 460.945 33.413 461.378 34.3411V61.9997H489.036C489.964 62.4947 490.429 63.1134 490.429 63.856C490.429 64.5985 489.964 65.2172 489.036 65.7122H461.378V93.3708C460.883 94.237 460.326 94.6702 459.707 94.6702H459.521H459.336C458.593 94.6702 458.036 94.237 457.665 93.3708V65.7122H429.914C429.048 65.2791 428.614 64.6603 428.614 63.856V65.0625Z" fill="black"/>
<path d="M520.704 86.9666C519.653 86.9666 519.127 86.6572 519.127 86.0385C519.127 85.9147 519.219 85.4816 519.405 84.7391C519.653 83.7491 519.9 83.1922 520.148 83.0684C520.395 82.9447 521.107 82.8519 522.282 82.79C523.953 82.79 525.809 82.6972 527.851 82.5115C528.717 82.3259 529.305 81.9547 529.615 81.3978C529.738 81.0884 531.935 72.3948 536.204 55.3171C540.474 38.2393 542.639 29.5767 542.701 29.3292C542.701 28.8961 542.578 28.6795 542.33 28.6795C541.835 28.4939 540.195 28.3392 537.411 28.2154H534.534C534.162 27.8442 533.977 27.5967 533.977 27.4729C533.977 27.3492 534.039 26.8232 534.162 25.8951C534.41 24.8432 534.719 24.1935 535.091 23.946H585.117C585.55 24.1935 585.767 24.5338 585.767 24.9669C585.767 25.2763 585.365 28.7414 584.56 35.3621C583.756 41.9828 583.323 45.386 583.261 45.5716C583.137 46.0048 582.518 46.2213 581.405 46.2213H580.291C579.858 45.9119 579.641 45.5097 579.641 45.0147C579.641 44.9529 579.734 44.2104 579.92 42.7872C580.105 41.3641 580.198 39.7243 580.198 37.8681C580.198 36.0118 579.982 34.4958 579.548 33.3202C579.115 32.1445 578.528 31.1855 577.785 30.443C577.042 29.7004 575.898 29.2054 574.351 28.9579C572.804 28.7104 571.226 28.4939 569.617 28.3082C568.009 28.1226 565.781 28.0917 562.935 28.2154H560.8C555.726 28.2773 553.035 28.3701 552.725 28.4939C552.416 28.6176 552.199 28.8651 552.076 29.2364C552.014 29.2983 550.962 33.3511 548.92 41.395L545.95 53.368H551.055C551.24 53.368 551.952 53.368 553.189 53.368C554.427 53.368 555.293 53.337 555.788 53.2752C556.283 53.2133 556.964 53.1205 557.83 52.9967C558.696 52.873 559.439 52.6564 560.058 52.347C560.676 52.0377 561.202 51.6664 561.635 51.2333C562.44 50.4908 563.12 49.4698 563.677 48.1704C564.234 46.871 564.636 45.6954 564.884 44.6435C565.131 43.5916 565.286 43.0347 565.348 42.9728C565.534 42.6635 566.121 42.5088 567.111 42.5088H568.225C568.658 42.8181 568.875 43.1275 568.875 43.4369C568.875 43.6225 567.916 47.6754 565.998 55.5955C564.079 63.5156 563.028 67.5994 562.842 67.847C562.718 68.2801 562.099 68.4966 560.986 68.4966H559.872C559.439 68.1254 559.222 67.7541 559.222 67.3829C559.222 67.1973 559.377 66.5166 559.686 65.341C559.996 64.1653 560.15 62.9278 560.15 61.6284C560.15 59.834 559.532 58.7203 558.294 58.2871C557.057 57.854 554.303 57.6374 550.034 57.6374H544.929L541.959 69.4248C539.979 77.0974 538.989 81.1193 538.989 81.4906C538.989 82.3569 541.742 82.79 547.249 82.79H549.57C549.941 83.1612 550.126 83.3778 550.126 83.4397C550.126 83.5016 550.065 84.1203 549.941 85.296C549.693 86.1003 549.384 86.6882 549.013 87.0594H547.435C544.898 86.9357 540.226 86.8738 533.42 86.8738C529.398 86.8738 526.335 86.8738 524.231 86.8738C522.128 86.8738 520.952 86.9047 520.704 86.9666Z" fill="black"/>
<path d="M577.906 1.85627C577.906 1.36127 578.06 0.928135 578.37 0.556879C578.679 0.185624 579.143 -4.23193e-06 579.762 -4.23193e-06C580.195 -4.23193e-06 580.566 0.154686 580.876 0.464065C581.185 0.711569 581.494 1.29939 581.804 2.22753C582.423 4.51694 583.691 6.2804 585.609 7.51792C586.29 7.95105 586.63 8.50793 586.63 9.18857C586.63 9.74545 586.537 10.1167 586.352 10.3023C586.166 10.488 585.733 10.7664 585.052 11.1377C582.392 12.4989 580.071 14.448 578.091 16.9849C577.967 17.1087 577.813 17.2943 577.627 17.5418C577.442 17.7893 577.287 17.975 577.163 18.0987C577.039 18.2225 576.885 18.2843 576.699 18.2843C576.513 18.2843 576.297 18.3153 576.049 18.3771C575.616 18.3771 575.214 18.2225 574.843 17.9131C574.472 17.6037 574.255 17.1396 574.193 16.5209C574.193 15.3452 575.647 13.5199 578.555 11.0448H562.684L546.813 10.952C546.009 10.3952 545.606 9.80733 545.606 9.18857C545.606 8.75544 546.009 8.13668 546.813 7.33229H580.133C578.648 4.98101 577.906 3.15567 577.906 1.85627Z" fill="black"/>
<path d="M596.474 72.8308C595.293 72.8308 594.353 72.4371 593.653 71.6496C592.953 70.8622 592.603 69.8998 592.603 68.7624C592.603 65.6564 593.762 62.966 596.08 60.6912C598.399 58.4164 601.286 57.279 604.742 57.279C608.723 57.279 612.048 58.5039 614.716 60.9537C617.385 63.4035 618.741 66.5751 618.785 70.4685C618.785 72.3496 618.347 74.1432 617.472 75.8493C616.597 77.5554 615.548 79.0428 614.323 80.3114C613.098 81.58 611.348 83.1986 609.073 85.1672C607.498 86.5234 605.311 88.5357 602.511 91.2042L598.64 94.8789L603.627 94.9445C610.495 94.9445 614.148 94.8352 614.585 94.6164C614.891 94.5289 615.416 92.5822 616.16 88.7763V88.5794H618.785V88.7763C618.741 88.9075 618.457 90.898 617.932 94.7477C617.407 98.5973 617.079 100.61 616.947 100.785V100.982H592.603V99.7347V98.9473C592.603 98.6411 592.734 98.313 592.996 97.963C593.259 97.613 593.915 96.8475 594.965 95.6663C596.234 94.2665 597.327 93.0416 598.246 91.9916C598.64 91.5542 599.383 90.7449 600.477 89.5637C601.571 88.3826 602.314 87.5733 602.708 87.1358C603.102 86.6983 603.736 85.9765 604.611 84.9704C605.486 83.9642 606.098 83.2205 606.448 82.7393C606.798 82.2581 607.301 81.6019 607.958 80.7707C608.614 79.9395 609.073 79.2396 609.336 78.6709C609.598 78.1022 609.926 77.4679 610.32 76.7679C610.714 76.068 610.998 75.3681 611.173 74.6681C611.348 73.9682 611.501 73.312 611.632 72.6995C611.764 72.0871 611.829 71.3653 611.829 70.5341C611.829 67.7781 611.085 65.3939 609.598 63.3816C608.111 61.3693 605.989 60.3631 603.233 60.3631C601.789 60.3631 600.521 60.7349 599.427 61.4786C598.333 62.2223 597.568 62.9441 597.13 63.6441C596.693 64.344 596.474 64.7596 596.474 64.8908C596.474 64.9346 596.584 64.9565 596.802 64.9565C597.59 64.9565 598.399 65.2627 599.23 65.8751C600.061 66.4876 600.477 67.4937 600.477 68.8936C600.477 69.9873 600.127 70.9059 599.427 71.6496C598.727 72.3933 597.743 72.787 596.474 72.8308Z" fill="black"/>
<path d="M631.97 65.0625C631.97 65.0625 631.97 64.6603 631.97 63.856C631.97 63.0516 632.403 62.4328 633.269 61.9997H661.02V48.0776L661.113 34.1555C661.732 33.3511 662.32 32.9489 662.877 32.9489C663.681 32.9489 664.3 33.413 664.733 34.3411V61.9997H692.392C693.32 62.4947 693.784 63.1134 693.784 63.856C693.784 64.5985 693.32 65.2172 692.392 65.7122H664.733V93.3708C664.238 94.237 663.681 94.6702 663.062 94.6702H662.877H662.691C661.949 94.6702 661.392 94.237 661.02 93.3708V65.7122H633.269C632.403 65.2791 631.97 64.6603 631.97 63.856V65.0625Z" fill="black"/>
<path d="M706.221 81.4906C706.221 80.0056 706.747 78.7062 707.799 77.5924C708.851 76.4786 710.181 75.9217 711.79 75.9217C713.275 75.9217 714.574 76.4168 715.688 77.4068C716.802 78.3968 717.389 79.7271 717.451 81.3978C717.451 82.9447 716.925 84.275 715.873 85.3888C714.822 86.5025 713.491 87.0594 711.882 87.0594C710.274 87.0594 708.943 86.5335 707.891 85.4816C706.84 84.4297 706.283 83.0994 706.221 81.4906Z" fill="black"/>
<path d="M747.495 81.4906C747.495 80.0056 748.021 78.7062 749.073 77.5924C750.125 76.4786 751.455 75.9217 753.064 75.9217C754.549 75.9217 755.848 76.4168 756.962 77.4068C758.076 78.3968 758.664 79.7271 758.726 81.3978C758.726 82.9447 758.2 84.275 757.148 85.3888C756.096 86.5025 754.766 87.0594 753.157 87.0594C751.548 87.0594 750.218 86.5335 749.166 85.4816C748.114 84.4297 747.557 83.0994 747.495 81.4906Z" fill="black"/>
<path d="M788.77 81.4906C788.77 80.0056 789.295 78.7062 790.347 77.5924C791.399 76.4786 792.73 75.9217 794.338 75.9217C795.823 75.9217 797.123 76.4168 798.237 77.4068C799.35 78.3968 799.938 79.7271 800 81.3978C800 82.9447 799.474 84.275 798.422 85.3888C797.37 86.5025 796.04 87.0594 794.431 87.0594C792.822 87.0594 791.492 86.5335 790.44 85.4816C789.388 84.4297 788.831 83.0994 788.77 81.4906Z" fill="black"/>
</svg>
