<svg width="252" height="467" viewBox="0 0 252 467" fill="none" xmlns="http://www.w3.org/2000/svg">
<path d="M188.722 466.494C223.51 466.494 251.711 438.293 251.711 403.505C251.711 368.717 223.51 340.515 188.722 340.515C153.934 340.515 125.732 368.717 125.732 403.505C125.732 438.293 153.934 466.494 188.722 466.494Z" fill="#6C63FF"/>
<path d="M146.656 336.04C137.926 336.04 129.383 333.51 122.062 328.756C114.74 324.002 108.953 317.228 105.401 309.253L5.44873 84.1616C2.13777 76.7054 0.38667 68.6509 0.303069 60.493C0.219467 52.3352 1.80513 44.2465 4.96258 36.724C8.12004 29.2015 12.7826 22.4043 18.6636 16.75C24.5447 11.0958 31.5199 6.70401 39.1607 3.84467C46.8015 0.985328 54.9463 -0.28118 63.0945 0.123006C71.2427 0.527192 79.2222 2.59353 86.5425 6.195C93.8628 9.79647 100.369 14.857 105.662 21.0655C110.954 27.274 114.921 34.4993 117.319 42.2973L189.696 277.709C191.768 284.448 192.231 291.578 191.048 298.528C189.864 305.477 187.067 312.053 182.882 317.725C178.696 323.398 173.238 328.01 166.947 331.19C160.656 334.371 153.706 336.032 146.656 336.04H146.656Z" fill="#6C63FF"/>
</svg>
