<svg width="948" height="974" viewBox="0 0 948 974" fill="none" xmlns="http://www.w3.org/2000/svg">
<path d="M674.86 299.14L619.092 314.083L659.917 354.908L674.86 299.14ZM453.536 527.536L646.576 334.495L639.505 327.424L446.464 520.464L453.536 527.536Z" fill="#4066E0"/>
<path d="M598.731 421.312C598.244 421.312 598 421.169 598 420.882C598 420.825 598.043 420.624 598.129 420.28C598.244 419.821 598.359 419.563 598.473 419.505C598.588 419.448 598.918 419.405 599.463 419.376C600.237 419.376 601.098 419.333 602.044 419.247C602.446 419.161 602.718 418.989 602.862 418.731C602.919 418.587 603.937 414.558 605.916 406.641C607.895 398.725 608.899 394.71 608.928 394.595C608.928 394.394 608.87 394.294 608.756 394.294C608.526 394.208 607.766 394.136 606.475 394.079H605.142C604.97 393.907 604.884 393.792 604.884 393.735C604.884 393.677 604.912 393.434 604.97 393.003C605.084 392.516 605.228 392.215 605.4 392.1H628.589C628.79 392.215 628.89 392.372 628.89 392.573C628.89 392.716 628.704 394.323 628.331 397.392C627.958 400.461 627.757 402.038 627.729 402.124C627.671 402.325 627.384 402.425 626.868 402.425H626.352C626.151 402.282 626.051 402.095 626.051 401.866C626.051 401.837 626.094 401.493 626.18 400.833C626.266 400.174 626.309 399.414 626.309 398.553C626.309 397.693 626.208 396.99 626.008 396.445C625.807 395.9 625.534 395.456 625.19 395.111C624.846 394.767 624.315 394.538 623.598 394.423C622.881 394.308 622.15 394.208 621.404 394.122C620.659 394.036 619.626 394.021 618.307 394.079H617.317C614.965 394.108 613.718 394.151 613.574 394.208C613.431 394.265 613.33 394.38 613.273 394.552C613.244 394.581 612.757 396.459 611.81 400.188L610.434 405.738H612.8C612.886 405.738 613.216 405.738 613.789 405.738C614.363 405.738 614.764 405.724 614.994 405.695C615.223 405.666 615.539 405.623 615.94 405.566C616.342 405.508 616.686 405.408 616.973 405.265C617.26 405.121 617.504 404.949 617.704 404.748C618.077 404.404 618.393 403.931 618.651 403.329C618.909 402.726 619.095 402.181 619.21 401.694C619.325 401.206 619.397 400.948 619.425 400.919C619.511 400.776 619.784 400.704 620.243 400.704H620.759C620.96 400.848 621.06 400.991 621.06 401.135C621.06 401.221 620.616 403.099 619.726 406.77C618.837 410.442 618.35 412.335 618.264 412.449C618.206 412.65 617.919 412.751 617.403 412.751H616.887C616.686 412.579 616.586 412.406 616.586 412.234C616.586 412.148 616.657 411.833 616.801 411.288C616.944 410.743 617.016 410.169 617.016 409.567C617.016 408.735 616.729 408.219 616.156 408.018C615.582 407.817 614.306 407.717 612.327 407.717H609.96L608.584 413.181C607.666 416.737 607.207 418.602 607.207 418.774C607.207 419.175 608.483 419.376 611.036 419.376H612.111C612.283 419.548 612.37 419.649 612.37 419.677C612.37 419.706 612.341 419.993 612.283 420.538C612.169 420.911 612.025 421.183 611.853 421.355H611.122C609.946 421.298 607.78 421.269 604.625 421.269C602.761 421.269 601.341 421.269 600.366 421.269C599.391 421.269 598.846 421.283 598.731 421.312Z" fill="#4066E0"/>
<path d="M625.246 381.86C625.246 381.631 625.318 381.43 625.461 381.258C625.605 381.086 625.82 381 626.107 381C626.307 381 626.479 381.072 626.623 381.215C626.766 381.33 626.91 381.602 627.053 382.033C627.34 383.094 627.928 383.911 628.817 384.485C629.133 384.686 629.29 384.944 629.29 385.259C629.29 385.517 629.247 385.689 629.161 385.775C629.075 385.862 628.874 385.991 628.559 386.163C627.326 386.794 626.25 387.697 625.332 388.873C625.275 388.93 625.203 389.017 625.117 389.131C625.031 389.246 624.959 389.332 624.902 389.389C624.845 389.447 624.773 389.475 624.687 389.475C624.601 389.475 624.5 389.49 624.386 389.518C624.185 389.518 623.999 389.447 623.826 389.303C623.654 389.16 623.554 388.945 623.525 388.658C623.525 388.113 624.199 387.267 625.547 386.12H618.19L610.834 386.077C610.461 385.819 610.274 385.546 610.274 385.259C610.274 385.058 610.461 384.772 610.834 384.399H626.279C625.59 383.309 625.246 382.463 625.246 381.86Z" fill="#4066E0"/>
<path d="M631.177 419.079C631.197 418.957 631.227 418.795 631.268 418.592C631.309 418.389 631.43 418.004 631.633 417.436C631.836 416.869 632.039 416.392 632.241 416.007C632.444 415.621 632.779 415.246 633.245 414.881C633.711 414.516 634.178 414.344 634.644 414.364C635.374 414.364 635.983 414.547 636.469 414.912C636.956 415.277 637.26 415.621 637.382 415.946C637.503 416.27 637.564 416.483 637.564 416.585C637.564 416.625 637.574 416.646 637.595 416.646L637.929 416.311C639.166 415.013 640.576 414.364 642.157 414.364C643.252 414.364 644.134 414.638 644.803 415.185C645.473 415.733 645.817 416.534 645.838 417.588C645.858 418.643 645.473 420.235 644.682 422.364C643.891 424.493 643.506 425.781 643.526 426.227C643.526 426.754 643.698 427.018 644.043 427.018C644.165 427.018 644.256 427.008 644.317 426.987C644.905 426.886 645.432 426.501 645.898 425.831C646.365 425.162 646.72 424.351 646.963 423.398C647.004 423.236 647.206 423.155 647.571 423.155C647.977 423.155 648.18 423.236 648.18 423.398C648.18 423.418 648.139 423.57 648.058 423.854C647.896 424.442 647.673 425.02 647.389 425.588C647.105 426.156 646.639 426.724 645.99 427.291C645.341 427.859 644.641 428.133 643.891 428.113C642.938 428.113 642.248 427.839 641.823 427.291C641.397 426.744 641.184 426.176 641.184 425.588C641.184 425.203 641.549 423.986 642.279 421.938C643.009 419.89 643.384 418.349 643.404 417.315C643.404 416.118 642.958 415.52 642.066 415.52H641.914C640.17 415.52 638.7 416.544 637.503 418.592L637.291 418.957L636.287 423.033C635.618 425.689 635.232 427.119 635.131 427.322C634.867 427.869 634.431 428.143 633.823 428.143C633.559 428.143 633.346 428.082 633.184 427.961C633.022 427.839 632.91 427.717 632.85 427.596C632.789 427.474 632.769 427.373 632.789 427.291C632.789 427.028 633.174 425.375 633.945 422.333C634.715 419.292 635.121 417.639 635.161 417.376C635.182 417.274 635.192 417.041 635.192 416.676C635.192 415.885 634.948 415.49 634.462 415.49C633.691 415.49 633.052 416.504 632.545 418.531C632.424 418.937 632.363 419.15 632.363 419.17C632.322 419.292 632.13 419.353 631.785 419.353H631.359C631.238 419.231 631.177 419.14 631.177 419.079Z" fill="#4066E0"/>
<path d="M649.974 422.698C649.974 421.543 650.167 420.488 650.552 419.535C650.938 418.582 651.434 417.791 652.043 417.163C652.651 416.534 653.33 416.007 654.081 415.581C654.831 415.155 655.541 414.841 656.21 414.638C656.879 414.435 657.518 414.344 658.126 414.364H658.217C659.13 414.364 659.921 414.587 660.59 415.033C661.259 415.48 661.594 416.139 661.594 417.011C661.594 418.836 660.468 420.032 658.217 420.6C657.224 420.863 655.865 421.005 654.141 421.026C653.391 421.026 653.006 421.046 652.986 421.086C652.986 421.127 652.925 421.482 652.803 422.151C652.681 422.82 652.61 423.408 652.59 423.915C652.59 424.868 652.803 425.619 653.229 426.166C653.655 426.714 654.294 426.997 655.145 427.018C655.997 427.038 656.94 426.845 657.974 426.44C659.008 426.034 659.941 425.365 660.772 424.432C660.955 424.229 661.077 424.128 661.137 424.128C661.218 424.128 661.35 424.219 661.533 424.402C661.715 424.584 661.817 424.726 661.837 424.828C661.857 424.929 661.766 425.091 661.563 425.314C661.36 425.537 661.056 425.811 660.651 426.136C660.245 426.46 659.779 426.774 659.252 427.079C658.724 427.383 658.086 427.636 657.335 427.839C656.585 428.042 655.814 428.143 655.024 428.143C653.422 428.143 652.185 427.606 651.313 426.531C650.441 425.456 649.995 424.179 649.974 422.698ZM660.134 417.071C660.012 416.017 659.323 415.49 658.065 415.49C657.396 415.49 656.778 415.632 656.21 415.916C655.642 416.199 655.186 416.544 654.841 416.95C654.496 417.355 654.202 417.771 653.959 418.197C653.716 418.623 653.553 418.988 653.472 419.292C653.391 419.596 653.341 419.789 653.32 419.87C653.32 419.89 653.523 419.9 653.929 419.9C656.22 419.9 657.822 419.657 658.734 419.17C659.647 418.683 660.113 417.984 660.134 417.071Z" fill="#4066E0"/>
<path d="M663.753 416.098C663.611 415.956 663.54 415.855 663.54 415.794C663.54 415.713 663.571 415.55 663.632 415.307C663.692 415.064 663.743 414.922 663.784 414.881C663.824 414.78 663.915 414.729 664.057 414.729C664.199 414.729 664.716 414.719 665.609 414.699H667.221L667.799 412.265C667.86 412.042 667.931 411.748 668.012 411.383C668.093 411.018 668.164 410.755 668.225 410.593C668.285 410.43 668.346 410.228 668.407 409.984C668.468 409.741 668.549 409.569 668.65 409.467C668.752 409.366 668.853 409.244 668.955 409.102C669.056 408.96 669.198 408.869 669.38 408.828C669.563 408.788 669.745 408.768 669.928 408.768C670.293 408.788 670.546 408.899 670.688 409.102C670.83 409.305 670.901 409.498 670.901 409.68C670.901 409.822 670.81 410.299 670.627 411.11C670.445 411.921 670.242 412.722 670.019 413.513L669.715 414.638C669.715 414.679 670.222 414.699 671.236 414.699H672.787C672.929 414.841 673 414.952 673 415.033C673 415.48 672.868 415.834 672.605 416.098H669.35L668.255 420.508C667.464 423.753 667.069 425.497 667.069 425.74C667.069 426.592 667.342 427.018 667.89 427.018C668.6 427.018 669.289 426.673 669.958 425.984C670.627 425.294 671.165 424.442 671.57 423.428C671.611 423.307 671.662 423.236 671.722 423.216C671.783 423.195 671.935 423.175 672.179 423.155H672.3C672.605 423.155 672.757 423.236 672.757 423.398C672.757 423.459 672.726 423.581 672.665 423.763C672.564 424.088 672.382 424.473 672.118 424.919C671.854 425.365 671.51 425.842 671.084 426.349C670.658 426.855 670.141 427.281 669.532 427.626C668.924 427.971 668.306 428.143 667.677 428.143C667.069 428.143 666.491 427.991 665.943 427.687C665.396 427.383 665 426.855 664.757 426.105C664.716 425.943 664.696 425.669 664.696 425.284V424.736L665.761 420.478C666.47 417.619 666.835 416.179 666.856 416.159C666.856 416.118 666.339 416.098 665.305 416.098H663.753Z" fill="#4066E0"/>
<path d="M900 524L880 512.453V535.547L900 524ZM0 526H882V522H0V526Z" fill="black"/>
<path d="M450 74L438.453 94H461.547L450 74ZM452 974L452 92H448L448 974H452Z" fill="black"/>
<path d="M935.789 520.898L941.414 511.641H946.477L938.18 524.18L946.734 537H941.719L935.859 527.508L930 537H924.961L933.516 524.18L925.219 511.641H930.234L935.789 520.898Z" fill="black"/>
<path d="M448.578 37.6484L454.484 18.6406H459.125L448.93 47.9141C447.352 52.1328 444.844 54.2422 441.406 54.2422L440.586 54.1719L438.969 53.8672V50.3516L440.141 50.4453C441.609 50.4453 442.75 50.1484 443.562 49.5547C444.391 48.9609 445.07 47.875 445.602 46.2969L446.562 43.7188L437.516 18.6406H442.25L448.578 37.6484Z" fill="black"/>
<path d="M593 381L565.116 388.471L585.529 408.884L593 381ZM451.768 525.768L578.858 398.678L575.322 395.142L448.232 522.232L451.768 525.768Z" fill="#EF224B"/>
<path d="M506 501.965C506 497.745 507.588 493.735 510.763 489.933C513.938 486.131 517.51 484.209 521.478 484.168C523.609 484.168 525.489 485.191 527.118 487.238C527.787 485.985 528.748 485.358 530.001 485.358C530.544 485.358 531.024 485.525 531.442 485.86C531.86 486.194 532.069 486.612 532.069 487.113C532.069 487.656 531.296 490.998 529.75 497.139C528.204 503.281 527.411 506.748 527.369 507.542C527.369 508.586 527.515 509.276 527.808 509.61C528.1 509.944 528.539 510.132 529.124 510.174C529.5 510.132 529.917 509.944 530.377 509.61C531.254 508.774 532.111 506.769 532.946 503.594C533.197 502.758 533.406 502.32 533.573 502.278C533.656 502.236 533.865 502.215 534.199 502.215H534.45C535.244 502.215 535.641 502.403 535.641 502.779C535.641 503.03 535.536 503.594 535.327 504.471C535.119 505.349 534.701 506.477 534.074 507.855C533.447 509.234 532.779 510.278 532.069 510.988C531.526 511.532 530.857 511.97 530.063 512.304C529.729 512.388 529.228 512.43 528.56 512.43C527.139 512.43 525.948 512.116 524.988 511.49C524.027 510.863 523.4 510.216 523.108 509.547L522.732 508.607C522.69 508.565 522.606 508.586 522.481 508.67C522.397 508.753 522.314 508.837 522.23 508.92C519.765 511.26 517.259 512.43 514.71 512.43C512.413 512.43 510.387 511.594 508.632 509.923C506.877 508.252 506 505.599 506 501.965ZM525.928 491.249C525.928 490.998 525.823 490.539 525.614 489.87C525.405 489.202 524.925 488.471 524.173 487.677C523.421 486.883 522.46 486.465 521.29 486.424C519.828 486.424 518.429 487.071 517.092 488.366C515.755 489.661 514.71 491.353 513.959 493.442C512.747 496.743 511.891 500.168 511.389 503.719C511.389 503.845 511.389 504.074 511.389 504.409C511.389 504.743 511.368 504.993 511.327 505.161C511.327 507.041 511.703 508.336 512.455 509.046C513.207 509.756 514.105 510.132 515.149 510.174C516.737 510.174 518.303 509.484 519.849 508.106C521.395 506.727 522.314 505.662 522.606 504.91C522.69 504.743 523.254 502.508 524.298 498.205C525.343 493.902 525.886 491.583 525.928 491.249Z" fill="#EF224B"/>
<path d="M528.466 469.253C528.466 468.919 528.57 468.627 528.779 468.376C528.988 468.125 529.301 468 529.719 468C530.011 468 530.262 468.104 530.471 468.313C530.68 468.48 530.889 468.877 531.097 469.504C531.515 471.05 532.372 472.24 533.667 473.076C534.126 473.368 534.356 473.744 534.356 474.204C534.356 474.58 534.293 474.831 534.168 474.956C534.043 475.081 533.75 475.269 533.291 475.52C531.494 476.439 529.928 477.755 528.591 479.468C528.507 479.551 528.403 479.677 528.278 479.844C528.152 480.011 528.048 480.136 527.964 480.22C527.881 480.303 527.776 480.345 527.651 480.345C527.526 480.345 527.379 480.366 527.212 480.408C526.92 480.408 526.648 480.303 526.398 480.094C526.147 479.886 526.001 479.572 525.959 479.154C525.959 478.361 526.941 477.128 528.904 475.457H518.188L507.473 475.395C506.93 475.019 506.658 474.622 506.658 474.204C506.658 473.911 506.93 473.494 507.473 472.951H529.97C528.967 471.363 528.466 470.131 528.466 469.253Z" fill="#EF224B"/>
<path d="M546.519 495.595L545.943 495.816C545.529 495.964 544.939 496.112 544.171 496.26C543.403 496.407 542.546 496.511 541.601 496.57H540.759V494.532H541.601C542.989 494.473 544.274 494.251 545.456 493.867C546.637 493.483 547.464 493.129 547.937 492.804C548.409 492.479 548.823 492.154 549.177 491.829C549.236 491.74 549.413 491.696 549.709 491.696C549.975 491.696 550.226 491.785 550.462 491.962V505.209L550.506 518.5C550.713 518.707 550.89 518.84 551.038 518.899C551.186 518.958 551.54 519.017 552.101 519.076C552.662 519.135 553.578 519.165 554.848 519.165H556V521.203H555.513C554.892 521.114 552.544 521.07 548.468 521.07C544.451 521.07 542.133 521.114 541.512 521.203H540.981V519.165H542.133C542.783 519.165 543.344 519.165 543.816 519.165C544.289 519.165 544.658 519.15 544.924 519.121C545.19 519.091 545.426 519.047 545.633 518.988C545.84 518.929 545.958 518.899 545.987 518.899C546.017 518.899 546.105 518.825 546.253 518.678C546.401 518.53 546.489 518.471 546.519 518.5V495.595Z" fill="#EF224B"/>
<path opacity="0.9" d="M591 385V608" stroke="black" stroke-width="3" stroke-dasharray="5 5"/>
<path d="M588 382.5L370 382.5" stroke="black" stroke-width="3" stroke-dasharray="5 5"/>
<path d="M676.5 301V844" stroke="black" stroke-width="3" stroke-dasharray="5 5"/>
<path d="M674 300.5H134" stroke="black" stroke-width="3" stroke-dasharray="5 5"/>
<rect x="748" y="602.673" width="40.5405" height="8.10811" fill="#EF224B"/>
<path d="M799.351 602.724C799.374 602.589 799.407 602.409 799.452 602.185C799.497 601.96 799.632 601.533 799.857 600.903C800.082 600.274 800.307 599.745 800.532 599.318C800.756 598.891 801.116 598.475 801.611 598.071C802.105 597.666 802.6 597.475 803.094 597.497C803.589 597.52 804.072 597.599 804.544 597.734C805.016 597.868 805.353 598.071 805.556 598.34C805.758 598.61 805.938 598.858 806.095 599.082C806.253 599.307 806.343 599.521 806.365 599.723L806.433 599.959C806.433 600.004 806.444 600.026 806.466 600.026L806.837 599.656C808.186 598.217 809.771 597.497 811.592 597.497C811.974 597.497 812.322 597.52 812.637 597.565C812.952 597.61 813.244 597.689 813.514 597.801C813.784 597.913 813.997 598.026 814.154 598.138C814.312 598.251 814.48 598.385 814.66 598.543C814.84 598.7 814.952 598.846 814.997 598.981C815.042 599.116 815.132 599.262 815.267 599.42C815.402 599.577 815.447 599.712 815.402 599.824C815.357 599.937 815.391 600.038 815.503 600.128C815.616 600.218 815.638 600.296 815.571 600.364L815.84 600.026C817.257 598.34 818.931 597.497 820.865 597.497C822.079 597.497 823.057 597.801 823.798 598.408C824.54 599.015 824.922 599.903 824.945 601.072C824.945 602.218 824.518 603.994 823.664 606.4C822.809 608.805 822.382 610.244 822.382 610.716C822.405 611.031 822.461 611.244 822.551 611.356C822.641 611.469 822.809 611.525 823.057 611.525C823.686 611.525 824.271 611.188 824.81 610.513C825.35 609.839 825.788 608.917 826.125 607.748C826.193 607.501 826.26 607.355 826.327 607.31C826.395 607.265 826.575 607.243 826.867 607.243C827.317 607.243 827.541 607.333 827.541 607.512C827.541 607.535 827.496 607.703 827.406 608.018C827.227 608.67 826.979 609.311 826.665 609.94C826.35 610.57 825.833 611.199 825.114 611.829C824.394 612.458 823.619 612.761 822.787 612.739C821.73 612.739 820.966 612.436 820.494 611.829C820.022 611.222 819.786 610.592 819.786 609.94C819.786 609.513 820.19 608.164 821 605.894C821.809 603.623 822.225 601.915 822.247 600.768C822.247 599.442 821.753 598.779 820.764 598.779H820.595C818.662 598.779 817.032 599.914 815.706 602.185L815.47 602.589L814.357 607.108C813.615 610.053 813.188 611.637 813.075 611.862C812.783 612.469 812.3 612.773 811.625 612.773C811.333 612.773 811.097 612.694 810.917 612.537C810.737 612.379 810.614 612.244 810.546 612.132C810.479 612.02 810.445 611.907 810.445 611.795C810.445 611.548 810.827 609.94 811.592 606.973L812.806 602.05C812.873 601.713 812.907 601.285 812.907 600.768C812.907 599.442 812.412 598.779 811.423 598.779H811.255C809.321 598.779 807.691 599.914 806.365 602.185L806.129 602.589L805.016 607.108C804.274 610.053 803.847 611.637 803.735 611.862C803.443 612.469 802.959 612.773 802.285 612.773C801.993 612.773 801.757 612.705 801.577 612.57C801.397 612.436 801.273 612.301 801.206 612.166C801.138 612.031 801.116 611.918 801.138 611.829C801.138 611.536 801.566 609.693 802.42 606.298C803.297 602.837 803.735 601.027 803.735 600.869C803.802 600.532 803.836 600.229 803.836 599.959C803.836 599.15 803.555 598.745 802.993 598.745C802.499 598.745 802.083 599.06 801.745 599.689C801.408 600.319 801.15 601.004 800.97 601.746C800.79 602.488 800.655 602.893 800.565 602.96C800.52 603.005 800.34 603.028 800.026 603.028H799.554C799.419 602.893 799.351 602.792 799.351 602.724Z" fill="#EF224B"/>
<path d="M833.327 603.68L833.018 603.799C832.795 603.879 832.477 603.958 832.064 604.038C831.651 604.117 831.19 604.173 830.681 604.205H830.228V603.108H830.681C831.428 603.076 832.12 602.957 832.755 602.75C833.391 602.544 833.836 602.353 834.09 602.178C834.345 602.003 834.567 601.829 834.758 601.654C834.79 601.606 834.885 601.582 835.044 601.582C835.187 601.582 835.322 601.63 835.449 601.725V608.854L835.473 616.006C835.584 616.117 835.68 616.188 835.759 616.22C835.839 616.252 836.029 616.284 836.331 616.315C836.633 616.347 837.126 616.363 837.809 616.363H838.429V617.46H838.167C837.833 617.412 836.57 617.388 834.376 617.388C832.215 617.388 830.967 617.412 830.634 617.46H830.347V616.363H830.967C831.317 616.363 831.619 616.363 831.873 616.363C832.127 616.363 832.326 616.355 832.469 616.339C832.612 616.323 832.739 616.3 832.851 616.268C832.962 616.236 833.025 616.22 833.041 616.22C833.057 616.22 833.105 616.18 833.184 616.101C833.264 616.021 833.312 615.99 833.327 616.006V603.68Z" fill="#EF224B"/>
<path d="M854.056 594.867C854.056 594.687 854.101 594.541 854.19 594.429C854.28 594.317 854.37 594.249 854.46 594.227L854.561 594.193C854.719 594.193 856.45 594.968 859.754 596.52C863.059 598.071 866.33 599.611 869.567 601.139L874.389 603.466C874.546 603.578 874.625 603.747 874.625 603.972C874.625 604.197 874.546 604.365 874.389 604.478C874.344 604.523 871.062 606.085 864.543 609.165L854.831 613.751H854.629C854.224 613.706 854.022 613.481 854.022 613.076C854.022 613.054 854.022 613.02 854.022 612.975C853.999 612.818 854.168 612.638 854.528 612.436C854.955 612.211 856.641 611.401 859.586 610.008C861.339 609.176 862.8 608.49 863.969 607.951L872.332 603.972L863.969 599.993C857.495 596.935 854.213 595.351 854.123 595.238C854.078 595.148 854.056 595.025 854.056 594.867Z" fill="#EF224B"/>
<path d="M894.007 592.912L893.569 593.08C893.254 593.193 892.805 593.305 892.22 593.417C891.636 593.53 890.984 593.608 890.264 593.653H889.624V592.102H890.264C891.321 592.057 892.299 591.889 893.198 591.596C894.097 591.304 894.727 591.034 895.086 590.787C895.446 590.54 895.761 590.293 896.03 590.045C896.075 589.978 896.21 589.944 896.435 589.944C896.637 589.944 896.829 590.012 897.008 590.146V600.229L897.042 610.345C897.199 610.502 897.334 610.603 897.447 610.648C897.559 610.693 897.829 610.738 898.256 610.783C898.683 610.828 899.38 610.851 900.347 610.851H901.223V612.402H900.852C900.38 612.334 898.593 612.301 895.491 612.301C892.434 612.301 890.669 612.334 890.197 612.402H889.792V610.851H890.669C891.164 610.851 891.591 610.851 891.95 610.851C892.31 610.851 892.591 610.839 892.793 610.817C892.996 610.794 893.175 610.761 893.333 610.716C893.49 610.671 893.58 610.648 893.603 610.648C893.625 610.648 893.693 610.592 893.805 610.48C893.917 610.367 893.985 610.322 894.007 610.345V592.912Z" fill="#EF224B"/>
<path d="M918.326 590.585C918.326 590.36 918.371 590.102 918.461 589.809C918.551 589.517 918.686 589.371 918.866 589.371C918.888 589.371 919.697 589.315 921.294 589.202C922.89 589.09 923.71 589.022 923.755 589C924.025 589 924.16 589.09 924.16 589.27C924.16 589.427 923.598 591.776 922.474 596.317C921.35 600.768 920.788 603.073 920.788 603.23C921.215 603.005 921.541 602.792 921.766 602.589C922.305 602.185 923.081 601.476 924.092 600.465C925.104 599.453 925.891 598.768 926.453 598.408C927.352 597.801 928.206 597.497 929.016 597.497C929.69 597.497 930.218 597.711 930.6 598.138C930.983 598.565 931.185 599.172 931.207 599.959C931.207 600.521 931.129 600.993 930.971 601.375C930.814 601.757 930.6 602.038 930.331 602.218C930.061 602.398 929.825 602.522 929.622 602.589C929.42 602.657 929.218 602.69 929.016 602.69C928.566 602.69 928.206 602.567 927.936 602.319C927.667 602.072 927.532 601.746 927.532 601.342C927.532 600.78 927.712 600.319 928.071 599.959C928.431 599.599 928.791 599.363 929.15 599.251L929.69 599.15C929.42 598.88 929.15 598.745 928.881 598.745H928.746C928.026 598.813 927.318 599.094 926.621 599.588C925.924 600.083 925.104 600.802 924.16 601.746C923.216 602.69 922.474 603.376 921.934 603.803C921.979 603.826 922.148 603.859 922.44 603.904C922.732 603.949 923.002 604.017 923.249 604.107C923.497 604.197 923.789 604.286 924.126 604.376C924.463 604.466 924.767 604.624 925.037 604.848C925.306 605.073 925.554 605.276 925.778 605.455C926.003 605.635 926.194 605.928 926.352 606.332C926.509 606.737 926.576 607.108 926.554 607.445C926.554 607.827 926.498 608.288 926.385 608.827C926.273 609.367 926.205 609.817 926.183 610.176C926.183 611.075 926.486 611.525 927.093 611.525C928.173 611.525 929.049 610.188 929.724 607.512C929.769 607.333 929.993 607.243 930.398 607.243H930.533C930.893 607.243 931.072 607.344 931.072 607.546C931.072 607.658 931.039 607.816 930.971 608.018C930.05 611.188 928.723 612.773 926.992 612.773C925.981 612.773 925.16 612.48 924.531 611.896C923.901 611.312 923.587 610.469 923.587 609.367C923.587 608.962 923.62 608.614 923.688 608.322C923.755 608.029 923.789 607.76 923.789 607.512C923.789 607.018 923.632 606.591 923.317 606.231C923.002 605.871 922.609 605.613 922.137 605.455C921.665 605.298 921.282 605.174 920.99 605.085C920.698 604.995 920.496 604.961 920.383 604.983H920.316C920.046 605.928 919.81 606.838 919.608 607.715C919.405 608.591 919.248 609.243 919.135 609.67C919.023 610.098 918.922 610.513 918.832 610.918C918.742 611.323 918.663 611.593 918.596 611.727C918.529 611.862 918.45 612.008 918.36 612.166C918.27 612.323 918.146 612.424 917.989 612.469C917.697 612.672 917.382 612.773 917.045 612.773C916.663 612.773 916.37 612.66 916.168 612.436C915.966 612.211 915.865 612.02 915.865 611.862C915.865 611.637 916.281 609.839 917.112 606.467C917.944 603.095 918.765 599.779 919.574 596.52L920.822 591.63C920.844 591.338 920.765 591.158 920.585 591.091C920.406 591.023 919.967 590.967 919.27 590.922H919.102C918.877 590.922 918.731 590.922 918.663 590.922C918.596 590.922 918.517 590.888 918.427 590.821C918.337 590.753 918.304 590.675 918.326 590.585Z" fill="#EF224B"/>
<path d="M942.301 610.952C941.964 611.244 941.469 611.559 940.818 611.896C940.166 612.233 939.48 612.402 938.761 612.402C937.344 612.402 936.209 611.896 935.355 610.884C934.501 609.873 934.062 608.58 934.04 607.007C934.04 604.646 934.905 602.477 936.636 600.499C938.367 598.52 940.289 597.52 942.402 597.497C943.459 597.497 944.437 598.037 945.336 599.116L945.437 598.981C945.482 598.914 945.538 598.846 945.606 598.779C945.673 598.711 945.774 598.621 945.909 598.509C946.044 598.397 946.19 598.318 946.348 598.273C946.505 598.228 946.685 598.194 946.887 598.172C947.202 598.172 947.46 598.273 947.663 598.475C947.865 598.678 947.977 598.891 948 599.116C948 599.453 947.359 602.173 946.078 607.276C944.797 612.379 944.122 614.987 944.055 615.099C943.65 616.313 942.785 617.314 941.458 618.101C940.132 618.887 938.615 619.292 936.906 619.314C933.736 619.314 932.151 618.55 932.151 617.021C932.151 616.437 932.354 615.92 932.758 615.47C933.163 615.021 933.68 614.796 934.31 614.796C934.647 614.796 934.962 614.897 935.254 615.099C935.546 615.302 935.703 615.65 935.726 616.145C935.726 616.37 935.703 616.583 935.658 616.785C935.613 616.988 935.535 617.145 935.422 617.257C935.31 617.37 935.22 617.482 935.153 617.595C935.085 617.707 935.006 617.797 934.917 617.864L934.849 617.932H934.883C935.108 617.999 935.782 618.033 936.906 618.033C937.76 618.033 938.435 617.898 938.929 617.628C939.446 617.381 939.93 617.01 940.379 616.516C940.829 616.021 941.144 615.493 941.323 614.931C941.458 614.504 941.638 613.807 941.863 612.84C942.155 611.761 942.301 611.132 942.301 610.952ZM944.763 601.342L944.628 600.971C944.561 600.723 944.504 600.555 944.459 600.465C944.414 600.375 944.347 600.218 944.257 599.993C944.167 599.768 944.055 599.611 943.92 599.521C943.785 599.431 943.639 599.307 943.481 599.15C943.324 598.992 943.122 598.891 942.875 598.846C942.627 598.801 942.38 598.768 942.133 598.745C941.144 598.745 940.188 599.341 939.266 600.532C938.592 601.409 938.03 602.747 937.58 604.545C937.131 606.343 936.906 607.647 936.906 608.457C936.906 610.232 937.603 611.12 938.997 611.12C940.256 611.12 941.492 610.334 942.706 608.76L942.976 608.423L944.763 601.342Z" fill="#EF224B"/>
<rect x="452" y="606" width="139" height="4" fill="#EF224B"/>
<path d="M499 582.654C499 579.622 500.141 576.74 502.422 574.008C504.704 571.277 507.27 569.896 510.122 569.866C511.653 569.866 513.004 570.601 514.174 572.072C514.655 571.171 515.345 570.721 516.246 570.721C516.636 570.721 516.981 570.841 517.281 571.081C517.582 571.322 517.732 571.622 517.732 571.982C517.732 572.372 517.176 574.774 516.066 579.186C514.955 583.599 514.385 586.091 514.355 586.661C514.355 587.412 514.46 587.907 514.67 588.147C514.88 588.387 515.195 588.522 515.615 588.552C515.885 588.522 516.186 588.387 516.516 588.147C517.146 587.547 517.762 586.106 518.362 583.824C518.542 583.224 518.692 582.909 518.812 582.879C518.872 582.849 519.022 582.834 519.263 582.834H519.443C520.013 582.834 520.298 582.969 520.298 583.239C520.298 583.419 520.223 583.824 520.073 584.455C519.923 585.085 519.623 585.896 519.173 586.886C518.722 587.877 518.242 588.627 517.732 589.138C517.341 589.528 516.861 589.843 516.291 590.083C516.051 590.143 515.69 590.173 515.21 590.173C514.189 590.173 513.334 589.948 512.643 589.498C511.953 589.048 511.503 588.582 511.293 588.102L511.022 587.427C510.992 587.397 510.932 587.412 510.842 587.472C510.782 587.532 510.722 587.592 510.662 587.652C508.891 589.333 507.09 590.173 505.259 590.173C503.608 590.173 502.152 589.573 500.891 588.372C499.63 587.171 499 585.265 499 582.654ZM513.319 574.954C513.319 574.774 513.244 574.444 513.094 573.963C512.944 573.483 512.598 572.958 512.058 572.387C511.518 571.817 510.827 571.517 509.987 571.487C508.936 571.487 507.931 571.952 506.97 572.883C506.009 573.813 505.259 575.029 504.719 576.53C503.848 578.901 503.233 581.363 502.872 583.914C502.872 584.004 502.872 584.17 502.872 584.41C502.872 584.65 502.857 584.83 502.827 584.95C502.827 586.301 503.098 587.231 503.638 587.742C504.178 588.252 504.824 588.522 505.574 588.552C506.715 588.552 507.84 588.057 508.951 587.066C510.062 586.076 510.722 585.31 510.932 584.77C510.992 584.65 511.398 583.044 512.148 579.952C512.899 576.86 513.289 575.194 513.319 574.954Z" fill="#EF224B"/>
<path d="M528.115 578.077L527.701 578.236C527.404 578.342 526.979 578.448 526.427 578.554C525.876 578.66 525.26 578.735 524.581 578.777H523.976V577.313H524.581C525.578 577.27 526.502 577.111 527.351 576.835C528.2 576.559 528.794 576.305 529.133 576.071C529.473 575.838 529.77 575.604 530.025 575.371C530.067 575.307 530.195 575.275 530.407 575.275C530.598 575.275 530.778 575.339 530.948 575.466V584.985L530.98 594.535C531.128 594.684 531.256 594.779 531.362 594.822C531.468 594.864 531.723 594.907 532.126 594.949C532.529 594.992 533.187 595.013 534.1 595.013H534.927V596.477H534.577C534.131 596.414 532.444 596.382 529.515 596.382C526.629 596.382 524.963 596.414 524.517 596.477H524.135V595.013H524.963C525.43 595.013 525.833 595.013 526.173 595.013C526.512 595.013 526.778 595.002 526.969 594.981C527.16 594.96 527.329 594.928 527.478 594.885C527.627 594.843 527.711 594.822 527.733 594.822C527.754 594.822 527.818 594.769 527.924 594.663C528.03 594.556 528.093 594.514 528.115 594.535V578.077Z" fill="#EF224B"/>
<path d="M538.422 594.748C538.527 594.118 538.932 593.39 539.637 592.565C540.342 591.739 541.213 591.319 542.248 591.304C542.773 591.304 543.253 591.439 543.688 591.709C544.123 591.979 544.446 592.317 544.656 592.722C545.286 591.777 546.044 591.304 546.929 591.304C547.485 591.304 547.965 591.469 548.37 591.799C548.775 592.129 548.985 592.572 549 593.127C549 593.562 548.895 593.915 548.685 594.185C548.475 594.455 548.272 594.62 548.077 594.68C547.882 594.74 547.71 594.77 547.56 594.77C547.274 594.77 547.042 594.688 546.862 594.523C546.682 594.358 546.592 594.14 546.592 593.87C546.592 593.18 546.967 592.707 547.717 592.452C547.552 592.257 547.252 592.16 546.817 592.16C546.622 592.16 546.479 592.175 546.389 592.205C545.819 592.445 545.399 592.94 545.129 593.69C544.228 597.006 543.778 598.942 543.778 599.497C543.778 599.917 543.898 600.217 544.138 600.397C544.379 600.577 544.641 600.667 544.926 600.667C545.481 600.667 546.029 600.42 546.569 599.924C547.109 599.429 547.477 598.822 547.672 598.101C547.717 597.951 547.762 597.869 547.807 597.854C547.852 597.839 547.972 597.824 548.167 597.809H548.257C548.482 597.809 548.595 597.869 548.595 597.989C548.595 598.004 548.58 598.086 548.55 598.236C548.31 599.092 547.845 599.849 547.154 600.51C546.464 601.17 545.661 601.5 544.746 601.5C543.696 601.5 542.901 601.027 542.36 600.082C541.745 601.012 541.04 601.477 540.245 601.477H540.11C539.374 601.477 538.849 601.282 538.534 600.892C538.219 600.502 538.054 600.09 538.039 599.654C538.039 599.174 538.182 598.784 538.467 598.484C538.752 598.184 539.089 598.034 539.479 598.034C540.125 598.034 540.447 598.349 540.447 598.979C540.447 599.279 540.357 599.542 540.177 599.767C539.997 599.992 539.825 600.142 539.66 600.217C539.494 600.292 539.397 600.33 539.367 600.33L539.299 600.352C539.299 600.367 539.344 600.397 539.434 600.442C539.524 600.487 539.645 600.54 539.795 600.6C539.945 600.66 540.087 600.682 540.222 600.667C540.762 600.667 541.228 600.33 541.618 599.654C541.753 599.414 541.925 598.904 542.135 598.124C542.345 597.344 542.555 596.533 542.766 595.693C542.976 594.853 543.096 594.358 543.126 594.208C543.201 593.803 543.238 593.51 543.238 593.33C543.238 592.91 543.126 592.61 542.901 592.43C542.675 592.25 542.42 592.16 542.135 592.16C541.535 592.16 540.972 592.4 540.447 592.88C539.922 593.36 539.554 593.975 539.344 594.725C539.314 594.86 539.277 594.935 539.232 594.95C539.187 594.965 539.067 594.98 538.872 594.995H538.557C538.467 594.905 538.422 594.823 538.422 594.748Z" fill="#EF224B"/>
<rect x="452" y="841" width="223" height="4" fill="#4066E0"/>
<path d="M525.678 823.062C525.226 823.062 525 822.929 525 822.663C525 822.61 525.04 822.424 525.12 822.105C525.226 821.68 525.332 821.441 525.438 821.388C525.545 821.335 525.85 821.295 526.355 821.268C527.072 821.268 527.87 821.228 528.746 821.149C529.118 821.069 529.371 820.91 529.504 820.67C529.557 820.538 530.5 816.804 532.333 809.471C534.167 802.138 535.097 798.418 535.123 798.312C535.123 798.126 535.07 798.033 534.964 798.033C534.751 797.953 534.047 797.886 532.851 797.833H531.616C531.457 797.674 531.377 797.568 531.377 797.514C531.377 797.461 531.403 797.236 531.457 796.837C531.563 796.385 531.696 796.106 531.855 796H553.337C553.523 796.106 553.616 796.252 553.616 796.438C553.616 796.571 553.443 798.059 553.098 800.902C552.753 803.745 552.567 805.207 552.54 805.286C552.487 805.472 552.221 805.565 551.743 805.565H551.265C551.079 805.432 550.986 805.26 550.986 805.047C550.986 805.021 551.025 804.702 551.105 804.091C551.185 803.479 551.225 802.775 551.225 801.978C551.225 801.181 551.132 800.53 550.946 800.025C550.76 799.521 550.507 799.109 550.189 798.79C549.87 798.471 549.378 798.258 548.714 798.152C548.05 798.046 547.372 797.953 546.681 797.873C545.99 797.793 545.034 797.78 543.812 797.833H542.895C540.716 797.86 539.56 797.9 539.428 797.953C539.295 798.006 539.202 798.112 539.149 798.272C539.122 798.298 538.67 800.039 537.794 803.493L536.518 808.634H538.71C538.79 808.634 539.095 808.634 539.627 808.634C540.158 808.634 540.53 808.621 540.743 808.594C540.955 808.568 541.248 808.528 541.62 808.475C541.992 808.422 542.31 808.329 542.576 808.196C542.842 808.063 543.068 807.903 543.254 807.717C543.599 807.399 543.891 806.96 544.131 806.402C544.37 805.844 544.542 805.339 544.649 804.888C544.755 804.436 544.821 804.197 544.848 804.17C544.928 804.037 545.18 803.971 545.605 803.971H546.083C546.269 804.104 546.362 804.237 546.362 804.37C546.362 804.449 545.951 806.19 545.127 809.591C544.303 812.992 543.852 814.745 543.772 814.852C543.719 815.038 543.453 815.131 542.975 815.131H542.496C542.31 814.971 542.217 814.812 542.217 814.652C542.217 814.573 542.284 814.28 542.417 813.775C542.55 813.271 542.616 812.739 542.616 812.181C542.616 811.411 542.35 810.932 541.819 810.746C541.288 810.56 540.105 810.467 538.272 810.467H536.08L534.804 815.529C533.954 818.824 533.529 820.551 533.529 820.71C533.529 821.082 534.711 821.268 537.076 821.268H538.073C538.232 821.428 538.312 821.521 538.312 821.547C538.312 821.574 538.285 821.839 538.232 822.344C538.126 822.69 537.993 822.942 537.833 823.102H537.156C536.066 823.048 534.06 823.022 531.138 823.022C529.411 823.022 528.095 823.022 527.192 823.022C526.289 823.022 525.784 823.035 525.678 823.062Z" fill="#4066E0"/>
<path d="M549.983 820.993C550.002 820.88 550.03 820.73 550.068 820.542C550.105 820.354 550.218 819.997 550.406 819.471C550.594 818.945 550.781 818.504 550.969 818.147C551.157 817.79 551.467 817.442 551.899 817.104C552.331 816.766 552.763 816.607 553.195 816.625C553.872 816.625 554.435 816.794 554.886 817.133C555.337 817.471 555.619 817.79 555.731 818.091C555.844 818.391 555.9 818.588 555.9 818.682C555.9 818.72 555.91 818.739 555.929 818.739L556.239 818.429C557.384 817.226 558.69 816.625 560.155 816.625C561.17 816.625 561.987 816.879 562.607 817.386C563.227 817.893 563.546 818.635 563.565 819.612C563.584 820.589 563.227 822.064 562.494 824.036C561.761 826.008 561.404 827.201 561.423 827.615C561.423 828.103 561.583 828.347 561.902 828.347C562.015 828.347 562.1 828.338 562.156 828.319C562.701 828.225 563.189 827.868 563.621 827.248C564.053 826.628 564.382 825.877 564.607 824.994C564.645 824.844 564.833 824.769 565.171 824.769C565.547 824.769 565.734 824.844 565.734 824.994C565.734 825.013 565.697 825.154 565.622 825.417C565.471 825.962 565.265 826.497 565.002 827.023C564.739 827.549 564.307 828.075 563.706 828.601C563.105 829.127 562.456 829.38 561.761 829.362C560.878 829.362 560.24 829.108 559.845 828.601C559.451 828.094 559.254 827.568 559.254 827.023C559.254 826.666 559.592 825.539 560.268 823.642C560.944 821.744 561.292 820.317 561.311 819.359C561.311 818.25 560.897 817.696 560.071 817.696H559.93C558.314 817.696 556.952 818.645 555.844 820.542L555.647 820.88L554.717 824.656C554.097 827.117 553.74 828.441 553.646 828.629C553.402 829.136 552.998 829.39 552.435 829.39C552.19 829.39 551.993 829.333 551.843 829.221C551.693 829.108 551.589 828.995 551.533 828.883C551.477 828.77 551.458 828.676 551.477 828.601C551.477 828.357 551.833 826.826 552.547 824.008C553.261 821.19 553.637 819.659 553.674 819.415C553.693 819.321 553.703 819.105 553.703 818.767C553.703 818.034 553.477 817.668 553.026 817.668C552.312 817.668 551.721 818.607 551.251 820.486C551.138 820.861 551.082 821.059 551.082 821.077C551.044 821.19 550.866 821.246 550.547 821.246H550.152C550.039 821.134 549.983 821.049 549.983 820.993Z" fill="#4066E0"/>
<path d="M567.397 824.346C567.397 823.275 567.575 822.298 567.932 821.416C568.289 820.533 568.749 819.8 569.313 819.218C569.877 818.635 570.506 818.147 571.201 817.752C571.896 817.358 572.553 817.067 573.173 816.879C573.793 816.691 574.385 816.607 574.949 816.625H575.033C575.878 816.625 576.611 816.832 577.231 817.245C577.851 817.659 578.161 818.269 578.161 819.077C578.161 820.767 577.118 821.876 575.033 822.402C574.113 822.646 572.854 822.777 571.257 822.796C570.562 822.796 570.205 822.815 570.186 822.853C570.186 822.89 570.13 823.219 570.017 823.839C569.905 824.459 569.839 825.003 569.82 825.473C569.82 826.356 570.017 827.051 570.412 827.558C570.806 828.065 571.398 828.328 572.187 828.347C572.976 828.366 573.85 828.188 574.808 827.812C575.766 827.436 576.63 826.816 577.4 825.952C577.569 825.764 577.682 825.67 577.738 825.67C577.813 825.67 577.935 825.755 578.104 825.924C578.273 826.093 578.367 826.225 578.386 826.318C578.405 826.412 578.32 826.563 578.133 826.769C577.945 826.976 577.663 827.23 577.287 827.53C576.912 827.831 576.48 828.122 575.991 828.404C575.503 828.685 574.911 828.92 574.216 829.108C573.521 829.296 572.807 829.39 572.074 829.39C570.59 829.39 569.444 828.892 568.637 827.896C567.829 826.901 567.416 825.717 567.397 824.346ZM576.808 819.133C576.696 818.156 576.057 817.668 574.892 817.668C574.272 817.668 573.699 817.799 573.173 818.062C572.647 818.325 572.225 818.645 571.905 819.02C571.586 819.396 571.314 819.781 571.088 820.176C570.863 820.57 570.712 820.908 570.637 821.19C570.562 821.472 570.515 821.65 570.496 821.725C570.496 821.744 570.684 821.754 571.06 821.754C573.183 821.754 574.667 821.528 575.512 821.077C576.357 820.627 576.789 819.978 576.808 819.133Z" fill="#4066E0"/>
<path d="M580.161 818.231C580.03 818.1 579.964 818.006 579.964 817.95C579.964 817.875 579.992 817.724 580.049 817.499C580.105 817.273 580.152 817.142 580.19 817.104C580.227 817.01 580.312 816.963 580.443 816.963C580.575 816.963 581.054 816.954 581.88 816.935H583.374L583.909 814.681C583.965 814.474 584.031 814.202 584.106 813.864C584.181 813.526 584.247 813.282 584.304 813.131C584.36 812.981 584.416 812.793 584.473 812.568C584.529 812.342 584.604 812.183 584.698 812.089C584.792 811.995 584.886 811.882 584.98 811.751C585.074 811.619 585.205 811.535 585.374 811.497C585.543 811.459 585.712 811.441 585.881 811.441C586.22 811.459 586.454 811.563 586.586 811.751C586.717 811.938 586.783 812.117 586.783 812.286C586.783 812.417 586.699 812.859 586.53 813.61C586.36 814.362 586.173 815.104 585.966 815.836L585.684 816.879C585.684 816.916 586.154 816.935 587.093 816.935H588.53C588.662 817.067 588.727 817.17 588.727 817.245C588.727 817.659 588.605 817.987 588.361 818.231H585.346L584.332 822.317C583.599 825.323 583.233 826.938 583.233 827.164C583.233 827.953 583.486 828.347 583.994 828.347C584.651 828.347 585.29 828.028 585.91 827.389C586.53 826.75 587.027 825.962 587.403 825.022C587.441 824.91 587.488 824.844 587.544 824.825C587.6 824.806 587.741 824.787 587.967 824.769H588.079C588.361 824.769 588.502 824.844 588.502 824.994C588.502 825.05 588.474 825.163 588.417 825.332C588.324 825.633 588.154 825.99 587.91 826.403C587.666 826.816 587.347 827.258 586.952 827.727C586.558 828.197 586.079 828.591 585.515 828.911C584.952 829.23 584.379 829.39 583.796 829.39C583.233 829.39 582.697 829.249 582.19 828.967C581.683 828.685 581.317 828.197 581.091 827.502C581.054 827.352 581.035 827.098 581.035 826.741V826.234L582.021 822.289C582.679 819.64 583.017 818.307 583.036 818.288C583.036 818.25 582.556 818.231 581.598 818.231H580.161Z" fill="#4066E0"/>
<path d="M590.637 827.549C590.73 826.991 591.088 826.347 591.713 825.617C592.337 824.886 593.107 824.514 594.023 824.501C594.488 824.501 594.913 824.621 595.298 824.86C595.684 825.099 595.969 825.398 596.155 825.756C596.713 824.92 597.384 824.501 598.167 824.501C598.659 824.501 599.084 824.647 599.442 824.939C599.801 825.232 599.987 825.623 600 826.115C600 826.5 599.907 826.812 599.721 827.051C599.535 827.29 599.356 827.436 599.183 827.489C599.011 827.543 598.858 827.569 598.725 827.569C598.473 827.569 598.267 827.496 598.107 827.35C597.948 827.204 597.868 827.011 597.868 826.772C597.868 826.161 598.2 825.743 598.864 825.517C598.718 825.344 598.453 825.258 598.068 825.258C597.895 825.258 597.769 825.271 597.689 825.298C597.184 825.511 596.813 825.949 596.573 826.613C595.777 829.548 595.378 831.261 595.378 831.753C595.378 832.124 595.484 832.39 595.697 832.549C595.909 832.709 596.142 832.789 596.394 832.789C596.886 832.789 597.37 832.569 597.848 832.131C598.327 831.693 598.652 831.155 598.825 830.517C598.864 830.385 598.904 830.312 598.944 830.298C598.984 830.285 599.09 830.272 599.263 830.258H599.343C599.542 830.258 599.641 830.312 599.641 830.418C599.641 830.431 599.628 830.504 599.602 830.637C599.389 831.394 598.977 832.065 598.366 832.649C597.755 833.233 597.045 833.526 596.235 833.526C595.305 833.526 594.601 833.107 594.123 832.271C593.579 833.094 592.954 833.506 592.25 833.506H592.131C591.48 833.506 591.015 833.333 590.736 832.988C590.458 832.642 590.311 832.277 590.298 831.892C590.298 831.467 590.424 831.122 590.677 830.856C590.929 830.591 591.228 830.458 591.573 830.458C592.144 830.458 592.43 830.737 592.43 831.294C592.43 831.56 592.35 831.792 592.191 831.992C592.031 832.191 591.879 832.324 591.733 832.39C591.586 832.457 591.5 832.49 591.474 832.49L591.414 832.51C591.414 832.523 591.454 832.549 591.533 832.589C591.613 832.629 591.719 832.676 591.852 832.729C591.985 832.782 592.111 832.802 592.231 832.789C592.709 832.789 593.12 832.49 593.466 831.892C593.585 831.68 593.738 831.228 593.924 830.537C594.11 829.847 594.296 829.13 594.482 828.386C594.668 827.642 594.774 827.204 594.8 827.071C594.867 826.712 594.9 826.453 594.9 826.294C594.9 825.922 594.8 825.657 594.601 825.497C594.402 825.338 594.176 825.258 593.924 825.258C593.393 825.258 592.895 825.471 592.43 825.896C591.965 826.321 591.64 826.865 591.454 827.529C591.427 827.649 591.394 827.715 591.354 827.728C591.314 827.742 591.208 827.755 591.035 827.768H590.756C590.677 827.689 590.637 827.616 590.637 827.549Z" fill="#4066E0"/>
<rect x="452" y="729" width="223" height="4" fill="#EF224B"/>
<path d="M511 699.84C511.028 699.673 511.069 699.452 511.125 699.174C511.18 698.897 511.347 698.37 511.624 697.594C511.901 696.817 512.179 696.165 512.456 695.639C512.733 695.112 513.177 694.599 513.787 694.099C514.397 693.6 515.007 693.365 515.617 693.392C516.227 693.42 516.824 693.517 517.406 693.683C517.988 693.85 518.404 694.099 518.654 694.432C518.903 694.765 519.125 695.07 519.319 695.347C519.514 695.625 519.624 695.888 519.652 696.138L519.735 696.429C519.735 696.484 519.749 696.512 519.777 696.512L520.235 696.055C521.898 694.28 523.853 693.392 526.1 693.392C526.571 693.392 527.001 693.42 527.389 693.476C527.777 693.531 528.138 693.628 528.471 693.767C528.804 693.905 529.067 694.044 529.261 694.183C529.455 694.321 529.663 694.488 529.885 694.682C530.107 694.876 530.246 695.056 530.301 695.223C530.356 695.389 530.467 695.569 530.634 695.763C530.8 695.957 530.856 696.124 530.8 696.263C530.745 696.401 530.786 696.526 530.925 696.637C531.064 696.748 531.091 696.845 531.008 696.928L531.341 696.512C533.088 694.432 535.154 693.392 537.539 693.392C539.036 693.392 540.243 693.767 541.158 694.515C542.073 695.264 542.544 696.36 542.572 697.802C542.572 699.216 542.045 701.407 540.991 704.374C539.938 707.341 539.411 709.116 539.411 709.698C539.438 710.087 539.508 710.35 539.619 710.489C539.73 710.627 539.938 710.697 540.243 710.697C541.019 710.697 541.74 710.281 542.406 709.449C543.071 708.617 543.612 707.48 544.028 706.038C544.111 705.733 544.194 705.553 544.278 705.497C544.361 705.442 544.583 705.414 544.943 705.414C545.498 705.414 545.775 705.525 545.775 705.747C545.775 705.774 545.72 705.982 545.609 706.371C545.387 707.175 545.082 707.965 544.694 708.742C544.305 709.518 543.667 710.295 542.78 711.071C541.893 711.848 540.936 712.222 539.91 712.194C538.607 712.194 537.664 711.82 537.081 711.071C536.499 710.322 536.208 709.546 536.208 708.742C536.208 708.215 536.707 706.551 537.705 703.75C538.704 700.949 539.217 698.842 539.244 697.427C539.244 695.791 538.634 694.973 537.414 694.973H537.206C534.821 694.973 532.811 696.373 531.175 699.174L530.883 699.673L529.511 705.247C528.596 708.88 528.069 710.835 527.93 711.113C527.569 711.861 526.973 712.236 526.141 712.236C525.781 712.236 525.49 712.139 525.268 711.945C525.046 711.75 524.893 711.584 524.81 711.445C524.727 711.307 524.685 711.168 524.685 711.029C524.685 710.724 525.157 708.742 526.1 705.081L527.597 699.008C527.68 698.592 527.722 698.065 527.722 697.427C527.722 695.791 527.112 694.973 525.892 694.973H525.684C523.299 694.973 521.288 696.373 519.652 699.174L519.361 699.673L517.988 705.247C517.073 708.88 516.546 710.835 516.408 711.113C516.047 711.861 515.451 712.236 514.619 712.236C514.258 712.236 513.967 712.153 513.745 711.986C513.524 711.82 513.371 711.653 513.288 711.487C513.205 711.321 513.177 711.182 513.205 711.071C513.205 710.711 513.732 708.437 514.785 704.249C515.867 699.979 516.408 697.746 516.408 697.552C516.491 697.136 516.532 696.762 516.532 696.429C516.532 695.431 516.186 694.931 515.492 694.931C514.882 694.931 514.369 695.32 513.953 696.096C513.537 696.873 513.219 697.718 512.997 698.634C512.775 699.549 512.608 700.048 512.497 700.131C512.442 700.186 512.22 700.214 511.832 700.214H511.25C511.083 700.048 511 699.923 511 699.84Z" fill="#EF224B"/>
<path d="M552.913 701.019L552.53 701.166C552.256 701.264 551.864 701.362 551.354 701.46C550.844 701.558 550.276 701.627 549.648 701.666H549.09V700.313H549.648C550.57 700.274 551.423 700.127 552.207 699.872C552.991 699.617 553.54 699.382 553.854 699.167C554.168 698.951 554.442 698.735 554.677 698.52C554.717 698.461 554.834 698.431 555.03 698.431C555.207 698.431 555.373 698.49 555.53 698.608V707.401L555.56 716.224C555.697 716.361 555.814 716.449 555.912 716.488C556.011 716.528 556.246 716.567 556.618 716.606C556.991 716.645 557.599 716.665 558.442 716.665H559.206V718.018H558.883C558.471 717.959 556.912 717.93 554.207 717.93C551.54 717.93 550.001 717.959 549.59 718.018H549.237V716.665H550.001C550.433 716.665 550.805 716.665 551.119 716.665C551.432 716.665 551.678 716.655 551.854 716.636C552.03 716.616 552.187 716.586 552.325 716.547C552.462 716.508 552.54 716.488 552.56 716.488C552.579 716.488 552.638 716.439 552.736 716.341C552.834 716.243 552.893 716.204 552.913 716.224V701.019Z" fill="#EF224B"/>
<path d="M564.81 705.247C564.81 702.447 565.864 699.784 567.971 697.261C570.079 694.737 572.45 693.462 575.084 693.434C576.499 693.434 577.747 694.113 578.828 695.472C579.272 694.64 579.91 694.224 580.741 694.224C581.102 694.224 581.421 694.335 581.698 694.557C581.976 694.779 582.114 695.056 582.114 695.389C582.114 695.749 581.601 697.968 580.575 702.044C579.549 706.121 579.022 708.423 578.994 708.95C578.994 709.643 579.091 710.1 579.286 710.322C579.48 710.544 579.771 710.669 580.159 710.697C580.409 710.669 580.686 710.544 580.991 710.322C581.573 709.768 582.142 708.437 582.697 706.329C582.863 705.774 583.002 705.483 583.113 705.455C583.168 705.428 583.307 705.414 583.528 705.414H583.695C584.222 705.414 584.485 705.539 584.485 705.788C584.485 705.955 584.416 706.329 584.277 706.911C584.139 707.494 583.861 708.242 583.445 709.158C583.029 710.073 582.586 710.766 582.114 711.237C581.754 711.598 581.31 711.889 580.783 712.111C580.561 712.166 580.228 712.194 579.785 712.194C578.842 712.194 578.052 711.986 577.414 711.57C576.776 711.154 576.36 710.724 576.166 710.281L575.916 709.657C575.889 709.629 575.833 709.643 575.75 709.698C575.694 709.754 575.639 709.809 575.583 709.865C573.947 711.418 572.283 712.194 570.592 712.194C569.067 712.194 567.722 711.64 566.557 710.53C565.392 709.421 564.81 707.66 564.81 705.247ZM578.038 698.134C578.038 697.968 577.968 697.663 577.83 697.219C577.691 696.776 577.372 696.29 576.873 695.763C576.374 695.236 575.736 694.959 574.96 694.931C573.989 694.931 573.06 695.361 572.173 696.221C571.285 697.081 570.592 698.204 570.093 699.59C569.288 701.781 568.72 704.055 568.387 706.412C568.387 706.495 568.387 706.648 568.387 706.87C568.387 707.092 568.373 707.258 568.346 707.369C568.346 708.617 568.595 709.476 569.094 709.948C569.593 710.419 570.19 710.669 570.883 710.697C571.937 710.697 572.977 710.239 574.003 709.324C575.029 708.409 575.639 707.702 575.833 707.203C575.889 707.092 576.263 705.608 576.956 702.752C577.649 699.895 578.01 698.356 578.038 698.134Z" fill="#EF224B"/>
<path d="M591.706 701.019L591.324 701.166C591.049 701.264 590.657 701.362 590.147 701.46C589.638 701.558 589.069 701.627 588.442 701.666H587.883V700.313H588.442C589.363 700.274 590.216 700.127 591 699.872C591.785 699.617 592.333 699.382 592.647 699.167C592.961 698.951 593.235 698.735 593.471 698.52C593.51 698.461 593.627 698.431 593.824 698.431C594 698.431 594.167 698.49 594.323 698.608V707.401L594.353 716.224C594.49 716.361 594.608 716.449 594.706 716.488C594.804 716.528 595.039 716.567 595.412 716.606C595.784 716.645 596.392 716.665 597.235 716.665H598V718.018H597.676C597.264 717.959 595.706 717.93 593 717.93C590.334 717.93 588.795 717.959 588.383 718.018H588.03V716.665H588.795C589.226 716.665 589.598 716.665 589.912 716.665C590.226 716.665 590.471 716.655 590.647 716.636C590.824 716.616 590.981 716.586 591.118 716.547C591.255 716.508 591.334 716.488 591.353 716.488C591.373 716.488 591.432 716.439 591.53 716.341C591.628 716.243 591.686 716.204 591.706 716.224V701.019Z" fill="#EF224B"/>
<path d="M601.228 716.42C601.325 715.838 601.699 715.166 602.35 714.403C603.002 713.641 603.806 713.253 604.762 713.239C605.247 713.239 605.691 713.364 606.093 713.613C606.495 713.863 606.793 714.175 606.987 714.549C607.569 713.676 608.269 713.239 609.087 713.239C609.6 713.239 610.044 713.391 610.418 713.696C610.792 714.001 610.986 714.41 611 714.923C611 715.325 610.903 715.651 610.709 715.9C610.515 716.15 610.328 716.302 610.147 716.358C609.967 716.413 609.808 716.441 609.669 716.441C609.406 716.441 609.191 716.365 609.025 716.212C608.858 716.06 608.775 715.859 608.775 715.609C608.775 714.972 609.122 714.535 609.815 714.299C609.662 714.119 609.385 714.029 608.983 714.029C608.803 714.029 608.671 714.043 608.588 714.071C608.061 714.292 607.673 714.75 607.424 715.443C606.592 718.506 606.176 720.294 606.176 720.807C606.176 721.195 606.287 721.473 606.509 721.639C606.731 721.805 606.973 721.888 607.237 721.888C607.749 721.888 608.255 721.66 608.754 721.202C609.253 720.745 609.593 720.184 609.773 719.518C609.815 719.38 609.856 719.303 609.898 719.289C609.94 719.276 610.05 719.262 610.231 719.248H610.314C610.522 719.248 610.626 719.303 610.626 719.414C610.626 719.428 610.612 719.504 610.584 719.643C610.362 720.433 609.933 721.133 609.295 721.743C608.657 722.353 607.916 722.658 607.07 722.658C606.1 722.658 605.365 722.221 604.866 721.348C604.298 722.207 603.646 722.637 602.912 722.637H602.787C602.108 722.637 601.623 722.457 601.332 722.096C601.041 721.736 600.888 721.355 600.874 720.953C600.874 720.509 601.006 720.149 601.269 719.872C601.533 719.594 601.844 719.456 602.205 719.456C602.801 719.456 603.099 719.747 603.099 720.329C603.099 720.606 603.016 720.849 602.849 721.057C602.683 721.265 602.524 721.403 602.371 721.473C602.219 721.542 602.129 721.577 602.101 721.577L602.039 721.597C602.039 721.611 602.08 721.639 602.163 721.681C602.246 721.722 602.357 721.771 602.496 721.826C602.635 721.882 602.766 721.902 602.891 721.888C603.39 721.888 603.82 721.577 604.18 720.953C604.305 720.731 604.464 720.26 604.658 719.539C604.852 718.818 605.046 718.07 605.241 717.293C605.435 716.517 605.545 716.06 605.573 715.921C605.643 715.547 605.677 715.277 605.677 715.11C605.677 714.722 605.573 714.445 605.365 714.279C605.157 714.112 604.922 714.029 604.658 714.029C604.104 714.029 603.584 714.251 603.099 714.694C602.614 715.138 602.274 715.706 602.08 716.399C602.052 716.524 602.018 716.593 601.976 716.607C601.935 716.621 601.824 716.635 601.643 716.649H601.352C601.269 716.566 601.228 716.489 601.228 716.42Z" fill="#EF224B"/>
<rect x="368" y="382" width="4" height="140" fill="#EF224B"/>
<path d="M381 455.938C381 452.87 382.154 449.955 384.462 447.191C386.77 444.427 389.367 443.03 392.252 443C393.801 443 395.168 443.744 396.352 445.232C396.838 444.321 397.537 443.866 398.448 443.866C398.843 443.866 399.192 443.987 399.496 444.23C399.799 444.473 399.951 444.777 399.951 445.141C399.951 445.536 399.389 447.966 398.266 452.43C397.142 456.895 396.565 459.415 396.535 459.992C396.535 460.752 396.641 461.253 396.853 461.496C397.066 461.739 397.385 461.875 397.81 461.906C398.084 461.875 398.387 461.739 398.721 461.496C399.359 460.888 399.982 459.431 400.589 457.122C400.771 456.515 400.923 456.196 401.045 456.166C401.105 456.135 401.257 456.12 401.5 456.12H401.682C402.259 456.12 402.548 456.257 402.548 456.53C402.548 456.712 402.472 457.122 402.32 457.76C402.168 458.398 401.865 459.218 401.409 460.22C400.954 461.222 400.468 461.982 399.951 462.498C399.556 462.893 399.071 463.212 398.494 463.455C398.251 463.515 397.886 463.546 397.4 463.546C396.368 463.546 395.502 463.318 394.803 462.862C394.105 462.407 393.649 461.936 393.437 461.45L393.163 460.767C393.133 460.736 393.072 460.752 392.981 460.812C392.92 460.873 392.86 460.934 392.799 460.995C391.007 462.695 389.185 463.546 387.332 463.546C385.662 463.546 384.189 462.938 382.913 461.724C381.638 460.509 381 458.58 381 455.938ZM395.487 448.148C395.487 447.966 395.411 447.632 395.259 447.146C395.107 446.66 394.758 446.128 394.211 445.551C393.665 444.974 392.966 444.67 392.116 444.64C391.053 444.64 390.035 445.111 389.063 446.052C388.092 446.994 387.332 448.224 386.786 449.742C385.905 452.142 385.282 454.632 384.918 457.213C384.918 457.305 384.918 457.472 384.918 457.715C384.918 457.958 384.903 458.14 384.872 458.261C384.872 459.628 385.146 460.569 385.692 461.086C386.239 461.602 386.892 461.875 387.651 461.906C388.805 461.906 389.944 461.405 391.068 460.402C392.192 459.4 392.86 458.626 393.072 458.079C393.133 457.958 393.543 456.333 394.302 453.205C395.062 450.076 395.456 448.391 395.487 448.148Z" fill="#EF224B"/>
<path d="M410.456 451.307L410.037 451.468C409.737 451.576 409.307 451.683 408.749 451.79C408.191 451.898 407.568 451.973 406.881 452.016H406.269V450.534H406.881C407.89 450.491 408.824 450.33 409.683 450.051C410.542 449.772 411.143 449.514 411.487 449.278C411.83 449.042 412.131 448.806 412.389 448.57C412.432 448.505 412.56 448.473 412.775 448.473C412.968 448.473 413.151 448.537 413.323 448.666V458.296L413.355 467.959C413.505 468.109 413.634 468.206 413.741 468.249C413.849 468.292 414.106 468.335 414.514 468.378C414.922 468.421 415.588 468.442 416.511 468.442H417.349V469.924H416.994C416.543 469.859 414.836 469.827 411.873 469.827C408.953 469.827 407.267 469.859 406.817 469.924H406.43V468.442H407.267C407.74 468.442 408.148 468.442 408.491 468.442C408.835 468.442 409.103 468.431 409.297 468.41C409.49 468.388 409.662 468.356 409.812 468.313C409.962 468.27 410.048 468.249 410.07 468.249C410.091 468.249 410.155 468.195 410.263 468.088C410.37 467.98 410.435 467.937 410.456 467.959V451.307Z" fill="#EF224B"/>
<path d="M420.178 468.22C420.178 468.007 420.292 467.643 420.52 467.126C420.747 466.61 421.112 466.071 421.613 465.51C422.114 464.948 422.675 464.675 423.298 464.69C423.92 464.69 424.421 464.865 424.801 465.214C425.18 465.563 425.377 466.049 425.393 466.671C425.362 466.96 425.339 467.119 425.324 467.149C425.324 467.195 425.203 467.544 424.96 468.197C424.717 468.85 424.467 469.586 424.209 470.406C423.95 471.225 423.829 471.878 423.844 472.364C423.844 473.017 423.95 473.472 424.163 473.73C424.376 473.988 424.694 474.125 425.119 474.14C425.469 474.14 425.795 474.057 426.099 473.89C426.402 473.723 426.637 473.548 426.804 473.366C426.971 473.184 427.176 472.933 427.419 472.614C427.419 472.599 427.457 472.447 427.533 472.159C427.609 471.87 427.715 471.423 427.852 470.815C427.989 470.208 428.133 469.646 428.285 469.13C428.861 466.853 429.18 465.662 429.241 465.555C429.438 465.145 429.765 464.94 430.22 464.94C430.417 464.94 430.577 464.994 430.698 465.1C430.82 465.206 430.903 465.297 430.949 465.373C430.994 465.449 431.01 465.517 430.994 465.578C430.994 465.775 430.622 467.369 429.879 470.36C429.135 473.351 428.71 474.99 428.603 475.279C428.178 476.539 427.442 477.54 426.395 478.284C425.347 479.028 424.3 479.408 423.252 479.423C422.569 479.423 421.969 479.256 421.453 478.922C420.937 478.588 420.679 478.087 420.679 477.419C420.679 477.085 420.732 476.804 420.838 476.577C420.945 476.349 421.089 476.182 421.271 476.076C421.453 475.969 421.605 475.893 421.726 475.848C421.848 475.802 421.977 475.78 422.114 475.78C422.782 475.78 423.116 476.098 423.116 476.736C423.116 477.04 423.024 477.305 422.842 477.533C422.66 477.761 422.486 477.912 422.319 477.988C422.152 478.064 422.053 478.102 422.023 478.102L421.954 478.125C421.985 478.201 422.129 478.292 422.387 478.398C422.645 478.504 422.903 478.558 423.161 478.558H423.343C423.601 478.558 423.799 478.542 423.935 478.512C424.436 478.375 424.899 478.087 425.324 477.647C425.749 477.207 426.076 476.736 426.303 476.235C426.531 475.734 426.706 475.309 426.827 474.96C426.949 474.611 427.009 474.383 427.009 474.277L426.873 474.368C426.782 474.428 426.637 474.512 426.44 474.618C426.243 474.724 426.045 474.816 425.848 474.891C425.544 474.967 425.248 475.005 424.96 475.005C424.262 475.005 423.647 474.838 423.116 474.504C422.584 474.17 422.235 473.631 422.068 472.888C422.053 472.781 422.045 472.546 422.045 472.182C422.045 471.316 422.311 470.185 422.842 468.789C423.374 467.392 423.639 466.504 423.639 466.125C423.639 466.109 423.639 466.094 423.639 466.079C423.639 465.942 423.639 465.851 423.639 465.806C423.639 465.76 423.609 465.707 423.548 465.646C423.487 465.586 423.404 465.555 423.298 465.555H423.207C422.857 465.555 422.539 465.699 422.25 465.988C421.962 466.276 421.734 466.588 421.567 466.922C421.4 467.256 421.271 467.574 421.18 467.878C421.089 468.182 421.028 468.349 420.998 468.379C420.967 468.409 420.846 468.424 420.633 468.424H420.315C420.224 468.333 420.178 468.265 420.178 468.22Z" fill="#EF224B"/>
<rect x="245" y="299" width="4" height="222" fill="#EF224B"/>
<path d="M256 402.154C256.029 401.978 256.073 401.744 256.132 401.451C256.19 401.159 256.366 400.602 256.659 399.783C256.951 398.963 257.244 398.275 257.537 397.719C257.83 397.163 258.298 396.621 258.942 396.094C259.586 395.567 260.23 395.318 260.874 395.348C261.518 395.377 262.148 395.479 262.762 395.655C263.377 395.831 263.816 396.094 264.08 396.445C264.343 396.797 264.577 397.119 264.782 397.412C264.987 397.704 265.104 397.982 265.134 398.246L265.222 398.553C265.222 398.612 265.236 398.641 265.265 398.641L265.748 398.158C267.505 396.284 269.569 395.348 271.94 395.348C272.438 395.348 272.891 395.377 273.301 395.435C273.711 395.494 274.092 395.597 274.443 395.743C274.794 395.889 275.072 396.036 275.277 396.182C275.482 396.328 275.702 396.504 275.936 396.709C276.17 396.914 276.317 397.104 276.375 397.28C276.434 397.455 276.551 397.646 276.726 397.851C276.902 398.056 276.961 398.231 276.902 398.378C276.844 398.524 276.887 398.656 277.034 398.773C277.18 398.89 277.209 398.992 277.122 399.08L277.473 398.641C279.317 396.445 281.498 395.348 284.016 395.348C285.597 395.348 286.87 395.743 287.836 396.533C288.802 397.324 289.3 398.48 289.329 400.002C289.329 401.495 288.773 403.808 287.66 406.94C286.548 410.073 285.992 411.946 285.992 412.561C286.021 412.971 286.094 413.249 286.211 413.395C286.329 413.542 286.548 413.615 286.87 413.615C287.69 413.615 288.451 413.176 289.154 412.298C289.856 411.419 290.427 410.219 290.866 408.697C290.954 408.375 291.042 408.185 291.13 408.126C291.217 408.067 291.452 408.038 291.832 408.038C292.418 408.038 292.71 408.155 292.71 408.39C292.71 408.419 292.652 408.638 292.535 409.048C292.301 409.897 291.979 410.731 291.569 411.551C291.159 412.371 290.485 413.191 289.549 414.01C288.612 414.83 287.602 415.225 286.519 415.196C285.143 415.196 284.148 414.801 283.533 414.01C282.918 413.22 282.611 412.4 282.611 411.551C282.611 410.995 283.138 409.238 284.191 406.282C285.245 403.325 285.787 401.1 285.816 399.607C285.816 397.88 285.172 397.016 283.884 397.016H283.665C281.147 397.016 279.024 398.495 277.297 401.451L276.99 401.978L275.541 407.863C274.575 411.698 274.019 413.761 273.872 414.054C273.492 414.845 272.862 415.24 271.984 415.24C271.603 415.24 271.296 415.137 271.062 414.932C270.828 414.727 270.667 414.552 270.579 414.405C270.491 414.259 270.447 414.113 270.447 413.966C270.447 413.644 270.945 411.551 271.94 407.687L273.521 401.276C273.609 400.837 273.653 400.28 273.653 399.607C273.653 397.88 273.009 397.016 271.72 397.016H271.501C268.983 397.016 266.861 398.495 265.134 401.451L264.826 401.978L263.377 407.863C262.411 411.698 261.855 413.761 261.709 414.054C261.328 414.845 260.699 415.24 259.82 415.24C259.44 415.24 259.132 415.152 258.898 414.976C258.664 414.801 258.503 414.625 258.415 414.449C258.327 414.274 258.298 414.127 258.327 414.01C258.327 413.63 258.884 411.229 259.996 406.809C261.138 402.3 261.709 399.944 261.709 399.739C261.796 399.3 261.84 398.905 261.84 398.553C261.84 397.499 261.474 396.972 260.742 396.972C260.098 396.972 259.557 397.382 259.118 398.202C258.679 399.022 258.342 399.915 258.108 400.881C257.874 401.847 257.698 402.374 257.581 402.461C257.522 402.52 257.288 402.549 256.878 402.549H256.263C256.088 402.374 256 402.242 256 402.154Z" fill="#EF224B"/>
<path d="M300.245 403.399L299.842 403.554C299.552 403.658 299.138 403.761 298.6 403.865C298.062 403.968 297.461 404.041 296.799 404.082H296.209V402.654H296.799C297.772 402.613 298.672 402.457 299.5 402.188C300.328 401.919 300.908 401.671 301.239 401.443C301.57 401.216 301.86 400.988 302.108 400.76C302.149 400.698 302.274 400.667 302.481 400.667C302.667 400.667 302.843 400.729 303.008 400.853V410.136L303.039 419.45C303.184 419.595 303.308 419.688 303.412 419.729C303.515 419.771 303.764 419.812 304.157 419.853C304.55 419.895 305.192 419.915 306.082 419.915H306.889V421.344H306.548C306.113 421.281 304.467 421.25 301.611 421.25C298.796 421.25 297.172 421.281 296.737 421.344H296.365V419.915H297.172C297.627 419.915 298.02 419.915 298.351 419.915C298.683 419.915 298.941 419.905 299.128 419.884C299.314 419.864 299.479 419.833 299.624 419.791C299.769 419.75 299.852 419.729 299.873 419.729C299.893 419.729 299.956 419.677 300.059 419.574C300.162 419.47 300.225 419.429 300.245 419.45V403.399Z" fill="#EF224B"/>
<path d="M312.804 407.863C312.804 404.906 313.917 402.095 316.142 399.431C318.367 396.767 320.87 395.421 323.651 395.392C325.144 395.392 326.461 396.109 327.603 397.543C328.071 396.665 328.745 396.226 329.623 396.226C330.003 396.226 330.34 396.343 330.633 396.577C330.925 396.811 331.072 397.104 331.072 397.455C331.072 397.836 330.53 400.178 329.447 404.481C328.364 408.785 327.808 411.215 327.778 411.771C327.778 412.503 327.881 412.986 328.086 413.22C328.291 413.454 328.598 413.586 329.008 413.615C329.271 413.586 329.564 413.454 329.886 413.22C330.501 412.634 331.101 411.229 331.687 409.004C331.862 408.419 332.009 408.111 332.126 408.082C332.184 408.053 332.331 408.038 332.565 408.038H332.74C333.297 408.038 333.575 408.17 333.575 408.433C333.575 408.609 333.502 409.004 333.355 409.619C333.209 410.234 332.916 411.024 332.477 411.99C332.038 412.956 331.57 413.688 331.072 414.186C330.691 414.566 330.223 414.874 329.667 415.108C329.432 415.167 329.081 415.196 328.613 415.196C327.617 415.196 326.783 414.976 326.11 414.537C325.436 414.098 324.997 413.644 324.792 413.176L324.529 412.517C324.5 412.488 324.441 412.503 324.353 412.561C324.295 412.62 324.236 412.678 324.178 412.737C322.45 414.376 320.694 415.196 318.908 415.196C317.298 415.196 315.878 414.61 314.649 413.439C313.419 412.268 312.804 410.409 312.804 407.863ZM326.768 400.354C326.768 400.178 326.695 399.856 326.549 399.388C326.403 398.919 326.066 398.407 325.539 397.851C325.012 397.294 324.339 397.002 323.519 396.972C322.494 396.972 321.514 397.426 320.577 398.334C319.64 399.241 318.908 400.427 318.381 401.891C317.532 404.203 316.932 406.604 316.581 409.092C316.581 409.18 316.581 409.341 316.581 409.575C316.581 409.809 316.566 409.985 316.537 410.102C316.537 411.419 316.8 412.327 317.327 412.825C317.854 413.322 318.484 413.586 319.216 413.615C320.328 413.615 321.426 413.132 322.509 412.166C323.592 411.2 324.236 410.453 324.441 409.926C324.5 409.809 324.895 408.243 325.627 405.228C326.359 402.213 326.739 400.588 326.768 400.354Z" fill="#EF224B"/>
<path d="M341.198 403.399L340.794 403.554C340.504 403.658 340.09 403.761 339.552 403.865C339.014 403.968 338.414 404.041 337.751 404.082H337.162V402.654H337.751C338.724 402.613 339.625 402.457 340.452 402.188C341.28 401.919 341.86 401.671 342.191 401.443C342.522 401.216 342.812 400.988 343.06 400.76C343.102 400.698 343.226 400.667 343.433 400.667C343.619 400.667 343.795 400.729 343.961 400.853V410.136L343.992 419.45C344.137 419.595 344.261 419.688 344.364 419.729C344.468 419.771 344.716 419.812 345.109 419.853C345.503 419.895 346.144 419.915 347.034 419.915H347.841V421.344H347.5C347.065 421.281 345.42 421.25 342.564 421.25C339.749 421.25 338.124 421.281 337.689 421.344H337.317V419.915H338.124C338.579 419.915 338.973 419.915 339.304 419.915C339.635 419.915 339.894 419.905 340.08 419.884C340.266 419.864 340.432 419.833 340.577 419.791C340.722 419.75 340.804 419.729 340.825 419.729C340.846 419.729 340.908 419.677 341.011 419.574C341.115 419.47 341.177 419.429 341.198 419.45V403.399Z" fill="#EF224B"/>
<path d="M350.569 419.701C350.569 419.496 350.678 419.145 350.898 418.647C351.117 418.15 351.468 417.63 351.951 417.089C352.434 416.548 352.976 416.284 353.576 416.299C354.176 416.299 354.658 416.467 355.024 416.804C355.39 417.14 355.58 417.608 355.595 418.208C355.566 418.486 355.544 418.64 355.529 418.669C355.529 418.713 355.412 419.05 355.178 419.679C354.944 420.308 354.702 421.018 354.454 421.808C354.205 422.598 354.088 423.227 354.102 423.696C354.102 424.325 354.205 424.764 354.41 425.013C354.615 425.261 354.922 425.393 355.332 425.408C355.668 425.408 355.983 425.327 356.275 425.166C356.568 425.005 356.795 424.837 356.956 424.661C357.117 424.486 357.314 424.244 357.548 423.937C357.548 423.923 357.585 423.776 357.658 423.498C357.731 423.22 357.834 422.788 357.965 422.203C358.097 421.618 358.236 421.076 358.383 420.579C358.939 418.384 359.246 417.235 359.304 417.133C359.495 416.738 359.809 416.54 360.248 416.54C360.438 416.54 360.592 416.591 360.709 416.694C360.826 416.796 360.907 416.884 360.951 416.957C360.995 417.03 361.009 417.096 360.995 417.155C360.995 417.345 360.636 418.881 359.919 421.764C359.202 424.647 358.792 426.227 358.69 426.505C358.28 427.72 357.57 428.686 356.561 429.403C355.551 430.12 354.541 430.485 353.532 430.5C352.873 430.5 352.295 430.339 351.798 430.017C351.3 429.695 351.051 429.212 351.051 428.568C351.051 428.247 351.103 427.976 351.205 427.756C351.308 427.537 351.447 427.376 351.622 427.273C351.798 427.171 351.944 427.098 352.061 427.054C352.178 427.01 352.303 426.988 352.434 426.988C353.078 426.988 353.4 427.295 353.4 427.91C353.4 428.203 353.312 428.459 353.137 428.678C352.961 428.898 352.793 429.044 352.632 429.117C352.471 429.19 352.376 429.227 352.346 429.227L352.281 429.249C352.31 429.322 352.449 429.41 352.698 429.512C352.946 429.615 353.195 429.666 353.444 429.666H353.62C353.868 429.666 354.059 429.651 354.19 429.622C354.673 429.49 355.119 429.212 355.529 428.788C355.939 428.364 356.253 427.91 356.473 427.427C356.692 426.944 356.861 426.534 356.978 426.198C357.095 425.861 357.153 425.642 357.153 425.539L357.022 425.627C356.934 425.686 356.795 425.766 356.605 425.869C356.414 425.971 356.224 426.059 356.034 426.132C355.741 426.205 355.456 426.242 355.178 426.242C354.505 426.242 353.912 426.081 353.4 425.759C352.888 425.437 352.551 424.918 352.39 424.201C352.376 424.098 352.368 423.871 352.368 423.52C352.368 422.686 352.624 421.596 353.137 420.25C353.649 418.903 353.905 418.047 353.905 417.682C353.905 417.667 353.905 417.652 353.905 417.638C353.905 417.506 353.905 417.418 353.905 417.374C353.905 417.33 353.876 417.279 353.817 417.221C353.759 417.162 353.678 417.133 353.576 417.133H353.488C353.151 417.133 352.844 417.272 352.566 417.55C352.288 417.828 352.068 418.128 351.907 418.45C351.747 418.772 351.622 419.079 351.534 419.372C351.447 419.664 351.388 419.825 351.359 419.855C351.329 419.884 351.212 419.898 351.008 419.898H350.7C350.612 419.811 350.569 419.745 350.569 419.701Z" fill="#EF224B"/>
<path d="M155.682 415.248C155.227 415.248 155 415.114 155 414.847C155 414.793 155.04 414.606 155.12 414.285C155.227 413.857 155.334 413.616 155.441 413.563C155.548 413.509 155.856 413.469 156.364 413.442C157.087 413.442 157.889 413.402 158.772 413.322C159.147 413.242 159.401 413.081 159.535 412.84C159.588 412.707 160.538 408.948 162.384 401.564C164.23 394.18 165.166 390.435 165.193 390.328C165.193 390.14 165.139 390.047 165.032 390.047C164.818 389.966 164.109 389.899 162.906 389.846H161.662C161.501 389.685 161.421 389.578 161.421 389.525C161.421 389.471 161.448 389.244 161.501 388.843C161.608 388.388 161.742 388.107 161.902 388H183.532C183.72 388.107 183.813 388.254 183.813 388.441C183.813 388.575 183.639 390.073 183.291 392.936C182.944 395.799 182.756 397.27 182.73 397.35C182.676 397.537 182.409 397.631 181.927 397.631H181.445C181.258 397.497 181.165 397.323 181.165 397.109C181.165 397.083 181.205 396.762 181.285 396.146C181.365 395.531 181.405 394.822 181.405 394.019C181.405 393.217 181.312 392.561 181.124 392.053C180.937 391.545 180.683 391.13 180.362 390.809C180.041 390.488 179.546 390.274 178.877 390.167C178.208 390.06 177.526 389.966 176.831 389.886C176.135 389.806 175.172 389.792 173.941 389.846H173.018C170.824 389.873 169.661 389.913 169.527 389.966C169.393 390.02 169.3 390.127 169.246 390.287C169.219 390.314 168.764 392.066 167.882 395.544L166.597 400.721H168.805C168.885 400.721 169.193 400.721 169.728 400.721C170.263 400.721 170.637 400.708 170.851 400.681C171.065 400.654 171.36 400.614 171.734 400.561C172.109 400.507 172.43 400.413 172.697 400.28C172.965 400.146 173.192 399.985 173.379 399.798C173.727 399.477 174.021 399.036 174.262 398.474C174.503 397.912 174.677 397.404 174.784 396.949C174.891 396.494 174.958 396.253 174.985 396.227C175.065 396.093 175.319 396.026 175.747 396.026H176.229C176.416 396.16 176.51 396.293 176.51 396.427C176.51 396.508 176.095 398.26 175.266 401.684C174.436 405.109 173.981 406.874 173.901 406.981C173.848 407.169 173.58 407.262 173.099 407.262H172.617C172.43 407.102 172.336 406.941 172.336 406.781C172.336 406.7 172.403 406.406 172.537 405.898C172.67 405.39 172.737 404.854 172.737 404.293C172.737 403.517 172.47 403.035 171.935 402.848C171.4 402.661 170.209 402.567 168.363 402.567H166.156L164.872 407.664C164.016 410.981 163.588 412.72 163.588 412.88C163.588 413.255 164.778 413.442 167.159 413.442H168.163C168.323 413.603 168.403 413.696 168.403 413.723C168.403 413.75 168.377 414.017 168.323 414.526C168.216 414.874 168.082 415.128 167.922 415.288H167.24C166.143 415.235 164.123 415.208 161.18 415.208C159.441 415.208 158.117 415.208 157.207 415.208C156.298 415.208 155.789 415.221 155.682 415.248Z" fill="#4066E0"/>
<path d="M180.155 413.165C180.174 413.051 180.202 412.9 180.24 412.711C180.278 412.522 180.392 412.163 180.581 411.633C180.77 411.103 180.959 410.659 181.148 410.299C181.337 409.94 181.649 409.59 182.084 409.25C182.52 408.909 182.955 408.748 183.39 408.767C184.071 408.767 184.638 408.938 185.092 409.278C185.546 409.619 185.83 409.94 185.943 410.243C186.057 410.545 186.113 410.744 186.113 410.838C186.113 410.876 186.123 410.895 186.142 410.895L186.454 410.583C187.608 409.373 188.922 408.767 190.397 408.767C191.419 408.767 192.242 409.023 192.866 409.533C193.49 410.044 193.811 410.791 193.83 411.775C193.849 412.758 193.49 414.243 192.752 416.229C192.015 418.215 191.655 419.416 191.674 419.832C191.674 420.324 191.835 420.57 192.156 420.57C192.27 420.57 192.355 420.561 192.412 420.542C192.96 420.447 193.452 420.088 193.887 419.464C194.322 418.839 194.653 418.083 194.88 417.194C194.918 417.042 195.107 416.967 195.448 416.967C195.826 416.967 196.015 417.042 196.015 417.194C196.015 417.213 195.977 417.355 195.902 417.619C195.75 418.168 195.542 418.707 195.277 419.237C195.013 419.766 194.577 420.296 193.972 420.825C193.367 421.355 192.714 421.61 192.015 421.591C191.126 421.591 190.483 421.336 190.085 420.825C189.688 420.315 189.49 419.785 189.49 419.237C189.49 418.877 189.83 417.742 190.511 415.832C191.192 413.922 191.542 412.484 191.561 411.519C191.561 410.403 191.145 409.845 190.312 409.845H190.17C188.544 409.845 187.172 410.801 186.057 412.711L185.858 413.051L184.922 416.853C184.297 419.331 183.938 420.665 183.844 420.854C183.598 421.364 183.191 421.62 182.624 421.62C182.378 421.62 182.179 421.563 182.028 421.45C181.876 421.336 181.772 421.223 181.716 421.109C181.659 420.996 181.64 420.901 181.659 420.825C181.659 420.579 182.018 419.038 182.737 416.201C183.456 413.364 183.834 411.822 183.872 411.576C183.891 411.482 183.9 411.264 183.9 410.924C183.9 410.186 183.673 409.817 183.219 409.817C182.501 409.817 181.905 410.763 181.432 412.654C181.318 413.033 181.262 413.231 181.262 413.25C181.224 413.364 181.044 413.42 180.723 413.42H180.325C180.212 413.307 180.155 413.222 180.155 413.165Z" fill="#4066E0"/>
<path d="M197.689 416.541C197.689 415.463 197.869 414.48 198.228 413.591C198.587 412.702 199.051 411.964 199.618 411.378C200.186 410.791 200.819 410.299 201.519 409.902C202.219 409.505 202.881 409.212 203.505 409.023C204.129 408.834 204.725 408.748 205.293 408.767H205.378C206.229 408.767 206.966 408.975 207.591 409.392C208.215 409.808 208.527 410.422 208.527 411.236C208.527 412.938 207.477 414.054 205.378 414.584C204.451 414.829 203.184 414.962 201.576 414.981C200.876 414.981 200.517 415 200.498 415.038C200.498 415.075 200.441 415.406 200.327 416.031C200.214 416.655 200.148 417.203 200.129 417.676C200.129 418.565 200.327 419.265 200.725 419.776C201.122 420.286 201.718 420.551 202.512 420.57C203.307 420.589 204.186 420.409 205.151 420.031C206.115 419.653 206.985 419.028 207.761 418.158C207.931 417.969 208.045 417.875 208.101 417.875C208.177 417.875 208.3 417.96 208.47 418.13C208.64 418.3 208.735 418.433 208.754 418.527C208.773 418.622 208.688 418.773 208.499 418.981C208.309 419.189 208.026 419.445 207.647 419.747C207.269 420.05 206.834 420.343 206.342 420.627C205.85 420.91 205.255 421.147 204.555 421.336C203.855 421.525 203.136 421.62 202.399 421.62C200.904 421.62 199.751 421.119 198.937 420.116C198.124 419.114 197.708 417.922 197.689 416.541ZM207.165 411.292C207.052 410.309 206.408 409.817 205.236 409.817C204.612 409.817 204.035 409.95 203.505 410.214C202.975 410.479 202.55 410.801 202.228 411.179C201.907 411.557 201.633 411.945 201.406 412.342C201.179 412.739 201.027 413.08 200.952 413.364C200.876 413.647 200.829 413.827 200.81 413.903C200.81 413.922 200.999 413.931 201.377 413.931C203.515 413.931 205.009 413.704 205.86 413.25C206.711 412.796 207.146 412.144 207.165 411.292Z" fill="#4066E0"/>
<path d="M210.541 410.385C210.409 410.252 210.343 410.158 210.343 410.101C210.343 410.025 210.371 409.874 210.428 409.647C210.485 409.42 210.532 409.288 210.57 409.25C210.608 409.155 210.693 409.108 210.825 409.108C210.957 409.108 211.44 409.098 212.272 409.079H213.776L214.315 406.81C214.371 406.602 214.438 406.327 214.513 405.987C214.589 405.646 214.655 405.401 214.712 405.249C214.769 405.098 214.825 404.909 214.882 404.682C214.939 404.455 215.015 404.294 215.109 404.2C215.204 404.105 215.298 403.991 215.393 403.859C215.487 403.727 215.62 403.642 215.79 403.604C215.96 403.566 216.131 403.547 216.301 403.547C216.641 403.566 216.878 403.67 217.01 403.859C217.142 404.048 217.209 404.228 217.209 404.398C217.209 404.531 217.124 404.975 216.953 405.732C216.783 406.488 216.594 407.235 216.386 407.973L216.102 409.023C216.102 409.061 216.575 409.079 217.521 409.079H218.968C219.1 409.212 219.166 409.316 219.166 409.392C219.166 409.808 219.043 410.139 218.797 410.385H215.762L214.74 414.498C214.003 417.525 213.634 419.151 213.634 419.378C213.634 420.173 213.889 420.57 214.4 420.57C215.062 420.57 215.705 420.248 216.329 419.605C216.953 418.962 217.455 418.168 217.833 417.222C217.871 417.109 217.918 417.042 217.975 417.024C218.031 417.005 218.173 416.986 218.4 416.967H218.514C218.797 416.967 218.939 417.042 218.939 417.194C218.939 417.251 218.911 417.364 218.854 417.534C218.76 417.837 218.589 418.196 218.344 418.612C218.098 419.028 217.776 419.473 217.379 419.946C216.982 420.419 216.499 420.816 215.932 421.137C215.365 421.459 214.788 421.62 214.201 421.62C213.634 421.62 213.095 421.478 212.584 421.194C212.073 420.91 211.705 420.419 211.478 419.719C211.44 419.568 211.421 419.312 211.421 418.953V418.442L212.414 414.47C213.076 411.803 213.416 410.46 213.435 410.441C213.435 410.403 212.953 410.385 211.988 410.385H210.541Z" fill="#4066E0"/>
<path d="M220.467 419.807C220.467 419.619 220.567 419.298 220.768 418.844C220.969 418.389 221.29 417.914 221.731 417.42C222.172 416.925 222.667 416.684 223.215 416.697C223.763 416.697 224.205 416.851 224.539 417.159C224.873 417.466 225.047 417.894 225.061 418.443C225.034 418.697 225.014 418.837 225 418.864C225 418.904 224.893 419.211 224.679 419.786C224.465 420.362 224.245 421.01 224.018 421.732C223.79 422.454 223.683 423.029 223.697 423.457C223.697 424.032 223.79 424.433 223.977 424.661C224.165 424.888 224.445 425.008 224.82 425.022C225.127 425.022 225.415 424.948 225.682 424.801C225.95 424.654 226.157 424.5 226.304 424.34C226.451 424.179 226.632 423.959 226.846 423.678C226.846 423.665 226.879 423.531 226.946 423.277C227.013 423.023 227.107 422.628 227.227 422.093C227.347 421.558 227.474 421.064 227.608 420.609C228.116 418.603 228.397 417.553 228.451 417.46C228.624 417.099 228.912 416.918 229.313 416.918C229.487 416.918 229.627 416.965 229.734 417.058C229.841 417.152 229.915 417.232 229.955 417.299C229.995 417.366 230.008 417.426 229.995 417.48C229.995 417.654 229.667 419.058 229.012 421.692C228.357 424.326 227.982 425.771 227.889 426.025C227.514 427.135 226.866 428.017 225.943 428.673C225.02 429.328 224.098 429.662 223.175 429.675C222.573 429.675 222.045 429.528 221.59 429.234C221.136 428.94 220.908 428.499 220.908 427.91C220.908 427.616 220.955 427.369 221.049 427.168C221.142 426.968 221.269 426.82 221.43 426.727C221.59 426.633 221.724 426.566 221.831 426.526C221.938 426.486 222.052 426.466 222.172 426.466C222.76 426.466 223.055 426.747 223.055 427.309C223.055 427.576 222.974 427.81 222.814 428.011C222.654 428.211 222.5 428.345 222.353 428.412C222.206 428.479 222.119 428.512 222.092 428.512L222.032 428.532C222.058 428.599 222.185 428.679 222.413 428.773C222.64 428.866 222.867 428.913 223.095 428.913H223.255C223.483 428.913 223.656 428.9 223.777 428.873C224.218 428.753 224.626 428.499 225 428.111C225.375 427.723 225.662 427.309 225.863 426.867C226.064 426.426 226.217 426.052 226.324 425.744C226.431 425.436 226.485 425.236 226.485 425.142L226.364 425.222C226.284 425.276 226.157 425.349 225.983 425.443C225.809 425.537 225.636 425.617 225.462 425.684C225.194 425.751 224.934 425.784 224.679 425.784C224.064 425.784 223.523 425.637 223.055 425.343C222.587 425.049 222.279 424.574 222.132 423.919C222.119 423.825 222.112 423.618 222.112 423.297C222.112 422.535 222.346 421.538 222.814 420.308C223.282 419.078 223.516 418.295 223.516 417.961C223.516 417.948 223.516 417.934 223.516 417.921C223.516 417.801 223.516 417.72 223.516 417.68C223.516 417.64 223.489 417.593 223.436 417.54C223.382 417.486 223.309 417.46 223.215 417.46H223.135C222.827 417.46 222.547 417.587 222.292 417.841C222.038 418.095 221.838 418.369 221.691 418.663C221.544 418.957 221.43 419.238 221.35 419.506C221.269 419.773 221.216 419.92 221.189 419.947C221.162 419.974 221.055 419.987 220.868 419.987H220.587C220.507 419.907 220.467 419.847 220.467 419.807Z" fill="#4066E0"/>
<rect x="133" y="301" width="4" height="222" fill="#4066E0"/>
</svg>
