<svg width="261" height="208" viewBox="0 0 261 208" fill="none" xmlns="http://www.w3.org/2000/svg">
<path d="M110 74L152.45 108.595L164.511 39.4046L110 74ZM260.045 68.0079L154.677 68.0079L152.588 79.9921L257.955 79.992L260.045 68.0079Z" fill="#EF224B"/>
<path d="M1.50648 181.275C0.502159 181.275 0 180.98 0 180.389C0 180.271 0.0886162 179.858 0.265849 179.149C0.502159 178.203 0.738468 177.672 0.974778 177.553C1.21109 177.435 1.89048 177.347 3.01295 177.288C4.60804 177.288 6.38037 177.199 8.32992 177.022C9.15701 176.845 9.71824 176.49 10.0136 175.958C10.1318 175.663 12.229 167.363 16.3054 151.057C20.3817 134.752 22.4494 126.481 22.5085 126.245C22.5085 125.831 22.3904 125.624 22.1541 125.624C21.6814 125.447 20.1159 125.299 17.4574 125.181H14.7103C14.3558 124.827 14.1786 124.591 14.1786 124.472C14.1786 124.354 14.2377 123.852 14.3558 122.966C14.5921 121.962 14.8875 121.341 15.242 121.105H63.0061C63.4197 121.341 63.6264 121.666 63.6264 122.08C63.6264 122.375 63.2424 125.683 62.4744 132.005C61.7064 138.326 61.2929 141.575 61.2338 141.753C61.1156 142.166 60.5249 142.373 59.4615 142.373H58.3981C57.9845 142.077 57.7778 141.693 57.7778 141.221C57.7778 141.162 57.8664 140.453 58.0436 139.094C58.2209 137.735 58.3095 136.17 58.3095 134.397C58.3095 132.625 58.1027 131.178 57.6892 130.055C57.2756 128.933 56.7144 128.017 56.0054 127.308C55.2965 126.599 54.2036 126.127 52.7266 125.89C51.2497 125.654 49.7432 125.447 48.2072 125.27C46.6712 125.093 44.5444 125.063 41.8269 125.181H39.7887C34.9443 125.24 32.3745 125.329 32.0791 125.447C31.7837 125.565 31.5769 125.802 31.4588 126.156C31.3997 126.215 30.3954 130.085 28.4458 137.765L25.6101 149.196H30.484C30.6612 149.196 31.3406 149.196 32.5222 149.196C33.7037 149.196 34.5308 149.167 35.0034 149.108C35.476 149.049 36.1259 148.96 36.953 148.842C37.78 148.724 38.489 148.517 39.0798 148.222C39.6705 147.926 40.1727 147.572 40.5862 147.158C41.3542 146.449 42.0041 145.474 42.5358 144.234C43.0675 142.993 43.4515 141.871 43.6878 140.866C43.9241 139.862 44.0718 139.33 44.1309 139.271C44.3081 138.976 44.8693 138.828 45.8146 138.828H46.878C47.2915 139.124 47.4983 139.419 47.4983 139.714C47.4983 139.892 46.5826 143.761 44.7512 151.323C42.9198 158.885 41.9155 162.784 41.7382 163.02C41.6201 163.434 41.0293 163.641 39.9659 163.641H38.9025C38.489 163.286 38.2822 162.932 38.2822 162.577C38.2822 162.4 38.4299 161.75 38.7253 160.628C39.0207 159.505 39.1684 158.324 39.1684 157.083C39.1684 155.37 38.5776 154.307 37.396 153.893C36.2145 153.479 33.5855 153.273 29.5092 153.273H24.6353L21.7996 164.527C19.9091 171.853 18.9639 175.693 18.9639 176.047C18.9639 176.874 21.5928 177.288 26.8507 177.288H29.0661C29.4206 177.642 29.5978 177.849 29.5978 177.908C29.5978 177.967 29.5387 178.558 29.4206 179.68C29.1843 180.448 28.8889 181.01 28.5344 181.364H27.0279C24.6058 181.246 20.1454 181.187 13.6469 181.187C9.80686 181.187 6.88253 181.187 4.87389 181.187C2.86526 181.187 1.74279 181.216 1.50648 181.275Z" fill="#EF224B"/>
<path d="M56.1206 100.014C56.1206 99.5417 56.2683 99.1281 56.5637 98.7737C56.8591 98.4192 57.3022 98.242 57.893 98.242C58.3065 98.242 58.661 98.3897 58.9564 98.6851C59.2517 98.9214 59.5471 99.4826 59.8425 100.369C60.4333 102.555 61.6444 104.238 63.4758 105.42C64.1256 105.833 64.4506 106.365 64.4506 107.015C64.4506 107.547 64.3619 107.901 64.1847 108.078C64.0075 108.256 63.5939 108.521 62.9441 108.876C60.4038 110.176 58.1884 112.037 56.2979 114.459C56.1797 114.577 56.032 114.754 55.8548 114.99C55.6776 115.227 55.5299 115.404 55.4117 115.522C55.2936 115.64 55.1459 115.699 54.9686 115.699C54.7914 115.699 54.5846 115.729 54.3483 115.788C53.9348 115.788 53.5508 115.64 53.1963 115.345C52.8418 115.05 52.6351 114.606 52.576 114.016C52.576 112.893 53.9643 111.15 56.741 108.787H41.5876L26.4342 108.699C25.6662 108.167 25.2822 107.606 25.2822 107.015C25.2822 106.601 25.6662 106.011 26.4342 105.243H58.2474C56.8296 102.998 56.1206 101.255 56.1206 100.014Z" fill="#EF224B"/>
<path d="M74.4133 204.806C74.4969 204.806 74.6222 204.848 74.7892 204.931C74.9563 205.015 75.186 205.077 75.4784 205.119C75.7708 205.161 76.0214 205.182 76.2302 205.182C76.7732 205.182 77.2744 204.91 77.7339 204.367C78.1933 203.824 78.5275 203.219 78.7363 202.551C79.154 201.423 79.864 198.228 80.8665 192.965C81.8689 187.702 82.8295 182.69 83.7484 177.928C84.6673 173.167 85.1268 170.765 85.1268 170.723V170.536H82.1821C80.2191 170.536 79.1749 170.494 79.0496 170.41C78.8825 170.285 78.7989 170.076 78.7989 169.784L79.2375 168.029C79.321 167.821 79.4881 167.716 79.7387 167.716C79.9893 167.716 80.9709 167.695 82.6834 167.654C84.6882 167.654 85.6906 167.633 85.6906 167.591C85.6906 167.507 85.8786 166.463 86.2545 164.458C86.6304 162.453 86.881 161.242 87.0063 160.825C88.5517 153.933 91.6008 150.487 96.1535 150.487C97.6989 150.571 98.9728 151.03 99.9752 151.865C100.978 152.701 101.479 153.808 101.479 155.186C101.479 156.69 101.04 157.775 100.163 158.444C99.286 159.112 98.4089 159.467 97.5318 159.509C95.694 159.509 94.7751 158.632 94.7751 156.877C94.7751 156.084 95.0048 155.395 95.4643 154.81C95.9237 154.225 96.4249 153.787 96.9679 153.494L97.5318 153.181C96.8635 152.93 96.237 152.805 95.6522 152.805C95.151 152.805 94.6707 153.014 94.2113 153.432C93.7518 153.849 93.4386 154.434 93.2715 155.186C92.9791 156.397 92.645 158.026 92.2691 160.073C91.8931 162.119 91.559 163.853 91.2666 165.273C90.9743 166.693 90.8281 167.445 90.8281 167.528C90.8281 167.612 91.9767 167.654 94.2739 167.654C96.1535 167.654 97.2394 167.674 97.5318 167.716C97.8242 167.758 98.0539 167.883 98.221 168.092C98.2627 168.259 98.221 168.614 98.0957 169.157C97.9704 169.7 97.8659 170.034 97.7824 170.16C97.6989 170.368 97.5109 170.473 97.2185 170.473C96.9262 170.473 95.7984 170.494 93.8353 170.536H90.3269L88.8859 178.179C86.881 188.537 85.4818 195.011 84.6882 197.601C83.5605 201.151 82.0986 203.783 80.3026 205.495C78.7572 206.832 77.2327 207.5 75.729 207.5C74.3924 207.5 73.1812 207.103 72.0952 206.31C71.0093 205.516 70.4663 204.388 70.4663 202.926C70.4663 201.381 70.9048 200.253 71.782 199.543C72.6591 198.833 73.5362 198.478 74.4133 198.478C76.2511 198.478 77.17 199.355 77.17 201.11C77.17 201.903 76.9403 202.592 76.4808 203.177C76.0214 203.762 75.5202 204.2 74.9772 204.493L74.4133 204.806Z" fill="#EF224B"/>
<path d="M103.079 175.395C103.079 175.1 103.138 174.761 103.257 174.377C103.375 173.993 103.552 173.801 103.788 173.801C103.818 173.801 104.881 173.727 106.977 173.579C109.074 173.432 110.152 173.343 110.211 173.314C110.565 173.314 110.742 173.432 110.742 173.668C110.742 173.875 110.004 176.961 108.528 182.926C107.051 188.772 106.313 191.799 106.313 192.006C106.874 191.711 107.302 191.43 107.597 191.164C108.306 190.633 109.325 189.703 110.654 188.374C111.983 187.045 113.016 186.144 113.754 185.672C114.936 184.875 116.058 184.476 117.121 184.476C118.007 184.476 118.701 184.756 119.203 185.318C119.705 185.879 119.97 186.676 120 187.709C120 188.448 119.897 189.068 119.69 189.57C119.483 190.072 119.203 190.441 118.848 190.677C118.494 190.913 118.184 191.076 117.918 191.164C117.652 191.253 117.387 191.297 117.121 191.297C116.53 191.297 116.058 191.135 115.703 190.81C115.349 190.485 115.172 190.057 115.172 189.526C115.172 188.787 115.408 188.182 115.881 187.709C116.353 187.237 116.826 186.927 117.298 186.779L118.007 186.646C117.652 186.292 117.298 186.115 116.944 186.115H116.766C115.822 186.203 114.891 186.573 113.976 187.222C113.061 187.872 111.983 188.817 110.742 190.057C109.502 191.297 108.528 192.198 107.819 192.759C107.878 192.789 108.099 192.833 108.483 192.892C108.867 192.951 109.222 193.04 109.546 193.158C109.871 193.276 110.255 193.394 110.698 193.512C111.141 193.63 111.54 193.837 111.894 194.132C112.248 194.427 112.573 194.693 112.869 194.929C113.164 195.166 113.415 195.55 113.622 196.081C113.828 196.613 113.917 197.1 113.887 197.543C113.887 198.045 113.814 198.65 113.666 199.359C113.518 200.068 113.43 200.658 113.4 201.131C113.4 202.312 113.799 202.903 114.596 202.903C116.013 202.903 117.165 201.145 118.051 197.631C118.11 197.395 118.405 197.277 118.937 197.277H119.114C119.587 197.277 119.823 197.41 119.823 197.676C119.823 197.823 119.779 198.03 119.69 198.296C118.479 202.46 116.737 204.541 114.463 204.541C113.134 204.541 112.056 204.158 111.23 203.39C110.403 202.622 109.989 201.515 109.989 200.068C109.989 199.536 110.034 199.078 110.122 198.695C110.211 198.311 110.255 197.956 110.255 197.631C110.255 196.982 110.048 196.421 109.635 195.948C109.222 195.476 108.705 195.136 108.085 194.929C107.465 194.723 106.963 194.56 106.579 194.442C106.195 194.324 105.929 194.28 105.781 194.309H105.693C105.338 195.55 105.028 196.746 104.763 197.897C104.497 199.049 104.29 199.905 104.142 200.466C103.995 201.027 103.862 201.574 103.744 202.105C103.626 202.637 103.522 202.991 103.434 203.168C103.345 203.345 103.242 203.537 103.124 203.744C103.006 203.951 102.843 204.084 102.636 204.143C102.253 204.409 101.839 204.541 101.396 204.541C100.894 204.541 100.51 204.394 100.245 204.098C99.9788 203.803 99.8459 203.552 99.8459 203.345C99.8459 203.05 100.392 200.688 101.485 196.258C102.577 191.829 103.655 187.473 104.718 183.191L106.357 176.769C106.387 176.385 106.283 176.148 106.047 176.06C105.811 175.971 105.235 175.897 104.32 175.838H104.098C103.803 175.838 103.611 175.838 103.522 175.838C103.434 175.838 103.33 175.794 103.212 175.706C103.094 175.617 103.05 175.514 103.079 175.395Z" fill="#EF224B"/>
</svg>
