<svg width="285" height="240" viewBox="0 0 285 240" fill="none" xmlns="http://www.w3.org/2000/svg">
<path d="M49 85L104 116.754L104 53.2457L49 85ZM281 79.5L98.5 79.5L98.5 90.5L281 90.5L281 79.5Z" fill="#EF224B"/>
<path d="M1.50648 213.275C0.502159 213.275 0 212.98 0 212.389C0 212.271 0.0886162 211.858 0.265849 211.149C0.502159 210.203 0.738468 209.672 0.974778 209.553C1.21109 209.435 1.89048 209.347 3.01295 209.288C4.60804 209.288 6.38037 209.199 8.32992 209.022C9.15701 208.845 9.71824 208.49 10.0136 207.958C10.1318 207.663 12.229 199.363 16.3054 183.057C20.3817 166.752 22.4494 158.481 22.5085 158.245C22.5085 157.831 22.3904 157.624 22.1541 157.624C21.6814 157.447 20.1159 157.299 17.4574 157.181H14.7103C14.3558 156.827 14.1786 156.591 14.1786 156.472C14.1786 156.354 14.2377 155.852 14.3558 154.966C14.5921 153.962 14.8875 153.341 15.242 153.105H63.0061C63.4197 153.341 63.6264 153.666 63.6264 154.08C63.6264 154.375 63.2424 157.683 62.4744 164.005C61.7064 170.326 61.2929 173.575 61.2338 173.753C61.1156 174.166 60.5249 174.373 59.4615 174.373H58.3981C57.9845 174.077 57.7778 173.693 57.7778 173.221C57.7778 173.162 57.8664 172.453 58.0436 171.094C58.2209 169.735 58.3095 168.17 58.3095 166.397C58.3095 164.625 58.1027 163.178 57.6892 162.055C57.2756 160.933 56.7144 160.017 56.0054 159.308C55.2965 158.599 54.2036 158.127 52.7266 157.89C51.2497 157.654 49.7432 157.447 48.2072 157.27C46.6712 157.093 44.5444 157.063 41.8269 157.181H39.7887C34.9443 157.24 32.3745 157.329 32.0791 157.447C31.7837 157.565 31.5769 157.802 31.4588 158.156C31.3997 158.215 30.3954 162.085 28.4458 169.765L25.6101 181.196H30.484C30.6612 181.196 31.3406 181.196 32.5222 181.196C33.7037 181.196 34.5308 181.167 35.0034 181.108C35.476 181.049 36.1259 180.96 36.953 180.842C37.78 180.724 38.489 180.517 39.0798 180.222C39.6705 179.926 40.1727 179.572 40.5862 179.158C41.3542 178.449 42.0041 177.474 42.5358 176.234C43.0675 174.993 43.4515 173.871 43.6878 172.866C43.9241 171.862 44.0718 171.33 44.1309 171.271C44.3081 170.976 44.8693 170.828 45.8146 170.828H46.878C47.2915 171.124 47.4983 171.419 47.4983 171.714C47.4983 171.892 46.5826 175.761 44.7512 183.323C42.9198 190.885 41.9155 194.784 41.7382 195.02C41.6201 195.434 41.0293 195.641 39.9659 195.641H38.9025C38.489 195.286 38.2822 194.932 38.2822 194.577C38.2822 194.4 38.4299 193.75 38.7253 192.628C39.0207 191.505 39.1684 190.324 39.1684 189.083C39.1684 187.37 38.5776 186.307 37.396 185.893C36.2145 185.479 33.5855 185.273 29.5092 185.273H24.6353L21.7996 196.527C19.9091 203.853 18.9639 207.693 18.9639 208.047C18.9639 208.874 21.5928 209.288 26.8507 209.288H29.0661C29.4206 209.642 29.5978 209.849 29.5978 209.908C29.5978 209.967 29.5387 210.558 29.4206 211.68C29.1843 212.448 28.8889 213.01 28.5344 213.364H27.0279C24.6058 213.246 20.1454 213.187 13.6469 213.187C9.80686 213.187 6.88253 213.187 4.87389 213.187C2.86526 213.187 1.74279 213.216 1.50648 213.275Z" fill="#EF224B"/>
<path d="M56.1206 132.014C56.1206 131.542 56.2683 131.128 56.5637 130.774C56.8591 130.419 57.3022 130.242 57.893 130.242C58.3065 130.242 58.661 130.39 58.9564 130.685C59.2517 130.921 59.5471 131.483 59.8425 132.369C60.4333 134.555 61.6444 136.238 63.4758 137.42C64.1256 137.833 64.4506 138.365 64.4506 139.015C64.4506 139.547 64.3619 139.901 64.1847 140.078C64.0075 140.256 63.5939 140.521 62.9441 140.876C60.4038 142.176 58.1884 144.037 56.2979 146.459C56.1797 146.577 56.032 146.754 55.8548 146.99C55.6776 147.227 55.5299 147.404 55.4117 147.522C55.2936 147.64 55.1459 147.699 54.9686 147.699C54.7914 147.699 54.5846 147.729 54.3483 147.788C53.9348 147.788 53.5508 147.64 53.1963 147.345C52.8418 147.05 52.6351 146.606 52.576 146.016C52.576 144.893 53.9643 143.15 56.741 140.787H41.5876L26.4342 140.699C25.6662 140.167 25.2822 139.606 25.2822 139.015C25.2822 138.601 25.6662 138.011 26.4342 137.243H58.2474C56.8296 134.998 56.1206 133.255 56.1206 132.014Z" fill="#EF224B"/>
<path d="M74.4133 236.806C74.4969 236.806 74.6222 236.848 74.7892 236.931C74.9563 237.015 75.186 237.077 75.4784 237.119C75.7708 237.161 76.0214 237.182 76.2302 237.182C76.7732 237.182 77.2744 236.91 77.7339 236.367C78.1933 235.824 78.5275 235.219 78.7363 234.551C79.154 233.423 79.864 230.228 80.8665 224.965C81.8689 219.702 82.8295 214.69 83.7484 209.928C84.6673 205.167 85.1268 202.765 85.1268 202.723V202.536H82.1821C80.2191 202.536 79.1749 202.494 79.0496 202.41C78.8825 202.285 78.7989 202.076 78.7989 201.784L79.2375 200.029C79.321 199.821 79.4881 199.716 79.7387 199.716C79.9893 199.716 80.9709 199.695 82.6834 199.654C84.6882 199.654 85.6906 199.633 85.6906 199.591C85.6906 199.507 85.8786 198.463 86.2545 196.458C86.6304 194.453 86.881 193.242 87.0063 192.825C88.5517 185.933 91.6008 182.487 96.1535 182.487C97.6989 182.571 98.9728 183.03 99.9752 183.865C100.978 184.701 101.479 185.808 101.479 187.186C101.479 188.69 101.04 189.775 100.163 190.444C99.286 191.112 98.4089 191.467 97.5318 191.509C95.694 191.509 94.7751 190.632 94.7751 188.877C94.7751 188.084 95.0048 187.395 95.4643 186.81C95.9237 186.225 96.4249 185.787 96.9679 185.494L97.5318 185.181C96.8635 184.93 96.237 184.805 95.6522 184.805C95.151 184.805 94.6707 185.014 94.2113 185.432C93.7518 185.849 93.4386 186.434 93.2715 187.186C92.9791 188.397 92.645 190.026 92.2691 192.073C91.8931 194.119 91.559 195.853 91.2666 197.273C90.9743 198.693 90.8281 199.445 90.8281 199.528C90.8281 199.612 91.9767 199.654 94.2739 199.654C96.1535 199.654 97.2394 199.674 97.5318 199.716C97.8242 199.758 98.0539 199.883 98.221 200.092C98.2627 200.259 98.221 200.614 98.0957 201.157C97.9704 201.7 97.8659 202.034 97.7824 202.16C97.6989 202.368 97.5109 202.473 97.2185 202.473C96.9262 202.473 95.7984 202.494 93.8353 202.536H90.3269L88.8859 210.179C86.881 220.537 85.4818 227.011 84.6882 229.601C83.5605 233.151 82.0986 235.783 80.3026 237.495C78.7572 238.832 77.2327 239.5 75.729 239.5C74.3924 239.5 73.1812 239.103 72.0952 238.31C71.0093 237.516 70.4663 236.388 70.4663 234.926C70.4663 233.381 70.9048 232.253 71.782 231.543C72.6591 230.833 73.5362 230.478 74.4133 230.478C76.2511 230.478 77.17 231.355 77.17 233.11C77.17 233.903 76.9403 234.592 76.4808 235.177C76.0214 235.762 75.5202 236.2 74.9772 236.493L74.4133 236.806Z" fill="#EF224B"/>
<path d="M103.079 207.395C103.079 207.1 103.138 206.761 103.257 206.377C103.375 205.993 103.552 205.801 103.788 205.801C103.818 205.801 104.881 205.727 106.977 205.579C109.074 205.432 110.152 205.343 110.211 205.314C110.565 205.314 110.742 205.432 110.742 205.668C110.742 205.875 110.004 208.961 108.528 214.926C107.051 220.772 106.313 223.799 106.313 224.006C106.874 223.711 107.302 223.43 107.597 223.164C108.306 222.633 109.325 221.703 110.654 220.374C111.983 219.045 113.016 218.144 113.754 217.672C114.936 216.875 116.058 216.476 117.121 216.476C118.007 216.476 118.701 216.756 119.203 217.318C119.705 217.879 119.97 218.676 120 219.709C120 220.448 119.897 221.068 119.69 221.57C119.483 222.072 119.203 222.441 118.848 222.677C118.494 222.913 118.184 223.076 117.918 223.164C117.652 223.253 117.387 223.297 117.121 223.297C116.53 223.297 116.058 223.135 115.703 222.81C115.349 222.485 115.172 222.057 115.172 221.526C115.172 220.787 115.408 220.182 115.881 219.709C116.353 219.237 116.826 218.927 117.298 218.779L118.007 218.646C117.652 218.292 117.298 218.115 116.944 218.115H116.766C115.822 218.203 114.891 218.573 113.976 219.222C113.061 219.872 111.983 220.817 110.742 222.057C109.502 223.297 108.528 224.198 107.819 224.759C107.878 224.789 108.099 224.833 108.483 224.892C108.867 224.951 109.222 225.04 109.546 225.158C109.871 225.276 110.255 225.394 110.698 225.512C111.141 225.63 111.54 225.837 111.894 226.132C112.248 226.427 112.573 226.693 112.869 226.929C113.164 227.166 113.415 227.55 113.622 228.081C113.828 228.613 113.917 229.1 113.887 229.543C113.887 230.045 113.814 230.65 113.666 231.359C113.518 232.068 113.43 232.658 113.4 233.131C113.4 234.312 113.799 234.903 114.596 234.903C116.013 234.903 117.165 233.145 118.051 229.631C118.11 229.395 118.405 229.277 118.937 229.277H119.114C119.587 229.277 119.823 229.41 119.823 229.676C119.823 229.823 119.779 230.03 119.69 230.296C118.479 234.46 116.737 236.541 114.463 236.541C113.134 236.541 112.056 236.158 111.23 235.39C110.403 234.622 109.989 233.515 109.989 232.068C109.989 231.536 110.034 231.078 110.122 230.695C110.211 230.311 110.255 229.956 110.255 229.631C110.255 228.982 110.048 228.421 109.635 227.948C109.222 227.476 108.705 227.136 108.085 226.929C107.465 226.723 106.963 226.56 106.579 226.442C106.195 226.324 105.929 226.28 105.781 226.309H105.693C105.338 227.55 105.028 228.746 104.763 229.897C104.497 231.049 104.29 231.905 104.142 232.466C103.995 233.027 103.862 233.574 103.744 234.105C103.626 234.637 103.522 234.991 103.434 235.168C103.345 235.345 103.242 235.537 103.124 235.744C103.006 235.951 102.843 236.084 102.636 236.143C102.253 236.409 101.839 236.541 101.396 236.541C100.894 236.541 100.51 236.394 100.245 236.098C99.9788 235.803 99.8459 235.552 99.8459 235.345C99.8459 235.05 100.392 232.688 101.485 228.258C102.577 223.829 103.655 219.473 104.718 215.191L106.357 208.769C106.387 208.385 106.283 208.148 106.047 208.06C105.811 207.971 105.235 207.897 104.32 207.838H104.098C103.803 207.838 103.611 207.838 103.522 207.838C103.434 207.838 103.33 207.794 103.212 207.706C103.094 207.617 103.05 207.514 103.079 207.395Z" fill="#EF224B"/>
</svg>
