<svg width="600" height="120" viewBox="0 0 600 120" fill="none" xmlns="http://www.w3.org/2000/svg">
<path d="M1.9437 115.358H1.74933C0.971849 115.358 0.38874 114.905 0 113.998V66.766L0.0971849 19.5341C0.745084 18.6919 1.36059 18.2707 1.9437 18.2707C2.78597 18.2707 3.43387 18.7567 3.8874 19.7285V113.998C3.36908 114.905 2.78597 115.358 2.13807 115.358H1.9437Z" fill="#EF224B"/>
<path d="M20.1172 91.0622C19.0158 91.0622 18.4651 90.7383 18.4651 90.0904C18.4651 89.9608 18.5623 89.5073 18.7566 88.7298C19.0158 87.6931 19.275 87.11 19.5341 86.9804C19.7933 86.8509 20.5384 86.7537 21.7694 86.6889C23.5187 86.6889 25.4624 86.5917 27.6005 86.3973C28.5075 86.203 29.123 85.8142 29.447 85.2311C29.5766 84.9072 31.8766 75.8042 36.3471 57.9222C40.8176 40.0401 43.0853 30.9696 43.15 30.7104C43.15 30.2569 43.0205 30.0301 42.7613 30.0301C42.243 29.8357 40.5261 29.6738 37.6105 29.5442H34.5978C34.209 29.1554 34.0147 28.8963 34.0147 28.7667C34.0147 28.6371 34.0795 28.0864 34.209 27.1146C34.4682 26.0131 34.7921 25.3328 35.1809 25.0737H87.5635C88.0171 25.3328 88.2438 25.6892 88.2438 26.1427C88.2438 26.4667 87.8227 30.0949 86.9804 37.0274C86.1382 43.9599 85.6846 47.5234 85.6198 47.7178C85.4903 48.1713 84.8424 48.398 83.6761 48.398H82.5099C82.0564 48.0741 81.8296 47.653 81.8296 47.1346C81.8296 47.0699 81.9268 46.2924 82.1212 44.8022C82.3156 43.312 82.4127 41.5951 82.4127 39.6514C82.4127 37.7077 82.186 36.1204 81.7324 34.8894C81.2789 33.6583 80.6634 32.6541 79.8859 31.8766C79.1084 31.0991 77.9098 30.5808 76.2901 30.3217C74.6703 30.0625 73.0182 29.8357 71.3337 29.6414C69.6491 29.447 67.3167 29.4146 64.3363 29.5442H62.1011C56.7883 29.609 53.97 29.7062 53.646 29.8357C53.3221 29.9653 53.0953 30.2245 52.9657 30.6132C52.9009 30.678 51.7995 34.9217 49.6614 43.3444L46.5515 55.8813H51.8967C52.0911 55.8813 52.8361 55.8813 54.1319 55.8813C55.4277 55.8813 56.3348 55.8489 56.8531 55.7841C57.3714 55.7193 58.0841 55.6221 58.9912 55.4925C59.8982 55.363 60.6757 55.1362 61.3236 54.8123C61.9715 54.4883 62.5222 54.0996 62.9758 53.646C63.818 52.8686 64.5307 51.7995 65.1138 50.4389C65.6969 49.0783 66.1181 47.8473 66.3772 46.7459C66.6364 45.6445 66.7984 45.0614 66.8632 44.9966C67.0575 44.6726 67.673 44.5107 68.7097 44.5107H69.8759C70.3294 44.8346 70.5562 45.1586 70.5562 45.4825C70.5562 45.6769 69.5519 49.9206 67.5434 58.2137C65.535 66.5068 64.4335 70.783 64.2392 71.0421C64.1096 71.4957 63.4617 71.7224 62.2955 71.7224H61.1292C60.6757 71.3337 60.449 70.9449 60.449 70.5562C60.449 70.3618 60.6109 69.6491 60.9349 68.4181C61.2588 67.1871 61.4208 65.8913 61.4208 64.5307C61.4208 62.6518 60.7729 61.4856 59.4771 61.0321C58.1813 60.5786 55.2982 60.3518 50.8277 60.3518H45.4825L42.3726 72.6943C40.2993 80.7282 39.2627 84.9396 39.2627 85.3283C39.2627 86.2354 42.1458 86.6889 47.9121 86.6889H50.3417C50.7305 87.0776 50.9248 87.3044 50.9248 87.3692C50.9248 87.434 50.86 88.0819 50.7305 89.3129C50.4713 90.1551 50.1474 90.7707 49.7586 91.1594H48.1065C45.4501 91.0298 40.5584 90.965 33.4316 90.965C29.2202 90.965 26.0131 90.965 23.8103 90.965C21.6074 90.965 20.3764 90.9974 20.1172 91.0622Z" fill="#EF224B"/>
<path d="M80.0122 1.94371C80.0122 1.42539 80.1742 0.971857 80.4982 0.583117C80.8221 0.194378 81.308 8.19564e-06 81.9559 8.19564e-06C82.4095 8.19564e-06 82.7982 0.161983 83.1221 0.485933C83.4461 0.745092 83.77 1.3606 84.094 2.33245C84.7419 4.72967 86.0701 6.57619 88.0786 7.87198C88.7913 8.32551 89.1476 8.90862 89.1476 9.62131C89.1476 10.2044 89.0504 10.5932 88.8561 10.7875C88.6617 10.9819 88.2082 11.2735 87.4955 11.6622C84.7095 13.0876 82.2799 15.1285 80.2066 17.7848C80.077 17.9144 79.915 18.1088 79.7207 18.368C79.5263 18.6271 79.3643 18.8215 79.2348 18.9511C79.1052 19.0806 78.9432 19.1454 78.7488 19.1454C78.5545 19.1454 78.3277 19.1778 78.0685 19.2426C77.615 19.2426 77.1939 19.0806 76.8051 18.7567C76.4164 18.4327 76.1896 17.9468 76.1248 17.2989C76.1248 16.0679 77.6474 14.1566 80.6925 11.565H64.0739L47.4553 11.4678C46.613 10.8847 46.1919 10.2692 46.1919 9.62131C46.1919 9.16778 46.613 8.51988 47.4553 7.67761H82.3447C80.7897 5.2156 80.0122 3.30429 80.0122 1.94371Z" fill="#EF224B"/>
<path d="M100.074 116.868C100.165 116.868 100.303 116.914 100.486 117.006C100.669 117.097 100.921 117.166 101.242 117.212C101.562 117.257 101.837 117.28 102.066 117.28C102.662 117.28 103.211 116.983 103.715 116.387C104.219 115.792 104.586 115.127 104.815 114.395C105.273 113.158 106.051 109.654 107.151 103.882C108.25 98.1104 109.304 92.6136 110.311 87.3916C111.319 82.1697 111.823 79.5358 111.823 79.49V79.2839H108.594C106.441 79.2839 105.296 79.2381 105.158 79.1465C104.975 79.0091 104.883 78.78 104.883 78.4594L105.364 76.5355C105.456 76.3065 105.639 76.192 105.914 76.192C106.189 76.192 107.265 76.1691 109.143 76.1233C111.342 76.1233 112.441 76.1004 112.441 76.0545C112.441 75.9629 112.648 74.8178 113.06 72.6191C113.472 70.4204 113.747 69.092 113.884 68.6339C115.579 61.0758 118.923 57.2968 123.916 57.2968C125.611 57.3884 127.008 57.8923 128.107 58.8084C129.207 59.7245 129.756 60.9384 129.756 62.45C129.756 64.0991 129.275 65.29 128.313 66.0229C127.351 66.7558 126.39 67.1452 125.428 67.191C123.412 67.191 122.404 66.2291 122.404 64.3052C122.404 63.4349 122.656 62.6791 123.16 62.0378C123.664 61.3965 124.214 60.9155 124.809 60.5949L125.428 60.2513C124.695 59.9765 124.008 59.8391 123.366 59.8391C122.817 59.8391 122.29 60.0681 121.786 60.5262C121.282 60.9842 120.939 61.6255 120.755 62.45C120.435 63.7784 120.068 65.5649 119.656 67.8094C119.244 70.0539 118.877 71.9549 118.557 73.5123C118.236 75.0697 118.076 75.8942 118.076 75.9858C118.076 76.0775 119.335 76.1233 121.855 76.1233C123.916 76.1233 125.107 76.1462 125.428 76.192C125.748 76.2378 126 76.3752 126.183 76.6042C126.229 76.7875 126.183 77.1768 126.046 77.7723C125.909 78.3678 125.794 78.7342 125.702 78.8716C125.611 79.1007 125.405 79.2152 125.084 79.2152C124.763 79.2152 123.527 79.2381 121.374 79.2839H117.526L115.946 87.6665C113.747 99.0265 112.212 106.126 111.342 108.966C110.105 112.86 108.502 115.746 106.532 117.624C104.838 119.09 103.166 119.823 101.517 119.823C100.051 119.823 98.7224 119.387 97.5314 118.517C96.3405 117.647 95.745 116.41 95.745 114.807C95.745 113.112 96.226 111.875 97.1879 111.096C98.1498 110.318 99.1118 109.928 100.074 109.928C102.089 109.928 103.097 110.89 103.097 112.814C103.097 113.685 102.845 114.44 102.341 115.082C101.837 115.723 101.288 116.204 100.692 116.525L100.074 116.868Z" fill="#EF224B"/>
<path d="M131.512 84.6137C131.512 84.2899 131.576 83.9175 131.706 83.4965C131.835 83.0754 132.03 82.8649 132.289 82.8649C132.321 82.8649 133.487 82.784 135.786 82.6221C138.086 82.4601 139.268 82.363 139.333 82.3306C139.721 82.3306 139.916 82.4601 139.916 82.7192C139.916 82.9459 139.106 86.3302 137.487 92.872C135.867 99.2842 135.058 102.604 135.058 102.83C135.673 102.507 136.143 102.199 136.467 101.907C137.244 101.324 138.361 100.304 139.818 98.847C141.276 97.3897 142.409 96.4019 143.219 95.8838C144.514 95.0094 145.745 94.5722 146.911 94.5722C147.882 94.5722 148.643 94.8798 149.194 95.4952C149.744 96.1105 150.036 96.9849 150.068 98.1184C150.068 98.928 149.955 99.6081 149.728 100.159C149.502 100.709 149.194 101.114 148.805 101.373C148.417 101.632 148.077 101.81 147.785 101.907C147.494 102.005 147.202 102.053 146.911 102.053C146.263 102.053 145.745 101.875 145.356 101.519C144.968 101.163 144.773 100.693 144.773 100.11C144.773 99.3004 145.032 98.6365 145.551 98.1184C146.069 97.6002 146.587 97.2602 147.105 97.0982L147.882 96.9525C147.494 96.5639 147.105 96.3696 146.716 96.3696H146.522C145.486 96.4667 144.466 96.8715 143.462 97.584C142.458 98.2965 141.276 99.3328 139.916 100.693C138.555 102.053 137.487 103.041 136.709 103.656C136.774 103.689 137.017 103.737 137.438 103.802C137.859 103.867 138.248 103.964 138.604 104.093C138.96 104.223 139.381 104.353 139.867 104.482C140.353 104.612 140.79 104.838 141.179 105.162C141.567 105.486 141.923 105.777 142.247 106.037C142.571 106.296 142.846 106.717 143.073 107.3C143.3 107.882 143.397 108.417 143.365 108.903C143.365 109.453 143.284 110.117 143.122 110.894C142.96 111.672 142.863 112.319 142.83 112.837C142.83 114.133 143.267 114.781 144.142 114.781C145.696 114.781 146.959 112.854 147.931 109C147.996 108.741 148.32 108.611 148.902 108.611H149.097C149.615 108.611 149.874 108.757 149.874 109.048C149.874 109.21 149.825 109.437 149.728 109.728C148.4 114.295 146.49 116.578 143.996 116.578C142.539 116.578 141.357 116.157 140.45 115.315C139.543 114.473 139.09 113.258 139.09 111.672C139.09 111.089 139.138 110.587 139.235 110.166C139.333 109.745 139.381 109.356 139.381 109C139.381 108.287 139.155 107.672 138.701 107.154C138.248 106.636 137.681 106.263 137.001 106.037C136.321 105.81 135.77 105.632 135.349 105.502C134.928 105.373 134.637 105.324 134.475 105.356H134.378C133.989 106.717 133.649 108.028 133.358 109.291C133.066 110.554 132.839 111.493 132.677 112.109C132.516 112.724 132.37 113.323 132.24 113.906C132.111 114.489 131.997 114.878 131.9 115.072C131.803 115.266 131.69 115.477 131.56 115.704C131.431 115.93 131.253 116.076 131.026 116.141C130.605 116.432 130.151 116.578 129.666 116.578C129.115 116.578 128.694 116.416 128.403 116.092C128.111 115.768 127.965 115.493 127.965 115.266C127.965 114.942 128.565 112.352 129.763 107.494C130.961 102.636 132.143 97.8593 133.309 93.1634L135.106 86.1197C135.139 85.6986 135.025 85.4396 134.766 85.3424C134.507 85.2453 133.876 85.1643 132.872 85.0995H132.629C132.305 85.0995 132.095 85.0995 131.997 85.0995C131.9 85.0995 131.787 85.0509 131.657 84.9538C131.528 84.8566 131.479 84.7433 131.512 84.6137Z" fill="#EF224B"/>
<path d="M172.756 115.358H172.561C171.784 115.358 171.201 114.905 170.812 113.998V66.766L170.909 19.5341C171.557 18.6919 172.173 18.2707 172.756 18.2707C173.598 18.2707 174.246 18.7567 174.7 19.7285V113.998C174.181 114.905 173.598 115.358 172.95 115.358H172.756Z" fill="#EF224B"/>
<path d="M218.705 57.4362C218.705 56.594 219.158 55.9461 220.065 55.4925H281.972C282.944 56.0109 283.43 56.6588 283.43 57.4362C283.43 58.1489 282.976 58.7644 282.069 59.2827L251.165 59.3799H220.26C219.223 59.056 218.705 58.4081 218.705 57.4362ZM218.705 76.2901C218.705 75.3182 219.223 74.6703 220.26 74.3464H282.069C282.976 74.9943 283.43 75.6422 283.43 76.2901C283.43 77.1324 282.944 77.7803 281.972 78.2338H220.065C219.158 77.7803 218.705 77.1324 218.705 76.2901Z" fill="#EF224B"/>
<path d="M321.507 112.151C320.6 112.151 319.822 111.892 319.175 111.374C318.527 110.856 318.17 110.143 318.106 109.236C318.106 108.588 320.47 98.8046 325.2 79.886C329.93 60.9673 332.424 51.3136 332.683 50.9249C333.526 49.1107 335.016 48.2037 337.154 48.2037C337.931 48.2685 338.579 48.4952 339.097 48.884C339.616 49.2727 339.94 49.6615 340.069 50.0502C340.199 50.4389 340.264 50.7629 340.264 51.022C340.264 51.7995 339.259 56.1404 337.251 64.0448C335.242 71.9492 334.173 76.3873 334.044 77.3591C333.914 78.0718 333.85 79.2057 333.85 80.7606V81.5381C333.85 86.2678 336.02 88.6326 340.361 88.6326C340.944 88.6326 341.527 88.6002 342.11 88.5354C342.693 88.4706 343.244 88.341 343.762 88.1467C344.281 87.9523 344.767 87.7255 345.22 87.4664C345.674 87.2072 346.095 86.9805 346.484 86.7861C346.872 86.5917 347.261 86.2678 347.65 85.8142C348.039 85.3607 348.395 85.0368 348.719 84.8424C349.043 84.648 349.367 84.2593 349.691 83.6762C350.015 83.0931 350.274 82.7367 350.468 82.6071C350.662 82.4776 350.954 82.0888 351.343 81.4409L352.023 80.4691L355.522 66.5716C357.854 57.3715 359.15 52.4798 359.409 51.8967C360.251 50.1474 361.644 49.2727 363.588 49.2727C364.43 49.2727 365.111 49.4995 365.629 49.953C366.147 50.4065 366.504 50.7953 366.698 51.1192C366.892 51.4432 366.957 51.7671 366.892 52.0911L359.506 82.9959C359.442 83.3198 359.409 83.8381 359.409 84.5508C359.409 86.1706 359.636 87.2396 360.089 87.7579C360.543 88.2763 361.223 88.5678 362.13 88.6326C362.713 88.5678 363.361 88.2763 364.074 87.7579C365.435 86.4621 366.763 83.3522 368.059 78.4282C368.447 77.1324 368.771 76.4521 369.03 76.3873C369.16 76.3225 369.484 76.2901 370.002 76.2901H370.391C371.622 76.2901 372.238 76.5817 372.238 77.1648C372.238 77.5535 372.076 78.4282 371.752 79.7888C371.428 81.1494 370.78 82.8987 369.808 85.0368C368.836 87.1748 367.799 88.7946 366.698 89.896C365.856 90.7383 364.819 91.4186 363.588 91.9369C363.07 92.0665 362.292 92.1313 361.256 92.1313C359.895 92.1313 358.664 91.9369 357.563 91.5481C356.461 91.1594 355.587 90.6735 354.939 90.0904C354.291 89.5073 353.74 88.9241 353.286 88.341C352.833 87.7579 352.541 87.272 352.412 86.8833C352.282 86.4945 352.217 86.2678 352.217 86.203L351.634 86.7861C351.246 87.1748 350.662 87.6607 349.885 88.2439C349.108 88.827 348.265 89.4101 347.358 89.9932C346.451 90.5763 345.285 91.0946 343.86 91.5481C342.434 92.0017 341.074 92.2284 339.778 92.2284C336.733 92.2284 333.72 91.4834 330.74 89.9932L328.407 99.4201C327.047 104.733 326.237 107.81 325.978 108.653C325.718 109.495 325.33 110.208 324.811 110.791C323.775 111.698 322.673 112.151 321.507 112.151Z" fill="#EF224B"/>
<path d="M382.787 61.2819C382.787 60.8239 382.878 60.2971 383.061 59.7016C383.245 59.1061 383.52 58.8084 383.886 58.8084C383.932 58.8084 385.581 58.6939 388.833 58.4648C392.085 58.2358 393.757 58.0984 393.849 58.0526C394.399 58.0526 394.673 58.2358 394.673 58.6023C394.673 58.9229 393.528 63.7097 391.238 72.9626C388.948 82.0323 387.802 86.7274 387.802 87.0481C388.673 86.59 389.337 86.1548 389.795 85.7426C390.894 84.9181 392.475 83.4752 394.536 81.4139C396.597 79.3526 398.201 77.9555 399.346 77.2226C401.178 75.9858 402.919 75.3674 404.568 75.3674C405.942 75.3674 407.018 75.8026 407.797 76.6729C408.576 77.5432 408.988 78.78 409.034 80.3832C409.034 81.5284 408.873 82.4903 408.553 83.269C408.232 84.0477 407.797 84.6203 407.247 84.9868C406.698 85.3532 406.217 85.6052 405.804 85.7426C405.392 85.88 404.98 85.9487 404.568 85.9487C403.652 85.9487 402.919 85.6968 402.369 85.1929C401.819 84.689 401.544 84.0248 401.544 83.2003C401.544 82.0552 401.911 81.1161 402.644 80.3832C403.377 79.6503 404.11 79.1694 404.842 78.9403L405.942 78.7342C405.392 78.1845 404.842 77.9097 404.293 77.9097H404.018C402.552 78.0471 401.109 78.6197 399.689 79.6274C398.269 80.6352 396.597 82.101 394.673 84.0248C392.75 85.9487 391.238 87.3458 390.139 88.2161C390.23 88.2619 390.574 88.3307 391.169 88.4223C391.765 88.5139 392.314 88.6513 392.818 88.8345C393.322 89.0178 393.918 89.201 394.605 89.3842C395.292 89.5674 395.91 89.8881 396.46 90.3461C397.01 90.8042 397.513 91.2165 397.971 91.5829C398.43 91.9494 398.819 92.5448 399.14 93.3694C399.46 94.1939 399.598 94.9497 399.552 95.6368C399.552 96.4155 399.437 97.3545 399.208 98.4539C398.979 99.5532 398.842 100.469 398.796 101.202C398.796 103.035 399.414 103.951 400.651 103.951C402.85 103.951 404.636 101.225 406.011 95.7742C406.102 95.4078 406.56 95.2245 407.385 95.2245H407.66C408.392 95.2245 408.759 95.4307 408.759 95.8429C408.759 96.0719 408.69 96.3926 408.553 96.8049C406.675 103.264 403.972 106.493 400.445 106.493C398.384 106.493 396.712 105.897 395.429 104.706C394.147 103.515 393.505 101.798 393.505 99.5532C393.505 98.7287 393.574 98.0187 393.711 97.4232C393.849 96.8278 393.918 96.2781 393.918 95.7742C393.918 94.7665 393.597 93.8961 392.956 93.1632C392.314 92.4303 391.513 91.9036 390.551 91.5829C389.589 91.2623 388.81 91.0103 388.215 90.8271C387.619 90.6439 387.207 90.5752 386.978 90.621H386.841C386.291 92.5448 385.81 94.4 385.398 96.1865C384.985 97.9729 384.665 99.3013 384.436 100.172C384.207 101.042 384.001 101.889 383.817 102.714C383.634 103.538 383.474 104.088 383.336 104.363C383.199 104.638 383.039 104.935 382.855 105.256C382.672 105.577 382.42 105.783 382.1 105.875C381.504 106.287 380.863 106.493 380.176 106.493C379.397 106.493 378.801 106.264 378.389 105.806C377.977 105.348 377.771 104.958 377.771 104.638C377.771 104.18 378.618 100.515 380.313 93.6442C382.008 86.7732 383.68 80.0168 385.329 73.3748L387.871 63.4119C387.917 62.8164 387.757 62.45 387.39 62.3126C387.024 62.1752 386.131 62.0606 384.711 61.969H384.367C383.909 61.969 383.611 61.969 383.474 61.969C383.336 61.969 383.176 61.9003 382.993 61.7629C382.81 61.6255 382.741 61.4652 382.787 61.2819Z" fill="#EF224B"/>
<path d="M428.644 115.358H428.449C427.672 115.358 427.089 114.905 426.7 113.998V66.766L426.797 19.5341C427.445 18.6919 428.061 18.2707 428.644 18.2707C429.486 18.2707 430.134 18.7567 430.587 19.7285V113.998C430.069 114.905 429.486 115.358 428.838 115.358H428.644Z" fill="#EF224B"/>
<path d="M446.817 91.0622C445.716 91.0622 445.165 90.7383 445.165 90.0904C445.165 89.9608 445.262 89.5073 445.457 88.7298C445.716 87.6931 445.975 87.11 446.234 86.9804C446.493 86.8509 447.238 86.7537 448.469 86.6889C450.219 86.6889 452.162 86.5917 454.3 86.3973C455.208 86.203 455.823 85.8142 456.147 85.2311C456.277 84.9072 458.577 75.8042 463.047 57.9222C467.518 40.0401 469.785 30.9696 469.85 30.7104C469.85 30.2569 469.72 30.0301 469.461 30.0301C468.943 29.8357 467.226 29.6738 464.311 29.5442H461.298C460.909 29.1554 460.715 28.8963 460.715 28.7667C460.715 28.6371 460.779 28.0864 460.909 27.1146C461.168 26.0131 461.492 25.3328 461.881 25.0737H514.264C514.717 25.3328 514.944 25.6892 514.944 26.1427C514.944 26.4667 514.523 30.0949 513.68 37.0274C512.838 43.9599 512.385 47.5234 512.32 47.7178C512.19 48.1713 511.542 48.398 510.376 48.398H509.21C508.756 48.0741 508.53 47.653 508.53 47.1346C508.53 47.0699 508.627 46.2924 508.821 44.8022C509.016 43.312 509.113 41.5951 509.113 39.6514C509.113 37.7077 508.886 36.1204 508.432 34.8894C507.979 33.6583 507.363 32.6541 506.586 31.8766C505.808 31.0991 504.61 30.5808 502.99 30.3217C501.37 30.0625 499.718 29.8357 498.034 29.6414C496.349 29.447 494.017 29.4146 491.036 29.5442H488.801C483.488 29.609 480.67 29.7062 480.346 29.8357C480.022 29.9653 479.795 30.2245 479.666 30.6132C479.601 30.678 478.5 34.9217 476.361 43.3444L473.252 55.8813H478.597C478.791 55.8813 479.536 55.8813 480.832 55.8813C482.128 55.8813 483.035 55.8489 483.553 55.7841C484.071 55.7193 484.784 55.6221 485.691 55.4925C486.598 55.363 487.376 55.1362 488.024 54.8123C488.672 54.4883 489.222 54.0996 489.676 53.646C490.518 52.8686 491.231 51.7995 491.814 50.4389C492.397 49.0783 492.818 47.8473 493.077 46.7459C493.336 45.6445 493.498 45.0614 493.563 44.9966C493.758 44.6726 494.373 44.5107 495.41 44.5107H496.576C497.029 44.8346 497.256 45.1586 497.256 45.4825C497.256 45.6769 496.252 49.9206 494.243 58.2137C492.235 66.5068 491.134 70.783 490.939 71.0421C490.81 71.4957 490.162 71.7224 488.995 71.7224H487.829C487.376 71.3337 487.149 70.9449 487.149 70.5562C487.149 70.3618 487.311 69.6491 487.635 68.4181C487.959 67.1871 488.121 65.8913 488.121 64.5307C488.121 62.6518 487.473 61.4856 486.177 61.0321C484.881 60.5786 481.998 60.3518 477.528 60.3518H472.182L469.073 72.6943C466.999 80.7282 465.963 84.9396 465.963 85.3283C465.963 86.2354 468.846 86.6889 474.612 86.6889H477.042C477.43 87.0776 477.625 87.3044 477.625 87.3692C477.625 87.434 477.56 88.0819 477.43 89.3129C477.171 90.1551 476.847 90.7707 476.459 91.1594H474.806C472.15 91.0298 467.258 90.965 460.132 90.965C455.92 90.965 452.713 90.965 450.51 90.965C448.307 90.965 447.076 90.9974 446.817 91.0622Z" fill="#EF224B"/>
<path d="M506.712 1.94371C506.712 1.42539 506.874 0.971857 507.198 0.583117C507.522 0.194378 508.008 8.19564e-06 508.656 8.19564e-06C509.11 8.19564e-06 509.498 0.161983 509.822 0.485933C510.146 0.745092 510.47 1.3606 510.794 2.33245C511.442 4.72967 512.77 6.57619 514.779 7.87198C515.491 8.32551 515.848 8.90862 515.848 9.62131C515.848 10.2044 515.75 10.5932 515.556 10.7875C515.362 10.9819 514.908 11.2735 514.196 11.6622C511.41 13.0876 508.98 15.1285 506.907 17.7848C506.777 17.9144 506.615 18.1088 506.421 18.368C506.226 18.6271 506.064 18.8215 505.935 18.9511C505.805 19.0806 505.643 19.1454 505.449 19.1454C505.255 19.1454 505.028 19.1778 504.769 19.2426C504.315 19.2426 503.894 19.0806 503.505 18.7567C503.116 18.4327 502.89 17.9468 502.825 17.2989C502.825 16.0679 504.347 14.1566 507.393 11.565H490.774L474.155 11.4678C473.313 10.8847 472.892 10.2692 472.892 9.62131C472.892 9.16778 473.313 8.51988 474.155 7.67761H509.045C507.49 5.2156 506.712 3.30429 506.712 1.94371Z" fill="#EF224B"/>
<path d="M534.744 61.9691C534.607 61.9691 534.423 61.9691 534.194 61.9691C533.049 61.9691 532.362 61.9462 532.133 61.9004C531.904 61.8545 531.79 61.6026 531.79 61.1445C531.79 59.9078 532.041 59.152 532.545 58.8771C532.637 58.8313 534.859 58.8084 539.21 58.8084C542.737 58.8084 544.753 58.8084 545.257 58.8084C545.761 58.8084 546.081 58.9458 546.219 59.2207C555.884 81.9407 560.808 93.5984 560.991 94.1939L564.701 79.5588C567.129 69.8936 568.343 64.7404 568.343 64.0991C568.343 62.8623 566.877 62.1523 563.946 61.9691C562.846 61.9691 562.297 61.7171 562.297 61.2133C562.297 61.1216 562.342 60.8468 562.434 60.3887C562.617 59.6558 562.755 59.2207 562.846 59.0833C562.938 58.9458 563.167 58.8542 563.533 58.8084C563.671 58.8084 564.381 58.8313 565.663 58.8771C566.946 58.9229 568.847 58.9687 571.366 59.0145C573.657 59.0145 575.397 58.9916 576.588 58.9458C577.779 58.9 578.466 58.8771 578.65 58.8771C579.337 58.8771 579.68 59.1062 579.68 59.5642C579.68 60.572 579.497 61.2591 579.131 61.6255C579.039 61.8545 578.535 61.9691 577.619 61.9691C574.367 62.1523 572.328 63.0684 571.504 64.7175L561.266 105.256C561.174 105.577 560.693 105.737 559.823 105.737C559.182 105.737 558.792 105.691 558.655 105.6C558.518 105.462 555.563 98.5226 549.791 84.7807L541.065 64.2365L536.599 82.101C533.622 93.8275 532.133 99.8968 532.133 100.309C532.362 101.821 534.011 102.577 537.08 102.577H537.767C538.042 102.806 538.18 102.989 538.18 103.126C538.18 103.264 538.134 103.699 538.042 104.432C537.859 105.027 537.63 105.462 537.355 105.737H536.462C535.042 105.646 532.568 105.6 529.041 105.6C527.759 105.6 526.591 105.6 525.537 105.6C524.483 105.6 523.636 105.6 522.995 105.6C522.353 105.6 521.964 105.623 521.827 105.668C521.14 105.668 520.796 105.462 520.796 105.05C520.796 104.867 520.865 104.5 521.002 103.951C521.14 103.401 521.254 103.08 521.346 102.989C521.437 102.714 521.964 102.577 522.926 102.577C526.041 102.439 528.056 101.546 528.972 99.8968C529.156 99.622 530.782 93.2778 533.851 80.8642L538.523 62.1752C538.431 62.1294 537.172 62.0607 534.744 61.9691Z" fill="#EF224B"/>
<path d="M598.056 115.358H597.862C597.084 115.358 596.501 114.905 596.113 113.998V66.766L596.21 19.5341C596.858 18.6919 597.473 18.2707 598.056 18.2707C598.899 18.2707 599.546 18.7567 600 19.7285V113.998C599.482 114.905 598.899 115.358 598.251 115.358H598.056Z" fill="#EF224B"/>
</svg>
