<svg width="151" height="415" viewBox="0 0 151 415" fill="none" xmlns="http://www.w3.org/2000/svg">
<path d="M119 376L150.754 321H87.2457L119 376ZM113.5 0L113.5 326.5H124.5L124.5 0L113.5 0Z" fill="#DF6FA0"/>
<path d="M1.55158 387.99C0.517192 387.99 0 387.686 0 387.078C0 386.956 0.0912692 386.53 0.273808 385.8C0.517192 384.826 0.760577 384.279 1.00396 384.157C1.24735 384.035 1.94708 383.944 3.10315 383.883C4.746 383.883 6.57138 383.792 8.5793 383.609C9.43115 383.427 10.0092 383.062 10.3134 382.514C10.4351 382.21 12.5951 373.661 16.7935 356.867C20.9919 340.074 23.1215 331.555 23.1824 331.312C23.1824 330.886 23.0607 330.673 22.8173 330.673C22.3305 330.491 20.7181 330.339 17.98 330.217H15.1507C14.7856 329.852 14.6031 329.608 14.6031 329.487C14.6031 329.365 14.6639 328.848 14.7856 327.935C15.029 326.901 15.3332 326.262 15.6983 326.018H64.8924C65.3183 326.262 65.5313 326.597 65.5313 327.022C65.5313 327.327 65.1358 330.734 64.3448 337.245C63.5538 343.755 63.1279 347.102 63.067 347.284C62.9453 347.71 62.3369 347.923 61.2416 347.923H60.1464C59.7205 347.619 59.5075 347.223 59.5075 346.737C59.5075 346.676 59.5988 345.946 59.7813 344.546C59.9639 343.147 60.0551 341.534 60.0551 339.709C60.0551 337.883 59.8422 336.393 59.4162 335.237C58.9903 334.081 58.4123 333.137 57.6821 332.407C56.952 331.677 55.8263 331.19 54.3052 330.947C52.784 330.704 51.2324 330.491 49.6504 330.308C48.0684 330.126 45.878 330.095 43.0791 330.217H40.9799C35.9905 330.278 33.3437 330.369 33.0394 330.491C32.7352 330.612 32.5223 330.856 32.4006 331.221C32.3397 331.282 31.3053 335.267 29.2974 343.177L26.3768 354.951H31.3966C31.5791 354.951 32.2789 354.951 33.4958 354.951C34.7127 354.951 35.5646 354.92 36.0513 354.86C36.5381 354.799 37.2074 354.707 38.0593 354.586C38.9111 354.464 39.6413 354.251 40.2497 353.947C40.8582 353.643 41.3754 353.278 41.8013 352.852C42.5923 352.121 43.2616 351.117 43.8092 349.84C44.3568 348.562 44.7523 347.406 44.9957 346.371C45.2391 345.337 45.3912 344.789 45.4521 344.729C45.6346 344.424 46.2126 344.272 47.1862 344.272H48.2814C48.7073 344.577 48.9203 344.881 48.9203 345.185C48.9203 345.368 47.9772 349.353 46.0909 357.141C44.2047 364.93 43.1703 368.945 42.9878 369.189C42.8661 369.615 42.2576 369.828 41.1624 369.828H40.0672C39.6413 369.463 39.4283 369.098 39.4283 368.732C39.4283 368.55 39.5804 367.881 39.8846 366.725C40.1889 365.568 40.341 364.352 40.341 363.074C40.341 361.309 39.7325 360.214 38.5156 359.788C37.2987 359.362 34.591 359.149 30.3926 359.149H25.3728L22.4522 370.74C20.5051 378.285 19.5316 382.24 19.5316 382.605C19.5316 383.457 22.2393 383.883 27.6546 383.883H29.9363C30.3014 384.248 30.4839 384.461 30.4839 384.522C30.4839 384.583 30.4231 385.191 30.3014 386.347C30.058 387.138 29.7538 387.716 29.3887 388.082H27.8371C25.3424 387.96 20.7485 387.899 14.0555 387.899C10.1005 387.899 7.08857 387.899 5.01981 387.899C2.95104 387.899 1.79496 387.929 1.55158 387.99Z" fill="#DF6FA0"/>
<path d="M57.8008 304.296C57.8008 303.81 57.9529 303.384 58.2571 303.019C58.5614 302.654 59.0177 302.471 59.6262 302.471C60.0521 302.471 60.4172 302.623 60.7214 302.927C61.0256 303.171 61.3299 303.749 61.6341 304.661C62.2425 306.913 63.4899 308.647 65.3761 309.864C66.0454 310.29 66.3801 310.837 66.3801 311.507C66.3801 312.054 66.2888 312.419 66.1063 312.602C65.9237 312.784 65.4978 313.058 64.8285 313.423C62.2121 314.762 59.9304 316.679 57.9833 319.173C57.8616 319.295 57.7095 319.478 57.527 319.721C57.3444 319.964 57.1923 320.147 57.0706 320.269C56.9489 320.39 56.7968 320.451 56.6143 320.451C56.4317 320.451 56.2188 320.481 55.9754 320.542C55.5495 320.542 55.154 320.39 54.7889 320.086C54.4238 319.782 54.2109 319.325 54.15 318.717C54.15 317.561 55.5799 315.766 58.4397 313.332H42.8326L27.2256 313.241C26.4346 312.693 26.0391 312.115 26.0391 311.507C26.0391 311.081 26.4346 310.472 27.2256 309.681H59.9912C58.5309 307.369 57.8008 305.574 57.8008 304.296Z" fill="#DF6FA0"/>
<path d="M89.0949 398.997C88.4496 399.556 87.5032 400.159 86.2557 400.804C85.0082 401.449 83.6961 401.772 82.3195 401.772C79.6094 401.772 77.437 400.804 75.8023 398.868C74.1676 396.932 73.3287 394.459 73.2857 391.448C73.2857 386.931 74.9419 382.779 78.2543 378.994C81.5667 375.208 85.2448 373.294 89.2885 373.251C91.3103 373.251 93.1816 374.283 94.9023 376.348L95.0959 376.09C95.182 375.961 95.2895 375.832 95.4186 375.703C95.5476 375.574 95.7412 375.402 95.9993 375.187C96.2574 374.972 96.537 374.821 96.8382 374.735C97.1393 374.649 97.4834 374.584 97.8706 374.541C98.4729 374.541 98.9676 374.735 99.3547 375.122C99.7419 375.509 99.957 375.918 100 376.348C100 376.993 98.774 382.199 96.3219 391.964C93.8699 401.729 92.5794 406.719 92.4503 406.934C91.676 409.257 90.0198 411.171 87.4817 412.677C84.9436 414.183 82.0399 414.957 78.7705 415C72.7049 415 69.6722 413.537 69.6722 410.612C69.6722 409.494 70.0593 408.504 70.8337 407.644C71.608 406.784 72.5974 406.353 73.8019 406.353C74.4472 406.353 75.0494 406.547 75.6087 406.934C76.1679 407.321 76.469 407.988 76.5121 408.934C76.5121 409.365 76.469 409.773 76.383 410.16C76.297 410.548 76.1464 410.849 75.9313 411.064C75.7162 411.279 75.5442 411.494 75.4151 411.709C75.286 411.924 75.1355 412.096 74.9634 412.225L74.8344 412.354H74.8989C75.3291 412.483 76.6196 412.548 78.7705 412.548C80.4052 412.548 81.6958 412.29 82.6422 411.774C83.6316 411.3 84.5565 410.591 85.4168 409.644C86.2772 408.698 86.8794 407.687 87.2236 406.611C87.4817 405.794 87.8259 404.461 88.256 402.611C88.8153 400.546 89.0949 399.341 89.0949 398.997ZM93.8054 380.607L93.5473 379.897C93.4182 379.424 93.3107 379.101 93.2246 378.929C93.1386 378.757 93.0095 378.456 92.8375 378.026C92.6654 377.596 92.4503 377.295 92.1922 377.122C91.9341 376.95 91.6545 376.714 91.3533 376.413C91.0522 376.112 90.6651 375.918 90.1919 375.832C89.7187 375.746 89.2455 375.681 88.7723 375.638C86.8794 375.638 85.0512 376.778 83.2874 379.058C81.9969 380.736 80.9214 383.296 80.0611 386.737C79.2007 390.178 78.7705 392.674 78.7705 394.222C78.7705 397.621 80.1041 399.32 82.7712 399.32C85.1802 399.32 87.5462 397.814 89.8692 394.803L90.3854 394.158L93.8054 380.607Z" fill="#DF6FA0"/>
</svg>
