<svg width="321" height="291" viewBox="0 0 321 291" fill="none" xmlns="http://www.w3.org/2000/svg">
<path d="M107 186.199C107 180.921 108.187 175.358 110.562 169.51C112.937 163.663 116.164 158.617 120.244 154.374C124.323 150.131 128.555 147.699 132.939 147.078C133 147.078 133.244 147.078 133.67 147.078C134.096 147.078 134.461 147.052 134.766 147C138.054 147.207 140.611 148.475 142.438 150.803C144.813 153.908 146 158.074 146 163.301C146 169.252 144.63 175.306 141.89 181.464C139.15 187.622 135.649 192.668 131.386 196.601C127.124 200.534 123.044 202.5 119.148 202.5H118.508C116.316 202.5 114.429 201.983 112.845 200.948C111.262 199.913 110.075 198.541 109.283 196.834C108.492 195.126 107.913 193.392 107.548 191.633C107.183 189.873 107 188.062 107 186.199ZM138.785 157.789C138.785 152.511 137.171 149.872 133.944 149.872C131.752 149.872 129.621 151.036 127.55 153.365C125.48 155.694 123.775 158.333 122.436 161.283C121.096 164.232 120.061 166.82 119.33 169.045C118.6 171.27 118.204 172.564 118.143 172.926C121.126 172.978 124.08 173.003 127.002 173.003L135.862 172.926C135.923 172.874 136.166 172.02 136.593 170.364C137.019 168.708 137.506 166.638 138.054 164.155C138.602 161.671 138.845 159.549 138.785 157.789ZM114.124 191.478C114.124 196.963 115.738 199.706 118.965 199.706C119.878 199.706 120.852 199.447 121.888 198.929C122.923 198.412 124.171 197.429 125.632 195.98C127.094 194.531 128.555 192.28 130.016 189.227C131.478 186.173 132.939 182.396 134.4 177.894L134.857 176.574H117.047C117.047 176.729 116.773 177.713 116.225 179.524C115.677 181.335 115.19 183.353 114.763 185.578C114.337 187.803 114.124 189.77 114.124 191.478Z" fill="black"/>
<path d="M117.777 277.815C117.777 278.725 118.555 279.256 120.111 279.408C120.72 279.408 121.024 279.617 121.024 280.034C121.024 280.072 120.99 280.318 120.923 280.773C120.821 281.304 120.72 281.646 120.618 281.797C120.517 281.949 120.297 282.025 119.959 282.025C119.891 282.025 119.688 282.025 119.35 282.025C119.012 282.025 118.437 282.006 117.625 281.968C116.813 281.93 115.731 281.911 114.378 281.911C111.976 281.911 110.438 281.949 109.761 282.025H109.355C109.118 281.759 109 281.551 109 281.399C109.068 280.375 109.288 279.711 109.66 279.408H110.37C112.738 279.294 114.463 278.346 115.545 276.564C115.748 276.336 118.809 270.553 124.728 259.214C130.647 247.874 133.657 242.129 133.759 241.977C133.996 241.522 134.402 241.295 134.977 241.295H135.382H136.245C136.448 241.636 136.549 241.825 136.549 241.863L137.97 260.238C138.917 272.487 139.424 278.668 139.492 278.782C139.661 279.199 140.76 279.408 142.79 279.408C143.635 279.408 144.058 279.598 144.058 279.977C144.058 280.053 144.007 280.318 143.906 280.773C143.805 281.342 143.72 281.683 143.652 281.797C143.585 281.911 143.348 281.987 142.942 282.025C142.841 282.025 142.604 282.025 142.232 282.025C141.86 282.025 141.2 282.006 140.253 281.968C139.306 281.93 138.071 281.911 136.549 281.911C133.37 281.911 131.29 281.949 130.309 282.025H129.7C129.497 281.797 129.396 281.627 129.396 281.513C129.396 281.399 129.429 281.058 129.497 280.489C129.632 279.996 129.734 279.692 129.802 279.579L130.004 279.408H131.019C132.846 279.294 133.928 278.972 134.266 278.441L133.657 269.908H121.582L119.857 273.207C118.471 275.824 117.777 277.36 117.777 277.815ZM133.404 267.234C133.404 266.817 133.201 263.859 132.795 258.36C132.389 252.861 132.152 250.093 132.085 250.055L130.715 252.501C130.174 253.525 129.108 255.554 127.518 258.588L122.952 267.234L128.178 267.291C131.662 267.291 133.404 267.272 133.404 267.234Z" fill="#6C63FF"/>
<path d="M147.141 278.935C147.308 277.808 147.954 276.508 149.078 275.033C150.202 273.559 151.589 272.808 153.239 272.781C154.076 272.781 154.841 273.022 155.535 273.505C156.228 273.988 156.742 274.591 157.077 275.315C158.081 273.626 159.289 272.781 160.7 272.781C161.585 272.781 162.35 273.076 162.996 273.666C163.641 274.256 163.976 275.047 164 276.039C164 276.816 163.833 277.446 163.498 277.929C163.163 278.412 162.84 278.707 162.529 278.814C162.218 278.921 161.943 278.975 161.704 278.975C161.25 278.975 160.879 278.827 160.592 278.532C160.305 278.237 160.162 277.849 160.162 277.366C160.162 276.133 160.76 275.288 161.955 274.832C161.692 274.484 161.214 274.309 160.521 274.309C160.21 274.309 159.983 274.336 159.839 274.39C158.93 274.819 158.261 275.704 157.83 277.044C156.396 282.97 155.678 286.429 155.678 287.421C155.678 288.171 155.869 288.708 156.252 289.029C156.635 289.351 157.053 289.512 157.508 289.512C158.392 289.512 159.265 289.07 160.126 288.185C160.987 287.3 161.573 286.214 161.884 284.927C161.955 284.659 162.027 284.511 162.099 284.485C162.171 284.458 162.362 284.431 162.673 284.404H162.816C163.175 284.404 163.354 284.511 163.354 284.726C163.354 284.753 163.33 284.9 163.283 285.168C162.9 286.697 162.159 288.051 161.059 289.23C159.959 290.41 158.679 291 157.221 291C155.547 291 154.279 290.155 153.418 288.466C152.438 290.129 151.314 290.96 150.047 290.96H149.831C148.66 290.96 147.823 290.611 147.32 289.914C146.818 289.217 146.555 288.48 146.531 287.702C146.531 286.844 146.758 286.147 147.213 285.611C147.667 285.075 148.205 284.806 148.827 284.806C149.855 284.806 150.369 285.369 150.369 286.496C150.369 287.032 150.226 287.501 149.939 287.903C149.652 288.305 149.377 288.574 149.114 288.708C148.851 288.842 148.695 288.909 148.648 288.909L148.54 288.949C148.54 288.976 148.612 289.029 148.755 289.11C148.899 289.19 149.09 289.284 149.329 289.391C149.568 289.499 149.795 289.539 150.011 289.512C150.872 289.512 151.613 288.909 152.235 287.702C152.45 287.273 152.725 286.361 153.06 284.967C153.394 283.573 153.729 282.125 154.064 280.624C154.399 279.122 154.59 278.237 154.638 277.969C154.757 277.245 154.817 276.723 154.817 276.401C154.817 275.65 154.638 275.114 154.279 274.792C153.921 274.47 153.514 274.309 153.06 274.309C152.103 274.309 151.206 274.738 150.369 275.596C149.532 276.454 148.947 277.554 148.612 278.894C148.564 279.136 148.504 279.27 148.432 279.296C148.361 279.323 148.169 279.35 147.859 279.377H147.356C147.213 279.216 147.141 279.069 147.141 278.935Z" fill="#6C63FF"/>
<path d="M274.927 148.07C274.927 148.87 275.718 149.336 277.301 149.469C277.92 149.469 278.23 149.652 278.23 150.018C278.23 150.052 278.195 150.268 278.126 150.668C278.023 151.134 277.92 151.434 277.817 151.567C277.714 151.7 277.49 151.767 277.146 151.767C277.077 151.767 276.871 151.767 276.527 151.767C276.183 151.767 275.598 151.75 274.772 151.717C273.947 151.684 272.846 151.667 271.47 151.667C269.027 151.667 267.462 151.7 266.774 151.767H266.361C266.12 151.534 266 151.351 266 151.217C266.069 150.318 266.292 149.735 266.671 149.469H267.393C269.801 149.369 271.556 148.537 272.657 146.971C272.863 146.772 275.976 141.693 281.997 131.735C288.017 121.778 291.079 116.733 291.182 116.599C291.423 116.2 291.835 116 292.42 116H292.833H293.71C293.917 116.3 294.02 116.466 294.02 116.5L295.465 132.635C296.428 143.391 296.944 148.82 297.013 148.92C297.185 149.286 298.303 149.469 300.367 149.469C301.227 149.469 301.657 149.636 301.657 149.969C301.657 150.035 301.605 150.268 301.502 150.668C301.399 151.167 301.313 151.467 301.244 151.567C301.175 151.667 300.935 151.734 300.522 151.767C300.419 151.767 300.178 151.767 299.799 151.767C299.421 151.767 298.75 151.75 297.787 151.717C296.824 151.684 295.568 151.667 294.02 151.667C290.786 151.667 288.671 151.7 287.673 151.767H287.054C286.847 151.567 286.744 151.417 286.744 151.317C286.744 151.217 286.778 150.918 286.847 150.418C286.985 149.985 287.088 149.719 287.157 149.619L287.363 149.469H288.395C290.253 149.369 291.354 149.086 291.698 148.62L291.079 141.127H278.797L277.043 144.024C275.632 146.322 274.927 147.671 274.927 148.07ZM290.821 138.779C290.821 138.413 290.614 135.815 290.201 130.986C289.789 126.157 289.548 123.726 289.479 123.693L288.086 125.841C287.535 126.74 286.452 128.522 284.835 131.186L280.191 138.779L285.506 138.829C289.049 138.829 290.821 138.812 290.821 138.779Z" fill="#6C63FF"/>
<path d="M303.662 149.124C303.662 148.794 303.844 148.229 304.209 147.429C304.574 146.628 305.157 145.792 305.96 144.921C306.763 144.05 307.663 143.626 308.66 143.65C309.657 143.65 310.46 143.92 311.068 144.462C311.676 145.004 311.992 145.757 312.016 146.722C311.968 147.17 311.931 147.417 311.907 147.464C311.907 147.535 311.712 148.076 311.323 149.089C310.934 150.101 310.533 151.243 310.119 152.514C309.706 153.786 309.511 154.798 309.535 155.552C309.535 156.564 309.706 157.27 310.046 157.671C310.387 158.071 310.897 158.283 311.578 158.306C312.138 158.306 312.661 158.177 313.147 157.918C313.634 157.659 314.011 157.388 314.278 157.106C314.546 156.823 314.874 156.435 315.263 155.94C315.263 155.917 315.324 155.681 315.446 155.234C315.567 154.786 315.737 154.092 315.956 153.15C316.175 152.208 316.406 151.337 316.649 150.537C317.574 147.005 318.084 145.157 318.182 144.992C318.498 144.356 319.021 144.038 319.75 144.038C320.067 144.038 320.322 144.121 320.517 144.285C320.711 144.45 320.845 144.591 320.918 144.709C320.991 144.827 321.015 144.933 320.991 145.027C320.991 145.333 320.395 147.805 319.203 152.444C318.011 157.082 317.33 159.625 317.16 160.072C316.479 162.026 315.3 163.58 313.621 164.734C311.943 165.888 310.265 166.476 308.587 166.5C307.492 166.5 306.532 166.241 305.705 165.723C304.878 165.205 304.464 164.428 304.464 163.392C304.464 162.874 304.549 162.438 304.72 162.085C304.89 161.732 305.121 161.473 305.413 161.308C305.705 161.144 305.948 161.026 306.142 160.955C306.337 160.885 306.544 160.849 306.763 160.849C307.833 160.849 308.368 161.344 308.368 162.333C308.368 162.803 308.222 163.215 307.93 163.569C307.638 163.922 307.359 164.157 307.091 164.275C306.823 164.393 306.665 164.452 306.617 164.452L306.507 164.487C306.556 164.605 306.787 164.746 307.2 164.911C307.614 165.076 308.027 165.158 308.441 165.158H308.733C309.146 165.158 309.462 165.134 309.681 165.087C310.484 164.875 311.226 164.428 311.907 163.745C312.588 163.062 313.111 162.333 313.475 161.556C313.84 160.779 314.12 160.119 314.315 159.578C314.509 159.036 314.606 158.683 314.606 158.518L314.388 158.66C314.242 158.754 314.011 158.883 313.694 159.048C313.378 159.213 313.062 159.354 312.746 159.472C312.259 159.59 311.785 159.648 311.323 159.648C310.204 159.648 309.219 159.389 308.368 158.871C307.517 158.353 306.957 157.518 306.69 156.364C306.665 156.199 306.653 155.834 306.653 155.269C306.653 153.927 307.079 152.173 307.93 150.007C308.781 147.841 309.207 146.463 309.207 145.875C309.207 145.851 309.207 145.828 309.207 145.804C309.207 145.592 309.207 145.451 309.207 145.38C309.207 145.31 309.158 145.227 309.061 145.133C308.964 145.039 308.83 144.992 308.66 144.992H308.514C307.954 144.992 307.444 145.215 306.982 145.663C306.519 146.11 306.155 146.593 305.887 147.111C305.62 147.629 305.413 148.123 305.267 148.594C305.121 149.065 305.024 149.324 304.975 149.371C304.926 149.418 304.732 149.442 304.391 149.442H303.881C303.735 149.3 303.662 149.195 303.662 149.124Z" fill="#6C63FF"/>
<path d="M11.8953 218.898L234.918 21.9765V218.898H11.8953Z" stroke="#4066E0" stroke-width="9"/>
<path d="M42.1998 99.8139H42.0519C41.4604 99.8139 41.0168 99.4361 40.7211 98.6806V59.3397L40.795 19.9987C41.2879 19.2971 41.7562 18.9464 42.1998 18.9464C42.8406 18.9464 43.3335 19.3511 43.6786 20.1606V98.6806C43.2842 99.4361 42.8406 99.8139 42.3477 99.8139H42.1998Z" fill="#4066E0"/>
<path d="M67.8561 73.6675C67.8561 74.9627 68.9898 75.7182 71.2572 75.9341C72.1444 75.9341 72.588 76.2309 72.588 76.8245C72.588 76.8785 72.5388 77.2293 72.4402 77.8769C72.2923 78.6324 72.1444 79.1181 71.9965 79.3339C71.8487 79.5498 71.5283 79.6577 71.0354 79.6577C70.9368 79.6577 70.641 79.6577 70.1481 79.6577C69.6552 79.6577 68.8173 79.6307 67.6343 79.5768C66.4513 79.5228 64.8739 79.4958 62.9023 79.4958C59.4026 79.4958 57.1598 79.5498 56.174 79.6577H55.5825C55.2375 79.28 55.0649 78.9832 55.0649 78.7673C55.1635 77.3102 55.4839 76.3658 56.0261 75.9341H57.0612C60.5116 75.7722 63.0255 74.4231 64.6028 71.8867C64.8986 71.5629 69.3595 63.3331 77.9855 47.1974C86.6115 31.0617 90.9984 22.8859 91.1463 22.67C91.4913 22.0224 92.0828 21.6986 92.9208 21.6986H93.5123H94.7692C95.0649 22.1843 95.2128 22.4541 95.2128 22.5081L97.2831 48.6545C98.6632 66.0854 99.4026 74.8818 99.5012 75.0437C99.7476 75.6373 101.35 75.9341 104.307 75.9341C105.539 75.9341 106.156 76.2039 106.156 76.7436C106.156 76.8515 106.082 77.2293 105.934 77.8769C105.786 78.6863 105.663 79.172 105.564 79.3339C105.465 79.4958 105.12 79.6038 104.529 79.6577C104.381 79.6577 104.036 79.6577 103.494 79.6577C102.952 79.6577 101.99 79.6307 100.61 79.5768C99.2301 79.5228 97.4309 79.4958 95.2128 79.4958C90.5794 79.4958 87.548 79.5498 86.1185 79.6577H85.2313C84.9356 79.3339 84.7877 79.0911 84.7877 78.9292C84.7877 78.7673 84.837 78.2816 84.9356 77.4721C85.1327 76.7706 85.2806 76.3388 85.3792 76.1769L85.6749 75.9341H87.1537C89.8154 75.7722 91.3927 75.3135 91.8856 74.558L90.9984 62.4157H73.4014L70.8875 67.1107C68.8665 70.8343 67.8561 73.02 67.8561 73.6675ZM90.6287 58.6111C90.6287 58.0175 90.333 53.8082 89.7415 45.9832C89.15 38.1581 88.8049 34.2186 88.7063 34.1647L86.71 37.6455C85.9214 39.1025 84.3687 41.9897 82.052 46.307L75.3977 58.6111L83.0132 58.6921C88.0902 58.6921 90.6287 58.6651 90.6287 58.6111Z" fill="#4066E0"/>
<path d="M99.8708 2.4329C99.8708 2.00118 99.994 1.62342 100.241 1.29963C100.487 0.975831 100.857 0.813934 101.35 0.813934C101.695 0.813934 101.99 0.948848 102.237 1.21868C102.483 1.43454 102.73 1.94721 102.976 2.7567C103.469 4.75343 104.48 6.29145 106.008 7.37076C106.55 7.74852 106.821 8.23421 106.821 8.82784C106.821 9.31353 106.747 9.63732 106.599 9.79922C106.451 9.96111 106.106 10.204 105.564 10.5278C103.444 11.715 101.596 13.4149 100.019 15.6275C99.9201 15.7354 99.7969 15.8973 99.649 16.1132C99.5011 16.3291 99.3779 16.491 99.2793 16.5989C99.1807 16.7068 99.0575 16.7608 98.9096 16.7608C98.7618 16.7608 98.5892 16.7878 98.3921 16.8417C98.047 16.8417 97.7266 16.7068 97.4309 16.437C97.1351 16.1672 96.9626 15.7624 96.9133 15.2228C96.9133 14.1974 98.0717 12.6054 100.388 10.4468H87.7451L75.1019 10.3659C74.4611 9.88017 74.1407 9.36749 74.1407 8.82784C74.1407 8.45008 74.4611 7.91042 75.1019 7.20887H101.645C100.462 5.15817 99.8708 3.56618 99.8708 2.4329Z" fill="#4066E0"/>
<path d="M119.242 99.8139H119.094C118.503 99.8139 118.059 99.4361 117.764 98.6806V59.3397L117.838 19.9987C118.33 19.2971 118.799 18.9464 119.242 18.9464C119.883 18.9464 120.376 19.3511 120.721 20.1606V98.6806C120.327 99.4361 119.883 99.8139 119.39 99.8139H119.242Z" fill="#4066E0"/>
</svg>
