<svg width="729" height="744" viewBox="0 0 729 744" fill="none" xmlns="http://www.w3.org/2000/svg">
<path d="M694.768 398.768C695.745 397.791 695.745 396.209 694.768 395.232L678.859 379.322C677.882 378.346 676.299 378.346 675.323 379.322C674.347 380.299 674.347 381.882 675.323 382.858L689.465 397L675.323 411.142C674.347 412.118 674.347 413.701 675.323 414.678C676.299 415.654 677.882 415.654 678.859 414.678L694.768 398.768ZM0 399.5H693.001V394.5H0V399.5Z" fill="black"/>
<path d="M714.842 395.924L719.061 388.98H722.857L716.635 398.385L723.051 408H719.289L714.895 400.881L710.5 408H706.721L713.137 398.385L706.914 388.98H710.676L714.842 395.924Z" fill="black"/>
<path d="M348.268 48.7319C347.292 47.7556 345.709 47.7556 344.733 48.7319L328.823 64.6418C327.846 65.6181 327.846 67.201 328.823 68.1773C329.799 69.1536 331.382 69.1536 332.358 68.1773L346.5 54.0352L360.643 68.1773C361.619 69.1536 363.202 69.1536 364.178 68.1773C365.154 67.201 365.154 65.6181 364.178 64.6418L348.268 48.7319ZM349 743.5L349 50.4996H344L344 743.5H349Z" fill="black"/>
<path d="M346.684 28.2363L351.113 13.9805H354.594L346.947 35.9355C345.764 39.0996 343.883 40.6816 341.305 40.6816L340.689 40.6289L339.477 40.4004V37.7637L340.355 37.834C341.457 37.834 342.312 37.6113 342.922 37.166C343.543 36.7207 344.053 35.9062 344.451 34.7227L345.172 32.7891L338.387 13.9805H341.938L346.684 28.2363Z" fill="black"/>
</svg>
