<svg width="477" height="442" viewBox="0 0 477 442" fill="none" xmlns="http://www.w3.org/2000/svg">
<path d="M377.563 408.359C377.567 413.736 376.304 418.207 373.913 421.931C371.518 425.658 367.975 428.668 363.372 431.085C354.152 435.925 340.764 438.342 324.145 439.398C307.539 440.454 287.77 440.148 265.823 439.584C261.763 439.479 257.628 439.366 253.425 439.251C234.918 438.743 215.095 438.2 194.503 438.219C173.876 438.237 154.071 438.819 135.619 439.36C131.468 439.482 127.385 439.602 123.377 439.713C101.546 440.317 81.9308 440.658 65.4763 439.633C49.0104 438.606 35.7714 436.214 26.6598 431.391C22.1116 428.984 18.6096 425.981 16.2431 422.258C13.8786 418.538 12.6259 414.069 12.6212 408.69C12.6126 397.959 17.6567 389.302 26.8721 382.325C36.1045 375.335 49.4987 370.055 66.0989 366.125C99.2944 358.267 145.134 355.848 195.65 355.802C246.167 355.756 291.708 358.093 324.616 365.891C341.071 369.79 354.323 375.046 363.454 382.018C372.567 388.977 377.554 397.625 377.563 408.359Z" fill="#E6E6E6"/>
<path d="M377.563 408.359C377.567 413.736 376.304 418.207 373.913 421.931C371.518 425.658 367.975 428.668 363.372 431.085C354.152 435.925 340.764 438.342 324.145 439.398C307.539 440.454 287.77 440.148 265.823 439.584C261.763 439.479 257.628 439.366 253.425 439.251C234.918 438.743 215.095 438.2 194.503 438.219C173.876 438.237 154.071 438.819 135.619 439.36C131.468 439.482 127.385 439.602 123.377 439.713C101.546 440.317 81.9308 440.658 65.4763 439.633C49.0104 438.606 35.7714 436.214 26.6598 431.391C22.1116 428.984 18.6096 425.981 16.2431 422.258C13.8786 418.538 12.6259 414.069 12.6212 408.69C12.6126 397.959 17.6567 389.302 26.8721 382.325C36.1045 375.335 49.4987 370.055 66.0989 366.125C99.2944 358.267 145.134 355.848 195.65 355.802C246.167 355.756 291.708 358.093 324.616 365.891C341.071 369.79 354.323 375.046 363.454 382.018C372.567 388.977 377.554 397.625 377.563 408.359Z" stroke="black"/>
<path d="M377.563 408.359C377.567 413.736 376.304 418.207 373.913 421.931C371.518 425.658 367.975 428.668 363.372 431.085C354.152 435.925 340.764 438.342 324.145 439.398C307.539 440.454 287.77 440.148 265.823 439.584C261.763 439.479 257.628 439.366 253.425 439.251C234.918 438.743 215.095 438.2 194.503 438.219C173.876 438.237 154.071 438.819 135.619 439.36C131.468 439.482 127.385 439.602 123.377 439.713C101.546 440.317 81.9308 440.658 65.4763 439.633C49.0104 438.606 35.7714 436.214 26.6598 431.391C22.1116 428.984 18.6096 425.981 16.2431 422.258C13.8786 418.538 12.6259 414.069 12.6212 408.69C12.6126 397.959 17.6567 389.302 26.8721 382.325C36.1045 375.335 49.4987 370.055 66.0989 366.125C99.2944 358.267 145.134 355.848 195.65 355.802C246.167 355.756 291.708 358.093 324.616 365.891C341.071 369.79 354.323 375.046 363.454 382.018C372.567 388.977 377.554 397.625 377.563 408.359Z" stroke="url(#paint0_linear)"/>
<mask id="path-4-inside-1" fill="white">
<path d="M0.871902 439.193H476.821V440.193H0.871902V439.193Z"/>
</mask>
<path d="M0.871902 439.193H476.821V440.193H0.871902V439.193Z" fill="#3F3D56"/>
<path d="M0.871902 439.193V319.193H-119.128V439.193H0.871902ZM476.821 439.193H596.821V319.193H476.821V439.193ZM476.821 440.193V560.193H596.821V440.193H476.821ZM0.871902 440.193H-119.128V560.193H0.871902V440.193ZM0.871902 559.193H476.821V319.193H0.871902V559.193ZM356.821 439.193V440.193H596.821V439.193H356.821ZM476.821 320.193H0.871902V560.193H476.821V320.193ZM120.872 440.193V439.193H-119.128V440.193H120.872Z" fill="black" mask="url(#path-4-inside-1)"/>
<path d="M306.751 348.822H294.438L288.269 296.297H306.751V348.822Z" fill="#A0616A"/>
<path d="M306.751 348.822H294.438L288.269 296.297H306.751V348.822Z" stroke="black"/>
<path d="M306.751 348.822H294.438L288.269 296.297H306.751V348.822Z" stroke="url(#paint1_linear)"/>
<path d="M283.116 345.857H309.582V361.708H269.019V360.667C269.019 356.739 270.504 352.972 273.147 350.195C275.791 347.418 279.377 345.857 283.116 345.857Z" fill="#2F2E41"/>
<path d="M283.116 345.857H309.582V361.708H269.019V360.667C269.019 356.739 270.504 352.972 273.147 350.195C275.791 347.418 279.377 345.857 283.116 345.857Z" stroke="black"/>
<path d="M283.116 345.857H309.582V361.708H269.019V360.667C269.019 356.739 270.504 352.972 273.147 350.195C275.791 347.418 279.377 345.857 283.116 345.857Z" stroke="url(#paint2_linear)"/>
<path d="M403.845 427.822H391.532L385.363 375.297H403.845V427.822Z" fill="#A0616A"/>
<path d="M403.845 427.822H391.532L385.363 375.297H403.845V427.822Z" stroke="black"/>
<path d="M403.845 427.822H391.532L385.363 375.297H403.845V427.822Z" stroke="url(#paint3_linear)"/>
<path d="M380.209 424.857H406.676V440.708H366.113V439.667C366.113 435.739 367.598 431.972 370.241 429.195C372.885 426.418 376.47 424.857 380.209 424.857Z" fill="#2F2E41"/>
<path d="M380.209 424.857H406.676V440.708H366.113V439.667C366.113 435.739 367.598 431.972 370.241 429.195C372.885 426.418 376.47 424.857 380.209 424.857Z" stroke="black"/>
<path d="M380.209 424.857H406.676V440.708H366.113V439.667C366.113 435.739 367.598 431.972 370.241 429.195C372.885 426.418 376.47 424.857 380.209 424.857Z" stroke="url(#paint4_linear)"/>
<path d="M462.032 253.877L462.081 254.087L462.261 254.194C463.451 254.898 464.48 255.868 465.274 257.035C466.069 258.202 466.61 259.538 466.861 260.949C467.111 262.36 467.063 263.811 466.722 265.2C466.38 266.59 465.753 267.884 464.883 268.991L465.251 269.309L464.882 268.993C463.43 270.868 461.374 272.118 459.103 272.506C456.832 272.894 454.505 272.394 452.562 271.1C450.619 269.806 449.195 267.809 448.56 265.486C447.926 263.163 448.124 260.676 449.119 258.497L449.198 258.322L449.145 258.136L412.777 131.614L431.486 123.158L462.032 253.877Z" fill="#A0616A"/>
<path d="M462.032 253.877L462.081 254.087L462.261 254.194C463.451 254.898 464.48 255.868 465.274 257.035C466.069 258.202 466.61 259.538 466.861 260.949C467.111 262.36 467.063 263.811 466.722 265.2C466.38 266.59 465.753 267.884 464.883 268.991L465.251 269.309L464.882 268.993C463.43 270.868 461.374 272.118 459.103 272.506C456.832 272.894 454.505 272.394 452.562 271.1C450.619 269.806 449.195 267.809 448.56 265.486C447.926 263.163 448.124 260.676 449.119 258.497L449.198 258.322L449.145 258.136L412.777 131.614L431.486 123.158L462.032 253.877Z" stroke="black"/>
<path d="M462.032 253.877L462.081 254.087L462.261 254.194C463.451 254.898 464.48 255.868 465.274 257.035C466.069 258.202 466.61 259.538 466.861 260.949C467.111 262.36 467.063 263.811 466.722 265.2C466.38 266.59 465.753 267.884 464.883 268.991L465.251 269.309L464.882 268.993C463.43 270.868 461.374 272.118 459.103 272.506C456.832 272.894 454.505 272.394 452.562 271.1C450.619 269.806 449.195 267.809 448.56 265.486C447.926 263.163 448.124 260.676 449.119 258.497L449.198 258.322L449.145 258.136L412.777 131.614L431.486 123.158L462.032 253.877Z" stroke="url(#paint5_linear)"/>
<path d="M424.8 5.61278L425.007 5.58781L425.129 5.41104C426.023 4.12652 427.174 3.06341 428.501 2.29663C429.827 1.52984 431.299 1.07804 432.809 0.972985C434.32 0.867935 435.835 1.11222 437.246 1.68864C438.658 2.26505 439.932 3.15957 440.979 4.3092L441.323 3.96358L440.981 4.31153C442.756 6.23553 443.797 8.77659 443.907 11.4532C444.018 14.1299 443.19 16.7561 441.58 18.8343C439.971 20.9125 437.692 22.2983 435.175 22.729C432.658 23.1597 430.077 22.6055 427.923 21.1714L427.765 21.066L427.581 21.1022L384.781 29.5172L377.93 11.2656L424.8 5.61278Z" fill="#A0616A"/>
<path d="M424.8 5.61278L425.007 5.58781L425.129 5.41104C426.023 4.12652 427.174 3.06341 428.501 2.29663C429.827 1.52984 431.299 1.07804 432.809 0.972985C434.32 0.867935 435.835 1.11222 437.246 1.68864C438.658 2.26505 439.932 3.15957 440.979 4.3092L441.323 3.96358L440.981 4.31153C442.756 6.23553 443.797 8.77659 443.907 11.4532C444.018 14.1299 443.19 16.7561 441.58 18.8343C439.971 20.9125 437.692 22.2983 435.175 22.729C432.658 23.1597 430.077 22.6055 427.923 21.1714L427.765 21.066L427.581 21.1022L384.781 29.5172L377.93 11.2656L424.8 5.61278Z" stroke="black"/>
<path d="M424.8 5.61278L425.007 5.58781L425.129 5.41104C426.023 4.12652 427.174 3.06341 428.501 2.29663C429.827 1.52984 431.299 1.07804 432.809 0.972985C434.32 0.867935 435.835 1.11222 437.246 1.68864C438.658 2.26505 439.932 3.15957 440.979 4.3092L441.323 3.96358L440.981 4.31153C442.756 6.23553 443.797 8.77659 443.907 11.4532C444.018 14.1299 443.19 16.7561 441.58 18.8343C439.971 20.9125 437.692 22.2983 435.175 22.729C432.658 23.1597 430.077 22.6055 427.923 21.1714L427.765 21.066L427.581 21.1022L384.781 29.5172L377.93 11.2656L424.8 5.61278Z" stroke="url(#paint6_linear)"/>
<path d="M363.592 256.025L402.005 241.261C402.039 241.291 402.077 241.325 402.119 241.362C402.329 241.548 402.638 241.822 403.026 242.178C403.802 242.888 404.898 243.921 406.173 245.204C408.724 247.773 411.986 251.342 414.845 255.35C417.707 259.364 420.139 263.784 421.068 268.057C421.991 272.307 421.427 276.383 418.337 279.821C416.635 281.715 415.26 285.256 414.128 289.887C412.991 294.544 412.078 300.393 411.348 306.99C409.888 320.184 409.153 336.42 408.82 352.195C408.488 367.972 408.56 383.299 408.714 394.681C408.791 400.373 408.888 405.078 408.967 408.361C409.006 410.003 409.04 411.289 409.065 412.164C409.077 412.554 409.085 412.862 409.092 413.084L384.195 418.469L363.592 256.025Z" fill="#2F2E41"/>
<path d="M363.592 256.025L402.005 241.261C402.039 241.291 402.077 241.325 402.119 241.362C402.329 241.548 402.638 241.822 403.026 242.178C403.802 242.888 404.898 243.921 406.173 245.204C408.724 247.773 411.986 251.342 414.845 255.35C417.707 259.364 420.139 263.784 421.068 268.057C421.991 272.307 421.427 276.383 418.337 279.821C416.635 281.715 415.26 285.256 414.128 289.887C412.991 294.544 412.078 300.393 411.348 306.99C409.888 320.184 409.153 336.42 408.82 352.195C408.488 367.972 408.56 383.299 408.714 394.681C408.791 400.373 408.888 405.078 408.967 408.361C409.006 410.003 409.04 411.289 409.065 412.164C409.077 412.554 409.085 412.862 409.092 413.084L384.195 418.469L363.592 256.025Z" stroke="black"/>
<path d="M363.592 256.025L402.005 241.261C402.039 241.291 402.077 241.325 402.119 241.362C402.329 241.548 402.638 241.822 403.026 242.178C403.802 242.888 404.898 243.921 406.173 245.204C408.724 247.773 411.986 251.342 414.845 255.35C417.707 259.364 420.139 263.784 421.068 268.057C421.991 272.307 421.427 276.383 418.337 279.821C416.635 281.715 415.26 285.256 414.128 289.887C412.991 294.544 412.078 300.393 411.348 306.99C409.888 320.184 409.153 336.42 408.82 352.195C408.488 367.972 408.56 383.299 408.714 394.681C408.791 400.373 408.888 405.078 408.967 408.361C409.006 410.003 409.04 411.289 409.065 412.164C409.077 412.554 409.085 412.862 409.092 413.084L384.195 418.469L363.592 256.025Z" stroke="url(#paint7_linear)"/>
<path d="M52.4877 355.382L53.4377 355.335C53.4377 353.653 53.2758 351.943 52.9788 350.221L49.4749 311.31C49.7024 311.691 49.9594 312.137 50.2402 312.645C51.3206 314.597 52.7504 317.467 54.1449 321.129C56.934 328.453 59.5765 338.939 58.9891 351.584C58.3999 364.277 56.2581 370.699 54.3191 373.933C53.3529 375.545 52.4401 376.36 51.7966 376.771C51.5481 376.929 51.3387 377.029 51.1779 377.092L31.0223 313.192C31.5973 313.841 32.3198 314.673 33.1498 315.664C35.304 318.236 38.1749 321.871 41.0449 326.123C45.8396 333.227 50.5829 341.983 52.0346 350.354L52.4877 355.382Z" fill="#E6E6E6"/>
<path d="M52.4877 355.382L53.4377 355.335C53.4377 353.653 53.2758 351.943 52.9788 350.221L49.4749 311.31C49.7024 311.691 49.9594 312.137 50.2402 312.645C51.3206 314.597 52.7504 317.467 54.1449 321.129C56.934 328.453 59.5765 338.939 58.9891 351.584C58.3999 364.277 56.2581 370.699 54.3191 373.933C53.3529 375.545 52.4401 376.36 51.7966 376.771C51.5481 376.929 51.3387 377.029 51.1779 377.092L31.0223 313.192C31.5973 313.841 32.3198 314.673 33.1498 315.664C35.304 318.236 38.1749 321.871 41.0449 326.123C45.8396 333.227 50.5829 341.983 52.0346 350.354L52.4877 355.382Z" stroke="black"/>
<path d="M52.4877 355.382L53.4377 355.335C53.4377 353.653 53.2758 351.943 52.9788 350.221L49.4749 311.31C49.7024 311.691 49.9594 312.137 50.2402 312.645C51.3206 314.597 52.7504 317.467 54.1449 321.129C56.934 328.453 59.5765 338.939 58.9891 351.584C58.3999 364.277 56.2581 370.699 54.3191 373.933C53.3529 375.545 52.4401 376.36 51.7966 376.771C51.5481 376.929 51.3387 377.029 51.1779 377.092L31.0223 313.192C31.5973 313.841 32.3198 314.673 33.1498 315.664C35.304 318.236 38.1749 321.871 41.0449 326.123C45.8396 333.227 50.5829 341.983 52.0346 350.354L52.4877 355.382Z" stroke="url(#paint8_linear)"/>
<path d="M372.032 210.97L372.056 210.933L372.073 210.892L378.748 194.711L423.538 209.071L423.552 209.296C423.575 209.668 423.608 210.214 423.65 210.912C423.734 212.308 423.851 214.31 423.984 216.732C424.252 221.576 424.584 228.1 424.845 234.823C425.106 241.547 425.296 248.464 425.278 254.096C425.269 256.912 425.209 259.401 425.081 261.38C424.95 263.381 424.753 264.799 424.497 265.518C424.373 265.866 424.246 266.228 424.115 266.601C421.838 273.097 418.331 283.099 405.685 286.051C404.085 286.425 401.555 286.216 398.288 285.51C395.041 284.808 391.131 283.63 386.81 282.121C378.168 279.104 367.915 274.78 358.079 270.352C348.244 265.925 338.835 261.398 331.883 257.977C328.408 256.267 325.547 254.833 323.556 253.828C322.56 253.325 321.782 252.929 321.252 252.659C320.988 252.523 320.786 252.42 320.649 252.35L320.496 252.271L320.457 252.251L320.446 252.246L320.444 252.245C320.443 252.244 320.443 252.244 320.234 252.693L320.443 252.244L319.612 251.816L319.765 252.775C319.802 253.012 319.807 253.559 319.766 254.433C319.726 255.288 319.645 256.409 319.528 257.759C319.293 260.458 318.918 264.056 318.445 268.245C317.499 276.621 316.167 287.344 314.811 297.919C313.455 308.494 312.075 318.92 311.035 326.702C310.514 330.593 310.078 333.823 309.773 336.081C309.62 337.209 309.499 338.095 309.417 338.698L309.342 339.255C304.887 339.921 298.137 338.81 292.58 337.205C289.738 336.384 287.244 335.445 285.566 334.571C284.72 334.131 284.116 333.726 283.775 333.384C283.603 333.212 283.532 333.088 283.509 333.019C283.496 332.981 283.5 332.977 283.504 332.973C283.505 332.972 283.505 332.971 283.506 332.97C283.644 332.754 283.765 332.415 283.88 332.016C283.999 331.6 284.125 331.066 284.256 330.422C284.52 329.132 284.809 327.373 285.114 325.178C285.722 320.788 286.389 314.634 287.009 306.964C288.248 291.623 289.297 270.207 289.297 244.693C289.297 232.09 293.812 224.71 300.512 220.642C307.258 216.547 316.301 215.757 325.429 216.567C334.545 217.375 343.671 219.77 350.526 221.968C353.952 223.067 356.806 224.114 358.804 224.887C359.802 225.273 360.586 225.591 361.12 225.811C361.387 225.922 361.591 226.008 361.728 226.066C361.798 226.096 361.849 226.118 361.883 226.133L361.922 226.149L361.932 226.154L361.934 226.155C361.935 226.155 361.935 226.155 362.117 225.693L361.935 226.155L362.296 226.313L362.513 225.97L372.032 210.97Z" fill="#2F2E41"/>
<path d="M372.032 210.97L372.056 210.933L372.073 210.892L378.748 194.711L423.538 209.071L423.552 209.296C423.575 209.668 423.608 210.214 423.65 210.912C423.734 212.308 423.851 214.31 423.984 216.732C424.252 221.576 424.584 228.1 424.845 234.823C425.106 241.547 425.296 248.464 425.278 254.096C425.269 256.912 425.209 259.401 425.081 261.38C424.95 263.381 424.753 264.799 424.497 265.518C424.373 265.866 424.246 266.228 424.115 266.601C421.838 273.097 418.331 283.099 405.685 286.051C404.085 286.425 401.555 286.216 398.288 285.51C395.041 284.808 391.131 283.63 386.81 282.121C378.168 279.104 367.915 274.78 358.079 270.352C348.244 265.925 338.835 261.398 331.883 257.977C328.408 256.267 325.547 254.833 323.556 253.828C322.56 253.325 321.782 252.929 321.252 252.659C320.988 252.523 320.786 252.42 320.649 252.35L320.496 252.271L320.457 252.251L320.446 252.246L320.444 252.245C320.443 252.244 320.443 252.244 320.234 252.693L320.443 252.244L319.612 251.816L319.765 252.775C319.802 253.012 319.807 253.559 319.766 254.433C319.726 255.288 319.645 256.409 319.528 257.759C319.293 260.458 318.918 264.056 318.445 268.245C317.499 276.621 316.167 287.344 314.811 297.919C313.455 308.494 312.075 318.92 311.035 326.702C310.514 330.593 310.078 333.823 309.773 336.081C309.62 337.209 309.499 338.095 309.417 338.698L309.342 339.255C304.887 339.921 298.137 338.81 292.58 337.205C289.738 336.384 287.244 335.445 285.566 334.571C284.72 334.131 284.116 333.726 283.775 333.384C283.603 333.212 283.532 333.088 283.509 333.019C283.496 332.981 283.5 332.977 283.504 332.973C283.505 332.972 283.505 332.971 283.506 332.97C283.644 332.754 283.765 332.415 283.88 332.016C283.999 331.6 284.125 331.066 284.256 330.422C284.52 329.132 284.809 327.373 285.114 325.178C285.722 320.788 286.389 314.634 287.009 306.964C288.248 291.623 289.297 270.207 289.297 244.693C289.297 232.09 293.812 224.71 300.512 220.642C307.258 216.547 316.301 215.757 325.429 216.567C334.545 217.375 343.671 219.77 350.526 221.968C353.952 223.067 356.806 224.114 358.804 224.887C359.802 225.273 360.586 225.591 361.12 225.811C361.387 225.922 361.591 226.008 361.728 226.066C361.798 226.096 361.849 226.118 361.883 226.133L361.922 226.149L361.932 226.154L361.934 226.155C361.935 226.155 361.935 226.155 362.117 225.693L361.935 226.155L362.296 226.313L362.513 225.97L372.032 210.97Z" stroke="black"/>
<path d="M372.032 210.97L372.056 210.933L372.073 210.892L378.748 194.711L423.538 209.071L423.552 209.296C423.575 209.668 423.608 210.214 423.65 210.912C423.734 212.308 423.851 214.31 423.984 216.732C424.252 221.576 424.584 228.1 424.845 234.823C425.106 241.547 425.296 248.464 425.278 254.096C425.269 256.912 425.209 259.401 425.081 261.38C424.95 263.381 424.753 264.799 424.497 265.518C424.373 265.866 424.246 266.228 424.115 266.601C421.838 273.097 418.331 283.099 405.685 286.051C404.085 286.425 401.555 286.216 398.288 285.51C395.041 284.808 391.131 283.63 386.81 282.121C378.168 279.104 367.915 274.78 358.079 270.352C348.244 265.925 338.835 261.398 331.883 257.977C328.408 256.267 325.547 254.833 323.556 253.828C322.56 253.325 321.782 252.929 321.252 252.659C320.988 252.523 320.786 252.42 320.649 252.35L320.496 252.271L320.457 252.251L320.446 252.246L320.444 252.245C320.443 252.244 320.443 252.244 320.234 252.693L320.443 252.244L319.612 251.816L319.765 252.775C319.802 253.012 319.807 253.559 319.766 254.433C319.726 255.288 319.645 256.409 319.528 257.759C319.293 260.458 318.918 264.056 318.445 268.245C317.499 276.621 316.167 287.344 314.811 297.919C313.455 308.494 312.075 318.92 311.035 326.702C310.514 330.593 310.078 333.823 309.773 336.081C309.62 337.209 309.499 338.095 309.417 338.698L309.342 339.255C304.887 339.921 298.137 338.81 292.58 337.205C289.738 336.384 287.244 335.445 285.566 334.571C284.72 334.131 284.116 333.726 283.775 333.384C283.603 333.212 283.532 333.088 283.509 333.019C283.496 332.981 283.5 332.977 283.504 332.973C283.505 332.972 283.505 332.971 283.506 332.97C283.644 332.754 283.765 332.415 283.88 332.016C283.999 331.6 284.125 331.066 284.256 330.422C284.52 329.132 284.809 327.373 285.114 325.178C285.722 320.788 286.389 314.634 287.009 306.964C288.248 291.623 289.297 270.207 289.297 244.693C289.297 232.09 293.812 224.71 300.512 220.642C307.258 216.547 316.301 215.757 325.429 216.567C334.545 217.375 343.671 219.77 350.526 221.968C353.952 223.067 356.806 224.114 358.804 224.887C359.802 225.273 360.586 225.591 361.12 225.811C361.387 225.922 361.591 226.008 361.728 226.066C361.798 226.096 361.849 226.118 361.883 226.133L361.922 226.149L361.932 226.154L361.934 226.155C361.935 226.155 361.935 226.155 362.117 225.693L361.935 226.155L362.296 226.313L362.513 225.97L372.032 210.97Z" stroke="url(#paint9_linear)"/>
<path d="M392.007 106.664L373.013 119.967L370.616 116.946L370.556 116.804C370.5 116.668 370.415 116.466 370.306 116.202C370.087 115.672 369.767 114.892 369.363 113.893C368.557 111.894 367.418 109.016 366.088 105.502C363.428 98.4719 360.007 88.8999 356.96 78.7253C353.911 68.5473 351.241 57.7835 350.076 48.366C349.493 43.6573 349.29 39.2999 349.597 35.5286C349.906 31.7525 350.723 28.6011 352.157 26.2735C355.065 21.552 360.455 17.7893 367.012 14.8284C373.557 11.8727 381.203 9.74341 388.544 8.25074C395.883 6.75857 402.902 5.90576 408.186 5.49725C410.827 5.29297 413.031 5.20014 414.62 5.19351C415.416 5.1902 416.051 5.20853 416.508 5.24419C416.736 5.26208 416.912 5.28369 417.036 5.30695C417.095 5.31807 417.132 5.32781 417.153 5.33373C417.162 5.34927 417.174 5.37711 417.188 5.42346C417.22 5.53534 417.244 5.70586 417.25 5.94759C417.261 6.43008 417.199 7.09345 417.085 7.91656C416.972 8.73455 416.812 9.68261 416.635 10.728L416.624 10.7878C416.45 11.8138 416.261 12.9281 416.088 14.0862C415.737 16.4449 415.449 19.0059 415.492 21.417C415.53 23.5635 415.831 25.6325 416.614 27.3443C416.328 27.4094 415.949 27.496 415.487 27.6017C414.379 27.8553 412.791 28.2188 410.878 28.6586C407.052 29.5382 401.922 30.7229 396.708 31.9432C391.493 33.1635 386.193 34.4197 382.025 35.4423C379.942 35.9536 378.14 36.4069 376.773 36.7683C375.423 37.1252 374.459 37.4023 374.083 37.5602C373.832 37.6658 373.693 37.8831 373.628 38.0949C373.567 38.2945 373.558 38.5174 373.573 38.7322C373.6 39.1656 373.73 39.7233 373.926 40.3644C374.322 41.6569 375.033 43.4197 375.951 45.4791C377.79 49.6043 380.495 54.9891 383.279 60.3291C386.064 65.6712 388.934 70.9767 391.108 74.9463C392.195 76.9312 393.107 78.5823 393.748 79.7373C394.069 80.3149 394.321 80.7684 394.493 81.0776L394.678 81.4082L392.007 106.664Z" fill="#CCCCCC"/>
<path d="M392.007 106.664L373.013 119.967L370.616 116.946L370.556 116.804C370.5 116.668 370.415 116.466 370.306 116.202C370.087 115.672 369.767 114.892 369.363 113.893C368.557 111.894 367.418 109.016 366.088 105.502C363.428 98.4719 360.007 88.8999 356.96 78.7253C353.911 68.5473 351.241 57.7835 350.076 48.366C349.493 43.6573 349.29 39.2999 349.597 35.5286C349.906 31.7525 350.723 28.6011 352.157 26.2735C355.065 21.552 360.455 17.7893 367.012 14.8284C373.557 11.8727 381.203 9.74341 388.544 8.25074C395.883 6.75857 402.902 5.90576 408.186 5.49725C410.827 5.29297 413.031 5.20014 414.62 5.19351C415.416 5.1902 416.051 5.20853 416.508 5.24419C416.736 5.26208 416.912 5.28369 417.036 5.30695C417.095 5.31807 417.132 5.32781 417.153 5.33373C417.162 5.34927 417.174 5.37711 417.188 5.42346C417.22 5.53534 417.244 5.70586 417.25 5.94759C417.261 6.43008 417.199 7.09345 417.085 7.91656C416.972 8.73455 416.812 9.68261 416.635 10.728L416.624 10.7878C416.45 11.8138 416.261 12.9281 416.088 14.0862C415.737 16.4449 415.449 19.0059 415.492 21.417C415.53 23.5635 415.831 25.6325 416.614 27.3443C416.328 27.4094 415.949 27.496 415.487 27.6017C414.379 27.8553 412.791 28.2188 410.878 28.6586C407.052 29.5382 401.922 30.7229 396.708 31.9432C391.493 33.1635 386.193 34.4197 382.025 35.4423C379.942 35.9536 378.14 36.4069 376.773 36.7683C375.423 37.1252 374.459 37.4023 374.083 37.5602C373.832 37.6658 373.693 37.8831 373.628 38.0949C373.567 38.2945 373.558 38.5174 373.573 38.7322C373.6 39.1656 373.73 39.7233 373.926 40.3644C374.322 41.6569 375.033 43.4197 375.951 45.4791C377.79 49.6043 380.495 54.9891 383.279 60.3291C386.064 65.6712 388.934 70.9767 391.108 74.9463C392.195 76.9312 393.107 78.5823 393.748 79.7373C394.069 80.3149 394.321 80.7684 394.493 81.0776L394.678 81.4082L392.007 106.664Z" stroke="black"/>
<path d="M392.007 106.664L373.013 119.967L370.616 116.946L370.556 116.804C370.5 116.668 370.415 116.466 370.306 116.202C370.087 115.672 369.767 114.892 369.363 113.893C368.557 111.894 367.418 109.016 366.088 105.502C363.428 98.4719 360.007 88.8999 356.96 78.7253C353.911 68.5473 351.241 57.7835 350.076 48.366C349.493 43.6573 349.29 39.2999 349.597 35.5286C349.906 31.7525 350.723 28.6011 352.157 26.2735C355.065 21.552 360.455 17.7893 367.012 14.8284C373.557 11.8727 381.203 9.74341 388.544 8.25074C395.883 6.75857 402.902 5.90576 408.186 5.49725C410.827 5.29297 413.031 5.20014 414.62 5.19351C415.416 5.1902 416.051 5.20853 416.508 5.24419C416.736 5.26208 416.912 5.28369 417.036 5.30695C417.095 5.31807 417.132 5.32781 417.153 5.33373C417.162 5.34927 417.174 5.37711 417.188 5.42346C417.22 5.53534 417.244 5.70586 417.25 5.94759C417.261 6.43008 417.199 7.09345 417.085 7.91656C416.972 8.73455 416.812 9.68261 416.635 10.728L416.624 10.7878C416.45 11.8138 416.261 12.9281 416.088 14.0862C415.737 16.4449 415.449 19.0059 415.492 21.417C415.53 23.5635 415.831 25.6325 416.614 27.3443C416.328 27.4094 415.949 27.496 415.487 27.6017C414.379 27.8553 412.791 28.2188 410.878 28.6586C407.052 29.5382 401.922 30.7229 396.708 31.9432C391.493 33.1635 386.193 34.4197 382.025 35.4423C379.942 35.9536 378.14 36.4069 376.773 36.7683C375.423 37.1252 374.459 37.4023 374.083 37.5602C373.832 37.6658 373.693 37.8831 373.628 38.0949C373.567 38.2945 373.558 38.5174 373.573 38.7322C373.6 39.1656 373.73 39.7233 373.926 40.3644C374.322 41.6569 375.033 43.4197 375.951 45.4791C377.79 49.6043 380.495 54.9891 383.279 60.3291C386.064 65.6712 388.934 70.9767 391.108 74.9463C392.195 76.9312 393.107 78.5823 393.748 79.7373C394.069 80.3149 394.321 80.7684 394.493 81.0776L394.678 81.4082L392.007 106.664Z" stroke="url(#paint10_linear)"/>
<path d="M453.819 122.849C453.821 122.855 453.822 122.861 453.823 122.867L453.799 122.932L453.576 123.523C453.381 124.041 453.094 124.801 452.729 125.768C451.999 127.703 450.954 130.469 449.695 133.791C447.177 140.435 443.803 149.306 440.378 158.212C436.953 167.119 433.478 176.059 430.757 182.843C429.397 186.235 428.227 189.085 427.346 191.121C426.906 192.139 426.541 192.948 426.262 193.518C426.122 193.803 426.007 194.021 425.919 194.172C425.875 194.248 425.841 194.3 425.817 194.333C425.812 194.339 425.809 194.343 425.806 194.347C425.588 194.515 425.463 194.79 425.379 195.025C425.284 195.295 425.206 195.633 425.14 196.017C425.008 196.788 424.913 197.813 424.845 199.004C424.708 201.39 424.674 204.503 424.674 207.71C424.674 209.315 424.683 210.946 424.692 212.525L424.693 212.685C424.7 214.207 424.709 215.677 424.709 217.027C424.709 219.835 424.673 222.08 424.542 223.182C424.544 223.168 424.551 223.191 424.486 223.249C424.416 223.311 424.289 223.388 424.081 223.467C423.668 223.624 423.041 223.749 422.203 223.833C420.537 224.001 418.161 223.999 415.287 223.873C409.546 223.621 401.9 222.876 394.157 222.04C391.101 221.71 388.03 221.366 385.056 221.033C380.501 220.523 376.173 220.039 372.485 219.67C369.435 219.365 366.81 219.139 364.844 219.042C363.861 218.994 363.034 218.978 362.396 219.002C362.078 219.013 361.798 219.036 361.565 219.071C361.465 219.086 361.364 219.105 361.267 219.13C361.247 219.038 361.224 218.915 361.202 218.755C361.118 218.125 361.083 217.125 361.095 215.785C361.12 213.118 361.332 209.202 361.68 204.44C362.374 194.921 363.605 182.064 364.939 169.148C366.273 156.233 367.708 143.265 368.809 133.524C369.361 128.654 369.828 124.592 370.158 121.746C370.323 120.324 370.453 119.205 370.543 118.443L370.645 117.572L370.665 117.402L394.812 82.6593C394.88 83.3392 394.978 84.2084 395.106 85.0796C395.243 86.0122 395.416 86.9676 395.63 87.6981C395.736 88.0597 395.86 88.3964 396.01 88.6526C396.14 88.874 396.391 89.209 396.797 89.209C396.964 89.209 397.559 89.1511 398.416 89.0595C399.293 88.9658 400.486 88.832 401.885 88.6716C404.685 88.3509 408.314 87.9232 411.909 87.4957C415.505 87.0681 419.066 86.6405 421.728 86.3198C423.059 86.1595 424.166 86.0258 424.94 85.9323L425.838 85.8237L425.851 85.822C425.898 85.9005 425.953 85.9946 426.018 86.1034C426.232 86.4604 426.546 86.9749 426.951 87.6078C427.763 88.8731 428.942 90.6135 430.411 92.5157C433.342 96.3104 437.459 100.79 442.156 103.403C446.627 105.889 449.555 110.751 451.372 115.063C452.277 117.21 452.897 119.2 453.291 120.654C453.488 121.38 453.628 121.971 453.719 122.38C453.764 122.584 453.798 122.742 453.819 122.849ZM361.334 219.331C361.334 219.331 361.333 219.33 361.331 219.327C361.333 219.33 361.334 219.331 361.334 219.331Z" fill="#CCCCCC"/>
<path d="M453.819 122.849C453.821 122.855 453.822 122.861 453.823 122.867L453.799 122.932L453.576 123.523C453.381 124.041 453.094 124.801 452.729 125.768C451.999 127.703 450.954 130.469 449.695 133.791C447.177 140.435 443.803 149.306 440.378 158.212C436.953 167.119 433.478 176.059 430.757 182.843C429.397 186.235 428.227 189.085 427.346 191.121C426.906 192.139 426.541 192.948 426.262 193.518C426.122 193.803 426.007 194.021 425.919 194.172C425.875 194.248 425.841 194.3 425.817 194.333C425.812 194.339 425.809 194.343 425.806 194.347C425.588 194.515 425.463 194.79 425.379 195.025C425.284 195.295 425.206 195.633 425.14 196.017C425.008 196.788 424.913 197.813 424.845 199.004C424.708 201.39 424.674 204.503 424.674 207.71C424.674 209.315 424.683 210.946 424.692 212.525L424.693 212.685C424.7 214.207 424.709 215.677 424.709 217.027C424.709 219.835 424.673 222.08 424.542 223.182C424.544 223.168 424.551 223.191 424.486 223.249C424.416 223.311 424.289 223.388 424.081 223.467C423.668 223.624 423.041 223.749 422.203 223.833C420.537 224.001 418.161 223.999 415.287 223.873C409.546 223.621 401.9 222.876 394.157 222.04C391.101 221.71 388.03 221.366 385.056 221.033C380.501 220.523 376.173 220.039 372.485 219.67C369.435 219.365 366.81 219.139 364.844 219.042C363.861 218.994 363.034 218.978 362.396 219.002C362.078 219.013 361.798 219.036 361.565 219.071C361.465 219.086 361.364 219.105 361.267 219.13C361.247 219.038 361.224 218.915 361.202 218.755C361.118 218.125 361.083 217.125 361.095 215.785C361.12 213.118 361.332 209.202 361.68 204.44C362.374 194.921 363.605 182.064 364.939 169.148C366.273 156.233 367.708 143.265 368.809 133.524C369.361 128.654 369.828 124.592 370.158 121.746C370.323 120.324 370.453 119.205 370.543 118.443L370.645 117.572L370.665 117.402L394.812 82.6593C394.88 83.3392 394.978 84.2084 395.106 85.0796C395.243 86.0122 395.416 86.9676 395.63 87.6981C395.736 88.0597 395.86 88.3964 396.01 88.6526C396.14 88.874 396.391 89.209 396.797 89.209C396.964 89.209 397.559 89.1511 398.416 89.0595C399.293 88.9658 400.486 88.832 401.885 88.6716C404.685 88.3509 408.314 87.9232 411.909 87.4957C415.505 87.0681 419.066 86.6405 421.728 86.3198C423.059 86.1595 424.166 86.0258 424.94 85.9323L425.838 85.8237L425.851 85.822C425.898 85.9005 425.953 85.9946 426.018 86.1034C426.232 86.4604 426.546 86.9749 426.951 87.6078C427.763 88.8731 428.942 90.6135 430.411 92.5157C433.342 96.3104 437.459 100.79 442.156 103.403C446.627 105.889 449.555 110.751 451.372 115.063C452.277 117.21 452.897 119.2 453.291 120.654C453.488 121.38 453.628 121.971 453.719 122.38C453.764 122.584 453.798 122.742 453.819 122.849ZM361.334 219.331C361.334 219.331 361.333 219.33 361.331 219.327C361.333 219.33 361.334 219.331 361.334 219.331Z" stroke="black"/>
<path d="M453.819 122.849C453.821 122.855 453.822 122.861 453.823 122.867L453.799 122.932L453.576 123.523C453.381 124.041 453.094 124.801 452.729 125.768C451.999 127.703 450.954 130.469 449.695 133.791C447.177 140.435 443.803 149.306 440.378 158.212C436.953 167.119 433.478 176.059 430.757 182.843C429.397 186.235 428.227 189.085 427.346 191.121C426.906 192.139 426.541 192.948 426.262 193.518C426.122 193.803 426.007 194.021 425.919 194.172C425.875 194.248 425.841 194.3 425.817 194.333C425.812 194.339 425.809 194.343 425.806 194.347C425.588 194.515 425.463 194.79 425.379 195.025C425.284 195.295 425.206 195.633 425.14 196.017C425.008 196.788 424.913 197.813 424.845 199.004C424.708 201.39 424.674 204.503 424.674 207.71C424.674 209.315 424.683 210.946 424.692 212.525L424.693 212.685C424.7 214.207 424.709 215.677 424.709 217.027C424.709 219.835 424.673 222.08 424.542 223.182C424.544 223.168 424.551 223.191 424.486 223.249C424.416 223.311 424.289 223.388 424.081 223.467C423.668 223.624 423.041 223.749 422.203 223.833C420.537 224.001 418.161 223.999 415.287 223.873C409.546 223.621 401.9 222.876 394.157 222.04C391.101 221.71 388.03 221.366 385.056 221.033C380.501 220.523 376.173 220.039 372.485 219.67C369.435 219.365 366.81 219.139 364.844 219.042C363.861 218.994 363.034 218.978 362.396 219.002C362.078 219.013 361.798 219.036 361.565 219.071C361.465 219.086 361.364 219.105 361.267 219.13C361.247 219.038 361.224 218.915 361.202 218.755C361.118 218.125 361.083 217.125 361.095 215.785C361.12 213.118 361.332 209.202 361.68 204.44C362.374 194.921 363.605 182.064 364.939 169.148C366.273 156.233 367.708 143.265 368.809 133.524C369.361 128.654 369.828 124.592 370.158 121.746C370.323 120.324 370.453 119.205 370.543 118.443L370.645 117.572L370.665 117.402L394.812 82.6593C394.88 83.3392 394.978 84.2084 395.106 85.0796C395.243 86.0122 395.416 86.9676 395.63 87.6981C395.736 88.0597 395.86 88.3964 396.01 88.6526C396.14 88.874 396.391 89.209 396.797 89.209C396.964 89.209 397.559 89.1511 398.416 89.0595C399.293 88.9658 400.486 88.832 401.885 88.6716C404.685 88.3509 408.314 87.9232 411.909 87.4957C415.505 87.0681 419.066 86.6405 421.728 86.3198C423.059 86.1595 424.166 86.0258 424.94 85.9323L425.838 85.8237L425.851 85.822C425.898 85.9005 425.953 85.9946 426.018 86.1034C426.232 86.4604 426.546 86.9749 426.951 87.6078C427.763 88.8731 428.942 90.6135 430.411 92.5157C433.342 96.3104 437.459 100.79 442.156 103.403C446.627 105.889 449.555 110.751 451.372 115.063C452.277 117.21 452.897 119.2 453.291 120.654C453.488 121.38 453.628 121.971 453.719 122.38C453.764 122.584 453.798 122.742 453.819 122.849ZM361.334 219.331C361.334 219.331 361.333 219.33 361.331 219.327C361.333 219.33 361.334 219.331 361.334 219.331Z" stroke="url(#paint11_linear)"/>
<path d="M426.051 187.903L445.865 114.208L453.863 123.136L453.881 123.292C453.905 123.503 453.941 123.816 453.988 124.224C454.08 125.04 454.216 126.237 454.385 127.763C454.724 130.813 455.2 135.176 455.75 140.421C456.849 150.912 458.24 164.935 459.411 179.064C460.583 193.195 461.533 207.422 461.75 218.326C461.858 223.781 461.783 228.387 461.463 231.729C461.303 233.403 461.084 234.736 460.805 235.694C460.665 236.172 460.515 236.539 460.362 236.801C460.206 237.066 460.068 237.189 459.963 237.239C456.522 238.908 451.364 239.655 447.013 239.977C444.849 240.137 442.902 240.191 441.497 240.205C440.795 240.212 440.227 240.209 439.837 240.205C439.744 240.203 439.66 240.202 439.587 240.201L426.051 187.903Z" fill="#CCCCCC"/>
<path d="M426.051 187.903L445.865 114.208L453.863 123.136L453.881 123.292C453.905 123.503 453.941 123.816 453.988 124.224C454.08 125.04 454.216 126.237 454.385 127.763C454.724 130.813 455.2 135.176 455.75 140.421C456.849 150.912 458.24 164.935 459.411 179.064C460.583 193.195 461.533 207.422 461.75 218.326C461.858 223.781 461.783 228.387 461.463 231.729C461.303 233.403 461.084 234.736 460.805 235.694C460.665 236.172 460.515 236.539 460.362 236.801C460.206 237.066 460.068 237.189 459.963 237.239C456.522 238.908 451.364 239.655 447.013 239.977C444.849 240.137 442.902 240.191 441.497 240.205C440.795 240.212 440.227 240.209 439.837 240.205C439.744 240.203 439.66 240.202 439.587 240.201L426.051 187.903Z" stroke="black"/>
<path d="M426.051 187.903L445.865 114.208L453.863 123.136L453.881 123.292C453.905 123.503 453.941 123.816 453.988 124.224C454.08 125.04 454.216 126.237 454.385 127.763C454.724 130.813 455.2 135.176 455.75 140.421C456.849 150.912 458.24 164.935 459.411 179.064C460.583 193.195 461.533 207.422 461.75 218.326C461.858 223.781 461.783 228.387 461.463 231.729C461.303 233.403 461.084 234.736 460.805 235.694C460.665 236.172 460.515 236.539 460.362 236.801C460.206 237.066 460.068 237.189 459.963 237.239C456.522 238.908 451.364 239.655 447.013 239.977C444.849 240.137 442.902 240.191 441.497 240.205C440.795 240.212 440.227 240.209 439.837 240.205C439.744 240.203 439.66 240.202 439.587 240.201L426.051 187.903Z" stroke="url(#paint12_linear)"/>
<path d="M423.484 51.9976C423.484 66.2127 412.516 77.7364 398.984 77.7364C385.453 77.7364 374.484 66.2127 374.484 51.9976C374.484 37.7824 385.453 26.2588 398.984 26.2588C412.516 26.2588 423.484 37.7824 423.484 51.9976Z" fill="#A0616A"/>
<path d="M423.484 51.9976C423.484 66.2127 412.516 77.7364 398.984 77.7364C385.453 77.7364 374.484 66.2127 374.484 51.9976C374.484 37.7824 385.453 26.2588 398.984 26.2588C412.516 26.2588 423.484 37.7824 423.484 51.9976Z" stroke="black"/>
<path d="M423.484 51.9976C423.484 66.2127 412.516 77.7364 398.984 77.7364C385.453 77.7364 374.484 66.2127 374.484 51.9976C374.484 37.7824 385.453 26.2588 398.984 26.2588C412.516 26.2588 423.484 37.7824 423.484 51.9976Z" stroke="url(#paint13_linear)"/>
<path d="M410.246 82.0814C407.541 82.2841 404.918 82.5732 402.543 83.1343C405.24 78.3394 405.599 72.0274 404.153 66.3168C402.597 60.1678 398.914 54.5913 393.623 52.298L393.031 52.0417L392.968 52.7103L392.889 53.5403C392.685 53.1816 392.441 52.8562 392.163 52.5619C391.346 51.6985 390.254 51.1302 389.047 50.7494C386.644 49.9917 383.642 49.935 381.059 49.9094C380.794 49.9067 380.526 49.9047 380.257 49.9027C377.877 49.8847 375.389 49.866 373.129 49.4083C370.623 48.9009 368.476 47.8683 367.106 45.771C365.298 43.0031 365.614 39.0871 367.167 35.9998C368.724 32.908 371.293 30.5137 373.898 28.1469C380.603 22.0558 387.465 16.0602 395.443 12.1962C403.418 8.33398 412.715 6.79857 420.908 9.86951C423.39 10.8001 426.126 12.7117 428.863 15.263C431.595 17.8098 434.304 20.9723 436.736 24.3737C441.615 31.1966 445.317 38.8962 445.902 44.4453C447.081 55.6458 442.819 67.0952 435.606 75.5014C432.098 79.5885 426.286 80.851 419.887 81.434C418.012 81.6049 416.12 81.7158 414.232 81.8263C412.898 81.9045 411.567 81.9825 410.246 82.0814Z" fill="#2F2E41"/>
<path d="M410.246 82.0814C407.541 82.2841 404.918 82.5732 402.543 83.1343C405.24 78.3394 405.599 72.0274 404.153 66.3168C402.597 60.1678 398.914 54.5913 393.623 52.298L393.031 52.0417L392.968 52.7103L392.889 53.5403C392.685 53.1816 392.441 52.8562 392.163 52.5619C391.346 51.6985 390.254 51.1302 389.047 50.7494C386.644 49.9917 383.642 49.935 381.059 49.9094C380.794 49.9067 380.526 49.9047 380.257 49.9027C377.877 49.8847 375.389 49.866 373.129 49.4083C370.623 48.9009 368.476 47.8683 367.106 45.771C365.298 43.0031 365.614 39.0871 367.167 35.9998C368.724 32.908 371.293 30.5137 373.898 28.1469C380.603 22.0558 387.465 16.0602 395.443 12.1962C403.418 8.33398 412.715 6.79857 420.908 9.86951C423.39 10.8001 426.126 12.7117 428.863 15.263C431.595 17.8098 434.304 20.9723 436.736 24.3737C441.615 31.1966 445.317 38.8962 445.902 44.4453C447.081 55.6458 442.819 67.0952 435.606 75.5014C432.098 79.5885 426.286 80.851 419.887 81.434C418.012 81.6049 416.12 81.7158 414.232 81.8263C412.898 81.9045 411.567 81.9825 410.246 82.0814Z" stroke="black"/>
<path d="M410.246 82.0814C407.541 82.2841 404.918 82.5732 402.543 83.1343C405.24 78.3394 405.599 72.0274 404.153 66.3168C402.597 60.1678 398.914 54.5913 393.623 52.298L393.031 52.0417L392.968 52.7103L392.889 53.5403C392.685 53.1816 392.441 52.8562 392.163 52.5619C391.346 51.6985 390.254 51.1302 389.047 50.7494C386.644 49.9917 383.642 49.935 381.059 49.9094C380.794 49.9067 380.526 49.9047 380.257 49.9027C377.877 49.8847 375.389 49.866 373.129 49.4083C370.623 48.9009 368.476 47.8683 367.106 45.771C365.298 43.0031 365.614 39.0871 367.167 35.9998C368.724 32.908 371.293 30.5137 373.898 28.1469C380.603 22.0558 387.465 16.0602 395.443 12.1962C403.418 8.33398 412.715 6.79857 420.908 9.86951C423.39 10.8001 426.126 12.7117 428.863 15.263C431.595 17.8098 434.304 20.9723 436.736 24.3737C441.615 31.1966 445.317 38.8962 445.902 44.4453C447.081 55.6458 442.819 67.0952 435.606 75.5014C432.098 79.5885 426.286 80.851 419.887 81.434C418.012 81.6049 416.12 81.7158 414.232 81.8263C412.898 81.9045 411.567 81.9825 410.246 82.0814Z" stroke="url(#paint14_linear)"/>
<defs>
<linearGradient id="paint0_linear" x1="195.092" y1="355.301" x2="195.092" y2="440.788" gradientUnits="userSpaceOnUse">
<stop stop-color="white"/>
<stop offset="1" stop-color="white" stop-opacity="0"/>
</linearGradient>
<linearGradient id="paint1_linear" x1="297.48" y1="295.797" x2="297.48" y2="349.322" gradientUnits="userSpaceOnUse">
<stop stop-color="white"/>
<stop offset="1" stop-color="white" stop-opacity="0"/>
</linearGradient>
<linearGradient id="paint2_linear" x1="289.3" y1="345.357" x2="289.3" y2="362.208" gradientUnits="userSpaceOnUse">
<stop stop-color="white"/>
<stop offset="1" stop-color="white" stop-opacity="0"/>
</linearGradient>
<linearGradient id="paint3_linear" x1="394.572" y1="374.797" x2="394.572" y2="428.322" gradientUnits="userSpaceOnUse">
<stop stop-color="white"/>
<stop offset="1" stop-color="white" stop-opacity="0"/>
</linearGradient>
<linearGradient id="paint4_linear" x1="386.394" y1="424.357" x2="386.394" y2="441.208" gradientUnits="userSpaceOnUse">
<stop stop-color="white"/>
<stop offset="1" stop-color="white" stop-opacity="0"/>
</linearGradient>
<linearGradient id="paint5_linear" x1="439.847" y1="122.465" x2="439.847" y2="273.134" gradientUnits="userSpaceOnUse">
<stop stop-color="white"/>
<stop offset="1" stop-color="white" stop-opacity="0"/>
</linearGradient>
<linearGradient id="paint6_linear" x1="410.826" y1="0.449234" x2="410.826" y2="30.0846" gradientUnits="userSpaceOnUse">
<stop stop-color="white"/>
<stop offset="1" stop-color="white" stop-opacity="0"/>
</linearGradient>
<linearGradient id="paint7_linear" x1="392.508" y1="240.693" x2="392.508" y2="419.067" gradientUnits="userSpaceOnUse">
<stop stop-color="white"/>
<stop offset="1" stop-color="white" stop-opacity="0"/>
</linearGradient>
<linearGradient id="paint8_linear" x1="44.7259" y1="309.376" x2="44.7259" y2="377.693" gradientUnits="userSpaceOnUse">
<stop stop-color="white"/>
<stop offset="1" stop-color="white" stop-opacity="0"/>
</linearGradient>
<linearGradient id="paint9_linear" x1="354.39" y1="194.103" x2="354.39" y2="339.952" gradientUnits="userSpaceOnUse">
<stop stop-color="white"/>
<stop offset="1" stop-color="white" stop-opacity="0"/>
</linearGradient>
<linearGradient id="paint10_linear" x1="383.352" y1="4.69313" x2="383.352" y2="120.633" gradientUnits="userSpaceOnUse">
<stop stop-color="white"/>
<stop offset="1" stop-color="white" stop-opacity="0"/>
</linearGradient>
<linearGradient id="paint11_linear" x1="407.467" y1="81.2982" x2="407.467" y2="224.464" gradientUnits="userSpaceOnUse">
<stop stop-color="white"/>
<stop offset="1" stop-color="white" stop-opacity="0"/>
</linearGradient>
<linearGradient id="paint12_linear" x1="443.915" y1="113.222" x2="443.915" y2="240.709" gradientUnits="userSpaceOnUse">
<stop stop-color="white"/>
<stop offset="1" stop-color="white" stop-opacity="0"/>
</linearGradient>
<linearGradient id="paint13_linear" x1="398.985" y1="25.7588" x2="398.985" y2="78.2364" gradientUnits="userSpaceOnUse">
<stop stop-color="white"/>
<stop offset="1" stop-color="white" stop-opacity="0"/>
</linearGradient>
<linearGradient id="paint14_linear" x1="405.985" y1="7.73686" x2="405.985" y2="83.9242" gradientUnits="userSpaceOnUse">
<stop stop-color="white"/>
<stop offset="1" stop-color="white" stop-opacity="0"/>
</linearGradient>
</defs>
</svg>
