<?xml version="1.0" encoding="utf-8"?>
<!-- Generator: Adobe Illustrator 22.0.1, SVG Export Plug-In . SVG Version: 6.00 Build 0)  -->
<svg version="1.1" id="Layer_1" xmlns="http://www.w3.org/2000/svg" xmlns:xlink="http://www.w3.org/1999/xlink" x="0px" y="0px"
	 width="1200px" height="1200px" viewBox="0 0 1200 1200" style="enable-background:new 0 0 1200 1200;" xml:space="preserve">
<style type="text/css">
	.st0{fill:#FFF22F;}
</style>
<path class="st0" d="M741.9,503.5c0,109.1-90.8,197.5-202.9,197.5s-202.9-88.4-202.9-197.5S427,306,539,306S741.9,394.5,741.9,503.5
	z M448.8,265.2c1.5,4.4,5.4,7.2,10.1,7.2c0,0,0,0,0,0c3.6,0,6.9-1.6,8.8-4.4c1.8-2.6,2.2-5.7,1.1-8.9
	c-10.3-29.4-21.8-59.1-34.3-88.3c-1.6-3.7-4.8-5.9-8.6-5.9c-3.6,0-7.1,2-9.2,5.1c-2,3.1-2.4,6.8-0.9,10.2
	C427.6,207.7,438.7,236.3,448.8,265.2z M325.6,321c6.7,6.4,14.9,14.3,26.3,17.9c0.9,0.3,1.9,0.5,2.8,0.5c4.1,0,7.6-3,8.2-7.2
	c0.7-4.3-1.8-8.2-6-9.5c-7.5-2.4-13.5-8.3-19.3-14c-1-1-2.1-2.1-3.1-3l-75.4-72c-1.7-1.6-3.8-2.4-6-2.4c-3.6,0-7,2.3-8.4,5.7
	c-1.3,3.1-0.5,6.6,2,9L325.6,321z M174,412.9c34.4,16.4,72.6,25.1,110.5,25.1c0,0,0,0,0,0c2.3,0,4.5,0,6.8-0.1
	c5.2-0.1,9.1-4.3,9.1-9.6c-0.1-5.2-4-9.1-9-9.1l-0.3,0c-2.1,0.1-4.3,0.1-6.4,0.1c-35.2,0-70.4-7.9-101.8-22.9c-1.3-0.6-2.7-1-4.2-1
	c-4.5,0-8.4,3.2-9.5,7.7C168.2,407.3,170.1,411.1,174,412.9z M291,566.3c0,0,0.3,0,0.3,0c5.1,0,9-3.9,9.1-9.1
	c0.1-5.3-3.8-9.5-9.1-9.6c-5.4-0.1-10.9-0.2-16.3-0.2c-33.2,0-66.9,2.6-100.2,7.9c-4.7,0.7-7.7,4.5-7.3,9.2c0.4,4.5,4.1,9.2,9.7,9.2
	c0.5,0,1,0,1.6-0.1c31.4-4.9,63.7-7.4,95.9-7.4C280.1,566.1,285.6,566.2,291,566.3z M460.9,735c-4.1,0-7.6,2.4-9,6.2
	c-13.2,35-27.7,69.9-42.9,103.8c-1.4,3-1.1,6.4,0.7,9.2c1.8,2.8,5,4.6,8.2,4.6c0,0,0,0,0,0c3.4,0,6.3-1.9,7.7-5.2
	c15.7-35,30.6-70.8,44.1-106.5c1.1-2.8,0.8-5.7-0.8-8C467.1,736.6,464.1,735,460.9,735z M631.4,726.5c-0.8-3.9-4.2-6.6-8.5-6.6
	c-3.1,0-6.2,1.4-8.1,3.7c-1.6,2-2.2,4.4-1.7,6.9c9.3,46.2,21.2,92.4,35.4,137.3c1.2,3.6,4.6,6,8.7,6c0,0,0,0,0,0
	c3.3,0,6.5-1.5,8.2-3.9c1.5-2,1.9-4.6,1.1-7.1C652.5,818.3,640.7,772.4,631.4,726.5z M933.6,501.7c-0.1,0-0.2,0-0.3,0
	c-29.2,1-58.9,1.5-88.1,1.5c-16.8,0-33.9-0.2-50.7-0.5c0,0-0.1,0-0.2,0c-4.7,0-8.2,3.9-8.3,9.2c-0.1,5.3,3.5,9.5,8.3,9.6
	c16.9,0.3,34,0.5,50.9,0.5c0,0,0,0,0,0c29.4,0,59.1-0.5,88.5-1.5c4.8-0.2,8.3-4.3,8.2-9.7C941.7,505.5,938.3,501.7,933.6,501.7z
	 M868.2,276.5c-1.2-4.1-4.9-7-9-7c-1.8,0-3.5,0.5-5.1,1.6c-37.2,24.3-74.4,49.5-110.8,75c-3.4,2.4-4.8,6.5-3.6,10.4
	c1.3,4,4.9,6.8,8.8,6.8c0,0,0,0,0,0c1.8,0,3.6-0.6,5.2-1.7c36.3-25.4,73.4-50.6,110.5-74.8C867.9,284.4,869.4,280.4,868.2,276.5z
	 M629.2,261.8C629.2,261.8,629.2,261.8,629.2,261.8c4.4,0,8-2.9,8.9-7.1l22-95.9c0.6-2.8,0.1-5.6-1.7-7.7c-1.8-2.3-4.7-3.6-7.7-3.6
	c-4.4,0-8,2.9-8.9,7.1l-22,95.9c-0.6,2.8-0.1,5.6,1.7,7.7C623.3,260.4,626.2,261.8,629.2,261.8z M874.5,703.3l-104.1-50.6
	c-1.6-0.8-3.2-1.1-4.8-1.1c-4.3,0-8.1,3-9,7.2c-1,4.4,1.3,8.7,5.6,10.8l104.1,50.6c1.6,0.8,3.2,1.1,4.7,1.1c4.3,0,8.1-3,9-7.2
	C881.1,709.8,878.8,705.4,874.5,703.3z M338.8,661.1c-4.3-2.1-9.2-1.4-12.6,1.9c-31.9,30.2-65,59.7-98.5,87.7c-3,2.5-4.5,6.2-4,10
	c0.5,3.9,2.8,7.4,6.2,9.1c0,0,0,0,0,0c3.5,1.7,7.6,1.2,10.8-1.5c34.5-28.9,68.5-59.2,101.1-90c2.6-2.4,3.7-5.7,3.3-8.9
	C344.6,665.9,342.2,662.8,338.8,661.1z"/>
<path d="M497.8,443.8c-3.1-14.9-10.4-33.5-27.7-35.8c-19.7-2.6-33,15-36.1,32.4c-1.1,6.3-10.8,3.6-9.6-2.7
	c3.9-21.9,21.8-42.2,45.7-39.8c22.3,2.2,33.3,23.5,37.4,43.2C508.7,447.5,499.1,450.1,497.8,443.8z M636.7,399.3
	c-8.2-9-23.1-10.5-34.6-9.7c-24.7,1.7-48.2,19.8-47.4,46.3c0.2,6.4,10.2,6.4,10,0c-0.6-20.8,18-34.9,37.4-36.3
	c8.5-0.6,20.8-0.3,27.1,6.3c6,6.3,6.2,16.5,6.5,24.8c0.2,6.4,10.2,6.4,10,0C645.3,419.8,644.4,407.7,636.7,399.3z M653.3,502.3
	c-6.8,40.7-35.1,76.3-72.9,92.7c-38.6,16.7-84.1,9.6-118-14.5c-21.1-15.1-37.3-37.3-43.5-62.6c-1.5-6.2-11.2-3.6-9.6,2.7
	c11.6,47,53.7,81.9,100.3,91.1c44.6,8.8,89.9-6.7,120.5-40.2c16.9-18.6,28.8-41.6,32.9-66.5C664,498.7,654.3,495.9,653.3,502.3z"/>
</svg>
