<svg width="80" height="99" viewBox="0 0 80 99" fill="none" xmlns="http://www.w3.org/2000/svg">
<path d="M1.47874 99H1.33087C0.739372 99 0.295749 98.6222 0 97.8667V58.5258L0.0739372 19.1848C0.566851 18.4832 1.03512 18.1325 1.47874 18.1325C2.11953 18.1325 2.61245 18.5372 2.95749 19.3467V97.8667C2.56315 98.6222 2.11953 99 1.62662 99H1.47874Z" fill="#4066E0"/>
<path d="M27.135 72.8536C27.135 74.1488 28.2687 74.9043 30.5361 75.1202C31.4234 75.1202 31.867 75.417 31.867 76.0106C31.867 76.0646 31.8177 76.4154 31.7191 77.0629C31.5712 77.8185 31.4234 78.3042 31.2755 78.52C31.1276 78.7359 30.8072 78.8438 30.3143 78.8438C30.2157 78.8438 29.92 78.8438 29.4271 78.8438C28.9341 78.8438 28.0962 78.8168 26.9132 78.7629C25.7302 78.7089 24.1529 78.6819 22.1812 78.6819C18.6815 78.6819 16.4388 78.7359 15.4529 78.8438H14.8614C14.5164 78.4661 14.3439 78.1692 14.3439 77.9534C14.4425 76.4963 14.7628 75.5519 15.3051 75.1202H16.3402C19.7906 74.9583 22.3044 73.6091 23.8818 71.0728C24.1775 70.749 28.6384 62.5192 37.2644 46.3835C45.8904 30.2477 50.2773 22.0719 50.4252 21.8561C50.7702 21.2085 51.3617 20.8847 52.1997 20.8847H52.7912H54.0481C54.3439 21.3704 54.4917 21.6402 54.4917 21.6942L56.562 47.8405C57.9421 65.2714 58.6815 74.0679 58.7801 74.2297C59.0266 74.8234 60.6285 75.1202 63.586 75.1202C64.8183 75.1202 65.4344 75.39 65.4344 75.9297C65.4344 76.0376 65.3605 76.4154 65.2126 77.0629C65.0648 77.8724 64.9415 78.3581 64.8429 78.52C64.7444 78.6819 64.3993 78.7898 63.8078 78.8438C63.66 78.8438 63.3149 78.8438 62.7727 78.8438C62.2305 78.8438 61.2693 78.8168 59.8892 78.7629C58.509 78.7089 56.7099 78.6819 54.4917 78.6819C49.8584 78.6819 46.8269 78.7359 45.3975 78.8438H44.5102C44.2145 78.52 44.0666 78.2772 44.0666 78.1153C44.0666 77.9534 44.1159 77.4677 44.2145 76.6582C44.4116 75.9566 44.5595 75.5249 44.6581 75.363L44.9539 75.1202H46.4326C49.0943 74.9583 50.6717 74.4996 51.1646 73.7441L50.2773 61.6018H32.6803L30.1664 66.2968C28.1455 70.0204 27.135 72.206 27.135 72.8536ZM49.9076 57.7972C49.9076 57.2036 49.6119 52.9943 49.0204 45.1692C48.4289 37.3442 48.0839 33.4047 47.9853 33.3508L45.989 36.8315C45.2003 38.2886 43.6476 41.1758 41.3309 45.493L34.6766 57.7972L42.2921 57.8782C47.3691 57.8782 49.9076 57.8512 49.9076 57.7972Z" fill="#4066E0"/>
<path d="M59.1497 1.61897C59.1497 1.18724 59.273 0.809484 59.5194 0.485691C59.7659 0.161897 60.1356 0 60.6285 0C60.9735 0 61.2693 0.134913 61.5157 0.404742C61.7622 0.620605 62.0086 1.13328 62.2551 1.94276C62.748 3.93949 63.7585 5.47751 65.2865 6.55683C65.8287 6.93459 66.0998 7.42028 66.0998 8.0139C66.0998 8.49959 66.0259 8.82339 65.878 8.98528C65.7302 9.14718 65.3851 9.39003 64.8429 9.71382C62.7234 10.9011 60.8749 12.601 59.2976 14.8136C59.199 14.9215 59.0758 15.0834 58.9279 15.2993C58.7801 15.5151 58.6568 15.677 58.5583 15.785C58.4597 15.8929 58.3364 15.9469 58.1886 15.9469C58.0407 15.9469 57.8682 15.9738 57.671 16.0278C57.326 16.0278 57.0056 15.8929 56.7098 15.6231C56.4141 15.3532 56.2416 14.9485 56.1923 14.4088C56.1923 13.3835 57.3506 11.7915 59.6673 9.63287H47.0241L34.3808 9.55192C33.74 9.06623 33.4196 8.55356 33.4196 8.0139C33.4196 7.63614 33.74 7.09648 34.3808 6.39493H60.9242C59.7412 4.34424 59.1497 2.75225 59.1497 1.61897Z" fill="#4066E0"/>
<path d="M78.5213 99H78.3734C77.7819 99 77.3383 98.6222 77.0425 97.8667V58.5258L77.1165 19.1848C77.6094 18.4832 78.0777 18.1325 78.5213 18.1325C79.1621 18.1325 79.655 18.5372 80 19.3467V97.8667C79.6057 98.6222 79.1621 99 78.6692 99H78.5213Z" fill="#4066E0"/>
</svg>
