<svg width="383" height="100" viewBox="0 0 383 100" fill="none" xmlns="http://www.w3.org/2000/svg">
<path d="M1.43639 85.0825C0.478796 85.0825 0 84.7799 0 84.1745C0 84.0534 0.0844934 83.6297 0.25348 82.9033C0.478796 81.9347 0.704111 81.3899 0.929427 81.2688C1.15474 81.1477 1.80253 81.0569 2.87277 80.9964C4.39366 80.9964 6.08352 80.9056 7.94238 80.724C8.73098 80.5424 9.26611 80.1792 9.54775 79.6344C9.66041 79.3317 11.6601 70.8265 15.5468 54.1187C19.4335 37.4109 21.405 28.9359 21.4613 28.6938C21.4613 28.27 21.3487 28.0582 21.1233 28.0582C20.6727 27.8766 19.18 27.7252 16.6452 27.6042H14.0259C13.6879 27.2409 13.5189 26.9988 13.5189 26.8777C13.5189 26.7567 13.5753 26.2421 13.6879 25.3341C13.9132 24.305 14.1949 23.6693 14.5329 23.4272H60.0748C60.4691 23.6693 60.6662 24.0023 60.6662 24.426C60.6662 24.7287 60.3001 28.1187 59.5678 34.596C58.8356 41.0733 58.4413 44.4027 58.3849 44.5843C58.2723 45.0081 57.709 45.22 56.6951 45.22H55.6811C55.2868 44.9173 55.0897 44.5238 55.0897 44.0395C55.0897 43.979 55.1742 43.2526 55.3432 41.8602C55.5121 40.4679 55.5966 38.8637 55.5966 37.0477C55.5966 35.2316 55.3995 33.7485 55.0052 32.5983C54.6109 31.4482 54.0758 30.5099 53.3998 29.7834C52.7239 29.057 51.6818 28.5727 50.2736 28.3306C48.8653 28.0884 47.4289 27.8766 45.9644 27.695C44.4998 27.5133 42.472 27.4831 39.8809 27.6042H37.9375C33.3186 27.6647 30.8682 27.7555 30.5866 27.8766C30.305 27.9976 30.1078 28.2398 29.9951 28.603C29.9388 28.6635 28.9812 32.6286 27.1224 40.4982L24.4186 52.2118H29.0657C29.2347 52.2118 29.8825 52.2118 31.0091 52.2118C32.1356 52.2118 32.9243 52.1815 33.3749 52.121C33.8255 52.0605 34.4451 51.9697 35.2337 51.8486C36.0223 51.7275 36.6983 51.5156 37.2616 51.213C37.8249 50.9103 38.3037 50.5471 38.698 50.1233C39.4302 49.3969 40.0499 48.3981 40.5568 47.1268C41.0638 45.8556 41.4299 44.7054 41.6552 43.6763C41.8806 42.6472 42.0214 42.1024 42.0777 42.0419C42.2467 41.7392 42.7818 41.5878 43.6831 41.5878H44.697C45.0913 41.8905 45.2884 42.1932 45.2884 42.4959C45.2884 42.6775 44.4154 46.6425 42.6692 54.3911C40.923 62.1396 39.9654 66.135 39.7964 66.3771C39.6837 66.8008 39.1204 67.0127 38.1065 67.0127H37.0926C36.6983 66.6495 36.5011 66.2863 36.5011 65.9231C36.5011 65.7415 36.642 65.0756 36.9236 63.9254C37.2053 62.7752 37.3461 61.5645 37.3461 60.2933C37.3461 58.5378 36.7828 57.4481 35.6562 57.0244C34.5296 56.6006 32.023 56.3888 28.1363 56.3888H23.4892L20.7854 67.9207C18.9828 75.4271 18.0816 79.3619 18.0816 79.7252C18.0816 80.5727 20.5882 80.9964 25.6015 80.9964H27.7138C28.0518 81.3596 28.2208 81.5715 28.2208 81.632C28.2208 81.6926 28.1645 82.2979 28.0518 83.4481C27.8265 84.235 27.5448 84.8101 27.2069 85.1733H25.7705C23.461 85.0523 19.2082 84.9917 13.012 84.9917C9.3506 84.9917 6.56232 84.9917 4.64714 84.9917C2.73195 84.9917 1.6617 85.022 1.43639 85.0825Z" fill="black"/>
<path d="M53.5097 1.81604C53.5097 1.33176 53.6505 0.908012 53.9321 0.5448C54.2138 0.181587 54.6362 -1.90735e-05 55.1995 -1.90735e-05C55.5938 -1.90735e-05 55.9318 0.15132 56.2134 0.453997C56.4951 0.696138 56.7767 1.27122 57.0584 2.17926C57.6217 4.41907 58.7764 6.14433 60.5226 7.35504C61.1422 7.77878 61.452 8.3236 61.452 8.98949C61.452 9.53431 61.3675 9.89752 61.1985 10.0791C61.0296 10.2607 60.6353 10.5331 60.0156 10.8964C57.5935 12.2281 55.4812 14.135 53.6786 16.617C53.566 16.738 53.4252 16.9196 53.2562 17.1618C53.0872 17.4039 52.9464 17.5855 52.8337 17.7066C52.721 17.8277 52.5802 17.8882 52.4112 17.8882C52.2423 17.8882 52.0451 17.9185 51.8198 17.979C51.4255 17.979 51.0593 17.8277 50.7214 17.525C50.3834 17.2223 50.1862 16.7683 50.1299 16.1629C50.1299 15.0128 51.4536 13.227 54.1011 10.8056H39.6527L25.2044 10.7148C24.4721 10.1699 24.106 9.59485 24.106 8.98949C24.106 8.56574 24.4721 7.96039 25.2044 7.17343H55.5375C54.1856 4.87308 53.5097 3.08729 53.5097 1.81604Z" fill="black"/>
<path d="M65.1568 80.369C65.1966 80.1123 65.2564 79.7699 65.336 79.3419C65.4157 78.9139 65.6546 78.1007 66.0529 76.9024C66.4511 75.704 66.8494 74.6982 67.2476 73.8851C67.6458 73.0719 68.303 72.2801 69.2189 71.5097C70.1349 70.7394 71.0508 70.3756 71.9668 70.4184C73.4005 70.4184 74.5952 70.8036 75.551 71.5739C76.5068 72.3443 77.1042 73.0719 77.3431 73.7567C77.5821 74.4414 77.7015 74.8908 77.7015 75.1048C77.7015 75.1904 77.7215 75.2332 77.7613 75.2332L78.4184 74.527C80.8477 71.7879 83.6155 70.4184 86.7218 70.4184C88.8723 70.4184 90.6047 70.9962 91.9189 72.1517C93.2331 73.3073 93.9101 74.9978 93.95 77.2234C93.9898 79.4489 93.2331 82.8086 91.68 87.3024C90.1268 91.7963 89.3701 94.514 89.41 95.4555C89.41 96.5683 89.7485 97.1247 90.4255 97.1247C90.6644 97.1247 90.8436 97.1033 90.9631 97.0605C92.118 96.8465 93.1535 96.0333 94.0694 94.621C94.9854 93.2086 95.6823 91.4967 96.1602 89.4851C96.2399 89.1428 96.6381 88.9716 97.355 88.9716C98.1515 88.9716 98.5497 89.1428 98.5497 89.4851C98.5497 89.5279 98.47 89.8489 98.3108 90.4481C97.9922 91.6893 97.5541 92.909 96.9965 94.1074C96.439 95.3057 95.523 96.5041 94.2486 97.7025C92.9743 98.9008 91.6003 99.4786 90.1268 99.4358C88.2551 99.4358 86.901 98.858 86.0647 97.7025C85.2284 96.5469 84.8102 95.3485 84.8102 94.1074C84.8102 93.2942 85.5271 90.7263 86.9608 86.4036C88.3944 82.081 89.1312 78.8283 89.171 76.6456C89.171 74.1205 88.2949 72.8579 86.5426 72.8579H86.2439C82.819 72.8579 79.9317 75.0192 77.5821 79.3419L77.1639 80.1123L75.1926 88.7148C73.8784 94.3214 73.1217 97.3387 72.9226 97.7667C72.4049 98.9222 71.5487 99.5 70.3539 99.5C69.8362 99.5 69.418 99.3716 69.0994 99.1148C68.7808 98.858 68.5618 98.6012 68.4423 98.3444C68.3229 98.0876 68.283 97.8737 68.3229 97.7025C68.3229 97.1461 69.0795 93.658 70.5929 87.2382C72.1062 80.8184 72.9027 77.3304 72.9823 76.774C73.0222 76.56 73.0421 76.0678 73.0421 75.2974C73.0421 73.6283 72.5642 72.7937 71.6084 72.7937C70.0951 72.7937 68.8406 74.9336 67.845 79.2135C67.606 80.0695 67.4866 80.5188 67.4866 80.5616C67.4069 80.8184 67.0286 80.9468 66.3516 80.9468H65.5152C65.2763 80.69 65.1568 80.4974 65.1568 80.369Z" fill="black"/>
<path d="M102.074 88.0086C102.074 85.5691 102.452 83.3435 103.209 81.332C103.966 79.3205 104.942 77.6513 106.136 76.3246C107.331 74.9978 108.665 73.8851 110.139 72.9863C111.612 72.0875 113.006 71.4242 114.32 70.9962C115.634 70.5682 116.889 70.3756 118.084 70.4184H118.263C120.055 70.4184 121.608 70.8892 122.922 71.8307C124.237 72.7723 124.894 74.1633 124.894 76.0036C124.894 79.8555 122.683 82.3806 118.263 83.5789C116.311 84.1353 113.643 84.4349 110.258 84.4777C108.785 84.4777 108.028 84.5205 107.988 84.6061C107.988 84.6917 107.869 85.4407 107.63 86.853C107.391 88.2654 107.251 89.5065 107.212 90.5765C107.212 92.588 107.63 94.1716 108.466 95.3271C109.302 96.4827 110.557 97.0819 112.229 97.1247C113.902 97.1675 115.754 96.7609 117.785 95.9049C119.816 95.049 121.648 93.6366 123.281 91.6679C123.639 91.2399 123.878 91.0259 123.998 91.0259C124.157 91.0259 124.416 91.2185 124.774 91.6037C125.133 91.9889 125.332 92.2884 125.372 92.5024C125.411 92.7164 125.232 93.0588 124.834 93.5296C124.436 94.0004 123.838 94.5782 123.042 95.2629C122.245 95.9477 121.329 96.6111 120.294 97.2531C119.258 97.8951 118.004 98.43 116.53 98.858C115.057 99.286 113.544 99.5 111.99 99.5C108.844 99.5 106.415 98.3658 104.703 96.0975C102.99 93.8292 102.114 91.1329 102.074 88.0086ZM122.026 76.132C121.787 73.9065 120.433 72.7937 117.964 72.7937C116.65 72.7937 115.435 73.0933 114.32 73.6925C113.205 74.2917 112.309 75.0192 111.632 75.8752C110.955 76.7312 110.378 77.6085 109.9 78.5073C109.422 79.4061 109.103 80.1765 108.944 80.8184C108.785 81.4604 108.685 81.867 108.645 82.0382C108.645 82.081 109.043 82.1024 109.84 82.1024C114.34 82.1024 117.486 81.5888 119.278 80.5616C121.07 79.5345 121.986 78.0579 122.026 76.132Z" fill="black"/>
<path d="M129.135 74.0777C128.856 73.7781 128.717 73.5641 128.717 73.4357C128.717 73.2645 128.777 72.9221 128.896 72.4085C129.015 71.8949 129.115 71.5953 129.195 71.5097C129.274 71.2958 129.454 71.1888 129.732 71.1888C130.011 71.1888 131.027 71.1674 132.779 71.1246H135.945L137.08 65.9887C137.199 65.5179 137.339 64.8974 137.498 64.127C137.657 63.3566 137.797 62.8002 137.916 62.4579C138.036 62.1155 138.155 61.6875 138.275 61.1739C138.394 60.6603 138.553 60.2965 138.753 60.0825C138.952 59.8685 139.151 59.6117 139.35 59.3122C139.549 59.0126 139.828 58.82 140.186 58.7344C140.545 58.6488 140.903 58.606 141.262 58.606C141.978 58.6488 142.476 58.8842 142.755 59.3122C143.034 59.7401 143.173 60.1467 143.173 60.5319C143.173 60.8315 142.994 61.8373 142.635 63.5492C142.277 65.2612 141.879 66.9517 141.441 68.6208L140.843 70.9962C140.843 71.0818 141.839 71.1246 143.83 71.1246H146.877C147.156 71.4241 147.295 71.6595 147.295 71.8307C147.295 72.7723 147.036 73.5213 146.518 74.0777H140.127L137.976 83.3863C136.423 90.2341 135.646 93.9148 135.646 94.4284C135.646 96.2259 136.184 97.1247 137.259 97.1247C138.653 97.1247 140.007 96.3971 141.321 94.942C142.635 93.4868 143.691 91.6893 144.487 89.5493C144.567 89.2925 144.667 89.1427 144.786 89.1C144.905 89.0572 145.204 89.0144 145.682 88.9716H145.921C146.518 88.9716 146.817 89.1427 146.817 89.4851C146.817 89.6135 146.757 89.8703 146.638 90.2555C146.439 90.9403 146.08 91.7535 145.563 92.695C145.045 93.6366 144.368 94.6424 143.532 95.7123C142.695 96.7823 141.68 97.6811 140.485 98.4086C139.29 99.1362 138.076 99.5 136.841 99.5C135.646 99.5 134.511 99.179 133.436 98.537C132.361 97.8951 131.584 96.7823 131.106 95.1987C131.027 94.8564 130.987 94.2786 130.987 93.4654V92.3098L133.078 83.3221C134.471 77.2876 135.188 74.2489 135.228 74.2061C135.228 74.1205 134.213 74.0777 132.182 74.0777H129.135Z" fill="black"/>
<path d="M181.585 53.6647C181.585 52.8777 181.979 52.2723 182.768 51.8486H236.59C237.435 52.3329 237.857 52.9382 237.857 53.6647C237.857 54.3305 237.463 54.9056 236.674 55.3899L209.805 55.4807H182.937C182.035 55.178 181.585 54.5727 181.585 53.6647ZM181.585 71.2805C181.585 70.3724 182.035 69.7671 182.937 69.4644H236.674C237.463 70.0698 237.857 70.6751 237.857 71.2805C237.857 72.0674 237.435 72.6728 236.59 73.0965H182.768C181.979 72.6728 181.585 72.0674 181.585 71.2805Z" fill="black"/>
<path d="M267.836 59.1129C267.892 58.7496 267.976 58.2654 268.089 57.66C268.202 57.0547 268.54 55.9045 269.103 54.2095C269.666 52.5145 270.229 51.0919 270.793 49.9417C271.356 48.7916 272.257 47.6717 273.497 46.582C274.736 45.4924 275.975 44.9778 277.214 45.0384C278.454 45.0989 279.665 45.3108 280.847 45.674C282.03 46.0372 282.875 46.582 283.382 47.3084C283.889 48.0349 284.34 48.7008 284.734 49.3061C285.128 49.9115 285.354 50.4866 285.41 51.0314L285.579 51.667C285.579 51.7881 285.607 51.8486 285.664 51.8486L286.593 50.8498C289.973 46.9755 293.944 45.0384 298.507 45.0384C299.464 45.0384 300.337 45.0989 301.126 45.22C301.915 45.341 302.647 45.5529 303.323 45.8556C303.999 46.1583 304.534 46.461 304.928 46.7636C305.322 47.0663 305.745 47.4295 306.195 47.8533C306.646 48.277 306.928 48.6705 307.04 49.0337C307.153 49.3969 307.378 49.7904 307.716 50.2141C308.054 50.6379 308.167 51.0011 308.054 51.3038C307.942 51.6065 308.026 51.8789 308.308 52.121C308.589 52.3632 308.646 52.575 308.477 52.7566L309.153 51.8486C312.701 47.3084 316.898 45.0384 321.742 45.0384C324.784 45.0384 327.234 45.8556 329.093 47.4901C330.952 49.1245 331.91 51.5157 331.966 54.6635C331.966 57.7508 330.896 62.5331 328.755 69.0104C326.615 75.4877 325.544 79.362 325.544 80.6332C325.601 81.4807 325.742 82.0558 325.967 82.3585C326.192 82.6611 326.615 82.8125 327.234 82.8125C328.812 82.8125 330.276 81.9044 331.628 80.0884C332.98 78.2723 334.078 75.7904 334.923 72.6425C335.092 71.9766 335.261 71.5832 335.43 71.4621C335.599 71.341 336.05 71.2805 336.782 71.2805C337.909 71.2805 338.472 71.5226 338.472 72.0069C338.472 72.0674 338.359 72.5215 338.134 73.3689C337.683 75.1245 337.064 76.8497 336.275 78.5447C335.487 80.2397 334.191 81.9347 332.388 83.6297C330.586 85.3247 328.643 86.1419 326.558 86.0814C323.911 86.0814 321.996 85.2642 320.813 83.6297C319.63 81.9952 319.038 80.3003 319.038 78.5447C319.038 77.3946 320.052 73.7624 322.08 67.6483C324.108 61.5343 325.15 56.9336 325.207 53.8463C325.207 50.2747 323.967 48.4889 321.489 48.4889H321.066C316.222 48.4889 312.138 51.5459 308.815 57.66L308.223 58.7496L305.435 70.9173C303.576 78.8474 302.506 83.1151 302.224 83.7205C301.492 85.355 300.281 86.1722 298.591 86.1722C297.859 86.1722 297.267 85.9603 296.817 85.5366C296.366 85.1128 296.056 84.7496 295.887 84.4469C295.718 84.1443 295.634 83.8416 295.634 83.5389C295.634 82.873 296.591 78.5447 298.507 70.554L301.548 57.2968C301.717 56.3888 301.802 55.2386 301.802 53.8463C301.802 50.2747 300.563 48.4889 298.084 48.4889H297.662C292.817 48.4889 288.734 51.5459 285.41 57.66L284.819 58.7496L282.03 70.9173C280.172 78.8474 279.101 83.1151 278.82 83.7205C278.087 85.355 276.876 86.1722 275.186 86.1722C274.454 86.1722 273.863 85.9906 273.412 85.6274C272.961 85.2642 272.652 84.9009 272.483 84.5377C272.314 84.1745 272.257 83.8718 272.314 83.6297C272.314 82.8427 273.384 77.8788 275.524 68.738C277.721 59.4155 278.82 54.5424 278.82 54.1187C278.989 53.2107 279.073 52.3934 279.073 51.667C279.073 49.4877 278.369 48.3981 276.961 48.3981C275.722 48.3981 274.679 49.2456 273.835 50.9406C272.99 52.6356 272.342 54.4819 271.891 56.4796C271.441 58.4772 271.103 59.5669 270.877 59.7485C270.765 59.8695 270.314 59.9301 269.525 59.9301H268.342C268.004 59.5669 267.836 59.2945 267.836 59.1129Z" fill="black"/>
<path d="M343.035 70.9173C343.035 64.8032 345.175 58.9918 349.456 53.483C353.737 47.9743 358.553 45.1897 363.905 45.1292C366.777 45.1292 369.312 46.6123 371.509 49.5785C372.41 47.7625 373.706 46.8544 375.396 46.8544C376.128 46.8544 376.776 47.0966 377.339 47.5808C377.902 48.0651 378.184 48.6705 378.184 49.3969C378.184 50.1839 377.142 55.0267 375.058 63.9254C372.973 72.8241 371.903 77.8486 371.847 78.9987C371.847 80.5121 372.044 81.511 372.438 81.9952C372.833 82.4795 373.424 82.7519 374.213 82.8125C374.72 82.7519 375.283 82.4795 375.903 81.9952C377.085 80.7845 378.24 77.8788 379.367 73.2781C379.705 72.0674 379.986 71.4318 380.212 71.3713C380.324 71.3107 380.606 71.2805 381.057 71.2805H381.395C382.465 71.2805 383 71.5529 383 72.0977C383 72.4609 382.859 73.2781 382.578 74.5494C382.296 75.8206 381.733 77.4551 380.888 79.4527C380.043 81.4504 379.142 82.9638 378.184 83.9929C377.452 84.7799 376.55 85.4155 375.48 85.8998C375.029 86.0208 374.354 86.0814 373.452 86.0814C371.537 86.0814 369.932 85.6274 368.636 84.7193C367.341 83.8113 366.496 82.873 366.101 81.9044L365.594 80.5424C365.538 80.4818 365.425 80.5121 365.256 80.6332C365.144 80.7543 365.031 80.8753 364.918 80.9964C361.595 84.3864 358.215 86.0814 354.779 86.0814C351.681 86.0814 348.949 84.8707 346.583 82.4492C344.218 80.0278 343.035 76.1838 343.035 70.9173ZM369.904 55.3899C369.904 55.0267 369.763 54.3608 369.481 53.3922C369.199 52.4237 368.552 51.3643 367.538 50.2141C366.524 49.064 365.228 48.4586 363.651 48.3981C361.68 48.3981 359.793 49.3364 357.99 51.213C356.187 53.0896 354.779 55.5413 353.765 58.568C352.132 63.3503 350.977 68.3142 350.301 73.4597C350.301 73.6413 350.301 73.9743 350.301 74.4586C350.301 74.9429 350.273 75.3061 350.217 75.5482C350.217 78.2723 350.724 80.1489 351.737 81.178C352.751 82.2071 353.962 82.7519 355.371 82.8125C357.511 82.8125 359.624 81.8136 361.708 79.816C363.792 77.8183 365.031 76.2746 365.425 75.185C365.538 74.9429 366.299 71.7042 367.707 65.4691C369.115 59.2339 369.847 55.8742 369.904 55.3899Z" fill="black"/>
<path d="M373.326 23.518C373.326 23.0337 373.466 22.61 373.748 22.2468C374.03 21.8836 374.452 21.7019 375.015 21.7019C375.41 21.7019 375.748 21.8533 376.029 22.156C376.311 22.3981 376.593 22.9732 376.874 23.8812C377.438 26.121 378.592 27.8463 380.338 29.057C380.958 29.4807 381.268 30.0256 381.268 30.6915C381.268 31.2363 381.183 31.5995 381.014 31.7811C380.845 31.9627 380.451 32.2351 379.832 32.5983C377.409 33.9301 375.297 35.837 373.495 38.3189C373.382 38.44 373.241 38.6216 373.072 38.8637C372.903 39.1059 372.762 39.2875 372.65 39.4086C372.537 39.5296 372.396 39.5902 372.227 39.5902C372.058 39.5902 371.861 39.6204 371.636 39.681C371.241 39.681 370.875 39.5296 370.537 39.227C370.199 38.9243 370.002 38.4703 369.946 37.8649C369.946 36.7147 371.27 34.9289 373.917 32.5075H359.469L345.02 32.4167C344.288 31.8719 343.922 31.2968 343.922 30.6915C343.922 30.2677 344.288 29.6624 345.02 28.8754H375.353C374.001 26.575 373.326 24.7893 373.326 23.518Z" fill="black"/>
</svg>
