<svg width="392" height="175" viewBox="0 0 392 175" fill="none" xmlns="http://www.w3.org/2000/svg">
<path d="M1.43639 85.0825C0.478796 85.0825 0 84.7799 0 84.1745C0 84.0534 0.0844934 83.6297 0.25348 82.9033C0.478796 81.9347 0.704111 81.3899 0.929427 81.2688C1.15474 81.1477 1.80253 81.0569 2.87277 80.9964C4.39366 80.9964 6.08352 80.9056 7.94238 80.724C8.73098 80.5424 9.26611 80.1792 9.54775 79.6344C9.66041 79.3317 11.6601 70.8265 15.5468 54.1187C19.4335 37.4109 21.405 28.9359 21.4613 28.6938C21.4613 28.27 21.3487 28.0582 21.1233 28.0582C20.6727 27.8766 19.18 27.7252 16.6452 27.6042H14.0259C13.6879 27.2409 13.5189 26.9988 13.5189 26.8777C13.5189 26.7567 13.5753 26.2421 13.6879 25.3341C13.9132 24.305 14.1949 23.6693 14.5329 23.4272H60.0748C60.4691 23.6693 60.6662 24.0023 60.6662 24.426C60.6662 24.7287 60.3001 28.1187 59.5678 34.596C58.8356 41.0733 58.4413 44.4027 58.3849 44.5843C58.2723 45.0081 57.709 45.22 56.6951 45.22H55.6811C55.2868 44.9173 55.0897 44.5238 55.0897 44.0395C55.0897 43.979 55.1742 43.2526 55.3432 41.8602C55.5121 40.4679 55.5966 38.8637 55.5966 37.0477C55.5966 35.2316 55.3995 33.7485 55.0052 32.5983C54.6109 31.4482 54.0758 30.5099 53.3998 29.7834C52.7239 29.057 51.6818 28.5727 50.2736 28.3306C48.8653 28.0884 47.4289 27.8766 45.9644 27.695C44.4998 27.5133 42.472 27.4831 39.8809 27.6042H37.9375C33.3186 27.6647 30.8682 27.7555 30.5866 27.8766C30.305 27.9976 30.1078 28.2398 29.9951 28.603C29.9388 28.6635 28.9812 32.6286 27.1224 40.4982L24.4186 52.2118H29.0657C29.2347 52.2118 29.8825 52.2118 31.0091 52.2118C32.1356 52.2118 32.9243 52.1815 33.3749 52.121C33.8255 52.0605 34.4451 51.9697 35.2337 51.8486C36.0223 51.7275 36.6983 51.5156 37.2616 51.213C37.8249 50.9103 38.3037 50.5471 38.698 50.1233C39.4302 49.3969 40.0499 48.3981 40.5568 47.1268C41.0638 45.8556 41.4299 44.7054 41.6552 43.6763C41.8806 42.6472 42.0214 42.1024 42.0777 42.0419C42.2467 41.7392 42.7818 41.5878 43.6831 41.5878H44.697C45.0913 41.8905 45.2884 42.1932 45.2884 42.4959C45.2884 42.6775 44.4154 46.6425 42.6692 54.3911C40.923 62.1396 39.9654 66.135 39.7964 66.3771C39.6837 66.8008 39.1204 67.0127 38.1065 67.0127H37.0926C36.6983 66.6495 36.5011 66.2863 36.5011 65.9231C36.5011 65.7415 36.642 65.0756 36.9236 63.9254C37.2053 62.7752 37.3461 61.5645 37.3461 60.2933C37.3461 58.5378 36.7828 57.4481 35.6562 57.0244C34.5296 56.6006 32.023 56.3888 28.1363 56.3888H23.4892L20.7854 67.9207C18.9828 75.4271 18.0816 79.3619 18.0816 79.7252C18.0816 80.5727 20.5882 80.9964 25.6015 80.9964H27.7138C28.0518 81.3596 28.2208 81.5715 28.2208 81.632C28.2208 81.6926 28.1645 82.2979 28.0518 83.4481C27.8265 84.235 27.5448 84.8101 27.2069 85.1733H25.7705C23.461 85.0523 19.2082 84.9917 13.012 84.9917C9.3506 84.9917 6.56232 84.9917 4.64714 84.9917C2.73195 84.9917 1.6617 85.022 1.43639 85.0825Z" fill="black"/>
<path d="M53.5097 1.81604C53.5097 1.33176 53.6505 0.908012 53.9321 0.5448C54.2138 0.181587 54.6362 -1.90735e-05 55.1995 -1.90735e-05C55.5938 -1.90735e-05 55.9318 0.15132 56.2134 0.453997C56.4951 0.696138 56.7767 1.27122 57.0584 2.17926C57.6217 4.41907 58.7764 6.14433 60.5226 7.35504C61.1422 7.77878 61.452 8.3236 61.452 8.98949C61.452 9.53431 61.3675 9.89752 61.1985 10.0791C61.0296 10.2607 60.6353 10.5331 60.0156 10.8964C57.5935 12.2281 55.4812 14.135 53.6786 16.617C53.566 16.738 53.4252 16.9196 53.2562 17.1618C53.0872 17.4039 52.9464 17.5855 52.8337 17.7066C52.721 17.8277 52.5802 17.8882 52.4112 17.8882C52.2423 17.8882 52.0451 17.9185 51.8198 17.979C51.4255 17.979 51.0593 17.8277 50.7214 17.525C50.3834 17.2223 50.1862 16.7683 50.1299 16.1629C50.1299 15.0128 51.4536 13.227 54.1011 10.8056H39.6527L25.2044 10.7148C24.4721 10.1699 24.106 9.59485 24.106 8.98949C24.106 8.56574 24.4721 7.96039 25.2044 7.17343H55.5375C54.1856 4.87308 53.5097 3.08729 53.5097 1.81604Z" fill="black"/>
<path d="M65.1568 80.369C65.1966 80.1123 65.2564 79.7699 65.336 79.3419C65.4157 78.9139 65.6546 78.1007 66.0529 76.9024C66.4511 75.704 66.8494 74.6982 67.2476 73.8851C67.6458 73.0719 68.303 72.2801 69.2189 71.5097C70.1349 70.7394 71.0508 70.3756 71.9668 70.4184C73.4005 70.4184 74.5952 70.8036 75.551 71.5739C76.5068 72.3443 77.1042 73.0719 77.3431 73.7567C77.5821 74.4414 77.7015 74.8908 77.7015 75.1048C77.7015 75.1904 77.7215 75.2332 77.7613 75.2332L78.4184 74.527C80.8477 71.7879 83.6155 70.4184 86.7218 70.4184C88.8723 70.4184 90.6047 70.9962 91.9189 72.1517C93.2331 73.3073 93.9101 74.9978 93.95 77.2234C93.9898 79.4489 93.2331 82.8086 91.68 87.3024C90.1268 91.7963 89.3701 94.514 89.41 95.4555C89.41 96.5683 89.7485 97.1247 90.4255 97.1247C90.6644 97.1247 90.8436 97.1033 90.9631 97.0605C92.118 96.8465 93.1535 96.0333 94.0694 94.621C94.9854 93.2086 95.6823 91.4967 96.1602 89.4851C96.2399 89.1428 96.6381 88.9716 97.355 88.9716C98.1515 88.9716 98.5497 89.1428 98.5497 89.4851C98.5497 89.5279 98.47 89.8489 98.3108 90.4481C97.9922 91.6893 97.5541 92.909 96.9965 94.1074C96.439 95.3057 95.523 96.5041 94.2486 97.7025C92.9743 98.9008 91.6003 99.4786 90.1268 99.4358C88.2551 99.4358 86.901 98.858 86.0647 97.7025C85.2284 96.5469 84.8102 95.3485 84.8102 94.1074C84.8102 93.2942 85.5271 90.7263 86.9608 86.4036C88.3944 82.081 89.1312 78.8283 89.171 76.6456C89.171 74.1205 88.2949 72.8579 86.5426 72.8579H86.2439C82.819 72.8579 79.9317 75.0192 77.5821 79.3419L77.1639 80.1123L75.1926 88.7148C73.8784 94.3214 73.1217 97.3387 72.9226 97.7667C72.4049 98.9222 71.5487 99.5 70.3539 99.5C69.8362 99.5 69.418 99.3716 69.0994 99.1148C68.7808 98.858 68.5618 98.6012 68.4423 98.3444C68.3229 98.0876 68.283 97.8737 68.3229 97.7025C68.3229 97.1461 69.0795 93.658 70.5929 87.2382C72.1062 80.8184 72.9027 77.3304 72.9823 76.774C73.0222 76.56 73.0421 76.0678 73.0421 75.2974C73.0421 73.6283 72.5642 72.7937 71.6084 72.7937C70.0951 72.7937 68.8406 74.9336 67.845 79.2135C67.606 80.0695 67.4866 80.5188 67.4866 80.5616C67.4069 80.8184 67.0286 80.9468 66.3516 80.9468H65.5152C65.2763 80.69 65.1568 80.4974 65.1568 80.369Z" fill="black"/>
<path d="M102.074 88.0086C102.074 85.5691 102.452 83.3435 103.209 81.332C103.966 79.3205 104.942 77.6513 106.136 76.3246C107.331 74.9978 108.665 73.8851 110.139 72.9863C111.612 72.0875 113.006 71.4242 114.32 70.9962C115.634 70.5682 116.889 70.3756 118.084 70.4184H118.263C120.055 70.4184 121.608 70.8892 122.922 71.8307C124.237 72.7723 124.894 74.1633 124.894 76.0036C124.894 79.8555 122.683 82.3806 118.263 83.5789C116.311 84.1353 113.643 84.4349 110.258 84.4777C108.785 84.4777 108.028 84.5205 107.988 84.6061C107.988 84.6917 107.869 85.4407 107.63 86.853C107.391 88.2654 107.251 89.5065 107.212 90.5765C107.212 92.588 107.63 94.1716 108.466 95.3271C109.302 96.4827 110.557 97.0819 112.229 97.1247C113.902 97.1675 115.754 96.7609 117.785 95.9049C119.816 95.049 121.648 93.6366 123.281 91.6679C123.639 91.2399 123.878 91.0259 123.998 91.0259C124.157 91.0259 124.416 91.2185 124.774 91.6037C125.133 91.9889 125.332 92.2884 125.372 92.5024C125.411 92.7164 125.232 93.0588 124.834 93.5296C124.436 94.0004 123.838 94.5782 123.042 95.2629C122.245 95.9477 121.329 96.6111 120.294 97.2531C119.258 97.8951 118.004 98.43 116.53 98.858C115.057 99.286 113.544 99.5 111.99 99.5C108.844 99.5 106.415 98.3658 104.703 96.0975C102.99 93.8292 102.114 91.1329 102.074 88.0086ZM122.026 76.132C121.787 73.9065 120.433 72.7937 117.964 72.7937C116.65 72.7937 115.435 73.0933 114.32 73.6925C113.205 74.2917 112.309 75.0192 111.632 75.8752C110.955 76.7312 110.378 77.6085 109.9 78.5073C109.422 79.4061 109.103 80.1765 108.944 80.8184C108.785 81.4604 108.685 81.867 108.645 82.0382C108.645 82.081 109.043 82.1024 109.84 82.1024C114.34 82.1024 117.486 81.5888 119.278 80.5616C121.07 79.5345 121.986 78.0579 122.026 76.132Z" fill="black"/>
<path d="M129.135 74.0777C128.856 73.7781 128.717 73.5641 128.717 73.4357C128.717 73.2645 128.777 72.9221 128.896 72.4085C129.015 71.8949 129.115 71.5953 129.195 71.5097C129.274 71.2958 129.454 71.1888 129.732 71.1888C130.011 71.1888 131.027 71.1674 132.779 71.1246H135.945L137.08 65.9887C137.199 65.5179 137.339 64.8974 137.498 64.127C137.657 63.3566 137.797 62.8002 137.916 62.4579C138.036 62.1155 138.155 61.6875 138.275 61.1739C138.394 60.6603 138.553 60.2965 138.753 60.0825C138.952 59.8685 139.151 59.6117 139.35 59.3122C139.549 59.0126 139.828 58.82 140.186 58.7344C140.545 58.6488 140.903 58.606 141.262 58.606C141.978 58.6488 142.476 58.8842 142.755 59.3122C143.034 59.7401 143.173 60.1467 143.173 60.5319C143.173 60.8315 142.994 61.8373 142.635 63.5492C142.277 65.2612 141.879 66.9517 141.441 68.6208L140.843 70.9962C140.843 71.0818 141.839 71.1246 143.83 71.1246H146.877C147.156 71.4241 147.295 71.6595 147.295 71.8307C147.295 72.7723 147.036 73.5213 146.518 74.0777H140.127L137.976 83.3863C136.423 90.2341 135.646 93.9148 135.646 94.4284C135.646 96.2259 136.184 97.1247 137.259 97.1247C138.653 97.1247 140.007 96.3971 141.321 94.942C142.635 93.4868 143.691 91.6893 144.487 89.5493C144.567 89.2925 144.667 89.1427 144.786 89.1C144.905 89.0572 145.204 89.0144 145.682 88.9716H145.921C146.518 88.9716 146.817 89.1427 146.817 89.4851C146.817 89.6135 146.757 89.8703 146.638 90.2555C146.439 90.9403 146.08 91.7535 145.563 92.695C145.045 93.6366 144.368 94.6424 143.532 95.7123C142.695 96.7823 141.68 97.6811 140.485 98.4086C139.29 99.1362 138.076 99.5 136.841 99.5C135.646 99.5 134.511 99.179 133.436 98.537C132.361 97.8951 131.584 96.7823 131.106 95.1987C131.027 94.8564 130.987 94.2786 130.987 93.4654V92.3098L133.078 83.3221C134.471 77.2876 135.188 74.2489 135.228 74.2061C135.228 74.1205 134.213 74.0777 132.182 74.0777H129.135Z" fill="black"/>
<path d="M181.585 53.6647C181.585 52.8777 181.979 52.2723 182.768 51.8486H236.59C237.435 52.3329 237.857 52.9382 237.857 53.6647C237.857 54.3305 237.463 54.9056 236.674 55.3899L209.805 55.4807H182.937C182.035 55.178 181.585 54.5727 181.585 53.6647ZM181.585 71.2805C181.585 70.3724 182.035 69.7671 182.937 69.4644H236.674C237.463 70.0698 237.857 70.6751 237.857 71.2805C237.857 72.0674 237.435 72.6728 236.59 73.0965H182.768C181.979 72.6728 181.585 72.0674 181.585 71.2805Z" fill="black"/>
<path d="M267.836 59.1129C267.892 58.7496 267.976 58.2654 268.089 57.66C268.202 57.0547 268.54 55.9045 269.103 54.2095C269.666 52.5145 270.229 51.0919 270.793 49.9417C271.356 48.7916 272.257 47.6717 273.497 46.582C274.736 45.4924 275.975 44.9778 277.214 45.0384C278.454 45.0989 279.665 45.3108 280.847 45.674C282.03 46.0372 282.875 46.582 283.382 47.3084C283.889 48.0349 284.34 48.7008 284.734 49.3061C285.128 49.9115 285.354 50.4866 285.41 51.0314L285.579 51.667C285.579 51.7881 285.607 51.8486 285.664 51.8486L286.593 50.8498C289.973 46.9755 293.944 45.0384 298.507 45.0384C299.464 45.0384 300.337 45.0989 301.126 45.22C301.915 45.341 302.647 45.5529 303.323 45.8556C303.999 46.1583 304.534 46.461 304.928 46.7636C305.322 47.0663 305.745 47.4295 306.195 47.8533C306.646 48.277 306.928 48.6705 307.04 49.0337C307.153 49.3969 307.378 49.7904 307.716 50.2141C308.054 50.6379 308.167 51.0011 308.054 51.3038C307.942 51.6065 308.026 51.8789 308.308 52.121C308.589 52.3632 308.646 52.575 308.477 52.7566L309.153 51.8486C312.701 47.3084 316.898 45.0384 321.742 45.0384C324.784 45.0384 327.234 45.8556 329.093 47.4901C330.952 49.1245 331.91 51.5157 331.966 54.6635C331.966 57.7508 330.896 62.5331 328.755 69.0104C326.615 75.4877 325.544 79.362 325.544 80.6332C325.601 81.4807 325.742 82.0558 325.967 82.3585C326.192 82.6611 326.615 82.8125 327.234 82.8125C328.812 82.8125 330.276 81.9044 331.628 80.0884C332.98 78.2723 334.078 75.7904 334.923 72.6425C335.092 71.9766 335.261 71.5832 335.43 71.4621C335.599 71.341 336.05 71.2805 336.782 71.2805C337.909 71.2805 338.472 71.5226 338.472 72.0069C338.472 72.0674 338.359 72.5215 338.134 73.3689C337.683 75.1245 337.064 76.8497 336.275 78.5447C335.487 80.2397 334.191 81.9347 332.388 83.6297C330.586 85.3247 328.643 86.1419 326.558 86.0814C323.911 86.0814 321.996 85.2642 320.813 83.6297C319.63 81.9952 319.038 80.3003 319.038 78.5447C319.038 77.3946 320.052 73.7624 322.08 67.6483C324.108 61.5343 325.15 56.9336 325.207 53.8463C325.207 50.2747 323.967 48.4889 321.489 48.4889H321.066C316.222 48.4889 312.138 51.5459 308.815 57.66L308.223 58.7496L305.435 70.9173C303.576 78.8474 302.506 83.1151 302.224 83.7205C301.492 85.355 300.281 86.1722 298.591 86.1722C297.859 86.1722 297.267 85.9603 296.817 85.5366C296.366 85.1128 296.056 84.7496 295.887 84.4469C295.718 84.1443 295.634 83.8416 295.634 83.5389C295.634 82.873 296.591 78.5447 298.507 70.554L301.548 57.2968C301.717 56.3888 301.802 55.2386 301.802 53.8463C301.802 50.2747 300.563 48.4889 298.084 48.4889H297.662C292.817 48.4889 288.734 51.5459 285.41 57.66L284.819 58.7496L282.03 70.9173C280.172 78.8474 279.101 83.1151 278.82 83.7205C278.087 85.355 276.876 86.1722 275.186 86.1722C274.454 86.1722 273.863 85.9906 273.412 85.6274C272.961 85.2642 272.652 84.9009 272.483 84.5377C272.314 84.1745 272.257 83.8718 272.314 83.6297C272.314 82.8427 273.384 77.8788 275.524 68.738C277.721 59.4155 278.82 54.5424 278.82 54.1187C278.989 53.2107 279.073 52.3934 279.073 51.667C279.073 49.4877 278.369 48.3981 276.961 48.3981C275.722 48.3981 274.679 49.2456 273.835 50.9406C272.99 52.6356 272.342 54.4819 271.891 56.4796C271.441 58.4772 271.103 59.5669 270.877 59.7485C270.765 59.8695 270.314 59.9301 269.525 59.9301H268.342C268.004 59.5669 267.836 59.2945 267.836 59.1129Z" fill="black"/>
<path d="M343.035 70.9173C343.035 64.8032 345.175 58.9918 349.456 53.483C353.737 47.9743 358.553 45.1897 363.905 45.1292C366.777 45.1292 369.312 46.6123 371.509 49.5785C372.41 47.7625 373.706 46.8544 375.396 46.8544C376.128 46.8544 376.776 47.0966 377.339 47.5808C377.902 48.0651 378.184 48.6705 378.184 49.3969C378.184 50.1839 377.142 55.0267 375.058 63.9254C372.973 72.8241 371.903 77.8486 371.847 78.9987C371.847 80.5121 372.044 81.511 372.438 81.9952C372.833 82.4795 373.424 82.7519 374.213 82.8125C374.72 82.7519 375.283 82.4795 375.903 81.9952C377.085 80.7845 378.24 77.8788 379.367 73.2781C379.705 72.0674 379.986 71.4318 380.212 71.3713C380.324 71.3107 380.606 71.2805 381.057 71.2805H381.395C382.465 71.2805 383 71.5529 383 72.0977C383 72.4609 382.859 73.2781 382.578 74.5494C382.296 75.8206 381.733 77.4551 380.888 79.4527C380.043 81.4504 379.142 82.9638 378.184 83.9929C377.452 84.7799 376.55 85.4155 375.48 85.8998C375.029 86.0208 374.354 86.0814 373.452 86.0814C371.537 86.0814 369.932 85.6274 368.636 84.7193C367.341 83.8113 366.496 82.873 366.101 81.9044L365.594 80.5424C365.538 80.4818 365.425 80.5121 365.256 80.6332C365.144 80.7543 365.031 80.8753 364.918 80.9964C361.595 84.3864 358.215 86.0814 354.779 86.0814C351.681 86.0814 348.949 84.8707 346.583 82.4492C344.218 80.0278 343.035 76.1838 343.035 70.9173ZM369.904 55.3899C369.904 55.0267 369.763 54.3608 369.481 53.3922C369.199 52.4237 368.552 51.3643 367.538 50.2141C366.524 49.064 365.228 48.4586 363.651 48.3981C361.68 48.3981 359.793 49.3364 357.99 51.213C356.187 53.0896 354.779 55.5413 353.765 58.568C352.132 63.3503 350.977 68.3142 350.301 73.4597C350.301 73.6413 350.301 73.9743 350.301 74.4586C350.301 74.9429 350.273 75.3061 350.217 75.5482C350.217 78.2723 350.724 80.1489 351.737 81.178C352.751 82.2071 353.962 82.7519 355.371 82.8125C357.511 82.8125 359.624 81.8136 361.708 79.816C363.792 77.8183 365.031 76.2746 365.425 75.185C365.538 74.9429 366.299 71.7042 367.707 65.4691C369.115 59.2339 369.847 55.8742 369.904 55.3899Z" fill="black"/>
<path d="M373.326 23.518C373.326 23.0337 373.466 22.61 373.748 22.2468C374.03 21.8836 374.452 21.7019 375.015 21.7019C375.41 21.7019 375.748 21.8533 376.029 22.156C376.311 22.3981 376.593 22.9732 376.874 23.8812C377.438 26.121 378.592 27.8463 380.338 29.057C380.958 29.4807 381.268 30.0256 381.268 30.6915C381.268 31.2363 381.183 31.5995 381.014 31.7811C380.845 31.9627 380.451 32.2351 379.832 32.5983C377.409 33.9301 375.297 35.837 373.495 38.3189C373.382 38.44 373.241 38.6216 373.072 38.8637C372.903 39.1059 372.762 39.2875 372.65 39.4086C372.537 39.5296 372.396 39.5902 372.227 39.5902C372.058 39.5902 371.861 39.6204 371.636 39.681C371.241 39.681 370.875 39.5296 370.537 39.227C370.199 38.9243 370.002 38.4703 369.946 37.8649C369.946 36.7147 371.27 34.9289 373.917 32.5075H359.469L345.02 32.4167C344.288 31.8719 343.922 31.2968 343.922 30.6915C343.922 30.2677 344.288 29.6624 345.02 28.8754H375.353C374.001 26.575 373.326 24.7893 373.326 23.518Z" fill="black"/>
<rect width="159" height="109" fill="#6C63FF" fill-opacity="0.75"/>
<rect x="338" width="54" height="109" fill="#6C63FF" fill-opacity="0.75"/>
<path d="M99.2491 172.826C100.824 172.826 102.265 172.006 103.573 170.368C104.881 168.729 105.548 166.822 105.575 164.648C105.575 162.663 104.881 161.292 103.493 160.536C100.664 159.685 98.8488 159.102 98.048 158.787C97.2473 158.472 96.6868 158.157 96.3665 157.841C94.7651 156.518 93.9644 154.611 93.9644 152.122C93.9644 150.2 94.3915 148.451 95.2456 146.875C96.0996 145.299 96.9671 144.118 97.8479 143.33C98.6219 142.542 99.556 141.912 100.65 141.439C101.745 140.966 102.599 140.714 103.213 140.683H103.653H103.933C106.496 140.683 108.351 141.691 109.498 143.708C109.525 143.708 109.698 143.503 110.019 143.094C110.339 142.684 110.686 142.227 111.06 141.723C111.433 141.219 111.7 140.872 111.86 140.683C111.887 140.683 111.94 140.683 112.02 140.683C112.101 140.683 112.167 140.667 112.221 140.636C112.568 140.636 112.741 140.746 112.741 140.966C112.741 141.187 112.367 143.094 111.62 146.686C110.873 150.278 110.446 152.138 110.339 152.264C110.232 152.39 110.019 152.437 109.698 152.406C109.165 152.406 108.898 152.264 108.898 151.98C108.898 151.791 108.911 151.633 108.938 151.507C108.938 151.413 108.951 151.113 108.978 150.609C109.004 150.105 109.031 149.695 109.058 149.38C109.058 148.309 108.938 147.379 108.698 146.591C108.457 145.804 108.217 145.221 107.977 144.842C107.737 144.464 107.403 144.07 106.976 143.661C106.015 142.999 104.921 142.668 103.693 142.668C102.172 142.668 100.757 143.393 99.4493 144.842C98.1415 146.292 97.4742 147.962 97.4475 149.853C97.4475 150.798 97.6477 151.618 98.048 152.311C98.4484 153.004 98.9956 153.493 99.6895 153.776C99.7963 153.839 100.73 154.139 102.492 154.674C104.254 155.21 105.148 155.494 105.174 155.525C106.082 155.872 106.963 156.628 107.817 157.794C108.671 158.96 109.098 160.536 109.098 162.521C109.098 163.34 108.991 164.223 108.778 165.168C108.644 165.861 108.404 166.633 108.057 167.484C107.71 168.335 107.23 169.265 106.616 170.273C106.002 171.282 105.121 172.227 103.973 173.109C102.826 173.992 101.571 174.59 100.21 174.905C99.8897 174.968 99.4359 175 98.8488 175C96.2064 175 94.1512 174.133 92.6833 172.4L92.2829 171.88L91.1619 173.346C90.548 174.196 90.1744 174.685 90.0409 174.811C89.9075 174.937 89.734 175 89.5205 175C89.1735 175 89 174.874 89 174.622C89 174.527 89.774 170.825 91.3221 163.514C91.3754 163.325 91.6423 163.23 92.1228 163.23H92.6432C92.8034 163.419 92.8835 163.592 92.8835 163.75C92.8835 163.813 92.8701 163.955 92.8434 164.175C92.8167 164.396 92.7633 164.727 92.6833 165.168C92.6032 165.609 92.5765 166.129 92.6032 166.728C92.6566 167.957 92.8968 168.997 93.3238 169.848C93.7509 170.699 94.3247 171.329 95.0454 171.738C95.766 172.148 96.46 172.432 97.1272 172.589C97.7945 172.747 98.5018 172.826 99.2491 172.826Z" fill="#6C63FF"/>
<path d="M114.062 166.539C114.062 163.356 115.077 160.331 117.105 157.463C119.133 154.596 121.415 153.146 123.951 153.115C125.312 153.115 126.513 153.887 127.554 155.431C127.981 154.485 128.595 154.013 129.396 154.013C129.743 154.013 130.05 154.139 130.317 154.391C130.584 154.643 130.717 154.958 130.717 155.336C130.717 155.746 130.223 158.267 129.236 162.899C128.248 167.532 127.741 170.147 127.714 170.746C127.714 171.534 127.808 172.054 127.995 172.306C128.181 172.558 128.462 172.7 128.835 172.731C129.076 172.7 129.343 172.558 129.636 172.306C130.197 171.675 130.744 170.163 131.278 167.768C131.438 167.138 131.571 166.807 131.678 166.775C131.731 166.744 131.865 166.728 132.078 166.728H132.238C132.746 166.728 132.999 166.87 132.999 167.153C132.999 167.342 132.932 167.768 132.799 168.43C132.665 169.091 132.399 169.942 131.998 170.982C131.598 172.022 131.171 172.81 130.717 173.346C130.37 173.755 129.943 174.086 129.436 174.338C129.222 174.401 128.902 174.433 128.475 174.433C127.568 174.433 126.807 174.196 126.193 173.724C125.579 173.251 125.179 172.763 124.992 172.258L124.752 171.549C124.725 171.518 124.672 171.534 124.592 171.597C124.538 171.66 124.485 171.723 124.431 171.786C122.857 173.55 121.255 174.433 119.627 174.433C118.159 174.433 116.865 173.803 115.744 172.542C114.623 171.282 114.062 169.28 114.062 166.539ZM126.794 158.456C126.794 158.267 126.727 157.92 126.593 157.416C126.46 156.912 126.153 156.36 125.673 155.762C125.192 155.163 124.578 154.848 123.831 154.816C122.897 154.816 122.003 155.305 121.149 156.282C120.294 157.258 119.627 158.535 119.147 160.11C118.373 162.6 117.826 165.184 117.505 167.862C117.505 167.957 117.505 168.13 117.505 168.382C117.505 168.634 117.492 168.824 117.465 168.95C117.465 170.368 117.706 171.345 118.186 171.88C118.666 172.416 119.24 172.7 119.907 172.731C120.922 172.731 121.923 172.211 122.91 171.171C123.898 170.131 124.485 169.328 124.672 168.761C124.725 168.634 125.085 166.949 125.753 163.703C126.42 160.457 126.767 158.708 126.794 158.456Z" fill="#6C63FF"/>
<path d="M134.761 160.394C134.787 160.205 134.827 159.953 134.881 159.638C134.934 159.323 135.094 158.724 135.361 157.841C135.628 156.959 135.895 156.219 136.162 155.62C136.429 155.021 136.856 154.438 137.443 153.871C138.03 153.304 138.617 153.036 139.205 153.067C139.792 153.099 140.366 153.209 140.926 153.398C141.487 153.587 141.887 153.871 142.127 154.249C142.367 154.627 142.581 154.974 142.768 155.289C142.955 155.604 143.061 155.903 143.088 156.187L143.168 156.518C143.168 156.581 143.181 156.612 143.208 156.612L143.649 156.092C145.25 154.076 147.132 153.067 149.294 153.067C149.747 153.067 150.161 153.099 150.535 153.162C150.908 153.225 151.255 153.335 151.576 153.493C151.896 153.65 152.149 153.808 152.336 153.965C152.523 154.123 152.723 154.312 152.937 154.533C153.15 154.753 153.284 154.958 153.337 155.147C153.391 155.336 153.497 155.541 153.657 155.762C153.818 155.982 153.871 156.171 153.818 156.329C153.764 156.486 153.804 156.628 153.938 156.754C154.071 156.88 154.098 156.991 154.018 157.085L154.338 156.612C156.02 154.249 158.008 153.067 160.303 153.067C161.745 153.067 162.906 153.493 163.786 154.344C164.667 155.194 165.121 156.439 165.148 158.078C165.148 159.685 164.641 162.174 163.626 165.546C162.612 168.918 162.105 170.935 162.105 171.597C162.132 172.038 162.198 172.337 162.305 172.495C162.412 172.652 162.612 172.731 162.906 172.731C163.653 172.731 164.347 172.258 164.988 171.313C165.628 170.368 166.149 169.076 166.549 167.437C166.629 167.09 166.709 166.886 166.789 166.822C166.869 166.759 167.083 166.728 167.43 166.728C167.964 166.728 168.23 166.854 168.23 167.106C168.23 167.138 168.177 167.374 168.07 167.815C167.857 168.729 167.563 169.627 167.189 170.509C166.816 171.392 166.202 172.274 165.348 173.157C164.494 174.039 163.573 174.464 162.585 174.433C161.331 174.433 160.423 174.007 159.863 173.157C159.302 172.306 159.022 171.423 159.022 170.509C159.022 169.911 159.503 168.02 160.464 164.837C161.424 161.654 161.918 159.259 161.945 157.652C161.945 155.793 161.358 154.863 160.183 154.863H159.983C157.688 154.863 155.753 156.455 154.178 159.638L153.898 160.205L152.577 166.539C151.696 170.667 151.189 172.889 151.055 173.204C150.708 174.055 150.134 174.48 149.334 174.48C148.987 174.48 148.706 174.37 148.493 174.149C148.279 173.929 148.133 173.739 148.052 173.582C147.972 173.424 147.932 173.267 147.932 173.109C147.932 172.763 148.386 170.509 149.294 166.35L150.735 159.449C150.815 158.976 150.855 158.377 150.855 157.652C150.855 155.793 150.268 154.863 149.093 154.863H148.893C146.598 154.863 144.663 156.455 143.088 159.638L142.808 160.205L141.487 166.539C140.606 170.667 140.099 172.889 139.965 173.204C139.618 174.055 139.044 174.48 138.244 174.48C137.897 174.48 137.617 174.386 137.403 174.196C137.189 174.007 137.043 173.818 136.963 173.629C136.883 173.44 136.856 173.283 136.883 173.157C136.883 172.747 137.39 170.163 138.404 165.404C139.445 160.551 139.965 158.015 139.965 157.794C140.045 157.321 140.085 156.896 140.085 156.518C140.085 155.383 139.752 154.816 139.085 154.816C138.497 154.816 138.004 155.257 137.603 156.14C137.203 157.022 136.896 157.983 136.682 159.023C136.469 160.063 136.309 160.63 136.202 160.725C136.149 160.788 135.935 160.819 135.561 160.819H135.001C134.841 160.63 134.761 160.488 134.761 160.394Z" fill="#6C63FF"/>
<path d="M170.633 166.019C170.633 164.223 170.886 162.584 171.393 161.103C171.9 159.622 172.554 158.393 173.355 157.416C174.156 156.439 175.05 155.62 176.037 154.958C177.025 154.296 177.959 153.808 178.84 153.493C179.721 153.178 180.561 153.036 181.362 153.067H181.482C182.683 153.067 183.724 153.414 184.605 154.107C185.486 154.8 185.926 155.825 185.926 157.18C185.926 160.016 184.445 161.875 181.482 162.757C180.174 163.167 178.386 163.388 176.117 163.419C175.13 163.419 174.623 163.451 174.596 163.514C174.596 163.577 174.516 164.128 174.356 165.168C174.196 166.208 174.102 167.122 174.076 167.91C174.076 169.391 174.356 170.557 174.916 171.408C175.477 172.258 176.318 172.7 177.439 172.731C178.56 172.763 179.801 172.463 181.162 171.833C182.523 171.203 183.751 170.163 184.845 168.713C185.085 168.398 185.246 168.241 185.326 168.241C185.432 168.241 185.606 168.382 185.846 168.666C186.086 168.95 186.22 169.17 186.246 169.328C186.273 169.485 186.153 169.737 185.886 170.084C185.619 170.431 185.219 170.856 184.685 171.36C184.151 171.865 183.537 172.353 182.843 172.826C182.149 173.298 181.309 173.692 180.321 174.007C179.334 174.322 178.319 174.48 177.278 174.48C175.17 174.48 173.542 173.645 172.394 171.975C171.246 170.305 170.659 168.319 170.633 166.019ZM184.004 157.274C183.844 155.636 182.937 154.816 181.282 154.816C180.401 154.816 179.587 155.037 178.84 155.478C178.093 155.919 177.492 156.455 177.038 157.085C176.585 157.715 176.198 158.361 175.877 159.023C175.557 159.685 175.343 160.252 175.237 160.725C175.13 161.198 175.063 161.497 175.036 161.623C175.036 161.654 175.303 161.67 175.837 161.67C178.853 161.67 180.962 161.292 182.163 160.536C183.364 159.779 183.978 158.692 184.004 157.274Z" fill="#6C63FF"/>
<path d="M207.577 144.275C207.577 144.055 206.817 143.913 205.295 143.85C204.681 143.85 204.281 143.834 204.094 143.803C203.907 143.771 203.814 143.629 203.814 143.377C203.814 143.125 203.867 142.81 203.974 142.432C204.081 142.054 204.174 141.817 204.254 141.723C204.308 141.691 206.964 141.675 212.222 141.675C216.679 141.707 219.174 141.723 219.708 141.723C220.242 141.723 220.776 141.817 221.31 142.006C223.231 142.542 224.859 143.787 226.194 145.741C227.528 147.694 228.209 150.31 228.236 153.587C228.236 158.503 226.808 162.915 223.952 166.822C221.096 170.73 217.733 173.062 213.863 173.818L213.302 173.913L205.536 173.96H201.092H198.97C198.329 173.96 197.915 173.929 197.729 173.866C197.542 173.803 197.435 173.661 197.408 173.44C197.408 173.377 197.448 173.157 197.528 172.778C197.635 172.274 197.742 171.991 197.849 171.928C197.956 171.865 198.262 171.817 198.77 171.786C199.49 171.786 200.291 171.738 201.172 171.644C201.545 171.549 201.799 171.36 201.932 171.077C202.012 170.951 202.973 166.57 204.815 157.936C206.657 149.302 207.577 144.748 207.577 144.275ZM224.232 151.791C224.232 150.594 224.085 149.522 223.792 148.577C223.498 147.631 223.151 146.891 222.751 146.355C222.351 145.819 221.857 145.362 221.27 144.984C220.682 144.606 220.162 144.354 219.708 144.228C219.254 144.102 218.787 143.992 218.307 143.897C218.254 143.897 218.067 143.897 217.746 143.897C217.426 143.897 217.039 143.897 216.585 143.897C216.132 143.897 215.691 143.881 215.264 143.85H213.543C212.368 143.85 211.701 144.007 211.541 144.323C211.488 144.449 210.513 148.986 208.618 157.936C206.723 166.886 205.776 171.408 205.776 171.502C205.776 171.628 205.923 171.691 206.216 171.691C206.51 171.691 207.537 171.707 209.299 171.738C209.432 171.738 209.686 171.738 210.06 171.738C210.433 171.738 210.754 171.754 211.02 171.786C214.383 171.786 217.159 170.494 219.348 167.91C220.309 166.775 221.096 165.452 221.71 163.939C222.324 162.426 222.898 160.425 223.431 157.936C223.965 155.446 224.232 153.398 224.232 151.791Z" fill="#6C63FF"/>
<path d="M236.603 145.599C236.603 144.842 236.857 144.181 237.364 143.614C237.871 143.046 238.458 142.747 239.125 142.715C239.606 142.715 240.006 142.904 240.327 143.283C240.647 143.661 240.82 144.133 240.847 144.701C240.847 145.425 240.58 146.087 240.046 146.686C239.512 147.285 238.925 147.6 238.285 147.631C237.884 147.631 237.511 147.474 237.164 147.159C236.817 146.844 236.63 146.324 236.603 145.599ZM230.077 160.394C230.077 160.142 230.198 159.653 230.438 158.929C230.678 158.204 230.998 157.4 231.399 156.518C231.799 155.636 232.386 154.832 233.16 154.107C233.934 153.382 234.735 153.036 235.562 153.067C236.603 153.067 237.471 153.43 238.165 154.154C238.859 154.879 239.219 155.856 239.246 157.085C239.246 157.621 239.059 158.503 238.685 159.732C238.311 160.961 237.778 162.616 237.084 164.695C236.39 166.775 235.829 168.556 235.402 170.037C235.269 170.73 235.202 171.234 235.202 171.549C235.202 172.337 235.429 172.731 235.883 172.731C236.123 172.731 236.376 172.684 236.643 172.589C236.91 172.495 237.217 172.274 237.564 171.928C237.911 171.581 238.271 171.029 238.645 170.273C239.019 169.517 239.352 168.587 239.646 167.484C239.726 167.106 239.793 166.886 239.846 166.822C239.899 166.759 240.126 166.728 240.527 166.728C241.061 166.728 241.327 166.886 241.327 167.201C241.327 167.453 241.207 167.941 240.967 168.666C240.727 169.391 240.393 170.194 239.966 171.077C239.539 171.959 238.939 172.747 238.165 173.44C237.391 174.133 236.563 174.48 235.682 174.48C234.828 174.48 234.041 174.149 233.32 173.487C232.6 172.826 232.226 171.817 232.199 170.462C232.199 169.926 232.266 169.422 232.399 168.95C232.533 168.477 233.107 166.681 234.121 163.561C235.135 160.378 235.722 158.472 235.883 157.841C236.043 157.211 236.136 156.597 236.163 155.998C236.163 155.242 235.936 154.863 235.482 154.863H235.402C234.601 154.863 233.867 155.383 233.2 156.423C232.533 157.463 232.026 158.787 231.679 160.394C231.652 160.425 231.625 160.473 231.599 160.536C231.572 160.599 231.559 160.646 231.559 160.678C231.559 160.709 231.532 160.741 231.479 160.772C231.425 160.804 231.385 160.819 231.359 160.819C231.332 160.819 231.278 160.819 231.198 160.819C231.118 160.819 231.012 160.819 230.878 160.819H230.318C230.157 160.63 230.077 160.488 230.077 160.394Z" fill="#6C63FF"/>
<path d="M243.89 160.394C243.916 160.299 243.943 160.173 243.97 160.016C243.996 159.858 244.063 159.512 244.17 158.976C244.277 158.44 244.41 157.952 244.57 157.511C244.73 157.069 244.931 156.549 245.171 155.951C245.411 155.352 245.678 154.879 245.972 154.533C246.265 154.186 246.612 153.839 247.012 153.493C247.413 153.146 247.853 153.004 248.334 153.067C249.108 153.067 249.788 153.256 250.375 153.634C250.963 154.013 251.376 154.359 251.617 154.674C251.857 154.99 252.004 155.305 252.057 155.62C252.11 155.809 252.15 155.903 252.177 155.903C252.204 155.903 252.31 155.793 252.497 155.573C253.778 153.934 255.26 153.115 256.941 153.115H257.061C258.343 153.115 259.303 153.761 259.944 155.053C260.157 155.651 260.264 156.234 260.264 156.802C260.264 157.747 260.091 158.503 259.744 159.07C259.397 159.638 259.05 160 258.703 160.158C258.356 160.315 258.022 160.378 257.702 160.347C257.168 160.347 256.741 160.173 256.421 159.827C256.101 159.48 255.94 159.023 255.94 158.456C255.94 156.943 256.688 155.935 258.182 155.431C257.595 155.021 257.115 154.816 256.741 154.816C255.246 154.816 253.872 155.982 252.617 158.314C252.351 158.818 252.15 159.338 252.017 159.874C251.883 160.41 251.43 162.505 250.656 166.161C249.748 170.572 249.228 172.92 249.094 173.204C248.747 174.055 248.173 174.48 247.373 174.48C247.026 174.48 246.746 174.386 246.532 174.196C246.319 174.007 246.172 173.818 246.092 173.629C246.012 173.44 245.985 173.283 246.012 173.157C246.012 172.747 246.545 170.037 247.613 165.026C248.681 160.016 249.214 157.227 249.214 156.66C249.214 155.431 248.867 154.816 248.173 154.816C247.613 154.816 247.133 155.257 246.732 156.14C246.332 157.022 246.012 157.983 245.771 159.023C245.531 160.063 245.384 160.63 245.331 160.725C245.278 160.788 245.064 160.819 244.69 160.819H244.13C243.97 160.63 243.89 160.488 243.89 160.394Z" fill="#6C63FF"/>
<path d="M262.666 166.019C262.666 164.223 262.92 162.584 263.427 161.103C263.934 159.622 264.588 158.393 265.389 157.416C266.189 156.439 267.084 155.62 268.071 154.958C269.059 154.296 269.993 153.808 270.874 153.493C271.754 153.178 272.595 153.036 273.396 153.067H273.516C274.717 153.067 275.758 153.414 276.639 154.107C277.52 154.8 277.96 155.825 277.96 157.18C277.96 160.016 276.479 161.875 273.516 162.757C272.208 163.167 270.42 163.388 268.151 163.419C267.164 163.419 266.657 163.451 266.63 163.514C266.63 163.577 266.55 164.128 266.39 165.168C266.23 166.208 266.136 167.122 266.109 167.91C266.109 169.391 266.39 170.557 266.95 171.408C267.511 172.258 268.351 172.7 269.472 172.731C270.593 172.763 271.835 172.463 273.196 171.833C274.557 171.203 275.785 170.163 276.879 168.713C277.119 168.398 277.279 168.241 277.359 168.241C277.466 168.241 277.64 168.382 277.88 168.666C278.12 168.95 278.254 169.17 278.28 169.328C278.307 169.485 278.187 169.737 277.92 170.084C277.653 170.431 277.253 170.856 276.719 171.36C276.185 171.865 275.571 172.353 274.877 172.826C274.183 173.298 273.343 173.692 272.355 174.007C271.367 174.322 270.353 174.48 269.312 174.48C267.204 174.48 265.576 173.645 264.428 171.975C263.28 170.305 262.693 168.319 262.666 166.019ZM276.038 157.274C275.878 155.636 274.971 154.816 273.316 154.816C272.435 154.816 271.621 155.037 270.874 155.478C270.126 155.919 269.526 156.455 269.072 157.085C268.618 157.715 268.231 158.361 267.911 159.023C267.591 159.685 267.377 160.252 267.27 160.725C267.164 161.198 267.097 161.497 267.07 161.623C267.07 161.654 267.337 161.67 267.871 161.67C270.887 161.67 272.996 161.292 274.197 160.536C275.398 159.779 276.012 158.692 276.038 157.274Z" fill="#6C63FF"/>
<path d="M281.123 166.444C281.123 163.009 282.27 159.921 284.566 157.18C286.861 154.438 289.343 153.067 292.012 153.067C293.507 153.067 294.681 153.445 295.536 154.202C296.39 154.958 296.83 155.951 296.857 157.18C296.857 158.094 296.603 158.866 296.096 159.496C295.589 160.126 294.948 160.457 294.174 160.488C293.667 160.488 293.267 160.331 292.973 160.016C292.68 159.701 292.533 159.228 292.533 158.598C292.533 157.967 292.68 157.432 292.973 156.991C293.267 156.549 293.56 156.219 293.854 155.998C294.148 155.777 294.335 155.683 294.415 155.714H294.455C294.455 155.651 294.375 155.557 294.214 155.431C294.054 155.305 293.774 155.179 293.374 155.053C292.973 154.927 292.52 154.863 292.012 154.863C291.212 154.863 290.451 155.084 289.73 155.525C289.17 155.809 288.596 156.297 288.009 156.991C286.835 158.377 285.98 160.331 285.447 162.852C284.913 165.373 284.633 167.201 284.606 168.335C284.606 169.785 284.953 170.872 285.647 171.597C286.234 172.353 287.008 172.731 287.969 172.731H288.129C291.118 172.731 293.587 171.392 295.536 168.713C295.776 168.398 295.936 168.241 296.016 168.241C296.123 168.241 296.296 168.382 296.536 168.666C296.777 168.95 296.91 169.17 296.937 169.328C296.964 169.485 296.843 169.722 296.577 170.037C296.31 170.352 295.923 170.793 295.415 171.36C294.908 171.928 294.308 172.4 293.614 172.778C292.92 173.157 292.066 173.55 291.052 173.96C290.037 174.37 288.97 174.543 287.849 174.48C285.847 174.48 284.232 173.724 283.004 172.211C281.777 170.699 281.149 168.776 281.123 166.444Z" fill="#6C63FF"/>
<path d="M298.138 155.762C297.951 155.541 297.858 155.383 297.858 155.289C297.858 155.163 297.898 154.911 297.978 154.533C298.058 154.154 298.125 153.934 298.178 153.871C298.231 153.713 298.351 153.634 298.538 153.634C298.725 153.634 299.406 153.619 300.58 153.587H302.702L303.463 149.806C303.543 149.459 303.636 149.002 303.743 148.435C303.85 147.868 303.943 147.458 304.023 147.206C304.103 146.954 304.183 146.639 304.263 146.261C304.343 145.882 304.45 145.615 304.584 145.457C304.717 145.299 304.851 145.11 304.984 144.89C305.117 144.669 305.304 144.527 305.544 144.464C305.785 144.401 306.025 144.37 306.265 144.37C306.746 144.401 307.079 144.575 307.266 144.89C307.453 145.205 307.546 145.504 307.546 145.788C307.546 146.008 307.426 146.749 307.186 148.01C306.946 149.27 306.679 150.515 306.385 151.744L305.985 153.493C305.985 153.556 306.652 153.587 307.987 153.587H310.028C310.215 153.808 310.309 153.981 310.309 154.107C310.309 154.8 310.135 155.352 309.788 155.762H305.504L304.063 162.616C303.022 167.658 302.502 170.368 302.502 170.746C302.502 172.069 302.862 172.731 303.583 172.731C304.517 172.731 305.424 172.195 306.305 171.124C307.186 170.053 307.893 168.729 308.427 167.153C308.48 166.964 308.547 166.854 308.627 166.822C308.707 166.791 308.907 166.759 309.228 166.728H309.388C309.788 166.728 309.988 166.854 309.988 167.106C309.988 167.201 309.948 167.39 309.868 167.673C309.735 168.178 309.495 168.776 309.148 169.47C308.801 170.163 308.347 170.903 307.786 171.691C307.226 172.479 306.545 173.141 305.745 173.676C304.944 174.212 304.13 174.48 303.302 174.48C302.502 174.48 301.741 174.244 301.02 173.771C300.3 173.298 299.779 172.479 299.459 171.313C299.406 171.061 299.379 170.636 299.379 170.037V169.186L300.78 162.568C301.714 158.125 302.195 155.888 302.222 155.856C302.222 155.793 301.541 155.762 300.18 155.762H298.138Z" fill="#6C63FF"/>
<path d="M318.916 145.599C318.916 144.842 319.17 144.181 319.677 143.614C320.184 143.046 320.771 142.747 321.439 142.715C321.919 142.715 322.319 142.904 322.64 143.283C322.96 143.661 323.133 144.133 323.16 144.701C323.16 145.425 322.893 146.087 322.359 146.686C321.826 147.285 321.238 147.6 320.598 147.631C320.197 147.631 319.824 147.474 319.477 147.159C319.13 146.844 318.943 146.324 318.916 145.599ZM312.391 160.394C312.391 160.142 312.511 159.653 312.751 158.929C312.991 158.204 313.311 157.4 313.712 156.518C314.112 155.636 314.699 154.832 315.473 154.107C316.247 153.382 317.048 153.036 317.875 153.067C318.916 153.067 319.784 153.43 320.478 154.154C321.172 154.879 321.532 155.856 321.559 157.085C321.559 157.621 321.372 158.503 320.998 159.732C320.625 160.961 320.091 162.616 319.397 164.695C318.703 166.775 318.142 168.556 317.715 170.037C317.582 170.73 317.515 171.234 317.515 171.549C317.515 172.337 317.742 172.731 318.196 172.731C318.436 172.731 318.689 172.684 318.956 172.589C319.223 172.495 319.53 172.274 319.877 171.928C320.224 171.581 320.584 171.029 320.958 170.273C321.332 169.517 321.665 168.587 321.959 167.484C322.039 167.106 322.106 166.886 322.159 166.822C322.213 166.759 322.439 166.728 322.84 166.728C323.374 166.728 323.641 166.886 323.641 167.201C323.641 167.453 323.52 167.941 323.28 168.666C323.04 169.391 322.706 170.194 322.279 171.077C321.852 171.959 321.252 172.747 320.478 173.44C319.704 174.133 318.876 174.48 317.996 174.48C317.141 174.48 316.354 174.149 315.633 173.487C314.913 172.826 314.539 171.817 314.512 170.462C314.512 169.926 314.579 169.422 314.713 168.95C314.846 168.477 315.42 166.681 316.434 163.561C317.448 160.378 318.036 158.472 318.196 157.841C318.356 157.211 318.449 156.597 318.476 155.998C318.476 155.242 318.249 154.863 317.795 154.863H317.715C316.915 154.863 316.181 155.383 315.513 156.423C314.846 157.463 314.339 158.787 313.992 160.394C313.965 160.425 313.939 160.473 313.912 160.536C313.885 160.599 313.872 160.646 313.872 160.678C313.872 160.709 313.845 160.741 313.792 160.772C313.738 160.804 313.698 160.819 313.672 160.819C313.645 160.819 313.592 160.819 313.512 160.819C313.431 160.819 313.325 160.819 313.191 160.819H312.631C312.471 160.63 312.391 160.488 312.391 160.394Z" fill="#6C63FF"/>
<path d="M333.409 174.48C331.407 174.48 329.793 173.708 328.565 172.164C327.337 170.62 326.723 168.761 326.723 166.586C326.723 164.538 327.124 162.6 327.924 160.772C328.725 158.944 329.819 157.353 331.207 155.998C333.236 154.076 335.304 153.115 337.413 153.115C338.267 153.115 338.801 153.13 339.014 153.162C339.361 153.256 339.708 153.367 340.055 153.493C340.402 153.619 340.869 153.871 341.456 154.249C342.044 154.627 342.524 155.1 342.898 155.667C343.271 156.234 343.618 157.006 343.939 157.983C344.259 158.96 344.419 160.063 344.419 161.292C344.419 164.664 343.271 167.705 340.976 170.415C338.681 173.125 336.158 174.48 333.409 174.48ZM330.206 168.288C330.206 169.863 330.553 170.998 331.247 171.691C331.941 172.384 332.729 172.731 333.609 172.731C334.784 172.731 335.891 172.227 336.932 171.218C337.973 170.21 338.801 168.887 339.415 167.248C339.655 166.586 339.962 165.42 340.335 163.75C340.709 162.08 340.896 160.63 340.896 159.401C340.896 158.015 340.656 156.959 340.175 156.234C339.535 155.289 338.681 154.816 337.613 154.816C335.931 154.816 334.45 155.73 333.169 157.558C332.181 158.944 331.447 160.788 330.967 163.088C330.487 165.389 330.233 167.122 330.206 168.288Z" fill="#6C63FF"/>
<path d="M345.62 160.394C345.647 160.205 345.687 159.953 345.74 159.638C345.794 159.323 345.954 158.724 346.221 157.841C346.488 156.959 346.754 156.219 347.021 155.62C347.288 155.021 347.729 154.438 348.343 153.871C348.956 153.304 349.57 153.036 350.184 153.067C351.145 153.067 351.946 153.351 352.586 153.918C353.227 154.485 353.627 155.021 353.787 155.525C353.947 156.029 354.028 156.36 354.028 156.518C354.028 156.581 354.041 156.612 354.068 156.612L354.508 156.092C356.136 154.076 357.991 153.067 360.073 153.067C361.514 153.067 362.675 153.493 363.556 154.344C364.437 155.194 364.891 156.439 364.917 158.078C364.944 159.716 364.437 162.19 363.396 165.499C362.355 168.808 361.848 170.809 361.875 171.502C361.875 172.321 362.101 172.731 362.555 172.731C362.715 172.731 362.835 172.715 362.915 172.684C363.689 172.526 364.383 171.928 364.997 170.888C365.611 169.848 366.078 168.587 366.399 167.106C366.452 166.854 366.719 166.728 367.199 166.728C367.733 166.728 368 166.854 368 167.106C368 167.138 367.947 167.374 367.84 167.815C367.626 168.729 367.333 169.627 366.959 170.509C366.585 171.392 365.972 172.274 365.117 173.157C364.263 174.039 363.343 174.464 362.355 174.433C361.101 174.433 360.193 174.007 359.633 173.157C359.072 172.306 358.792 171.423 358.792 170.509C358.792 169.911 359.272 168.02 360.233 164.837C361.194 161.654 361.688 159.259 361.714 157.652C361.714 155.793 361.127 154.863 359.953 154.863H359.753C357.457 154.863 355.522 156.455 353.947 159.638L353.667 160.205L352.346 166.539C351.465 170.667 350.958 172.889 350.825 173.204C350.478 174.055 349.904 174.48 349.103 174.48C348.756 174.48 348.476 174.386 348.262 174.196C348.049 174.007 347.902 173.818 347.822 173.629C347.742 173.44 347.715 173.283 347.742 173.157C347.742 172.747 348.249 170.179 349.263 165.452C350.278 160.725 350.811 158.157 350.865 157.747C350.891 157.589 350.905 157.227 350.905 156.66C350.905 155.431 350.584 154.816 349.944 154.816C348.93 154.816 348.089 156.392 347.422 159.543C347.262 160.173 347.181 160.504 347.181 160.536C347.128 160.725 346.875 160.819 346.421 160.819H345.86C345.7 160.63 345.62 160.488 345.62 160.394Z" fill="#6C63FF"/>
</svg>
