<svg width="208" height="108" viewBox="0 0 208 108" fill="none" xmlns="http://www.w3.org/2000/svg">
<g filter="url(#filter0_f)">
<rect x="4" y="4" width="200" height="100" rx="15" fill="#6C63FF"/>
<rect x="5" y="5" width="198" height="98" rx="14" stroke="#5550A8" stroke-width="2"/>
</g>
<path d="M156.475 56.4749C157.842 55.108 157.842 52.892 156.475 51.5251L134.201 29.2513C132.834 27.8844 130.618 27.8844 129.251 29.2513C127.884 30.6181 127.884 32.8342 129.251 34.201L149.05 54L129.251 73.799C127.884 75.1658 127.884 77.3819 129.251 78.7487C130.618 80.1156 132.834 80.1156 134.201 78.7487L156.475 56.4749ZM54 57.5L154 57.5L154 50.5L54 50.5L54 57.5Z" fill="white"/>
<defs>
<filter id="filter0_f" x="0" y="0" width="208" height="108" filterUnits="userSpaceOnUse" color-interpolation-filters="sRGB">
<feFlood flood-opacity="0" result="BackgroundImageFix"/>
<feBlend mode="normal" in="SourceGraphic" in2="BackgroundImageFix" result="shape"/>
<feGaussianBlur stdDeviation="2" result="effect1_foregroundBlur"/>
</filter>
</defs>
</svg>
