<svg width="146" height="215" viewBox="0 0 146 215" fill="none" xmlns="http://www.w3.org/2000/svg">
<path d="M120 58L94.0192 103H145.981L120 58ZM124.5 215V98.5H115.5V215H124.5Z" fill="#343A40"/>
<path d="M1.22822 68.0905C0.409407 68.0905 0 67.8497 0 67.368C0 67.2717 0.0722483 66.9345 0.216745 66.3565C0.409407 65.5859 0.602069 65.1524 0.794731 65.0561C0.987393 64.9597 1.5413 64.8875 2.45644 64.8393C3.75691 64.8393 5.20188 64.7671 6.79134 64.6226C7.46566 64.4781 7.92323 64.1891 8.16406 63.7556C8.26039 63.5148 9.97026 56.7475 13.2937 43.4538C16.6171 30.1602 18.3029 23.417 18.3511 23.2243C18.3511 22.8872 18.2547 22.7186 18.0621 22.7186C17.6767 22.5741 16.4004 22.4537 14.2329 22.3573H11.9932C11.7042 22.0683 11.5597 21.8757 11.5597 21.7793C11.5597 21.683 11.6079 21.2736 11.7042 20.5511C11.8969 19.7323 12.1377 19.2266 12.4267 19.0339H51.3685C51.7057 19.2266 51.8743 19.4915 51.8743 19.8286C51.8743 20.0695 51.5612 22.7667 50.935 27.9205C50.3089 33.0742 49.9717 35.7233 49.9236 35.8678C49.8272 36.2049 49.3456 36.3735 48.4786 36.3735H47.6116C47.2745 36.1327 47.1059 35.8196 47.1059 35.4343C47.1059 35.3861 47.1781 34.8081 47.3226 33.7003C47.4671 32.5925 47.5394 31.3161 47.5394 29.8712C47.5394 28.4262 47.3708 27.2461 47.0336 26.331C46.6965 25.4158 46.2389 24.6693 45.6609 24.0913C45.0829 23.5133 44.1919 23.128 42.9877 22.9353C41.7836 22.7427 40.5554 22.5741 39.3031 22.4296C38.0508 22.2851 36.3168 22.261 34.1012 22.3573H32.4395C28.4899 22.4055 26.3947 22.4777 26.1539 22.5741C25.913 22.6704 25.7445 22.8631 25.6481 23.1521C25.6 23.2002 24.7812 26.3551 23.1917 32.6166L20.8798 41.9366H24.8534C24.9979 41.9366 25.5518 41.9366 26.5151 41.9366C27.4784 41.9366 28.1527 41.9125 28.5381 41.8644C28.9234 41.8162 29.4532 41.744 30.1275 41.6476C30.8019 41.5513 31.3798 41.3827 31.8615 41.1419C32.3431 40.9011 32.7526 40.6121 33.0897 40.2749C33.7159 39.6969 34.2457 38.9022 34.6792 37.8907C35.1127 36.8792 35.4257 35.9641 35.6184 35.1453C35.8111 34.3265 35.9315 33.893 35.9796 33.8448C36.1241 33.604 36.5817 33.4836 37.3524 33.4836H38.2193C38.5565 33.7244 38.7251 33.9652 38.7251 34.2061C38.7251 34.3506 37.9785 37.5054 36.4854 43.6706C34.9923 49.8358 34.1734 53.0147 34.0289 53.2074C33.9326 53.5445 33.451 53.7131 32.584 53.7131H31.717C31.3798 53.4241 31.2113 53.1351 31.2113 52.8461C31.2113 52.7016 31.3317 52.1718 31.5725 51.2567C31.8133 50.3415 31.9337 49.3782 31.9337 48.3667C31.9337 46.9699 31.4521 46.1029 30.4888 45.7658C29.5255 45.4286 27.3821 45.26 24.0587 45.26H20.085L17.7731 54.4356C16.2318 60.4081 15.4611 63.5389 15.4611 63.8279C15.4611 64.5022 17.6045 64.8393 21.8912 64.8393H23.6974C23.9864 65.1283 24.1309 65.2969 24.1309 65.3451C24.1309 65.3932 24.0828 65.8749 23.9864 66.79C23.7938 67.4162 23.5529 67.8738 23.2639 68.1628H22.0357C20.0609 68.0664 16.4244 68.0183 11.1262 68.0183C7.99548 68.0183 5.61128 68.0183 3.97366 68.0183C2.33603 68.0183 1.42088 68.0423 1.22822 68.0905Z" fill="#343A40"/>
<path d="M45.7548 1.83884C45.7548 1.45352 45.8752 1.11636 46.1161 0.827366C46.3569 0.538373 46.7181 0.393876 47.1998 0.393876C47.537 0.393876 47.826 0.51429 48.0668 0.755118C48.3076 0.94778 48.5484 1.40535 48.7893 2.12783C49.2709 3.90996 50.2583 5.28268 51.7514 6.24599C52.2813 6.58315 52.5462 7.01664 52.5462 7.54646C52.5462 7.97995 52.4739 8.26894 52.3294 8.41344C52.1849 8.55793 51.8478 8.77468 51.318 9.06367C49.2468 10.1233 47.4406 11.6405 45.8993 13.6153C45.803 13.7116 45.6826 13.8561 45.5381 14.0488C45.3936 14.2415 45.2732 14.386 45.1768 14.4823C45.0805 14.5786 44.9601 14.6268 44.8156 14.6268C44.6711 14.6268 44.5025 14.6509 44.3099 14.699C43.9727 14.699 43.6596 14.5786 43.3706 14.3378C43.0816 14.097 42.9131 13.7357 42.8649 13.2541C42.8649 12.3389 43.9968 10.918 46.2606 8.99142H33.9061L21.5517 8.91917C20.9255 8.48568 20.6124 8.02811 20.6124 7.54646C20.6124 7.2093 20.9255 6.72764 21.5517 6.10149H47.4888C46.3328 4.2712 45.7548 2.85032 45.7548 1.83884Z" fill="#343A40"/>
<path d="M66.594 46.4623C66.4918 46.4623 66.3556 46.4623 66.1853 46.4623C65.334 46.4623 64.8232 46.4453 64.653 46.4113C64.4827 46.3772 64.3976 46.1899 64.3976 45.8494C64.3976 44.9299 64.5849 44.3681 64.9594 44.1638C65.0275 44.1297 66.6791 44.1127 69.9142 44.1127C72.5362 44.1127 74.0346 44.1127 74.4092 44.1127C74.7837 44.1127 75.0221 44.2148 75.1243 44.4192C82.3095 61.3095 85.9702 69.9759 86.1064 70.4186L88.8647 59.5387C90.6695 52.3535 91.5719 48.5225 91.5719 48.0458C91.5719 47.1264 90.4822 46.5985 88.3028 46.4623C87.4855 46.4623 87.0769 46.275 87.0769 45.9005C87.0769 45.8324 87.1109 45.628 87.179 45.2875C87.3152 44.7427 87.4174 44.4192 87.4855 44.317C87.5536 44.2148 87.7239 44.1467 87.9963 44.1127C88.0985 44.1127 88.6263 44.1297 89.5798 44.1638C90.5333 44.1978 91.9465 44.2319 93.8194 44.2659C95.522 44.2659 96.816 44.2489 97.7014 44.2148C98.5868 44.1808 99.0976 44.1638 99.2338 44.1638C99.7446 44.1638 100 44.334 100 44.6746C100 45.4237 99.8638 45.9345 99.5914 46.2069C99.5233 46.3772 99.1487 46.4623 98.4676 46.4623C96.0498 46.5985 94.5345 47.2796 93.9215 48.5055L86.3107 78.6424C86.2426 78.8808 85.885 79 85.238 79C84.7613 79 84.4718 78.9659 84.3697 78.8978C84.2675 78.7957 82.0711 73.6366 77.7804 63.4207L71.2933 48.148L67.9731 61.4286C65.7597 70.1462 64.653 74.6582 64.653 74.9647C64.8232 76.0885 66.0491 76.6503 68.3307 76.6503H68.8415C69.0458 76.8206 69.148 76.9568 69.148 77.059C69.148 77.1611 69.1139 77.4846 69.0458 78.0295C68.9096 78.4722 68.7393 78.7957 68.535 79H67.871C66.8153 78.9319 64.9765 78.8978 62.3544 78.8978C61.4009 78.8978 60.5325 78.8978 59.7493 78.8978C58.9661 78.8978 58.3361 78.8978 57.8594 78.8978C57.3826 78.8978 57.0932 78.9149 56.991 78.9489C56.4802 78.9489 56.2248 78.7957 56.2248 78.4892C56.2248 78.353 56.2759 78.0806 56.3781 77.6719C56.4802 77.2633 56.5654 77.0249 56.6335 76.9568C56.7016 76.7525 57.0932 76.6503 57.8083 76.6503C60.1239 76.5482 61.6222 75.8841 62.3033 74.6582C62.4395 74.4539 63.6484 69.7376 65.9299 60.5092L69.4034 46.6156C69.3353 46.5815 68.3988 46.5304 66.594 46.4623Z" fill="#343A40"/>
</svg>
