<svg width="1328" height="688" viewBox="0 0 1328 688" fill="none" xmlns="http://www.w3.org/2000/svg">
<rect width="1328" height="688" fill="#7EBBF3"/>
<ellipse cx="996.909" cy="299.494" rx="24.8656" ry="14.4049" fill="white"/>
<ellipse cx="1046.3" cy="297.779" rx="26.9235" ry="18.1776" fill="white"/>
<ellipse cx="1096.37" cy="342.108" rx="28.6384" ry="23.065" fill="white"/>
<ellipse cx="1086.24" cy="361.96" rx="30.6589" ry="25.3864" transform="rotate(45 1086.24 361.96)" fill="white"/>
<ellipse cx="1055.9" cy="379.75" rx="26.5805" ry="25.3801" fill="white"/>
<ellipse cx="1012.86" cy="379.75" rx="23.3223" ry="25.3801" fill="white"/>
<ellipse cx="977.274" cy="366.545" rx="28.5526" ry="25.3801" fill="white"/>
<ellipse cx="960.125" cy="351.026" rx="28.5526" ry="22.7221" fill="white"/>
<ellipse cx="966.813" cy="323.073" rx="28.5526" ry="22.7221" fill="white"/>
<ellipse cx="1083.68" cy="319.043" rx="26.9235" ry="22.3118" transform="rotate(-45 1083.68 319.043)" fill="white"/>
<rect x="983.705" y="301.723" width="85.7436" height="67.566" fill="white"/>
<path d="M1042.58 276.121C1036.41 276.876 1030.7 279.071 1026.04 282.501C1025.37 282.981 1023.82 284.404 1022.57 285.639L1020.31 287.92L1019.31 287.165C1016.95 285.399 1012.93 283.753 1009.14 282.998C1005.65 282.312 1004.38 282.209 999.456 282.209C995.323 282.209 994.277 282.278 991.996 282.621C983.576 283.873 976.991 286.685 972.875 290.784C971.006 292.636 969.857 294.419 969.085 296.648C968.777 297.54 968.502 298.312 968.468 298.329C968.434 298.363 967.748 298.278 966.959 298.123C964.85 297.729 959.859 297.729 957.613 298.14C951.251 299.289 945.557 302.273 941.219 306.749C937.909 310.179 935.903 313.814 935.062 317.964C934.736 319.525 934.702 320.142 934.771 322.594C934.891 326.419 935.594 329.025 937.48 332.506L938.372 334.153L937.617 334.77C933.073 338.423 930.123 343.224 929.215 348.489C928.94 350.084 928.923 353.479 929.197 355.108C929.729 358.367 931.255 361.985 933.142 364.523C936.246 368.673 941.202 371.811 946.741 373.097L948.044 373.406L948.164 375.035C948.867 384.398 956.412 391.652 967.713 393.779C970.131 394.242 975.979 394.413 978.826 394.122C981.827 393.796 986.56 392.921 988.583 392.287C988.806 392.235 989.046 392.527 989.561 393.453C993.299 400.244 1001.27 405.954 1008.78 407.206C1010.83 407.549 1014.48 407.566 1016.36 407.223C1022.23 406.212 1027.53 403.159 1032.38 397.997L1033.99 396.3L1035.45 397.757C1037.53 399.832 1039.91 401.616 1042.57 403.091C1050.32 407.378 1059.39 408.955 1066.94 407.309C1073.86 405.817 1079.28 401.616 1082.44 395.305C1082.94 394.31 1083.42 393.264 1083.52 392.973L1083.71 392.441L1085.22 392.75C1092.2 394.173 1100.75 393.041 1106.93 389.869C1113.32 386.611 1117.34 381.415 1118.48 374.881C1119.03 371.777 1118.79 367.37 1117.87 363.751L1117.54 362.482L1118.18 361.951C1123.32 357.784 1127.51 350.461 1128.69 343.499C1129.19 340.618 1129.08 337.188 1128.41 334.77C1126.78 328.785 1122.43 324.378 1115.64 321.857C1114.73 321.514 1113.48 321.12 1112.83 320.948C1111.8 320.691 1111.68 320.622 1111.76 320.297C1111.81 320.091 1112.09 319.045 1112.38 317.964C1113.34 314.5 1113.29 310.522 1112.26 307.246C1109.31 297.815 1099.14 292.018 1086.31 292.464C1083.21 292.584 1079.92 293.013 1077.12 293.699C1076.13 293.939 1075.29 294.128 1075.24 294.128C1075.2 294.128 1075.17 293.99 1075.17 293.819C1075.17 293.647 1075.01 292.996 1074.81 292.396C1072.23 284.404 1063.97 278.385 1052.96 276.447C1050.63 276.036 1044.81 275.864 1042.58 276.121ZM1051.36 280.151C1058.38 281.163 1064.69 284.404 1068.17 288.794C1068.75 289.515 1069.56 290.784 1069.97 291.641C1070.95 293.682 1071.27 295.242 1071.19 297.66L1071.14 299.564L1073.11 298.895C1075.61 298.055 1078.43 297.334 1081.17 296.837C1083.04 296.494 1083.88 296.443 1087.69 296.443C1092.52 296.46 1093.91 296.648 1097.07 297.746C1107.77 301.484 1111.69 311.516 1106.5 321.771L1105.57 323.589L1106.62 323.709C1109.81 324.052 1114.08 325.287 1116.58 326.59C1123.99 330.431 1126.48 337.668 1123.49 346.723C1121.55 352.622 1117.35 358.35 1113.58 360.236C1113.07 360.493 1112.62 360.716 1112.6 360.733C1112.59 360.75 1112.81 361.522 1113.08 362.465C1114.06 365.706 1114.28 367.095 1114.39 370.182C1114.46 372.652 1114.42 373.355 1114.13 374.727C1113.48 377.899 1112.24 380.283 1110.03 382.615C1107.72 385.05 1105.06 386.662 1101.25 387.931C1095.08 389.989 1086.86 389.92 1082.1 387.76C1081.46 387.485 1080.89 387.245 1080.83 387.245C1080.77 387.245 1080.59 387.845 1080.41 388.566C1079.44 392.733 1077.47 396.3 1074.65 398.958C1069.58 403.759 1061.84 405.234 1053.2 403.039C1044.56 400.861 1036.91 395.271 1034.78 389.595C1034.61 389.149 1034.44 388.789 1034.37 388.789C1034.32 388.789 1034.04 389.132 1033.79 389.56C1031.75 392.784 1027.87 397.054 1025.08 399.146C1021.54 401.822 1018.35 403.142 1014.34 403.554C1008.42 404.188 1001.65 401.341 996.678 396.111C994.363 393.676 992.39 390.383 991.979 388.24C991.825 387.434 991.722 387.228 991.499 387.297C991.344 387.348 990.178 387.691 988.909 388.085C979.683 390.898 971.4 391.207 964.73 388.977C957.904 386.679 953.309 381.586 952.571 375.464C952.4 374.075 952.537 371.828 952.88 370.662C952.966 370.371 953 370.079 952.931 370.028C952.88 369.976 952.417 369.925 951.885 369.925C949.519 369.925 945.592 368.93 943.208 367.73C938.149 365.192 934.754 360.785 933.622 355.314C933.227 353.428 933.262 350.015 933.69 348.095C934.822 342.95 938.303 338.457 943.054 336.022C943.757 335.662 944.288 335.285 944.254 335.199C944.22 335.096 943.688 334.341 943.054 333.518C941.733 331.769 940.053 328.408 939.538 326.539C938.423 322.457 938.818 318.513 940.721 314.603C944.134 307.572 952.4 302.256 960.785 301.69C964.627 301.433 968.056 302.05 971.177 303.542C972.652 304.245 972.961 304.348 972.875 304.091C972.824 303.902 972.704 303.165 972.635 302.445C972.052 297.249 975.036 292.876 981.278 289.823C986.457 287.285 992.579 286.033 999.713 286.033C1010.09 286.051 1017.53 288.983 1019.85 293.956C1020.09 294.471 1020.29 295.037 1020.29 295.191C1020.29 295.774 1020.55 295.482 1021.3 294.042C1023.86 289.12 1028.78 284.627 1034.15 282.295C1039.34 280.049 1045.35 279.294 1051.36 280.151Z" fill="black"/>
<ellipse cx="580.909" cy="115.494" rx="24.8656" ry="14.4049" fill="white"/>
<ellipse cx="630.297" cy="113.779" rx="26.9235" ry="18.1776" fill="white"/>
<ellipse cx="680.371" cy="158.108" rx="28.6384" ry="23.065" fill="white"/>
<ellipse cx="670.237" cy="177.96" rx="30.6589" ry="25.3864" transform="rotate(45 670.237 177.96)" fill="white"/>
<ellipse cx="639.9" cy="195.75" rx="26.5805" ry="25.3801" fill="white"/>
<ellipse cx="596.857" cy="195.75" rx="23.3223" ry="25.3801" fill="white"/>
<ellipse cx="561.274" cy="182.545" rx="28.5526" ry="25.3801" fill="white"/>
<ellipse cx="544.125" cy="167.026" rx="28.5526" ry="22.7221" fill="white"/>
<ellipse cx="550.813" cy="139.073" rx="28.5526" ry="22.7221" fill="white"/>
<ellipse cx="667.681" cy="135.043" rx="26.9235" ry="22.3118" transform="rotate(-45 667.681 135.043)" fill="white"/>
<rect x="567.705" y="117.723" width="85.7436" height="67.566" fill="white"/>
<path d="M626.585 92.1215C620.411 92.876 614.701 95.071 610.036 98.5008C609.367 98.981 607.824 100.404 606.572 101.639L604.309 103.92L603.314 103.165C600.947 101.399 596.935 99.7526 593.145 98.9981C589.646 98.3122 588.377 98.2093 583.456 98.2093C579.323 98.2093 578.277 98.2779 575.996 98.6208C567.576 99.8727 560.991 102.685 556.875 106.784C555.006 108.636 553.857 110.419 553.085 112.648C552.777 113.54 552.502 114.312 552.468 114.329C552.434 114.363 551.748 114.278 550.959 114.123C548.85 113.729 543.859 113.729 541.613 114.14C535.251 115.289 529.557 118.273 525.219 122.749C521.909 126.179 519.903 129.814 519.062 133.964C518.736 135.525 518.702 136.142 518.771 138.594C518.891 142.419 519.594 145.025 521.48 148.506L522.372 150.153L521.617 150.77C517.073 154.423 514.123 159.224 513.215 164.489C512.94 166.084 512.923 169.479 513.197 171.108C513.729 174.367 515.255 177.985 517.142 180.523C520.246 184.673 525.202 187.811 530.741 189.097L532.044 189.406L532.164 191.035C532.867 200.398 540.412 207.652 551.713 209.779C554.131 210.242 559.979 210.413 562.826 210.122C565.827 209.796 570.56 208.921 572.583 208.287C572.806 208.235 573.046 208.527 573.561 209.453C577.299 216.244 585.273 221.954 592.785 223.206C594.825 223.549 598.478 223.566 600.364 223.223C606.229 222.212 611.528 219.159 616.381 213.997L617.993 212.3L619.451 213.757C621.526 215.832 623.91 217.616 626.568 219.091C634.319 223.378 643.39 224.955 650.936 223.309C657.864 221.817 663.283 217.616 666.438 211.305C666.936 210.31 667.416 209.264 667.519 208.973L667.707 208.441L669.216 208.75C676.196 210.173 684.753 209.041 690.927 205.869C697.323 202.611 701.336 197.415 702.485 190.881C703.034 187.777 702.794 183.37 701.868 179.751L701.542 178.482L702.176 177.951C707.321 173.784 711.505 166.461 712.688 159.499C713.186 156.618 713.083 153.188 712.414 150.77C710.785 144.785 706.429 140.378 699.638 137.857C698.729 137.514 697.478 137.12 696.826 136.948C695.797 136.691 695.677 136.622 695.763 136.297C695.814 136.091 696.089 135.045 696.38 133.964C697.34 130.5 697.289 126.522 696.26 123.246C693.31 113.815 683.141 108.018 670.314 108.464C667.21 108.584 663.918 109.013 661.122 109.699C660.128 109.939 659.287 110.128 659.236 110.128C659.202 110.128 659.167 109.99 659.167 109.819C659.167 109.647 659.013 108.996 658.807 108.396C656.235 100.404 647.969 94.3851 636.96 92.4473C634.627 92.0357 628.814 91.8642 626.585 92.1215ZM635.365 96.1514C642.379 97.1632 648.689 100.404 652.171 104.794C652.754 105.515 653.56 106.784 653.971 107.641C654.949 109.682 655.275 111.242 655.189 113.66L655.137 115.564L657.109 114.895C659.613 114.055 662.426 113.334 665.169 112.837C667.039 112.494 667.879 112.443 671.686 112.443C676.522 112.46 677.911 112.648 681.066 113.746C691.767 117.484 695.694 127.516 690.498 137.771L689.572 139.589L690.618 139.709C693.808 140.052 698.078 141.287 700.581 142.59C707.99 146.431 710.476 153.668 707.492 162.723C705.555 168.622 701.353 174.35 697.58 176.236C697.066 176.493 696.62 176.716 696.603 176.733C696.586 176.75 696.809 177.522 697.083 178.465C698.061 181.706 698.284 183.095 698.386 186.182C698.455 188.652 698.421 189.355 698.129 190.727C697.478 193.899 696.243 196.283 694.031 198.615C691.716 201.05 689.058 202.662 685.251 203.931C679.077 205.989 670.863 205.92 666.095 203.76C665.461 203.485 664.895 203.245 664.826 203.245C664.775 203.245 664.586 203.845 664.415 204.566C663.437 208.733 661.465 212.3 658.653 214.958C653.577 219.759 645.843 221.234 637.2 219.039C628.557 216.861 620.909 211.271 618.782 205.595C618.611 205.149 618.439 204.789 618.371 204.789C618.319 204.789 618.045 205.132 617.787 205.56C615.747 208.784 611.871 213.054 609.076 215.146C605.543 217.822 602.354 219.142 598.341 219.554C592.424 220.188 585.651 217.341 580.678 212.111C578.363 209.676 576.39 206.383 575.979 204.24C575.825 203.434 575.722 203.228 575.499 203.297C575.344 203.348 574.178 203.691 572.909 204.085C563.683 206.898 555.4 207.207 548.73 204.977C541.904 202.679 537.309 197.586 536.571 191.464C536.4 190.075 536.537 187.828 536.88 186.662C536.966 186.371 537 186.079 536.931 186.028C536.88 185.976 536.417 185.925 535.885 185.925C533.519 185.925 529.592 184.93 527.208 183.73C522.149 181.192 518.754 176.785 517.622 171.314C517.227 169.428 517.262 166.015 517.69 164.095C518.822 158.95 522.303 154.457 527.054 152.022C527.757 151.662 528.288 151.285 528.254 151.199C528.22 151.096 527.688 150.341 527.054 149.518C525.733 147.769 524.053 144.408 523.538 142.539C522.423 138.457 522.818 134.513 524.721 130.603C528.134 123.572 536.4 118.256 544.785 117.69C548.627 117.433 552.056 118.05 555.177 119.542C556.652 120.245 556.961 120.348 556.875 120.091C556.824 119.902 556.704 119.165 556.635 118.445C556.052 113.249 559.036 108.876 565.278 105.823C570.457 103.285 576.579 102.033 583.713 102.033C594.088 102.051 601.53 104.983 603.846 109.956C604.086 110.471 604.291 111.037 604.291 111.191C604.291 111.774 604.549 111.482 605.303 110.042C607.858 105.12 612.78 100.627 618.148 98.295C623.344 96.0485 629.346 95.294 635.365 96.1514Z" fill="black"/>
<ellipse cx="288.909" cy="307.494" rx="24.8656" ry="14.4049" fill="white"/>
<ellipse cx="338.297" cy="305.779" rx="26.9235" ry="18.1776" fill="white"/>
<ellipse cx="388.371" cy="350.108" rx="28.6384" ry="23.065" fill="white"/>
<ellipse cx="378.237" cy="369.96" rx="30.6589" ry="25.3864" transform="rotate(45 378.237 369.96)" fill="white"/>
<ellipse cx="347.9" cy="387.75" rx="26.5805" ry="25.3801" fill="white"/>
<ellipse cx="304.857" cy="387.75" rx="23.3223" ry="25.3801" fill="white"/>
<ellipse cx="269.274" cy="374.545" rx="28.5526" ry="25.3801" fill="white"/>
<ellipse cx="252.125" cy="359.026" rx="28.5526" ry="22.7221" fill="white"/>
<ellipse cx="258.813" cy="331.073" rx="28.5526" ry="22.7221" fill="white"/>
<ellipse cx="375.681" cy="327.043" rx="26.9235" ry="22.3118" transform="rotate(-45 375.681 327.043)" fill="white"/>
<rect x="275.705" y="309.723" width="85.7436" height="67.566" fill="white"/>
<path d="M334.585 284.121C328.411 284.876 322.701 287.071 318.036 290.501C317.367 290.981 315.824 292.404 314.572 293.639L312.309 295.92L311.314 295.165C308.947 293.399 304.935 291.753 301.145 290.998C297.646 290.312 296.377 290.209 291.456 290.209C287.323 290.209 286.277 290.278 283.996 290.621C275.576 291.873 268.991 294.685 264.875 298.784C263.006 300.636 261.857 302.419 261.085 304.648C260.777 305.54 260.502 306.312 260.468 306.329C260.434 306.363 259.748 306.278 258.959 306.123C256.85 305.729 251.859 305.729 249.613 306.14C243.251 307.289 237.557 310.273 233.219 314.749C229.909 318.179 227.903 321.814 227.062 325.964C226.736 327.525 226.702 328.142 226.771 330.594C226.891 334.419 227.594 337.025 229.48 340.506L230.372 342.153L229.617 342.77C225.073 346.423 222.123 351.224 221.215 356.489C220.94 358.084 220.923 361.479 221.197 363.108C221.729 366.367 223.255 369.985 225.142 372.523C228.246 376.673 233.202 379.811 238.741 381.097L240.044 381.406L240.164 383.035C240.867 392.398 248.412 399.652 259.713 401.779C262.131 402.242 267.979 402.413 270.826 402.122C273.827 401.796 278.56 400.921 280.583 400.287C280.806 400.235 281.046 400.527 281.561 401.453C285.299 408.244 293.273 413.954 300.785 415.206C302.825 415.549 306.478 415.566 308.364 415.223C314.229 414.212 319.528 411.159 324.381 405.997L325.993 404.3L327.451 405.757C329.526 407.832 331.91 409.616 334.568 411.091C342.319 415.378 351.39 416.955 358.936 415.309C365.864 413.817 371.283 409.616 374.438 403.305C374.936 402.31 375.416 401.264 375.519 400.973L375.707 400.441L377.216 400.75C384.196 402.173 392.753 401.041 398.927 397.869C405.323 394.611 409.336 389.415 410.485 382.881C411.034 379.777 410.794 375.37 409.868 371.751L409.542 370.482L410.176 369.951C415.321 365.784 419.505 358.461 420.688 351.499C421.186 348.618 421.083 345.188 420.414 342.77C418.785 336.785 414.429 332.378 407.638 329.857C406.729 329.514 405.478 329.12 404.826 328.948C403.797 328.691 403.677 328.622 403.763 328.297C403.814 328.091 404.089 327.045 404.38 325.964C405.34 322.5 405.289 318.522 404.26 315.246C401.31 305.815 391.141 300.018 378.314 300.464C375.21 300.584 371.918 301.013 369.122 301.699C368.128 301.939 367.287 302.128 367.236 302.128C367.202 302.128 367.167 301.99 367.167 301.819C367.167 301.647 367.013 300.996 366.807 300.396C364.235 292.404 355.969 286.385 344.96 284.447C342.627 284.036 336.814 283.864 334.585 284.121ZM343.365 288.151C350.379 289.163 356.689 292.404 360.171 296.794C360.754 297.515 361.56 298.784 361.971 299.641C362.949 301.682 363.275 303.242 363.189 305.66L363.137 307.564L365.109 306.895C367.613 306.055 370.426 305.334 373.169 304.837C375.039 304.494 375.879 304.443 379.686 304.443C384.522 304.46 385.911 304.648 389.066 305.746C399.767 309.484 403.694 319.516 398.498 329.771L397.572 331.589L398.618 331.709C401.808 332.052 406.078 333.287 408.581 334.59C415.99 338.431 418.476 345.668 415.492 354.723C413.555 360.622 409.353 366.35 405.58 368.236C405.066 368.493 404.62 368.716 404.603 368.733C404.586 368.75 404.809 369.522 405.083 370.465C406.061 373.706 406.284 375.095 406.386 378.182C406.455 380.652 406.421 381.355 406.129 382.727C405.478 385.899 404.243 388.283 402.031 390.615C399.716 393.05 397.058 394.662 393.251 395.931C387.077 397.989 378.863 397.92 374.095 395.76C373.461 395.485 372.895 395.245 372.826 395.245C372.775 395.245 372.586 395.845 372.415 396.566C371.437 400.733 369.465 404.3 366.653 406.958C361.577 411.759 353.843 413.234 345.2 411.039C336.557 408.861 328.909 403.271 326.782 397.595C326.611 397.149 326.439 396.789 326.371 396.789C326.319 396.789 326.045 397.132 325.787 397.56C323.747 400.784 319.871 405.054 317.076 407.146C313.543 409.822 310.354 411.142 306.341 411.554C300.424 412.188 293.651 409.341 288.678 404.111C286.363 401.676 284.39 398.383 283.979 396.24C283.825 395.434 283.722 395.228 283.499 395.297C283.344 395.348 282.178 395.691 280.909 396.085C271.683 398.898 263.4 399.207 256.73 396.977C249.904 394.679 245.309 389.586 244.571 383.464C244.4 382.075 244.537 379.828 244.88 378.662C244.966 378.371 245 378.079 244.931 378.028C244.88 377.976 244.417 377.925 243.885 377.925C241.519 377.925 237.592 376.93 235.208 375.73C230.149 373.192 226.754 368.785 225.622 363.314C225.227 361.428 225.262 358.015 225.69 356.095C226.822 350.95 230.303 346.457 235.054 344.022C235.757 343.662 236.288 343.285 236.254 343.199C236.22 343.096 235.688 342.341 235.054 341.518C233.733 339.769 232.053 336.408 231.538 334.539C230.423 330.457 230.818 326.513 232.721 322.603C236.134 315.572 244.4 310.256 252.785 309.69C256.627 309.433 260.056 310.05 263.177 311.542C264.652 312.245 264.961 312.348 264.875 312.091C264.824 311.902 264.704 311.165 264.635 310.445C264.052 305.249 267.036 300.876 273.278 297.823C278.457 295.285 284.579 294.033 291.713 294.033C302.088 294.051 309.53 296.983 311.846 301.956C312.086 302.471 312.291 303.037 312.291 303.191C312.291 303.774 312.549 303.482 313.303 302.042C315.858 297.12 320.78 292.627 326.148 290.295C331.344 288.049 337.346 287.294 343.365 288.151Z" fill="black"/>
</svg>
