<svg width="505" height="315" viewBox="0 0 505 315" fill="none" xmlns="http://www.w3.org/2000/svg">
<path d="M410 95L346.536 92.6124L376.201 148.767L410 95ZM5.56899 314.863L368.801 122.984L363.663 113.258L0.431011 305.137L5.56899 314.863Z" fill="#6C63FF"/>
<path d="M406.356 74.9588C405.452 74.9588 405 74.693 405 74.1614C405 74.055 405.08 73.6829 405.239 73.045C405.452 72.1944 405.665 71.7159 405.877 71.6096C406.09 71.5033 406.701 71.4235 407.711 71.3704C409.147 71.3704 410.741 71.2906 412.496 71.1311C413.24 70.9716 413.745 70.6527 414.011 70.1742C414.117 69.9084 416.005 62.4391 419.673 47.7664C423.341 33.0937 425.202 25.651 425.255 25.4384C425.255 25.0662 425.148 24.8802 424.936 24.8802C424.51 24.7207 423.102 24.5878 420.709 24.4815H418.237C417.918 24.1625 417.759 23.9498 417.759 23.8435C417.759 23.7372 417.812 23.2853 417.918 22.4879C418.131 21.5841 418.397 21.0259 418.716 20.8133H461.697C462.069 21.0259 462.256 21.3183 462.256 21.6904C462.256 21.9563 461.91 24.9333 461.219 30.6217C460.528 36.31 460.156 39.2339 460.102 39.3934C459.996 39.7655 459.464 39.9516 458.508 39.9516H457.551C457.179 39.6858 456.992 39.3402 456.992 38.9149C456.992 38.8618 457.072 38.2238 457.232 37.0011C457.391 35.7784 457.471 34.3696 457.471 32.7747C457.471 31.1799 457.285 29.8774 456.913 28.8673C456.541 27.8572 456.036 27.0332 455.398 26.3953C454.76 25.7573 453.776 25.332 452.447 25.1194C451.118 24.9068 449.762 24.7207 448.38 24.5612C446.998 24.4017 445.084 24.3751 442.639 24.4815H440.805C436.445 24.5346 434.133 24.6144 433.867 24.7207C433.601 24.827 433.415 25.0397 433.309 25.3586C433.256 25.4118 432.352 28.8939 430.598 35.805L428.046 46.0918H432.432C432.591 46.0918 433.202 46.0918 434.266 46.0918C435.329 46.0918 436.073 46.0652 436.499 46.0121C436.924 45.9589 437.509 45.8792 438.253 45.7728C438.997 45.6665 439.635 45.4805 440.167 45.2146C440.698 44.9488 441.15 44.6299 441.522 44.2577C442.213 43.6198 442.798 42.7426 443.277 41.6262C443.755 40.5098 444.101 39.4997 444.313 38.596C444.526 37.6922 444.659 37.2138 444.712 37.1606C444.872 36.8948 445.377 36.7619 446.227 36.7619H447.184C447.556 37.0277 447.742 37.2935 447.742 37.5593C447.742 37.7188 446.918 41.2009 445.27 48.0057C443.622 54.8104 442.718 58.3191 442.559 58.5317C442.453 58.9039 441.921 59.0899 440.964 59.0899H440.007C439.635 58.771 439.449 58.452 439.449 58.133C439.449 57.9735 439.582 57.3888 439.848 56.3787C440.114 55.3686 440.246 54.3054 440.246 53.189C440.246 51.6473 439.715 50.6903 438.652 50.3182C437.588 49.9461 435.223 49.76 431.554 49.76H427.169L424.617 59.8874C422.916 66.4795 422.065 69.935 422.065 70.254C422.065 70.9982 424.431 71.3704 429.162 71.3704H431.156C431.475 71.6893 431.634 71.8754 431.634 71.9286C431.634 71.9817 431.581 72.5133 431.475 73.5234C431.262 74.2145 430.996 74.7196 430.677 75.0385H429.322C427.142 74.9322 423.128 74.8791 417.28 74.8791C413.825 74.8791 411.193 74.8791 409.386 74.8791C407.578 74.8791 406.568 74.9056 406.356 74.9588Z" fill="#6C63FF"/>
<path d="M455.501 1.83442C455.501 1.40913 455.634 1.03699 455.9 0.718022C456.166 0.39905 456.564 0.239564 457.096 0.239564C457.468 0.239564 457.787 0.372469 458.053 0.638279C458.319 0.850927 458.585 1.35597 458.85 2.1534C459.382 4.12039 460.472 5.63551 462.12 6.69875C462.705 7.07088 462.997 7.54934 462.997 8.13413C462.997 8.61258 462.917 8.93156 462.758 9.09104C462.598 9.25053 462.226 9.48976 461.641 9.80873C459.355 10.9783 457.362 12.6529 455.661 14.8325C455.554 14.9389 455.422 15.0984 455.262 15.311C455.103 15.5236 454.97 15.6831 454.863 15.7895C454.757 15.8958 454.624 15.9489 454.465 15.9489C454.305 15.9489 454.119 15.9755 453.906 16.0287C453.534 16.0287 453.189 15.8958 452.87 15.63C452.551 15.3642 452.365 14.9654 452.312 14.4338C452.312 13.4237 453.561 11.8555 456.059 9.72899H442.423L428.787 9.64924C428.096 9.17078 427.751 8.66575 427.751 8.13413C427.751 7.76199 428.096 7.23037 428.787 6.53926H457.415C456.139 4.51911 455.501 2.95083 455.501 1.83442Z" fill="#6C63FF"/>
<path d="M467.565 62.3627C466.851 62.3627 466.494 62.2123 466.494 61.9116C466.494 61.7237 466.794 60.6713 467.396 58.7545C467.997 56.8376 468.636 54.9395 469.313 53.0602L470.271 50.2977C470.459 49.6212 470.703 49.1326 471.004 48.8319H497.389H502.463C503.666 48.8319 504.38 48.8507 504.605 48.8882C504.831 48.9258 504.962 49.095 505 49.3957C505 49.6212 504.681 51.7635 504.042 55.8228C503.403 59.882 503.046 61.9304 502.97 61.968C502.97 62.2311 502.613 62.3627 501.899 62.3627C501.561 62.3627 501.335 62.3627 501.223 62.3627C501.11 62.3627 500.997 62.2687 500.884 62.0808L500.772 61.9116C500.772 61.6861 500.884 60.8405 501.11 59.3746C501.335 57.9088 501.448 56.7624 501.448 55.9355C501.448 54.62 501.204 53.624 500.715 52.9475C500.227 52.2709 499.193 51.8011 497.614 51.538C497.427 51.5004 496.337 51.4629 494.344 51.4253C492.616 51.4253 491.526 51.4441 491.075 51.4816C490.624 51.5192 490.285 51.6696 490.06 51.9327C490.022 51.9703 488.688 57.2134 486.057 67.6622C483.426 78.111 482.11 83.4294 482.11 83.6173C482.11 84.0683 483.764 84.3314 487.072 84.4066C488.274 84.4066 489.045 84.4254 489.383 84.463C489.721 84.5006 489.891 84.6697 489.891 84.9704C489.891 85.1583 489.834 85.4214 489.721 85.7597C489.571 86.4362 489.402 86.8309 489.214 86.9436L489.101 87C488.989 87 488.857 87 488.707 87C488.519 87 487.542 86.9812 485.775 86.9436C484.008 86.906 481.471 86.8872 478.164 86.8872C473.315 86.8872 470.233 86.9248 468.918 87H468.072C467.847 86.7745 467.734 86.6054 467.734 86.4926C467.734 86.3798 467.772 86.0416 467.847 85.4778C467.997 84.9892 468.185 84.6321 468.41 84.4066H469.989H470.609C473.616 84.4066 475.401 84.2375 475.965 83.8992C476.003 83.8616 476.04 83.8428 476.078 83.8428C476.266 83.7301 476.454 83.3542 476.642 82.7152C476.83 82.0763 477.581 79.1258 478.897 73.8638C479.536 71.308 480.062 69.222 480.475 67.6059C483.106 57.2698 484.422 51.9891 484.422 51.7635C484.422 51.5756 483.877 51.4816 482.787 51.4816H481.039C478.521 51.4816 476.867 51.5944 476.078 51.8199C474.387 52.1958 473.071 52.9663 472.131 54.1314C471.192 55.2966 470.177 57.4765 469.087 60.6713C468.824 61.4982 468.636 61.9868 468.523 62.1372C468.41 62.2875 468.147 62.3627 467.734 62.3627H467.565Z" fill="#6C63FF"/>
</svg>
