<svg width="39" height="56" viewBox="0 0 39 56" fill="none" xmlns="http://www.w3.org/2000/svg">
<path d="M0 39.1993C0 33.921 1.18735 28.358 3.56206 22.5105C5.93677 16.6629 9.16393 11.6175 13.2436 7.37413C17.3232 3.13077 21.555 0.698601 25.9391 0.0776215C26 0.0776215 26.2436 0.0776215 26.6698 0.0776215C27.096 0.0776215 27.4614 0.0517502 27.7658 0C31.0539 0.206993 33.6112 1.47483 35.4379 3.8035C37.8126 6.90839 39 11.0741 39 16.3007C39 22.2517 37.63 28.3063 34.8899 34.4643C32.1499 40.6224 28.6487 45.6678 24.3864 49.6007C20.1241 53.5336 16.0445 55.5 12.1475 55.5H11.5082C9.31616 55.5 7.42857 54.9825 5.84543 53.9476C4.2623 52.9126 3.07494 51.5413 2.28337 49.8336C1.4918 48.1259 0.913349 46.3923 0.548009 44.6329C0.18267 42.8734 0 41.0622 0 39.1993ZM31.7845 10.7895C31.7845 5.51119 30.171 2.87203 26.9438 2.87203C24.7518 2.87203 22.6206 4.03637 20.5504 6.36504C18.4801 8.69371 16.7752 11.3329 15.4356 14.2825C14.096 17.2322 13.0609 19.8196 12.3302 22.0448C11.5995 24.2699 11.2037 25.5636 11.1429 25.9259C14.1265 25.9776 17.0796 26.0035 20.0023 26.0035L28.8618 25.9259C28.9227 25.8741 29.1663 25.0203 29.5925 23.3643C30.0187 21.7084 30.5059 19.6385 31.0539 17.1545C31.6019 14.6706 31.8454 12.549 31.7845 10.7895ZM7.12412 44.4776C7.12412 49.9629 8.73771 52.7056 11.9649 52.7056C12.8782 52.7056 13.8525 52.4469 14.8876 51.9294C15.9227 51.4119 17.171 50.4287 18.6323 48.9797C20.0937 47.5308 21.555 45.2797 23.0164 42.2266C24.4778 39.1734 25.9391 35.3958 27.4005 30.8937L27.8571 29.5741H10.0468C10.0468 29.7294 9.77283 30.7126 9.22482 32.5238C8.67682 34.335 8.1897 36.3531 7.76347 38.5783C7.33724 40.8035 7.12412 42.7699 7.12412 44.4776Z" fill="black"/>
</svg>
