<svg width="50" height="84" viewBox="0 0 50 84" fill="none" xmlns="http://www.w3.org/2000/svg">
<path d="M0 59.4098C0 51.4473 1.52225 43.0554 4.56674 34.2342C7.61124 25.413 11.7486 17.8017 16.9789 11.4005C22.2092 4.99922 27.6347 1.33021 33.2553 0.393446C33.3333 0.393446 33.6456 0.393446 34.192 0.393446C34.7385 0.393446 35.2069 0.354414 35.5972 0.27635C39.8126 0.588606 43.0913 2.50117 45.4333 6.01405C48.4778 10.6979 50 16.982 50 24.8665C50 33.8439 48.2436 42.9774 44.7307 52.267C41.2178 61.5566 36.7291 69.1678 31.2646 75.1007C25.8002 81.0336 20.5699 84 15.5738 84H14.7541C11.9438 84 9.52381 83.2194 7.49415 81.6581C5.46448 80.0968 3.94223 78.0281 2.9274 75.452C1.91257 72.8759 1.17096 70.2607 0.702576 67.6066C0.234192 64.9524 0 62.2201 0 59.4098ZM40.7494 16.5527C40.7494 8.59017 38.6807 4.6089 34.5433 4.6089C31.733 4.6089 29.0008 6.36534 26.3466 9.87822C23.6924 13.3911 21.5066 17.3724 19.7892 21.822C18.0718 26.2717 16.7447 30.1749 15.808 33.5316C14.8712 36.8884 14.3638 38.84 14.2857 39.3864C18.1109 39.4645 21.897 39.5035 25.644 39.5035L37.0023 39.3864C37.0804 39.3084 37.3927 38.0203 37.9391 35.5223C38.4856 33.0242 39.1101 29.9016 39.8126 26.1546C40.5152 22.4075 40.8275 19.2069 40.7494 16.5527ZM9.13349 67.3724C9.13349 75.6472 11.2022 79.7845 15.3396 79.7845C16.5105 79.7845 17.7596 79.3942 19.0867 78.6136C20.4137 77.8329 22.0141 76.3497 23.8876 74.1639C25.7611 71.9781 27.6347 68.5824 29.5082 63.9766C31.3817 59.3708 33.2553 53.6721 35.1288 46.8806L35.7143 44.8899H12.8806C12.8806 45.1241 12.5293 46.6073 11.8267 49.3396C11.1241 52.0718 10.4996 55.1163 9.95316 58.4731C9.40671 61.8298 9.13349 64.7963 9.13349 67.3724Z" fill="black"/>
</svg>
