<svg width="46" height="56" viewBox="0 0 46 56" fill="none" xmlns="http://www.w3.org/2000/svg">
<path d="M0 39.1993C0 33.921 1.40047 28.358 4.20141 22.5105C7.00234 16.6629 10.8087 11.6175 15.6206 7.37413C20.4325 3.13077 25.4239 0.698602 30.5948 0.0776233C30.6667 0.0776233 30.9539 0.0776233 31.4567 0.0776233C31.9594 0.0776233 32.3903 0.0517491 32.7494 8.86619e-07C36.6276 0.206994 39.644 1.47483 41.7986 3.8035C44.5995 6.90839 46 11.0741 46 16.3007C46 22.2517 44.3841 28.3063 41.1522 34.4643C37.9204 40.6224 33.7908 45.6678 28.7635 49.6007C23.7361 53.5336 18.9243 55.5 14.3279 55.5H13.5738C10.9883 55.5 8.76191 54.9825 6.89461 53.9476C5.02732 52.9126 3.62685 51.5413 2.69321 49.8336C1.75956 48.1259 1.07728 46.3923 0.64637 44.6329C0.215457 42.8734 0 41.0622 0 39.1993ZM37.4895 10.7895C37.4895 5.51119 35.5863 2.87203 31.7799 2.87203C29.1944 2.87203 26.6807 4.03636 24.2389 6.36504C21.797 8.69371 19.7861 11.3329 18.2061 14.2825C16.6261 17.2322 15.4052 19.8196 14.5433 22.0448C13.6815 24.2699 13.2147 25.5636 13.1429 25.9259C16.662 25.9776 20.1452 26.0035 23.5925 26.0035L34.0422 25.9259C34.114 25.8741 34.4012 25.0203 34.904 23.3643C35.4067 21.7084 35.9813 19.6385 36.6276 17.1545C37.274 14.6706 37.5613 12.549 37.4895 10.7895ZM8.40281 44.4776C8.40281 49.9629 10.306 52.7056 14.1124 52.7056C15.1897 52.7056 16.3388 52.4469 17.5597 51.9294C18.7806 51.4119 20.2529 50.4287 21.9766 48.9797C23.7002 47.5308 25.4239 45.2797 27.1475 42.2266C28.8712 39.1734 30.5948 35.3958 32.3185 30.8937L32.8571 29.5741H11.8501C11.8501 29.7294 11.5269 30.7126 10.8806 32.5238C10.2342 34.335 9.65964 36.3531 9.15691 38.5783C8.65418 40.8035 8.40281 42.7699 8.40281 44.4776Z" fill="black"/>
</svg>
