<svg width="509" height="453" viewBox="0 0 509 453" fill="none" xmlns="http://www.w3.org/2000/svg">
<path d="M108 314.692C108 308.601 109.37 302.182 112.11 295.435C114.85 288.688 118.574 282.866 123.281 277.97C127.988 273.074 132.871 270.268 137.93 269.551C138 269.551 138.281 269.551 138.773 269.551C139.265 269.551 139.686 269.521 140.037 269.462C143.831 269.7 146.782 271.163 148.89 273.85C151.63 277.433 153 282.239 153 288.27C153 295.137 151.419 302.123 148.258 309.228C145.096 316.334 141.056 322.155 136.138 326.693C131.22 331.231 126.513 333.5 122.016 333.5H121.279C118.749 333.5 116.571 332.903 114.745 331.709C112.918 330.515 111.548 328.932 110.635 326.962C109.721 324.991 109.054 322.991 108.632 320.961C108.211 318.931 108 316.841 108 314.692ZM144.674 281.911C144.674 275.821 142.813 272.775 139.089 272.775C136.56 272.775 134.101 274.119 131.712 276.806C129.323 279.493 127.356 282.538 125.81 285.941C124.265 289.345 123.07 292.33 122.227 294.898C121.384 297.465 120.927 298.958 120.857 299.376C124.3 299.436 127.707 299.466 131.08 299.466L141.302 299.376C141.372 299.316 141.653 298.331 142.145 296.42C142.637 294.51 143.199 292.121 143.831 289.255C144.464 286.389 144.745 283.941 144.674 281.911ZM116.22 320.782C116.22 327.111 118.082 330.276 121.806 330.276C122.859 330.276 123.984 329.977 125.178 329.38C126.372 328.783 127.813 327.648 129.499 325.977C131.185 324.305 132.871 321.707 134.557 318.185C136.244 314.662 137.93 310.303 139.616 305.108L140.143 303.586H119.593C119.593 303.765 119.276 304.899 118.644 306.989C118.012 309.079 117.45 311.407 116.958 313.975C116.466 316.542 116.22 318.811 116.22 320.782Z" fill="black"/>
<path d="M192.363 431.425C192.363 432.914 193.636 433.783 196.182 434.031C197.178 434.031 197.676 434.373 197.676 435.055C197.676 435.117 197.621 435.521 197.51 436.265C197.344 437.134 197.178 437.693 197.012 437.941C196.846 438.189 196.486 438.313 195.933 438.313C195.822 438.313 195.49 438.313 194.936 438.313C194.383 438.313 193.442 438.282 192.114 438.22C190.785 438.158 189.014 438.127 186.8 438.127C182.871 438.127 180.352 438.189 179.245 438.313H178.581C178.194 437.879 178 437.537 178 437.289C178.111 435.614 178.47 434.528 179.079 434.031H180.242C184.116 433.845 186.939 432.294 188.71 429.377C189.042 429.005 194.051 419.541 203.737 400.986C213.423 382.431 218.349 373.029 218.515 372.781C218.902 372.036 219.566 371.664 220.507 371.664H221.171H222.583C222.915 372.222 223.081 372.533 223.081 372.595L225.405 402.661C226.955 422.706 227.785 432.821 227.896 433.007C228.173 433.69 229.972 434.031 233.292 434.031C234.676 434.031 235.368 434.342 235.368 434.962C235.368 435.086 235.285 435.521 235.119 436.265C234.953 437.196 234.815 437.755 234.704 437.941C234.593 438.127 234.206 438.251 233.542 438.313C233.375 438.313 232.988 438.313 232.379 438.313C231.77 438.313 230.691 438.282 229.141 438.22C227.592 438.158 225.571 438.127 223.081 438.127C217.878 438.127 214.474 438.189 212.869 438.313H211.873C211.541 437.941 211.375 437.662 211.375 437.475C211.375 437.289 211.43 436.731 211.541 435.8C211.762 434.993 211.928 434.497 212.039 434.311L212.371 434.031H214.031C217.02 433.845 218.791 433.318 219.345 432.449L218.349 418.486H198.589L195.767 423.885C193.497 428.167 192.363 430.68 192.363 431.425ZM217.933 414.111C217.933 413.428 217.601 408.588 216.937 399.59C216.273 390.591 215.886 386.061 215.775 385.999L213.533 390.002C212.648 391.677 210.904 394.997 208.303 399.962L200.831 414.111L209.382 414.204C215.083 414.204 217.933 414.173 217.933 414.111Z" fill="#4066E0"/>
<path d="M240.413 433.257C240.687 431.414 241.743 429.286 243.582 426.873C245.421 424.46 247.691 423.231 250.391 423.187C251.761 423.187 253.013 423.582 254.148 424.372C255.282 425.162 256.124 426.149 256.672 427.333C258.315 424.569 260.291 423.187 262.6 423.187C264.048 423.187 265.3 423.67 266.356 424.635C267.413 425.6 267.961 426.895 268 428.518C268 429.79 267.726 430.821 267.178 431.611C266.63 432.401 266.102 432.884 265.593 433.059C265.085 433.235 264.635 433.322 264.243 433.322C263.5 433.322 262.893 433.081 262.424 432.598C261.954 432.116 261.719 431.48 261.719 430.69C261.719 428.672 262.698 427.29 264.654 426.544C264.224 425.973 263.441 425.688 262.306 425.688C261.798 425.688 261.426 425.732 261.191 425.82C259.704 426.522 258.609 427.97 257.904 430.163C255.556 439.86 254.382 445.519 254.382 447.143C254.382 448.371 254.695 449.249 255.322 449.775C255.948 450.302 256.632 450.565 257.376 450.565C258.824 450.565 260.252 449.841 261.661 448.393C263.069 446.945 264.028 445.168 264.537 443.062C264.654 442.624 264.772 442.382 264.889 442.339C265.006 442.295 265.32 442.251 265.828 442.207H266.063C266.65 442.207 266.943 442.382 266.943 442.733C266.943 442.777 266.904 443.019 266.826 443.457C266.2 445.958 264.987 448.174 263.187 450.104C261.387 452.035 259.293 453 256.906 453C254.167 453 252.093 451.618 250.685 448.854C249.08 451.574 247.241 452.934 245.167 452.934H244.815C242.898 452.934 241.528 452.364 240.706 451.223C239.884 450.082 239.454 448.876 239.415 447.603C239.415 446.199 239.787 445.059 240.53 444.181C241.274 443.304 242.154 442.865 243.171 442.865C244.854 442.865 245.695 443.786 245.695 445.629C245.695 446.507 245.461 447.274 244.991 447.933C244.521 448.591 244.071 449.029 243.641 449.249C243.211 449.468 242.956 449.578 242.878 449.578L242.702 449.644C242.702 449.687 242.819 449.775 243.054 449.907C243.289 450.038 243.602 450.192 243.993 450.368C244.384 450.543 244.756 450.609 245.108 450.565C246.517 450.565 247.73 449.578 248.748 447.603C249.1 446.901 249.55 445.41 250.098 443.128C250.645 440.847 251.193 438.478 251.741 436.021C252.289 433.564 252.602 432.116 252.68 431.677C252.876 430.492 252.974 429.637 252.974 429.11C252.974 427.882 252.68 427.004 252.093 426.478C251.506 425.951 250.841 425.688 250.098 425.688C248.532 425.688 247.065 426.39 245.695 427.794C244.326 429.198 243.367 430.997 242.819 433.191C242.741 433.586 242.643 433.805 242.526 433.849C242.408 433.893 242.095 433.937 241.587 433.98H240.765C240.53 433.717 240.413 433.476 240.413 433.257Z" fill="#4066E0"/>
<path d="M433.608 198.342C433.608 199.65 434.903 200.413 437.492 200.631C438.506 200.631 439.012 200.931 439.012 201.53C439.012 201.585 438.956 201.939 438.843 202.593C438.674 203.356 438.506 203.846 438.337 204.064C438.168 204.282 437.802 204.391 437.239 204.391C437.126 204.391 436.789 204.391 436.226 204.391C435.663 204.391 434.706 204.364 433.355 204.31C432.004 204.255 430.202 204.228 427.951 204.228C423.954 204.228 421.392 204.282 420.267 204.391H419.591C419.197 204.01 419 203.71 419 203.492C419.113 202.021 419.478 201.067 420.098 200.631H421.28C425.22 200.468 428.091 199.105 429.893 196.544C430.23 196.217 435.325 187.907 445.176 171.613C455.028 155.319 460.038 147.063 460.207 146.845C460.601 146.191 461.276 145.864 462.233 145.864H462.909H464.344C464.682 146.354 464.851 146.627 464.851 146.681L467.215 173.084C468.791 190.686 469.636 199.568 469.748 199.732C470.03 200.331 471.859 200.631 475.237 200.631C476.644 200.631 477.348 200.904 477.348 201.449C477.348 201.558 477.263 201.939 477.095 202.593C476.926 203.41 476.785 203.901 476.672 204.064C476.56 204.228 476.166 204.337 475.49 204.391C475.321 204.391 474.927 204.391 474.308 204.391C473.689 204.391 472.591 204.364 471.015 204.31C469.439 204.255 467.384 204.228 464.851 204.228C459.559 204.228 456.097 204.282 454.465 204.391H453.451C453.114 204.064 452.945 203.819 452.945 203.656C452.945 203.492 453.001 203.002 453.114 202.184C453.339 201.476 453.508 201.04 453.62 200.876L453.958 200.631H455.647C458.687 200.468 460.488 200.004 461.051 199.241L460.038 186.98H439.941L437.07 191.721C434.762 195.481 433.608 197.688 433.608 198.342ZM459.616 183.138C459.616 182.539 459.278 178.288 458.602 170.386C457.927 162.485 457.533 158.506 457.42 158.452L455.14 161.967C454.24 163.438 452.466 166.354 449.821 170.713L442.221 183.138L450.918 183.22C456.716 183.22 459.616 183.193 459.616 183.138Z" fill="#4066E0"/>
<path d="M480.628 200.066C480.628 199.527 480.927 198.602 481.524 197.292C482.121 195.982 483.076 194.615 484.389 193.189C485.703 191.764 487.175 191.07 488.807 191.109C490.439 191.109 491.752 191.552 492.747 192.438C493.742 193.324 494.259 194.557 494.299 196.137C494.22 196.869 494.16 197.273 494.12 197.35C494.12 197.466 493.802 198.352 493.165 200.009C492.528 201.665 491.871 203.534 491.195 205.614C490.518 207.695 490.2 209.352 490.24 210.584C490.24 212.241 490.518 213.397 491.075 214.052C491.633 214.707 492.468 215.054 493.583 215.092C494.498 215.092 495.354 214.88 496.15 214.457C496.946 214.033 497.563 213.59 498 213.127C498.438 212.665 498.976 212.029 499.612 211.22C499.612 211.182 499.712 210.796 499.911 210.064C500.11 209.332 500.388 208.196 500.747 206.655C501.105 205.114 501.483 203.688 501.881 202.378C503.393 196.599 504.229 193.574 504.388 193.305C504.906 192.264 505.761 191.744 506.955 191.744C507.473 191.744 507.891 191.879 508.209 192.149C508.527 192.419 508.746 192.65 508.866 192.842C508.985 193.035 509.025 193.208 508.985 193.362C508.985 193.863 508.01 197.909 506.06 205.499C504.11 213.089 502.995 217.25 502.717 217.982C501.602 221.18 499.672 223.723 496.926 225.61C494.18 227.498 491.434 228.461 488.687 228.5C486.896 228.5 485.324 228.076 483.971 227.229C482.618 226.381 481.941 225.11 481.941 223.414C481.941 222.567 482.081 221.854 482.359 221.276C482.638 220.698 483.016 220.274 483.494 220.005C483.971 219.735 484.369 219.542 484.688 219.427C485.006 219.311 485.344 219.253 485.703 219.253C487.454 219.253 488.329 220.062 488.329 221.681C488.329 222.451 488.09 223.125 487.613 223.703C487.135 224.281 486.678 224.666 486.24 224.859C485.802 225.052 485.543 225.148 485.464 225.148L485.285 225.206C485.364 225.398 485.742 225.63 486.419 225.899C487.095 226.169 487.772 226.304 488.449 226.304H488.926C489.603 226.304 490.12 226.265 490.478 226.188C491.792 225.842 493.006 225.11 494.12 223.992C495.234 222.875 496.09 221.681 496.687 220.409C497.284 219.138 497.742 218.059 498.06 217.173C498.379 216.287 498.538 215.709 498.538 215.439L498.18 215.67C497.941 215.824 497.563 216.036 497.045 216.306C496.528 216.576 496.011 216.807 495.493 216.999C494.697 217.192 493.921 217.288 493.165 217.288C491.334 217.288 489.722 216.865 488.329 216.017C486.936 215.169 486.021 213.802 485.583 211.914C485.543 211.644 485.523 211.047 485.523 210.122C485.523 207.926 486.22 205.056 487.613 201.511C489.006 197.967 489.702 195.713 489.702 194.749C489.702 194.711 489.702 194.672 489.702 194.634C489.702 194.287 489.702 194.056 489.702 193.94C489.702 193.825 489.623 193.69 489.464 193.536C489.304 193.382 489.085 193.305 488.807 193.305H488.568C487.653 193.305 486.817 193.671 486.061 194.403C485.305 195.135 484.708 195.925 484.27 196.772C483.832 197.62 483.494 198.429 483.255 199.199C483.016 199.97 482.857 200.394 482.777 200.471C482.698 200.548 482.379 200.586 481.822 200.586H480.986C480.748 200.355 480.628 200.182 480.628 200.066Z" fill="#4066E0"/>
<path d="M14.4058 352.051L394.5 12.2934V352.051H14.4058Z" stroke="#4066E0" stroke-width="11"/>
<path d="M86.6636 184.5H86.4972C85.8318 184.5 85.3327 184.099 85 183.298V141.573L85.0832 99.8475C85.6377 99.1034 86.1645 98.7314 86.6636 98.7314C87.3845 98.7314 87.939 99.1607 88.3272 100.019V183.298C87.8835 184.099 87.3845 184.5 86.8299 184.5H86.6636Z" fill="#4066E0"/>
<path d="M115.527 156.769C115.527 158.143 116.802 158.944 119.353 159.173C120.351 159.173 120.85 159.488 120.85 160.117C120.85 160.175 120.795 160.547 120.684 161.233C120.518 162.035 120.351 162.55 120.185 162.779C120.018 163.008 119.658 163.122 119.104 163.122C118.993 163.122 118.66 163.122 118.105 163.122C117.551 163.122 116.608 163.094 115.277 163.036C113.946 162.979 112.172 162.951 109.954 162.951C106.017 162.951 103.494 163.008 102.384 163.122H101.719C101.331 162.722 101.137 162.407 101.137 162.178C101.248 160.632 101.608 159.631 102.218 159.173H103.383C107.264 159.001 110.092 157.57 111.867 154.88C112.2 154.537 117.218 145.808 126.922 128.695C136.627 111.581 141.562 102.91 141.728 102.681C142.116 101.994 142.782 101.65 143.725 101.65H144.39H145.804C146.137 102.166 146.303 102.452 146.303 102.509L148.632 130.24C150.185 148.727 151.017 158.057 151.128 158.229C151.405 158.858 153.207 159.173 156.534 159.173C157.921 159.173 158.614 159.459 158.614 160.031C158.614 160.146 158.531 160.547 158.364 161.233C158.198 162.092 158.059 162.607 157.948 162.779C157.837 162.951 157.449 163.065 156.784 163.122C156.617 163.122 156.229 163.122 155.619 163.122C155.009 163.122 153.928 163.094 152.375 163.036C150.823 162.979 148.799 162.951 146.303 162.951C141.091 162.951 137.68 163.008 136.072 163.122H135.074C134.741 162.779 134.575 162.521 134.575 162.35C134.575 162.178 134.63 161.663 134.741 160.804C134.963 160.06 135.129 159.602 135.24 159.43L135.573 159.173H137.237C140.231 159.001 142.006 158.515 142.56 157.713L141.562 144.835H121.765L118.937 149.815C116.664 153.764 115.527 156.082 115.527 156.769ZM141.146 140.8C141.146 140.17 140.813 135.706 140.148 127.407C139.482 119.108 139.094 114.929 138.983 114.872L136.738 118.564C135.85 120.109 134.104 123.171 131.497 127.75L124.011 140.8L132.579 140.886C138.29 140.886 141.146 140.857 141.146 140.8Z" fill="#4066E0"/>
<path d="M151.543 81.2171C151.543 80.7592 151.682 80.3585 151.959 80.0151C152.237 79.6717 152.653 79.5 153.207 79.5C153.595 79.5 153.928 79.6431 154.205 79.9293C154.482 80.1582 154.76 80.702 155.037 81.5605C155.592 83.6782 156.728 85.3095 158.447 86.4542C159.057 86.8549 159.362 87.37 159.362 87.9996C159.362 88.5147 159.279 88.8581 159.113 89.0298C158.946 89.2015 158.558 89.4591 157.948 89.8025C155.564 91.0617 153.484 92.8647 151.71 95.2114C151.599 95.3258 151.46 95.4975 151.294 95.7265C151.128 95.9554 150.989 96.1271 150.878 96.2416C150.767 96.3561 150.628 96.4133 150.462 96.4133C150.296 96.4133 150.102 96.4419 149.88 96.4992C149.492 96.4992 149.131 96.3561 148.799 96.0699C148.466 95.7837 148.272 95.3544 148.216 94.7821C148.216 93.6946 149.519 92.0061 152.126 89.7167H137.902L123.678 89.6308C122.957 89.1157 122.597 88.5719 122.597 87.9996C122.597 87.5989 122.957 87.0266 123.678 86.2825H153.54C152.209 84.1075 151.543 82.419 151.543 81.2171Z" fill="#4066E0"/>
<path d="M173.336 184.5H173.17C172.505 184.5 172.006 184.099 171.673 183.298V141.573L171.756 99.8475C172.311 99.1034 172.837 98.7314 173.336 98.7314C174.057 98.7314 174.612 99.1607 175 100.019V183.298C174.556 184.099 174.057 184.5 173.503 184.5H173.336Z" fill="#4066E0"/>
</svg>
