<svg width="268" height="239" viewBox="0 0 268 239" fill="none" xmlns="http://www.w3.org/2000/svg">
<path d="M73 147.252C73 143.448 73.8829 139.438 75.6487 135.224C77.4145 131.009 79.8142 127.373 82.8478 124.315C85.8813 121.256 89.0281 119.503 92.2881 119.056C92.3333 119.056 92.5144 119.056 92.8314 119.056C93.1483 119.056 93.42 119.037 93.6464 119C96.0913 119.149 97.993 120.063 99.3513 121.741C101.117 123.979 102 126.981 102 130.748C102 135.037 100.981 139.401 98.9438 143.839C96.9063 148.277 94.3029 151.914 91.1335 154.748C87.9641 157.583 84.9305 159 82.0328 159H81.5574C79.9274 159 78.5238 158.627 77.3466 157.881C76.1694 157.135 75.2865 156.147 74.6979 154.916C74.1093 153.685 73.6792 152.436 73.4075 151.168C73.1358 149.9 73 148.594 73 147.252ZM96.6347 126.776C96.6347 122.972 95.4348 121.07 93.0351 121.07C91.4052 121.07 89.8205 121.909 88.281 123.587C86.7416 125.266 85.4738 127.168 84.4778 129.294C83.4817 131.42 82.7119 133.284 82.1686 134.888C81.6253 136.492 81.331 137.424 81.2857 137.685C83.5043 137.723 85.7002 137.741 87.8735 137.741L94.4614 137.685C94.5066 137.648 94.6877 137.033 95.0047 135.839C95.3216 134.646 95.6838 133.154 96.0913 131.364C96.4988 129.573 96.6799 128.044 96.6347 126.776ZM78.2974 151.056C78.2974 155.009 79.4973 156.986 81.897 156.986C82.5761 156.986 83.3005 156.8 84.0703 156.427C84.84 156.054 85.7682 155.345 86.8548 154.301C87.9415 153.256 89.0281 151.634 90.1148 149.434C91.2014 147.233 92.2881 144.51 93.3747 141.266L93.7143 140.315H80.4707C80.4707 140.427 80.267 141.135 79.8595 142.441C79.452 143.746 79.0898 145.2 78.7728 146.804C78.4559 148.408 78.2974 149.825 78.2974 151.056Z" fill="black"/>
<path d="M88.7772 225.815C88.7772 226.725 89.5552 227.256 91.1111 227.408C91.7199 227.408 92.0243 227.617 92.0243 228.034C92.0243 228.072 91.9905 228.318 91.9228 228.773C91.8214 229.304 91.7199 229.646 91.6184 229.797C91.517 229.949 91.2971 230.025 90.9589 230.025C90.8912 230.025 90.6883 230.025 90.35 230.025C90.0118 230.025 89.4368 230.006 88.625 229.968C87.8133 229.93 86.7309 229.911 85.378 229.911C82.9765 229.911 81.4375 229.949 80.761 230.025H80.3551C80.1184 229.759 80 229.551 80 229.399C80.0676 228.375 80.2875 227.711 80.6596 227.408H81.3699C83.7375 227.294 85.4625 226.346 86.5449 224.564C86.7478 224.336 89.8089 218.553 95.728 207.214C101.647 195.874 104.657 190.129 104.759 189.977C104.996 189.522 105.402 189.295 105.977 189.295H106.382H107.245C107.448 189.636 107.549 189.826 107.549 189.863L108.97 208.238C109.917 220.487 110.424 226.668 110.492 226.782C110.661 227.199 111.76 227.408 113.79 227.408C114.635 227.408 115.058 227.598 115.058 227.977C115.058 228.053 115.007 228.318 114.906 228.773C114.805 229.342 114.72 229.683 114.652 229.797C114.585 229.911 114.348 229.987 113.942 230.025C113.841 230.025 113.604 230.025 113.232 230.025C112.86 230.025 112.2 230.006 111.253 229.968C110.306 229.93 109.071 229.911 107.549 229.911C104.37 229.911 102.29 229.949 101.309 230.025H100.7C100.497 229.797 100.396 229.627 100.396 229.513C100.396 229.399 100.429 229.058 100.497 228.489C100.632 227.996 100.734 227.692 100.802 227.579L101.004 227.408H102.019C103.846 227.294 104.928 226.972 105.266 226.441L104.657 217.908H92.5824L90.8574 221.207C89.4706 223.824 88.7772 225.36 88.7772 225.815ZM104.404 215.234C104.404 214.817 104.201 211.859 103.795 206.36C103.389 200.861 103.152 198.093 103.085 198.055L101.715 200.501C101.174 201.525 100.108 203.554 98.5184 206.588L93.9523 215.234L99.178 215.291C102.662 215.291 104.404 215.272 104.404 215.234Z" fill="#4066E0"/>
<path d="M118.141 226.935C118.308 225.808 118.954 224.508 120.078 223.033C121.202 221.559 122.589 220.808 124.239 220.781C125.076 220.781 125.841 221.022 126.535 221.505C127.228 221.988 127.742 222.591 128.077 223.315C129.081 221.626 130.289 220.781 131.7 220.781C132.585 220.781 133.35 221.076 133.996 221.666C134.641 222.256 134.976 223.047 135 224.039C135 224.816 134.833 225.446 134.498 225.929C134.163 226.412 133.84 226.707 133.529 226.814C133.218 226.921 132.943 226.975 132.704 226.975C132.25 226.975 131.879 226.827 131.592 226.532C131.305 226.237 131.162 225.849 131.162 225.366C131.162 224.133 131.76 223.288 132.955 222.832C132.692 222.484 132.214 222.309 131.521 222.309C131.21 222.309 130.983 222.336 130.839 222.39C129.93 222.819 129.261 223.704 128.83 225.044C127.396 230.97 126.678 234.429 126.678 235.421C126.678 236.171 126.869 236.708 127.252 237.029C127.635 237.351 128.053 237.512 128.508 237.512C129.392 237.512 130.265 237.07 131.126 236.185C131.987 235.3 132.573 234.214 132.884 232.927C132.955 232.659 133.027 232.511 133.099 232.485C133.171 232.458 133.362 232.431 133.673 232.404H133.816C134.175 232.404 134.354 232.511 134.354 232.726C134.354 232.753 134.33 232.9 134.283 233.168C133.9 234.697 133.159 236.051 132.059 237.23C130.959 238.41 129.679 239 128.221 239C126.547 239 125.279 238.155 124.418 236.466C123.438 238.129 122.314 238.96 121.047 238.96H120.831C119.66 238.96 118.823 238.611 118.32 237.914C117.818 237.217 117.555 236.48 117.531 235.702C117.531 234.844 117.758 234.147 118.213 233.611C118.667 233.075 119.205 232.806 119.827 232.806C120.855 232.806 121.369 233.369 121.369 234.496C121.369 235.032 121.226 235.501 120.939 235.903C120.652 236.305 120.377 236.574 120.114 236.708C119.851 236.842 119.695 236.909 119.648 236.909L119.54 236.949C119.54 236.976 119.612 237.029 119.755 237.11C119.899 237.19 120.09 237.284 120.329 237.391C120.568 237.499 120.795 237.539 121.011 237.512C121.872 237.512 122.613 236.909 123.235 235.702C123.45 235.273 123.725 234.361 124.06 232.967C124.394 231.573 124.729 230.125 125.064 228.624C125.399 227.122 125.59 226.237 125.638 225.969C125.757 225.245 125.817 224.723 125.817 224.401C125.817 223.65 125.638 223.114 125.279 222.792C124.921 222.47 124.514 222.309 124.06 222.309C123.103 222.309 122.206 222.738 121.369 223.596C120.532 224.454 119.947 225.554 119.612 226.894C119.564 227.136 119.504 227.27 119.432 227.296C119.361 227.323 119.169 227.35 118.859 227.377H118.356C118.213 227.216 118.141 227.069 118.141 226.935Z" fill="#4066E0"/>
<path d="M217.739 103.198C217.739 104.1 218.602 104.627 220.328 104.777C221.004 104.777 221.341 104.984 221.341 105.397C221.341 105.435 221.304 105.679 221.229 106.13C221.116 106.656 221.004 106.995 220.891 107.145C220.779 107.295 220.535 107.371 220.159 107.371C220.084 107.371 219.859 107.371 219.484 107.371C219.109 107.371 218.471 107.352 217.57 107.314C216.669 107.277 215.468 107.258 213.967 107.258C211.303 107.258 209.595 107.295 208.844 107.371H208.394C208.131 107.107 208 106.901 208 106.75C208.075 105.735 208.319 105.078 208.732 104.777H209.52C212.147 104.664 214.061 103.724 215.262 101.958C215.487 101.732 218.883 95.9999 225.451 84.7608C232.018 73.5217 235.358 67.8269 235.471 67.6766C235.734 67.2255 236.184 67 236.822 67H237.272H238.229C238.455 67.3383 238.567 67.5262 238.567 67.5638L240.143 85.7757C241.194 97.9169 241.757 104.044 241.832 104.157C242.02 104.57 243.24 104.777 245.491 104.777C246.429 104.777 246.899 104.965 246.899 105.341C246.899 105.416 246.842 105.679 246.73 106.13C246.617 106.694 246.523 107.032 246.448 107.145C246.373 107.258 246.11 107.333 245.66 107.371C245.548 107.371 245.285 107.371 244.872 107.371C244.459 107.371 243.727 107.352 242.677 107.314C241.626 107.277 240.256 107.258 238.567 107.258C235.039 107.258 232.731 107.295 231.643 107.371H230.968C230.742 107.145 230.63 106.976 230.63 106.863C230.63 106.75 230.667 106.412 230.742 105.848C230.893 105.36 231.005 105.059 231.08 104.946L231.305 104.777H232.431C234.458 104.664 235.659 104.345 236.034 103.818L235.358 95.3609H221.961L220.047 98.6311C218.508 101.225 217.739 102.747 217.739 103.198ZM235.077 92.7108C235.077 92.2974 234.852 89.3654 234.401 83.915C233.951 78.4646 233.688 75.7206 233.613 75.683L232.093 78.1075C231.493 79.1224 230.311 81.1334 228.547 84.1406L223.481 92.7108L229.279 92.7672C233.144 92.7672 235.077 92.7484 235.077 92.7108Z" fill="#4066E0"/>
<path d="M249.085 104.387C249.085 104.015 249.284 103.377 249.682 102.474C250.08 101.57 250.717 100.627 251.593 99.6436C252.468 98.6604 253.45 98.182 254.538 98.2086C255.626 98.2086 256.501 98.5142 257.165 99.1254C257.828 99.7367 258.173 100.587 258.199 101.677C258.146 102.182 258.107 102.461 258.08 102.514C258.08 102.594 257.868 103.205 257.443 104.347C257.019 105.49 256.581 106.779 256.13 108.214C255.679 109.649 255.467 110.792 255.493 111.642C255.493 112.785 255.679 113.582 256.05 114.034C256.422 114.486 256.979 114.725 257.722 114.752C258.332 114.752 258.903 114.606 259.433 114.313C259.964 114.021 260.375 113.715 260.667 113.396C260.959 113.078 261.317 112.639 261.742 112.081C261.742 112.054 261.808 111.789 261.941 111.284C262.073 110.779 262.259 109.995 262.498 108.932C262.737 107.869 262.989 106.885 263.254 105.982C264.262 101.996 264.819 99.9094 264.926 99.7234C265.27 99.0058 265.841 98.6471 266.637 98.6471C266.982 98.6471 267.26 98.7401 267.473 98.9261C267.685 99.1121 267.831 99.2716 267.91 99.4045C267.99 99.5373 268.017 99.6569 267.99 99.7632C267.99 100.109 267.34 102.899 266.04 108.134C264.74 113.37 263.997 116.24 263.811 116.745C263.068 118.951 261.781 120.705 259.951 122.007C258.12 123.309 256.289 123.973 254.458 124C253.264 124 252.216 123.708 251.314 123.123C250.412 122.538 249.961 121.661 249.961 120.492C249.961 119.907 250.054 119.416 250.24 119.017C250.425 118.618 250.677 118.326 250.996 118.14C251.314 117.954 251.579 117.821 251.792 117.741C252.004 117.662 252.23 117.622 252.468 117.622C253.636 117.622 254.22 118.18 254.22 119.296C254.22 119.828 254.06 120.293 253.742 120.691C253.424 121.09 253.118 121.356 252.827 121.489C252.535 121.622 252.362 121.688 252.309 121.688L252.19 121.728C252.243 121.861 252.495 122.02 252.946 122.206C253.397 122.392 253.848 122.485 254.299 122.485H254.618C255.069 122.485 255.413 122.459 255.652 122.405C256.528 122.166 257.337 121.661 258.08 120.891C258.823 120.12 259.393 119.296 259.791 118.419C260.189 117.542 260.495 116.798 260.707 116.187C260.919 115.576 261.025 115.177 261.025 114.991L260.786 115.15C260.627 115.257 260.375 115.403 260.03 115.589C259.685 115.775 259.34 115.934 258.995 116.067C258.465 116.2 257.947 116.267 257.443 116.267C256.223 116.267 255.148 115.974 254.22 115.39C253.291 114.805 252.681 113.861 252.389 112.559C252.362 112.373 252.349 111.961 252.349 111.324C252.349 109.809 252.813 107.829 253.742 105.384C254.671 102.939 255.135 101.384 255.135 100.72C255.135 100.693 255.135 100.667 255.135 100.64C255.135 100.401 255.135 100.242 255.135 100.162C255.135 100.082 255.082 99.9891 254.976 99.8828C254.87 99.7765 254.724 99.7234 254.538 99.7234H254.379C253.768 99.7234 253.211 99.9758 252.707 100.481C252.203 100.986 251.805 101.531 251.513 102.115C251.221 102.7 250.996 103.258 250.837 103.789C250.677 104.321 250.571 104.613 250.518 104.666C250.465 104.72 250.253 104.746 249.881 104.746H249.324C249.165 104.587 249.085 104.467 249.085 104.387Z" fill="#4066E0"/>
<path d="M11.8359 169.5L184.5 16.0208V169.5H11.8359Z" stroke="#4066E0" stroke-width="9"/>
<path d="M40.0536 70H39.9482C39.5268 70 39.2107 69.7329 39 69.1987V41.3819L39.0527 13.565C39.4039 13.069 39.7375 12.8209 40.0536 12.8209C40.5102 12.8209 40.8614 13.1071 41.1072 13.6795V69.1987C40.8262 69.7329 40.5102 70 40.159 70H40.0536Z" fill="#4066E0"/>
<path d="M58.3337 51.5127C58.3337 52.4285 59.1414 52.9627 60.757 53.1153C61.3891 53.1153 61.7052 53.3252 61.7052 53.7449C61.7052 53.783 61.6701 54.0311 61.5999 54.489C61.4945 55.0232 61.3891 55.3666 61.2838 55.5192C61.1784 55.6718 60.9501 55.7482 60.5989 55.7482C60.5287 55.7482 60.318 55.7482 59.9668 55.7482C59.6156 55.7482 59.0185 55.7291 58.1756 55.6909C57.3328 55.6528 56.2089 55.6337 54.8041 55.6337C52.3106 55.6337 50.7126 55.6718 50.0102 55.7482H49.5888C49.3429 55.4811 49.22 55.2712 49.22 55.1186C49.2902 54.0883 49.5185 53.4206 49.9048 53.1153H50.6424C53.1008 53.0008 54.8919 52.0469 56.0158 50.2535C56.2265 50.0245 59.4048 44.2055 65.5509 32.7964C71.6969 21.3873 74.8226 15.6064 74.928 15.4538C75.1738 14.9959 75.5952 14.767 76.1923 14.767H76.6137H77.5093C77.72 15.1104 77.8254 15.3012 77.8254 15.3393L79.3004 33.8267C80.2838 46.1515 80.8106 52.3712 80.8808 52.4857C81.0564 52.9054 82.1978 53.1153 84.305 53.1153C85.183 53.1153 85.622 53.3061 85.622 53.6877C85.622 53.764 85.5694 54.0311 85.464 54.489C85.3586 55.0613 85.2708 55.4047 85.2006 55.5192C85.1304 55.6337 84.8845 55.71 84.4631 55.7482C84.3577 55.7482 84.1119 55.7482 83.7255 55.7482C83.3392 55.7482 82.6544 55.7291 81.671 55.6909C80.6877 55.6528 79.4058 55.6337 77.8254 55.6337C74.5241 55.6337 72.3642 55.6718 71.3457 55.7482H70.7135C70.5028 55.5192 70.3975 55.3475 70.3975 55.233C70.3975 55.1186 70.4326 54.7751 70.5028 54.2028C70.6433 53.7067 70.7487 53.4015 70.8189 53.287L71.0296 53.1153H72.0832C73.9797 53.0008 75.1036 52.6765 75.4548 52.1423L74.8226 43.5568H62.2847L60.4936 46.8765C59.0536 49.5094 58.3337 51.0548 58.3337 51.5127ZM74.5592 40.8667C74.5592 40.447 74.3485 37.4707 73.927 31.9379C73.5056 26.405 73.2597 23.6195 73.1895 23.5814L71.7671 26.0425C71.2052 27.0728 70.0989 29.1142 68.4483 32.1668L63.7071 40.8667L69.1331 40.924C72.7505 40.924 74.5592 40.9049 74.5592 40.8667Z" fill="#4066E0"/>
<path d="M81.1442 1.14474C81.1442 0.839479 81.232 0.572376 81.4076 0.343431C81.5832 0.114486 81.8466 1.31577e-05 82.1978 1.31577e-05C82.4436 1.31577e-05 82.6543 0.095407 82.8299 0.286195C83.0055 0.438825 83.1811 0.801321 83.3567 1.37368C83.7079 2.78551 84.4279 3.873 85.5166 4.63615C85.903 4.90326 86.0961 5.24667 86.0961 5.66641C86.0961 6.00983 86.0434 6.23877 85.9381 6.35324C85.8327 6.46772 85.5869 6.63942 85.2006 6.86837C83.6904 7.70784 82.3734 8.9098 81.2495 10.4743C81.1793 10.5506 81.0915 10.665 80.9861 10.8177C80.8808 10.9703 80.793 11.0848 80.7227 11.1611C80.6525 11.2374 80.5647 11.2756 80.4593 11.2756C80.354 11.2756 80.2311 11.2946 80.0906 11.3328C79.8447 11.3328 79.6165 11.2374 79.4057 11.0466C79.195 10.8558 79.0721 10.5697 79.037 10.1881C79.037 9.46308 79.8623 8.33744 81.5129 6.81113H72.5046L63.4963 6.7539C63.0397 6.41048 62.8115 6.04798 62.8115 5.66641C62.8115 5.3993 63.0397 5.01773 63.4963 4.52168H82.4085C81.5656 3.07169 81.1442 1.94605 81.1442 1.14474Z" fill="#4066E0"/>
<path d="M94.9464 70H94.8411C94.4196 70 94.1035 69.7329 93.8928 69.1987V41.3819L93.9455 13.565C94.2967 13.069 94.6303 12.8209 94.9464 12.8209C95.403 12.8209 95.7542 13.1071 96 13.6795V69.1987C95.7191 69.7329 95.403 70 95.0518 70H94.9464Z" fill="#4066E0"/>
</svg>
