<svg width="409" height="317" viewBox="0 0 409 317" fill="none" xmlns="http://www.w3.org/2000/svg">
<line x1="406" x2="406" y2="215" stroke="black" stroke-width="6" stroke-dasharray="5 5"/>
<line x1="0.993248" y1="218.648" x2="403.004" y2="218.648" stroke="#4066E0" stroke-width="6"/>
<path d="M159.322 296.581C158.441 296.581 158 296.322 158 295.803C158 295.7 158.078 295.337 158.233 294.715C158.441 293.885 158.648 293.418 158.855 293.315C159.063 293.211 159.659 293.133 160.644 293.081C162.044 293.081 163.6 293.004 165.311 292.848C166.036 292.692 166.529 292.381 166.788 291.915C166.892 291.656 168.733 284.371 172.31 270.061C175.888 255.751 177.702 248.492 177.754 248.285C177.754 247.922 177.65 247.74 177.443 247.74C177.028 247.585 175.654 247.455 173.321 247.351H170.91C170.599 247.04 170.444 246.833 170.444 246.729C170.444 246.626 170.495 246.185 170.599 245.407C170.806 244.526 171.066 243.981 171.377 243.774H213.296C213.659 243.981 213.84 244.266 213.84 244.629C213.84 244.889 213.503 247.792 212.829 253.34C212.155 258.888 211.792 261.739 211.74 261.895C211.637 262.258 211.118 262.439 210.185 262.439H209.252C208.889 262.18 208.707 261.843 208.707 261.428C208.707 261.376 208.785 260.754 208.941 259.562C209.096 258.369 209.174 256.995 209.174 255.44C209.174 253.884 208.993 252.614 208.63 251.629C208.267 250.644 207.774 249.84 207.152 249.218C206.53 248.596 205.571 248.181 204.274 247.974C202.978 247.766 201.656 247.585 200.308 247.429C198.96 247.274 197.093 247.248 194.708 247.351H192.92C188.668 247.403 186.413 247.481 186.153 247.585C185.894 247.688 185.713 247.896 185.609 248.207C185.557 248.259 184.676 251.655 182.965 258.395L180.476 268.428H184.754C184.909 268.428 185.505 268.428 186.542 268.428C187.579 268.428 188.305 268.402 188.72 268.35C189.135 268.298 189.705 268.22 190.431 268.117C191.157 268.013 191.779 267.831 192.297 267.572C192.816 267.313 193.257 267.002 193.62 266.639C194.294 266.017 194.864 265.161 195.331 264.072C195.797 262.984 196.134 261.998 196.342 261.117C196.549 260.236 196.679 259.769 196.73 259.717C196.886 259.458 197.379 259.328 198.208 259.328H199.141C199.504 259.588 199.686 259.847 199.686 260.106C199.686 260.262 198.882 263.658 197.275 270.294C195.668 276.931 194.786 280.353 194.631 280.56C194.527 280.923 194.008 281.104 193.075 281.104H192.142C191.779 280.793 191.598 280.482 191.598 280.171C191.598 280.016 191.727 279.445 191.986 278.46C192.246 277.475 192.375 276.438 192.375 275.349C192.375 273.846 191.857 272.912 190.82 272.55C189.783 272.187 187.476 272.005 183.898 272.005H179.621L177.132 281.882C175.473 288.311 174.643 291.681 174.643 291.993C174.643 292.718 176.95 293.081 181.565 293.081H183.509C183.82 293.392 183.976 293.574 183.976 293.626C183.976 293.678 183.924 294.196 183.82 295.181C183.613 295.855 183.354 296.348 183.043 296.659H181.72C179.595 296.555 175.68 296.503 169.977 296.503C166.607 296.503 164.04 296.503 162.277 296.503C160.515 296.503 159.53 296.529 159.322 296.581Z" fill="#4066E0"/>
<path d="M207.796 284.296C207.099 284.296 206.751 284.15 206.751 283.856C206.751 283.673 207.044 282.647 207.631 280.777C208.217 278.908 208.841 277.057 209.5 275.224L210.435 272.53C210.618 271.87 210.857 271.393 211.15 271.1H236.883H241.831C243.004 271.1 243.701 271.118 243.921 271.155C244.141 271.192 244.269 271.357 244.306 271.65C244.306 271.87 243.994 273.959 243.371 277.918C242.748 281.877 242.4 283.875 242.326 283.911C242.326 284.168 241.978 284.296 241.282 284.296C240.952 284.296 240.732 284.296 240.622 284.296C240.512 284.296 240.402 284.205 240.292 284.021L240.182 283.856C240.182 283.636 240.292 282.812 240.512 281.382C240.732 279.952 240.842 278.834 240.842 278.028C240.842 276.745 240.603 275.774 240.127 275.114C239.65 274.454 238.642 273.996 237.103 273.739C236.92 273.703 235.856 273.666 233.914 273.629C232.227 273.629 231.164 273.648 230.725 273.684C230.285 273.721 229.955 273.867 229.735 274.124C229.698 274.161 228.397 279.274 225.831 289.465C223.265 299.655 221.982 304.842 221.982 305.026C221.982 305.465 223.595 305.722 226.821 305.795C227.994 305.795 228.745 305.814 229.075 305.85C229.405 305.887 229.57 306.052 229.57 306.345C229.57 306.528 229.515 306.785 229.405 307.115C229.258 307.775 229.093 308.16 228.91 308.27L228.8 308.325C228.69 308.325 228.562 308.325 228.415 308.325C228.232 308.325 227.279 308.306 225.556 308.27C223.833 308.233 221.359 308.215 218.133 308.215C213.404 308.215 210.398 308.251 209.116 308.325H208.291C208.071 308.105 207.961 307.94 207.961 307.83C207.961 307.72 207.997 307.39 208.071 306.84C208.217 306.364 208.401 306.015 208.621 305.795H210.16H210.765C213.698 305.795 215.439 305.63 215.989 305.3C216.025 305.264 216.062 305.246 216.099 305.246C216.282 305.136 216.465 304.769 216.648 304.146C216.832 303.523 217.565 300.645 218.848 295.513C219.471 293.021 219.984 290.986 220.387 289.41C222.953 279.329 224.236 274.179 224.236 273.959C224.236 273.776 223.705 273.684 222.642 273.684H220.937C218.481 273.684 216.868 273.794 216.099 274.014C214.449 274.381 213.166 275.132 212.25 276.269C211.333 277.405 210.344 279.531 209.28 282.647C209.024 283.453 208.841 283.93 208.731 284.076C208.621 284.223 208.364 284.296 207.961 284.296H207.796Z" fill="#4066E0"/>
<path d="M239.729 305.338C239.911 304.249 240.61 302.992 241.828 301.567C243.046 300.142 244.55 299.416 246.338 299.39C247.245 299.39 248.074 299.623 248.826 300.09C249.577 300.556 250.134 301.139 250.497 301.839C251.586 300.206 252.895 299.39 254.424 299.39C255.382 299.39 256.212 299.675 256.912 300.245C257.611 300.815 257.974 301.58 258 302.539C258 303.29 257.819 303.899 257.456 304.366C257.093 304.832 256.743 305.117 256.406 305.221C256.069 305.325 255.771 305.377 255.512 305.377C255.02 305.377 254.618 305.234 254.307 304.949C253.996 304.664 253.84 304.288 253.84 303.822C253.84 302.629 254.488 301.813 255.784 301.373C255.499 301.036 254.981 300.867 254.229 300.867C253.892 300.867 253.646 300.893 253.491 300.945C252.506 301.36 251.78 302.215 251.314 303.511C249.759 309.238 248.981 312.581 248.981 313.54C248.981 314.266 249.189 314.784 249.603 315.095C250.018 315.406 250.471 315.562 250.964 315.562C251.923 315.562 252.869 315.134 253.802 314.279C254.735 313.424 255.37 312.374 255.706 311.13C255.784 310.871 255.862 310.728 255.94 310.702C256.017 310.676 256.225 310.651 256.562 310.625H256.717C257.106 310.625 257.3 310.728 257.3 310.936C257.3 310.962 257.274 311.104 257.223 311.363C256.808 312.84 256.004 314.149 254.812 315.29C253.62 316.43 252.234 317 250.653 317C248.839 317 247.465 316.184 246.532 314.551C245.47 316.158 244.251 316.961 242.878 316.961H242.645C241.375 316.961 240.468 316.624 239.923 315.95C239.379 315.277 239.094 314.564 239.068 313.812C239.068 312.983 239.314 312.309 239.807 311.791C240.299 311.273 240.882 311.013 241.556 311.013C242.671 311.013 243.228 311.558 243.228 312.646C243.228 313.164 243.072 313.618 242.761 314.007C242.45 314.395 242.152 314.655 241.867 314.784C241.582 314.914 241.414 314.979 241.362 314.979L241.245 315.017C241.245 315.043 241.323 315.095 241.478 315.173C241.634 315.251 241.841 315.341 242.1 315.445C242.36 315.549 242.606 315.588 242.839 315.562C243.772 315.562 244.575 314.979 245.249 313.812C245.482 313.398 245.781 312.517 246.143 311.169C246.506 309.821 246.869 308.422 247.232 306.97C247.595 305.519 247.802 304.664 247.854 304.405C247.983 303.705 248.048 303.2 248.048 302.889C248.048 302.163 247.854 301.645 247.465 301.334C247.076 301.023 246.636 300.867 246.143 300.867C245.107 300.867 244.135 301.282 243.228 302.111C242.321 302.94 241.686 304.003 241.323 305.299C241.271 305.532 241.206 305.662 241.129 305.688C241.051 305.714 240.843 305.739 240.507 305.765H239.962C239.807 305.61 239.729 305.467 239.729 305.338Z" fill="#4066E0"/>
</svg>
