<svg width="402" height="225" viewBox="0 0 402 225" fill="none" xmlns="http://www.w3.org/2000/svg">
<line x1="402" y1="3" y2="3" stroke="black" stroke-width="6" stroke-dasharray="5 5"/>
<line x1="25" y1="225" x2="25" y2="3" stroke="#4066E0" stroke-width="6"/>
<path d="M37.3355 110.757C36.4452 110.757 36 110.495 36 109.971C36 109.866 36.0786 109.5 36.2357 108.871C36.4452 108.033 36.6547 107.562 36.8641 107.457C37.0736 107.353 37.6759 107.274 38.671 107.222C40.085 107.222 41.6562 107.143 43.3845 106.986C44.1177 106.829 44.6152 106.515 44.8771 106.043C44.9818 105.781 46.8411 98.4231 50.4547 83.9683C54.0684 69.5136 55.9015 62.1815 55.9538 61.972C55.9538 61.6054 55.8491 61.4221 55.6396 61.4221C55.2206 61.265 53.8328 61.134 51.476 61.0293H49.0407C48.7265 60.7151 48.5693 60.5056 48.5693 60.4008C48.5693 60.2961 48.6217 59.8509 48.7265 59.0653C48.936 58.175 49.1978 57.6251 49.512 57.4156H91.855C92.2216 57.6251 92.4049 57.9131 92.4049 58.2797C92.4049 58.5416 92.0645 61.4745 91.3837 67.0783C90.7028 72.6821 90.3362 75.5626 90.2839 75.7197C90.1791 76.0863 89.6554 76.2696 88.7127 76.2696H87.77C87.4034 76.0078 87.2201 75.6673 87.2201 75.2484C87.2201 75.196 87.2986 74.5675 87.4558 73.363C87.6129 72.1584 87.6914 70.7705 87.6914 69.1994C87.6914 67.6282 87.5081 66.3451 87.1415 65.35C86.7749 64.3549 86.2774 63.5432 85.6489 62.9147C85.0205 62.2862 84.0516 61.8672 82.7423 61.6578C81.433 61.4483 80.0975 61.265 78.7358 61.1078C77.3741 60.9507 75.4887 60.9245 73.0796 61.0293H71.2727C66.9782 61.0817 64.7 61.1602 64.4381 61.265C64.1763 61.3697 63.993 61.5792 63.8882 61.8934C63.8359 61.9458 62.9455 65.3762 61.2173 72.1846L58.7034 82.3186H63.0241C63.1812 82.3186 63.7835 82.3186 64.8309 82.3186C65.8784 82.3186 66.6116 82.2924 67.0306 82.2401C67.4496 82.1877 68.0257 82.1091 68.7589 82.0044C69.4921 81.8996 70.1205 81.7163 70.6443 81.4545C71.168 81.1926 71.6132 80.8784 71.9798 80.5118C72.6606 79.8833 73.2367 79.0192 73.708 77.9193C74.1794 76.8195 74.5198 75.8245 74.7293 74.9341C74.9388 74.0438 75.0697 73.5724 75.1221 73.5201C75.2792 73.2582 75.7767 73.1273 76.6147 73.1273H77.5574C77.924 73.3891 78.1073 73.651 78.1073 73.9129C78.1073 74.07 77.2955 77.5004 75.672 84.204C74.0485 90.9077 73.1581 94.3642 73.001 94.5737C72.8963 94.9403 72.3725 95.1236 71.4298 95.1236H70.4871C70.1205 94.8094 69.9372 94.4952 69.9372 94.1809C69.9372 94.0238 70.0682 93.4477 70.33 92.4527C70.5919 91.4576 70.7228 90.4101 70.7228 89.3103C70.7228 87.7915 70.1991 86.8488 69.1517 86.4822C68.1042 86.1156 65.7736 85.9323 62.16 85.9323H57.8392L55.3254 95.9092C53.6495 102.403 52.8115 105.808 52.8115 106.122C52.8115 106.855 55.1421 107.222 59.8032 107.222H61.7672C62.0814 107.536 62.2385 107.719 62.2385 107.772C62.2385 107.824 62.1861 108.348 62.0814 109.343C61.8719 110.024 61.61 110.521 61.2958 110.835H59.9603C57.8131 110.731 53.8589 110.678 48.098 110.678C44.6938 110.678 42.1014 110.678 40.3207 110.678C38.5401 110.678 37.545 110.704 37.3355 110.757Z" fill="#4066E0"/>
<path d="M86.2994 98.3477C85.5958 98.3477 85.2441 98.1996 85.2441 97.9034C85.2441 97.7183 85.5403 96.6815 86.1327 94.7931C86.7252 92.9047 87.3546 91.0349 88.0211 89.1835L88.9653 86.462C89.1504 85.7955 89.3911 85.3142 89.6873 85.018H115.68H120.679C121.864 85.018 122.568 85.0365 122.79 85.0735C123.012 85.1105 123.141 85.2771 123.178 85.5734C123.178 85.7955 122.864 87.9061 122.234 91.905C121.605 95.904 121.253 97.9219 121.179 97.959C121.179 98.2182 120.827 98.3477 120.124 98.3477C119.79 98.3477 119.568 98.3477 119.457 98.3477C119.346 98.3477 119.235 98.2552 119.124 98.07L119.013 97.9034C119.013 97.6813 119.124 96.8481 119.346 95.4041C119.568 93.96 119.679 92.8307 119.679 92.0161C119.679 90.7201 119.439 89.7389 118.957 89.0724C118.476 88.4059 117.458 87.9431 115.903 87.6839C115.717 87.6469 114.644 87.6099 112.681 87.5728C110.978 87.5728 109.904 87.5913 109.46 87.6284C109.016 87.6654 108.682 87.8135 108.46 88.0727C108.423 88.1097 107.109 93.275 104.517 103.569C101.925 113.862 100.629 119.101 100.629 119.287C100.629 119.731 102.258 119.99 105.516 120.064C106.701 120.064 107.46 120.083 107.794 120.12C108.127 120.157 108.294 120.323 108.294 120.62C108.294 120.805 108.238 121.064 108.127 121.397C107.979 122.064 107.812 122.452 107.627 122.564L107.516 122.619C107.405 122.619 107.275 122.619 107.127 122.619C106.942 122.619 105.979 122.601 104.239 122.564C102.499 122.527 99.9994 122.508 96.741 122.508C91.9645 122.508 88.9283 122.545 87.6323 122.619H86.7992C86.5771 122.397 86.466 122.23 86.466 122.119C86.466 122.008 86.503 121.675 86.5771 121.119C86.7252 120.638 86.9103 120.286 87.1325 120.064H88.6876H89.2986C92.2607 120.064 94.0195 119.898 94.5749 119.564C94.612 119.527 94.649 119.509 94.686 119.509C94.8712 119.398 95.0563 119.027 95.2414 118.398C95.4266 117.769 96.1671 114.862 97.4631 109.678C98.0925 107.16 98.6109 105.105 99.0182 103.513C101.61 93.3306 102.906 88.1282 102.906 87.9061C102.906 87.7209 102.369 87.6284 101.295 87.6284H99.5736C97.0928 87.6284 95.4636 87.7395 94.686 87.9616C93.0198 88.3319 91.7238 89.0909 90.7982 90.2388C89.8725 91.3866 88.8727 93.5342 87.799 96.6815C87.5398 97.4961 87.3546 97.9775 87.2435 98.1256C87.1325 98.2737 86.8733 98.3477 86.466 98.3477H86.2994Z" fill="#4066E0"/>
<path d="M117.338 119.68C117.338 119.314 117.535 118.686 117.927 117.796C118.32 116.906 118.948 115.976 119.812 115.008C120.676 114.039 121.644 113.568 122.718 113.594C123.791 113.594 124.655 113.895 125.309 114.497C125.964 115.099 126.304 115.937 126.33 117.01C126.278 117.508 126.239 117.783 126.213 117.835C126.213 117.913 126.003 118.516 125.584 119.641C125.165 120.767 124.734 122.037 124.288 123.45C123.843 124.864 123.634 125.989 123.66 126.827C123.66 127.953 123.843 128.738 124.21 129.183C124.576 129.628 125.126 129.864 125.859 129.89C126.461 129.89 127.024 129.746 127.548 129.458C128.071 129.17 128.477 128.869 128.765 128.555C129.053 128.241 129.406 127.809 129.825 127.259C129.825 127.233 129.891 126.971 130.022 126.474C130.152 125.976 130.336 125.204 130.571 124.157C130.807 123.11 131.056 122.141 131.317 121.251C132.312 117.324 132.862 115.269 132.967 115.086C133.307 114.379 133.87 114.026 134.655 114.026C134.995 114.026 135.27 114.118 135.48 114.301C135.689 114.484 135.833 114.641 135.912 114.772C135.99 114.903 136.016 115.021 135.99 115.125C135.99 115.466 135.349 118.214 134.066 123.372C132.783 128.529 132.05 131.356 131.867 131.853C131.134 134.026 129.864 135.754 128.058 137.037C126.252 138.319 124.446 138.974 122.639 139C121.461 139 120.427 138.712 119.537 138.136C118.647 137.56 118.202 136.696 118.202 135.544C118.202 134.969 118.294 134.484 118.477 134.092C118.66 133.699 118.909 133.411 119.223 133.228C119.537 133.044 119.799 132.914 120.008 132.835C120.218 132.756 120.44 132.717 120.676 132.717C121.828 132.717 122.404 133.267 122.404 134.366C122.404 134.89 122.247 135.348 121.932 135.741C121.618 136.133 121.317 136.395 121.029 136.526C120.741 136.657 120.571 136.722 120.519 136.722L120.401 136.762C120.453 136.893 120.702 137.05 121.147 137.233C121.592 137.416 122.037 137.508 122.482 137.508H122.796C123.241 137.508 123.582 137.482 123.817 137.429C124.681 137.194 125.48 136.696 126.213 135.937C126.946 135.178 127.508 134.366 127.901 133.503C128.294 132.639 128.595 131.906 128.804 131.304C129.014 130.702 129.118 130.309 129.118 130.126L128.883 130.283C128.726 130.387 128.477 130.531 128.137 130.715C127.796 130.898 127.456 131.055 127.116 131.186C126.592 131.317 126.082 131.382 125.584 131.382C124.38 131.382 123.32 131.094 122.404 130.518C121.487 129.942 120.885 129.013 120.597 127.73C120.571 127.547 120.558 127.141 120.558 126.513C120.558 125.021 121.016 123.071 121.932 120.662C122.849 118.254 123.307 116.722 123.307 116.068C123.307 116.042 123.307 116.016 123.307 115.989C123.307 115.754 123.307 115.597 123.307 115.518C123.307 115.44 123.254 115.348 123.15 115.243C123.045 115.139 122.901 115.086 122.718 115.086H122.561C121.959 115.086 121.409 115.335 120.911 115.832C120.414 116.33 120.021 116.866 119.733 117.442C119.446 118.018 119.223 118.568 119.066 119.091C118.909 119.615 118.804 119.903 118.752 119.955C118.699 120.008 118.49 120.034 118.124 120.034H117.574C117.417 119.877 117.338 119.759 117.338 119.68Z" fill="#4066E0"/>
</svg>
