<svg width="521" height="225" viewBox="0 0 521 225" fill="none" xmlns="http://www.w3.org/2000/svg">
<line x1="521" y1="3" x2="119" y2="3" stroke="black" stroke-width="6" stroke-dasharray="5 5"/>
<line x1="117" y1="225" x2="117" y2="3" stroke="#4066E0" stroke-width="6"/>
<path d="M1.33549 110.757C0.445164 110.757 0 110.495 0 109.971C0 109.866 0.0785584 109.5 0.235675 108.871C0.445164 108.033 0.654654 107.562 0.864143 107.457C1.07363 107.353 1.67591 107.274 2.67099 107.222C4.08504 107.222 5.65621 107.143 7.38449 106.986C8.1177 106.829 8.61524 106.515 8.8771 106.043C8.98185 105.781 10.8411 98.4231 14.4547 83.9683C18.0684 69.5136 19.9015 62.1815 19.9538 61.972C19.9538 61.6054 19.8491 61.4221 19.6396 61.4221C19.2206 61.265 17.8328 61.134 15.476 61.0293H13.0407C12.7265 60.7151 12.5693 60.5056 12.5693 60.4008C12.5693 60.2961 12.6217 59.8509 12.7265 59.0653C12.936 58.175 13.1978 57.6251 13.512 57.4156H55.855C56.2216 57.6251 56.4049 57.9131 56.4049 58.2797C56.4049 58.5416 56.0645 61.4745 55.3837 67.0783C54.7028 72.6821 54.3362 75.5626 54.2839 75.7197C54.1791 76.0863 53.6554 76.2696 52.7127 76.2696H51.77C51.4034 76.0078 51.2201 75.6673 51.2201 75.2484C51.2201 75.196 51.2986 74.5675 51.4558 73.363C51.6129 72.1584 51.6914 70.7705 51.6914 69.1994C51.6914 67.6282 51.5081 66.3451 51.1415 65.35C50.7749 64.3549 50.2774 63.5432 49.6489 62.9147C49.0205 62.2862 48.0516 61.8672 46.7423 61.6578C45.433 61.4483 44.0975 61.265 42.7358 61.1078C41.3741 60.9507 39.4887 60.9245 37.0796 61.0293H35.2727C30.9782 61.0817 28.7 61.1602 28.4381 61.265C28.1763 61.3697 27.993 61.5792 27.8882 61.8934C27.8359 61.9458 26.9455 65.3762 25.2173 72.1846L22.7034 82.3186H27.0241C27.1812 82.3186 27.7835 82.3186 28.8309 82.3186C29.8784 82.3186 30.6116 82.2924 31.0306 82.2401C31.4496 82.1877 32.0257 82.1091 32.7589 82.0044C33.4921 81.8996 34.1205 81.7163 34.6443 81.4545C35.168 81.1926 35.6132 80.8784 35.9798 80.5118C36.6606 79.8833 37.2367 79.0192 37.708 77.9193C38.1794 76.8195 38.5198 75.8245 38.7293 74.9341C38.9388 74.0438 39.0697 73.5724 39.1221 73.5201C39.2792 73.2582 39.7767 73.1273 40.6147 73.1273H41.5574C41.924 73.3891 42.1073 73.651 42.1073 73.9129C42.1073 74.07 41.2955 77.5004 39.672 84.204C38.0485 90.9077 37.1581 94.3642 37.001 94.5737C36.8963 94.9403 36.3725 95.1236 35.4298 95.1236H34.4871C34.1205 94.8094 33.9372 94.4952 33.9372 94.1809C33.9372 94.0238 34.0682 93.4477 34.33 92.4527C34.5919 91.4576 34.7228 90.4101 34.7228 89.3103C34.7228 87.7915 34.1991 86.8488 33.1517 86.4822C32.1042 86.1156 29.7736 85.9323 26.16 85.9323H21.8392L19.3254 95.9092C17.6495 102.403 16.8115 105.808 16.8115 106.122C16.8115 106.855 19.1421 107.222 23.8032 107.222H25.7672C26.0814 107.536 26.2385 107.719 26.2385 107.772C26.2385 107.824 26.1861 108.348 26.0814 109.343C25.8719 110.024 25.61 110.521 25.2958 110.835H23.9603C21.8131 110.731 17.8589 110.678 12.098 110.678C8.6938 110.678 6.10137 110.678 4.32071 110.678C2.54006 110.678 1.54498 110.704 1.33549 110.757Z" fill="#4066E0"/>
<path d="M50.2994 98.3477C49.5958 98.3477 49.2441 98.1996 49.2441 97.9034C49.2441 97.7183 49.5403 96.6815 50.1327 94.7931C50.7252 92.9047 51.3546 91.0349 52.0211 89.1835L52.9653 86.462C53.1504 85.7955 53.3911 85.3142 53.6873 85.018H79.6804H84.6791C85.864 85.018 86.5675 85.0365 86.7897 85.0735C87.0118 85.1105 87.1414 85.2771 87.1785 85.5734C87.1785 85.7955 86.8637 87.9061 86.2343 91.905C85.6048 95.904 85.253 97.9219 85.179 97.959C85.179 98.2182 84.8272 98.3477 84.1237 98.3477C83.7905 98.3477 83.5683 98.3477 83.4572 98.3477C83.3461 98.3477 83.2351 98.2552 83.124 98.07L83.0129 97.9034C83.0129 97.6813 83.124 96.8481 83.3461 95.4041C83.5683 93.96 83.6794 92.8307 83.6794 92.0161C83.6794 90.7201 83.4387 89.7389 82.9573 89.0724C82.476 88.4059 81.4577 87.9431 79.9026 87.6839C79.7175 87.6469 78.6437 87.6099 76.6812 87.5728C74.978 87.5728 73.9042 87.5913 73.4599 87.6284C73.0155 87.6654 72.6823 87.8135 72.4601 88.0727C72.4231 88.1097 71.1086 93.275 68.5167 103.569C65.9248 113.862 64.6289 119.101 64.6289 119.287C64.6289 119.731 66.2581 119.99 69.5165 120.064C70.7013 120.064 71.4604 120.083 71.7936 120.12C72.1269 120.157 72.2935 120.323 72.2935 120.62C72.2935 120.805 72.238 121.064 72.1269 121.397C71.9788 122.064 71.8122 122.452 71.627 122.564L71.5159 122.619C71.4049 122.619 71.2753 122.619 71.1272 122.619C70.942 122.619 69.9793 122.601 68.239 122.564C66.4988 122.527 63.9994 122.508 60.741 122.508C55.9645 122.508 52.9283 122.545 51.6323 122.619H50.7992C50.5771 122.397 50.466 122.23 50.466 122.119C50.466 122.008 50.503 121.675 50.5771 121.119C50.7252 120.638 50.9103 120.286 51.1325 120.064H52.6876H53.2986C56.2607 120.064 58.0195 119.898 58.5749 119.564C58.612 119.527 58.649 119.509 58.686 119.509C58.8712 119.398 59.0563 119.027 59.2414 118.398C59.4266 117.769 60.1671 114.862 61.4631 109.678C62.0925 107.16 62.6109 105.105 63.0182 103.513C65.6101 93.3306 66.9061 88.1282 66.9061 87.9061C66.9061 87.7209 66.3692 87.6284 65.2954 87.6284H63.5736C61.0928 87.6284 59.4636 87.7395 58.686 87.9616C57.0198 88.3319 55.7238 89.0909 54.7982 90.2388C53.8725 91.3866 52.8727 93.5342 51.799 96.6815C51.5398 97.4961 51.3546 97.9775 51.2435 98.1256C51.1325 98.2737 50.8733 98.3477 50.466 98.3477H50.2994Z" fill="#4066E0"/>
<path d="M81.3382 119.68C81.3382 119.314 81.5345 118.686 81.9272 117.796C82.3198 116.906 82.9481 115.976 83.812 115.008C84.6759 114.039 85.6445 113.568 86.7178 113.594C87.7911 113.594 88.655 113.895 89.3094 114.497C89.9639 115.099 90.3042 115.937 90.3304 117.01C90.278 117.508 90.2388 117.783 90.2126 117.835C90.2126 117.913 90.0032 118.516 89.5843 119.641C89.1655 120.767 88.7335 122.037 88.2885 123.45C87.8435 124.864 87.634 125.989 87.6602 126.827C87.6602 127.953 87.8435 128.738 88.21 129.183C88.5764 129.628 89.1262 129.864 89.8592 129.89C90.4613 129.89 91.0241 129.746 91.5477 129.458C92.0712 129.17 92.477 128.869 92.765 128.555C93.0529 128.241 93.4063 127.809 93.8252 127.259C93.8252 127.233 93.8906 126.971 94.0215 126.474C94.1524 125.976 94.3357 125.204 94.5713 124.157C94.8069 123.11 95.0556 122.141 95.3173 121.251C96.3121 117.324 96.8619 115.269 96.9666 115.086C97.3069 114.379 97.8697 114.026 98.6551 114.026C98.9954 114.026 99.2703 114.118 99.4797 114.301C99.6891 114.484 99.8331 114.641 99.9116 114.772C99.9902 114.903 100.016 115.021 99.9902 115.125C99.9902 115.466 99.3488 118.214 98.0661 123.372C96.7833 128.529 96.0503 131.356 95.8671 131.853C95.1341 134.026 93.8644 135.754 92.0582 137.037C90.2519 138.319 88.4456 138.974 86.6393 139C85.4612 139 84.4272 138.712 83.5371 138.136C82.6471 137.56 82.202 136.696 82.202 135.544C82.202 134.969 82.2937 134.484 82.4769 134.092C82.6602 133.699 82.9089 133.411 83.223 133.228C83.5371 133.044 83.7989 132.914 84.0083 132.835C84.2178 132.756 84.4403 132.717 84.6759 132.717C85.8277 132.717 86.4037 133.267 86.4037 134.366C86.4037 134.89 86.2466 135.348 85.9324 135.741C85.6183 136.133 85.3173 136.395 85.0293 136.526C84.7413 136.657 84.5712 136.722 84.5188 136.722L84.401 136.762C84.4534 136.893 84.7021 137.05 85.1471 137.233C85.5921 137.416 86.0372 137.508 86.4822 137.508H86.7963C87.2414 137.508 87.5817 137.482 87.8173 137.429C88.6812 137.194 89.4796 136.696 90.2126 135.937C90.9456 135.178 91.5084 134.366 91.9011 133.503C92.2938 132.639 92.5948 131.906 92.8042 131.304C93.0137 130.702 93.1184 130.309 93.1184 130.126L92.8828 130.283C92.7257 130.387 92.477 130.531 92.1367 130.715C91.7964 130.898 91.4561 131.055 91.1157 131.186C90.5922 131.317 90.0817 131.382 89.5843 131.382C88.3801 131.382 87.3199 131.094 86.4037 130.518C85.4874 129.942 84.8853 129.013 84.5974 127.73C84.5712 127.547 84.5581 127.141 84.5581 126.513C84.5581 125.021 85.0162 123.071 85.9324 120.662C86.8487 118.254 87.3068 116.722 87.3068 116.068C87.3068 116.042 87.3068 116.016 87.3068 115.989C87.3068 115.754 87.3068 115.597 87.3068 115.518C87.3068 115.44 87.2544 115.348 87.1497 115.243C87.045 115.139 86.901 115.086 86.7178 115.086H86.5607C85.9586 115.086 85.4089 115.335 84.9115 115.832C84.4141 116.33 84.0214 116.866 83.7335 117.442C83.4455 118.018 83.223 118.568 83.0659 119.091C82.9089 119.615 82.8041 119.903 82.7518 119.955C82.6994 120.008 82.49 120.034 82.1235 120.034H81.5738C81.4167 119.877 81.3382 119.759 81.3382 119.68Z" fill="#4066E0"/>
</svg>
