<svg width="724" height="731" viewBox="0 0 724 731" fill="none" xmlns="http://www.w3.org/2000/svg">
<path d="M694.768 385.768C695.745 384.791 695.745 383.209 694.768 382.232L678.859 366.322C677.882 365.346 676.299 365.346 675.323 366.322C674.347 367.299 674.347 368.882 675.323 369.858L689.465 384L675.323 398.142C674.347 399.118 674.347 400.701 675.323 401.678C676.299 402.654 677.882 402.654 678.859 401.678L694.768 385.768ZM0 386.5H693.001V381.5H0V386.5Z" fill="black"/>
<path d="M714.842 382.924L719.061 375.98H722.857L716.635 385.385L723.051 395H719.289L714.895 387.881L710.5 395H706.721L713.137 385.385L706.914 375.98H710.676L714.842 382.924Z" fill="black"/>
<path d="M348.268 35.7319C347.292 34.7556 345.709 34.7556 344.733 35.7319L328.823 51.6418C327.846 52.6181 327.846 54.201 328.823 55.1773C329.799 56.1536 331.382 56.1536 332.358 55.1773L346.5 41.0352L360.643 55.1773C361.619 56.1536 363.202 56.1536 364.178 55.1773C365.154 54.201 365.154 52.6181 364.178 51.6418L348.268 35.7319ZM349 730.5L349 37.4996H344L344 730.5H349Z" fill="black"/>
<path d="M346.684 15.2363L351.113 0.980469H354.594L346.947 22.9355C345.764 26.0996 343.883 27.6816 341.305 27.6816L340.689 27.6289L339.477 27.4004V24.7637L340.355 24.834C341.457 24.834 342.312 24.6113 342.922 24.166C343.543 23.7207 344.053 22.9062 344.451 21.7227L345.172 19.7891L338.387 0.980469H341.938L346.684 15.2363Z" fill="black"/>
<path d="M596 163L545.098 173.44L579.59 212.302L596 163ZM349.987 387.366L568.697 193.25L562.723 186.519L344.013 380.634L349.987 387.366Z" fill="#4066E0"/>
<path d="M621.829 136.384C621.829 137.706 623.143 138.478 625.771 138.698C626.8 138.698 627.314 139.001 627.314 139.607C627.314 139.662 627.257 140.021 627.143 140.682C626.971 141.453 626.8 141.949 626.629 142.169C626.457 142.39 626.086 142.5 625.514 142.5C625.4 142.5 625.057 142.5 624.486 142.5C623.914 142.5 622.943 142.472 621.571 142.417C620.2 142.362 618.371 142.335 616.086 142.335C612.029 142.335 609.429 142.39 608.286 142.5H607.6C607.2 142.114 607 141.811 607 141.591C607.114 140.103 607.486 139.139 608.114 138.698H609.314C613.314 138.533 616.229 137.155 618.057 134.566C618.4 134.235 623.571 125.832 633.571 109.358C643.571 92.8831 648.657 84.5356 648.829 84.3152C649.229 83.654 649.914 83.3234 650.886 83.3234H651.571H653.029C653.371 83.8193 653.543 84.0948 653.543 84.1499L655.943 110.845C657.543 128.643 658.4 137.624 658.514 137.789C658.8 138.395 660.657 138.698 664.086 138.698C665.514 138.698 666.229 138.974 666.229 139.525C666.229 139.635 666.143 140.021 665.971 140.682C665.8 141.508 665.657 142.004 665.543 142.169C665.429 142.335 665.029 142.445 664.343 142.5C664.171 142.5 663.771 142.5 663.143 142.5C662.514 142.5 661.4 142.472 659.8 142.417C658.2 142.362 656.114 142.335 653.543 142.335C648.171 142.335 644.657 142.39 643 142.5H641.971C641.629 142.169 641.457 141.921 641.457 141.756C641.457 141.591 641.514 141.095 641.629 140.268C641.857 139.552 642.029 139.111 642.143 138.946L642.486 138.698H644.2C647.286 138.533 649.114 138.065 649.686 137.293L648.657 124.896H628.257L625.343 129.689C623 133.491 621.829 135.723 621.829 136.384ZM648.229 121.011C648.229 120.405 647.886 116.107 647.2 108.118C646.514 100.129 646.114 96.1064 646 96.0513L643.686 99.6052C642.771 101.093 640.971 104.041 638.286 108.449L630.571 121.011L639.4 121.094C645.286 121.094 648.229 121.066 648.229 121.011Z" fill="#4066E0"/>
<path d="M658.943 63.653C658.943 63.2122 659.086 62.8265 659.371 62.4959C659.657 62.1653 660.086 62 660.657 62C661.057 62 661.4 62.1377 661.686 62.4132C661.971 62.6336 662.257 63.1571 662.543 63.9836C663.114 66.0222 664.286 67.5926 666.057 68.6946C666.686 69.0802 667 69.5761 667 70.1822C667 70.6781 666.914 71.0087 666.743 71.174C666.571 71.3393 666.171 71.5873 665.543 71.9179C663.086 73.13 660.943 74.8657 659.114 77.1247C659 77.2349 658.857 77.4002 658.686 77.6206C658.514 77.841 658.371 78.0063 658.257 78.1165C658.143 78.2267 658 78.2818 657.829 78.2818C657.657 78.2818 657.457 78.3094 657.229 78.3645C656.829 78.3645 656.457 78.2267 656.114 77.9512C655.771 77.6757 655.571 77.2625 655.514 76.7115C655.514 75.6646 656.857 74.0392 659.543 71.8352H644.886L630.229 71.7526C629.486 71.2567 629.114 70.7332 629.114 70.1822C629.114 69.7965 629.486 69.2455 630.229 68.5293H661C659.629 66.4355 658.943 64.8101 658.943 63.653Z" fill="#4066E0"/>
<path d="M451 340.199C451 334.921 452.187 329.358 454.562 323.51C456.937 317.663 460.164 312.617 464.244 308.374C468.323 304.131 472.555 301.699 476.939 301.078C477 301.078 477.244 301.078 477.67 301.078C478.096 301.078 478.461 301.052 478.766 301C482.054 301.207 484.611 302.475 486.438 304.803C488.813 307.908 490 312.074 490 317.301C490 323.252 488.63 329.306 485.89 335.464C483.15 341.622 479.649 346.668 475.386 350.601C471.124 354.534 467.044 356.5 463.148 356.5H462.508C460.316 356.5 458.429 355.983 456.845 354.948C455.262 353.913 454.075 352.541 453.283 350.834C452.492 349.126 451.913 347.392 451.548 345.633C451.183 343.873 451 342.062 451 340.199ZM482.785 311.79C482.785 306.511 481.171 303.872 477.944 303.872C475.752 303.872 473.621 305.036 471.55 307.365C469.48 309.694 467.775 312.333 466.436 315.283C465.096 318.232 464.061 320.82 463.33 323.045C462.6 325.27 462.204 326.564 462.143 326.926C465.126 326.978 468.08 327.003 471.002 327.003L479.862 326.926C479.923 326.874 480.166 326.02 480.593 324.364C481.019 322.708 481.506 320.638 482.054 318.155C482.602 315.671 482.845 313.549 482.785 311.79ZM458.124 345.478C458.124 350.963 459.738 353.706 462.965 353.706C463.878 353.706 464.852 353.447 465.888 352.929C466.923 352.412 468.171 351.429 469.632 349.98C471.094 348.531 472.555 346.28 474.016 343.227C475.478 340.173 476.939 336.396 478.4 331.894L478.857 330.574H461.047C461.047 330.729 460.773 331.713 460.225 333.524C459.677 335.335 459.19 337.353 458.763 339.578C458.337 341.803 458.124 343.77 458.124 345.478Z" fill="black"/>
<line x1="598.5" y1="163" x2="598.5" y2="384" stroke="black" stroke-width="5" stroke-dasharray="5 5"/>
<g filter="url(#filter0_d)">
<line x1="349" y1="160.5" x2="599" y2="160.5" stroke="black" stroke-width="5" stroke-dasharray="5 5"/>
</g>
<line x1="347" y1="383.5" x2="596" y2="383.5" stroke="#6C63FF" stroke-width="5"/>
<line x1="347" y1="389.5" x2="347" y2="159.5" stroke="#6C63FF" stroke-width="5"/>
<path d="M458.777 432.815C458.777 433.725 459.555 434.256 461.111 434.408C461.72 434.408 462.024 434.617 462.024 435.034C462.024 435.072 461.99 435.318 461.923 435.773C461.821 436.304 461.72 436.646 461.618 436.797C461.517 436.949 461.297 437.025 460.959 437.025C460.891 437.025 460.688 437.025 460.35 437.025C460.012 437.025 459.437 437.006 458.625 436.968C457.813 436.93 456.731 436.911 455.378 436.911C452.976 436.911 451.438 436.949 450.761 437.025H450.355C450.118 436.759 450 436.551 450 436.399C450.068 435.375 450.288 434.711 450.66 434.408H451.37C453.738 434.294 455.463 433.346 456.545 431.564C456.748 431.336 459.809 425.553 465.728 414.214C471.647 402.874 474.657 397.129 474.759 396.977C474.996 396.522 475.402 396.295 475.977 396.295H476.382H477.245C477.448 396.636 477.549 396.825 477.549 396.863L478.97 415.238C479.917 427.487 480.424 433.668 480.492 433.782C480.661 434.199 481.76 434.408 483.79 434.408C484.635 434.408 485.058 434.598 485.058 434.977C485.058 435.053 485.007 435.318 484.906 435.773C484.805 436.342 484.72 436.683 484.652 436.797C484.585 436.911 484.348 436.987 483.942 437.025C483.841 437.025 483.604 437.025 483.232 437.025C482.86 437.025 482.2 437.006 481.253 436.968C480.306 436.93 479.071 436.911 477.549 436.911C474.37 436.911 472.29 436.949 471.309 437.025H470.7C470.497 436.797 470.396 436.627 470.396 436.513C470.396 436.399 470.429 436.058 470.497 435.489C470.632 434.996 470.734 434.692 470.802 434.579L471.004 434.408H472.019C473.846 434.294 474.928 433.972 475.266 433.441L474.657 424.908H462.582L460.857 428.207C459.471 430.824 458.777 432.36 458.777 432.815ZM474.404 422.234C474.404 421.817 474.201 418.859 473.795 413.36C473.389 407.861 473.152 405.093 473.085 405.055L471.715 407.501C471.174 408.525 470.108 410.554 468.518 413.588L463.952 422.234L469.178 422.291C472.662 422.291 474.404 422.272 474.404 422.234Z" fill="#6C63FF"/>
<path d="M488.141 433.935C488.308 432.808 488.954 431.508 490.078 430.033C491.202 428.559 492.589 427.808 494.239 427.781C495.076 427.781 495.841 428.022 496.535 428.505C497.228 428.988 497.742 429.591 498.077 430.315C499.081 428.626 500.289 427.781 501.7 427.781C502.585 427.781 503.35 428.076 503.996 428.666C504.641 429.256 504.976 430.047 505 431.039C505 431.816 504.833 432.446 504.498 432.929C504.163 433.412 503.84 433.707 503.529 433.814C503.218 433.921 502.943 433.975 502.704 433.975C502.25 433.975 501.879 433.827 501.592 433.532C501.305 433.237 501.162 432.849 501.162 432.366C501.162 431.133 501.76 430.288 502.955 429.832C502.692 429.484 502.214 429.309 501.521 429.309C501.21 429.309 500.983 429.336 500.839 429.39C499.93 429.819 499.261 430.704 498.83 432.044C497.396 437.97 496.678 441.429 496.678 442.421C496.678 443.171 496.869 443.708 497.252 444.029C497.635 444.351 498.053 444.512 498.508 444.512C499.392 444.512 500.265 444.07 501.126 443.185C501.987 442.3 502.573 441.214 502.884 439.927C502.955 439.659 503.027 439.511 503.099 439.485C503.171 439.458 503.362 439.431 503.673 439.404H503.816C504.175 439.404 504.354 439.511 504.354 439.726C504.354 439.753 504.33 439.9 504.283 440.168C503.9 441.697 503.159 443.051 502.059 444.23C500.959 445.41 499.679 446 498.221 446C496.547 446 495.279 445.155 494.418 443.466C493.438 445.129 492.314 445.96 491.047 445.96H490.831C489.66 445.96 488.823 445.611 488.32 444.914C487.818 444.217 487.555 443.48 487.531 442.702C487.531 441.844 487.758 441.147 488.213 440.611C488.667 440.075 489.205 439.806 489.827 439.806C490.855 439.806 491.369 440.369 491.369 441.496C491.369 442.032 491.226 442.501 490.939 442.903C490.652 443.305 490.377 443.574 490.114 443.708C489.851 443.842 489.695 443.909 489.648 443.909L489.54 443.949C489.54 443.976 489.612 444.029 489.755 444.11C489.899 444.19 490.09 444.284 490.329 444.391C490.568 444.499 490.795 444.539 491.011 444.512C491.872 444.512 492.613 443.909 493.235 442.702C493.45 442.273 493.725 441.361 494.06 439.967C494.394 438.573 494.729 437.125 495.064 435.624C495.399 434.122 495.59 433.237 495.638 432.969C495.757 432.245 495.817 431.723 495.817 431.401C495.817 430.65 495.638 430.114 495.279 429.792C494.921 429.47 494.514 429.309 494.06 429.309C493.103 429.309 492.206 429.738 491.369 430.596C490.532 431.454 489.947 432.554 489.612 433.894C489.564 434.136 489.504 434.27 489.432 434.296C489.361 434.323 489.169 434.35 488.859 434.377H488.356C488.213 434.216 488.141 434.069 488.141 433.935Z" fill="#6C63FF"/>
<path d="M282.927 273.07C282.927 273.87 283.718 274.336 285.301 274.469C285.92 274.469 286.23 274.652 286.23 275.019C286.23 275.052 286.195 275.268 286.126 275.668C286.023 276.134 285.92 276.434 285.817 276.567C285.714 276.7 285.49 276.767 285.146 276.767C285.077 276.767 284.871 276.767 284.527 276.767C284.183 276.767 283.598 276.75 282.772 276.717C281.947 276.684 280.846 276.667 279.47 276.667C277.027 276.667 275.462 276.7 274.774 276.767H274.361C274.12 276.534 274 276.351 274 276.217C274.069 275.318 274.292 274.735 274.671 274.469H275.393C277.801 274.369 279.556 273.537 280.657 271.971C280.863 271.772 283.976 266.693 289.997 256.735C296.017 246.778 299.079 241.733 299.182 241.599C299.423 241.2 299.835 241 300.42 241H300.833H301.71C301.917 241.3 302.02 241.466 302.02 241.5L303.465 257.635C304.428 268.391 304.944 273.82 305.013 273.92C305.185 274.286 306.303 274.469 308.367 274.469C309.227 274.469 309.657 274.636 309.657 274.969C309.657 275.035 309.605 275.268 309.502 275.668C309.399 276.167 309.313 276.467 309.244 276.567C309.175 276.667 308.935 276.734 308.522 276.767C308.419 276.767 308.178 276.767 307.799 276.767C307.421 276.767 306.75 276.75 305.787 276.717C304.824 276.684 303.568 276.667 302.02 276.667C298.786 276.667 296.671 276.7 295.673 276.767H295.054C294.847 276.567 294.744 276.417 294.744 276.317C294.744 276.217 294.778 275.918 294.847 275.418C294.985 274.985 295.088 274.719 295.157 274.619L295.363 274.469H296.395C298.253 274.369 299.354 274.086 299.698 273.62L299.079 266.127H286.797L285.043 269.024C283.632 271.322 282.927 272.671 282.927 273.07ZM298.821 263.779C298.821 263.413 298.614 260.815 298.201 255.986C297.789 251.157 297.548 248.726 297.479 248.693L296.086 250.841C295.535 251.74 294.452 253.522 292.835 256.186L288.191 263.779L293.506 263.829C297.049 263.829 298.821 263.812 298.821 263.779Z" fill="#6C63FF"/>
<path d="M311.662 274.124C311.662 273.794 311.844 273.229 312.209 272.429C312.574 271.628 313.157 270.792 313.96 269.921C314.763 269.05 315.663 268.626 316.66 268.65C317.657 268.65 318.46 268.92 319.068 269.462C319.676 270.004 319.992 270.757 320.016 271.722C319.968 272.17 319.931 272.417 319.907 272.464C319.907 272.535 319.712 273.076 319.323 274.089C318.934 275.101 318.533 276.243 318.119 277.514C317.706 278.786 317.511 279.798 317.535 280.552C317.535 281.564 317.706 282.27 318.046 282.671C318.387 283.071 318.897 283.283 319.578 283.306C320.138 283.306 320.661 283.177 321.147 282.918C321.634 282.659 322.011 282.388 322.278 282.106C322.546 281.823 322.874 281.435 323.263 280.94C323.263 280.917 323.324 280.681 323.446 280.234C323.567 279.786 323.737 279.092 323.956 278.15C324.175 277.208 324.406 276.337 324.649 275.537C325.574 272.005 326.084 270.157 326.182 269.992C326.498 269.356 327.021 269.038 327.75 269.038C328.067 269.038 328.322 269.121 328.517 269.285C328.711 269.45 328.845 269.591 328.918 269.709C328.991 269.827 329.015 269.933 328.991 270.027C328.991 270.333 328.395 272.805 327.203 277.444C326.011 282.082 325.33 284.625 325.16 285.072C324.479 287.026 323.3 288.58 321.621 289.734C319.943 290.888 318.265 291.476 316.587 291.5C315.492 291.5 314.532 291.241 313.705 290.723C312.878 290.205 312.464 289.428 312.464 288.392C312.464 287.874 312.549 287.439 312.72 287.085C312.89 286.732 313.121 286.473 313.413 286.308C313.705 286.144 313.948 286.026 314.142 285.955C314.337 285.885 314.544 285.849 314.763 285.849C315.833 285.849 316.368 286.344 316.368 287.333C316.368 287.803 316.222 288.215 315.93 288.569C315.638 288.922 315.359 289.157 315.091 289.275C314.823 289.393 314.665 289.452 314.617 289.452L314.507 289.487C314.556 289.605 314.787 289.746 315.2 289.911C315.614 290.076 316.027 290.158 316.441 290.158H316.733C317.146 290.158 317.462 290.134 317.681 290.087C318.484 289.875 319.226 289.428 319.907 288.745C320.588 288.062 321.111 287.333 321.475 286.556C321.84 285.779 322.12 285.119 322.315 284.578C322.509 284.036 322.606 283.683 322.606 283.518L322.388 283.66C322.242 283.754 322.011 283.883 321.694 284.048C321.378 284.213 321.062 284.354 320.746 284.472C320.259 284.59 319.785 284.648 319.323 284.648C318.204 284.648 317.219 284.389 316.368 283.871C315.517 283.353 314.957 282.518 314.69 281.364C314.665 281.199 314.653 280.834 314.653 280.269C314.653 278.927 315.079 277.173 315.93 275.007C316.781 272.841 317.207 271.463 317.207 270.875C317.207 270.851 317.207 270.828 317.207 270.804C317.207 270.592 317.207 270.451 317.207 270.38C317.207 270.31 317.158 270.227 317.061 270.133C316.964 270.039 316.83 269.992 316.66 269.992H316.514C315.954 269.992 315.444 270.215 314.982 270.663C314.519 271.11 314.155 271.593 313.887 272.111C313.62 272.629 313.413 273.123 313.267 273.594C313.121 274.065 313.024 274.324 312.975 274.371C312.926 274.418 312.732 274.442 312.391 274.442H311.881C311.735 274.3 311.662 274.195 311.662 274.124Z" fill="#6C63FF"/>
<defs>
<filter id="filter0_d" x="345" y="158" width="258" height="13" filterUnits="userSpaceOnUse" color-interpolation-filters="sRGB">
<feFlood flood-opacity="0" result="BackgroundImageFix"/>
<feColorMatrix in="SourceAlpha" type="matrix" values="0 0 0 0 0 0 0 0 0 0 0 0 0 0 0 0 0 0 127 0"/>
<feOffset dy="4"/>
<feGaussianBlur stdDeviation="2"/>
<feColorMatrix type="matrix" values="0 0 0 0 0 0 0 0 0 0 0 0 0 0 0 0 0 0 0.25 0"/>
<feBlend mode="normal" in2="BackgroundImageFix" result="effect1_dropShadow"/>
<feBlend mode="normal" in="SourceGraphic" in2="effect1_dropShadow" result="shape"/>
</filter>
</defs>
</svg>
