<svg width="100" height="86" viewBox="0 0 100 86" fill="none" xmlns="http://www.w3.org/2000/svg">
<path d="M1.40085 55.9515C0.46695 55.9515 0 55.6769 0 55.1275C0 55.0176 0.0824029 54.6331 0.247209 53.9739C0.46695 53.0949 0.686691 52.6005 0.906431 52.4906C1.12617 52.3807 1.75793 52.2983 2.8017 52.2434C4.28495 52.2434 5.93301 52.161 7.74587 51.9962C8.51496 51.8314 9.03685 51.5018 9.31152 51.0074C9.42139 50.7327 11.3716 43.0143 15.1621 27.8522C18.9527 12.69 20.8754 4.9991 20.9303 4.77936C20.9303 4.39481 20.8205 4.20253 20.6007 4.20253C20.1612 4.03773 18.7054 3.90039 16.2334 3.79052H13.6789C13.3493 3.46091 13.1845 3.24117 13.1845 3.1313C13.1845 3.02143 13.2394 2.55448 13.3493 1.73045C13.569 0.79655 13.8437 0.21973 14.1733 -1.10269e-05H58.5884C58.973 0.21973 59.1653 0.521874 59.1653 0.90642C59.1653 1.1811 58.8082 4.25747 58.094 10.1355C57.3799 16.0136 56.9953 19.0351 56.9404 19.1999C56.8305 19.5844 56.2812 19.7767 55.2923 19.7767H54.3035C53.9189 19.502 53.7267 19.1449 53.7267 18.7054C53.7267 18.6505 53.8091 17.9913 53.9739 16.7278C54.1387 15.4643 54.2211 14.0085 54.2211 12.3604C54.2211 10.7124 54.0288 9.36645 53.6443 8.32268C53.2597 7.27891 52.7378 6.42741 52.0786 5.76819C51.4194 5.10897 50.4031 4.66948 49.0297 4.44974C47.6563 4.23 46.2555 4.03773 44.8272 3.87292C43.3988 3.70812 41.4212 3.68065 38.8942 3.79052H36.9989C32.4942 3.84546 30.1045 3.92786 29.8298 4.03773C29.5552 4.1476 29.3629 4.36734 29.253 4.69695C29.1981 4.75189 28.2642 8.35015 26.4513 15.4917L23.8144 26.1217H28.3466C28.5114 26.1217 29.1431 26.1217 30.2419 26.1217C31.3406 26.1217 32.1096 26.0942 32.5491 26.0393C32.9886 25.9844 33.5929 25.902 34.362 25.7921C35.1311 25.6822 35.7903 25.4899 36.3397 25.2153C36.889 24.9406 37.356 24.611 37.7405 24.2264C38.4547 23.5672 39.059 22.6608 39.5534 21.5071C40.0478 20.3535 40.4049 19.3097 40.6246 18.3758C40.8444 17.4419 40.9817 16.9475 41.0366 16.8926C41.2014 16.6179 41.7233 16.4806 42.6023 16.4806H43.5911C43.9757 16.7552 44.1679 17.0299 44.1679 17.3046C44.1679 17.4694 43.3164 21.0677 41.6134 28.0994C39.9105 35.1311 38.9766 38.7568 38.8117 38.9765C38.7019 39.3611 38.1525 39.5534 37.1637 39.5534H36.1749C35.7903 39.2238 35.598 38.8941 35.598 38.5645C35.598 38.3997 35.7354 37.7954 36.0101 36.7517C36.2847 35.7079 36.4221 34.6092 36.4221 33.4556C36.4221 31.8624 35.8727 30.8736 34.774 30.489C33.6753 30.1045 31.2307 29.9122 27.4402 29.9122H22.908L20.2711 40.3774C18.5132 47.1894 17.6342 50.7602 17.6342 51.0898C17.6342 51.8589 20.0788 52.2434 24.9681 52.2434H27.0281C27.3578 52.573 27.5226 52.7653 27.5226 52.8202C27.5226 52.8752 27.4676 53.4245 27.3578 54.4683C27.138 55.1824 26.8633 55.7043 26.5337 56.0339H25.1329C22.8805 55.9241 18.7329 55.8691 12.69 55.8691C9.11925 55.8691 6.39996 55.8691 4.53216 55.8691C2.66436 55.8691 1.62059 55.8966 1.40085 55.9515Z" fill="#4066E0"/>
<path d="M62.8397 34.7208L62.0823 35.0121C61.5386 35.2063 60.7618 35.4005 59.752 35.5947C58.7422 35.7889 57.6158 35.9248 56.373 36.0025H55.2661V33.3226H56.373C58.1984 33.2449 59.8879 32.9536 61.4415 32.4487C62.9951 31.9438 64.0826 31.4777 64.704 31.0505C65.3254 30.6233 65.8692 30.196 66.3352 29.7688C66.4129 29.6523 66.6459 29.594 67.0343 29.594C67.3839 29.594 67.714 29.7106 68.0247 29.9436V47.363L68.083 64.8406C68.3549 65.1125 68.5879 65.2873 68.7821 65.365C68.9763 65.4426 69.4424 65.5203 70.1803 65.598C70.9183 65.6757 72.1223 65.7145 73.7924 65.7145H75.3071V68.3944H74.6662C73.8506 68.2779 70.7629 68.2196 65.4031 68.2196C60.121 68.2196 57.0721 68.2779 56.2565 68.3944H55.5573V65.7145H57.0721C57.9265 65.7145 58.6645 65.7145 59.2859 65.7145C59.9073 65.7145 60.3928 65.6951 60.7424 65.6562C61.0919 65.6174 61.4026 65.5591 61.6745 65.4815C61.9464 65.4038 62.1018 65.365 62.1406 65.365C62.1794 65.365 62.2959 65.2679 62.4901 65.0737C62.6843 64.8795 62.8009 64.8018 62.8397 64.8406V34.7208Z" fill="#4066E0"/>
<path d="M80.4249 65.312C80.4249 64.9276 80.6309 64.2685 81.0428 63.3349C81.4547 62.4013 82.1137 61.4265 83.0198 60.4105C83.926 59.3945 84.942 58.9002 86.0678 58.9277C87.1937 58.9277 88.0998 59.2435 88.7863 59.875C89.4728 60.5066 89.8297 61.3853 89.8572 62.5111C89.8023 63.0329 89.7611 63.3212 89.7336 63.3761C89.7336 63.4585 89.514 64.09 89.0746 65.2708C88.6353 66.4515 88.1822 67.7833 87.7154 69.2661C87.2486 70.7489 87.0289 71.9297 87.0564 72.8084C87.0564 73.9891 87.2486 74.8129 87.633 75.2797C88.0174 75.7465 88.5941 75.9937 89.3629 76.0211C89.9945 76.0211 90.5849 75.8701 91.1341 75.568C91.6832 75.266 92.1089 74.9502 92.4109 74.6207C92.713 74.2912 93.0837 73.8381 93.523 73.2615C93.523 73.234 93.5917 72.9594 93.729 72.4377C93.8663 71.916 94.0585 71.1059 94.3056 70.0075C94.5527 68.9092 94.8136 67.8932 95.0882 66.9595C96.1317 62.8406 96.7083 60.6851 96.8181 60.4929C97.1751 59.7515 97.7655 59.3808 98.5893 59.3808C98.9462 59.3808 99.2346 59.4769 99.4542 59.6691C99.6739 59.8613 99.8249 60.0261 99.9073 60.1634C99.9897 60.3007 100.017 60.4242 99.9897 60.5341C99.9897 60.891 99.3169 63.7743 97.9714 69.1837C96.6259 74.5932 95.8571 77.5588 95.6649 78.0806C94.896 80.3597 93.5642 82.172 91.6695 83.5175C89.7748 84.863 87.8801 85.5495 85.9854 85.577C84.7498 85.577 83.6651 85.2749 82.7315 84.6708C81.7979 84.0667 81.3311 83.1605 81.3311 81.9523C81.3311 81.3482 81.4272 80.8402 81.6194 80.4283C81.8116 80.0165 82.0725 79.7144 82.402 79.5222C82.7315 79.33 83.0061 79.1927 83.2258 79.1103C83.4455 79.0279 83.6789 78.9867 83.926 78.9867C85.1342 78.9867 85.7383 79.5634 85.7383 80.7167C85.7383 81.2659 85.5735 81.7464 85.244 82.1583C84.9145 82.5702 84.5987 82.8448 84.2967 82.9821C83.9946 83.1194 83.8162 83.188 83.7612 83.188L83.6377 83.2292C83.6926 83.3665 83.9534 83.5312 84.4203 83.7235C84.8871 83.9157 85.3539 84.0118 85.8207 84.0118H86.1502C86.617 84.0118 86.974 83.9843 87.2211 83.9294C88.1273 83.6823 88.9648 83.1605 89.7336 82.3642C90.5025 81.5679 91.0929 80.7167 91.5048 79.8105C91.9167 78.9043 92.2324 78.1355 92.4521 77.5039C92.6718 76.8724 92.7816 76.4605 92.7816 76.2683L92.5345 76.433C92.3697 76.5428 92.1089 76.6939 91.7519 76.8861C91.3949 77.0783 91.038 77.2431 90.681 77.3804C90.1318 77.5177 89.5963 77.5863 89.0746 77.5863C87.8115 77.5863 86.6994 77.2842 85.7383 76.6801C84.7772 76.076 84.1457 75.1012 83.8436 73.7557C83.8162 73.5635 83.8024 73.1379 83.8024 72.4789C83.8024 70.9137 84.283 68.868 85.244 66.3417C86.2051 63.8154 86.6857 62.2091 86.6857 61.5226C86.6857 61.4951 86.6857 61.4677 86.6857 61.4402C86.6857 61.1931 86.6857 61.0283 86.6857 60.946C86.6857 60.8636 86.6307 60.7675 86.5209 60.6576C86.4111 60.5478 86.26 60.4929 86.0678 60.4929H85.9031C85.2715 60.4929 84.6949 60.7537 84.1731 61.2755C83.6514 61.7972 83.2395 62.3601 82.9375 62.9642C82.6354 63.5683 82.402 64.145 82.2372 64.6941C82.0725 65.2433 81.9626 65.5454 81.9077 65.6003C81.8528 65.6552 81.6331 65.6827 81.2487 65.6827H80.6721C80.5073 65.5179 80.4249 65.3944 80.4249 65.312Z" fill="#4066E0"/>
</svg>
