<svg width="100" height="77" viewBox="0 0 100 77" fill="none" xmlns="http://www.w3.org/2000/svg">
<path d="M1.38615 55.5923C0.462049 55.5923 0 55.3205 0 54.7769C0 54.6682 0.0815381 54.2877 0.244614 53.6354C0.462049 52.7657 0.679484 52.2764 0.896919 52.1677C1.11435 52.059 1.73948 51.9775 2.77229 51.9231C4.23998 51.9231 5.87074 51.8416 7.66458 51.6785C8.4256 51.5154 8.94201 51.1893 9.2138 50.7C9.32252 50.4282 11.2523 42.7908 15.003 27.7878C18.7538 12.7848 20.6563 5.17462 20.7107 4.95718C20.7107 4.57667 20.602 4.38641 20.3845 4.38641C19.9496 4.22334 18.5091 4.08744 16.063 3.97872H13.5353C13.2092 3.65257 13.0461 3.43514 13.0461 3.32642C13.0461 3.2177 13.1004 2.75565 13.2092 1.94027C13.4266 1.01617 13.6984 0.445408 14.0245 0.227974H57.9736C58.3541 0.445408 58.5443 0.744381 58.5443 1.12489C58.5443 1.39669 58.191 4.44077 57.4843 10.2572C56.7777 16.0735 56.3972 19.0633 56.3428 19.2263C56.2341 19.6069 55.6905 19.7971 54.712 19.7971H53.7336C53.3531 19.5253 53.1628 19.172 53.1628 18.7371C53.1628 18.6828 53.2444 18.0305 53.4074 16.7802C53.5705 15.53 53.652 14.0894 53.652 12.4587C53.652 10.8279 53.4618 9.49613 53.0813 8.46332C52.7008 7.4305 52.1844 6.58794 51.5321 5.93564C50.8798 5.28333 49.8741 4.84846 48.5151 4.63103C47.1562 4.41359 45.77 4.22334 44.3567 4.06026C42.9434 3.89719 40.9865 3.87001 38.486 3.97872H36.6106C32.1532 4.03308 29.7886 4.11462 29.5168 4.22334C29.245 4.33206 29.0547 4.54949 28.946 4.87564C28.8917 4.93 27.9676 8.4905 26.1737 15.5571L23.5645 26.0755H28.0491C28.2122 26.0755 28.8373 26.0755 29.9245 26.0755C31.0116 26.0755 31.7727 26.0484 32.2075 25.994C32.6424 25.9396 33.2404 25.8581 34.0014 25.7494C34.7624 25.6407 35.4147 25.4504 35.9583 25.1786C36.5019 24.9068 36.9639 24.5807 37.3444 24.2002C38.0511 23.5479 38.649 22.6509 39.1383 21.5094C39.6275 20.3679 39.9808 19.3351 40.1983 18.411C40.4157 17.4869 40.5516 16.9976 40.606 16.9433C40.769 16.6715 41.2854 16.5356 42.1552 16.5356H43.1336C43.5141 16.8074 43.7044 17.0792 43.7044 17.351C43.7044 17.514 42.8618 21.0745 41.1767 28.0325C39.4916 34.9904 38.5675 38.578 38.4044 38.7955C38.2957 39.176 37.7521 39.3662 36.7737 39.3662H35.7952C35.4147 39.0401 35.2244 38.7139 35.2244 38.3878C35.2244 38.2247 35.3603 37.6268 35.6321 36.594C35.9039 35.5611 36.0398 34.474 36.0398 33.3324C36.0398 31.756 35.4962 30.7776 34.4091 30.3971C33.3219 30.0165 30.9029 29.8263 27.1522 29.8263H22.6676L20.0584 40.1816C18.3189 46.9221 17.4491 50.4554 17.4491 50.7816C17.4491 51.5426 19.8681 51.9231 24.706 51.9231H26.7445C27.0706 52.2493 27.2337 52.4395 27.2337 52.4939C27.2337 52.5482 27.1794 53.0918 27.0706 54.1246C26.8532 54.8313 26.5814 55.3477 26.2553 55.6739H24.8691C22.6404 55.5651 18.5363 55.5108 12.5569 55.5108C9.02355 55.5108 6.33279 55.5108 4.48459 55.5108C2.6364 55.5108 1.60358 55.538 1.38615 55.5923Z" fill="#4066E0"/>
<path d="M62.1802 34.5843L61.4308 34.8726C60.8927 35.0647 60.1241 35.2569 59.1249 35.449C58.1257 35.6412 57.0111 35.7757 55.7813 35.8526H54.686V33.2008H55.7813C57.5876 33.1239 59.2594 32.8357 60.7967 32.3361C62.3339 31.8365 63.41 31.3753 64.0249 30.9525C64.6398 30.5298 65.1779 30.1071 65.639 29.6843C65.7159 29.569 65.9465 29.5114 66.3308 29.5114C66.6767 29.5114 67.0034 29.6267 67.3108 29.8572V47.0938L67.3685 64.388C67.6375 64.6571 67.8681 64.83 68.0602 64.9069C68.2524 64.9837 68.7136 65.0606 69.4438 65.1375C70.174 65.2143 71.3654 65.2528 73.0179 65.2528H74.5167V67.9045H73.8826C73.0756 67.7892 70.0202 67.7316 64.7167 67.7316C59.49 67.7316 56.4731 67.7892 55.666 67.9045H54.9743V65.2528H56.4731C57.3186 65.2528 58.0488 65.2528 58.6637 65.2528C59.2786 65.2528 59.759 65.2335 60.1049 65.1951C60.4508 65.1567 60.7582 65.099 61.0273 65.0222C61.2963 64.9453 61.45 64.9069 61.4884 64.9069C61.5269 64.9069 61.6422 64.8108 61.8343 64.6186C62.0265 64.4265 62.1418 64.3496 62.1802 64.388V34.5843Z" fill="#4066E0"/>
<path d="M80.8444 64.773C81.0346 63.6318 81.7682 62.314 83.0452 60.8196C84.3223 59.3252 85.8982 58.5644 87.773 58.5372C88.724 58.5372 89.5935 58.7817 90.3814 59.2708C91.1694 59.7599 91.7536 60.3713 92.134 61.1049C93.2752 59.3931 94.6473 58.5372 96.2504 58.5372C97.2557 58.5372 98.1252 58.8361 98.8588 59.4339C99.5924 60.0316 99.9728 60.8332 100 61.8385C100 62.6265 99.8098 63.265 99.4294 63.7541C99.049 64.2431 98.6822 64.542 98.329 64.6507C97.9758 64.7594 97.6633 64.8137 97.3916 64.8137C96.8753 64.8137 96.4542 64.6643 96.1281 64.3654C95.8021 64.0665 95.639 63.6726 95.639 63.1835C95.639 61.9336 96.3183 61.0777 97.6769 60.6158C97.378 60.2626 96.8346 60.086 96.0466 60.086C95.6934 60.086 95.4353 60.1131 95.2722 60.1675C94.2397 60.6022 93.4789 61.4989 92.9899 62.8574C91.3596 68.8622 90.5445 72.3673 90.5445 73.3727C90.5445 74.1334 90.7618 74.6769 91.1966 75.0029C91.6313 75.329 92.1068 75.492 92.623 75.492C93.6284 75.492 94.6201 75.0437 95.5983 74.147C96.5764 73.2504 97.2421 72.15 97.5954 70.8457C97.6769 70.574 97.7584 70.4246 97.8399 70.3974C97.9214 70.3702 98.1388 70.3431 98.492 70.3159H98.655C99.0626 70.3159 99.2664 70.4246 99.2664 70.642C99.2664 70.6691 99.2392 70.8186 99.1849 71.0903C98.7501 72.639 97.9078 74.0112 96.658 75.2067C95.4081 76.4022 93.9544 77 92.297 77C90.395 77 88.9549 76.1441 87.9768 74.4323C86.8628 76.1169 85.5857 76.9592 84.1456 76.9592H83.9011C82.5697 76.9592 81.6187 76.606 81.0481 75.8996C80.4775 75.1931 80.1787 74.4459 80.1515 73.6579C80.1515 72.7885 80.4096 72.082 80.9259 71.5386C81.4421 70.9952 82.0535 70.7235 82.7599 70.7235C83.9283 70.7235 84.5125 71.2941 84.5125 72.4352C84.5125 72.9787 84.3494 73.4542 84.0234 73.8617C83.6973 74.2693 83.3849 74.541 83.086 74.6769C82.7871 74.8127 82.6105 74.8807 82.5561 74.8807L82.4339 74.9214C82.4339 74.9486 82.5154 75.0029 82.6784 75.0844C82.8414 75.1659 83.0588 75.261 83.3305 75.3697C83.6022 75.4784 83.8604 75.5192 84.1049 75.492C85.0831 75.492 85.9254 74.8807 86.6318 73.6579C86.8763 73.2232 87.1888 72.2994 87.5692 70.8865C87.9496 69.4736 88.33 68.0064 88.7104 66.4848C89.0908 64.9632 89.3082 64.0665 89.3625 63.7948C89.4984 63.0612 89.5663 62.5314 89.5663 62.2053C89.5663 61.4445 89.3625 60.9011 88.9549 60.575C88.5474 60.249 88.0855 60.086 87.5692 60.086C86.4824 60.086 85.4634 60.5207 84.5125 61.3902C83.5615 62.2597 82.8958 63.3737 82.5154 64.7322C82.461 64.9768 82.3931 65.1126 82.3116 65.1398C82.2301 65.167 82.0127 65.1941 81.6595 65.2213H81.0889C80.9259 65.0583 80.8444 64.9088 80.8444 64.773Z" fill="#4066E0"/>
</svg>
