<svg width="445" height="291" viewBox="0 0 445 291" fill="none" xmlns="http://www.w3.org/2000/svg">
<path d="M355 21L303.352 26.6999L334.112 68.5784L355 21ZM18.6639 273.627L325.023 48.602L319.695 41.3485L13.3361 266.373L18.6639 273.627Z" fill="#4066E0"/>
<path d="M376.125 66.0112C375.375 66.0112 375 65.7907 375 65.3497C375 65.2615 375.066 64.9528 375.198 64.4236C375.375 63.718 375.551 63.3211 375.728 63.2329C375.904 63.1447 376.411 63.0785 377.249 63.0344C378.44 63.0344 379.763 62.9683 381.218 62.836C381.836 62.7037 382.255 62.4391 382.475 62.0422C382.563 61.8217 384.129 55.6255 387.172 43.4538C390.215 31.2821 391.758 25.108 391.802 24.9316C391.802 24.6229 391.714 24.4685 391.538 24.4685C391.185 24.3362 390.016 24.226 388.032 24.1378H385.981C385.716 23.8732 385.584 23.6968 385.584 23.6086C385.584 23.5204 385.628 23.1455 385.716 22.484C385.893 21.7343 386.113 21.2713 386.378 21.0948H422.033C422.342 21.2713 422.496 21.5138 422.496 21.8225C422.496 22.043 422.21 24.5126 421.636 29.2314C421.063 33.9501 420.754 36.3757 420.71 36.508C420.622 36.8167 420.181 36.971 419.387 36.971H418.593C418.285 36.7505 418.13 36.4639 418.13 36.1111C418.13 36.067 418.196 35.5378 418.329 34.5235C418.461 33.5091 418.527 32.3405 418.527 31.0175C418.527 29.6944 418.373 28.614 418.064 27.7761C417.755 26.9382 417.336 26.2546 416.807 25.7254C416.278 25.1962 415.462 24.8434 414.36 24.667C413.257 24.4906 412.133 24.3362 410.986 24.2039C409.839 24.0716 408.252 24.0496 406.223 24.1378H404.702C401.085 24.1819 399.167 24.248 398.947 24.3362C398.726 24.4244 398.572 24.6008 398.484 24.8654C398.439 24.9095 397.69 27.7981 396.234 33.5312L394.118 42.0646H397.756C397.888 42.0646 398.395 42.0646 399.277 42.0646C400.159 42.0646 400.777 42.0426 401.13 41.9985C401.482 41.9544 401.967 41.8882 402.585 41.8C403.202 41.7118 403.731 41.5575 404.172 41.337C404.613 41.1165 404.988 40.8519 405.297 40.5432C405.87 40.014 406.355 39.2863 406.752 38.3602C407.149 37.4341 407.436 36.5962 407.612 35.8465C407.789 35.0968 407.899 34.6999 407.943 34.6558C408.075 34.4353 408.494 34.325 409.2 34.325H409.994C410.302 34.5455 410.457 34.766 410.457 34.9865C410.457 35.1188 409.773 38.0074 408.406 43.6523C407.039 49.2971 406.289 52.2078 406.157 52.3842C406.069 52.6929 405.628 52.8472 404.834 52.8472H404.04C403.731 52.5826 403.577 52.318 403.577 52.0534C403.577 51.9211 403.687 51.436 403.908 50.5981C404.128 49.7602 404.239 48.8782 404.239 47.9521C404.239 46.6731 403.798 45.8793 402.916 45.5706C402.034 45.2619 400.071 45.1076 397.028 45.1076H393.39L391.273 53.5087C389.862 58.9772 389.156 61.8437 389.156 62.1083C389.156 62.7257 391.119 63.0344 395.044 63.0344H396.697C396.962 63.299 397.094 63.4534 397.094 63.4975C397.094 63.5416 397.05 63.9826 396.962 64.8205C396.786 65.3938 396.565 65.8128 396.301 66.0774H395.176C393.368 65.9892 390.038 65.9451 385.187 65.9451C382.321 65.9451 380.138 65.9451 378.638 65.9451C377.139 65.9451 376.301 65.9671 376.125 66.0112Z" fill="#4066E0"/>
<path d="M416.893 5.35096C416.893 4.99816 417.004 4.68945 417.224 4.42485C417.445 4.16025 417.775 4.02794 418.216 4.02794C418.525 4.02794 418.79 4.1382 419.01 4.3587C419.231 4.5351 419.451 4.95405 419.672 5.61556C420.113 7.24728 421.017 8.50415 422.384 9.38616C422.869 9.69486 423.111 10.0918 423.111 10.5769C423.111 10.9738 423.045 11.2384 422.913 11.3707C422.781 11.503 422.472 11.7014 421.987 11.966C420.091 12.9362 418.437 14.3254 417.026 16.1335C416.937 16.2217 416.827 16.354 416.695 16.5304C416.563 16.7068 416.452 16.8391 416.364 16.9273C416.276 17.0155 416.166 17.0596 416.033 17.0596C415.901 17.0596 415.747 17.0817 415.57 17.1258C415.262 17.1258 414.975 17.0155 414.71 16.795C414.446 16.5745 414.291 16.2438 414.247 15.8028C414.247 14.9649 415.284 13.6639 417.356 11.8999H406.045L394.733 11.8337C394.159 11.4368 393.873 11.0179 393.873 10.5769C393.873 10.2682 394.159 9.82716 394.733 9.25385H418.481C417.422 7.57803 416.893 6.27707 416.893 5.35096Z" fill="#4066E0"/>
<path d="M434.992 48.9677L434.384 49.2016C433.947 49.3575 433.323 49.5134 432.513 49.6693C431.702 49.8252 430.798 49.9343 429.8 49.9966H428.912V47.8453H429.8C431.266 47.7829 432.622 47.5491 433.869 47.1438C435.116 46.7384 435.989 46.3643 436.488 46.0213C436.987 45.6783 437.424 45.3354 437.798 44.9924C437.86 44.8989 438.047 44.8521 438.359 44.8521C438.639 44.8521 438.905 44.9456 439.154 45.1327V59.1165L439.201 73.1471C439.419 73.3653 439.606 73.5056 439.762 73.568C439.918 73.6304 440.292 73.6927 440.884 73.7551C441.477 73.8174 442.443 73.8486 443.784 73.8486H445V76H444.486C443.831 75.9064 441.352 75.8597 437.049 75.8597C432.809 75.8597 430.361 75.9064 429.707 76H429.145V73.8486H430.361C431.047 73.8486 431.64 73.8486 432.139 73.8486C432.638 73.8486 433.027 73.833 433.308 73.8018C433.588 73.7707 433.838 73.7239 434.056 73.6615C434.274 73.5992 434.399 73.568 434.43 73.568C434.461 73.568 434.555 73.4901 434.711 73.3342C434.867 73.1783 434.96 73.1159 434.992 73.1471V48.9677Z" fill="#4066E0"/>
</svg>
