<svg width="438" height="291" viewBox="0 0 438 291" fill="none" xmlns="http://www.w3.org/2000/svg">
<path d="M83.0048 20.9934L103.891 68.5726L134.653 26.6954L83.0048 20.9934ZM424.659 266.38L118.309 41.3433L112.981 48.5966L419.331 273.633L424.659 266.38Z" fill="#4066E0"/>
<path d="M1.12456 67.0112C0.374854 67.0112 0 66.7907 0 66.3497C0 66.2615 0.0661508 65.9528 0.198452 65.4236C0.374854 64.718 0.551256 64.3211 0.727658 64.2329C0.90406 64.1447 1.41122 64.0785 2.24913 64.0344C3.43984 64.0344 4.76285 63.9683 6.21817 63.836C6.83558 63.7037 7.25453 63.4391 7.47504 63.0422C7.56324 62.8217 9.1288 56.6255 12.1717 44.4538C15.2147 32.2821 16.7582 26.108 16.8023 25.9316C16.8023 25.6229 16.7141 25.4685 16.5377 25.4685C16.1849 25.3362 15.0162 25.226 13.0317 25.1378H10.981C10.7164 24.8732 10.5841 24.6968 10.5841 24.6086C10.5841 24.5204 10.6282 24.1455 10.7164 23.484C10.8928 22.7343 11.1133 22.2713 11.3779 22.0948H47.0332C47.3419 22.2713 47.4962 22.5138 47.4962 22.8225C47.4962 23.043 47.2096 25.5126 46.6363 30.2314C46.063 34.9501 45.7543 37.3757 45.7102 37.508C45.622 37.8167 45.181 37.971 44.3872 37.971H43.5933C43.2846 37.7505 43.1303 37.4639 43.1303 37.1111C43.1303 37.067 43.1964 36.5378 43.3287 35.5235C43.461 34.5091 43.5272 33.3405 43.5272 32.0175C43.5272 30.6944 43.3728 29.614 43.0641 28.7761C42.7554 27.9382 42.3365 27.2546 41.8073 26.7254C41.2781 26.1962 40.4622 25.8434 39.3597 25.667C38.2572 25.4906 37.1326 25.3362 35.986 25.2039C34.8394 25.0716 33.2518 25.0496 31.2232 25.1378H29.7017C26.0854 25.1819 24.1671 25.248 23.9466 25.3362C23.7261 25.4244 23.5717 25.6008 23.4835 25.8654C23.4394 25.9095 22.6897 28.7981 21.2344 34.5312L19.1176 43.0646H22.7559C22.8882 43.0646 23.3953 43.0646 24.2773 43.0646C25.1593 43.0646 25.7767 43.0426 26.1295 42.9985C26.4824 42.9544 26.9675 42.8882 27.5849 42.8C28.2023 42.7118 28.7315 42.5575 29.1725 42.337C29.6135 42.1165 29.9883 41.8519 30.297 41.5432C30.8704 41.014 31.3555 40.2863 31.7524 39.3602C32.1493 38.4341 32.4359 37.5962 32.6123 36.8465C32.7887 36.0968 32.899 35.6999 32.9431 35.6558C33.0754 35.4353 33.4943 35.325 34.1999 35.325H34.9937C35.3025 35.5455 35.4568 35.766 35.4568 35.9865C35.4568 36.1188 34.7732 39.0074 33.4061 44.6523C32.039 50.2971 31.2893 53.2078 31.157 53.3842C31.0688 53.6929 30.6278 53.8472 29.834 53.8472H29.0402C28.7315 53.5826 28.5771 53.318 28.5771 53.0534C28.5771 52.9211 28.6874 52.436 28.9079 51.5981C29.1284 50.7602 29.2386 49.8782 29.2386 48.9521C29.2386 47.6731 28.7976 46.8793 27.9156 46.5706C27.0336 46.2619 25.0711 46.1076 22.0282 46.1076H18.3899L16.2731 54.5087C14.8619 59.9772 14.1563 62.8437 14.1563 63.1083C14.1563 63.7257 16.1187 64.0344 20.0437 64.0344H21.6974C21.9621 64.299 22.0944 64.4534 22.0944 64.4975C22.0944 64.5416 22.0503 64.9826 21.9621 65.8205C21.7856 66.3938 21.5651 66.8128 21.3005 67.0774H20.176C18.3679 66.9892 15.0383 66.9451 10.1872 66.9451C7.32068 66.9451 5.13771 66.9451 3.63829 66.9451C2.13887 66.9451 1.30096 66.9671 1.12456 67.0112Z" fill="#4066E0"/>
<path d="M41.8933 6.35096C41.8933 5.99816 42.0035 5.68945 42.224 5.42485C42.4445 5.16025 42.7753 5.02794 43.2163 5.02794C43.525 5.02794 43.7896 5.1382 44.0101 5.3587C44.2306 5.5351 44.4511 5.95405 44.6716 6.61556C45.1126 8.24728 46.0167 9.50415 47.3838 10.3862C47.8689 10.6949 48.1114 11.0918 48.1114 11.5769C48.1114 11.9738 48.0453 12.2384 47.913 12.3707C47.7807 12.503 47.472 12.7014 46.9869 12.966C45.0906 13.9362 43.4368 15.3254 42.0256 17.1335C41.9374 17.2217 41.8271 17.354 41.6948 17.5304C41.5625 17.7068 41.4523 17.8391 41.3641 17.9273C41.2759 18.0155 41.1656 18.0596 41.0333 18.0596C40.901 18.0596 40.7467 18.0817 40.5703 18.1258C40.2615 18.1258 39.9749 18.0155 39.7103 17.795C39.4457 17.5745 39.2913 17.2438 39.2472 16.8028C39.2472 15.9649 40.2836 14.6639 42.3563 12.8999H31.0445L19.7328 12.8337C19.1595 12.4368 18.8728 12.0179 18.8728 11.5769C18.8728 11.2682 19.1595 10.8272 19.7328 10.2539H43.4809C42.4225 8.57803 41.8933 7.27707 41.8933 6.35096Z" fill="#4066E0"/>
<path d="M59.9915 49.9677L59.3835 50.2016C58.947 50.3575 58.3235 50.5134 57.5128 50.6693C56.7021 50.8252 55.798 50.9343 54.8002 50.9966H53.9116V48.8453H54.8002C56.2656 48.7829 57.6219 48.5491 58.8691 48.1438C60.1163 47.7384 60.9893 47.3643 61.4881 47.0213C61.987 46.6783 62.4235 46.3354 62.7977 45.9924C62.86 45.8989 63.0471 45.8521 63.3589 45.8521C63.6395 45.8521 63.9045 45.9456 64.1539 46.1327V60.1165L64.2007 74.1471C64.419 74.3653 64.606 74.5056 64.7619 74.568C64.9178 74.6304 65.292 74.6927 65.8844 74.7551C66.4768 74.8174 67.4433 74.8486 68.784 74.8486H70V77H69.4856C68.8308 76.9064 66.3521 76.8597 62.0494 76.8597C57.809 76.8597 55.3614 76.9064 54.7067 77H54.1455V74.8486H55.3614C56.0474 74.8486 56.6398 74.8486 57.1387 74.8486C57.6375 74.8486 58.0273 74.833 58.3079 74.8018C58.5885 74.7707 58.8379 74.7239 59.0562 74.6615C59.2744 74.5992 59.3991 74.568 59.4303 74.568C59.4615 74.568 59.555 74.4901 59.7109 74.3342C59.8668 74.1783 59.9604 74.1159 59.9915 74.1471V49.9677Z" fill="#4066E0"/>
</svg>
