<svg width="438" height="291" viewBox="0 0 438 291" fill="none" xmlns="http://www.w3.org/2000/svg">
<path d="M83.0048 270.007L134.653 264.305L103.891 222.427L83.0048 270.007ZM419.331 17.3667L112.981 242.403L118.309 249.657L424.659 24.6201L419.331 17.3667Z" fill="#4066E0"/>
<path d="M1.12456 272.011C0.374854 272.011 0 271.791 0 271.35C0 271.262 0.0661508 270.953 0.198452 270.424C0.374854 269.718 0.551256 269.321 0.727658 269.233C0.90406 269.145 1.41122 269.079 2.24913 269.034C3.43984 269.034 4.76285 268.968 6.21817 268.836C6.83558 268.704 7.25453 268.439 7.47504 268.042C7.56324 267.822 9.1288 261.626 12.1717 249.454C15.2147 237.282 16.7582 231.108 16.8023 230.932C16.8023 230.623 16.7141 230.469 16.5377 230.469C16.1849 230.336 15.0162 230.226 13.0317 230.138H10.981C10.7164 229.873 10.5841 229.697 10.5841 229.609C10.5841 229.52 10.6282 229.146 10.7164 228.484C10.8928 227.734 11.1133 227.271 11.3779 227.095H47.0332C47.3419 227.271 47.4962 227.514 47.4962 227.823C47.4962 228.043 47.2096 230.513 46.6363 235.231C46.063 239.95 45.7543 242.376 45.7102 242.508C45.622 242.817 45.181 242.971 44.3872 242.971H43.5933C43.2846 242.751 43.1303 242.464 43.1303 242.111C43.1303 242.067 43.1964 241.538 43.3287 240.523C43.461 239.509 43.5272 238.341 43.5272 237.017C43.5272 235.694 43.3728 234.614 43.0641 233.776C42.7554 232.938 42.3365 232.255 41.8073 231.725C41.2781 231.196 40.4622 230.843 39.3597 230.667C38.2572 230.491 37.1326 230.336 35.986 230.204C34.8394 230.072 33.2518 230.05 31.2232 230.138H29.7017C26.0854 230.182 24.1671 230.248 23.9466 230.336C23.7261 230.424 23.5717 230.601 23.4835 230.865C23.4394 230.91 22.6897 233.798 21.2344 239.531L19.1176 248.065H22.7559C22.8882 248.065 23.3953 248.065 24.2773 248.065C25.1593 248.065 25.7767 248.043 26.1295 247.999C26.4824 247.954 26.9675 247.888 27.5849 247.8C28.2023 247.712 28.7315 247.558 29.1725 247.337C29.6135 247.117 29.9883 246.852 30.297 246.543C30.8704 246.014 31.3555 245.286 31.7524 244.36C32.1493 243.434 32.4359 242.596 32.6123 241.846C32.7887 241.097 32.899 240.7 32.9431 240.656C33.0754 240.435 33.4943 240.325 34.1999 240.325H34.9937C35.3025 240.546 35.4568 240.766 35.4568 240.987C35.4568 241.119 34.7732 244.007 33.4061 249.652C32.039 255.297 31.2893 258.208 31.157 258.384C31.0688 258.693 30.6278 258.847 29.834 258.847H29.0402C28.7315 258.583 28.5771 258.318 28.5771 258.053C28.5771 257.921 28.6874 257.436 28.9079 256.598C29.1284 255.76 29.2386 254.878 29.2386 253.952C29.2386 252.673 28.7976 251.879 27.9156 251.571C27.0336 251.262 25.0711 251.108 22.0282 251.108H18.3899L16.2731 259.509C14.8619 264.977 14.1563 267.844 14.1563 268.108C14.1563 268.726 16.1187 269.034 20.0437 269.034H21.6974C21.9621 269.299 22.0944 269.453 22.0944 269.498C22.0944 269.542 22.0503 269.983 21.9621 270.821C21.7856 271.394 21.5651 271.813 21.3005 272.077H20.176C18.3679 271.989 15.0383 271.945 10.1872 271.945C7.32068 271.945 5.13771 271.945 3.63829 271.945C2.13887 271.945 1.30096 271.967 1.12456 272.011Z" fill="#4066E0"/>
<path d="M41.8933 211.351C41.8933 210.998 42.0035 210.689 42.224 210.425C42.4445 210.16 42.7753 210.028 43.2163 210.028C43.525 210.028 43.7896 210.138 44.0101 210.359C44.2306 210.535 44.4511 210.954 44.6716 211.616C45.1126 213.247 46.0167 214.504 47.3838 215.386C47.8689 215.695 48.1114 216.092 48.1114 216.577C48.1114 216.974 48.0453 217.238 47.913 217.371C47.7807 217.503 47.472 217.701 46.9869 217.966C45.0906 218.936 43.4368 220.325 42.0256 222.134C41.9374 222.222 41.8271 222.354 41.6948 222.53C41.5625 222.707 41.4523 222.839 41.3641 222.927C41.2759 223.016 41.1656 223.06 41.0333 223.06C40.901 223.06 40.7467 223.082 40.5703 223.126C40.2615 223.126 39.9749 223.016 39.7103 222.795C39.4457 222.575 39.2913 222.244 39.2472 221.803C39.2472 220.965 40.2836 219.664 42.3563 217.9H31.0445L19.7328 217.834C19.1595 217.437 18.8728 217.018 18.8728 216.577C18.8728 216.268 19.1595 215.827 19.7328 215.254H43.4809C42.4225 213.578 41.8933 212.277 41.8933 211.351Z" fill="#4066E0"/>
<path d="M59.9915 254.968L59.3835 255.202C58.947 255.357 58.3235 255.513 57.5128 255.669C56.7021 255.825 55.798 255.934 54.8002 255.997H53.9116V253.845H54.8002C56.2656 253.783 57.6219 253.549 58.8691 253.144C60.1163 252.738 60.9893 252.364 61.4881 252.021C61.987 251.678 62.4235 251.335 62.7977 250.992C62.86 250.899 63.0471 250.852 63.3589 250.852C63.6395 250.852 63.9045 250.946 64.1539 251.133V265.117L64.2007 279.147C64.419 279.365 64.606 279.506 64.7619 279.568C64.9178 279.63 65.292 279.693 65.8844 279.755C66.4768 279.817 67.4433 279.849 68.784 279.849H70V282H69.4856C68.8308 281.906 66.3521 281.86 62.0494 281.86C57.809 281.86 55.3614 281.906 54.7067 282H54.1455V279.849H55.3614C56.0474 279.849 56.6398 279.849 57.1387 279.849C57.6375 279.849 58.0273 279.833 58.3079 279.802C58.5885 279.771 58.8379 279.724 59.0562 279.662C59.2744 279.599 59.3991 279.568 59.4303 279.568C59.4615 279.568 59.555 279.49 59.7109 279.334C59.8668 279.178 59.9604 279.116 59.9915 279.147V254.968Z" fill="#4066E0"/>
</svg>
