<svg width="444" height="295" viewBox="0 0 444 295" fill="none" xmlns="http://www.w3.org/2000/svg">
<path d="M353.122 273.187L332.569 225.463L301.515 267.124L353.122 273.187ZM13.1888 25.4211L317.961 252.591L323.339 245.375L18.5675 18.2052L13.1888 25.4211Z" fill="#4066E0"/>
<path d="M375.125 273.011C374.375 273.011 374 272.791 374 272.35C374 272.262 374.066 271.953 374.198 271.424C374.375 270.718 374.551 270.321 374.728 270.233C374.904 270.145 375.411 270.079 376.249 270.034C377.44 270.034 378.763 269.968 380.218 269.836C380.836 269.704 381.255 269.439 381.475 269.042C381.563 268.822 383.129 262.626 386.172 250.454C389.215 238.282 390.758 232.108 390.802 231.932C390.802 231.623 390.714 231.469 390.538 231.469C390.185 231.336 389.016 231.226 387.032 231.138H384.981C384.716 230.873 384.584 230.697 384.584 230.609C384.584 230.52 384.628 230.146 384.716 229.484C384.893 228.734 385.113 228.271 385.378 228.095H421.033C421.342 228.271 421.496 228.514 421.496 228.823C421.496 229.043 421.21 231.513 420.636 236.231C420.063 240.95 419.754 243.376 419.71 243.508C419.622 243.817 419.181 243.971 418.387 243.971H417.593C417.285 243.751 417.13 243.464 417.13 243.111C417.13 243.067 417.196 242.538 417.329 241.523C417.461 240.509 417.527 239.34 417.527 238.017C417.527 236.694 417.373 235.614 417.064 234.776C416.755 233.938 416.336 233.255 415.807 232.725C415.278 232.196 414.462 231.843 413.36 231.667C412.257 231.491 411.133 231.336 409.986 231.204C408.839 231.072 407.252 231.05 405.223 231.138H403.702C400.085 231.182 398.167 231.248 397.947 231.336C397.726 231.424 397.572 231.601 397.484 231.865C397.439 231.91 396.69 234.798 395.234 240.531L393.118 249.065H396.756C396.888 249.065 397.395 249.065 398.277 249.065C399.159 249.065 399.777 249.043 400.13 248.999C400.482 248.954 400.967 248.888 401.585 248.8C402.202 248.712 402.731 248.558 403.172 248.337C403.613 248.116 403.988 247.852 404.297 247.543C404.87 247.014 405.355 246.286 405.752 245.36C406.149 244.434 406.436 243.596 406.612 242.846C406.789 242.097 406.899 241.7 406.943 241.656C407.075 241.435 407.494 241.325 408.2 241.325H408.994C409.302 241.546 409.457 241.766 409.457 241.987C409.457 242.119 408.773 245.007 407.406 250.652C406.039 256.297 405.289 259.208 405.157 259.384C405.069 259.693 404.628 259.847 403.834 259.847H403.04C402.731 259.583 402.577 259.318 402.577 259.053C402.577 258.921 402.687 258.436 402.908 257.598C403.128 256.76 403.239 255.878 403.239 254.952C403.239 253.673 402.798 252.879 401.916 252.571C401.034 252.262 399.071 252.108 396.028 252.108H392.39L390.273 260.509C388.862 265.977 388.156 268.844 388.156 269.108C388.156 269.726 390.119 270.034 394.044 270.034H395.697C395.962 270.299 396.094 270.453 396.094 270.498C396.094 270.542 396.05 270.983 395.962 271.821C395.786 272.394 395.565 272.813 395.301 273.077H394.176C392.368 272.989 389.038 272.945 384.187 272.945C381.321 272.945 379.138 272.945 377.638 272.945C376.139 272.945 375.301 272.967 375.125 273.011Z" fill="#4066E0"/>
<path d="M415.893 212.351C415.893 211.998 416.004 211.689 416.224 211.425C416.445 211.16 416.775 211.028 417.216 211.028C417.525 211.028 417.79 211.138 418.01 211.359C418.231 211.535 418.451 211.954 418.672 212.616C419.113 214.247 420.017 215.504 421.384 216.386C421.869 216.695 422.111 217.092 422.111 217.577C422.111 217.974 422.045 218.238 421.913 218.371C421.781 218.503 421.472 218.701 420.987 218.966C419.091 219.936 417.437 221.325 416.026 223.134C415.937 223.222 415.827 223.354 415.695 223.53C415.563 223.707 415.452 223.839 415.364 223.927C415.276 224.016 415.166 224.06 415.033 224.06C414.901 224.06 414.747 224.082 414.57 224.126C414.262 224.126 413.975 224.016 413.71 223.795C413.446 223.575 413.291 223.244 413.247 222.803C413.247 221.965 414.284 220.664 416.356 218.9H405.045L393.733 218.834C393.159 218.437 392.873 218.018 392.873 217.577C392.873 217.268 393.159 216.827 393.733 216.254H417.481C416.422 214.578 415.893 213.277 415.893 212.351Z" fill="#4066E0"/>
<path d="M433.992 255.968L433.384 256.202C432.947 256.357 432.323 256.513 431.513 256.669C430.702 256.825 429.798 256.934 428.8 256.997H427.912V254.845H428.8C430.266 254.783 431.622 254.549 432.869 254.144C434.116 253.738 434.989 253.364 435.488 253.021C435.987 252.678 436.424 252.335 436.798 251.992C436.86 251.899 437.047 251.852 437.359 251.852C437.639 251.852 437.905 251.946 438.154 252.133V266.117L438.201 280.147C438.419 280.365 438.606 280.506 438.762 280.568C438.918 280.63 439.292 280.693 439.884 280.755C440.477 280.817 441.443 280.849 442.784 280.849H444V283H443.486C442.831 282.906 440.352 282.86 436.049 282.86C431.809 282.86 429.361 282.906 428.707 283H428.145V280.849H429.361C430.047 280.849 430.64 280.849 431.139 280.849C431.638 280.849 432.027 280.833 432.308 280.802C432.588 280.771 432.838 280.724 433.056 280.662C433.274 280.599 433.399 280.568 433.43 280.568C433.461 280.568 433.555 280.49 433.711 280.334C433.867 280.178 433.96 280.116 433.992 280.147V255.968Z" fill="#4066E0"/>
</svg>
