<svg width="369" height="322" viewBox="0 0 369 322" fill="none" xmlns="http://www.w3.org/2000/svg">
<path d="M265 83L219.754 92.28L250.414 126.824L265 83ZM18.6552 306.992L240.731 109.889L235.42 103.905L13.3448 301.008L18.6552 306.992Z" fill="#4066E0"/>
<path d="M284.382 85.3803C283.461 85.3803 283 85.0796 283 84.4783C283 84.358 283.081 83.9371 283.244 83.2155C283.461 82.2534 283.677 81.7123 283.894 81.592C284.111 81.4717 284.734 81.3815 285.763 81.3214C287.226 81.3214 288.852 81.2312 290.639 81.0508C291.398 80.8704 291.913 80.5096 292.184 79.9684C292.292 79.6678 294.215 71.2193 297.954 54.6231C301.692 38.0268 303.589 29.6084 303.643 29.3679C303.643 28.947 303.534 28.7365 303.318 28.7365C302.884 28.5561 301.449 28.4058 299.01 28.2856H296.491C296.166 27.9248 296.003 27.6842 296.003 27.564C296.003 27.4437 296.058 26.9326 296.166 26.0306C296.383 25.0084 296.654 24.377 296.979 24.1365H340.784C341.163 24.377 341.353 24.7077 341.353 25.1287C341.353 25.4293 341 28.7967 340.296 35.2307C339.592 41.6648 339.212 44.972 339.158 45.1524C339.05 45.5733 338.508 45.7838 337.533 45.7838H336.558C336.178 45.4831 335.989 45.0923 335.989 44.6112C335.989 44.5511 336.07 43.8295 336.232 42.4465C336.395 41.0635 336.476 39.47 336.476 37.666C336.476 35.8621 336.287 34.3889 335.907 33.2464C335.528 32.1039 335.013 31.1719 334.363 30.4503C333.713 29.7287 332.711 29.2477 331.356 29.0071C330.002 28.7666 328.62 28.5561 327.211 28.3758C325.803 28.1954 323.852 28.1653 321.36 28.2856H319.491C315.048 28.3457 312.691 28.4359 312.42 28.5561C312.149 28.6764 311.96 28.9169 311.851 29.2777C311.797 29.3379 310.876 33.2765 309.088 41.0935L306.487 52.7289H310.957C311.12 52.7289 311.743 52.7289 312.826 52.7289C313.91 52.7289 314.669 52.6989 315.102 52.6387C315.535 52.5786 316.131 52.4884 316.89 52.3682C317.649 52.2479 318.299 52.0374 318.84 51.7368C319.382 51.4361 319.843 51.0753 320.222 50.6544C320.926 49.9328 321.522 48.9407 322.01 47.6779C322.498 46.4152 322.85 45.2727 323.067 44.2504C323.283 43.2282 323.419 42.687 323.473 42.6269C323.635 42.3262 324.15 42.1759 325.017 42.1759H325.992C326.372 42.4766 326.561 42.7772 326.561 43.0779C326.561 43.2583 325.721 47.1969 324.042 54.8937C322.362 62.5905 321.441 66.5592 321.279 66.7997C321.17 67.2206 320.628 67.4311 319.653 67.4311H318.678C318.299 67.0703 318.109 66.7095 318.109 66.3487C318.109 66.1683 318.244 65.5069 318.515 64.3644C318.786 63.2219 318.922 62.0192 318.922 60.7565C318.922 59.0127 318.38 57.9303 317.296 57.5094C316.213 57.0885 313.802 56.878 310.063 56.878H305.593L302.993 68.333C301.259 75.7893 300.392 79.6979 300.392 80.0586C300.392 80.9005 302.803 81.3214 307.625 81.3214H309.657C309.982 81.6822 310.144 81.8926 310.144 81.9528C310.144 82.0129 310.09 82.6142 309.982 83.7567C309.765 84.5384 309.494 85.1097 309.169 85.4705H307.788C305.566 85.3502 301.476 85.2901 295.516 85.2901C291.994 85.2901 289.312 85.2901 287.47 85.2901C285.628 85.2901 284.598 85.3201 284.382 85.3803Z" fill="#4066E0"/>
<path d="M334.469 2.6696C334.469 2.18855 334.604 1.76763 334.875 1.40684C335.146 1.04606 335.552 0.865662 336.094 0.865662C336.474 0.865662 336.799 1.01599 337.07 1.31665C337.34 1.55717 337.611 2.12842 337.882 3.03039C338.424 5.25525 339.535 6.96899 341.214 8.17162C341.81 8.59254 342.108 9.13372 342.108 9.79517C342.108 10.3363 342.027 10.6971 341.865 10.8775C341.702 11.0579 341.323 11.3285 340.727 11.6893C338.397 13.0122 336.365 14.9063 334.631 17.3717C334.523 17.492 334.388 17.6724 334.225 17.9129C334.063 18.1534 333.927 18.3338 333.819 18.4541C333.71 18.5743 333.575 18.6345 333.412 18.6345C333.25 18.6345 333.06 18.6645 332.843 18.7247C332.464 18.7247 332.112 18.5743 331.787 18.2737C331.462 17.973 331.272 17.522 331.218 16.9207C331.218 15.7782 332.491 14.0044 335.038 11.5991H321.14L307.243 11.5089C306.539 10.9677 306.187 10.3965 306.187 9.79517C306.187 9.37425 306.539 8.77293 307.243 7.99123H336.419C335.119 5.70623 334.469 3.93236 334.469 2.6696Z" fill="#4066E0"/>
<path d="M356.704 62.1414L355.957 62.4602C355.421 62.6728 354.655 62.8853 353.659 63.0979C352.663 63.3105 351.552 63.4593 350.326 63.5443H349.234V60.6109H350.326C352.126 60.5259 353.793 60.207 355.325 59.6544C356.857 59.1017 357.93 58.5915 358.543 58.1239C359.155 57.6563 359.692 57.1886 360.151 56.721C360.228 56.5934 360.458 56.5297 360.841 56.5297C361.186 56.5297 361.511 56.6572 361.818 56.9123V75.9793L361.875 95.1101C362.143 95.4077 362.373 95.599 362.565 95.684C362.756 95.769 363.216 95.8541 363.944 95.9391C364.671 96.0241 365.859 96.0666 367.506 96.0666H369V99H368.368C367.564 98.8725 364.518 98.8087 359.232 98.8087C354.022 98.8087 351.015 98.8725 350.211 99H349.522V96.0666H351.015C351.858 96.0666 352.586 96.0666 353.199 96.0666C353.812 96.0666 354.291 96.0454 354.635 96.0029C354.98 95.9603 355.287 95.8966 355.555 95.8116C355.823 95.7265 355.976 95.684 356.014 95.684C356.053 95.684 356.168 95.5777 356.359 95.3652C356.551 95.1526 356.666 95.0676 356.704 95.1101V62.1414Z" fill="#4066E0"/>
</svg>
