<svg width="729" height="744" viewBox="0 0 729 744" fill="none" xmlns="http://www.w3.org/2000/svg">
<path d="M694.768 398.768C695.745 397.791 695.745 396.209 694.768 395.232L678.859 379.322C677.882 378.346 676.299 378.346 675.323 379.322C674.347 380.299 674.347 381.882 675.323 382.858L689.465 397L675.323 411.142C674.347 412.118 674.347 413.701 675.323 414.678C676.299 415.654 677.882 415.654 678.859 414.678L694.768 398.768ZM0 399.5H693.001V394.5H0V399.5Z" fill="#343A40"/>
<path d="M348.268 48.7319C347.292 47.7556 345.709 47.7556 344.733 48.7319L328.823 64.6418C327.846 65.6181 327.846 67.201 328.823 68.1773C329.799 69.1536 331.382 69.1536 332.358 68.1773L346.5 54.0352L360.643 68.1773C361.619 69.1536 363.202 69.1536 364.178 68.1773C365.154 67.201 365.154 65.6181 364.178 64.6418L348.268 48.7319ZM349 743.5L349 50.4996H344L344 743.5H349Z" fill="#343A40"/>
<path d="M714.842 395.924L719.061 388.98H722.857L716.635 398.385L723.051 408H719.289L714.895 400.881L710.5 408H706.721L713.137 398.385L706.914 388.98H710.676L714.842 395.924Z" fill="#343A40"/>
<path d="M346.684 28.2363L351.113 13.9805H354.594L346.947 35.9355C345.764 39.0996 343.883 40.6816 341.305 40.6816L340.689 40.6289L339.477 40.4004V37.7637L340.355 37.834C341.457 37.834 342.312 37.6113 342.922 37.166C343.543 36.7207 344.053 35.9062 344.451 34.7227L345.172 32.7891L338.387 13.9805H341.938L346.684 28.2363Z" fill="#343A40"/>
<path d="M596 176L545.098 186.44L579.59 225.302L596 176ZM349.987 400.366L568.697 206.25L562.723 199.519L344.013 393.634L349.987 400.366Z" fill="#4066E0"/>
<path d="M621.829 149.384C621.829 150.706 623.143 151.478 625.771 151.698C626.8 151.698 627.314 152.001 627.314 152.607C627.314 152.662 627.257 153.021 627.143 153.682C626.971 154.453 626.8 154.949 626.629 155.169C626.457 155.39 626.086 155.5 625.514 155.5C625.4 155.5 625.057 155.5 624.486 155.5C623.914 155.5 622.943 155.472 621.571 155.417C620.2 155.362 618.371 155.335 616.086 155.335C612.029 155.335 609.429 155.39 608.286 155.5H607.6C607.2 155.114 607 154.811 607 154.591C607.114 153.103 607.486 152.139 608.114 151.698H609.314C613.314 151.533 616.229 150.155 618.057 147.566C618.4 147.235 623.571 138.832 633.571 122.358C643.571 105.883 648.657 97.5356 648.829 97.3152C649.229 96.654 649.914 96.3234 650.886 96.3234H651.571H653.029C653.371 96.8193 653.543 97.0948 653.543 97.1499L655.943 123.845C657.543 141.643 658.4 150.624 658.514 150.789C658.8 151.395 660.657 151.698 664.086 151.698C665.514 151.698 666.229 151.974 666.229 152.525C666.229 152.635 666.143 153.021 665.971 153.682C665.8 154.508 665.657 155.004 665.543 155.169C665.429 155.335 665.029 155.445 664.343 155.5C664.171 155.5 663.771 155.5 663.143 155.5C662.514 155.5 661.4 155.472 659.8 155.417C658.2 155.362 656.114 155.335 653.543 155.335C648.171 155.335 644.657 155.39 643 155.5H641.971C641.629 155.169 641.457 154.921 641.457 154.756C641.457 154.591 641.514 154.095 641.629 153.268C641.857 152.552 642.029 152.111 642.143 151.946L642.486 151.698H644.2C647.286 151.533 649.114 151.065 649.686 150.293L648.657 137.896H628.257L625.343 142.689C623 146.491 621.829 148.723 621.829 149.384ZM648.229 134.011C648.229 133.405 647.886 129.107 647.2 121.118C646.514 113.129 646.114 109.106 646 109.051L643.686 112.605C642.771 114.093 640.971 117.041 638.286 121.449L630.571 134.011L639.4 134.094C645.286 134.094 648.229 134.066 648.229 134.011Z" fill="#4066E0"/>
<path d="M658.943 76.653C658.943 76.2122 659.086 75.8265 659.371 75.4959C659.657 75.1653 660.086 75 660.657 75C661.057 75 661.4 75.1377 661.686 75.4132C661.971 75.6336 662.257 76.1571 662.543 76.9836C663.114 79.0222 664.286 80.5926 666.057 81.6946C666.686 82.0802 667 82.5761 667 83.1822C667 83.6781 666.914 84.0087 666.743 84.174C666.571 84.3393 666.171 84.5873 665.543 84.9179C663.086 86.13 660.943 87.8657 659.114 90.1247C659 90.2349 658.857 90.4002 658.686 90.6206C658.514 90.841 658.371 91.0063 658.257 91.1165C658.143 91.2267 658 91.2818 657.829 91.2818C657.657 91.2818 657.457 91.3094 657.229 91.3645C656.829 91.3645 656.457 91.2267 656.114 90.9512C655.771 90.6757 655.571 90.2625 655.514 89.7115C655.514 88.6646 656.857 87.0392 659.543 84.8352H644.886L630.229 84.7526C629.486 84.2567 629.114 83.7332 629.114 83.1822C629.114 82.7965 629.486 82.2455 630.229 81.5293H661C659.629 79.4355 658.943 77.8101 658.943 76.653Z" fill="#4066E0"/>
<path d="M439.38 367.891C439.38 361.039 441.043 353.816 444.369 346.225C447.695 338.633 452.214 332.083 457.928 326.574C463.641 321.065 469.568 317.907 475.708 317.101C475.793 317.101 476.135 317.101 476.731 317.101C477.328 317.101 477.84 317.067 478.266 317C482.871 317.269 486.453 318.915 489.011 321.938C492.337 325.969 494 331.377 494 338.163C494 345.889 492.081 353.749 488.244 361.744C484.406 369.739 479.503 376.289 473.534 381.395C467.564 386.501 461.851 389.054 456.393 389.054H455.498C452.428 389.054 449.784 388.382 447.567 387.039C445.35 385.695 443.687 383.914 442.578 381.697C441.47 379.48 440.659 377.23 440.148 374.946C439.636 372.661 439.38 370.31 439.38 367.891ZM483.895 331.008C483.895 324.155 481.635 320.729 477.115 320.729C474.045 320.729 471.061 322.24 468.161 325.264C465.262 328.287 462.874 331.713 460.998 335.543C459.122 339.372 457.672 342.731 456.649 345.62C455.625 348.509 455.071 350.189 454.986 350.659C459.164 350.726 463.3 350.76 467.394 350.76L479.801 350.659C479.887 350.592 480.228 349.483 480.825 347.333C481.422 345.183 482.104 342.496 482.871 339.271C483.639 336.046 483.98 333.292 483.895 331.008ZM449.358 374.744C449.358 381.865 451.617 385.426 456.137 385.426C457.416 385.426 458.781 385.09 460.23 384.418C461.68 383.747 463.428 382.47 465.475 380.589C467.522 378.708 469.568 375.785 471.615 371.822C473.662 367.858 475.708 362.953 477.755 357.108L478.394 355.395H453.451C453.451 355.597 453.067 356.873 452.3 359.225C451.532 361.576 450.85 364.196 450.253 367.085C449.656 369.974 449.358 372.527 449.358 374.744Z" fill="#343A40"/>
</svg>
