<svg width="729" height="744" viewBox="0 0 729 744" fill="none" xmlns="http://www.w3.org/2000/svg">
<line x1="598.5" y1="176" x2="598.5" y2="397" stroke="black" stroke-width="5" stroke-dasharray="5 5"/>
<g filter="url(#filter0_d)">
<line x1="349" y1="173.5" x2="599" y2="173.5" stroke="black" stroke-width="5" stroke-dasharray="5 5"/>
</g>
<line x1="347" y1="396.5" x2="596" y2="396.5" stroke="#6C63FF" stroke-width="5"/>
<line x1="347" y1="402.5" x2="347" y2="172.5" stroke="#6C63FF" stroke-width="5"/>
<path d="M458.777 445.815C458.777 446.725 459.555 447.256 461.111 447.408C461.72 447.408 462.024 447.617 462.024 448.034C462.024 448.072 461.99 448.318 461.923 448.773C461.821 449.304 461.72 449.646 461.618 449.797C461.517 449.949 461.297 450.025 460.959 450.025C460.891 450.025 460.688 450.025 460.35 450.025C460.012 450.025 459.437 450.006 458.625 449.968C457.813 449.93 456.731 449.911 455.378 449.911C452.976 449.911 451.438 449.949 450.761 450.025H450.355C450.118 449.759 450 449.551 450 449.399C450.068 448.375 450.288 447.711 450.66 447.408H451.37C453.738 447.294 455.463 446.346 456.545 444.564C456.748 444.336 459.809 438.553 465.728 427.214C471.647 415.874 474.657 410.129 474.759 409.977C474.996 409.522 475.402 409.295 475.977 409.295H476.382H477.245C477.448 409.636 477.549 409.825 477.549 409.863L478.97 428.238C479.917 440.487 480.424 446.668 480.492 446.782C480.661 447.199 481.76 447.408 483.79 447.408C484.635 447.408 485.058 447.598 485.058 447.977C485.058 448.053 485.007 448.318 484.906 448.773C484.805 449.342 484.72 449.683 484.652 449.797C484.585 449.911 484.348 449.987 483.942 450.025C483.841 450.025 483.604 450.025 483.232 450.025C482.86 450.025 482.2 450.006 481.253 449.968C480.306 449.93 479.071 449.911 477.549 449.911C474.37 449.911 472.29 449.949 471.309 450.025H470.7C470.497 449.797 470.396 449.627 470.396 449.513C470.396 449.399 470.429 449.058 470.497 448.489C470.632 447.996 470.734 447.692 470.802 447.579L471.004 447.408H472.019C473.846 447.294 474.928 446.972 475.266 446.441L474.657 437.908H462.582L460.857 441.207C459.471 443.824 458.777 445.36 458.777 445.815ZM474.404 435.234C474.404 434.817 474.201 431.859 473.795 426.36C473.389 420.861 473.152 418.093 473.085 418.055L471.715 420.501C471.174 421.525 470.108 423.554 468.518 426.588L463.952 435.234L469.178 435.291C472.662 435.291 474.404 435.272 474.404 435.234Z" fill="#6C63FF"/>
<path d="M488.141 446.935C488.308 445.808 488.954 444.508 490.078 443.033C491.202 441.559 492.589 440.808 494.239 440.781C495.076 440.781 495.841 441.022 496.535 441.505C497.228 441.988 497.742 442.591 498.077 443.315C499.081 441.626 500.289 440.781 501.7 440.781C502.585 440.781 503.35 441.076 503.996 441.666C504.641 442.256 504.976 443.047 505 444.039C505 444.816 504.833 445.446 504.498 445.929C504.163 446.412 503.84 446.707 503.529 446.814C503.218 446.921 502.943 446.975 502.704 446.975C502.25 446.975 501.879 446.827 501.592 446.532C501.305 446.237 501.162 445.849 501.162 445.366C501.162 444.133 501.76 443.288 502.955 442.832C502.692 442.484 502.214 442.309 501.521 442.309C501.21 442.309 500.983 442.336 500.839 442.39C499.93 442.819 499.261 443.704 498.83 445.044C497.396 450.97 496.678 454.429 496.678 455.421C496.678 456.171 496.869 456.708 497.252 457.029C497.635 457.351 498.053 457.512 498.508 457.512C499.392 457.512 500.265 457.07 501.126 456.185C501.987 455.3 502.573 454.214 502.884 452.927C502.955 452.659 503.027 452.511 503.099 452.485C503.171 452.458 503.362 452.431 503.673 452.404H503.816C504.175 452.404 504.354 452.511 504.354 452.726C504.354 452.753 504.33 452.9 504.283 453.168C503.9 454.697 503.159 456.051 502.059 457.23C500.959 458.41 499.679 459 498.221 459C496.547 459 495.279 458.155 494.418 456.466C493.438 458.129 492.314 458.96 491.047 458.96H490.831C489.66 458.96 488.823 458.611 488.32 457.914C487.818 457.217 487.555 456.48 487.531 455.702C487.531 454.844 487.758 454.147 488.213 453.611C488.667 453.075 489.205 452.806 489.827 452.806C490.855 452.806 491.369 453.369 491.369 454.496C491.369 455.032 491.226 455.501 490.939 455.903C490.652 456.305 490.377 456.574 490.114 456.708C489.851 456.842 489.695 456.909 489.648 456.909L489.54 456.949C489.54 456.976 489.612 457.029 489.755 457.11C489.899 457.19 490.09 457.284 490.329 457.391C490.568 457.499 490.795 457.539 491.011 457.512C491.872 457.512 492.613 456.909 493.235 455.702C493.45 455.273 493.725 454.361 494.06 452.967C494.394 451.573 494.729 450.125 495.064 448.624C495.399 447.122 495.59 446.237 495.638 445.969C495.757 445.245 495.817 444.723 495.817 444.401C495.817 443.65 495.638 443.114 495.279 442.792C494.921 442.47 494.514 442.309 494.06 442.309C493.103 442.309 492.206 442.738 491.369 443.596C490.532 444.454 489.947 445.554 489.612 446.894C489.564 447.136 489.504 447.27 489.432 447.296C489.361 447.323 489.169 447.35 488.859 447.377H488.356C488.213 447.216 488.141 447.069 488.141 446.935Z" fill="#6C63FF"/>
<path d="M282.927 286.07C282.927 286.87 283.718 287.336 285.301 287.469C285.92 287.469 286.23 287.652 286.23 288.019C286.23 288.052 286.195 288.268 286.126 288.668C286.023 289.134 285.92 289.434 285.817 289.567C285.714 289.7 285.49 289.767 285.146 289.767C285.077 289.767 284.871 289.767 284.527 289.767C284.183 289.767 283.598 289.75 282.772 289.717C281.947 289.684 280.846 289.667 279.47 289.667C277.027 289.667 275.462 289.7 274.774 289.767H274.361C274.12 289.534 274 289.351 274 289.217C274.069 288.318 274.292 287.735 274.671 287.469H275.393C277.801 287.369 279.556 286.537 280.657 284.971C280.863 284.772 283.976 279.693 289.997 269.735C296.017 259.778 299.079 254.733 299.182 254.599C299.423 254.2 299.835 254 300.42 254H300.833H301.71C301.917 254.3 302.02 254.466 302.02 254.5L303.465 270.635C304.428 281.391 304.944 286.82 305.013 286.92C305.185 287.286 306.303 287.469 308.367 287.469C309.227 287.469 309.657 287.636 309.657 287.969C309.657 288.035 309.605 288.268 309.502 288.668C309.399 289.167 309.313 289.467 309.244 289.567C309.175 289.667 308.935 289.734 308.522 289.767C308.419 289.767 308.178 289.767 307.799 289.767C307.421 289.767 306.75 289.75 305.787 289.717C304.824 289.684 303.568 289.667 302.02 289.667C298.786 289.667 296.671 289.7 295.673 289.767H295.054C294.847 289.567 294.744 289.417 294.744 289.317C294.744 289.217 294.778 288.918 294.847 288.418C294.985 287.985 295.088 287.719 295.157 287.619L295.363 287.469H296.395C298.253 287.369 299.354 287.086 299.698 286.62L299.079 279.127H286.797L285.043 282.024C283.632 284.322 282.927 285.671 282.927 286.07ZM298.821 276.779C298.821 276.413 298.614 273.815 298.201 268.986C297.789 264.157 297.548 261.726 297.479 261.693L296.086 263.841C295.535 264.74 294.452 266.522 292.835 269.186L288.191 276.779L293.506 276.829C297.049 276.829 298.821 276.812 298.821 276.779Z" fill="#6C63FF"/>
<path d="M311.662 287.124C311.662 286.794 311.844 286.229 312.209 285.429C312.574 284.628 313.157 283.792 313.96 282.921C314.763 282.05 315.663 281.626 316.66 281.65C317.657 281.65 318.46 281.92 319.068 282.462C319.676 283.004 319.992 283.757 320.016 284.722C319.968 285.17 319.931 285.417 319.907 285.464C319.907 285.535 319.712 286.076 319.323 287.089C318.934 288.101 318.533 289.243 318.119 290.514C317.706 291.786 317.511 292.798 317.535 293.552C317.535 294.564 317.706 295.27 318.046 295.671C318.387 296.071 318.897 296.283 319.578 296.306C320.138 296.306 320.661 296.177 321.147 295.918C321.634 295.659 322.011 295.388 322.278 295.106C322.546 294.823 322.874 294.435 323.263 293.94C323.263 293.917 323.324 293.681 323.446 293.234C323.567 292.786 323.737 292.092 323.956 291.15C324.175 290.208 324.406 289.337 324.649 288.537C325.574 285.005 326.084 283.157 326.182 282.992C326.498 282.356 327.021 282.038 327.75 282.038C328.067 282.038 328.322 282.121 328.517 282.285C328.711 282.45 328.845 282.591 328.918 282.709C328.991 282.827 329.015 282.933 328.991 283.027C328.991 283.333 328.395 285.805 327.203 290.444C326.011 295.082 325.33 297.625 325.16 298.072C324.479 300.026 323.3 301.58 321.621 302.734C319.943 303.888 318.265 304.476 316.587 304.5C315.492 304.5 314.532 304.241 313.705 303.723C312.878 303.205 312.464 302.428 312.464 301.392C312.464 300.874 312.549 300.439 312.72 300.085C312.89 299.732 313.121 299.473 313.413 299.308C313.705 299.144 313.948 299.026 314.142 298.955C314.337 298.885 314.544 298.849 314.763 298.849C315.833 298.849 316.368 299.344 316.368 300.333C316.368 300.803 316.222 301.215 315.93 301.569C315.638 301.922 315.359 302.157 315.091 302.275C314.823 302.393 314.665 302.452 314.617 302.452L314.507 302.487C314.556 302.605 314.787 302.746 315.2 302.911C315.614 303.076 316.027 303.158 316.441 303.158H316.733C317.146 303.158 317.462 303.134 317.681 303.087C318.484 302.875 319.226 302.428 319.907 301.745C320.588 301.062 321.111 300.333 321.475 299.556C321.84 298.779 322.12 298.119 322.315 297.578C322.509 297.036 322.606 296.683 322.606 296.518L322.388 296.66C322.242 296.754 322.011 296.883 321.694 297.048C321.378 297.213 321.062 297.354 320.746 297.472C320.259 297.59 319.785 297.648 319.323 297.648C318.204 297.648 317.219 297.389 316.368 296.871C315.517 296.353 314.957 295.518 314.69 294.364C314.665 294.199 314.653 293.834 314.653 293.269C314.653 291.927 315.079 290.173 315.93 288.007C316.781 285.841 317.207 284.463 317.207 283.875C317.207 283.851 317.207 283.828 317.207 283.804C317.207 283.592 317.207 283.451 317.207 283.38C317.207 283.31 317.158 283.227 317.061 283.133C316.964 283.039 316.83 282.992 316.66 282.992H316.514C315.954 282.992 315.444 283.215 314.982 283.663C314.519 284.11 314.155 284.593 313.887 285.111C313.62 285.629 313.413 286.123 313.267 286.594C313.121 287.065 313.024 287.324 312.975 287.371C312.926 287.418 312.732 287.442 312.391 287.442H311.881C311.735 287.3 311.662 287.195 311.662 287.124Z" fill="#6C63FF"/>
<path d="M694.768 398.768C695.745 397.791 695.745 396.209 694.768 395.232L678.859 379.322C677.882 378.346 676.299 378.346 675.323 379.322C674.347 380.299 674.347 381.882 675.323 382.858L689.465 397L675.323 411.142C674.347 412.118 674.347 413.701 675.323 414.678C676.299 415.654 677.882 415.654 678.859 414.678L694.768 398.768ZM0 399.5H693.001V394.5H0V399.5Z" fill="#343A40"/>
<path d="M348.268 48.7319C347.292 47.7556 345.709 47.7556 344.733 48.7319L328.823 64.6418C327.846 65.6181 327.846 67.201 328.823 68.1773C329.799 69.1536 331.382 69.1536 332.358 68.1773L346.5 54.0352L360.643 68.1773C361.619 69.1536 363.202 69.1536 364.178 68.1773C365.154 67.201 365.154 65.6181 364.178 64.6418L348.268 48.7319ZM349 743.5L349 50.4996H344L344 743.5H349Z" fill="#343A40"/>
<path d="M714.842 395.924L719.061 388.98H722.857L716.635 398.385L723.051 408H719.289L714.895 400.881L710.5 408H706.721L713.137 398.385L706.914 388.98H710.676L714.842 395.924Z" fill="#343A40"/>
<path d="M346.684 28.2363L351.113 13.9805H354.594L346.947 35.9355C345.764 39.0996 343.883 40.6816 341.305 40.6816L340.689 40.6289L339.477 40.4004V37.7637L340.355 37.834C341.457 37.834 342.312 37.6113 342.922 37.166C343.543 36.7207 344.053 35.9062 344.451 34.7227L345.172 32.7891L338.387 13.9805H341.938L346.684 28.2363Z" fill="#343A40"/>
<path d="M596 176L545.098 186.44L579.59 225.302L596 176ZM349.987 400.366L568.697 206.25L562.723 199.519L344.013 393.634L349.987 400.366Z" fill="#4066E0"/>
<path d="M621.829 149.384C621.829 150.706 623.143 151.478 625.771 151.698C626.8 151.698 627.314 152.001 627.314 152.607C627.314 152.662 627.257 153.021 627.143 153.682C626.971 154.453 626.8 154.949 626.629 155.169C626.457 155.39 626.086 155.5 625.514 155.5C625.4 155.5 625.057 155.5 624.486 155.5C623.914 155.5 622.943 155.472 621.571 155.417C620.2 155.362 618.371 155.335 616.086 155.335C612.029 155.335 609.429 155.39 608.286 155.5H607.6C607.2 155.114 607 154.811 607 154.591C607.114 153.103 607.486 152.139 608.114 151.698H609.314C613.314 151.533 616.229 150.155 618.057 147.566C618.4 147.235 623.571 138.832 633.571 122.358C643.571 105.883 648.657 97.5356 648.829 97.3152C649.229 96.654 649.914 96.3234 650.886 96.3234H651.571H653.029C653.371 96.8193 653.543 97.0948 653.543 97.1499L655.943 123.845C657.543 141.643 658.4 150.624 658.514 150.789C658.8 151.395 660.657 151.698 664.086 151.698C665.514 151.698 666.229 151.974 666.229 152.525C666.229 152.635 666.143 153.021 665.971 153.682C665.8 154.508 665.657 155.004 665.543 155.169C665.429 155.335 665.029 155.445 664.343 155.5C664.171 155.5 663.771 155.5 663.143 155.5C662.514 155.5 661.4 155.472 659.8 155.417C658.2 155.362 656.114 155.335 653.543 155.335C648.171 155.335 644.657 155.39 643 155.5H641.971C641.629 155.169 641.457 154.921 641.457 154.756C641.457 154.591 641.514 154.095 641.629 153.268C641.857 152.552 642.029 152.111 642.143 151.946L642.486 151.698H644.2C647.286 151.533 649.114 151.065 649.686 150.293L648.657 137.896H628.257L625.343 142.689C623 146.491 621.829 148.723 621.829 149.384ZM648.229 134.011C648.229 133.405 647.886 129.107 647.2 121.118C646.514 113.129 646.114 109.106 646 109.051L643.686 112.605C642.771 114.093 640.971 117.041 638.286 121.449L630.571 134.011L639.4 134.094C645.286 134.094 648.229 134.066 648.229 134.011Z" fill="#4066E0"/>
<path d="M658.943 76.653C658.943 76.2122 659.086 75.8265 659.371 75.4959C659.657 75.1653 660.086 75 660.657 75C661.057 75 661.4 75.1377 661.686 75.4132C661.971 75.6336 662.257 76.1571 662.543 76.9836C663.114 79.0222 664.286 80.5926 666.057 81.6946C666.686 82.0802 667 82.5761 667 83.1822C667 83.6781 666.914 84.0087 666.743 84.174C666.571 84.3393 666.171 84.5873 665.543 84.9179C663.086 86.13 660.943 87.8657 659.114 90.1247C659 90.2349 658.857 90.4002 658.686 90.6206C658.514 90.841 658.371 91.0063 658.257 91.1165C658.143 91.2267 658 91.2818 657.829 91.2818C657.657 91.2818 657.457 91.3094 657.229 91.3645C656.829 91.3645 656.457 91.2267 656.114 90.9512C655.771 90.6757 655.571 90.2625 655.514 89.7115C655.514 88.6646 656.857 87.0392 659.543 84.8352H644.886L630.229 84.7526C629.486 84.2567 629.114 83.7332 629.114 83.1822C629.114 82.7965 629.486 82.2455 630.229 81.5293H661C659.629 79.4355 658.943 77.8101 658.943 76.653Z" fill="#4066E0"/>
<path d="M439.38 367.891C439.38 361.039 441.043 353.816 444.369 346.225C447.695 338.633 452.214 332.083 457.928 326.574C463.641 321.065 469.568 317.907 475.708 317.101C475.793 317.101 476.135 317.101 476.731 317.101C477.328 317.101 477.84 317.067 478.266 317C482.871 317.269 486.453 318.915 489.011 321.938C492.337 325.969 494 331.377 494 338.163C494 345.889 492.081 353.749 488.244 361.744C484.406 369.739 479.503 376.289 473.534 381.395C467.564 386.501 461.851 389.054 456.393 389.054H455.498C452.428 389.054 449.784 388.382 447.567 387.039C445.35 385.695 443.687 383.914 442.578 381.697C441.47 379.48 440.659 377.23 440.148 374.946C439.636 372.661 439.38 370.31 439.38 367.891ZM483.895 331.008C483.895 324.155 481.635 320.729 477.115 320.729C474.045 320.729 471.061 322.24 468.161 325.264C465.262 328.287 462.874 331.713 460.998 335.543C459.122 339.372 457.672 342.731 456.649 345.62C455.625 348.509 455.071 350.189 454.986 350.659C459.164 350.726 463.3 350.76 467.394 350.76L479.801 350.659C479.887 350.592 480.228 349.483 480.825 347.333C481.422 345.183 482.104 342.496 482.871 339.271C483.639 336.046 483.98 333.292 483.895 331.008ZM449.358 374.744C449.358 381.865 451.617 385.426 456.137 385.426C457.416 385.426 458.781 385.09 460.23 384.418C461.68 383.747 463.428 382.47 465.475 380.589C467.522 378.708 469.568 375.785 471.615 371.822C473.662 367.858 475.708 362.953 477.755 357.108L478.394 355.395H453.451C453.451 355.597 453.067 356.873 452.3 359.225C451.532 361.576 450.85 364.196 450.253 367.085C449.656 369.974 449.358 372.527 449.358 374.744Z" fill="#343A40"/>
<line x1="350" y1="397.5" x2="596" y2="397.5" stroke="#4066E0" stroke-width="5"/>
<path d="M346.5 400V170" stroke="#4066E0" stroke-width="5"/>
<defs>
<filter id="filter0_d" x="345" y="171" width="258" height="13" filterUnits="userSpaceOnUse" color-interpolation-filters="sRGB">
<feFlood flood-opacity="0" result="BackgroundImageFix"/>
<feColorMatrix in="SourceAlpha" type="matrix" values="0 0 0 0 0 0 0 0 0 0 0 0 0 0 0 0 0 0 127 0"/>
<feOffset dy="4"/>
<feGaussianBlur stdDeviation="2"/>
<feColorMatrix type="matrix" values="0 0 0 0 0 0 0 0 0 0 0 0 0 0 0 0 0 0 0.25 0"/>
<feBlend mode="normal" in2="BackgroundImageFix" result="effect1_dropShadow"/>
<feBlend mode="normal" in="SourceGraphic" in2="effect1_dropShadow" result="shape"/>
</filter>
</defs>
</svg>
