<svg width="1128" height="51" viewBox="0 0 1128 51" fill="none" xmlns="http://www.w3.org/2000/svg">
<g filter="url(#filter0_d)">
<path d="M137 24.4705L167 41.791V7.15001L137 24.4705ZM1053 24.4705L1023 7.15001V41.791L1053 24.4705ZM164 27.4705H1026V21.4705H164V27.4705Z" fill="black"/>
</g>
<path d="M1079.75 19.2361C1080.22 16.3614 1082.07 13.0418 1085.29 9.27722C1088.51 5.51267 1092.48 3.59618 1097.2 3.52773C1099.59 3.52773 1101.79 4.14375 1103.77 5.37578C1105.75 6.60781 1107.23 8.14785 1108.18 9.9959C1111.06 5.68379 1114.52 3.52773 1118.55 3.52773C1121.09 3.52773 1123.28 4.28064 1125.13 5.78646C1126.97 7.29227 1127.93 9.31144 1128 11.844C1128 13.8289 1127.52 15.4374 1126.56 16.6694C1125.6 17.9014 1124.68 18.6544 1123.79 18.9281C1122.9 19.2019 1122.11 19.3388 1121.43 19.3388C1120.13 19.3388 1119.07 18.9624 1118.25 18.2095C1117.43 17.4565 1117.01 16.4641 1117.01 15.232C1117.01 12.0835 1118.73 9.92746 1122.15 8.76387C1121.39 7.87407 1120.03 7.42916 1118.04 7.42916C1117.15 7.42916 1116.5 7.49761 1116.09 7.63451C1113.49 8.72964 1111.57 10.9884 1110.34 14.4107C1106.23 29.5373 1104.18 38.3669 1104.18 40.8994C1104.18 42.8159 1104.73 44.1848 1105.82 45.0062C1106.92 45.8275 1108.12 46.2382 1109.42 46.2382C1111.95 46.2382 1114.45 45.1088 1116.91 42.8501C1119.38 40.5914 1121.05 37.8193 1121.94 34.5339C1122.15 33.8494 1122.35 33.473 1122.56 33.4045C1122.76 33.3361 1123.31 33.2676 1124.2 33.1992H1124.61C1125.64 33.1992 1126.15 33.473 1126.15 34.0205C1126.15 34.089 1126.08 34.4654 1125.95 35.1499C1124.85 39.0513 1122.73 42.5079 1119.58 45.5195C1116.43 48.5312 1112.77 50.037 1108.6 50.037C1103.8 50.037 1100.18 47.8809 1097.71 43.5688C1094.91 47.8125 1091.69 49.9343 1088.06 49.9343H1087.45C1084.09 49.9343 1081.7 49.0445 1080.26 47.2649C1078.82 45.4853 1078.07 43.603 1078 41.6181C1078 39.4278 1078.65 37.6482 1079.95 36.2793C1081.25 34.9103 1082.79 34.2259 1084.57 34.2259C1087.51 34.2259 1088.99 35.6633 1088.99 38.538C1088.99 39.9069 1088.57 41.1047 1087.75 42.1314C1086.93 43.1581 1086.15 43.8426 1085.39 44.1848C1084.64 44.527 1084.19 44.6982 1084.06 44.6982L1083.75 44.8008C1083.75 44.8693 1083.95 45.0062 1084.37 45.2115C1084.78 45.4168 1085.32 45.6564 1086.01 45.9302C1086.69 46.204 1087.34 46.3067 1087.96 46.2382C1090.42 46.2382 1092.54 44.6982 1094.32 41.6181C1094.94 40.5229 1095.73 38.1958 1096.69 34.6366C1097.64 31.0774 1098.6 27.3813 1099.56 23.5483C1100.52 19.7153 1101.07 17.4565 1101.2 16.7721C1101.55 14.924 1101.72 13.5893 1101.72 12.768C1101.72 10.8515 1101.2 9.48256 1100.18 8.6612C1099.15 7.83984 1097.99 7.42916 1096.69 7.42916C1093.95 7.42916 1091.38 8.52431 1088.99 10.7146C1086.59 12.9049 1084.91 15.7112 1083.95 19.1335C1083.82 19.7495 1083.65 20.0917 1083.44 20.1602C1083.24 20.2286 1082.69 20.2971 1081.8 20.3655H1080.36C1079.95 19.9548 1079.75 19.5784 1079.75 19.2361Z" fill="black"/>
<path d="M0 21.5376C0 21.5376 0 21.0927 0 20.2028C0 19.313 0.479132 18.6285 1.4374 18.1494H61.0893C62.116 18.697 62.6294 19.3815 62.6294 20.2028C62.6294 21.0242 62.116 21.7087 61.0893 22.2563H1.4374C0.479132 21.7771 0 21.0927 0 20.2028V21.5376Z" fill="black"/>
<path d="M76.5926 16.1987C77.0718 13.3239 78.9198 10.0042 82.1369 6.23957C85.3539 2.47496 89.3239 0.558434 94.0467 0.489986C96.4424 0.489986 98.6327 1.10601 100.618 2.33807C102.603 3.57012 104.074 5.11018 105.033 6.95826C107.907 2.64608 111.364 0.489986 115.402 0.489986C117.935 0.489986 120.125 1.24291 121.973 2.74875C123.821 4.25459 124.78 6.27379 124.848 8.80634C124.848 10.7913 124.369 12.3998 123.411 13.6319C122.452 14.8639 121.528 15.6169 120.639 15.8906C119.749 16.1644 118.962 16.3013 118.277 16.3013C116.977 16.3013 115.916 15.9249 115.094 15.1719C114.273 14.419 113.862 13.4265 113.862 12.1945C113.862 9.04591 115.573 6.88982 118.996 5.72621C118.243 4.8364 116.874 4.39149 114.889 4.39149C113.999 4.39149 113.349 4.45993 112.938 4.59683C110.337 5.69199 108.421 7.95075 107.189 11.3731C103.082 26.5 101.028 35.3297 101.028 37.8623C101.028 39.7788 101.576 41.1477 102.671 41.9691C103.766 42.7905 104.964 43.2012 106.265 43.2012C108.797 43.2012 111.295 42.0718 113.76 39.813C116.224 37.5542 117.901 34.7821 118.79 31.4967C118.996 30.8122 119.201 30.4357 119.406 30.3673C119.612 30.2988 120.159 30.2304 121.049 30.1619H121.46C122.487 30.1619 123 30.4357 123 30.9833C123 31.0517 122.932 31.4282 122.795 32.1127C121.699 36.0142 119.578 39.4708 116.429 42.4825C113.28 45.4941 109.619 47 105.443 47C100.652 47 97.0242 44.8439 94.5601 40.5317C91.7537 44.7754 88.5367 46.8973 84.909 46.8973H84.293C80.939 46.8973 78.5434 46.0075 77.106 44.2279C75.6686 42.4482 74.9157 40.5659 74.8472 38.581C74.8472 36.3906 75.4975 34.611 76.798 33.2421C78.0985 31.8731 79.6385 31.1886 81.4182 31.1886C84.3614 31.1886 85.833 32.626 85.833 35.5008C85.833 36.8698 85.4224 38.0676 84.601 39.0943C83.7796 40.121 82.9925 40.8055 82.2395 41.1477C81.4866 41.49 81.0417 41.6611 80.9048 41.6611L80.5968 41.7638C80.5968 41.8322 80.8022 41.9691 81.2128 42.1744C81.6235 42.3798 82.1711 42.6194 82.8556 42.8931C83.54 43.1669 84.1903 43.2696 84.8063 43.2012C87.2704 43.2012 89.3923 41.6611 91.1719 38.581C91.788 37.4858 92.5751 35.1586 93.5334 31.5993C94.4916 28.0401 95.4499 24.3439 96.4082 20.5108C97.3664 16.6778 97.914 14.419 98.0509 13.7346C98.3931 11.8865 98.5643 10.5518 98.5643 9.73038C98.5643 7.81386 98.0509 6.44491 97.0242 5.62354C95.9975 4.80217 94.8339 4.39149 93.5334 4.39149C90.7955 4.39149 88.2287 5.48664 85.833 7.67696C83.4374 9.86728 81.7604 12.6736 80.8022 16.096C80.6653 16.712 80.4941 17.0543 80.2888 17.1227C80.0835 17.1911 79.5359 17.2596 78.6461 17.328H77.2087C76.798 16.9174 76.5926 16.5409 76.5926 16.1987Z" fill="black"/>
<defs>
<filter id="filter0_d" x="133" y="7.15002" width="924.001" height="42.641" filterUnits="userSpaceOnUse" color-interpolation-filters="sRGB">
<feFlood flood-opacity="0" result="BackgroundImageFix"/>
<feColorMatrix in="SourceAlpha" type="matrix" values="0 0 0 0 0 0 0 0 0 0 0 0 0 0 0 0 0 0 127 0"/>
<feOffset dy="4"/>
<feGaussianBlur stdDeviation="2"/>
<feColorMatrix type="matrix" values="0 0 0 0 0 0 0 0 0 0 0 0 0 0 0 0 0 0 0.25 0"/>
<feBlend mode="normal" in2="BackgroundImageFix" result="effect1_dropShadow"/>
<feBlend mode="normal" in="SourceGraphic" in2="effect1_dropShadow" result="shape"/>
</filter>
</defs>
</svg>
