<svg width="251" height="300" viewBox="0 0 251 300" fill="none" xmlns="http://www.w3.org/2000/svg">
<line x1="248.5" x2="248.5" y2="221" stroke="black" stroke-width="5" stroke-dasharray="5 5"/>
<line y1="221.5" x2="246" y2="221.5" stroke="#4066E0" stroke-width="5"/>
<path d="M98.0673 281.235C97.3558 281.235 97 281.004 97 280.54C97 280.447 97.0628 280.122 97.1884 279.566C97.3558 278.824 97.5232 278.406 97.6906 278.314C97.8581 278.221 98.3394 278.151 99.1347 278.105C100.265 278.105 101.52 278.035 102.902 277.896C103.488 277.757 103.885 277.479 104.095 277.062C104.178 276.83 105.664 270.314 108.552 257.513C111.44 244.713 112.905 238.22 112.947 238.035C112.947 237.71 112.864 237.548 112.696 237.548C112.361 237.409 111.252 237.293 109.369 237.2H107.422C107.171 236.922 107.045 236.736 107.045 236.644C107.045 236.551 107.087 236.157 107.171 235.461C107.338 234.672 107.548 234.186 107.799 234H141.64C141.933 234.186 142.079 234.441 142.079 234.765C142.079 234.997 141.807 237.594 141.263 242.557C140.719 247.519 140.426 250.07 140.384 250.209C140.3 250.534 139.882 250.696 139.128 250.696H138.375C138.082 250.464 137.935 250.163 137.935 249.792C137.935 249.745 137.998 249.189 138.124 248.122C138.249 247.055 138.312 245.826 138.312 244.435C138.312 243.044 138.166 241.907 137.873 241.026C137.58 240.145 137.182 239.426 136.68 238.87C136.177 238.313 135.403 237.942 134.357 237.757C133.31 237.571 132.243 237.409 131.155 237.27C130.066 237.13 128.56 237.107 126.634 237.2H125.19C121.758 237.246 119.937 237.316 119.728 237.409C119.519 237.501 119.372 237.687 119.288 237.965C119.247 238.012 118.535 241.049 117.154 247.078L115.145 256.052H118.598C118.723 256.052 119.205 256.052 120.042 256.052C120.879 256.052 121.465 256.029 121.8 255.983C122.135 255.937 122.595 255.867 123.181 255.774C123.767 255.681 124.269 255.519 124.688 255.287C125.106 255.055 125.462 254.777 125.755 254.452C126.299 253.896 126.76 253.131 127.136 252.157C127.513 251.183 127.785 250.302 127.953 249.513C128.12 248.725 128.225 248.307 128.267 248.261C128.392 248.029 128.79 247.913 129.459 247.913H130.213C130.506 248.145 130.652 248.377 130.652 248.609C130.652 248.748 130.004 251.786 128.706 257.722C127.409 263.658 126.697 266.719 126.571 266.905C126.488 267.229 126.069 267.392 125.316 267.392H124.562C124.269 267.114 124.123 266.835 124.123 266.557C124.123 266.418 124.227 265.908 124.437 265.027C124.646 264.145 124.751 263.218 124.751 262.244C124.751 260.899 124.332 260.064 123.495 259.74C122.658 259.415 120.795 259.253 117.907 259.253H114.454L112.445 268.087C111.106 273.838 110.436 276.853 110.436 277.131C110.436 277.78 112.298 278.105 116.024 278.105H117.593C117.844 278.383 117.97 278.546 117.97 278.592C117.97 278.638 117.928 279.102 117.844 279.983C117.677 280.586 117.468 281.027 117.217 281.305H116.149C114.433 281.212 111.273 281.166 106.669 281.166C103.948 281.166 101.876 281.166 100.453 281.166C99.03 281.166 98.2348 281.189 98.0673 281.235Z" fill="#4066E0"/>
<path d="M144.879 263.312L144.302 263.558C143.887 263.722 143.296 263.886 142.526 264.05C141.757 264.214 140.899 264.328 139.952 264.394H139.108V262.132H139.952C141.342 262.066 142.63 261.82 143.813 261.394C144.997 260.968 145.826 260.574 146.299 260.213C146.773 259.853 147.187 259.492 147.542 259.131C147.601 259.033 147.779 258.984 148.075 258.984C148.341 258.984 148.593 259.082 148.829 259.279V273.985L148.874 288.74C149.081 288.969 149.258 289.117 149.406 289.182C149.554 289.248 149.909 289.314 150.472 289.379C151.034 289.445 151.951 289.478 153.224 289.478H154.378V291.74H153.89C153.268 291.642 150.916 291.592 146.832 291.592C142.807 291.592 140.484 291.642 139.863 291.74H139.33V289.478H140.484C141.135 289.478 141.698 289.478 142.171 289.478C142.645 289.478 143.014 289.461 143.281 289.428C143.547 289.396 143.784 289.346 143.991 289.281C144.198 289.215 144.316 289.182 144.346 289.182C144.376 289.182 144.464 289.1 144.612 288.937C144.76 288.773 144.849 288.707 144.879 288.74V263.312Z" fill="#4066E0"/>
<path d="M159.25 289.068C159.397 288.095 159.961 286.97 160.945 285.695C161.928 284.42 163.142 283.771 164.585 283.748C165.317 283.748 165.987 283.957 166.594 284.374C167.2 284.791 167.65 285.313 167.943 285.939C168.822 284.478 169.878 283.748 171.113 283.748C171.887 283.748 172.556 284.003 173.121 284.513C173.686 285.023 173.979 285.707 174 286.565C174 287.237 173.854 287.782 173.561 288.199C173.268 288.616 172.985 288.871 172.713 288.964C172.441 289.057 172.201 289.103 171.992 289.103C171.594 289.103 171.27 288.975 171.019 288.72C170.768 288.465 170.642 288.129 170.642 287.712C170.642 286.646 171.165 285.915 172.211 285.521C171.981 285.22 171.563 285.069 170.956 285.069C170.684 285.069 170.485 285.093 170.36 285.139C169.565 285.51 168.979 286.275 168.602 287.434C167.347 292.557 166.719 295.548 166.719 296.405C166.719 297.054 166.887 297.518 167.221 297.796C167.556 298.074 167.922 298.213 168.32 298.213C169.094 298.213 169.857 297.831 170.611 297.066C171.364 296.301 171.876 295.362 172.148 294.249C172.211 294.018 172.274 293.89 172.337 293.867C172.399 293.844 172.567 293.82 172.839 293.797H172.964C173.278 293.797 173.435 293.89 173.435 294.075C173.435 294.099 173.414 294.226 173.372 294.458C173.038 295.779 172.389 296.95 171.427 297.97C170.464 298.99 169.345 299.5 168.069 299.5C166.604 299.5 165.495 298.77 164.742 297.309C163.884 298.747 162.901 299.465 161.792 299.465H161.604C160.579 299.465 159.846 299.164 159.407 298.561C158.968 297.958 158.738 297.321 158.717 296.649C158.717 295.907 158.915 295.304 159.313 294.84C159.71 294.377 160.181 294.145 160.725 294.145C161.625 294.145 162.075 294.632 162.075 295.605C162.075 296.069 161.949 296.475 161.698 296.823C161.447 297.17 161.206 297.402 160.976 297.518C160.746 297.634 160.61 297.692 160.568 297.692L160.474 297.727C160.474 297.75 160.537 297.796 160.662 297.866C160.788 297.935 160.955 298.016 161.164 298.109C161.374 298.202 161.572 298.237 161.761 298.213C162.514 298.213 163.163 297.692 163.706 296.649C163.895 296.278 164.135 295.49 164.428 294.284C164.721 293.079 165.014 291.827 165.307 290.529C165.6 289.23 165.767 288.465 165.809 288.234C165.914 287.608 165.966 287.156 165.966 286.878C165.966 286.228 165.809 285.765 165.495 285.487C165.181 285.208 164.826 285.069 164.428 285.069C163.591 285.069 162.807 285.44 162.075 286.182C161.342 286.924 160.83 287.874 160.537 289.033C160.495 289.242 160.443 289.358 160.38 289.381C160.317 289.404 160.15 289.428 159.878 289.451H159.438C159.313 289.312 159.25 289.184 159.25 289.068Z" fill="#4066E0"/>
</svg>
