<svg width="106" height="1053" viewBox="0 0 106 1053" fill="none" xmlns="http://www.w3.org/2000/svg">
<path d="M83 987L97.4338 962H68.5662L83 987ZM83 71L68.5662 96H97.4338L83 71ZM85.5 964.5L85.5 93.5H80.5L80.5 964.5H85.5Z" fill="black"/>
<path d="M65 13.1779C65 12.3845 65.425 11.0245 66.2751 9.09769C67.1251 7.17093 68.4852 5.15916 70.3553 3.06239C72.2254 0.965618 74.3221 -0.0544319 76.6456 0.00223541C78.969 0.00223541 80.8391 0.653938 82.2559 1.95734C83.6726 3.26073 84.4093 5.07416 84.466 7.39761C84.3526 8.47433 84.2676 9.06936 84.211 9.1827C84.211 9.35271 83.7576 10.6561 82.8509 13.0929C81.9442 15.5297 81.0091 18.2782 80.0458 21.3383C79.0824 24.3985 78.629 26.8353 78.6857 28.6487C78.6857 31.0855 79.0824 32.7856 79.8757 33.7489C80.6691 34.7123 81.8592 35.2223 83.4459 35.279C84.7493 35.279 85.9677 34.9673 87.1011 34.344C88.2345 33.7206 89.1129 33.0689 89.7362 32.3889C90.3596 31.7088 91.1246 30.7738 92.0314 29.5837C92.0314 29.5271 92.173 28.9604 92.4564 27.8836C92.7397 26.8069 93.1364 25.1352 93.6464 22.8684C94.1565 20.6016 94.6948 18.5048 95.2615 16.5781C97.415 8.07764 98.605 3.62909 98.8317 3.2324C99.5684 1.70232 100.787 0.937283 102.487 0.937283C103.224 0.937283 103.819 1.13563 104.272 1.53231C104.725 1.929 105.037 2.26902 105.207 2.55236C105.377 2.83571 105.434 3.09072 105.377 3.31741C105.377 4.05411 103.989 10.0044 101.212 21.1683C98.435 32.3322 96.8483 38.4525 96.4516 39.5292C94.8648 44.2328 92.1164 47.973 88.2062 50.7498C84.296 53.5266 80.3858 54.9433 76.4756 55C73.9254 55 71.687 54.3766 69.7602 53.1299C67.8335 51.8832 66.8701 50.0131 66.8701 47.5196C66.8701 46.2729 67.0684 45.2245 67.4651 44.3745C67.8618 43.5244 68.4002 42.9011 69.0802 42.5044C69.7602 42.1077 70.3269 41.8243 70.7803 41.6543C71.2336 41.4843 71.7153 41.3993 72.2254 41.3993C74.7188 41.3993 75.9656 42.5894 75.9656 44.9695C75.9656 46.1029 75.6255 47.0946 74.9455 47.9446C74.2655 48.7947 73.6138 49.3614 72.9904 49.6447C72.367 49.9281 71.9987 50.0698 71.8853 50.0698L71.6303 50.1548C71.7437 50.4381 72.282 50.7781 73.2454 51.1748C74.2088 51.5715 75.1722 51.7698 76.1356 51.7698H76.8156C77.779 51.7698 78.5157 51.7132 79.0257 51.5998C80.8958 51.0898 82.6242 50.0131 84.211 48.3697C85.7977 46.7263 87.0161 44.9695 87.8661 43.0994C88.7162 41.2293 89.3679 39.6426 89.8212 38.3392C90.2746 37.0358 90.5013 36.1857 90.5013 35.789L89.9913 36.1291C89.6512 36.3557 89.1129 36.6674 88.3762 37.0641C87.6395 37.4608 86.9028 37.8008 86.1661 38.0842C85.0327 38.3675 83.9276 38.5092 82.8509 38.5092C80.2441 38.5092 77.949 37.8858 75.9656 36.6391C73.9821 35.3923 72.6787 33.3806 72.0554 30.6038C71.9987 30.2071 71.9704 29.3287 71.9704 27.9686C71.9704 24.7385 72.9621 20.5166 74.9455 15.303C76.9289 10.0894 77.9206 6.77424 77.9206 5.35751C77.9206 5.30084 77.9206 5.24417 77.9206 5.1875C77.9206 4.67747 77.9206 4.33746 77.9206 4.16745C77.9206 3.99744 77.8073 3.7991 77.5806 3.57242C77.354 3.34574 77.0423 3.2324 76.6456 3.2324H76.3056C75.0022 3.2324 73.8121 3.77076 72.7354 4.84748C71.6587 5.9242 70.8086 7.08593 70.1853 8.33266C69.5619 9.57938 69.0802 10.7694 68.7402 11.9028C68.4002 13.0362 68.1735 13.6596 68.0602 13.7729C67.9468 13.8863 67.4935 13.9429 66.7001 13.9429H65.51C65.17 13.6029 65 13.3479 65 13.1779Z" fill="black"/>
<path d="M0 1015.43C0 1015.43 0 1015.06 0 1014.32C0 1013.59 0.396687 1013.02 1.19006 1012.62H50.5775C51.4276 1013.08 51.8526 1013.64 51.8526 1014.32C51.8526 1015 51.4276 1015.57 50.5775 1016.02H1.19006C0.396687 1015.63 0 1015.06 0 1014.32V1015.43Z" fill="black"/>
<path d="M60.7781 1011.18C60.7781 1010.38 61.2031 1009.02 62.0531 1007.1C62.9032 1005.17 64.2632 1003.16 66.1333 1001.06C68.0034 998.966 70.1002 997.946 72.4236 998.002C74.7471 998.002 76.6172 998.654 78.0339 999.957C79.4507 1001.26 80.1874 1003.07 80.244 1005.4C80.1307 1006.47 80.0457 1007.07 79.989 1007.18C79.989 1007.35 79.5357 1008.66 78.6289 1011.09C77.7222 1013.53 76.7872 1016.28 75.8238 1019.34C74.8604 1022.4 74.4071 1024.84 74.4637 1026.65C74.4637 1029.09 74.8604 1030.79 75.6538 1031.75C76.4472 1032.71 77.6372 1033.22 79.224 1033.28C80.5274 1033.28 81.7458 1032.97 82.8792 1032.34C84.0126 1031.72 84.8909 1031.07 85.5143 1030.39C86.1377 1029.71 86.9027 1028.77 87.8094 1027.58C87.8094 1027.53 87.9511 1026.96 88.2344 1025.88C88.5178 1024.81 88.9145 1023.14 89.4245 1020.87C89.9345 1018.6 90.4729 1016.5 91.0396 1014.58C93.193 1006.08 94.3831 1001.63 94.6097 1001.23C95.3465 999.702 96.5648 998.937 98.2649 998.937C99.0016 998.937 99.5967 999.136 100.05 999.532C100.503 999.929 100.815 1000.27 100.985 1000.55C101.155 1000.84 101.212 1001.09 101.155 1001.32C101.155 1002.05 99.7667 1008 96.9899 1019.17C94.2131 1030.33 92.6263 1036.45 92.2296 1037.53C90.6429 1042.23 87.8944 1045.97 83.9842 1048.75C80.074 1051.53 76.1638 1052.94 72.2536 1053C69.7035 1053 67.4651 1052.38 65.5383 1051.13C63.6115 1049.88 62.6481 1048.01 62.6481 1045.52C62.6481 1044.27 62.8465 1043.22 63.2432 1042.37C63.6399 1041.52 64.1782 1040.9 64.8583 1040.5C65.5383 1040.11 66.105 1039.82 66.5583 1039.65C67.0117 1039.48 67.4934 1039.4 68.0034 1039.4C70.4969 1039.4 71.7436 1040.59 71.7436 1042.97C71.7436 1044.1 71.4036 1045.09 70.7236 1045.94C70.0435 1046.79 69.3918 1047.36 68.7685 1047.64C68.1451 1047.93 67.7767 1048.07 67.6634 1048.07L67.4084 1048.15C67.5217 1048.44 68.0601 1048.78 69.0235 1049.17C69.9868 1049.57 70.9502 1049.77 71.9136 1049.77H72.5936C73.557 1049.77 74.2937 1049.71 74.8038 1049.6C76.6739 1049.09 78.4023 1048.01 79.989 1046.37C81.5758 1044.73 82.7942 1042.97 83.6442 1041.1C84.4942 1039.23 85.1459 1037.64 85.5993 1036.34C86.0527 1035.04 86.2793 1034.19 86.2793 1033.79L85.7693 1034.13C85.4293 1034.36 84.8909 1034.67 84.1542 1035.06C83.4175 1035.46 82.6808 1035.8 81.9441 1036.08C80.8107 1036.37 79.7057 1036.51 78.6289 1036.51C76.0222 1036.51 73.727 1035.89 71.7436 1034.64C69.7602 1033.39 68.4568 1031.38 67.8334 1028.6C67.7767 1028.21 67.7484 1027.33 67.7484 1025.97C67.7484 1022.74 68.7401 1018.52 70.7236 1013.3C72.707 1008.09 73.6987 1004.77 73.6987 1003.36C73.6987 1003.3 73.6987 1003.24 73.6987 1003.19C73.6987 1002.68 73.6987 1002.34 73.6987 1002.17C73.6987 1002 73.5854 1001.8 73.3587 1001.57C73.132 1001.35 72.8203 1001.23 72.4236 1001.23H72.0836C70.7802 1001.23 69.5902 1001.77 68.5134 1002.85C67.4367 1003.92 66.5867 1005.09 65.9633 1006.33C65.3399 1007.58 64.8583 1008.77 64.5182 1009.9C64.1782 1011.04 63.9515 1011.66 63.8382 1011.77C63.7249 1011.89 63.2715 1011.94 62.4781 1011.94H61.2881C60.9481 1011.6 60.7781 1011.35 60.7781 1011.18Z" fill="black"/>
</svg>
