<svg width="347" height="227" viewBox="0 0 347 227" fill="none" xmlns="http://www.w3.org/2000/svg">
<g filter="url(#filter0_d)">
<line x1="93" y1="2.5" x2="343" y2="2.5" stroke="black" stroke-width="5" stroke-dasharray="5 5"/>
</g>
<path d="M90.5 227L90.5 4" stroke="#4066E0" stroke-width="5"/>
<path d="M1.07865 124.825C0.359551 124.825 0 124.615 0 124.194C0 124.11 0.0634502 123.816 0.190351 123.311C0.359551 122.638 0.528752 122.26 0.697952 122.176C0.867153 122.092 1.3536 122.029 2.15731 121.987C3.29941 121.987 4.56841 121.924 5.96432 121.798C6.55652 121.671 6.95837 121.419 7.16987 121.041C7.25447 120.83 8.75613 114.923 11.6748 103.318C14.5935 91.7129 16.0741 85.8263 16.1164 85.6581C16.1164 85.3638 16.0318 85.2166 15.8626 85.2166C15.5241 85.0905 14.4032 84.9853 12.4997 84.9012H10.5327C10.2789 84.649 10.152 84.4808 10.152 84.3967C10.152 84.3126 10.1943 83.9552 10.2789 83.3245C10.4481 82.6097 10.6596 82.1682 10.9134 82H45.1131C45.4092 82.1682 45.5572 82.3995 45.5572 82.6938C45.5572 82.904 45.2823 85.2586 44.7324 89.7577C44.1825 94.2567 43.8864 96.5693 43.8441 96.6954C43.7595 96.9898 43.3365 97.1369 42.5751 97.1369H41.8137C41.5176 96.9267 41.3695 96.6534 41.3695 96.317C41.3695 96.275 41.433 95.7704 41.5599 94.8033C41.6868 93.8362 41.7502 92.722 41.7502 91.4606C41.7502 90.1992 41.6022 89.169 41.3061 88.3701C41.01 87.5712 40.6081 86.9195 40.1005 86.4149C39.5929 85.9104 38.8104 85.574 37.7529 85.4058C36.6954 85.2376 35.6167 85.0905 34.5169 84.9643C33.4171 84.8382 31.8943 84.8172 29.9485 84.9012H28.4891C25.0205 84.9433 23.1805 85.0064 22.969 85.0905C22.7575 85.1746 22.6094 85.3427 22.5248 85.595C22.4825 85.6371 21.7634 88.3912 20.3675 93.8573L18.3371 101.993H21.8269C21.9538 101.993 22.4402 101.993 23.2862 101.993C24.1322 101.993 24.7244 101.972 25.0628 101.93C25.4012 101.888 25.8665 101.825 26.4587 101.741C27.0509 101.657 27.5585 101.51 27.9815 101.3C28.4045 101.089 28.7641 100.837 29.0602 100.543C29.6101 100.038 30.0754 99.3444 30.4561 98.4614C30.8368 97.5784 31.1117 96.7795 31.2809 96.0647C31.4502 95.3499 31.5559 94.9715 31.5982 94.9295C31.7251 94.7192 32.127 94.6141 32.8038 94.6141H33.5652C33.8613 94.8244 34.0093 95.0346 34.0093 95.2448C34.0093 95.371 33.3537 98.125 32.0424 103.507C30.731 108.889 30.0119 111.664 29.885 111.832C29.8004 112.127 29.3774 112.274 28.616 112.274H27.8546C27.5585 112.022 27.4105 111.769 27.4105 111.517C27.4105 111.391 27.5162 110.928 27.7277 110.129C27.9392 109.331 28.045 108.49 28.045 107.607C28.045 106.387 27.622 105.63 26.776 105.336C25.93 105.042 24.0476 104.895 21.1289 104.895H17.6392L15.6087 112.905C14.2551 118.118 13.5783 120.851 13.5783 121.104C13.5783 121.692 15.4607 121.987 19.2254 121.987H20.8117C21.0655 122.239 21.1924 122.386 21.1924 122.428C21.1924 122.47 21.1501 122.891 21.0655 123.69C20.8963 124.236 20.6848 124.636 20.431 124.888H19.3523C17.618 124.804 14.4243 124.762 9.77133 124.762C7.02182 124.762 4.92797 124.762 3.48976 124.762C2.05156 124.762 1.24785 124.783 1.07865 124.825Z" fill="#4066E0"/>
<path d="M48.3866 108.575L47.8034 108.798C47.3847 108.947 46.7866 109.095 46.009 109.244C45.2315 109.393 44.3642 109.497 43.4072 109.556H42.5548V107.505H43.4072C44.8128 107.445 46.1137 107.222 47.3099 106.836C48.5062 106.45 49.3436 106.093 49.8221 105.766C50.3006 105.439 50.7192 105.112 51.0781 104.785C51.1379 104.696 51.3174 104.651 51.6164 104.651C51.8856 104.651 52.1398 104.74 52.379 104.919V118.251L52.4239 131.629C52.6332 131.837 52.8127 131.97 52.9622 132.03C53.1117 132.089 53.4706 132.149 54.0388 132.208C54.607 132.268 55.5341 132.297 56.8201 132.297H57.9864V134.349H57.493C56.865 134.259 54.4874 134.215 50.3604 134.215C46.2931 134.215 43.9455 134.259 43.3175 134.349H42.7791V132.297H43.9455C44.6034 132.297 45.1716 132.297 45.6501 132.297C46.1286 132.297 46.5025 132.283 46.7716 132.253C47.0408 132.223 47.28 132.178 47.4894 132.119C47.6987 132.06 47.8183 132.03 47.8482 132.03C47.8782 132.03 47.9679 131.956 48.1174 131.807C48.2669 131.658 48.3566 131.599 48.3866 131.629V108.575Z" fill="#4066E0"/>
<path d="M61.9272 131.989C61.9272 131.695 62.0858 131.191 62.4029 130.476C62.7201 129.762 63.2275 129.015 63.9253 128.238C64.623 127.46 65.4053 127.082 66.2722 127.103C67.1391 127.103 67.8369 127.345 68.3655 127.828C68.8941 128.311 69.1689 128.984 69.1901 129.846C69.1478 130.245 69.1161 130.466 69.0949 130.508C69.0949 130.571 68.9258 131.054 68.5875 131.958C68.2492 132.862 67.9003 133.881 67.5409 135.016C67.1814 136.151 67.0123 137.054 67.0334 137.727C67.0334 138.631 67.1814 139.261 67.4774 139.619C67.7734 139.976 68.2175 140.165 68.8095 140.186C69.2958 140.186 69.7504 140.07 70.1732 139.839C70.5961 139.608 70.9238 139.366 71.1564 139.114C71.389 138.862 71.6744 138.515 72.0127 138.074C72.0127 138.053 72.0656 137.843 72.1713 137.443C72.277 137.044 72.425 136.424 72.6153 135.583C72.8056 134.743 73.0065 133.965 73.2179 133.25C74.0214 130.098 74.4654 128.448 74.55 128.301C74.8249 127.733 75.2794 127.45 75.9138 127.45C76.1886 127.45 76.4106 127.523 76.5798 127.67C76.7489 127.817 76.8652 127.944 76.9286 128.049C76.9921 128.154 77.0132 128.248 76.9921 128.332C76.9921 128.606 76.4741 130.812 75.438 134.953C74.402 139.093 73.81 141.363 73.662 141.762C73.0699 143.507 72.0445 144.894 70.5855 145.924C69.1266 146.954 67.6677 147.479 66.2088 147.5C65.2573 147.5 64.4222 147.269 63.7033 146.806C62.9844 146.344 62.6249 145.65 62.6249 144.726C62.6249 144.263 62.699 143.875 62.847 143.559C62.995 143.244 63.1958 143.013 63.4496 142.866C63.7033 142.719 63.9147 142.614 64.0839 142.55C64.253 142.487 64.4327 142.456 64.623 142.456C65.5533 142.456 66.0185 142.897 66.0185 143.78C66.0185 144.2 65.8916 144.568 65.6379 144.883C65.3842 145.199 65.141 145.409 64.9085 145.514C64.6759 145.619 64.5385 145.672 64.4962 145.672L64.401 145.703C64.4433 145.808 64.6442 145.934 65.0036 146.081C65.3631 146.228 65.7225 146.302 66.0819 146.302H66.3357C66.6951 146.302 66.97 146.281 67.1603 146.239C67.858 146.05 68.5029 145.65 69.0949 145.041C69.6869 144.431 70.1415 143.78 70.4587 143.086C70.7758 142.393 71.019 141.804 71.1881 141.321C71.3573 140.838 71.4419 140.522 71.4419 140.375L71.2516 140.501C71.1247 140.585 70.9238 140.701 70.649 140.848C70.3741 140.995 70.0992 141.121 69.8244 141.226C69.4015 141.331 68.9892 141.384 68.5875 141.384C67.6149 141.384 66.7585 141.153 66.0185 140.69C65.2785 140.228 64.7922 139.482 64.5596 138.452C64.5385 138.305 64.5279 137.979 64.5279 137.475C64.5279 136.277 64.8979 134.711 65.6379 132.777C66.378 130.844 66.748 129.614 66.748 129.089C66.748 129.068 66.748 129.047 66.748 129.026C66.748 128.837 66.748 128.711 66.748 128.648C66.748 128.585 66.7057 128.511 66.6211 128.427C66.5365 128.343 66.4202 128.301 66.2722 128.301H66.1454C65.6591 128.301 65.2151 128.5 64.8133 128.9C64.4116 129.299 64.0944 129.73 63.8619 130.192C63.6293 130.655 63.4496 131.096 63.3227 131.516C63.1958 131.937 63.1113 132.168 63.069 132.21C63.0267 132.252 62.8575 132.273 62.5615 132.273H62.1175C61.9906 132.147 61.9272 132.052 61.9272 131.989Z" fill="#4066E0"/>
<defs>
<filter id="filter0_d" x="89" y="0" width="258" height="13" filterUnits="userSpaceOnUse" color-interpolation-filters="sRGB">
<feFlood flood-opacity="0" result="BackgroundImageFix"/>
<feColorMatrix in="SourceAlpha" type="matrix" values="0 0 0 0 0 0 0 0 0 0 0 0 0 0 0 0 0 0 127 0"/>
<feOffset dy="4"/>
<feGaussianBlur stdDeviation="2"/>
<feColorMatrix type="matrix" values="0 0 0 0 0 0 0 0 0 0 0 0 0 0 0 0 0 0 0.25 0"/>
<feBlend mode="normal" in2="BackgroundImageFix" result="effect1_dropShadow"/>
<feBlend mode="normal" in="SourceGraphic" in2="effect1_dropShadow" result="shape"/>
</filter>
</defs>
</svg>
